
<svg xmlns="http://www.w3.org/2000/svg" version="1.1" xmlns:xlink="http://www.w3.org/1999/xlink" preserveAspectRatio="none" x="0px" y="0px" width="2196px" height="1100px" viewBox="0 0 2196 1100">
<defs>
<linearGradient id="Gradient_1" gradientUnits="userSpaceOnUse" x1="1070.55" y1="324.2375" x2="1070.55" y2="15.762499999999989" spreadMethod="pad">
<stop  offset="0%" stop-color="#000000" stop-opacity="0"/>

<stop  offset="100%" stop-color="#000000"/>
</linearGradient>

<radialGradient id="Gradient_2" gradientUnits="userSpaceOnUse" cx="0" cy="0" r="998.0125" fx="0" fy="0" gradientTransform="matrix( 0, 1, -13.456144086371664, 0, 1202.1,923.75) " spreadMethod="pad">
<stop  offset="0%" stop-color="#000000"/>

<stop  offset="100%" stop-color="#001D2D"/>
</radialGradient>

<g id="Layer12_0_FILL">
<path fill="url(#Gradient_1)" stroke="none" d="
M 2231.25 678.65
L 2231.25 -9.85 -90.15 -9.85 -90.15 678.65 2231.25 678.65 Z"/>
</g>

<g id="Layer11_0_FILL">
<path fill="url(#Gradient_2)" stroke="none" d="
M -150 -59.7
Q -314.95 -47.6 -467.05 -32 -771.15 -0.8 -706.7 16.95 -551.95 59.5 -554.95 60.05 -556.4 60.25 -557.9 60.6 -611.05 69.9 -663.25 80.05 -966.05 138.65 -1236.6 220.95 -1444.45 284.25 -1626.05 412.85 -1784.6 525.3 -1912.05 679.25 -2022.9 813.25 -2094.6 958.5 -2158.95 1089 -2173.75 1189.35
L 2491.75 1153.3 2539.15 -59.7 -150 -59.7 Z"/>
</g>

<g id="Layer9_0_FILL">
<path fill="#222222" stroke="none" d="
M 2695.15 983.65
Q 2699.8 932.8 2655.4 906.9 2610.9 881.1 2586.55 868.15 2562.4 855.1 2551.3 842.1 2540.2 829.1 2527.05 825.45 2513.9 821.6 2454.2 778.4 2394.6 734.95 2368.5 731.2 2342.2 727.15 2306.85 719.25 2271.3 711.35 2207.8 700.7 2144.15 689.95 2099.7 678.05 2055.1 666.05 2007.3 670.15 1959.25 674.25 1884.6 656.8 1809.8 639.2 1740.65 640 1671.55 640.65 1478.95 600.3 1426.65 576.95 1389.1 575.85 1366.5 575.1 1335.15 573.75 1318.75 572.95 1166 587.5 1084.95 595.1 1057.05 597.55 1004.25 602.25 991.55 602.25 982.05 602.25 928.8 604.3 862.1 606.85 823.25 607.95 674.85 612.15 633.7 605.05 591.75 598 531.55 602.25 501.45 604.4 479.65 607.95
L 193.35 643.15 79.55 665.7
Q 62.05 671.05 33.6 678.5 -23.2 693.45 -77.55 703.95 -103.25 708.8 -150.3 714.35 -204.2 720.7 -223.25 723.75 -321.5 739.3 -351.85 748.6 -369.35 754 -444.3 788.05 -467.55 798.55 -480.95 842.1 -491.25 875.55 -495.1 925.2 -498.1 963.85 -460.35 998.25 -426.7 1029 -353.95 1062.15 -291.2 1090.65 -216.4 1107.75 -211.8 1108.85 -207.2 1109.85 -131.95 1126.35 -38.4 1132.65 29.6 1137.45 124.95 1152.5 210.8 1165.95 223.05 1165.95 257.4 1165.95 311.9 1175.8 388.3 1189.55 484.7 1219.85 572.3 1247.4 670.4 1239.5 683.3 1238.55 741.6 1231.55 779.6 1226.95 800.3 1228.05 872.7 1232.3 921 1230.75 998.4 1228.05 1070 1211.55 1137.2 1196.1 1312.35 1200.2 1401.15 1202.25 1489.25 1207.45 1493.55 1207.45 1529.65 1201.25 1574.55 1193.7 1607.7 1189.7 1726.4 1175.45 1800.75 1190.8 1875.9 1206.35 1993.3 1173.05 2051.8 1156.55 2101.75 1150.25
L 2171.15 1150.25
Q 2252.2 1164.85 2278.15 1170.05 2295.3 1173.4 2358.5 1161.55 2427.9 1148.2 2494.5 1126 2521.15 1117.15 2543.95 1107.75 2590.55 1088.7 2640.5 1061.65 2690.4 1034.55 2695.15 983.65 Z"/>
</g>

<g id="Layer8_0_FILL">
<path fill="#000000" stroke="none" d="
M 220.35 841.25
L 362.6 971.45 811.25 1045.55 1171.75 959.45 1307.95 753.15 943.45 678.65 364.6 731.1 220.35 841.25 Z"/>
</g>

<g id="Layer7_0_FILL">
<path fill="#000000" stroke="none" d="
M 1117.05 749.65
L 908.95 716.3 908.95 909.1 1117.05 949.55 1117.05 749.65
M 1252.15 683.65
L 1117.05 749.65 1117.05 949.55 1252.15 866.7 1252.15 683.65
M 1252.15 683.65
L 1059.55 649.65 908.95 716.3 1117.05 749.65 1252.15 683.65 Z"/>
</g>

<g id="Layer7_1_FILL">
<path fill="#000000" stroke="none" d="
M 1117.5 750
L 909.4 716.65 909.4 909.55 1117.5 950 1117.5 750
M 1252.6 684
L 1117.5 750 1117.5 950 1252.6 867.15 1252.6 684
M 1117.5 750
L 1252.6 684 1060 650 909.4 716.65 1117.5 750 Z"/>
</g>

<g id="Layer4_0_STROKES_1_FILL">
<path fill="#FFFFFF" fill-opacity="0.3764705882352941" stroke="none" d="
M 667.05 422.75
Q 665.3392578125 423.9345703125 664.95 425.95
L 661.15 445.55
Q 660.7599609375 447.5822265625 661.9 449.3 663.081640625 451.0119140625 665.1 451.4 667.129296875 451.791015625 668.85 450.6 670.5607421875 449.4654296875 670.95 447.45
L 674.75 427.85
Q 675.1400390625 425.8177734375 673.95 424.1 672.818359375 422.3880859375 670.8 422 668.770703125 421.608984375 667.05 422.75
M 674.65 383.55
Q 672.9392578125 384.7345703125 672.55 386.75
L 668.75 406.35
Q 668.3599609375 408.3822265625 669.5 410.1 670.681640625 411.8119140625 672.7 412.2 674.729296875 412.591015625 676.45 411.4 678.1607421875 410.2654296875 678.55 408.25
L 682.35 388.65
Q 682.7400390625 386.6177734375 681.55 384.9 680.418359375 383.1880859375 678.4 382.8 676.370703125 382.408984375 674.65 383.55
M 686 343.55
Q 683.9703125 343.158984375 682.25 344.3 680.5396484375 345.4828125 680.15 347.5
L 676.35 367.15
Q 675.960546875 369.1806640625 677.1 370.9 678.281640625 372.6119140625 680.3 373 682.3296875 373.391015625 684.05 372.2 685.7603515625 371.0671875 686.15 369.05
L 689.95 349.4
Q 690.339453125 347.3693359375 689.15 345.65 688.0181640625 343.9380859375 686 343.55
M 693.55 304.15
Q 691.5203125 303.758984375 689.8 304.9 688.0896484375 306.0828125 687.7 308.1
L 683.9 327.8
Q 683.510546875 329.8306640625 684.65 331.55 685.831640625 333.2619140625 687.85 333.65 689.8796875 334.041015625 691.6 332.85 693.3103515625 331.7171875 693.7 329.7
L 697.5 310
Q 697.889453125 307.9693359375 696.7 306.25 695.5681640625 304.5380859375 693.55 304.15
M 1729.15 474.3
Q 1728.3796875 476.2099609375 1729.2 478.1
L 1737.1 496.5
Q 1737.9265625 498.4212890625 1739.85 499.2 1741.7546875 499.9705078125 1743.65 499.15 1745.566015625 498.3236328125 1746.35 496.4 1747.1203125 494.4900390625 1746.3 492.55
L 1738.4 474.15
Q 1737.5734375 472.278515625 1735.65 471.5 1733.7455078125 470.7294921875 1731.85 471.55 1729.933984375 472.3763671875 1729.15 474.3
M 1713.3 437.6
Q 1712.5439453125 439.5451171875 1713.35 441.45
L 1721.3 459.75
Q 1722.1578125 461.6421875 1724.05 462.4 1725.9984375 463.1580078125 1727.9 462.3 1729.7955078125 461.4939453125 1730.55 459.55 1731.3060546875 457.6548828125 1730.45 455.75
L 1722.5 437.45
Q 1721.6919921875 435.5578125 1719.75 434.8 1717.8515625 434.0419921875 1715.95 434.85 1714.0544921875 435.7060546875 1713.3 437.6
M 1714.65 419.15
L 1706.75 400.75
Q 1705.9234375 398.878515625 1704 398.1 1702.0955078125 397.3294921875 1700.2 398.15 1698.283984375 398.9763671875 1697.5 400.9 1696.7296875 402.8099609375 1697.55 404.7
L 1705.45 423.1
Q 1706.2765625 425.0212890625 1708.2 425.8 1710.1046875 426.5705078125 1712 425.75 1713.916015625 424.9236328125 1714.7 423 1715.4703125 421.0900390625 1714.65 419.15 Z"/>
</g>

<g id="Layer2_0_FILL">
<path fill="#FFFFFF" stroke="none" d="
M 959.9 195.9
Q 953.35 193.75 946 193.75 936.15 193.75 931.8 197.4 927.4 201.05 927.4 206.75 927.4 210.75 929.65 213.55 931.9 216.35 940.4 219.7
L 948.35 222.85
Q 953.05 224.75 954.25 226.1 955.45 227.4 955.45 229.25 955.45 232.05 952.9 233.9 950.35 235.75 944.55 235.75 941 235.75 935.85 234.55 930.75 233.35 926.15 230.35
L 926.15 238.45
Q 935.4 242.1 944.2 242.1 954.25 242.1 958.85 238.3 963.4 234.45 963.4 228.5 963.4 223.95 960.5 220.9 957.7 217.9 950.55 215.3
L 945.4 213.4
Q 940.1 211.5 937.75 210 935.35 208.55 935.35 206.05 935.35 203.55 938.1 201.85 940.8 200.1 945.65 200.1 952.35 200.1 959.9 202.85
L 959.9 195.9
M 882.3 177.2
L 874 177.2 874 217.9
Q 874 229.5 876.35 233.9 878.7 238.35 883.25 240.55 887.8 242.8 893.8 242.8 900.25 242.8 904.5 240.25 908.75 237.7 911.4 232.7 914.05 227.65 914.05 218.75
L 914.05 177.2 906.4 177.2 906.4 215.75
Q 906.4 225.75 905.05 229.4 903.65 233 900.8 234.75 897.9 236.4 894.25 236.4 890.75 236.4 887.9 234.85 885.05 233.25 883.65 230.25 882.3 227.25 882.3 219
L 882.3 177.2
M 841.5 177.2
L 825.65 177.2 825.65 240.85 833.95 240.85 833.95 217.65 837.3 217.65
Q 847.1 217.65 852.85 214.8 858.55 211.95 861.75 206.65 864.95 201.35 864.95 195.25 864.95 190.05 862.6 185.8 860.2 181.6 855.75 179.4 851.25 177.2 841.5 177.2
M 833.95 183.55
L 838.9 183.55
Q 849.5 183.55 853.1 186.75 856.7 189.95 856.7 195.45 856.7 199.85 854.65 203.55 852.65 207.3 848.9 209.25 845.2 211.3 837.5 211.3
L 833.95 211.3 833.95 183.55
M 999.55 240.8
Q 1001.5 238.85 1001.5 236.1 1001.5 233.3 999.55 231.4 997.55 229.4 994.85 229.4 992.15 229.4 990.15 231.4 988.15 233.3 988.15 236.1 988.15 238.85 990.1 240.8 992.1 242.8 994.85 242.8 997.6 242.8 999.55 240.8
M 1049.95 240.8
Q 1051.9 238.85 1051.9 236.1 1051.9 233.3 1049.95 231.4 1047.95 229.4 1045.25 229.4 1042.55 229.4 1040.55 231.4 1038.55 233.3 1038.55 236.1 1038.55 238.85 1040.5 240.8 1042.5 242.8 1045.25 242.8 1048 242.8 1049.95 240.8
M 1100.35 240.8
Q 1102.3 238.85 1102.3 236.1 1102.3 233.3 1100.35 231.4 1098.35 229.4 1095.65 229.4 1092.95 229.4 1090.95 231.4 1088.95 233.3 1088.95 236.1 1088.95 238.85 1090.9 240.8 1092.9 242.8 1095.65 242.8 1098.4 242.8 1100.35 240.8
M 812.65 185.5
L 812.65 177.95
Q 805.5 175.25 799.85 175.25 792.35 175.25 786.05 179.35 779.8 183.4 776.35 191.25 772.9 199.15 772.9 209 772.9 219.05 776.4 227 779.95 234.9 786.2 238.85 792.35 242.8 800.35 242.8 805.95 242.8 812.7 240.8
L 812.7 209.35 798.05 209.35 798.05 215.7 804.4 215.7 804.4 236.2 801.05 236.4
Q 790.9 236.4 786.2 227.95 781.45 219.45 781.45 209.1 781.45 201.35 783.95 194.85 786.45 188.35 790.55 185 794.6 181.6 799.5 181.6 806.05 181.6 812.65 185.5
M 596.35 240.8
Q 598.3 238.85 598.3 236.1 598.3 233.3 596.35 231.4 594.35 229.4 591.65 229.4 588.95 229.4 586.95 231.4 584.95 233.3 584.95 236.1 584.95 238.85 586.9 240.8 588.9 242.8 591.65 242.8 594.4 242.8 596.35 240.8
M 646.75 231.4
Q 644.75 229.4 642.05 229.4 639.35 229.4 637.35 231.4 635.35 233.3 635.35 236.1 635.35 238.85 637.3 240.8 639.3 242.8 642.05 242.8 644.8 242.8 646.75 240.8 648.7 238.85 648.7 236.1 648.7 233.3 646.75 231.4
M 441.6 196.4
Q 439.55 193.75 436.25 193.75 433.45 193.75 430.75 196.3 428 198.85 424.85 205.55
L 424.85 195.05 418.15 195.05 418.15 240.85 424.85 240.85 424.85 214.4
Q 427 208.7 429.45 205.05 431.85 201.4 433.95 201.4 434.9 201.4 436.1 202.45 437.3 203.55 437.3 209.6
L 437.3 240.85 443.65 240.85 443.65 215.45
Q 446.2 207.9 448.65 204.65 451.05 201.4 453.2 201.4 454.05 201.4 454.8 202.15 455.55 202.85 455.75 204.3
L 456 240.85 462.7 240.85 462.7 206.25
Q 462.7 198.75 460.6 196.25 458.5 193.75 455.55 193.75 452.9 193.75 450.85 195.3 448.8 196.85 446.9 199.45 445 202.05 443.65 206.25
L 443.65 203.75
Q 443.65 198.95 441.6 196.4
M 391.2 196.4
Q 389.15 193.75 385.85 193.75 383.05 193.75 380.35 196.3 377.6 198.85 374.45 205.55
L 374.45 195.05 367.75 195.05 367.75 240.85 374.45 240.85 374.45 214.4
Q 376.6 208.7 379.05 205.05 381.45 201.4 383.55 201.4 384.5 201.4 385.7 202.45 386.9 203.55 386.9 209.6
L 386.9 240.85 393.25 240.85 393.25 215.45
Q 395.8 207.9 398.25 204.65 400.65 201.4 402.8 201.4 403.65 201.4 404.4 202.15 405.15 202.85 405.35 204.3
L 405.6 240.85 412.3 240.85 412.3 206.25
Q 412.3 198.75 410.2 196.25 408.1 193.75 405.15 193.75 402.5 193.75 400.45 195.3 398.4 196.85 396.5 199.45 394.6 202.05 393.25 206.25
L 393.25 203.75
Q 393.25 198.95 391.2 196.4
M 354.95 194.7
L 355.2 194.7 354.95 240.85 362.6 240.85 362.6 177.2 354.5 177.2 339.8 219.1 325.05 177.2 316.75 177.2 316.75 240.85 323.45 240.85 323.25 194.7 323.45 194.7 325.05 200.3 335.05 228.15 343.3 228.15 354.95 194.7
M 525.65 195.05
L 518.95 195.05 518.95 240.85 525.65 240.85 525.65 214.4
Q 527.8 208.7 530.25 205.05 532.65 201.4 534.75 201.4 535.7 201.4 536.9 202.45 538.1 203.55 538.1 209.6
L 538.1 240.85 544.45 240.85 544.45 215.45
Q 547 207.9 549.45 204.65 551.85 201.4 554 201.4 554.85 201.4 555.6 202.15 556.35 202.85 556.55 204.3
L 556.8 240.85 563.5 240.85 563.5 206.25
Q 563.5 198.75 561.4 196.25 559.3 193.75 556.35 193.75 553.7 193.75 551.65 195.3 549.6 196.85 547.7 199.45 545.8 202.05 544.45 206.25
L 544.45 203.75
Q 544.45 198.95 542.4 196.4 540.35 193.75 537.05 193.75 534.25 193.75 531.55 196.3 528.8 198.85 525.65 205.55
L 525.65 195.05
M 511 196.25
Q 508.9 193.75 505.95 193.75 503.3 193.75 501.25 195.3 499.2 196.85 497.3 199.45 495.4 202.05 494.05 206.25
L 494.05 203.75
Q 494.05 198.95 492 196.4 489.95 193.75 486.65 193.75 483.85 193.75 481.15 196.3 478.4 198.85 475.25 205.55
L 475.25 195.05 468.55 195.05 468.55 240.85 475.25 240.85 475.25 214.4
Q 477.4 208.7 479.85 205.05 482.25 201.4 484.35 201.4 485.3 201.4 486.5 202.45 487.7 203.55 487.7 209.6
L 487.7 240.85 494.05 240.85 494.05 215.45
Q 496.6 207.9 499.05 204.65 501.45 201.4 503.6 201.4 504.45 201.4 505.2 202.15 505.95 202.85 506.15 204.3
L 506.4 240.85 513.1 240.85 513.1 206.25
Q 513.1 198.75 511 196.25
M 697.15 240.8
Q 699.1 238.85 699.1 236.1 699.1 233.3 697.15 231.4 695.15 229.4 692.45 229.4 689.75 229.4 687.75 231.4 685.75 233.3 685.75 236.1 685.75 238.85 687.7 240.8 689.7 242.8 692.45 242.8 695.2 242.8 697.15 240.8
M 1292.55 298.35
L 1287.45 298.35 1283.3 334.85 1283.15 334.85 1282.55 330 1276.55 298.35 1270.65 298.35 1264.7 333.85 1264.55 333.85 1260.7 298.35 1254.75 298.35 1260.55 348.35 1266.65 348.35 1273.05 309.35 1273.2 309.35 1280.35 348.35 1286.5 348.35 1292.55 298.35
M 1604.6 317.5
Q 1603.55 314.75 1600.95 313.05 1598.35 311.35 1595.15 311.35 1591.5 311.35 1587.85 313.7 1584.2 316.05 1581.65 320.2
L 1581.65 312.35 1575.65 312.35 1575.65 348.35 1581.65 348.35 1581.65 327.35
Q 1584 322.85 1587.65 319.85 1591.25 316.85 1594.4 316.85 1596 316.85 1597.35 317.95 1598.65 319 1599.15 320.65 1599.65 322.3 1599.65 327.5
L 1599.65 348.35 1605.65 348.35 1605.65 328.25
Q 1605.65 320.2 1604.6 317.5
M 1508 303.35
L 1508 343.35 1497 343.35 1497 348.35 1525.5 348.35 1525.5 343.35 1514.5 343.35 1514.5 303.35 1525.5 303.35 1525.5 298.35 1497 298.35 1497 303.35 1508 303.35
M 1427.85 340.4
Q 1426.25 341.9 1426.25 344.15 1426.25 346.05 1427.7 347.75 1429.1 349.45 1432.1 349.45 1432.1 351.95 1431.4 353.7 1430.65 355.45 1429.45 356.6 1428.25 357.75 1425.9 358.35
L 1425.9 362.35
Q 1429.75 361.85 1432.4 359.65 1435.05 357.4 1436.6 354.3 1438.15 351.1 1438.15 347.6 1438.15 343.5 1436.2 341.2 1434.25 338.85 1431.5 338.85 1429.45 338.85 1427.85 340.4
M 1315.45 311.85
Q 1309.5 311.85 1305.5 314.7 1301.5 317.55 1299.1 322.45 1296.75 327.35 1296.75 333.6 1296.75 341.55 1300.35 345.45 1303.9 349.35 1308.45 349.35 1311.65 349.35 1315.55 347.05 1319.35 344.8 1322.1 340.3 1322.55 345.4 1323.25 348.35
L 1329.5 348.35
Q 1328.15 344.3 1328.15 337.8
L 1328.15 312.35 1315.45 311.85
M 1306.95 321.1
Q 1310.65 316.85 1316.2 316.85 1318.95 316.85 1322.15 317.65
L 1322.15 333.15
Q 1319.45 337.95 1316.05 340.8 1312.65 343.6 1309.85 343.6 1307.3 343.6 1305.3 340.85 1303.25 338.15 1303.25 332.8 1303.25 325.4 1306.95 321.1
M 1338.15 317.35
L 1348.15 317.35 1348.15 348.35 1364.15 348.35 1364.15 343.35 1354.15 343.35 1354.15 312.35 1338.15 312.35 1338.15 317.35
M 1375.75 315.35
L 1375.75 320.35 1384.75 320.35 1384.75 334.85
Q 1384.75 340.8 1386.35 343.6 1387.95 346.45 1391.05 347.9 1394.2 349.35 1397.95 349.35
L 1401.6 349.05
Q 1403.5 348.65 1407.75 346.9
L 1407.75 341.6
Q 1402.95 344.35 1398.6 344.35 1396.25 344.35 1394.55 343.5 1392.8 342.7 1391.75 340.9 1390.75 339.1 1390.75 334.75
L 1390.75 320.35 1406.75 320.35 1406.75 315.35 1390.75 315.35 1390.75 300.85 1384.75 300.85 1384.75 315.35 1375.75 315.35
M 1351.15 295.35
Q 1349.95 295.35 1348.55 296.35 1347.15 297.35 1347.15 299.35 1347.15 301.35 1348.55 302.35 1349.95 303.35 1351.15 303.35 1352.4 303.35 1353.75 302.35 1355.15 301.35 1355.15 299.35 1355.15 297.35 1353.75 296.35 1352.4 295.35 1351.15 295.35
M 1859.95 334.85
Q 1859.95 340.8 1861.55 343.6 1863.15 346.45 1866.25 347.9 1869.4 349.35 1873.15 349.35
L 1876.8 349.05
Q 1878.7 348.65 1882.95 346.9
L 1882.95 341.6
Q 1878.15 344.35 1873.8 344.35 1871.45 344.35 1869.75 343.5 1868 342.7 1866.95 340.9 1865.95 339.1 1865.95 334.75
L 1865.95 320.35 1881.95 320.35 1881.95 315.35 1865.95 315.35 1865.95 300.85 1859.95 300.85 1859.95 315.35 1850.95 315.35 1850.95 320.35 1859.95 320.35 1859.95 334.85
M 1898.45 296.35
L 1892.45 296.35 1892.45 348.35 1898.45 348.35 1898.45 327.35
Q 1900.8 322.85 1904.45 319.85 1908.05 316.85 1911.2 316.85 1912.8 316.85 1914.15 317.95 1915.45 319 1915.95 320.65 1916.45 322.3 1916.45 327.5
L 1916.45 348.35 1922.45 348.35 1922.45 328.25
Q 1922.45 322.25 1922.15 320.35 1921.85 318.4 1921.05 316.7 1920.05 314.5 1917.55 312.95 1915 311.35 1911.95 311.35 1908.3 311.35 1904.65 313.7 1901 316.05 1898.45 320.2
L 1898.45 296.35
M 1772.3 333.6
Q 1772.3 341.55 1775.95 345.45 1779.5 349.35 1784 349.35 1787.3 349.35 1791.1 347.05 1795 344.75 1797.7 340.25
L 1797.7 348.35 1803.7 348.35 1803.7 296.35 1797.7 296.35 1797.7 312.35 1791 311.85
Q 1785.1 311.85 1781.1 314.7 1777.1 317.55 1774.7 322.45 1772.3 327.35 1772.3 333.6
M 1780.85 340.85
Q 1778.85 338.15 1778.85 332.8 1778.85 325.4 1782.55 321.1 1786.2 316.85 1791.8 316.85 1794.55 316.85 1797.7 317.65
L 1797.7 333.15
Q 1795.05 337.95 1791.65 340.8 1788.25 343.6 1785.45 343.6 1782.85 343.6 1780.85 340.85
M 1750.3 311.35
Q 1745.5 311.35 1741.55 313.85 1737.6 316.4 1735.45 320.95 1733.25 325.5 1733.25 330.45 1733.25 335.5 1735.55 340.05 1737.85 344.5 1741.7 346.95 1745.5 349.35 1750.4 349.35 1756.8 349.35 1764 345.95
L 1764 340.5
Q 1756.95 344.35 1751.15 344.35 1747.9 344.35 1745.35 342.8 1742.8 341.25 1741.25 338.15 1739.7 335.05 1739.7 331.3
L 1764.5 331.3 1764.5 330
Q 1764.5 320.5 1760.65 315.95 1756.75 311.35 1750.3 311.35
M 1743.8 319
Q 1746.4 316.35 1750.05 316.35 1753.65 316.35 1755.85 318.95 1758 321.55 1758 325.95
L 1758 326.8 1740.05 326.8
Q 1741.1 321.65 1743.8 319
M 1631.5 311.35
Q 1626.7 311.35 1622.75 313.85 1618.8 316.4 1616.65 320.95 1614.45 325.5 1614.45 330.45 1614.45 335.5 1616.75 340.05 1619.05 344.5 1622.9 346.95 1626.7 349.35 1631.6 349.35 1638 349.35 1645.2 345.95
L 1645.2 340.5
Q 1638.15 344.35 1632.35 344.35 1629.1 344.35 1626.55 342.8 1624 341.25 1622.45 338.15 1620.9 335.05 1620.9 331.3
L 1645.7 331.3 1645.7 330
Q 1645.7 320.5 1641.85 315.95 1637.95 311.35 1631.5 311.35
M 1631.25 316.35
Q 1634.85 316.35 1637.05 318.95 1639.2 321.55 1639.2 325.95
L 1639.2 326.8 1621.25 326.8
Q 1622.3 321.65 1625 319 1627.6 316.35 1631.25 316.35
M 1671.1 311.35
Q 1666.3 311.35 1662.35 313.85 1658.4 316.4 1656.25 320.95 1654.05 325.5 1654.05 330.45 1654.05 335.5 1656.35 340.05 1658.65 344.5 1662.5 346.95 1666.3 349.35 1671.2 349.35 1677.6 349.35 1684.8 345.95
L 1684.8 340.5
Q 1677.75 344.35 1671.95 344.35 1668.7 344.35 1666.15 342.8 1663.6 341.25 1662.05 338.15 1660.5 335.05 1660.5 331.3
L 1685.3 331.3 1685.3 330
Q 1685.3 320.5 1681.45 315.95 1677.55 311.35 1671.1 311.35
M 1670.85 316.35
Q 1674.45 316.35 1676.65 318.95 1678.8 321.55 1678.8 325.95
L 1678.8 326.8 1660.85 326.8
Q 1661.9 321.65 1664.6 319 1667.2 316.35 1670.85 316.35
M 1724.5 296.35
L 1718.5 296.35 1718.5 312.35 1711.8 311.85
Q 1705.9 311.85 1701.9 314.7 1697.9 317.55 1695.5 322.45 1693.1 327.35 1693.1 333.6 1693.1 341.55 1696.75 345.45 1700.3 349.35 1704.8 349.35 1708.1 349.35 1711.9 347.05 1715.8 344.75 1718.5 340.25
L 1718.5 348.35 1724.5 348.35 1724.5 296.35
M 1703.35 321.1
Q 1707 316.85 1712.6 316.85 1715.35 316.85 1718.5 317.65
L 1718.5 333.15
Q 1715.85 337.95 1712.45 340.8 1709.05 343.6 1706.25 343.6 1703.65 343.6 1701.65 340.85 1699.65 338.15 1699.65 332.8 1699.65 325.4 1703.35 321.1
M 2069.35 340.9
Q 2067.75 339.35 2065.65 339.35 2063.5 339.35 2061.95 340.9 2060.4 342.4 2060.4 344.6 2060.4 346.75 2061.95 348.3 2063.5 349.85 2065.65 349.85 2067.8 349.85 2069.35 348.3 2070.9 346.75 2070.9 344.6 2070.9 342.4 2069.35 340.9
M 1959.2 316.75
Q 1954.55 311.35 1946.85 311.35 1939.15 311.35 1934.5 316.75 1929.85 322.1 1929.85 330.35 1929.85 338.55 1934.5 343.95 1939.15 349.35 1946.85 349.35 1954.55 349.35 1959.2 343.95 1963.8 338.55 1963.8 330.35 1963.8 322.1 1959.2 316.75
M 1946.85 316.35
Q 1951.65 316.35 1954.45 320.1 1957.3 323.85 1957.3 330.35 1957.3 336.9 1954.45 340.6 1951.65 344.35 1946.85 344.35 1942.05 344.35 1939.2 340.6 1936.35 336.9 1936.35 330.35 1936.35 323.85 1939.2 320.1 1942.05 316.35 1946.85 316.35
M 1998.6 313.05
Q 1993.45 311.35 1987.65 311.35 1979.95 311.35 1976.5 314.2 1973.05 317.1 1973.05 321.55 1973.05 324.7 1974.85 326.9 1976.6 329.1 1983.3 331.7
L 1989.5 334.2
Q 1993.2 335.7 1994.15 336.75 1995.05 337.8 1995.05 339.25 1995.05 341.4 1993.1 342.9 1991.1 344.35 1986.55 344.35 1983.75 344.35 1979.7 343.4 1975.65 342.45 1972.05 340.1
L 1972.05 346.45
Q 1979.35 349.35 1986.25 349.35 1994.15 349.35 1997.75 346.35 2001.35 343.3 2001.35 338.65 2001.35 335.05 1999.05 332.7 1996.85 330.3 1991.25 328.25
L 1987.2 326.8
Q 1983 325.3 1981.2 324.1 1979.3 322.95 1979.3 321 1979.3 319 1981.45 317.7 1983.6 316.35 1987.4 316.35 1992.65 316.35 1998.6 318.5
L 1998.6 313.05
M 2018.75 313.85
Q 2014.8 316.4 2012.65 320.95 2010.45 325.5 2010.45 330.45 2010.45 335.5 2012.75 340.05 2015.05 344.5 2018.9 346.95 2022.7 349.35 2027.6 349.35 2034 349.35 2041.2 345.95
L 2041.2 340.5
Q 2034.15 344.35 2028.35 344.35 2025.1 344.35 2022.55 342.8 2020 341.25 2018.45 338.15 2016.9 335.05 2016.9 331.3
L 2041.7 331.3 2041.7 330
Q 2041.7 320.5 2037.85 315.95 2033.95 311.35 2027.5 311.35 2022.7 311.35 2018.75 313.85
M 2017.25 326.8
Q 2018.3 321.65 2021 319 2023.6 316.35 2027.25 316.35 2030.85 316.35 2033.05 318.95 2035.2 321.55 2035.2 325.95
L 2035.2 326.8 2017.25 326.8 Z"/>
</g>

<path id="Layer10_0_1_STROKES" stroke="#FFFFFF" stroke-opacity="0.3764705882352941" stroke-width="3" stroke-linejoin="round" stroke-linecap="round" fill="none" d="
M 1518.8 649
Q 1684.95 686.4 1756.35 688.6 1827.75 690.85 1927.7 692.95 2027.7 695.2 2075.1 704.05 2130.85 714.8 2207.8 725.05 2250.9 730.6 2284.55 739.35 2317.95 748.05 2380.6 775.45 2443.1 802.6 2463.75 815.4 2484.25 827.95 2559.85 872.85 2635.4 917.55 2642.4 923.1 2668.35 942.55 2668.35 950.25 2668.35 957.15 2686.3 967.55 2717 985.3 2725.75 991.9 2783.45 1034.6 2786.1 1111.35 2787.65 1155.65 2728.65 1198.55 2695.6 1222.35 2646.85 1244.05 2622.75 1254.55 2594.75 1264.7 2524.75 1290 2451.9 1305.2 2385.4 1318.75 2304.8 1308.7 2224.1 1298.6 2167.9 1300.75 2111.8 1302.95 2028.2 1329.7 1944.55 1356.3 1865.65 1338.75 1787.5 1321.05 1662.85 1337.35 1627.95 1341.9 1580.9 1350.7 1542.9 1357.7 1538.25 1357.7 1445.7 1351.65 1352.45 1349.3 1168.45 1344.8 1097.75 1362.4 1022.55 1381.15 941.25 1384.25 890.35 1386.05 814.2 1381.15 792.7 1380.05 752.65 1385.25 691.35 1393.15 677.85 1394.3 574.7 1403.35 482.65 1371.85 381.45 1337.2 301.05 1321.55 243.8 1310.4 207.8 1310.4 194.9 1310.4 104.75 1294.95 4.5 1277.75 -67.05 1272.2 -165.35 1265.15 -244.4 1246.35 -249.2 1245.15 -254.05 1244.05 -332.6 1224.5 -398.6 1191.8 -475.15 1153.95 -510.5 1118.85 -550 1079.75 -546.95 1035.8 -543.6 987.35 -515.1 921.9 -485.65 854.1 -459.65 841.45 -430.45 827 -414.75 814.05 -403.5 803 -398.6 799.95 -391.6 795.6 -372.75 794.75 -358.05 794.05 -309.05 779.3 -260.05 764.7 -202.85 761.55 -145.7 758.45 -107.1 749.25 -68.5 739.85 -47.45 734.3 -5.75 723 33.25 723 72.35 723 122.75 710.45 151.25 703.05 216 696.3 280.6 689.3 326.55 682.55 372.5 675.8 430.75 655.75 488.95 635.5 547.2 638.4 628.55 642.6 748.9 642.6 868.75 642.6 1008.35 643.1 1103.75 642.25 1202.6 633.2 1253.35 628.3 1297.05 629 1323.6 629.45 1366.15 633.2 1408.85 636.7 1431.8 637.05 1471.6 637.9 1518.8 649 Z"/>

<path id="Layer9_0_1_STROKES" stroke="#FFFFFF" stroke-width="6" stroke-linejoin="round" stroke-linecap="round" fill="none" d="
M 1478.95 600.3
Q 1671.55 640.65 1740.65 640 1809.8 639.2 1884.6 656.8 1959.25 674.25 2007.3 670.15 2055.1 666.05 2099.7 678.05 2144.15 689.95 2207.8 700.7 2271.3 711.35 2306.85 719.25 2342.2 727.15 2368.5 731.2 2394.6 734.95 2454.2 778.4 2513.9 821.6 2527.05 825.45 2540.2 829.1 2551.3 842.1 2562.4 855.1 2586.55 868.15 2610.9 881.1 2655.4 906.9 2699.8 932.8 2695.15 983.65 2690.4 1034.55 2640.5 1061.65 2590.55 1088.7 2543.95 1107.75 2521.15 1117.15 2494.5 1126 2427.9 1148.2 2358.5 1161.55 2295.3 1173.4 2278.15 1170.05 2252.2 1164.85 2171.15 1150.25
L 2101.75 1150.25
Q 2051.8 1156.55 1993.3 1173.05 1875.9 1206.35 1800.75 1190.8 1726.4 1175.45 1607.7 1189.7 1574.55 1193.7 1529.65 1201.25 1493.55 1207.45 1489.25 1207.45 1401.15 1202.25 1312.35 1200.2 1137.2 1196.1 1070 1211.55 998.4 1228.05 921 1230.75 872.7 1232.3 800.3 1228.05 779.6 1226.95 741.6 1231.55 683.3 1238.55 670.4 1239.5 572.3 1247.4 484.7 1219.85 388.3 1189.55 311.9 1175.8 257.4 1165.95 223.05 1165.95 210.8 1165.95 124.95 1152.5 29.6 1137.45 -38.4 1132.65 -131.95 1126.35 -207.2 1109.85 -211.8 1108.85 -216.4 1107.75 -291.2 1090.65 -353.95 1062.15 -426.7 1029 -460.35 998.25 -498.1 963.85 -495.1 925.2 -491.25 875.55 -480.95 842.1 -467.55 798.55 -444.3 788.05 -369.35 754 -351.85 748.6 -321.5 739.3 -223.25 723.75 -204.2 720.7 -150.3 714.35 -103.25 708.8 -77.55 703.95 -23.2 693.45 33.6 678.5 62.05 671.05 79.55 665.7
L 193.35 643.15 479.65 607.95
Q 501.45 604.4 531.55 602.25 591.75 598 633.7 605.05 674.85 612.15 823.25 607.95 862.1 606.85 928.8 604.3 982.05 602.25 991.55 602.25 1004.25 602.25 1057.05 597.55 1084.95 595.1 1166 587.5 1318.75 572.95 1335.15 573.75 1366.5 575.1 1389.1 575.85 1426.65 576.95 1478.95 600.3 Z"/>

<path id="Layer8_0_1_STROKES" stroke="#00FF00" stroke-width="10" stroke-linejoin="round" stroke-linecap="round" fill="none" d="
M 362.6 971.45
L 220.35 841.25 364.6 731.1 943.45 678.65 1307.95 753.15 1171.75 959.45 811.25 1045.55 362.6 971.45 Z"/>

<path id="Layer7_0_1_STROKES" stroke="#FFFFFF" stroke-width="4" stroke-linejoin="round" stroke-linecap="round" fill="none" d="
M 874.1834854125979 514.5769454956054
L 623.259211730957 470.28086395263665 427.05362701416027 557.1142120361327 698.1717025756835 600.5634567260742 874.1834854125979 514.5769454956054 Z
M 874.1834854125979 514.5769454956054
L 874.1834854125979 753.0592315673829 698.1717025756835 860.9983596801757 427.05362701416027 808.2990509033203 427.05362701416027 557.1142120361327
M 698.1717025756835 860.9983596801757
L 698.1717025756835 600.5634567260742"/>

<path id="Layer7_1_1_STROKES" stroke="#FFFFFF" stroke-width="4" stroke-linejoin="round" stroke-linecap="round" fill="none" d="
M 1624.0675323486328 593.5642204284668
L 1805.9359329223632 622.7103576660156 1924.0061920166015 565.0298461914062 1755.6839721679687 535.3156433105469 1624.0675323486328 593.5642204284668 Z
M 1624.0675323486328 593.5642204284668
L 1624.0675323486328 762.148624420166 1805.9359329223632 797.4997863769531 1805.9359329223632 622.7103576660156
M 1924.0061920166015 565.0298461914062
L 1924.0061920166015 725.0932655334473 1805.9359329223632 797.4997863769531"/>

<path id="Layer1_0_1_STROKES" stroke="#999999" stroke-width="14" stroke-linejoin="miter" stroke-linecap="round" stroke-miterlimit="3" fill="none" d="
M 1048.65 752.6
L 1106.7 752.6 1106.7 810.65 1048.65 810.65 1048.65 752.6 Z
M 1088.65 852.6
L 1146.7 852.6 1146.7 910.65 1088.65 910.65 1088.65 852.6 Z
M 959.5 859.3
L 1017.55 859.3 1017.55 917.35 959.5 917.35 959.5 859.3 Z"/>
</defs>

<g transform="matrix( 1, 0, 0, 1, 0,0) ">
<use xlink:href="#Layer12_0_FILL"/>
</g>

<g transform="matrix( 1, 0, 0, 1, 0,0) ">
<use xlink:href="#Layer11_0_FILL"/>
</g>

<g transform="matrix( 1, 0, 0, 1, 0,0) ">
<use xlink:href="#Layer10_0_1_STROKES"/>
</g>

<g transform="matrix( 1, 0, 0, 1, 0,0) ">
<use xlink:href="#Layer9_0_FILL"/>

<use xlink:href="#Layer9_0_1_STROKES"/>
</g>

<g transform="matrix( 1, 0, 0, 1, 0,0) ">
<use xlink:href="#Layer8_0_FILL"/>

<use xlink:href="#Layer8_0_1_STROKES"/>
</g>

<g transform="matrix( 1.302825927734375, 0, 0, 1.302825927734375, -757.15,-376.1) ">
<use xlink:href="#Layer7_0_FILL"/>

<use xlink:href="#Layer7_0_1_STROKES" transform="matrix( 0.767547607421875, 0, 0, 0.767547607421875, 581.15,288.65) "/>
</g>

<g transform="matrix( 0.8739471435546875, 0, 0, 0.8739471435546875, 829.3,-32.75) ">
<use xlink:href="#Layer7_1_FILL"/>

<use xlink:href="#Layer7_1_1_STROKES" transform="matrix( 1.14422607421875, 0, 0, 1.14422607421875, -948.9,37.45) "/>
</g>

<g transform="matrix( 1, 0, 0, 1, 0,0) ">
<use xlink:href="#Layer4_0_STROKES_1_FILL"/>
</g>

<g transform="matrix( 1, 0, 0, 1, 0,0) ">
<use xlink:href="#Layer2_0_FILL"/>
</g>

<g transform="matrix( 1, 0, 0, 1, 0,0) ">
<use xlink:href="#Layer1_0_1_STROKES"/>
</g>
</svg>
