
<svg xmlns="http://www.w3.org/2000/svg" version="1.1" xmlns:xlink="http://www.w3.org/1999/xlink" preserveAspectRatio="none" x="0px" y="0px" width="2196px" height="1100px" viewBox="0 0 2196 1100">
<defs>
<linearGradient id="Gradient_1" gradientUnits="userSpaceOnUse" x1="1070.55" y1="284.2375" x2="1070.55" y2="-24.23750000000001" spreadMethod="pad">
<stop  offset="0%" stop-color="#000000" stop-opacity="0"/>

<stop  offset="100%" stop-color="#000000"/>
</linearGradient>

<radialGradient id="Gradient_2" gradientUnits="userSpaceOnUse" cx="0" cy="0" r="998.0125" fx="0" fy="0" gradientTransform="matrix( 0, 1, -13.456144086371664, 0, 1202.1,883.75) " spreadMethod="pad">
<stop  offset="0%" stop-color="#000000"/>

<stop  offset="100%" stop-color="#001D2D"/>
</radialGradient>

<g id="Layer12_0_FILL">
<path fill="url(#Gradient_1)" stroke="none" d="
M 2231.25 638.65
L 2231.25 -49.85 -90.15 -49.85 -90.15 638.65 2231.25 638.65 Z"/>
</g>

<g id="Layer11_0_FILL">
<path fill="url(#Gradient_2)" stroke="none" d="
M -150 -99.7
Q -314.95 -87.6 -467.05 -72 -771.15 -40.8 -706.7 -23.05 -551.95 19.5 -554.95 20.05 -556.4 20.25 -557.9 20.6 -611.05 29.9 -663.25 40.05 -966.05 98.65 -1236.6 180.95 -1444.45 244.25 -1626.05 372.85 -1784.6 485.3 -1912.05 639.25 -2022.9 773.25 -2094.6 918.5 -2158.95 1049 -2173.75 1149.35
L 2491.75 1113.3 2539.15 -99.7 -150 -99.7 Z"/>
</g>

<g id="box_in_water_0_Layer0_0_FILL">
<path fill="#000000" stroke="none" d="
M 0 208.9
L 196.45 267.05 196.45 71.95 0 41.2 0 208.9
M 196.45 71.95
L 321.05 25.15 157.2 0 0 41.2 196.45 71.95
M 321.05 25.15
L 196.45 71.95 196.45 267.05 319.6 197.4 321.05 25.15 Z"/>
</g>

<g id="Layer6_0_FILL">
<path fill="#222222" stroke="none" d="
M 1978.55 773.8
Q 1964.4 766.15 1957.9 758.55 1951.4 750.95 1943.7 748.8 1936 746.55 1901.05 721.25 1866.15 695.8 1850.85 693.6 1835.45 691.25 1814.75 686.6 1793.95 682 1756.75 675.75 1719.5 669.45 1693.45 662.5 1667.35 655.45 1639.35 657.85 1611.2 660.25 1567.5 650.05 1523.7 639.75 1483.2 640.2 1442.75 640.6 1329.95 616.95 1299.35 603.3 1277.35 602.65 1264.1 602.2 1245.75 601.4 1236.15 600.95 1146.7 609.45 1099.25 613.9 1082.9 615.35 1052 618.1 1044.55 618.1 1039 618.1 1007.8 619.3 968.75 620.8 946 621.45 859.1 623.9 835 619.75 810.45 615.6 775.2 618.1 757.55 619.35 744.8 621.45
L 577.15 642.05 510.5 655.25
Q 500.25 658.4 483.6 662.75 450.35 671.5 418.5 677.65 403.45 680.5 375.9 683.75 344.35 687.45 333.2 689.25 275.65 698.35 257.9 703.8 247.65 706.95 203.75 726.9 190.15 733.05 182.3 758.55 176.25 778.15 174 807.2 172.25 829.85 194.35 850 214.05 868 256.65 887.4 293.4 904.1 337.2 914.1 339.9 914.75 342.6 915.35 386.65 925 441.45 928.7 481.25 931.5 537.1 940.3 587.35 948.2 594.55 948.2 614.65 948.2 646.55 953.95 691.3 962 747.75 979.75 799.05 995.9 856.5 991.25 864.05 990.7 898.2 986.6 920.45 983.9 932.55 984.55 974.95 987.05 1003.25 986.15 1048.55 984.55 1090.5 974.9 1129.85 965.85 1232.4 968.25 1284.4 969.45 1336 972.5 1338.5 972.5 1359.65 968.85 1385.95 964.45 1405.35 962.1 1474.85 953.75 1518.4 962.75 1562.4 971.85 1631.15 952.35 1665.4 942.7 1694.65 939
L 1735.3 939
Q 1782.75 947.55 1797.95 950.6 1808 952.55 1845 945.6 1885.65 937.8 1924.65 924.8 1940.25 919.6 1953.6 914.1 1980.9 902.95 2010.15 887.1 2039.35 871.25 2042.15 841.45 2044.85 811.65 2018.85 796.5 1992.8 781.4 1978.55 773.8 Z"/>
</g>

<g id="Layer5_0_FILL">
<path fill="#000000" stroke="none" d="
M 1117.5 750
L 909.4 716.65 909.4 909.55 1117.5 950 1117.5 750
M 1252.6 684
L 1117.5 750 1117.5 950 1252.6 867.15 1252.6 684
M 1117.5 750
L 1252.6 684 1060 650 909.4 716.65 1117.5 750 Z"/>
</g>

<g id="Layer5_1_FILL">
<path fill="#000000" stroke="none" d="
M 1117.5 750
L 909.4 716.65 909.4 909.55 1117.5 950 1117.5 750
M 1252.6 684
L 1117.5 750 1117.5 950 1252.6 867.15 1252.6 684
M 1117.5 750
L 1252.6 684 1060 650 909.4 716.65 1117.5 750 Z"/>
</g>

<g id="Layer5_2_FILL">
<path fill="#000000" stroke="none" d="
M 1117.5 750
L 909.4 716.65 909.4 909.55 1117.5 950 1117.5 750
M 1252.6 684
L 1117.5 750 1117.5 950 1252.6 867.15 1252.6 684
M 1117.5 750
L 1252.6 684 1060 650 909.4 716.65 1117.5 750 Z"/>
</g>

<g id="Layer5_3_FILL">
<path fill="#000000" stroke="none" d="
M 1117.5 750
L 909.4 716.65 909.4 909.55 1117.5 950 1117.5 750
M 1252.6 684
L 1117.5 750 1117.5 950 1252.6 867.15 1252.6 684
M 1117.5 750
L 1252.6 684 1060 650 909.4 716.65 1117.5 750 Z"/>
</g>

<g id="Layer5_4_FILL">
<path fill="#000000" stroke="none" d="
M 1117.5 750
L 909.4 716.65 909.4 909.55 1117.5 950 1117.5 750
M 1252.6 684
L 1117.5 750 1117.5 950 1252.6 867.15 1252.6 684
M 1117.5 750
L 1252.6 684 1060 650 909.4 716.65 1117.5 750 Z"/>
</g>

<g id="Layer5_5_FILL">
<path fill="#000000" stroke="none" d="
M 1117.5 750
L 909.4 716.65 909.4 909.55 1117.5 950 1117.5 750
M 1252.6 684
L 1117.5 750 1117.5 950 1252.6 867.15 1252.6 684
M 1117.5 750
L 1252.6 684 1060 650 909.4 716.65 1117.5 750 Z"/>
</g>

<g id="Layer4_0_STROKES_1_FILL">
<path fill="#FFFFFF" fill-opacity="0.3764705882352941" stroke="none" d="
M 983 483.2
Q 981.7564453125 484.8880859375 982.05 486.9
L 984.95 506.7
Q 985.25859375 508.765234375 986.9 510 988.5865234375 511.2455078125 990.6 510.95 992.663671875 510.643359375 993.9 508.95 995.1435546875 507.3119140625 994.85 505.25
L 991.95 485.45
Q 991.64140625 483.434765625 989.95 482.2 988.3134765625 480.9544921875 986.25 481.25 984.236328125 481.5568359375 983 483.2
M 980.45 441.65
Q 978.436328125 441.9568359375 977.2 443.6 975.9564453125 445.2880859375 976.25 447.3
L 979.15 467.1
Q 979.45859375 469.165234375 981.1 470.4 982.7865234375 471.6455078125 984.8 471.35 986.863671875 471.043359375 988.1 469.35 989.3435546875 467.7119140625 989.05 465.65
L 986.15 445.85
Q 985.84140625 443.834765625 984.15 442.6 982.5134765625 441.3544921875 980.45 441.65
M 971.4 404
Q 970.1564453125 405.6880859375 970.45 407.7
L 973.35 427.5
Q 973.65859375 429.565234375 975.3 430.8 976.9865234375 432.0455078125 979 431.75 981.063671875 431.443359375 982.3 429.75 983.5435546875 428.1119140625 983.25 426.05
L 980.35 406.25
Q 980.04140625 404.234765625 978.35 403 976.7134765625 401.7544921875 974.65 402.05 972.636328125 402.3568359375 971.4 404
M 959.6 324.8
Q 958.3564453125 326.4880859375 958.65 328.5
L 961.55 348.3
Q 961.85859375 350.365234375 963.5 351.6 965.1865234375 352.8455078125 967.2 352.55 969.263671875 352.243359375 970.5 350.55 971.7435546875 348.9119140625 971.45 346.85
L 968.55 327.05
Q 968.24140625 325.034765625 966.55 323.8 964.9134765625 322.5544921875 962.85 322.85 960.836328125 323.1568359375 959.6 324.8
M 974.45 366.65
Q 974.14140625 364.634765625 972.45 363.4 970.8134765625 362.1544921875 968.75 362.45 966.736328125 362.7568359375 965.5 364.4 964.2564453125 366.0880859375 964.55 368.1
L 967.45 387.9
Q 967.75859375 389.965234375 969.4 391.2 971.0865234375 392.4455078125 973.1 392.15 975.163671875 391.843359375 976.4 390.15 977.6435546875 388.5119140625 977.35 386.45
L 974.45 366.65 Z"/>
</g>

<g id="Layer3_0_FILL">
<path fill="#FFFFFF" stroke="none" d="
M 536.7 215.75
Q 534.2 214.25 531.25 214.25 527.7 214.25 524.2 216.5 520.65 218.8 518.15 222.8
L 518.15 199.65 512.35 199.65 512.35 250.1 518.15 250.1 518.15 229.75
Q 520.45 225.4 523.95 222.5 527.45 219.55 530.55 219.55 532.05 219.55 533.4 220.6 534.65 221.65 535.15 223.25 535.65 224.85 535.65 229.9
L 535.65 250.1 541.45 250.1 541.45 230.6
Q 541.45 224.8 541.15 222.95 540.9 221.05 540.1 219.4 539.15 217.25 536.7 215.75
M 577.05 245.85
Q 581.55 240.6 581.55 232.65 581.55 224.65 577.05 219.45 572.55 214.25 565.1 214.25 557.6 214.25 553.1 219.45 548.6 224.65 548.6 232.65 548.6 240.6 553.1 245.85 557.6 251.05 565.1 251.05 572.55 251.05 577.05 245.85
M 575.25 232.65
Q 575.25 239 572.5 242.6 569.75 246.25 565.1 246.25 560.45 246.25 557.7 242.6 554.95 239 554.95 232.65 554.95 226.3 557.7 222.7 560.45 219.05 565.1 219.05 569.75 219.05 572.5 222.7 575.25 226.3 575.25 232.65
M 617.85 215.2
L 612.05 215.2 612.05 235.55
Q 609.75 239.95 606.25 242.85 602.7 245.75 599.65 245.75 598.15 245.75 596.85 244.7 595.55 243.65 595.1 242.05 594.6 240.45 594.6 235.4
L 594.6 215.2 588.75 215.2 588.75 234.7
Q 588.75 242.45 589.75 245.15 590.75 247.8 593.35 249.45 595.85 251.05 598.95 251.05 602.35 251.05 605.8 248.9 609.25 246.75 612.05 242.45
L 612.05 250.1 617.85 250.1 617.85 215.2
M 408.35 206.45
L 408.35 245.25 397.7 245.25 397.7 250.1 425.3 250.1 425.3 245.25 414.65 245.25 414.65 206.45 425.3 206.45 425.3 201.6 397.7 201.6 397.7 206.45 408.35 206.45
M 481.75 245.3
Q 477.85 244.4 474.35 242.1
L 474.35 248.25
Q 481.4 251.05 488.1 251.05 495.75 251.05 499.25 248.15 502.75 245.25 502.75 240.7 502.75 237.25 500.55 234.9 498.4 232.6 492.95 230.65
L 489 229.2
Q 485 227.75 483.2 226.6 481.4 225.5 481.4 223.6 481.4 221.65 483.5 220.4 485.55 219.05 489.25 219.05 494.3 219.05 500.05 221.15
L 500.05 215.85
Q 495.05 214.25 489.5 214.25 482 214.25 478.65 217 475.3 219.8 475.3 224.1 475.3 227.15 477.05 229.3 478.75 231.45 485.25 234
L 491.25 236.4
Q 494.85 237.85 495.75 238.85 496.65 239.85 496.65 241.25 496.65 243.4 494.75 244.8 492.8 246.25 488.4 246.25 485.65 246.25 481.75 245.3
M 599.05 104.15
Q 593.65 102.15 589.3 102.15 583.6 102.15 578.8 105.25 574.05 108.3 571.4 114.3 570.15 117.15 569.55 120.3 568.8 123.85 568.8 127.85 568.8 135.5 571.5 141.55 574.15 147.55 578.9 150.55 583.65 153.55 589.7 153.55 594 153.55 599.1 152.05
L 599.1 128.1 587.95 128.1 587.95 132.95 592.8 132.95 592.8 148.55 590.25 148.75
Q 582.5 148.75 578.9 142.25 575.3 135.8 575.3 127.9 575.3 123.9 576.2 120.3 576.65 118.65 577.25 117.05 579.1 112.1 582.25 109.55 585.3 107 589.05 107 594.05 107 599.05 109.9
L 599.05 104.15
M 634.15 120.65
Q 634 120.45 633.85 120.3 630.1 116.25 624.15 116.25 619.45 116.25 615.65 118.65 614.5 119.4 613.55 120.3 611.2 122.45 609.7 125.55 607.55 129.95 607.55 134.75 607.55 139.65 609.8 144.05 612.05 148.4 615.75 150.75 619.45 153.05 624.2 153.05 630.4 153.05 637.4 149.8
L 637.4 144.5
Q 630.55 148.25 624.95 148.25 621.8 148.25 619.3 146.75 616.85 145.25 615.35 142.25 613.8 139.2 613.8 135.55
L 637.9 135.55 637.9 134.3
Q 637.9 125.1 634.15 120.65
M 617.8 123.65
Q 620.35 121.05 623.9 121.05 627.4 121.05 629.45 123.6 631.55 126.15 631.55 130.4
L 631.55 131.25 614.15 131.25
Q 615.2 126.25 617.8 123.65
M 843.7 215.2
L 826.9 231.35 843.9 250.1 851.9 250.1 834.75 231.2 851.4 215.2 843.7 215.2
M 826.9 199.65
L 821.1 199.65 821.1 250.1 826.9 250.1 826.9 231.35 826.9 199.65
M 883.75 218.65
Q 879.95 214.25 873.75 214.25 869.05 214.25 865.25 216.65 861.4 219.15 859.3 223.55 857.15 227.95 857.15 232.75 857.15 237.65 859.4 242.05 861.65 246.4 865.35 248.75 869.05 251.05 873.8 251.05 880 251.05 887 247.8
L 887 242.5
Q 880.15 246.25 874.55 246.25 871.4 246.25 868.9 244.75 866.45 243.25 864.95 240.25 863.4 237.2 863.4 233.55
L 887.5 233.55 887.5 232.3
Q 887.5 223.1 883.75 218.65
M 873.5 219.05
Q 877 219.05 879.05 221.6 881.15 224.15 881.15 228.4
L 881.15 229.25 863.75 229.25
Q 864.8 224.25 867.4 221.65 869.95 219.05 873.5 219.05
M 957.05 215.4
Q 955.45 216.55 954.05 218.55 952.55 220.55 951.55 223.75
L 951.55 221.85
Q 951.55 218.2 950 216.25 948.45 214.25 945.9 214.25 943.8 214.25 941.7 216.15 939.6 218.1 937.2 223.2
L 937.2 215.2 932.1 215.2 932.1 250.1 937.2 250.1 937.2 229.95
Q 938.85 225.6 940.7 222.8 942.55 220.05 944.15 220.05 944.85 220.05 945.8 220.85 946.7 221.65 946.7 226.3
L 946.7 250.1 951.55 250.1 951.55 230.75
Q 953.45 225 955.35 222.55 957.2 220.05 958.8 220.05 959.45 220.05 960.05 220.6 960.6 221.15 960.8 222.25
L 960.95 250.1 966.05 250.1 966.05 223.75
Q 966.05 218.05 964.45 216.15 962.85 214.25 960.6 214.25 958.6 214.25 957.05 215.4
M 653.65 250.1
L 653.65 245.25 642.75 245.25 642.75 199.65 626.5 199.65 626.5 204.5 636.9 204.5 636.9 250.1 653.65 250.1
M 689.3 199.65
L 689.3 215.2 682.8 214.7
Q 677.05 214.7 673.15 217.5 669.3 220.25 667 225 664.65 229.75 664.65 235.8 664.65 243.5 668.15 247.3 671.65 251.05 676 251.05 679.15 251.05 682.9 248.85 686.65 246.65 689.3 242.25
L 689.3 250.1 695.1 250.1 695.1 199.65 689.3 199.65
M 689.3 220.35
L 689.3 235.35
Q 686.7 240 683.4 242.75 680.1 245.5 677.4 245.5 674.9 245.5 672.95 242.85 671 240.25 671 235.05 671 227.85 674.55 223.7 678.15 219.55 683.55 219.55 686.2 219.55 689.3 220.35
M 774.05 223.75
Q 774.05 218.05 772.45 216.15 770.85 214.25 768.6 214.25 766.6 214.25 765.05 215.4 763.45 216.55 762.05 218.55 760.55 220.55 759.55 223.75
L 759.55 221.85
Q 759.55 218.2 758 216.25 756.45 214.25 753.9 214.25 751.8 214.25 749.7 216.15 747.6 218.1 745.2 223.2
L 745.2 215.2 740.1 215.2 740.1 250.1 745.2 250.1 745.2 229.95
Q 746.85 225.6 748.7 222.8 750.55 220.05 752.15 220.05 752.85 220.05 753.8 220.85 754.7 221.65 754.7 226.3
L 754.7 250.1 759.55 250.1 759.55 230.75
Q 761.45 225 763.35 222.55 765.2 220.05 766.8 220.05 767.45 220.05 768.05 220.6 768.6 221.15 768.8 222.25
L 768.95 250.1 774.05 250.1 774.05 223.75
M 809.95 215.2
L 797.6 214.7
Q 791.85 214.7 788 217.5 784.1 220.25 781.8 225 779.5 229.75 779.5 235.8 779.5 243.5 783 247.3 786.45 251.05 790.85 251.05 793.95 251.05 797.7 248.85 801.45 246.65 804.1 242.3 804.5 247.25 805.2 250.1
L 811.25 250.1
Q 809.95 246.15 809.95 239.85
L 809.95 215.2
M 798.35 219.55
Q 801 219.55 804.1 220.35
L 804.1 235.35
Q 801.5 240 798.25 242.75 794.95 245.5 792.2 245.5 789.7 245.5 787.75 242.85 785.8 240.25 785.8 235.05 785.8 227.85 789.4 223.7 792.95 219.55 798.35 219.55
M 732.4 104.6
Q 732.4 106.5 733.75 107.5 735.1 108.45 736.25 108.45 737.45 108.45 738.8 107.5 740.15 106.5 740.15 104.6 740.15 102.65 738.8 101.65 737.45 100.7 736.25 100.7 735.1 100.7 733.75 101.65 732.4 102.65 732.4 104.6
M 773.8 118.5
Q 772.55 119.3 771.5 120.3 769.4 122.2 767.75 124.8
L 767.75 117.2 761.95 117.2 761.95 152.1 767.75 152.1 767.75 131.75
Q 770.05 127.4 773.55 124.5 777.05 121.55 780.15 121.55 781.65 121.55 783 122.6 784.25 123.65 784.75 125.25 785.25 126.85 785.25 131.9
L 785.25 152.1 791.05 152.1 791.05 132.6
Q 791.05 124.8 790.05 122.15 789.65 121.15 789.05 120.3 788.05 118.9 786.5 117.9 783.95 116.25 780.85 116.25 777.3 116.25 773.8 118.5
M 653.6 106.05
L 653.6 120.1 644.9 120.1 644.9 124.95 653.6 124.95 653.6 139
Q 653.6 144.75 655.2 147.5 656.7 150.25 659.75 151.65 662.8 153.05 666.45 153.05
L 670 152.75
Q 671.85 152.4 675.95 150.7
L 675.95 145.55
Q 671.3 148.25 667.05 148.25 664.8 148.25 663.1 147.4 661.45 146.6 660.45 144.9 659.45 143.15 659.45 138.9
L 659.45 124.95 674.95 124.95 674.95 120.1 659.45 120.1 659.45 106.05 653.6 106.05
M 692 106.05
L 692 120.1 683.3 120.1 683.3 124.95 692 124.95 692 139
Q 692 144.75 693.6 147.5 695.1 150.25 698.15 151.65 701.2 153.05 704.85 153.05
L 708.4 152.75
Q 710.25 152.4 714.35 150.7
L 714.35 145.55
Q 709.7 148.25 705.45 148.25 703.2 148.25 701.5 147.4 699.85 146.6 698.85 144.9 697.85 143.15 697.85 138.9
L 697.85 124.95 713.35 124.95 713.35 120.1 697.85 120.1 697.85 106.05 692 106.05
M 723.65 117.2
L 723.65 122.05 733.35 122.05 733.35 152.1 748.85 152.1 748.85 147.25 739.15 147.25 739.15 117.2 723.65 117.2
M 944.7 117.2
Q 941.55 116.25 938.4 116.25 934.1 116.25 930.6 118.4 929.25 119.2 928.05 120.3 926.05 122.1 924.35 124.8
L 924.35 117.2 918.5 117.2 918.5 152.1 924.35 152.1 924.35 131.8
Q 927.3 126.7 930.4 124.15 933.55 121.55 936.8 121.55
L 939.1 121.8 939.1 129.8 944.7 129.8 944.7 117.2
M 829.5 117.2
L 817.2 116.7
Q 811.45 116.7 807.55 119.5 807 119.9 806.55 120.3 803.4 122.9 801.4 127 799.05 131.75 799.05 137.8 799.05 145.5 802.55 149.3 806.05 153.05 810.4 153.05 813.55 153.05 817.3 150.85 821.05 148.65 823.7 144.25
L 823.7 149.2
Q 823.7 152.7 823.15 154.8 822.65 156.9 821.15 158.5 819.7 160.1 817.3 160.95 814.95 161.8 812.3 161.8 808.9 161.8 805.3 160.5 801.65 159.2 799.2 157.5
L 799.2 163.4
Q 805.7 166.65 812.05 166.65 818.4 166.65 822.8 163.95 827.3 161.25 828.55 156.6
L 829.3 152.65 829.5 117.2
M 823.7 137.35
Q 821.1 142 817.8 144.75 814.5 147.5 811.8 147.5 809.3 147.5 807.35 144.85 805.4 142.25 805.4 137.05 805.4 129.85 808.95 125.7 812.55 121.55 817.95 121.55 820.6 121.55 823.7 122.35
L 823.7 137.35
M 877.45 134.65
Q 877.45 139.95 879.7 144.1 882 148.25 886.1 150.65 890.15 153.05 895.4 153.05 900.7 153.05 906.5 151.1
L 906.5 145.5
Q 901.55 147.2 899.7 147.5
L 895.95 147.75
Q 889.65 147.75 886.7 143.45 883.75 139.15 883.75 134.45 883.75 130.9 885.25 127.55 886.8 124.25 889.6 122.65 892.45 121.05 895.6 121.05 900.45 121.05 906.5 123.85
L 906.5 118.25
Q 900.5 116.25 895.1 116.25 888.65 116.25 883.9 120.3 883.25 120.85 882.6 121.5 877.45 126.75 877.45 134.65
M 1228.85 245.25
L 1219.15 245.25 1219.15 215.2 1203.65 215.2 1203.65 220.05 1213.35 220.05 1213.35 250.1 1228.85 250.1 1228.85 245.25
M 1218.8 199.65
Q 1217.45 198.7 1216.25 198.7 1215.1 198.7 1213.75 199.65 1212.4 200.65 1212.4 202.6 1212.4 204.5 1213.75 205.5 1215.1 206.45 1216.25 206.45 1217.45 206.45 1218.8 205.5 1220.15 204.5 1220.15 202.6 1220.15 200.65 1218.8 199.65
M 1268.05 215.85
Q 1263.05 214.25 1257.5 214.25 1250 214.25 1246.65 217 1243.3 219.8 1243.3 224.1 1243.3 227.15 1245.05 229.3 1246.75 231.45 1253.25 234
L 1259.25 236.4
Q 1262.85 237.85 1263.75 238.85 1264.65 239.85 1264.65 241.25 1264.65 243.4 1262.75 244.8 1260.8 246.25 1256.4 246.25 1253.65 246.25 1249.75 245.3 1245.85 244.4 1242.35 242.1
L 1242.35 248.25
Q 1249.4 251.05 1256.1 251.05 1263.75 251.05 1267.25 248.15 1270.75 245.25 1270.75 240.7 1270.75 237.25 1268.55 234.9 1266.4 232.6 1260.95 230.65
L 1257 229.2
Q 1253 227.75 1251.2 226.6 1249.4 225.5 1249.4 223.6 1249.4 221.65 1251.5 220.4 1253.55 219.05 1257.25 219.05 1262.3 219.05 1268.05 221.15
L 1268.05 215.85
M 989.1 241.4
L 976.25 215.2 969.9 215.2 986 248.75 985.45 250.05
Q 984.7 252.05 982.9 254.85 981.1 257.6 978.9 258.7 976.7 259.8 973.9 259.8 971.7 259.8 969.3 259.05
L 969.3 264.15
Q 971.4 264.65 974.05 264.65 980.2 264.65 984.05 261.25 987.9 257.9 992.2 247.65
L 1005.7 215.2 999.85 215.2 989.1 241.4
M 1076.25 245.85
Q 1080.75 240.6 1080.75 232.65 1080.75 224.65 1076.25 219.45 1071.75 214.25 1064.3 214.25 1056.8 214.25 1052.3 219.45 1047.8 224.65 1047.8 232.65 1047.8 240.6 1052.3 245.85 1056.8 251.05 1064.3 251.05 1071.75 251.05 1076.25 245.85
M 1056.9 222.7
Q 1059.65 219.05 1064.3 219.05 1068.95 219.05 1071.7 222.7 1074.45 226.3 1074.45 232.65 1074.45 239 1071.7 242.6 1068.95 246.25 1064.3 246.25 1059.65 246.25 1056.9 242.6 1054.15 239 1054.15 232.65 1054.15 226.3 1056.9 222.7
M 1121.25 215.2
L 1116.8 215.2 1112.75 241.4 1111.65 236.45 1105.35 215.2 1100.15 215.2 1094.55 236.45 1093.75 241.4 1089.55 215.2 1084.15 215.2 1089.8 250.1 1095.45 250.1 1101.3 227.6 1102.25 222.7 1102.4 222.7 1103.45 227.65 1110.15 250.1 1115.6 250.1 1121.25 215.2
M 1132.55 215.2
L 1126.75 215.2 1126.75 250.1 1132.55 250.1 1132.55 229.75
Q 1134.85 225.4 1138.35 222.5 1141.85 219.55 1144.95 219.55 1146.45 219.55 1147.8 220.6 1149.05 221.65 1149.55 223.25 1150.05 224.85 1150.05 229.9
L 1150.05 250.1 1155.85 250.1 1155.85 230.6
Q 1155.85 222.8 1154.85 220.15 1153.8 217.5 1151.3 215.9 1148.75 214.25 1145.65 214.25 1142.1 214.25 1138.6 216.5 1135.05 218.8 1132.55 222.8
L 1132.55 215.2
M 1094.95 120.65
Q 1094.8 120.45 1094.65 120.3 1090.9 116.25 1084.95 116.25 1080.25 116.25 1076.45 118.65 1075.3 119.4 1074.35 120.3 1072 122.45 1070.5 125.55 1068.35 129.95 1068.35 134.75 1068.35 139.65 1070.6 144.05 1072.85 148.4 1076.55 150.75 1080.25 153.05 1085 153.05 1091.2 153.05 1098.2 149.8
L 1098.2 144.5
Q 1091.35 148.25 1085.75 148.25 1082.6 148.25 1080.1 146.75 1077.65 145.25 1076.15 142.25 1074.6 139.2 1074.6 135.55
L 1098.7 135.55 1098.7 134.3
Q 1098.7 125.1 1094.95 120.65
M 1084.7 121.05
Q 1088.2 121.05 1090.25 123.6 1092.35 126.15 1092.35 130.4
L 1092.35 131.25 1074.95 131.25
Q 1076 126.25 1078.6 123.65 1081.15 121.05 1084.7 121.05
M 980.25 121.45
Q 979.7 120.85 979.15 120.3 974.85 116.25 968.3 116.25 961.7 116.25 957.4 120.3 956.85 120.85 956.3 121.45 951.8 126.65 951.8 134.65 951.8 142.6 956.3 147.85 960.8 153.05 968.3 153.05 975.75 153.05 980.25 147.85 984.75 142.6 984.75 134.65 984.75 126.65 980.25 121.45
M 978.45 134.65
Q 978.45 141 975.7 144.6 972.95 148.25 968.3 148.25 963.65 148.25 960.9 144.6 958.15 141 958.15 134.65 958.15 128.3 960.9 124.7 963.65 121.05 968.3 121.05 972.95 121.05 975.7 124.7 978.45 128.3 978.45 134.65
M 1025.25 117.2
L 1020.8 117.2 1016.75 143.4 1015.65 138.45 1009.35 117.2 1004.15 117.2 998.55 138.45 997.75 143.4 993.55 117.2 988.15 117.2 993.8 152.1 999.45 152.1 1005.3 129.6 1006.25 124.7 1006.4 124.7 1007.45 129.65 1014.15 152.1 1019.6 152.1 1025.25 117.2
M 1047.6 116.7
Q 1041.85 116.7 1037.95 119.5 1037.4 119.9 1036.95 120.3 1033.8 122.9 1031.8 127 1029.45 131.75 1029.45 137.8 1029.45 145.5 1032.95 149.3 1036.45 153.05 1040.8 153.05 1043.95 153.05 1047.7 150.85 1051.45 148.65 1054.1 144.25
L 1054.1 152.1 1059.9 152.1 1059.9 101.65 1054.1 101.65 1054.1 117.2 1047.6 116.7
M 1035.8 137.05
Q 1035.8 129.85 1039.35 125.7 1042.95 121.55 1048.35 121.55 1051 121.55 1054.1 122.35
L 1054.1 137.35
Q 1051.5 142 1048.2 144.75 1044.9 147.5 1042.2 147.5 1039.7 147.5 1037.75 144.85 1035.8 142.25 1035.8 137.05
M 1248.25 120.3
Q 1244.5 116.25 1238.55 116.25 1233.85 116.25 1230.05 118.65 1228.9 119.4 1227.95 120.3 1225.6 122.45 1224.1 125.55 1221.95 129.95 1221.95 134.75 1221.95 139.65 1224.2 144.05 1226.45 148.4 1230.15 150.75 1233.85 153.05 1238.6 153.05 1244.8 153.05 1251.8 149.8
L 1251.8 144.5
Q 1244.95 148.25 1239.35 148.25 1236.2 148.25 1233.7 146.75 1231.25 145.25 1229.75 142.25 1228.2 139.2 1228.2 135.55
L 1252.3 135.55 1252.3 134.3
Q 1252.3 125.1 1248.55 120.65 1248.4 120.45 1248.25 120.3
M 1238.3 121.05
Q 1241.8 121.05 1243.85 123.6 1245.95 126.15 1245.95 130.4
L 1245.95 131.25 1228.55 131.25
Q 1229.6 126.25 1232.2 123.65 1234.75 121.05 1238.3 121.05
M 1282.4 121.55
L 1284.7 121.8 1284.7 129.8 1290.3 129.8 1290.3 117.2
Q 1287.15 116.25 1284 116.25 1279.7 116.25 1276.2 118.4 1274.85 119.2 1273.65 120.3 1271.65 122.1 1269.95 124.8
L 1269.95 117.2 1264.1 117.2 1264.1 152.1 1269.95 152.1 1269.95 131.8
Q 1272.9 126.7 1276 124.15 1279.15 121.55 1282.4 121.55
M 1136.7 152.1
L 1136.7 101.65 1130.9 101.65 1130.9 117.2 1124.4 116.7
Q 1118.65 116.7 1114.75 119.5 1114.2 119.9 1113.75 120.3 1110.6 122.9 1108.6 127 1106.25 131.75 1106.25 137.8 1106.25 145.5 1109.75 149.3 1113.25 153.05 1117.6 153.05 1120.75 153.05 1124.5 150.85 1128.25 148.65 1130.9 144.25
L 1130.9 152.1 1136.7 152.1
M 1125.15 121.55
Q 1127.8 121.55 1130.9 122.35
L 1130.9 137.35
Q 1128.3 142 1125 144.75 1121.7 147.5 1119 147.5 1116.5 147.5 1114.55 144.85 1112.6 142.25 1112.6 137.05 1112.6 129.85 1116.15 125.7 1119.75 121.55 1125.15 121.55
M 1203.25 116.25
Q 1199.7 116.25 1196.2 118.5 1194.95 119.3 1193.9 120.3 1191.8 122.2 1190.15 124.8
L 1190.15 101.65 1184.35 101.65 1184.35 152.1 1190.15 152.1 1190.15 131.75
Q 1192.45 127.4 1195.95 124.5 1199.45 121.55 1202.55 121.55 1204.05 121.55 1205.4 122.6 1206.65 123.65 1207.15 125.25 1207.65 126.85 1207.65 131.9
L 1207.65 152.1 1213.45 152.1 1213.45 132.6
Q 1213.45 126.8 1213.15 124.95 1212.9 123.05 1212.1 121.4 1211.85 120.85 1211.5 120.3 1210.5 118.85 1208.7 117.75 1206.2 116.25 1203.25 116.25
M 1483.15 242.9
Q 1481.6 244.35 1481.6 246.5 1481.6 248.55 1483.1 250.05 1484.6 251.55 1486.7 251.55 1488.8 251.55 1490.3 250.05 1491.8 248.55 1491.8 246.5 1491.8 244.35 1490.3 242.9 1488.75 241.4 1486.7 241.4 1484.65 241.4 1483.15 242.9
M 1521.55 242.9
Q 1520 244.35 1520 246.5 1520 248.55 1521.5 250.05 1523 251.55 1525.1 251.55 1527.2 251.55 1528.7 250.05 1530.2 248.55 1530.2 246.5 1530.2 244.35 1528.7 242.9 1527.15 241.4 1525.1 241.4 1523.05 241.4 1521.55 242.9
M 1306.45 250.1
L 1306.45 245.25 1295.55 245.25 1295.55 199.65 1279.3 199.65 1279.3 204.5 1289.7 204.5 1289.7 250.1 1306.45 250.1
M 1347.55 239.85
L 1347.55 215.2 1335.2 214.7
Q 1329.45 214.7 1325.6 217.5 1321.7 220.25 1319.4 225 1317.1 229.75 1317.1 235.8 1317.1 243.5 1320.6 247.3 1324.05 251.05 1328.45 251.05 1331.55 251.05 1335.3 248.85 1339.05 246.65 1341.7 242.3 1342.1 247.25 1342.8 250.1
L 1348.85 250.1
Q 1347.55 246.15 1347.55 239.85
M 1341.7 220.35
L 1341.7 235.35
Q 1339.1 240 1335.85 242.75 1332.55 245.5 1329.8 245.5 1327.3 245.5 1325.35 242.85 1323.4 240.25 1323.4 235.05 1323.4 227.85 1327 223.7 1330.55 219.55 1335.95 219.55 1338.6 219.55 1341.7 220.35
M 1385.25 220.15
Q 1384.2 217.5 1381.7 215.9 1379.15 214.25 1376.05 214.25 1372.5 214.25 1369 216.5 1365.45 218.8 1362.95 222.8
L 1362.95 215.2 1357.15 215.2 1357.15 250.1 1362.95 250.1 1362.95 229.75
Q 1365.25 225.4 1368.75 222.5 1372.25 219.55 1375.35 219.55 1376.85 219.55 1378.2 220.6 1379.45 221.65 1379.95 223.25 1380.45 224.85 1380.45 229.9
L 1380.45 250.1 1386.25 250.1 1386.25 230.6
Q 1386.25 222.8 1385.25 220.15
M 1444.75 242.9
Q 1443.2 244.35 1443.2 246.5 1443.2 248.55 1444.7 250.05 1446.2 251.55 1448.3 251.55 1450.4 251.55 1451.9 250.05 1453.4 248.55 1453.4 246.5 1453.4 244.35 1451.9 242.9 1450.35 241.4 1448.3 241.4 1446.25 241.4 1444.75 242.9
M 1418.9 199.65
L 1418.9 215.2 1412.4 214.7
Q 1406.65 214.7 1402.75 217.5 1398.9 220.25 1396.6 225 1394.25 229.75 1394.25 235.8 1394.25 243.5 1397.75 247.3 1401.25 251.05 1405.6 251.05 1408.75 251.05 1412.5 248.85 1416.25 246.65 1418.9 242.25
L 1418.9 250.1 1424.7 250.1 1424.7 199.65 1418.9 199.65
M 1418.9 220.35
L 1418.9 235.35
Q 1416.3 240 1413 242.75 1409.7 245.5 1407 245.5 1404.5 245.5 1402.55 242.85 1400.6 240.25 1400.6 235.05 1400.6 227.85 1404.15 223.7 1407.75 219.55 1413.15 219.55 1415.8 219.55 1418.9 220.35
M 1325.35 120.65
Q 1325.2 120.45 1325.05 120.3 1321.3 116.25 1315.35 116.25 1310.65 116.25 1306.85 118.65 1305.7 119.4 1304.75 120.3 1302.4 122.45 1300.9 125.55 1298.75 129.95 1298.75 134.75 1298.75 139.65 1301 144.05 1303.25 148.4 1306.95 150.75 1310.65 153.05 1315.4 153.05 1321.6 153.05 1328.6 149.8
L 1328.6 144.5
Q 1321.75 148.25 1316.15 148.25 1313 148.25 1310.5 146.75 1308.05 145.25 1306.55 142.25 1305 139.2 1305 135.55
L 1329.1 135.55 1329.1 134.3
Q 1329.1 125.1 1325.35 120.65
M 1309 123.65
Q 1311.55 121.05 1315.1 121.05 1318.6 121.05 1320.65 123.6 1322.75 126.15 1322.75 130.4
L 1322.75 131.25 1305.35 131.25
Q 1306.4 126.25 1309 123.65
M 1352.3 143.4
Q 1350.25 143.4 1348.75 144.9 1347.2 146.35 1347.2 148.5 1347.2 150.55 1348.7 152.05 1350.2 153.55 1352.3 153.55 1354.4 153.55 1355.9 152.05 1357.4 150.55 1357.4 148.5 1357.4 146.35 1355.9 144.9 1354.35 143.4 1352.3 143.4 Z"/>
</g>

<g id="money_up_0_Layer0_0_MEMBER_1_FILL">
<path fill="#00FF6B" stroke="none" d="
M 2001.3 344.2
L 1992.4 343 1992.1 343 1992.1 331.9
Q 1992.1 328.65 1988.75 328.65 1983.9 328.65 1983.9 331.9
L 1983.9 343 1978.6 343.3 1978.6 331.9
Q 1978.6 328.65 1975.25 328.65 1970.4 328.65 1970.4 331.9
L 1970.4 344.5
Q 1961.75 346.95 1955.2 354.15 1946.4 363.5 1946.4 377.15 1946.4 390.6 1955.2 400.3 1961.35 407.2 1970.4 409.95
L 1970.4 458.45 1969.25 458.15
Q 1960.75 456.85 1957.5 451.55
L 1954.9 445.25 1954.6 434.55
Q 1954.9 433.7 1954.6 433.25 1954.6 428.55 1949.3 428.55 1946.1 428.55 1946.1 433.25
L 1946.1 458.45 1953 463
Q 1961.2 466.5 1970.4 467.55
L 1970.4 477.05
Q 1970.4 481.75 1974.35 481.75 1978.6 481.75 1978.6 477.05
L 1978.6 468.1 1983.9 467.8 1983.9 477.05
Q 1983.9 481.75 1988 481.75 1992.1 481.75 1992.1 477.05
L 1992.1 466.35
Q 2001.6 463.45 2009.1 457 2023 445.25 2023 430.05 2023 414.05 2011.85 403.95 2003.8 396.5 1992.1 393.7
L 1992.1 350.5 1992.4 350.8 1999.85 354.15
Q 2007.35 359.7 2007.35 368.5
L 2006.75 370.1
Q 2006.45 370.85 2007.05 371.15 2006.75 374.2 2010.55 374.2 2014.5 374.2 2014.5 371.15
L 2014.5 348.75
Q 2006.45 344.9 2001.3 344.2
M 1978.6 349.6
L 1983.9 349.6 1983.9 392.55
Q 1982.45 392.4 1981.25 392.25 1980.1 392.1 1978.6 391.95
L 1978.6 349.6
M 1958.1 370.85
Q 1958.1 362.5 1963.55 356.2 1966.15 353.1 1970.4 351.65
L 1970.4 389.75 1963.8 385.35
Q 1958.1 379.35 1958.1 370.85
M 1992.1 413.75
Q 1998.1 415.25 2001.9 418.9 2008.8 425.2 2008.8 434.55 2008.8 443.5 2001.9 450.95 1998.85 454.35 1992.1 457
L 1992.1 413.75
M 1978.6 411.4
L 1983.9 412.3 1983.9 458.45 1978.6 458.75 1978.6 411.4 Z"/>
</g>

<g id="noney_down_0_Layer0_0_MEMBER_1_FILL">
<path fill="#FF6600" stroke="none" d="
M 925.2 487.2
Q 925.2 484.5 922.4 484.5 918.35 484.5 918.35 487.2
L 918.35 496.45 913.95 496.7 913.95 487.2
Q 913.95 484.5 911.15 484.5 907.1 484.5 907.1 487.2
L 907.1 497.7
Q 899.9 499.75 894.45 505.75 887.1 513.55 887.1 524.9 887.1 536.15 894.45 544.2 899.55 549.95 907.1 552.25
L 907.1 592.65 906.15 592.4
Q 899.05 591.3 896.4 586.9
L 894.2 581.65 893.95 572.75
Q 894.2 572 893.95 571.65 893.95 567.75 889.55 567.75 886.85 567.75 886.85 571.65
L 886.85 592.65 892.6 596.45
Q 899.45 599.35 907.1 600.2
L 907.1 608.15
Q 907.1 612.05 910.4 612.05 913.95 612.05 913.95 608.15
L 913.95 600.7 918.35 600.45 918.35 608.15
Q 918.35 612.05 921.75 612.05 925.2 612.05 925.2 608.15
L 925.2 599.25
Q 933.1 596.8 939.35 591.45 950.95 581.65 950.95 568.95 950.95 555.65 941.65 547.25 934.95 541 925.2 538.7
L 925.2 502.7 925.45 502.95 931.65 505.75
Q 937.9 510.4 937.9 517.7
L 937.4 519.05
Q 937.15 519.65 937.65 519.9 937.4 522.45 940.55 522.45 943.85 522.45 943.85 519.9
L 943.85 501.2
Q 937.15 498.05 932.9 497.45
L 925.45 496.45 925.2 496.45 925.2 487.2
M 913.95 501.95
L 918.35 501.95 918.35 537.7
Q 917.15 537.6 916.15 537.5 915.2 537.35 913.95 537.25
L 913.95 501.95
M 901.4 507.45
Q 903.6 504.9 907.1 503.65
L 907.1 535.4 901.65 531.75
Q 896.85 526.75 896.85 519.65 896.85 512.7 901.4 507.45
M 913.95 553.45
L 918.35 554.2 918.35 592.65 913.95 592.9 913.95 553.45
M 925.2 591.45
L 925.2 555.4
Q 930.2 556.65 933.35 559.7 939.1 564.95 939.1 572.75 939.1 580.2 933.35 586.45 930.8 589.25 925.2 591.45 Z"/>
</g>

<path id="box_in_water_0_Layer1_0_1_STROKES" stroke="#FFFFFF" stroke-opacity="0.24705882352941178" stroke-width="3" stroke-linejoin="round" stroke-linecap="round" fill="none" d="
M 18.8 166.8
Q -6.15 170.25 -31.1 177.2 -81.05 191.15 -81 208.85 -80.9 226.7 44.6 273.75 85.35 289.05 131.5 304.45 170.35 317.4 172.2 317.4 173.15 317.4 180.6 319.1 188.8 320.9 195.75 321.5 219.3 323 242.85 310.85 282.8 290.4 336.25 255.25 401.1 212.55 401.1 200.05 401.1 186.55 374.4 175.9 349.3 165.95 320.35 165.5"/>

<path id="box_in_water_0_Layer1_0_2_STROKES" stroke="#FFFFFF" stroke-opacity="0.4196078431372549" stroke-width="3" stroke-linejoin="round" stroke-linecap="round" fill="none" d="
M 44.4 174.1
Q 23.95 176.75 3.55 182.1 -37.35 192.8 -37.3 206.4 -37.25 220.1 65.5 256.25 98.85 268 136.65 279.85 168.45 289.8 169.95 289.8 170.75 289.8 176.85 291.1 183.55 292.5 189.25 292.95 208.5 294.1 227.8 284.75 260.5 269.05 304.25 242.05 357.35 209.25 357.35 199.65 357.35 189.25 335.5 181.1 314.95 173.45 291.25 173.1"/>

<path id="box_in_water_0_Layer0_0_1_STROKES" stroke="#FFFFFF" stroke-width="4" stroke-linejoin="round" stroke-linecap="round" fill="none" d="
M 321.05 25.15
L 196.45 71.95 196.45 267.05
M 196.45 71.95
L 0 41.2"/>

<path id="box_in_water_0_Layer0_0_2_STROKES" stroke="#FFFFFF" stroke-width="6" stroke-linejoin="round" stroke-linecap="butt" fill="none" d="
M 319.6 197.4
L 321.05 25.15 157.2 0 0 41.2 0 208.9"/>

<path id="Layer7_0_1_STROKES" stroke="#FFFFFF" stroke-opacity="0.3764705882352941" stroke-width="3" stroke-linejoin="round" stroke-linecap="round" fill="none" d="
M 1353.3 605.65
Q 1450.6 627.55 1492.4 628.85 1534.2 630.15 1592.75 631.4 1651.3 632.7 1679.05 637.9 1711.7 644.2 1756.75 650.2 1782 653.45 1801.7 658.55 1821.25 663.65 1857.95 679.7 1894.55 695.6 1906.65 703.1 1918.65 710.45 1962.9 736.75 2007.15 762.9 2011.25 766.15 2026.45 777.55 2026.45 782.05 2026.45 786.1 2036.95 792.2 2054.95 802.6 2060.05 806.45 2093.85 831.45 2095.4 876.4 2096.3 902.35 2061.75 927.45 2042.4 941.4 2013.85 954.1 1999.75 960.25 1983.35 966.2 1942.35 981 1899.7 989.9 1860.75 997.85 1813.55 991.95 1766.3 986.05 1733.4 987.3 1700.55 988.6 1651.6 1004.25 1602.6 1019.85 1556.4 1009.55 1510.65 999.2 1437.65 1008.75 1417.2 1011.4 1389.65 1016.55 1367.4 1020.65 1364.7 1020.65 1310.5 1017.1 1255.9 1015.75 1148.15 1013.1 1106.75 1023.4 1062.7 1034.4 1015.1 1036.2 985.3 1037.25 940.7 1034.4 928.1 1033.75 904.65 1036.8 868.75 1041.4 860.85 1042.1 800.45 1047.4 746.55 1028.95 687.3 1008.65 640.2 999.5 606.7 992.95 585.6 992.95 578.05 992.95 525.25 983.9 466.55 973.85 424.65 970.6 367.1 966.45 320.8 955.45 318 954.75 315.15 954.1 269.15 942.65 230.5 923.5 185.7 901.35 165 880.8 141.85 857.9 143.65 832.15 145.6 803.8 162.3 765.45 179.55 725.75 194.75 718.35 211.85 709.9 221.05 702.3 227.65 695.85 230.5 694.05 234.6 691.5 245.65 691 254.25 690.6 282.95 681.95 311.65 673.4 345.15 671.55 378.6 669.75 401.2 664.35 423.8 658.85 436.15 655.6 460.55 649 483.4 649 506.3 649 535.8 641.65 552.5 637.3 590.4 633.35 628.25 629.25 655.15 625.3 682.05 621.35 716.15 609.6 750.25 597.75 784.35 599.45 832 601.9 902.45 601.9 972.65 601.9 1054.4 602.2 1110.25 601.7 1168.15 596.4 1197.85 593.55 1223.45 593.95 1239 594.2 1263.9 596.4 1288.9 598.45 1302.35 598.65 1325.65 599.15 1353.3 605.65 Z"/>

<path id="Layer6_0_1_STROKES" stroke="#FFFFFF" stroke-width="6" stroke-linejoin="round" stroke-linecap="round" fill="none" d="
M 1329.95 616.95
Q 1442.75 640.6 1483.2 640.2 1523.7 639.75 1567.5 650.05 1611.2 660.25 1639.35 657.85 1667.35 655.45 1693.45 662.5 1719.5 669.45 1756.75 675.75 1793.95 682 1814.75 686.6 1835.45 691.25 1850.85 693.6 1866.15 695.8 1901.05 721.25 1936 746.55 1943.7 748.8 1951.4 750.95 1957.9 758.55 1964.4 766.15 1978.55 773.8 1992.8 781.4 2018.85 796.5 2044.85 811.65 2042.15 841.45 2039.35 871.25 2010.15 887.1 1980.9 902.95 1953.6 914.1 1940.25 919.6 1924.65 924.8 1885.65 937.8 1845 945.6 1808 952.55 1797.95 950.6 1782.75 947.55 1735.3 939
L 1694.65 939
Q 1665.4 942.7 1631.15 952.35 1562.4 971.85 1518.4 962.75 1474.85 953.75 1405.35 962.1 1385.95 964.45 1359.65 968.85 1338.5 972.5 1336 972.5 1284.4 969.45 1232.4 968.25 1129.85 965.85 1090.5 974.9 1048.55 984.55 1003.25 986.15 974.95 987.05 932.55 984.55 920.45 983.9 898.2 986.6 864.05 990.7 856.5 991.25 799.05 995.9 747.75 979.75 691.3 962 646.55 953.95 614.65 948.2 594.55 948.2 587.35 948.2 537.1 940.3 481.25 931.5 441.45 928.7 386.65 925 342.6 915.35 339.9 914.75 337.2 914.1 293.4 904.1 256.65 887.4 214.05 868 194.35 850 172.25 829.85 174 807.2 176.25 778.15 182.3 758.55 190.15 733.05 203.75 726.9 247.65 706.95 257.9 703.8 275.65 698.35 333.2 689.25 344.35 687.45 375.9 683.75 403.45 680.5 418.5 677.65 450.35 671.5 483.6 662.75 500.25 658.4 510.5 655.25
L 577.15 642.05 744.8 621.45
Q 757.55 619.35 775.2 618.1 810.45 615.6 835 619.75 859.1 623.9 946 621.45 968.75 620.8 1007.8 619.3 1039 618.1 1044.55 618.1 1052 618.1 1082.9 615.35 1099.25 613.9 1146.7 609.45 1236.15 600.95 1245.75 601.4 1264.1 602.2 1277.35 602.65 1299.35 603.3 1329.95 616.95 Z"/>

<path id="Layer5_0_1_STROKES" stroke="#FFFFFF" stroke-width="4" stroke-linejoin="round" stroke-linecap="round" fill="none" d="
M 1380.8853271484375 656.2517150878906
L 1499.8975952148437 675.324560546875 1577.1612060546875 637.57919921875 1467.01337890625 618.134619140625 1380.8853271484375 656.2517150878906 Z
M 1380.8853271484375 656.2517150878906
L 1380.8853271484375 766.5711120605469 1499.8975952148437 789.704443359375 1499.8975952148437 675.324560546875
M 1577.1612060546875 637.57919921875
L 1577.1612060546875 742.3225769042969 1499.8975952148437 789.704443359375"/>

<path id="Layer5_1_1_STROKES" stroke="#FFFFFF" stroke-width="4" stroke-linejoin="round" stroke-linecap="round" fill="none" d="
M 361.6673156738281 753.766081237793
L 482.4260284423828 773.1188110351562 560.8234436035157 734.8195556640625 449.0592529296875 715.0896362304687 361.6673156738281 753.766081237793 Z
M 361.6673156738281 753.766081237793
L 361.6673156738281 865.7043594360351 482.4260284423828 889.1771606445312 482.4260284423828 773.1188110351562
M 560.8234436035157 734.8195556640625
L 560.8234436035157 841.0999893188476 482.4260284423828 889.1771606445312"/>

<path id="Layer5_2_1_STROKES" stroke="#FFFFFF" stroke-width="4" stroke-linejoin="round" stroke-linecap="round" fill="none" d="
M 900.6333160400391 589.9057823181153
L 1033.512355041504 611.2009094238281 1119.7783721923827 569.0576293945312 996.7966186523438 547.3474548339843 900.6333160400391 589.9057823181153 Z
M 900.6333160400391 589.9057823181153
L 900.6333160400391 713.0790962219239 1033.512355041504 738.9078186035156 1033.512355041504 611.2009094238281
M 1119.7783721923827 569.0576293945312
L 1119.7783721923827 686.00523147583 1033.512355041504 738.9078186035156"/>

<path id="Layer5_3_1_STROKES" stroke="#FFFFFF" stroke-width="4" stroke-linejoin="round" stroke-linecap="round" fill="none" d="
M 1072.7113464355468 821.7509719848633
L 1171.0774627685546 837.5150756835938 1234.9374450683595 806.3177490234375 1143.8979736328124 790.2463989257812 1072.7113464355468 821.7509719848633 Z
M 1072.7113464355468 821.7509719848633
L 1072.7113464355468 912.9322494506836 1171.0774627685546 932.0524291992188 1171.0774627685546 837.5150756835938
M 1234.9374450683595 806.3177490234375
L 1234.9374450683595 892.8903305053711 1171.0774627685546 932.0524291992188"/>

<path id="Layer5_4_1_STROKES" stroke="#FFFFFF" stroke-width="4" stroke-linejoin="round" stroke-linecap="round" fill="none" d="
M 1602.8600982666014 779.2822898864747
L 1716.30597076416 797.4630676269531 1789.955838012695 761.4831176757813 1684.9598022460937 742.9479919433594 1602.8600982666014 779.2822898864747 Z
M 1602.8600982666014 779.2822898864747
L 1602.8600982666014 884.441870880127 1716.30597076416 906.4932189941406 1716.30597076416 797.4630676269531
M 1789.955838012695 761.4831176757813
L 1789.955838012695 861.3274787902833 1716.30597076416 906.4932189941406"/>

<path id="Layer5_5_1_STROKES" stroke="#FFFFFF" stroke-width="4" stroke-linejoin="round" stroke-linecap="round" fill="none" d="
M 747.8655181884766 792.2082786560059
L 859.9396377563477 810.1692199707031 932.6989532470703 774.6243286132812 828.9724975585938 756.3133239746094 747.8655181884766 792.2082786560059 Z
M 747.8655181884766 792.2082786560059
L 747.8655181884766 896.0963020324707 859.9396377563477 917.8810119628906 859.9396377563477 810.1692199707031
M 932.6989532470703 774.6243286132812
L 932.6989532470703 873.261402130127 859.9396377563477 917.8810119628906"/>

<path id="money_up_0_Layer0_0_MEMBER_0_1_STROKES" stroke="#00FF6B" stroke-width="8" stroke-linejoin="miter" stroke-linecap="round" stroke-miterlimit="3" fill="none" d="
M 43.99564208984384 16.35302734375
L -0.19735107421865905 66.14794921875 24.70010986328134 66.14794921875 24.70010986328134 128.3916015625 62.04630126953134 128.3916015625 62.04630126953134 66.14794921875 86.94376220703134 66.14794921875 43.99564208984384 16.35302734375 Z"/>

<path id="noney_down_0_Layer0_0_MEMBER_0_1_STROKES" stroke="#FF6600" stroke-width="9" stroke-linejoin="miter" stroke-linecap="round" stroke-miterlimit="3" fill="none" d="
M 42.596917724609284 122.19274597167964
L 86.41614685058596 72.81896667480464 61.72925720214846 72.81896667480464 61.72925720214846 11.101742553710892 24.698922729492097 11.101742553710892 24.698922729492097 72.81896667480464 0.01203308105459655 72.81896667480464 42.596917724609284 122.19274597167964 Z"/>
</defs>

<g transform="matrix( 1, 0, 0, 1, 0,0) ">
<use xlink:href="#Layer12_0_FILL"/>
</g>

<g transform="matrix( 1, 0, 0, 1, 0,0) ">
<use xlink:href="#Layer11_0_FILL"/>
</g>

<g transform="matrix( 0.5710296630859375, 0, 0, 0.5710296630859375, 1753.2,447.35) ">
<g transform="matrix( 1, 0, 0, 1, 0,0) ">
<use xlink:href="#box_in_water_0_Layer1_0_1_STROKES"/>

<use xlink:href="#box_in_water_0_Layer1_0_2_STROKES"/>
</g>

<g transform="matrix( 1, 0, 0, 1, 0,0) ">
<use xlink:href="#box_in_water_0_Layer0_0_FILL"/>

<use xlink:href="#box_in_water_0_Layer0_0_1_STROKES"/>

<use xlink:href="#box_in_water_0_Layer0_0_2_STROKES"/>
</g>
</g>

<g transform="matrix( -0.50335693359375, 0, 0, 0.50335693359375, 1485.35,405.75) ">
<g transform="matrix( 1, 0, 0, 1, 0,0) ">
<use xlink:href="#box_in_water_0_Layer1_0_1_STROKES"/>

<use xlink:href="#box_in_water_0_Layer1_0_2_STROKES"/>
</g>

<g transform="matrix( 1, 0, 0, 1, 0,0) ">
<use xlink:href="#box_in_water_0_Layer0_0_FILL"/>

<use xlink:href="#box_in_water_0_Layer0_0_1_STROKES"/>

<use xlink:href="#box_in_water_0_Layer0_0_2_STROKES"/>
</g>
</g>

<g transform="matrix( 0.6150970458984375, 0, 0, 0.6150970458984375, 171.45,448.1) ">
<g transform="matrix( 1, 0, 0, 1, 0,0) ">
<use xlink:href="#box_in_water_0_Layer1_0_1_STROKES"/>

<use xlink:href="#box_in_water_0_Layer1_0_2_STROKES"/>
</g>

<g transform="matrix( 1, 0, 0, 1, 0,0) ">
<use xlink:href="#box_in_water_0_Layer0_0_FILL"/>

<use xlink:href="#box_in_water_0_Layer0_0_1_STROKES"/>

<use xlink:href="#box_in_water_0_Layer0_0_2_STROKES"/>
</g>
</g>

<g transform="matrix( 1, 0, 0, 1, 0,0) ">
<use xlink:href="#Layer7_0_1_STROKES"/>
</g>

<g transform="matrix( 1, 0, 0, 1, 0,0) ">
<use xlink:href="#Layer6_0_FILL"/>

<use xlink:href="#Layer6_0_1_STROKES"/>
</g>

<g transform="matrix( 0.5718994140625, 0, 0, 0.5718994140625, 860.8,246.4) ">
<use xlink:href="#Layer5_0_FILL"/>

<use xlink:href="#Layer5_0_1_STROKES" transform="matrix( 1.7485504150390625, 0, 0, 1.7485504150390625, -1505.15,-430.8) "/>
</g>

<g transform="matrix( 0.580291748046875, 0, 0, 0.580291748046875, -166.05,337.9) ">
<use xlink:href="#Layer5_1_FILL"/>

<use xlink:href="#Layer5_1_1_STROKES" transform="matrix( 1.7232666015625, 0, 0, 1.7232666015625, 286.1,-582.25) "/>
</g>

<g transform="matrix( 0.6385345458984375, 0, 0, 0.6385345458984375, 319.95,132.3) ">
<use xlink:href="#Layer5_2_FILL"/>

<use xlink:href="#Layer5_2_1_STROKES" transform="matrix( 1.5660858154296875, 0, 0, 1.5660858154296875, -501.05,-207.15) "/>
</g>

<g transform="matrix( 0.472686767578125, 0, 0, 0.472686767578125, 642.85,483) ">
<use xlink:href="#Layer5_3_FILL"/>

<use xlink:href="#Layer5_3_1_STROKES" transform="matrix( 2.1155548095703125, 0, 0, 2.1155548095703125, -1359.95,-1021.8) "/>
</g>

<g transform="matrix( 0.5451507568359375, 0, 0, 0.5451507568359375, 1107.1,388.6) ">
<use xlink:href="#Layer5_4_FILL"/>

<use xlink:href="#Layer5_4_1_STROKES" transform="matrix( 1.8343505859375, 0, 0, 1.8343505859375, -2030.8,-712.8) "/>
</g>

<g transform="matrix( 0.5385589599609375, 0, 0, 0.5385589599609375, 258.1,406.25) ">
<use xlink:href="#Layer5_5_FILL"/>

<use xlink:href="#Layer5_5_1_STROKES" transform="matrix( 1.8567962646484375, 0, 0, 1.8567962646484375, -479.2,-754.3) "/>
</g>

<g transform="matrix( 1, 0, 0, 1, 0,0) ">
<use xlink:href="#Layer4_0_STROKES_1_FILL"/>
</g>

<g transform="matrix( 1, 0, 0, 1, 0,0) ">
<use xlink:href="#Layer3_0_FILL"/>
</g>

<g transform="matrix( 0.7156982421875, 0, 0, 0.7156982421875, 1957.3,390.45) ">
<g transform="matrix( 1.244873046875, 0, 0, 1.244873046875, -2315.35,-444.25) ">
<use xlink:href="#money_up_0_Layer0_0_MEMBER_0_1_STROKES" transform="matrix( 0.80328369140625, 0, 0, 0.80328369140625, 1859.9,356.85) "/>
</g>

<g transform="matrix( 1, 0, 0, 1, -1831.3,-328.65) ">
<use xlink:href="#money_up_0_Layer0_0_MEMBER_1_FILL"/>
</g>
</g>

<g transform="matrix( 0.4971771240234375, 0, 0, 0.4971771240234375, 1268.7,810.95) ">
<g transform="matrix( 1.234344482421875, 0, 0, 1.234344482421875, -966.85,-613.6) ">
<use xlink:href="#noney_down_0_Layer0_0_MEMBER_0_1_STROKES" transform="matrix( 0.8101348876953125, 0, 0, 0.8101348876953125, 783.25,497.1) "/>
</g>

<g transform="matrix( 1, 0, 0, 1, -775.1,-484.5) ">
<use xlink:href="#noney_down_0_Layer0_0_MEMBER_1_FILL"/>
</g>
</g>

<g transform="matrix( 0.68316650390625, 0, 0, 0.68316650390625, 1824.35,787.55) ">
<g transform="matrix( 1.234344482421875, 0, 0, 1.234344482421875, -966.85,-613.6) ">
<use xlink:href="#noney_down_0_Layer0_0_MEMBER_0_1_STROKES" transform="matrix( 0.8101348876953125, 0, 0, 0.8101348876953125, 783.25,497.1) "/>
</g>

<g transform="matrix( 1, 0, 0, 1, -775.1,-484.5) ">
<use xlink:href="#noney_down_0_Layer0_0_MEMBER_1_FILL"/>
</g>
</g>

<g transform="matrix( 0.68316650390625, 0, 0, 0.68316650390625, 586.35,696.55) ">
<g transform="matrix( 1.234344482421875, 0, 0, 1.234344482421875, -966.85,-613.6) ">
<use xlink:href="#noney_down_0_Layer0_0_MEMBER_0_1_STROKES" transform="matrix( 0.8101348876953125, 0, 0, 0.8101348876953125, 783.25,497.1) "/>
</g>

<g transform="matrix( 1, 0, 0, 1, -775.1,-484.5) ">
<use xlink:href="#noney_down_0_Layer0_0_MEMBER_1_FILL"/>
</g>
</g>

<g transform="matrix( 0.56524658203125, 0, 0, 0.56524658203125, 407.35,410) ">
<g transform="matrix( 1.244873046875, 0, 0, 1.244873046875, -2315.35,-444.25) ">
<use xlink:href="#money_up_0_Layer0_0_MEMBER_0_1_STROKES" transform="matrix( 0.80328369140625, 0, 0, 0.80328369140625, 1859.9,356.85) "/>
</g>

<g transform="matrix( 1, 0, 0, 1, -1831.3,-328.65) ">
<use xlink:href="#money_up_0_Layer0_0_MEMBER_1_FILL"/>
</g>
</g>

<g transform="matrix( 0.513275146484375, 0, 0, 0.513275146484375, 1526.25,359.8) ">
<g transform="matrix( 1.244873046875, 0, 0, 1.244873046875, -2315.35,-444.25) ">
<use xlink:href="#money_up_0_Layer0_0_MEMBER_0_1_STROKES" transform="matrix( 0.80328369140625, 0, 0, 0.80328369140625, 1859.9,356.85) "/>
</g>

<g transform="matrix( 1, 0, 0, 1, -1831.3,-328.65) ">
<use xlink:href="#money_up_0_Layer0_0_MEMBER_1_FILL"/>
</g>
</g>
</svg>
