
<svg xmlns="http://www.w3.org/2000/svg" version="1.1" xmlns:xlink="http://www.w3.org/1999/xlink" preserveAspectRatio="none" x="0px" y="0px" width="2196px" height="1100px" viewBox="0 0 2196 1100">
<defs>
<linearGradient id="Gradient_1" gradientUnits="userSpaceOnUse" x1="1070.55" y1="324.2375" x2="1070.55" y2="15.762499999999989" spreadMethod="pad">
<stop  offset="0%" stop-color="#000000" stop-opacity="0"/>

<stop  offset="100%" stop-color="#000000"/>
</linearGradient>

<radialGradient id="Gradient_2" gradientUnits="userSpaceOnUse" cx="0" cy="0" r="998.0125" fx="0" fy="0" gradientTransform="matrix( 0, 1, -13.456144086371664, 0, 1202.1,923.75) " spreadMethod="pad">
<stop  offset="0%" stop-color="#000000"/>

<stop  offset="100%" stop-color="#001D2D"/>
</radialGradient>

<g id="Layer12_0_FILL">
<path fill="url(#Gradient_1)" stroke="none" d="
M 2231.25 678.65
L 2231.25 -9.85 -90.15 -9.85 -90.15 678.65 2231.25 678.65 Z"/>
</g>

<g id="Layer11_0_FILL">
<path fill="url(#Gradient_2)" stroke="none" d="
M -150 -59.7
Q -314.95 -47.6 -467.05 -32 -771.15 -0.8 -706.7 16.95 -551.95 59.5 -554.95 60.05 -556.4 60.25 -557.9 60.6 -611.05 69.9 -663.25 80.05 -966.05 138.65 -1236.6 220.95 -1444.45 284.25 -1626.05 412.85 -1784.6 525.3 -1912.05 679.25 -2022.9 813.25 -2094.6 958.5 -2158.95 1089 -2173.75 1189.35
L 2491.75 1153.3 2539.15 -59.7 -150 -59.7 Z"/>
</g>

<g id="Layer6_0_FILL">
<path fill="#222222" stroke="none" d="
M 1567.5 690.05
Q 1523.7 679.75 1483.2 680.2 1442.75 680.6 1329.95 656.95 1299.35 643.3 1277.35 642.65 1264.1 642.2 1245.75 641.4 1236.15 640.95 1146.7 649.45 1099.25 653.9 1082.9 655.35 1052 658.1 1044.55 658.1 1039 658.1 1007.8 659.3 968.75 660.8 946 661.45 859.1 663.9 835 659.75 810.45 655.6 775.2 658.1 757.55 659.35 744.8 661.45
L 577.15 682.05 510.5 695.25
Q 500.25 698.4 483.6 702.75 450.35 711.5 418.5 717.65 403.45 720.5 375.9 723.75 344.35 727.45 333.2 729.25 275.65 738.35 257.9 743.8 247.65 746.95 203.75 766.9 190.15 773.05 182.3 798.55 176.25 818.15 174 847.2 172.25 869.85 194.35 890 214.05 908 256.65 927.4 293.4 944.1 337.2 954.1 339.9 954.75 342.6 955.35 386.65 965 441.45 968.7 481.25 971.5 537.1 980.3 587.35 988.2 594.55 988.2 614.65 988.2 646.55 993.95 691.3 1002 747.75 1019.75 799.05 1035.9 856.5 1031.25 864.05 1030.7 898.2 1026.6 920.45 1023.9 932.55 1024.55 974.95 1027.05 1003.25 1026.15 1048.55 1024.55 1090.5 1014.9 1129.85 1005.85 1232.4 1008.25 1284.4 1009.45 1336 1012.5 1338.5 1012.5 1359.65 1008.85 1385.95 1004.45 1405.35 1002.1 1474.85 993.75 1518.4 1002.75 1562.4 1011.85 1631.15 992.35 1665.4 982.7 1694.65 979
L 1735.3 979
Q 1782.75 987.55 1797.95 990.6 1808 992.55 1845 985.6 1885.65 977.8 1924.65 964.8 1940.25 959.6 1953.6 954.1 1980.9 942.95 2010.15 927.1 2039.35 911.25 2042.15 881.45 2044.85 851.65 2018.85 836.5 1992.8 821.4 1978.55 813.8 1964.4 806.15 1957.9 798.55 1951.4 790.95 1943.7 788.8 1936 786.55 1901.05 761.25 1866.15 735.8 1850.85 733.6 1835.45 731.25 1814.75 726.6 1793.95 722 1756.75 715.75 1719.5 709.45 1693.45 702.5 1667.35 695.45 1639.35 697.85 1611.2 700.25 1567.5 690.05 Z"/>
</g>

<g id="Layer5_0_FILL">
<path fill="#000000" stroke="none" d="
M 1117.5 750
L 909.4 716.65 909.4 909.55 1117.5 950 1117.5 750
M 1252.6 684
L 1117.5 750 1117.5 950 1252.6 867.15 1252.6 684
M 1117.5 750
L 1252.6 684 1060 650 909.4 716.65 1117.5 750 Z"/>
</g>

<g id="Layer4_0_STROKES_1_FILL">
<path fill="#FFFFFF" fill-opacity="0.3764705882352941" stroke="none" d="
M 1363 492.6
Q 1361.0185546875 492.1541015625 1359.25 493.25
L 1342.25 503.85
Q 1340.4984375 504.957421875 1340 506.95 1339.553125 508.9744140625 1340.65 510.7 1341.7564453125 512.4943359375 1343.75 512.95 1345.7814453125 513.445703125 1347.55 512.35
L 1364.55 501.75
Q 1366.3013671875 500.642578125 1366.75 498.6 1367.2466796875 496.6255859375 1366.15 494.85 1365.0435546875 493.1056640625 1363 492.6
M 1397 471.4
Q 1395.0185546875 470.9541015625 1393.25 472.05
L 1376.25 482.65
Q 1374.4984375 483.757421875 1374 485.75 1373.553125 487.7744140625 1374.65 489.5 1375.7564453125 491.2943359375 1377.75 491.75 1379.7814453125 492.245703125 1381.55 491.15
L 1398.55 480.55
Q 1400.3013671875 479.442578125 1400.75 477.4 1401.2466796875 475.4255859375 1400.15 473.65 1399.0435546875 471.9056640625 1397 471.4
M 1410.25 461.45
Q 1408.4984375 462.557421875 1408 464.55 1407.553125 466.5744140625 1408.65 468.3 1409.7564453125 470.0943359375 1411.75 470.55 1413.7814453125 471.045703125 1415.55 469.95
L 1432.55 459.35
Q 1434.3013671875 458.242578125 1434.75 456.2 1435.2466796875 454.2255859375 1434.15 452.45 1433.0435546875 450.7056640625 1431 450.2 1429.0185546875 449.7541015625 1427.25 450.85
L 1410.25 461.45
M 1464.2 429.4
Q 1462.2111328125 428.957421875 1460.45 430.05
L 1444.15 440.25
Q 1442.3923828125 441.3625 1441.9 443.35 1441.4662109375 445.38984375 1442.55 447.15 1443.6712890625 448.90859375 1445.65 449.35 1447.6888671875 449.842578125 1449.45 448.75
L 1465.75 438.55
Q 1467.507421875 437.4375 1467.95 435.4 1468.4337890625 433.41015625 1467.3 431.65 1466.2287109375 429.89140625 1464.2 429.4 Z"/>
</g>

<g id="Layer3_0_FILL">
<path fill="#FFFFFF" stroke="none" d="
M 238.35 117.8
L 241.55 103.9 198.05 103.9 197.45 106.5 200.25 107 202.8 107.85
Q 203.75 108.35 204.05 108.9
L 204.3 110.25 204.3 111.05 194.8 152.15
Q 194.45 153.55 193.75 154.55 193.05 155.5 191.7 156.05
L 189.1 156.55 185.95 156.75 185.35 159.35 209.45 159.35 210.1 156.75 207.1 156.35 204.65 155.7 203.4 154.55 203.05 153 203.2 151.75 207.7 132.3 214.1 132.3
Q 216.4 132.3 218.05 132.85 219.75 133.35 220.8 134.95
L 221.4 137.05 221.4 142 224.3 142 229.3 120.25 226.4 120.25
Q 225.7 122.3 224.6 124.15
L 222.6 126.8
Q 220.85 128.35 218.95 128.9 217.05 129.35 214.8 129.35
L 208.4 129.35 213.6 106.8 229.65 107.1
Q 232 107.5 233.6 110.55 235.25 113.6 235.4 117.8
L 238.35 117.8
M 242.8 393.45
Q 241.4 393.45 239.05 394.15
L 233.7 396.3 233.1 398.8 237.35 397.9
Q 239.6 397.9 240.3 398.65 241 399.35 241 401.55
L 240.15 407.15 236.35 423.35 236.2 425.6
Q 236.2 429.1 238.25 431.3 240.3 433.45 244.05 433.45 246.55 433.45 248.05 433.05
L 251.45 431.65 258.15 427 258.35 427
Q 258.35 429.45 259.95 431.3 261.45 433.1 264.6 433.1 266.45 433.1 268.65 432.45
L 274.05 430.45 274.6 427.95 270.4 428.7
Q 268.15 428.7 267.25 427.9 266.25 427.1 266.25 424.85
L 266.55 422.6 273.1 394.2 272.65 393.6 265.85 394.1 259 423.5
Q 256.35 426.15 253.7 427.5 251.1 428.8 248.6 428.8 246.15 428.8 245 427.25 243.9 425.75 243.9 423.1
L 244.1 420.95 248.7 401 248.85 399.1
Q 248.85 396.4 247.35 394.95 245.9 393.45 242.8 393.45
M 196.75 393.45
Q 195.05 393.45 192.7 394.1
L 187.25 396.1 186.7 398.6 191 397.85
Q 193.2 397.85 193.95 398.6 194.7 399.35 194.7 401.5
L 193.75 407.1 187.9 432.45 195.2 432.45 201.9 403.75
Q 204.45 400.75 207.45 399.2 210.35 397.65 212.7 397.65 215.15 397.65 216.4 399.15 217.6 400.7 217.65 403.3
L 217.4 405.5 212.35 425.6 212.2 427.5
Q 212.2 429.85 213.75 431.45 215.3 433.1 218.45 433.1 220.45 433.1 222.4 432.5
L 227.9 430.4 228.5 427.9 226.35 428.45 224.25 428.7
Q 222 428.7 221 427.9 220.05 427.1 220.05 424.85
L 220.35 422.35 225.05 403.35 225.25 400.85
Q 225.25 397.35 223.15 395.2 221 393 217.3 393 213.35 393 210.2 394.7 207.1 396.3 202.8 399.75
L 202.6 399.75
Q 202.5 396.8 201.2 395.1 199.85 393.45 196.75 393.45
M 191.75 291.9
Q 188.6 291.9 186.7 294.8 184.75 297.7 184.75 301.55 184.75 306.4 188.05 309.15 191.3 311.9 196.8 311.9 201.25 311.9 204.65 310.35 208 308.85 210.7 306.35 213.2 304.05 214.85 301.2 216.45 298.25 217.05 295.65
L 224.45 262.6 225.5 260.15
Q 226.1 259.15 227.65 258.65
L 233.35 257.7 233.95 255.1 209.3 255.1 208.75 257.7 211.6 258.15
Q 213.6 258.45 214.6 259.05 215.45 259.55 215.8 260.2
L 216.15 261.7 216.1 262.4
Q 216.05 262.65 216 262.95
L 207.5 299.15
Q 206.5 302.1 205.15 304.3 203.8 306.5 201.7 307.8 199.65 309.1 196.8 309.1 193.6 309.1 192 308.15 190.4 307.25 189.85 306.05
L 193.65 301.35 195.35 298.5
Q 196.05 297.05 196.05 295.7 196.05 294.2 195.05 293.05 194.1 291.9 191.75 291.9
M 280.8 287.5
Q 281.65 289.2 283.05 290.45 284.2 291.55 286.15 292.55
L 289.55 293.95
Q 293.6 295.3 295.6 296.9 297.65 298.45 297.65 301.1 297.65 304.75 295.5 306.85 293.3 308.95 289.1 308.95 287.15 308.95 286.15 308.4
L 284.5 307.15 282.7 302.45
Q 282.15 301.45 281.2 300.75 280.25 300 278.65 300 277.05 300 275.9 301.35 274.75 302.75 274.75 304.3 274.75 307.6 278.65 309.7 282.45 311.7 288.25 311.7 295.2 311.7 299.75 307.95 304.35 304.25 304.35 298.3 304.35 294.65 301.95 292.2 299.55 289.75 294.2 287.8 290.1 286.35 288.35 284.95 286.55 283.55 286.55 280.8 286.55 277.95 288.55 275.95 290.5 273.85 294.35 273.85
L 295.9 274 297.25 274.4 299.1 279.05
Q 299.75 280.1 300.65 280.75 301.6 281.35 303.05 281.35 304.8 281.35 305.9 280.1 306.95 278.75 306.95 277.15 306.95 275.2 305.65 274 304.35 272.75 302.55 272.1
L 298.65 271.25 295.4 271.1
Q 288.85 271.1 284.4 274.75 279.9 278.4 279.9 283.45 279.9 285.8 280.8 287.5
M 246.2 277.2
Q 246.2 274.5 244.7 273.05 243.25 271.55 240.15 271.55 238.75 271.55 236.4 272.25
L 231.05 274.4 230.45 276.9 234.7 276
Q 236.95 276 237.65 276.75 238.35 277.45 238.35 279.65
L 238.1 282.2 233.7 301.45 233.55 303.7
Q 233.55 307.2 235.6 309.4 237.65 311.55 241.4 311.55 243.9 311.55 245.4 311.15
L 248.8 309.75 255.5 305.1 255.7 305.1
Q 255.7 307.55 257.3 309.4 258.8 311.2 261.95 311.2 263.8 311.2 266 310.55
L 271.4 308.55 271.95 306.05 267.75 306.8
Q 265.5 306.8 264.6 306 263.6 305.2 263.6 302.95
L 270.45 272.3 270 271.7 263.2 272.2 256.35 301.6
Q 253.7 304.25 251.05 305.6 248.45 306.9 245.95 306.9 243.5 306.9 242.35 305.35 241.25 303.85 241.25 301.2
L 241.45 299.05 246.05 279.1 246.2 277.2
M 311.15 120.2
L 308.7 119.9
Q 306.1 119.9 303.7 121.5 301.3 123.1 296.65 127.1
L 296.4 127.1
Q 296.4 123.75 295.1 122.05 293.75 120.35 290.65 120.35 288.95 120.35 286.6 121
L 281.2 123 280.65 125.5 284.9 124.75
Q 287.1 124.75 287.85 125.5 288.6 126.25 288.6 128.4
L 288.2 131.2 281.95 159.35 289.25 159.35 295.55 131.35
Q 297.75 128.9 299.65 127.4
L 303.1 125.15 305.7 124.2 307.25 123.9 306.05 126.95
Q 305.45 128.4 305.45 129.6 305.45 130.9 306.5 131.95 307.55 133 309.65 133 311.2 133 312.1 132.5
L 313.6 130.85 314.5 128.7 314.8 126.25
Q 314.8 124.25 314.45 123.2 314 122.1 313.15 121.25 312.3 120.5 311.15 120.2
M 238.95 135.35
Q 237.2 139.9 237.2 145.1 237.2 152.15 241.3 156.35 245.3 160.5 251.8 160.5 257.35 160.5 261.65 158.35 265.85 156.2 268.85 152.6 271.85 149.1 273.4 144.5 274.95 139.85 274.95 135.25 274.95 128.35 271.05 124.15 267.1 119.9 260.15 119.9 255.1 119.9 250.8 122 246.5 124.1 243.55 127.5 240.65 130.85 238.95 135.35
M 248.25 131.15
Q 250.35 126.65 253.25 124.65 256.1 122.65 259.35 122.65 263.05 122.65 265.05 125.45 267 128.2 267 133.75 267 138.2 266.1 142.5 265.2 146.75 263.5 150 261.85 153.35 259.15 155.55 256.45 157.75 252.95 157.75 249.05 157.75 247.15 154.85 245.2 152 245.2 146.4 245.2 142.9 245.95 138.75 246.65 134.55 248.25 131.15
M 605.25 393.45
Q 603.85 393.45 601.5 394.15
L 596.15 396.3 595.55 398.8 599.8 397.9
Q 602.05 397.9 602.75 398.65 603.45 399.35 603.45 401.55
L 603.2 404.1 598.8 423.35 598.65 425.6
Q 598.65 429.1 600.7 431.3 602.75 433.45 606.5 433.45 609 433.45 610.5 433.05
L 613.9 431.65 620.6 427 620.8 427
Q 620.8 429.45 622.4 431.3 623.9 433.1 627.05 433.1 628.9 433.1 631.1 432.45
L 636.5 430.45 637.05 427.95 632.85 428.7
Q 630.6 428.7 629.7 427.9 628.7 427.1 628.7 424.85
L 629 422.6 635.55 394.2 635.1 393.6 628.3 394.1 621.45 423.5
Q 618.8 426.15 616.15 427.5 613.55 428.8 611.05 428.8 608.6 428.8 607.45 427.25 606.35 425.75 606.35 423.1
L 606.55 420.95 611.15 401 611.3 399.1
Q 611.3 396.4 609.8 394.95 608.35 393.45 605.25 393.45
M 556.55 393
Q 551.5 393 547.2 395.1 542.9 397.2 539.95 400.6 537.05 403.95 535.35 408.45 533.6 413 533.6 418.2 533.6 425.25 537.7 429.45 541.7 433.6 548.2 433.6 553.75 433.6 558.05 431.45 562.25 429.3 565.25 425.7 568.25 422.2 569.8 417.6 571.35 412.95 571.35 408.35 571.35 401.45 567.45 397.25 563.5 393 556.55 393
M 563.4 406.85
Q 563.4 411.3 562.5 415.6 561.6 419.85 559.9 423.1 558.25 426.45 555.55 428.65 552.85 430.85 549.35 430.85 545.45 430.85 543.55 427.95 541.6 425.1 541.6 419.5 541.6 416 542.35 411.85 543.05 407.65 544.65 404.25 546.75 399.75 549.65 397.75 552.5 395.75 555.75 395.75 559.45 395.75 561.45 398.55 563.4 401.3 563.4 406.85
M 515.65 393.75
Q 513.15 393 510.35 393 505.85 393 501.7 395.1 497.55 397.2 494.6 400.6 491.5 404.15 489.75 408.75 487.95 413.35 487.95 418.2 487.95 425.2 491 429.2 494.05 433.25 499.75 433.25 501.95 433.25 503.8 432.55
L 507.45 430.85 512.6 427.1 512.9 427.2
Q 511.85 433.15 510.05 436.95 508.25 440.75 506.2 443.05 504.15 445.2 501.7 446.2 499.2 447.2 497.1 447.2
L 495.9 447.2 493.7 442.65 492.05 440.85
Q 491 440 489.6 440 487.75 440 486.7 441.2 485.65 442.35 485.65 444.15
L 486.05 446.1
Q 486.45 447.15 487.6 447.95 488.8 448.8 490.85 449.3 492.9 449.8 496.15 449.8 500.9 449.8 504.7 448.55 508.45 447.35 511.55 444.45 514.6 441.65 516.95 436.8 519.25 432 520.75 425
L 527.3 394.15 526.85 393.6 519.7 395.4
Q 518.15 394.45 515.65 393.75
M 517.8 399.95
L 518.1 402.2 513.7 423.3
Q 511.25 425.75 508.55 427.35 505.85 428.95 503.15 428.95 501 428.95 499.65 428.1 498.3 427.35 497.45 425.9 496.65 424.45 496.35 422.5
L 496 418.25
Q 496 414 497.25 409.75 498.5 405.55 500.45 402.55 502.6 399.4 505.3 397.6 507.95 395.75 510.95 395.75 513 395.75 514.35 396.3 515.65 396.85 516.55 397.8 517.45 398.8 517.8 399.95
M 550.85 250.65
L 550.45 250.1 535.9 250.95 535.35 253.3 540 254.05
Q 540.85 254.45 541.35 255.25 541.8 256 541.8 257.4
L 541.35 260.25 529.7 310.55 537 310.55 543.65 281.85
Q 546.2 278.95 549.1 277.35 552 275.75 554.45 275.75 556.95 275.75 558.2 277.25 559.45 278.8 559.45 281.4
L 559.15 283.6 554.15 303.7 554 305.6
Q 554 307.95 555.55 309.55 557.1 311.2 560.25 311.2 562.25 311.2 564.2 310.6
L 569.65 308.5 570.25 306 568.1 306.55 566 306.8
Q 563.75 306.8 562.8 306 561.8 305.2 561.8 302.95
L 566.8 281.45 567 278.95
Q 567 275.45 564.9 273.3 562.8 271.1 559.05 271.1 555.05 271.1 551.95 272.8 548.75 274.4 544.75 277.65
L 544.6 277.65 550.85 250.65
M 643.85 271.4
L 641.4 271.1
Q 638.8 271.1 636.4 272.7 634 274.3 629.35 278.3
L 629.1 278.3
Q 629.1 274.95 627.8 273.25 626.45 271.55 623.35 271.55 621.65 271.55 619.3 272.2
L 613.9 274.2 613.35 276.7 617.6 275.95
Q 619.8 275.95 620.55 276.7 621.3 277.45 621.3 279.6
L 614.65 310.55 621.95 310.55 628.25 282.55
Q 630.45 280.1 632.35 278.6
L 635.8 276.35 638.4 275.4 639.95 275.1 638.75 278.15
Q 638.15 279.6 638.15 280.8 638.15 282.1 639.2 283.15 640.25 284.2 642.35 284.2 643.9 284.2 644.8 283.7
L 646.3 282.05 647.2 279.9 647.5 277.45
Q 647.5 275.45 647.15 274.4 646.7 273.3 645.85 272.45 645 271.7 643.85 271.4
M 576.8 287.4
Q 575.25 291.9 575.25 296.8 575.25 303.9 578.9 307.8 582.55 311.65 589.45 311.65 594.5 311.65 599.2 308.8 603.9 305.95 607 301.2
L 604.8 299.55
Q 601.9 303.4 598.9 305.35 595.9 307.3 592 307.3 587.6 307.3 585.3 304.05 583 300.8 583 294.6
L 591.2 293.25
Q 594.95 292.45 598.55 291.1 603.55 289.35 606.15 286.35 608.7 283.4 608.7 279.2 608.7 275.65 606.05 273.4 603.3 271.1 597.65 271.1 592.6 271.1 588.4 273.3 584.2 275.55 581.3 279.2 578.35 282.9 576.8 287.4
M 601.55 278.3
Q 601.55 281.9 599.95 284.55 598.35 287.15 595.15 288.85 592.85 290 589.45 290.75
L 583.25 291.85
Q 584.3 284.15 588.3 279.05 592.25 273.85 596.95 273.85
L 598.55 274 600 274.55 601.1 275.85
Q 601.55 276.75 601.55 278.3
M 442.15 393.45
Q 440.45 393.45 438.1 394.1
L 432.7 396.1 432.15 398.6 436.4 397.85
Q 438.6 397.85 439.35 398.6 440.1 399.35 440.1 401.5
L 439.7 404.3 433.45 432.45 440.75 432.45 447.05 404.45
Q 449.25 402 451.15 400.5
L 454.6 398.25 457.2 397.3 458.75 397 457.55 400.05
Q 456.95 401.5 456.95 402.7 456.95 404 458 405.05 459.05 406.1 461.15 406.1 462.7 406.1 463.6 405.6
L 465.1 403.95 466 401.8 466.3 399.35
Q 466.3 397.35 465.95 396.3 465.5 395.2 464.65 394.35 463.8 393.6 462.65 393.3
L 460.2 393
Q 457.6 393 455.2 394.6 452.8 396.2 448.15 400.2
L 447.9 400.2
Q 447.9 396.85 446.6 395.15 445.25 393.45 442.15 393.45
M 416.45 393
Q 411.4 393 407.2 395.2 403 397.45 400.1 401.1 397.15 404.8 395.6 409.3 394.05 413.8 394.05 418.7 394.05 425.8 397.7 429.7 401.35 433.55 408.25 433.55 413.3 433.55 418 430.7 422.7 427.85 425.8 423.1
L 423.6 421.45
Q 420.7 425.3 417.7 427.25 414.7 429.2 410.8 429.2 406.4 429.2 404.1 425.95 401.8 422.7 401.8 416.5
L 410 415.15
Q 413.75 414.35 417.35 413 422.35 411.25 424.95 408.25 427.5 405.3 427.5 401.1 427.5 397.55 424.85 395.3 422.1 393 416.45 393
M 415.75 395.75
L 417.35 395.9 418.8 396.45 419.9 397.75
Q 420.35 398.65 420.35 400.2 420.35 403.8 418.75 406.45 417.15 409.05 413.95 410.75 411.65 411.9 408.25 412.65
L 402.05 413.75
Q 403.1 406.05 407.1 400.95 411.05 395.75 415.75 395.75
M 361.3 379.3
L 361.1 380.6 350.75 426.4 352.9 429.2
Q 354.15 430.5 355.95 431.5 357.75 432.5 360.35 433.1 362.9 433.6 366.25 433.6 370.7 433.6 374.7 431.6 378.65 429.6 381.85 426.1 384.9 422.65 386.8 417.9 388.65 413.15 388.65 407.9 388.65 401.1 385.25 397.05 381.85 393 375.95 393 373.35 393 370.7 394.2 368 395.4 364.5 398.5
L 364.35 398.5 370.25 372.55 369.85 372 355.4 372.85 354.85 375.2 359.5 375.95
Q 360.35 376.35 360.8 377.15 361.3 377.9 361.3 379.3
M 380.6 408.1
Q 380.6 412.45 379.55 416.65 378.5 420.75 376.35 424.15 374.4 427.2 371.65 429 368.95 430.85 365.85 430.85 364.2 430.85 362.85 430.4 361.5 429.9 360.4 429
L 358.9 427.35 358.2 425.65 363.4 402.45 367.55 398.95 370.05 397.7
Q 371.3 397.25 372.7 397.25 375 397.25 376.55 398.1 378.1 398.95 379 400.45 379.85 401.85 380.25 403.95
L 380.6 408.1
M 333.8 393
Q 329.5 393 326.25 394.8 323 396.6 318.8 400.05
L 318.65 400.05
Q 318.4 397 316.25 395.05 314.1 393 310.6 393 306.5 393 303.55 394.55 300.6 396.1 295.95 399.75
L 295.75 399.75
Q 295.65 396.85 294.35 395.15 293.05 393.45 289.9 393.45 288.2 393.45 285.85 394.1
L 280.4 396.15 279.85 398.65 284.15 397.8
Q 286.3 397.8 287.05 398.55 287.8 399.25 287.8 401.5
L 286.9 407.1 281.05 432.45 288.35 432.45 295.05 403.75
Q 298.55 399.85 301.25 398.8 303.9 397.65 306.15 397.65 308.55 397.65 309.85 399.1 311.1 400.55 311.1 403.1
L 310.95 404.5 304.35 432.45 311.65 432.45 318.5 403.45
Q 321.65 400.1 324.15 398.9 326.65 397.65 329.25 397.65 331.7 397.65 332.85 399.15 334 400.7 334 403.3
L 333 408.55 328.65 425.6 328.5 427.5
Q 328.5 429.85 330.05 431.45 331.65 433.1 334.75 433.1
L 338.45 432.55 344.2 430.55 344.8 428.05 340.5 428.7
Q 338.25 428.7 337.35 427.9 336.4 427.1 336.4 424.85
L 336.7 422.35 341.35 403.35 341.55 400.85
Q 341.55 397.35 339.55 395.2 337.55 393 333.8 393
M 361.35 283.45
Q 361.35 285.8 362.25 287.5 363.1 289.2 364.5 290.45 365.65 291.55 367.6 292.55
L 371 293.95
Q 375.05 295.3 377.05 296.9 379.1 298.45 379.1 301.1 379.1 304.75 376.95 306.85 374.75 308.95 370.55 308.95 368.6 308.95 367.6 308.4
L 365.95 307.15 364.15 302.45
Q 363.6 301.45 362.65 300.75 361.7 300 360.1 300 358.5 300 357.35 301.35 356.2 302.75 356.2 304.3 356.2 307.6 360.1 309.7 363.9 311.7 369.7 311.7 376.65 311.7 381.2 307.95 385.8 304.25 385.8 298.3 385.8 294.65 383.4 292.2 381 289.75 375.65 287.8 371.55 286.35 369.8 284.95 368 283.55 368 280.8 368 277.95 370 275.95 371.95 273.85 375.8 273.85
L 377.35 274 378.7 274.4 380.55 279.05
Q 381.2 280.1 382.1 280.75 383.05 281.35 384.5 281.35 386.25 281.35 387.35 280.1 388.4 278.75 388.4 277.15 388.4 275.2 387.1 274 385.8 272.75 384 272.1
L 380.1 271.25 376.85 271.1
Q 370.3 271.1 365.85 274.75 361.35 278.4 361.35 283.45
M 338.7 272.4
L 327.85 272.4 330.45 260.95 323.45 260.95 320.75 272.4 313.6 272.4 312.75 275.95 319.75 275.95 313.65 302.05 313.25 305.55
Q 313.25 308.35 314.95 309.9 316.7 311.35 320.4 311.35 323.65 311.35 326.1 310.65
L 331.25 308.8 331.9 305.95 329.05 306.6 326.2 306.85
Q 323.4 306.85 322.3 305.85 321.25 304.85 321.25 302.7
L 321.5 300.35 327.1 275.95 337.9 275.95 338.7 272.4
M 473.8 279.65
L 473.6 282.2 469.15 301.25 469 303.5
Q 469 307 471.15 309.2 473.35 311.35 477.1 311.35 481.25 311.35 484.5 309.6 487.75 307.9 491.3 304.9
L 491.55 304.9
Q 490.5 310.4 488.75 314.35 486.95 318.3 484.7 320.8 482.65 323.1 480.2 324.2 477.7 325.3 475.45 325.3
L 474.55 325.3 472.3 320.8 470.65 319
Q 469.65 318.15 468.2 318.15 466.3 318.15 465.25 319.45 464.25 320.75 464.25 322.45
L 464.65 324.4
Q 465.05 325.35 466.15 326.15 467.3 326.95 469.25 327.45 471.2 327.9 474.55 327.9 479.35 327.9 483.1 326.55 486.85 325.15 490.05 322.05 493.15 319.15 495.45 314.4 497.75 309.6 499.25 302.9
L 505.95 272.3 505.5 271.7 498.75 272.2 492.3 301.4
Q 489.9 303.85 487.2 305.3 484.5 306.7 481.65 306.7 479.15 306.7 477.9 305.15 476.6 303.65 476.6 301
L 476.85 298.85 481.1 281.55 481.7 277.2
Q 481.7 274.4 480.25 272.95 478.7 271.55 475.6 271.55 474.2 271.55 471.85 272.25
L 466.5 274.4 465.9 276.9 470.15 276
Q 472.4 276 473.1 276.75 473.8 277.45 473.8 279.65
M 420.15 272.4
L 409.3 272.4 411.9 260.95 404.9 260.95 402.2 272.4 395.05 272.4 394.2 275.95 401.2 275.95 395.1 302.05 394.7 305.55
Q 394.7 308.35 396.4 309.9 398.15 311.35 401.85 311.35 405.1 311.35 407.55 310.65
L 412.7 308.8 413.35 305.95 410.5 306.6 407.65 306.85
Q 404.85 306.85 403.75 305.85 402.7 304.85 402.7 302.7
L 402.95 300.35 408.55 275.95 419.35 275.95 420.15 272.4
M 422.3 287.05
Q 420.5 291.65 420.5 296.5 420.5 303.5 423.7 307.6 426.95 311.65 432.6 311.65 434.7 311.65 436.45 310.9
L 439.8 309.2 444.65 305.4 444.9 305.4
Q 445.05 307.95 446.7 309.55 448.35 311.2 451.15 311.2 453.65 311.2 455.35 310.6
L 460.6 308.55 461.2 306.05 456.95 306.8
Q 454.75 306.8 453.8 306 452.85 305.25 452.85 303
L 459.8 272.25 459.3 271.7 452.15 273.5
Q 450.7 272.6 448.2 271.85 445.7 271.1 442.9 271.1 438.55 271.1 434.4 273.25 430.25 275.35 427.25 278.85 424.1 282.45 422.3 287.05
M 438 275.75
Q 440.7 273.85 443.55 273.85 445.6 273.85 446.95 274.45 448.35 275.05 449.1 276 450 277.05 450.25 278.2
L 450.5 280.65 445.5 301.7
Q 442.5 304.8 440.15 306 437.75 307.25 435.55 307.25 433.4 307.25 432 306.45 430.6 305.65 429.85 304.15 429.1 302.6 428.8 300.8
L 428.55 296.55
Q 428.55 292.25 429.8 287.95 431.1 283.75 433.15 280.8 435.3 277.6 438 275.75
M 457.15 121.2
L 450 121.2 449.15 124.75 456.15 124.75 450.05 150.85 449.65 154.35
Q 449.65 157.15 451.35 158.7 453.1 160.15 456.8 160.15 460.05 160.15 462.5 159.45
L 467.65 157.6 468.3 154.75 465.45 155.4 462.6 155.65
Q 459.8 155.65 458.7 154.65 457.65 153.65 457.65 151.5
L 457.9 149.15 463.5 124.75 474.3 124.75 475.1 121.2 464.25 121.2 466.85 109.75 459.85 109.75 457.15 121.2
M 348.95 122.3
Q 347.4 121.35 344.9 120.65 342.4 119.9 339.6 119.9 335.1 119.9 330.95 122 326.8 124.1 323.85 127.5 320.75 131.05 319 135.65 317.2 140.25 317.2 145.1 317.2 152.1 320.25 156.1 323.3 160.15 329 160.15 331.2 160.15 333.05 159.45
L 336.7 157.75 341.85 154 342.15 154.1
Q 341.1 160.05 339.3 163.85 337.5 167.65 335.45 169.95 333.4 172.1 330.95 173.1 328.45 174.1 326.35 174.1
L 325.15 174.1 322.95 169.55 321.3 167.75
Q 320.25 166.9 318.85 166.9 317 166.9 315.95 168.1 314.9 169.25 314.9 171.05
L 315.3 173
Q 315.7 174.05 316.85 174.85 318.05 175.7 320.1 176.2 322.15 176.7 325.4 176.7 330.15 176.7 333.95 175.45 337.7 174.25 340.8 171.35 343.85 168.55 346.2 163.7 348.5 158.9 350 151.9
L 356.55 121.05 356.1 120.5 348.95 122.3
M 340.2 122.65
Q 342.25 122.65 343.6 123.2 344.9 123.75 345.8 124.7 346.7 125.7 347.05 126.85
L 347.35 129.1 342.95 150.2
Q 340.5 152.65 337.8 154.25 335.1 155.85 332.4 155.85 330.25 155.85 328.9 155 327.55 154.25 326.7 152.8 325.9 151.35 325.6 149.4
L 325.25 145.15
Q 325.25 140.9 326.5 136.65 327.75 132.45 329.7 129.45 331.85 126.3 334.55 124.5 337.2 122.65 340.2 122.65
M 403 121.2
L 402.15 124.75 409.15 124.75 403.05 150.85 402.65 154.35
Q 402.65 157.15 404.35 158.7 406.1 160.15 409.8 160.15 413.05 160.15 415.5 159.45
L 420.65 157.6 421.3 154.75 418.45 155.4 415.6 155.65
Q 412.8 155.65 411.7 154.65 410.65 153.65 410.65 151.5
L 410.9 149.15 416.5 124.75 427.3 124.75 428.1 121.2 417.25 121.2 419.85 109.75 412.85 109.75 410.15 121.2 403 121.2
M 393.75 122.2
Q 391 119.9 385.35 119.9 380.3 119.9 376.1 122.1 371.9 124.35 369 128 366.05 131.7 364.5 136.2 362.95 140.7 362.95 145.6 362.95 152.7 366.6 156.6 370.25 160.45 377.15 160.45 382.2 160.45 386.9 157.6 391.6 154.75 394.7 150
L 392.5 148.35
Q 389.6 152.2 386.6 154.15 383.6 156.1 379.7 156.1 375.3 156.1 373 152.85 370.7 149.6 370.7 143.4
L 378.9 142.05
Q 382.65 141.25 386.25 139.9 391.25 138.15 393.85 135.15 396.4 132.2 396.4 128 396.4 124.45 393.75 122.2
M 386.25 122.8
L 387.7 123.35 388.8 124.65
Q 389.25 125.55 389.25 127.1 389.25 130.7 387.65 133.35 386.05 135.95 382.85 137.65 380.55 138.8 377.15 139.55
L 370.95 140.65
Q 372 132.95 376 127.85 379.95 122.65 384.65 122.65
L 386.25 122.8
M 575.7 121.2
L 568.55 121.2 567.7 124.75 574.7 124.75 568.3 152.65 568.2 154.35
Q 568.2 157.15 569.9 158.7 571.65 160.15 575.35 160.15 578.6 160.15 581.05 159.45
L 586.2 157.6 586.85 154.75 584 155.4 581.15 155.65
Q 578.35 155.65 577.25 154.65 576.2 153.65 576.2 151.5
L 576.45 149.15 582.05 124.75 592.85 124.75 593.65 121.2 582.8 121.2 585.4 109.75 578.4 109.75 575.7 121.2
M 486.95 106.2
L 486.5 109.05 474.85 159.35 482.15 159.35 488.8 130.65
Q 491.35 127.75 494.25 126.15 497.15 124.55 499.6 124.55 502.1 124.55 503.35 126.05 504.6 127.6 504.6 130.2
L 503.65 135.45 499.3 152.5 499.15 154.4
Q 499.15 156.75 500.7 158.35 502.25 160 505.4 160 507.4 160 509.35 159.4
L 514.8 157.3 515.4 154.8 513.25 155.35 511.15 155.6
Q 508.9 155.6 507.95 154.8 506.95 154 506.95 151.75
L 507.3 149.25 511.95 130.25 512.15 127.75
Q 512.15 124.25 510.05 122.1 507.95 119.9 504.2 119.9 500.2 119.9 497.1 121.6 493.9 123.2 489.9 126.45
L 489.75 126.45 496 99.45 495.6 98.9 481.05 99.75 480.5 102.1 485.15 102.85
Q 486 103.25 486.5 104.05 486.95 104.8 486.95 106.2
M 552.1 122.3
Q 550.65 121.4 548.15 120.65 545.65 119.9 542.85 119.9 538.5 119.9 534.35 122.05 530.2 124.15 527.2 127.65 524.05 131.25 522.25 135.85 520.45 140.45 520.45 145.3 520.45 152.3 523.65 156.4 526.9 160.45 532.55 160.45 534.65 160.45 536.4 159.7
L 539.75 158 544.6 154.2 544.85 154.2
Q 545 156.75 546.65 158.35 548.3 160 551.1 160 553.6 160 555.3 159.4
L 560.55 157.35 561.15 154.85 556.9 155.6
Q 554.7 155.6 553.75 154.8 552.8 154.05 552.8 151.8
L 553.15 149.25 559.75 121.05 559.25 120.5 552.1 122.3
M 533.1 129.6
Q 535.25 126.4 537.95 124.55 540.65 122.65 543.5 122.65 545.55 122.65 546.9 123.25 548.3 123.85 549.05 124.8 549.95 125.85 550.2 127
L 550.45 129.45 545.45 150.5
Q 542.45 153.6 540.1 154.8 537.7 156.05 535.5 156.05 533.35 156.05 531.95 155.25 530.55 154.45 529.8 152.95 529.05 151.4 528.75 149.6
L 528.5 145.35
Q 528.5 141.05 529.75 136.75 531.05 132.55 533.1 129.6
M 701.1 427.95
Q 701.1 425.75 699.5 424.2 697.9 422.6 695.7 422.6 693.55 422.6 691.95 424.2 690.35 425.75 690.35 427.95 690.35 430.15 691.95 431.7 693.55 433.25 695.7 433.25 697.9 433.25 699.5 431.7 701.1 430.15 701.1 427.95
M 904.05 281.55
Q 907.2 278.2 909.7 277 912.2 275.75 914.8 275.75 917.25 275.75 918.4 277.25 919.55 278.8 919.55 281.4
L 919.25 283.6 914.2 303.7 914.05 305.6
Q 914.05 307.95 915.6 309.55 917.2 311.2 920.3 311.2
L 924 310.65 929.75 308.65 930.35 306.15 926.05 306.8
Q 923.8 306.8 922.9 306 921.95 305.2 921.95 302.95
L 922.25 300.45 926.9 281.45 927.1 278.95
Q 927.1 275.45 925.1 273.3 923.1 271.1 919.35 271.1 915.05 271.1 911.8 272.9 908.55 274.7 904.35 278.15
L 904.2 278.15
Q 903.95 275.1 901.8 273.15 899.65 271.1 896.15 271.1 892.05 271.1 889.1 272.65 886.15 274.2 881.5 277.85
L 881.3 277.85
Q 881.2 274.95 879.9 273.25 878.6 271.55 875.45 271.55 873.75 271.55 871.4 272.2
L 865.95 274.25 865.4 276.75 869.7 275.9
Q 871.85 275.9 872.6 276.65 873.35 277.35 873.35 279.6
L 872.45 285.2 866.6 310.55 873.9 310.55 880.6 281.85
Q 884.1 277.95 886.8 276.9 889.45 275.75 891.7 275.75 894.1 275.75 895.4 277.2 896.65 278.65 896.65 281.2
L 896.5 282.6 889.9 310.55 897.2 310.55 904.05 281.55
M 652.25 393.45
Q 650.55 393.45 648.2 394.15
L 642.85 396.2 642.25 398.7 646.5 397.85
Q 648.75 397.85 649.45 398.6 650.15 399.35 650.15 401.5
L 649.3 407.1 641.1 443.1
Q 640.8 444.5 640.1 445.4 639.35 446.4 638.15 446.75
L 633.75 447.35 633.2 449.8 654.75 449.8 655.3 447.35 650.9 446.65 649.15 445.75
Q 648.4 445.1 648.4 444.05
L 651.2 430.6
Q 652.85 431.85 655 432.65 657.15 433.45 660.55 433.45 664.7 433.45 668.65 431.65 672.6 429.8 676 426 679.05 422.55 680.9 417.9 682.7 413.2 682.7 407.9 682.7 401.1 679.45 397.05 676.1 393 670.2 393 667.15 393 664.15 394.6 661.1 396.2 658.45 398.65
L 658.15 398.65
Q 657.8 396.2 656.4 394.85 655 393.45 652.25 393.45
M 674.65 408.1
Q 674.65 412.7 673.6 416.8 672.5 420.9 670.55 424.1 668.6 427.2 665.9 428.95 663.2 430.75 660.15 430.75 657.15 430.75 655 428.8 652.85 426.9 652.6 424.7
L 657.6 402.5
Q 660.7 399.5 662.9 398.4 665.05 397.3 666.85 397.3 669.3 397.3 670.75 398.15 672.25 398.95 673.1 400.5 673.95 401.85 674.3 403.95
L 674.65 408.1
M 657.6 294.6
L 665.8 293.25
Q 669.55 292.45 673.15 291.1 678.15 289.35 680.75 286.35 683.3 283.4 683.3 279.2 683.3 275.65 680.65 273.4 677.9 271.1 672.25 271.1 667.2 271.1 663 273.3 658.8 275.55 655.9 279.2 652.95 282.9 651.4 287.4 649.85 291.9 649.85 296.8 649.85 303.9 653.5 307.8 657.15 311.65 664.05 311.65 669.1 311.65 673.8 308.8 678.5 305.95 681.6 301.2
L 679.4 299.55
Q 676.5 303.4 673.5 305.35 670.5 307.3 666.6 307.3 662.2 307.3 659.9 304.05 657.6 300.8 657.6 294.6
M 657.85 291.85
Q 658.9 284.15 662.9 279.05 666.85 273.85 671.55 273.85
L 673.15 274 674.6 274.55 675.7 275.85
Q 676.15 276.75 676.15 278.3 676.15 281.9 674.55 284.55 672.95 287.15 669.75 288.85 667.45 290 664.05 290.75
L 657.85 291.85
M 801.55 286.9
Q 799.8 291.55 799.8 296.45 799.8 303.5 803 307.55 806.25 311.65 811.9 311.65 814.2 311.65 815.75 311
L 819.2 309.2 824.3 305.2 824.55 305.2
Q 824.55 308.3 826.25 309.75 827.85 311.2 830.7 311.2 832.55 311.2 834.7 310.65
L 840.15 308.55 840.7 306.05 836.5 306.8
Q 834.3 306.8 833.35 306 832.4 305.2 832.4 302.95
L 844.2 250.65 843.8 250.1 828 250.95 827.45 253.3 833 254.05
Q 834 254.4 834.6 255.15 835.15 255.9 835.15 257.3
L 835.05 258.6 831.65 273.5
Q 829.95 272.5 827.3 271.8 824.65 271.1 821.95 271.1 817.45 271.1 813.35 273.25 809.2 275.35 806.25 278.8 803.25 282.35 801.55 286.9
M 807.85 296.55
Q 807.85 292.25 809 288 810.2 283.75 812.15 280.75 814.15 277.6 816.85 275.75 819.5 273.85 822.5 273.85 824.45 273.85 825.9 274.55 827.3 275.15 828.25 276.15
L 829.55 278.1 830.15 280.3 825.2 301.5
Q 822.1 304.7 819.55 306 817.05 307.25 814.9 307.25 812.65 307.25 811.25 306.4 809.9 305.6 809.15 304.15 808.4 302.6 808.1 300.75
L 807.85 296.55
M 734.55 271.85
Q 732.05 271.1 729.25 271.1 724.9 271.1 720.75 273.25 716.6 275.35 713.6 278.85 710.45 282.45 708.65 287.05 706.85 291.65 706.85 296.5 706.85 303.5 710.05 307.6 713.3 311.65 718.95 311.65 721.05 311.65 722.8 310.9
L 726.15 309.2 731 305.4 731.25 305.4
Q 731.4 307.95 733.05 309.55 734.7 311.2 737.5 311.2 740 311.2 741.7 310.6
L 746.95 308.55 747.55 306.05 743.3 306.8
Q 741.1 306.8 740.15 306 739.2 305.25 739.2 303
L 746.15 272.25 745.65 271.7 738.5 273.5
Q 737.05 272.6 734.55 271.85
M 736.6 278.2
L 736.85 280.65 731.85 301.7
Q 728.85 304.8 726.5 306 724.1 307.25 721.9 307.25 719.75 307.25 718.35 306.45 716.95 305.65 716.2 304.15 715.45 302.6 715.15 300.8
L 714.9 296.55
Q 714.9 292.25 716.15 287.95 717.45 283.75 719.5 280.8 721.65 277.6 724.35 275.75 727.05 273.85 729.9 273.85 731.95 273.85 733.3 274.45 734.7 275.05 735.45 276 736.35 277.05 736.6 278.2
M 763.05 271.55
Q 761.35 271.55 759 272.2
L 753.55 274.2 753 276.7 757.3 275.95
Q 759.5 275.95 760.25 276.7 761 277.45 761 279.6
L 760.05 285.2 754.2 310.55 761.5 310.55 768.2 281.85
Q 770.75 278.85 773.75 277.3 776.65 275.75 779 275.75 781.45 275.75 782.7 277.25 783.9 278.8 783.95 281.4
L 783.7 283.6 778.65 303.7 778.5 305.6
Q 778.5 307.95 780.05 309.55 781.6 311.2 784.75 311.2 786.75 311.2 788.7 310.6
L 794.2 308.5 794.8 306 792.65 306.55 790.55 306.8
Q 788.3 306.8 787.3 306 786.35 305.2 786.35 302.95
L 786.65 300.45 791.35 281.45 791.55 278.95
Q 791.55 275.45 789.45 273.3 787.3 271.1 783.6 271.1 779.65 271.1 776.5 272.8 773.4 274.4 769.1 277.85
L 768.9 277.85
Q 768.8 274.9 767.5 273.2 766.15 271.55 763.05 271.55
M 752.5 121.2
L 755.1 109.75 748.1 109.75 745.4 121.2 738.25 121.2 737.4 124.75 744.4 124.75 738 152.65 737.9 154.35
Q 737.9 157.15 739.6 158.7 741.35 160.15 745.05 160.15 748.3 160.15 750.75 159.45
L 755.9 157.6 756.55 154.75 753.7 155.4 750.85 155.65
Q 748.05 155.65 746.95 154.65 745.9 153.65 745.9 151.5
L 746.15 149.15 751.75 124.75 762.55 124.75 763.35 121.2 752.5 121.2
M 795.35 122.3
Q 793.9 121.4 791.4 120.65 788.9 119.9 786.1 119.9 781.75 119.9 777.6 122.05 773.45 124.15 770.45 127.65 767.3 131.25 765.5 135.85 763.7 140.45 763.7 145.3 763.7 152.3 766.9 156.4 770.15 160.45 775.8 160.45 777.9 160.45 779.65 159.7
L 783 158 787.85 154.2 788.1 154.2
Q 788.25 156.75 789.9 158.35 791.55 160 794.35 160 796.85 160 798.55 159.4
L 803.8 157.35 804.4 154.85 800.15 155.6
Q 797.95 155.6 797 154.8 796.05 154.05 796.05 151.8
L 796.4 149.25 803 121.05 802.5 120.5 795.35 122.3
M 776.35 129.6
Q 778.5 126.4 781.2 124.55 783.9 122.65 786.75 122.65 788.8 122.65 790.15 123.25 791.55 123.85 792.3 124.8 793.2 125.85 793.45 127
L 793.7 129.45 788.7 150.5
Q 785.7 153.6 783.35 154.8 780.95 156.05 778.75 156.05 776.6 156.05 775.2 155.25 773.8 154.45 773.05 152.95 772.3 151.4 772 149.6
L 771.75 145.35
Q 771.75 141.05 773 136.75 774.3 132.55 776.35 129.6
M 672.55 121.75
Q 671.2 119.9 668.9 119.9 667.25 119.9 665.75 121.05 664.3 122.25 664.3 124.45 664.3 126.4 664.95 127.5
L 667.8 131.75
Q 668.45 133 668.45 135.35 668.45 139.6 667.1 143.25 665.75 146.95 663.45 149.95 661.4 152.65 658.6 154.3 655.8 156 653.15 156
L 651.05 155.85 648.95 155.15
Q 647.9 154.55 647.2 153.3 646.5 152.05 646.5 149.9
L 646.8 147.75 652.9 121.05 652.4 120.5 645.6 120.95 638.7 150.65
Q 636.5 153.2 633.8 154.55 631.1 155.9 628.65 155.9 625.85 155.9 624.7 154.4 623.5 152.9 623.5 150
L 624.35 144.75 628.4 127.85 628.55 125.95
Q 628.55 123.25 627.1 121.8 625.6 120.35 622.5 120.35 621.1 120.35 618.8 121.05
L 613.45 123.15 612.85 125.65 614.9 125.1 617.1 124.8
Q 619.35 124.8 620.05 125.5 620.75 126.25 620.75 128.4
L 620.6 130.8 616.55 146.4 616 150.2
Q 616 152.15 616.5 153.9 616.95 155.7 618.05 157.1 619.2 158.6 621.15 159.5 623.1 160.45 626.05 160.45 628.5 160.45 630.1 159.8
L 633.6 157.85 639.3 152.9
Q 640.35 156.45 643.45 158.5 646.55 160.5 650.25 160.5 655.25 160.5 659.55 157.75 663.85 155 667.25 149.9 670.3 145.35 672.05 139.25 673.8 133.25 673.8 127.1 673.8 123.6 672.55 121.75
M 701.35 119.9
Q 696.3 119.9 692.1 122.1 687.9 124.35 685 128 682.05 131.7 680.5 136.2 678.95 140.7 678.95 145.6 678.95 152.7 682.6 156.6 686.25 160.45 693.15 160.45 698.2 160.45 702.9 157.6 707.6 154.75 710.7 150
L 708.5 148.35
Q 705.6 152.2 702.6 154.15 699.6 156.1 695.7 156.1 691.3 156.1 689 152.85 686.7 149.6 686.7 143.4
L 694.9 142.05
Q 698.65 141.25 702.25 139.9 707.25 138.15 709.85 135.15 712.4 132.2 712.4 128 712.4 124.45 709.75 122.2 707 119.9 701.35 119.9
M 702.25 122.8
L 703.7 123.35 704.8 124.65
Q 705.25 125.55 705.25 127.1 705.25 130.7 703.65 133.35 702.05 135.95 698.85 137.65 696.55 138.8 693.15 139.55
L 686.95 140.65
Q 688 132.95 692 127.85 695.95 122.65 700.65 122.65
L 702.25 122.8
M 937.8 130.25
L 938 127.75
Q 938 124.25 935.9 122.1 933.8 119.9 930.05 119.9 926.05 119.9 922.95 121.6 919.75 123.2 915.75 126.45
L 915.6 126.45 921.85 99.45 921.45 98.9 906.9 99.75 906.35 102.1 911 102.85
Q 911.85 103.25 912.35 104.05 912.8 104.8 912.8 106.2
L 912.35 109.05 900.7 159.35 908 159.35 914.65 130.65
Q 917.2 127.75 920.1 126.15 923 124.55 925.45 124.55 927.95 124.55 929.2 126.05 930.45 127.6 930.45 130.2
L 930.15 132.4 925.15 152.5 925 154.4
Q 925 156.75 926.55 158.35 928.1 160 931.25 160 933.25 160 935.2 159.4
L 940.65 157.3 941.25 154.8 939.1 155.35 937 155.6
Q 934.75 155.6 933.8 154.8 932.8 154 932.8 151.75
L 933.15 149.25 937.8 130.25
M 848.65 120.5
L 841.85 121 835 150.4
Q 832.35 153.05 829.7 154.4 827.1 155.7 824.6 155.7 822.15 155.7 821 154.15 819.9 152.65 819.9 150
L 820.1 147.85 824.7 127.9 824.85 126
Q 824.85 123.3 823.35 121.85 821.9 120.35 818.8 120.35 817.4 120.35 815.05 121.05
L 809.7 123.2 809.1 125.7 813.35 124.8
Q 815.6 124.8 816.3 125.55 817 126.25 817 128.45
L 816.15 134.05 812.35 150.25 812.2 152.5
Q 812.2 156 814.25 158.2 816.3 160.35 820.05 160.35 822.55 160.35 824.05 159.95
L 827.45 158.55 834.15 153.9 834.35 153.9
Q 834.35 156.35 835.95 158.2 837.45 160 840.6 160 842.45 160 844.65 159.35
L 850.05 157.35 850.6 154.85 846.4 155.6
Q 844.15 155.6 843.25 154.8 842.25 154 842.25 151.75
L 842.55 149.5 849.1 121.1 848.65 120.5
M 883.2 120.65
Q 880.7 119.9 877.9 119.9 873.4 119.9 869.25 122 865.1 124.1 862.15 127.5 859.05 131.05 857.3 135.65 855.5 140.25 855.5 145.1 855.5 152.1 858.55 156.1 861.6 160.15 867.3 160.15 869.5 160.15 871.35 159.45
L 875 157.75 880.15 154 880.45 154.1
Q 879.4 160.05 877.6 163.85 875.8 167.65 873.75 169.95 871.7 172.1 869.25 173.1 866.75 174.1 864.65 174.1
L 863.45 174.1 861.25 169.55 859.6 167.75
Q 858.55 166.9 857.15 166.9 855.3 166.9 854.25 168.1 853.2 169.25 853.2 171.05
L 853.6 173
Q 854 174.05 855.15 174.85 856.35 175.7 858.4 176.2 860.45 176.7 863.7 176.7 868.45 176.7 872.25 175.45 876 174.25 879.1 171.35 882.15 168.55 884.5 163.7 886.8 158.9 888.3 151.9
L 894.85 121.05 894.4 120.5 887.25 122.3
Q 885.7 121.35 883.2 120.65
M 878.5 122.65
Q 880.55 122.65 881.9 123.2 883.2 123.75 884.1 124.7 885 125.7 885.35 126.85
L 885.65 129.1 881.25 150.2
Q 878.8 152.65 876.1 154.25 873.4 155.85 870.7 155.85 868.55 155.85 867.2 155 865.85 154.25 865 152.8 864.2 151.35 863.9 149.4
L 863.55 145.15
Q 863.55 140.9 864.8 136.65 866.05 132.45 868 129.45 870.15 126.3 872.85 124.5 875.5 122.65 878.5 122.65
M 1198.65 271.25
L 1195.4 271.1
Q 1188.85 271.1 1184.4 274.75 1179.9 278.4 1179.9 283.45 1179.9 285.8 1180.8 287.5 1181.65 289.2 1183.05 290.45 1184.2 291.55 1186.15 292.55
L 1189.55 293.95
Q 1193.6 295.3 1195.6 296.9 1197.65 298.45 1197.65 301.1 1197.65 304.75 1195.5 306.85 1193.3 308.95 1189.1 308.95 1187.15 308.95 1186.15 308.4
L 1184.5 307.15 1182.7 302.45
Q 1182.15 301.45 1181.2 300.75 1180.25 300 1178.65 300 1177.05 300 1175.9 301.35 1174.75 302.75 1174.75 304.3 1174.75 307.6 1178.65 309.7 1182.45 311.7 1188.25 311.7 1195.2 311.7 1199.75 307.95 1204.35 304.25 1204.35 298.3 1204.35 294.65 1201.95 292.2 1199.55 289.75 1194.2 287.8 1190.1 286.35 1188.35 284.95 1186.55 283.55 1186.55 280.8 1186.55 277.95 1188.55 275.95 1190.5 273.85 1194.35 273.85
L 1195.9 274 1197.25 274.4 1199.1 279.05
Q 1199.75 280.1 1200.65 280.75 1201.6 281.35 1203.05 281.35 1204.8 281.35 1205.9 280.1 1206.95 278.75 1206.95 277.15 1206.95 275.2 1205.65 274 1204.35 272.75 1202.55 272.1
L 1198.65 271.25
M 1163.1 271.1
Q 1161.7 271.1 1159.25 271.75
L 1153.8 273.8 1153.2 276.3 1157.65 275.55
Q 1159.9 275.55 1160.6 276.3 1161.35 277 1161.35 279.2
L 1161 281.85 1155.8 303.85 1155.6 305.75
Q 1155.6 308.15 1157.2 309.75 1158.75 311.35 1161.85 311.35
L 1165.55 310.8 1171.3 308.8 1171.85 306.3 1167.6 306.95
Q 1165.45 306.95 1164.4 306.15 1163.45 305.3 1163.45 303.1
L 1163.7 300.65 1169 278.65 1169.2 276.7
Q 1169.2 274.15 1167.75 272.6 1166.3 271.1 1163.1 271.1
M 1169.6 261.9
Q 1171.75 261.9 1173.2 260.25 1174.65 258.55 1174.65 256.35 1174.65 254.35 1173.25 252.85 1171.85 251.35 1169.6 251.35 1167.6 251.35 1166.15 252.95 1164.75 254.55 1164.75 256.7 1164.75 258.7 1166.15 260.3 1167.6 261.9 1169.6 261.9
M 974.7 272.25
L 974.2 271.7 967.05 273.5
Q 965.6 272.6 963.1 271.85 960.6 271.1 957.8 271.1 953.45 271.1 949.3 273.25 945.15 275.35 942.15 278.85 939 282.45 937.2 287.05 935.4 291.65 935.4 296.5 935.4 303.5 938.6 307.6 941.85 311.65 947.5 311.65 949.6 311.65 951.35 310.9
L 954.7 309.2 959.55 305.4 959.8 305.4
Q 959.95 307.95 961.6 309.55 963.25 311.2 966.05 311.2 968.55 311.2 970.25 310.6
L 975.5 308.55 976.1 306.05 971.85 306.8
Q 969.65 306.8 968.7 306 967.75 305.25 967.75 303
L 974.7 272.25
M 944.7 287.95
Q 946 283.75 948.05 280.8 950.2 277.6 952.9 275.75 955.6 273.85 958.45 273.85 960.5 273.85 961.85 274.45 963.25 275.05 964 276 964.9 277.05 965.15 278.2
L 965.4 280.65 960.4 301.7
Q 957.4 304.8 955.05 306 952.65 307.25 950.45 307.25 948.3 307.25 946.9 306.45 945.5 305.65 944.75 304.15 944 302.6 943.7 300.8
L 943.45 296.55
Q 943.45 292.25 944.7 287.95
M 992.7 257.4
L 992.6 258.55 980.6 310.55 987.9 310.55 991.25 295.4 995.8 291.55 1001.1 304.8
Q 1002.7 308.45 1004.5 309.85 1006.3 311.2 1008.8 311.2 1010.9 311.2 1013 310.7
L 1018.7 308.75 1019.25 306.2 1014.15 307.05
Q 1012.1 307.05 1010.45 305.8 1008.7 304.55 1007.3 301.65
L 1000.9 286.15 1005.85 281.85 1010.35 278.85 1013.05 279.9 1015.6 280.25
Q 1017.6 280.25 1018.9 278.8 1020.3 277.3 1020.3 275.6 1020.3 273.7 1019.1 272.6 1017.85 271.45 1015.85 271.45 1014 271.45 1012.35 272.45 1010.7 273.35 1007.9 275.95
L 992.3 291.35 992.15 291.35 1001.75 250.65 1001.35 250.1 986.8 250.95 986.25 253.3 990.9 254.05
Q 991.75 254.45 992.25 255.25 992.7 256 992.7 257.4
M 1119.6 257.4
L 1119.15 260.25 1107.5 310.55 1114.8 310.55 1121.45 281.85
Q 1124 278.95 1126.9 277.35 1129.8 275.75 1132.25 275.75 1134.75 275.75 1136 277.25 1137.25 278.8 1137.25 281.4
L 1136.95 283.6 1131.95 303.7 1131.8 305.6
Q 1131.8 307.95 1133.35 309.55 1134.9 311.2 1138.05 311.2 1140.05 311.2 1142 310.6
L 1147.45 308.5 1148.05 306 1145.9 306.55 1143.8 306.8
Q 1141.55 306.8 1140.6 306 1139.6 305.2 1139.6 302.95
L 1144.6 281.45 1144.8 278.95
Q 1144.8 275.45 1142.7 273.3 1140.6 271.1 1136.85 271.1 1132.85 271.1 1129.75 272.8 1126.55 274.4 1122.55 277.65
L 1122.4 277.65 1128.65 250.65 1128.25 250.1 1113.7 250.95 1113.15 253.3 1117.8 254.05
Q 1118.65 254.45 1119.15 255.25 1119.6 256 1119.6 257.4
M 1081.8 275.95
L 1088.8 275.95 1082.7 302.05 1082.3 305.55
Q 1082.3 308.35 1084 309.9 1085.75 311.35 1089.45 311.35 1092.7 311.35 1095.15 310.65
L 1100.3 308.8 1100.95 305.95 1098.1 306.6 1095.25 306.85
Q 1092.45 306.85 1091.35 305.85 1090.3 304.85 1090.3 302.7
L 1090.55 300.35 1096.15 275.95 1106.95 275.95 1107.75 272.4 1096.9 272.4 1099.5 260.95 1092.5 260.95 1089.8 272.4 1082.65 272.4 1081.8 275.95
M 1056.8 279.2
Q 1056.8 275.65 1054.15 273.4 1051.4 271.1 1045.75 271.1 1040.7 271.1 1036.5 273.3 1032.3 275.55 1029.4 279.2 1026.45 282.9 1024.9 287.4 1023.35 291.9 1023.35 296.8 1023.35 303.9 1027 307.8 1030.65 311.65 1037.55 311.65 1042.6 311.65 1047.3 308.8 1052 305.95 1055.1 301.2
L 1052.9 299.55
Q 1050 303.4 1047 305.35 1044 307.3 1040.1 307.3 1035.7 307.3 1033.4 304.05 1031.1 300.8 1031.1 294.6
L 1039.3 293.25
Q 1043.05 292.45 1046.65 291.1 1051.65 289.35 1054.25 286.35 1056.8 283.4 1056.8 279.2
M 1045.05 273.85
L 1046.65 274 1048.1 274.55 1049.2 275.85
Q 1049.65 276.75 1049.65 278.3 1049.65 281.9 1048.05 284.55 1046.45 287.15 1043.25 288.85 1040.95 290 1037.55 290.75
L 1031.35 291.85
Q 1032.4 284.15 1036.4 279.05 1040.35 273.85 1045.05 273.85
M 1120.6 121.1
L 1120.15 120.5 1113.35 121 1106.5 150.4
Q 1103.85 153.05 1101.2 154.4 1098.6 155.7 1096.1 155.7 1093.65 155.7 1092.5 154.15 1091.4 152.65 1091.4 150
L 1091.6 147.85 1096.2 127.9 1096.35 126
Q 1096.35 123.3 1094.85 121.85 1093.4 120.35 1090.3 120.35 1088.9 120.35 1086.55 121.05
L 1081.2 123.2 1080.6 125.7 1084.85 124.8
Q 1087.1 124.8 1087.8 125.55 1088.5 126.25 1088.5 128.45
L 1087.65 134.05 1083.85 150.25 1083.7 152.5
Q 1083.7 156 1085.75 158.2 1087.8 160.35 1091.55 160.35 1094.05 160.35 1095.55 159.95
L 1098.95 158.55 1105.65 153.9 1105.85 153.9
Q 1105.85 156.35 1107.45 158.2 1108.95 160 1112.1 160 1113.95 160 1116.15 159.35
L 1121.55 157.35 1122.1 154.85 1117.9 155.6
Q 1115.65 155.6 1114.75 154.8 1113.75 154 1113.75 151.75
L 1114.05 149.5 1120.6 121.1
M 972.9 124.75
L 973.7 121.2 962.85 121.2 965.45 109.75 958.45 109.75 955.75 121.2 948.6 121.2 947.75 124.75 954.75 124.75 948.35 152.65 948.25 154.35
Q 948.25 157.15 949.95 158.7 951.7 160.15 955.4 160.15 958.65 160.15 961.1 159.45
L 966.25 157.6 966.9 154.75 964.05 155.4 961.2 155.65
Q 958.4 155.65 957.3 154.65 956.25 153.65 956.25 151.5
L 956.5 149.15 962.1 124.75 972.9 124.75
M 1039.65 135.35
Q 1037.9 139.9 1037.9 145.1 1037.9 152.15 1042 156.35 1046 160.5 1052.5 160.5 1058.05 160.5 1062.35 158.35 1066.55 156.2 1069.55 152.6 1072.55 149.1 1074.1 144.5 1075.65 139.85 1075.65 135.25 1075.65 128.35 1071.75 124.15 1067.8 119.9 1060.85 119.9 1055.8 119.9 1051.5 122 1047.2 124.1 1044.25 127.5 1041.35 130.85 1039.65 135.35
M 1046.65 138.75
Q 1047.35 134.55 1048.95 131.15 1051.05 126.65 1053.95 124.65 1056.8 122.65 1060.05 122.65 1063.75 122.65 1065.75 125.45 1067.7 128.2 1067.7 133.75 1067.7 138.2 1066.8 142.5 1065.9 146.75 1064.2 150 1062.55 153.35 1059.85 155.55 1057.15 157.75 1053.65 157.75 1049.75 157.75 1047.85 154.85 1045.9 152 1045.9 146.4 1045.9 142.9 1046.65 138.75
M 1032.5 120.5
L 1025.75 121 1019.3 150.2
Q 1016.9 152.65 1014.2 154.1 1011.5 155.5 1008.65 155.5 1006.15 155.5 1004.9 153.95 1003.6 152.45 1003.6 149.8
L 1003.85 147.65 1008.1 130.35 1008.7 126
Q 1008.7 123.2 1007.25 121.75 1005.7 120.35 1002.6 120.35 1001.2 120.35 998.85 121.05
L 993.5 123.2 992.9 125.7 997.15 124.8
Q 999.4 124.8 1000.1 125.55 1000.8 126.25 1000.8 128.45
L 1000.6 131 996.15 150.05 996 152.3
Q 996 155.8 998.15 158 1000.35 160.15 1004.1 160.15 1008.25 160.15 1011.5 158.4 1014.75 156.7 1018.3 153.7
L 1018.55 153.7
Q 1017.5 159.2 1015.75 163.15 1013.95 167.1 1011.7 169.6 1009.65 171.9 1007.2 173 1004.7 174.1 1002.45 174.1
L 1001.55 174.1 999.3 169.6 997.65 167.8
Q 996.65 166.95 995.2 166.95 993.3 166.95 992.25 168.25 991.25 169.55 991.25 171.25
L 991.65 173.2
Q 992.05 174.15 993.15 174.95 994.3 175.75 996.25 176.25 998.2 176.7 1001.55 176.7 1006.35 176.7 1010.1 175.35 1013.85 173.95 1017.05 170.85 1020.15 167.95 1022.45 163.2 1024.75 158.4 1026.25 151.7
L 1032.95 121.1 1032.5 120.5
M 1273.9 135.25
Q 1273.9 128.35 1270 124.15 1266.05 119.9 1259.1 119.9 1254.05 119.9 1249.75 122 1245.45 124.1 1242.5 127.5 1239.6 130.85 1237.9 135.35 1236.15 139.9 1236.15 145.1 1236.15 152.15 1240.25 156.35 1244.25 160.5 1250.75 160.5 1256.3 160.5 1260.6 158.35 1264.8 156.2 1267.8 152.6 1270.8 149.1 1272.35 144.5 1273.9 139.85 1273.9 135.25
M 1265.95 133.75
Q 1265.95 138.2 1265.05 142.5 1264.15 146.75 1262.45 150 1260.8 153.35 1258.1 155.55 1255.4 157.75 1251.9 157.75 1248 157.75 1246.1 154.85 1244.15 152 1244.15 146.4 1244.15 142.9 1244.9 138.75 1245.6 134.55 1247.2 131.15 1249.3 126.65 1252.2 124.65 1255.05 122.65 1258.3 122.65 1262 122.65 1264 125.45 1265.95 128.2 1265.95 133.75
M 1185.05 120.5
L 1177.9 122.3
Q 1176.45 121.4 1173.95 120.65 1171.45 119.9 1168.65 119.9 1164.3 119.9 1160.15 122.05 1156 124.15 1153 127.65 1149.85 131.25 1148.05 135.85 1146.25 140.45 1146.25 145.3 1146.25 152.3 1149.45 156.4 1152.7 160.45 1158.35 160.45 1160.45 160.45 1162.2 159.7
L 1165.55 158 1170.4 154.2 1170.65 154.2
Q 1170.8 156.75 1172.45 158.35 1174.1 160 1176.9 160 1179.4 160 1181.1 159.4
L 1186.35 157.35 1186.95 154.85 1182.7 155.6
Q 1180.5 155.6 1179.55 154.8 1178.6 154.05 1178.6 151.8
L 1178.95 149.25 1185.55 121.05 1185.05 120.5
M 1176 127
L 1176.25 129.45 1171.25 150.5
Q 1168.25 153.6 1165.9 154.8 1163.5 156.05 1161.3 156.05 1159.15 156.05 1157.75 155.25 1156.35 154.45 1155.6 152.95 1154.85 151.4 1154.55 149.6
L 1154.3 145.35
Q 1154.3 141.05 1155.55 136.75 1156.85 132.55 1158.9 129.6 1161.05 126.4 1163.75 124.55 1166.45 122.65 1169.3 122.65 1171.35 122.65 1172.7 123.25 1174.1 123.85 1174.85 124.8 1175.75 125.85 1176 127
M 1203 104.05
Q 1203.5 104.8 1203.5 106.2
L 1192.95 153.3 1195.1 156.1
Q 1196.35 157.4 1198.15 158.4 1199.95 159.4 1202.55 160 1205.1 160.5 1208.45 160.5 1212.9 160.5 1216.9 158.5 1220.85 156.5 1224.05 153 1227.1 149.55 1229 144.8 1230.85 140.05 1230.85 134.8 1230.85 128 1227.45 123.95 1224.05 119.9 1218.15 119.9 1215.55 119.9 1212.9 121.1 1210.2 122.3 1206.7 125.4
L 1206.55 125.4 1212.45 99.45 1212.05 98.9 1197.6 99.75 1197.05 102.1 1201.7 102.85
Q 1202.55 103.25 1203 104.05
M 1212.25 124.6
Q 1213.5 124.15 1214.9 124.15 1217.2 124.15 1218.75 125 1220.3 125.85 1221.2 127.35 1222.05 128.75 1222.45 130.85
L 1222.8 135
Q 1222.8 139.35 1221.75 143.55 1220.7 147.65 1218.55 151.05 1216.6 154.1 1213.85 155.9 1211.15 157.75 1208.05 157.75 1206.4 157.75 1205.05 157.3 1203.7 156.8 1202.6 155.9
L 1201.1 154.25 1200.4 152.55 1205.6 129.35 1209.75 125.85 1212.25 124.6
M 1428.75 119.9
Q 1424.75 119.9 1421.65 121.6 1418.45 123.2 1414.45 126.45
L 1414.3 126.45 1420.55 99.45 1420.15 98.9 1405.6 99.75 1405.05 102.1 1409.7 102.85
Q 1410.55 103.25 1411.05 104.05 1411.5 104.8 1411.5 106.2
L 1411.35 107.5 1399.4 159.35 1406.7 159.35 1413.35 130.65
Q 1415.9 127.75 1418.8 126.15 1421.7 124.55 1424.15 124.55 1426.65 124.55 1427.9 126.05 1429.15 127.6 1429.15 130.2
L 1428.2 135.45 1423.85 152.5 1423.7 154.4
Q 1423.7 156.75 1425.25 158.35 1426.8 160 1429.95 160 1431.95 160 1433.9 159.4
L 1439.35 157.3 1439.95 154.8 1437.8 155.35 1435.7 155.6
Q 1433.45 155.6 1432.5 154.8 1431.5 154 1431.5 151.75
L 1431.85 149.25 1436.5 130.25 1436.7 127.75
Q 1436.7 124.25 1434.6 122.1 1432.5 119.9 1428.75 119.9
M 1318.85 121.1
L 1318.4 120.5 1311.6 121 1304.75 150.4
Q 1302.1 153.05 1299.45 154.4 1296.85 155.7 1294.35 155.7 1291.9 155.7 1290.75 154.15 1289.65 152.65 1289.65 150
L 1289.85 147.85 1294.45 127.9 1294.6 126
Q 1294.6 123.3 1293.1 121.85 1291.65 120.35 1288.55 120.35 1287.15 120.35 1284.8 121.05
L 1279.45 123.2 1278.85 125.7 1283.1 124.8
Q 1285.35 124.8 1286.05 125.55 1286.75 126.25 1286.75 128.45
L 1285.9 134.05 1282.1 150.25 1281.95 152.5
Q 1281.95 156 1284 158.2 1286.05 160.35 1289.8 160.35 1292.3 160.35 1293.8 159.95
L 1297.2 158.55 1303.9 153.9 1304.1 153.9
Q 1304.1 156.35 1305.7 158.2 1307.2 160 1310.35 160 1312.2 160 1314.4 159.35
L 1319.8 157.35 1320.35 154.85 1316.15 155.6
Q 1313.9 155.6 1313 154.8 1312 154 1312 151.75
L 1312.3 149.5 1318.85 121.1
M 1374.55 121.2
L 1373.7 124.75 1380.7 124.75 1374.6 150.85 1374.2 154.35
Q 1374.2 157.15 1375.9 158.7 1377.65 160.15 1381.35 160.15 1384.6 160.15 1387.05 159.45
L 1392.2 157.6 1392.85 154.75 1390 155.4 1387.15 155.65
Q 1384.35 155.65 1383.25 154.65 1382.2 153.65 1382.2 151.5
L 1382.45 149.15 1388.05 124.75 1398.85 124.75 1399.65 121.2 1388.8 121.2 1391.4 109.75 1384.4 109.75 1381.7 121.2 1374.55 121.2
M 1344.4 109.75
L 1337.4 109.75 1334.7 121.2 1327.55 121.2 1326.7 124.75 1333.7 124.75 1327.6 150.85 1327.2 154.35
Q 1327.2 157.15 1328.9 158.7 1330.65 160.15 1334.35 160.15 1337.6 160.15 1340.05 159.45
L 1345.2 157.6 1345.85 154.75 1343 155.4 1340.15 155.65
Q 1337.35 155.65 1336.25 154.65 1335.2 153.65 1335.2 151.5
L 1335.45 149.15 1341.05 124.75 1351.85 124.75 1352.65 121.2 1341.8 121.2 1344.4 109.75
M 1586.65 130.25
L 1586.85 127.75
Q 1586.85 124.25 1584.75 122.1 1582.6 119.9 1578.9 119.9 1574.95 119.9 1571.8 121.6 1568.7 123.2 1564.4 126.65
L 1564.2 126.65
Q 1564.1 123.7 1562.8 122 1561.45 120.35 1558.35 120.35 1556.65 120.35 1554.3 121
L 1548.85 123 1548.3 125.5 1552.6 124.75
Q 1554.8 124.75 1555.55 125.5 1556.3 126.25 1556.3 128.4
L 1555.35 134 1549.5 159.35 1556.8 159.35 1563.5 130.65
Q 1566.05 127.65 1569.05 126.1 1571.95 124.55 1574.3 124.55 1576.75 124.55 1578 126.05 1579.2 127.6 1579.25 130.2
L 1579 132.4 1573.95 152.5 1573.8 154.4
Q 1573.8 156.75 1575.35 158.35 1576.9 160 1580.05 160 1582.05 160 1584 159.4
L 1589.5 157.3 1590.1 154.8 1587.95 155.35 1585.85 155.6
Q 1583.6 155.6 1582.6 154.8 1581.65 154 1581.65 151.75
L 1581.95 149.25 1586.65 130.25
M 1605.1 119.9
Q 1603.7 119.9 1601.25 120.55
L 1595.8 122.6 1595.2 125.1 1599.65 124.35
Q 1601.9 124.35 1602.6 125.1 1603.35 125.8 1603.35 128
L 1603 130.65 1597.8 152.65 1597.6 154.55
Q 1597.6 156.95 1599.2 158.55 1600.75 160.15 1603.85 160.15
L 1607.55 159.6 1613.3 157.6 1613.85 155.1 1609.6 155.75
Q 1607.45 155.75 1606.4 154.95 1605.45 154.1 1605.45 151.9
L 1605.7 149.45 1611 127.45 1611.2 125.5
Q 1611.2 122.95 1609.75 121.4 1608.3 119.9 1605.1 119.9
M 1615.25 101.65
Q 1613.85 100.15 1611.6 100.15 1609.6 100.15 1608.15 101.75 1606.75 103.35 1606.75 105.5 1606.75 107.5 1608.15 109.1 1609.6 110.7 1611.6 110.7 1613.75 110.7 1615.2 109.05 1616.65 107.35 1616.65 105.15 1616.65 103.15 1615.25 101.65
M 1467.35 119.9
Q 1462.3 119.9 1458.1 122.1 1453.9 124.35 1451 128 1448.05 131.7 1446.5 136.2 1444.95 140.7 1444.95 145.6 1444.95 152.7 1448.6 156.6 1452.25 160.45 1459.15 160.45 1464.2 160.45 1468.9 157.6 1473.6 154.75 1476.7 150
L 1474.5 148.35
Q 1471.6 152.2 1468.6 154.15 1465.6 156.1 1461.7 156.1 1457.3 156.1 1455 152.85 1452.7 149.6 1452.7 143.4
L 1460.9 142.05
Q 1464.65 141.25 1468.25 139.9 1473.25 138.15 1475.85 135.15 1478.4 132.2 1478.4 128 1478.4 124.45 1475.75 122.2 1473 119.9 1467.35 119.9
M 1468.25 122.8
L 1469.7 123.35 1470.8 124.65
Q 1471.25 125.55 1471.25 127.1 1471.25 130.7 1469.65 133.35 1468.05 135.95 1464.85 137.65 1462.55 138.8 1459.15 139.55
L 1452.95 140.65
Q 1454 132.95 1458 127.85 1461.95 122.65 1466.65 122.65
L 1468.25 122.8
M 1507.5 121.05
L 1502.15 123.2 1501.55 125.7 1505.8 124.8
Q 1508.05 124.8 1508.75 125.55 1509.45 126.25 1509.45 128.45
L 1508.6 134.05 1504.8 150.25 1504.65 152.5
Q 1504.65 156 1506.7 158.2 1508.75 160.35 1512.5 160.35 1515 160.35 1516.5 159.95
L 1519.9 158.55 1526.6 153.9 1526.8 153.9
Q 1526.8 156.35 1528.4 158.2 1529.9 160 1533.05 160 1534.9 160 1537.1 159.35
L 1542.5 157.35 1543.05 154.85 1538.85 155.6
Q 1536.6 155.6 1535.7 154.8 1534.7 154 1534.7 151.75
L 1535 149.5 1541.55 121.1 1541.1 120.5 1534.3 121 1527.45 150.4
Q 1524.8 153.05 1522.15 154.4 1519.55 155.7 1517.05 155.7 1514.6 155.7 1513.45 154.15 1512.35 152.65 1512.35 150
L 1512.55 147.85 1517.15 127.9 1517.3 126
Q 1517.3 123.3 1515.8 121.85 1514.35 120.35 1511.25 120.35 1509.85 120.35 1507.5 121.05
M 1765.25 122.8
Q 1763.95 121.55 1762.15 120.9
L 1758.25 120.05 1755 119.9
Q 1748.45 119.9 1744 123.55 1739.5 127.2 1739.5 132.25 1739.5 134.6 1740.4 136.3 1741.25 138 1742.65 139.25 1743.8 140.35 1745.75 141.35
L 1749.15 142.75
Q 1753.2 144.1 1755.2 145.7 1757.25 147.25 1757.25 149.9 1757.25 153.55 1755.1 155.65 1752.9 157.75 1748.7 157.75 1746.75 157.75 1745.75 157.2
L 1744.1 155.95 1742.3 151.25
Q 1741.75 150.25 1740.8 149.55 1739.85 148.8 1738.25 148.8 1736.65 148.8 1735.5 150.15 1734.35 151.55 1734.35 153.1 1734.35 156.4 1738.25 158.5 1742.05 160.5 1747.85 160.5 1754.8 160.5 1759.35 156.75 1763.95 153.05 1763.95 147.1 1763.95 143.45 1761.55 141 1759.15 138.55 1753.8 136.6 1749.7 135.15 1747.95 133.75 1746.15 132.35 1746.15 129.6 1746.15 126.75 1748.15 124.75 1750.1 122.65 1753.95 122.65
L 1755.5 122.8 1756.85 123.2 1758.7 127.85
Q 1759.35 128.9 1760.25 129.55 1761.2 130.15 1762.65 130.15 1764.4 130.15 1765.5 128.9 1766.55 127.55 1766.55 125.95 1766.55 124 1765.25 122.8
M 1651.75 119.9
Q 1650.1 119.9 1648.65 121.05 1647.15 122.25 1647.15 124.45 1647.15 126.4 1647.8 127.5
L 1650.65 131.75
Q 1651.3 133 1651.3 135.35 1651.3 139.8 1649.9 143.35 1648.5 147 1646.2 149.95 1644.05 152.65 1641.2 154.3 1638.4 156 1635.75 156
L 1633.45 155.7 1631.4 154.8
Q 1630.45 154.1 1629.75 152.8 1629.15 151.55 1629.15 149.5
L 1629.35 147.75 1634.2 127.85 1634.3 125.95
Q 1634.3 123.2 1632.8 121.75 1631.3 120.35 1628.15 120.35 1626.75 120.35 1624.4 121.05
L 1619 123.15 1618.4 125.65 1622.75 124.8
Q 1624.95 124.8 1625.75 125.5 1626.5 126.25 1626.5 128.45
L 1626.2 131.05 1622.1 146.55 1621.6 150.1
Q 1621.6 154.85 1624.65 157.65 1627.7 160.5 1632.8 160.5 1638.05 160.5 1642.45 157.55 1646.8 154.6 1649.95 149.9 1653.1 145.35 1654.9 139.2 1656.7 133.05 1656.7 127.1 1656.7 123.6 1655.4 121.75 1654.05 119.9 1651.75 119.9
M 1700.45 123
L 1699.9 125.5 1704.15 124.75
Q 1706.35 124.75 1707.1 125.5 1707.85 126.25 1707.85 128.4
L 1707.45 131.2 1701.2 159.35 1708.5 159.35 1714.8 131.35
Q 1717 128.9 1718.9 127.4
L 1722.35 125.15 1724.95 124.2 1726.5 123.9 1725.3 126.95
Q 1724.7 128.4 1724.7 129.6 1724.7 130.9 1725.75 131.95 1726.8 133 1728.9 133 1730.45 133 1731.35 132.5
L 1732.85 130.85 1733.75 128.7 1734.05 126.25
Q 1734.05 124.25 1733.7 123.2 1733.25 122.1 1732.4 121.25 1731.55 120.5 1730.4 120.2
L 1727.95 119.9
Q 1725.35 119.9 1722.95 121.5 1720.55 123.1 1715.9 127.1
L 1715.65 127.1
Q 1715.65 123.75 1714.35 122.05 1713 120.35 1709.9 120.35 1708.2 120.35 1705.85 121
L 1700.45 123
M 1692.6 122.2
Q 1689.85 119.9 1684.2 119.9 1679.15 119.9 1674.95 122.1 1670.75 124.35 1667.85 128 1664.9 131.7 1663.35 136.2 1661.8 140.7 1661.8 145.6 1661.8 152.7 1665.45 156.6 1669.1 160.45 1676 160.45 1681.05 160.45 1685.75 157.6 1690.45 154.75 1693.55 150
L 1691.35 148.35
Q 1688.45 152.2 1685.45 154.15 1682.45 156.1 1678.55 156.1 1674.15 156.1 1671.85 152.85 1669.55 149.6 1669.55 143.4
L 1677.75 142.05
Q 1681.5 141.25 1685.1 139.9 1690.1 138.15 1692.7 135.15 1695.25 132.2 1695.25 128 1695.25 124.45 1692.6 122.2
M 1685.1 122.8
L 1686.55 123.35 1687.65 124.65
Q 1688.1 125.55 1688.1 127.1 1688.1 130.7 1686.5 133.35 1684.9 135.95 1681.7 137.65 1679.4 138.8 1676 139.55
L 1669.8 140.65
Q 1670.85 132.95 1674.85 127.85 1678.8 122.65 1683.5 122.65
L 1685.1 122.8
M 1821.5 154.85
Q 1821.5 152.65 1819.9 151.1 1818.3 149.5 1816.1 149.5 1813.95 149.5 1812.35 151.1 1810.75 152.65 1810.75 154.85 1810.75 157.05 1812.35 158.6 1813.95 160.15 1816.1 160.15 1818.3 160.15 1819.9 158.6 1821.5 157.05 1821.5 154.85
M 1793.25 119.9
Q 1788.2 119.9 1784 122.1 1779.8 124.35 1776.9 128 1773.95 131.7 1772.4 136.2 1770.85 140.7 1770.85 145.6 1770.85 152.7 1774.5 156.6 1778.15 160.45 1785.05 160.45 1790.1 160.45 1794.8 157.6 1799.5 154.75 1802.6 150
L 1800.4 148.35
Q 1797.5 152.2 1794.5 154.15 1791.5 156.1 1787.6 156.1 1783.2 156.1 1780.9 152.85 1778.6 149.6 1778.6 143.4
L 1786.8 142.05
Q 1790.55 141.25 1794.15 139.9 1799.15 138.15 1801.75 135.15 1804.3 132.2 1804.3 128 1804.3 124.45 1801.65 122.2 1798.9 119.9 1793.25 119.9
M 1794.15 122.8
L 1795.6 123.35 1796.7 124.65
Q 1797.15 125.55 1797.15 127.1 1797.15 130.7 1795.55 133.35 1793.95 135.95 1790.75 137.65 1788.45 138.8 1785.05 139.55
L 1778.85 140.65
Q 1779.9 132.95 1783.9 127.85 1787.85 122.65 1792.55 122.65
L 1794.15 122.8 Z"/>
</g>

<g id="money_up_0_Layer0_0_MEMBER_1_FILL">
<path fill="#00FF6B" stroke="none" d="
M 2001.3 344.2
L 1992.4 343 1992.1 343 1992.1 331.9
Q 1992.1 328.65 1988.75 328.65 1983.9 328.65 1983.9 331.9
L 1983.9 343 1978.6 343.3 1978.6 331.9
Q 1978.6 328.65 1975.25 328.65 1970.4 328.65 1970.4 331.9
L 1970.4 344.5
Q 1961.75 346.95 1955.2 354.15 1946.4 363.5 1946.4 377.15 1946.4 390.6 1955.2 400.3 1961.35 407.2 1970.4 409.95
L 1970.4 458.45 1969.25 458.15
Q 1960.75 456.85 1957.5 451.55
L 1954.9 445.25 1954.6 434.55
Q 1954.9 433.7 1954.6 433.25 1954.6 428.55 1949.3 428.55 1946.1 428.55 1946.1 433.25
L 1946.1 458.45 1953 463
Q 1961.2 466.5 1970.4 467.55
L 1970.4 477.05
Q 1970.4 481.75 1974.35 481.75 1978.6 481.75 1978.6 477.05
L 1978.6 468.1 1983.9 467.8 1983.9 477.05
Q 1983.9 481.75 1988 481.75 1992.1 481.75 1992.1 477.05
L 1992.1 466.35
Q 2001.6 463.45 2009.1 457 2023 445.25 2023 430.05 2023 414.05 2011.85 403.95 2003.8 396.5 1992.1 393.7
L 1992.1 350.5 1992.4 350.8 1999.85 354.15
Q 2007.35 359.7 2007.35 368.5
L 2006.75 370.1
Q 2006.45 370.85 2007.05 371.15 2006.75 374.2 2010.55 374.2 2014.5 374.2 2014.5 371.15
L 2014.5 348.75
Q 2006.45 344.9 2001.3 344.2
M 1978.6 349.6
L 1983.9 349.6 1983.9 392.55
Q 1982.45 392.4 1981.25 392.25 1980.1 392.1 1978.6 391.95
L 1978.6 349.6
M 1958.1 370.85
Q 1958.1 362.5 1963.55 356.2 1966.15 353.1 1970.4 351.65
L 1970.4 389.75 1963.8 385.35
Q 1958.1 379.35 1958.1 370.85
M 1992.1 413.75
Q 1998.1 415.25 2001.9 418.9 2008.8 425.2 2008.8 434.55 2008.8 443.5 2001.9 450.95 1998.85 454.35 1992.1 457
L 1992.1 413.75
M 1978.6 411.4
L 1983.9 412.3 1983.9 458.45 1978.6 458.75 1978.6 411.4 Z"/>
</g>

<g id="Layer0_0_FILL">
<path fill="#FFFFFF" stroke="none" d="
M 1554.75 362.4
L 1565.65 362.4 1565.65 396.2 1583.15 396.2 1583.15 390.75 1572.2 390.75 1572.2 356.95 1554.75 356.95 1554.75 362.4
M 1564.6 342.75
Q 1564.6 344.9 1566.1 346 1567.6 347.1 1568.95 347.1 1570.3 347.1 1571.8 346 1573.3 344.9 1573.3 342.75 1573.3 340.55 1571.8 339.45 1570.3 338.35 1568.95 338.35 1567.6 338.35 1566.1 339.45 1564.6 340.55 1564.6 342.75
M 1521.1 365.65
L 1521.1 347.1 1543.95 347.1 1543.95 341.65 1514 341.65 1514 396.2 1521.1 396.2 1521.1 371.1 1541.8 371.1 1541.8 365.65 1521.1 365.65
M 1696.4 388.1
Q 1694.65 389.75 1694.65 392.1 1694.65 394.5 1696.35 396.15 1698.05 397.85 1700.4 397.85 1702.75 397.85 1704.45 396.15 1706.1 394.5 1706.1 392.1 1706.1 389.75 1704.45 388.1 1702.7 386.4 1700.4 386.4 1698.05 386.4 1696.4 388.1
M 1629.45 362.5
Q 1628.3 359.55 1625.45 357.7 1622.6 355.85 1619.1 355.85 1615.15 355.85 1611.15 358.4 1607.2 360.95 1604.4 365.5
L 1604.4 356.95 1597.85 356.95 1597.85 396.2 1604.4 396.2 1604.4 373.3
Q 1606.95 368.4 1610.95 365.1 1614.85 361.85 1618.3 361.85 1620.05 361.85 1621.5 363 1622.95 364.15 1623.5 366 1624.05 367.8 1624.05 373.45
L 1624.05 396.2 1630.6 396.2 1630.6 374.25
Q 1630.6 365.5 1629.45 362.5
M 1658.8 355.85
Q 1653.55 355.85 1649.25 358.6 1644.95 361.35 1642.55 366.3 1640.15 371.25 1640.15 376.65 1640.15 382.2 1642.7 387.15 1645.2 392 1649.4 394.65 1653.55 397.3 1658.85 397.3 1665.85 397.3 1673.7 393.6
L 1673.7 387.6
Q 1666.05 391.85 1659.7 391.85 1656.15 391.85 1653.4 390.15 1650.6 388.45 1648.9 385.1 1647.2 381.7 1647.2 377.6
L 1674.25 377.6 1674.25 376.2
Q 1674.25 365.85 1670.05 360.85 1665.8 355.85 1658.8 355.85
M 1651.65 364.15
Q 1654.55 361.3 1658.5 361.3 1662.45 361.3 1664.8 364.15 1667.15 367 1667.15 371.75
L 1667.15 372.7 1647.6 372.7
Q 1648.75 367.1 1651.65 364.15 Z"/>
</g>

<path id="Layer7_0_1_STROKES" stroke="#FFFFFF" stroke-opacity="0.3764705882352941" stroke-width="3" stroke-linejoin="round" stroke-linecap="round" fill="none" d="
M 1353.3 645.65
Q 1450.6 667.55 1492.4 668.85 1534.2 670.15 1592.75 671.4 1651.3 672.7 1679.05 677.9 1711.7 684.2 1756.75 690.2 1782 693.45 1801.7 698.55 1821.25 703.65 1857.95 719.7 1894.55 735.6 1906.65 743.1 1918.65 750.45 1962.9 776.75 2007.15 802.9 2011.25 806.15 2026.45 817.55 2026.45 822.05 2026.45 826.1 2036.95 832.2 2054.95 842.6 2060.05 846.45 2093.85 871.45 2095.4 916.4 2096.3 942.35 2061.75 967.45 2042.4 981.4 2013.85 994.1 1999.75 1000.25 1983.35 1006.2 1942.35 1021 1899.7 1029.9 1860.75 1037.85 1813.55 1031.95 1766.3 1026.05 1733.4 1027.3 1700.55 1028.6 1651.6 1044.25 1602.6 1059.85 1556.4 1049.55 1510.65 1039.2 1437.65 1048.75 1417.2 1051.4 1389.65 1056.55 1367.4 1060.65 1364.7 1060.65 1310.5 1057.1 1255.9 1055.75 1148.15 1053.1 1106.75 1063.4 1062.7 1074.4 1015.1 1076.2 985.3 1077.25 940.7 1074.4 928.1 1073.75 904.65 1076.8 868.75 1081.4 860.85 1082.1 800.45 1087.4 746.55 1068.95 687.3 1048.65 640.2 1039.5 606.7 1032.95 585.6 1032.95 578.05 1032.95 525.25 1023.9 466.55 1013.85 424.65 1010.6 367.1 1006.45 320.8 995.45 318 994.75 315.15 994.1 269.15 982.65 230.5 963.5 185.7 941.35 165 920.8 141.85 897.9 143.65 872.15 145.6 843.8 162.3 805.45 179.55 765.75 194.75 758.35 211.85 749.9 221.05 742.3 227.65 735.85 230.5 734.05 234.6 731.5 245.65 731 254.25 730.6 282.95 721.95 311.65 713.4 345.15 711.55 378.6 709.75 401.2 704.35 423.8 698.85 436.15 695.6 460.55 689 483.4 689 506.3 689 535.8 681.65 552.5 677.3 590.4 673.35 628.25 669.25 655.15 665.3 682.05 661.35 716.15 649.6 750.25 637.75 784.35 639.45 832 641.9 902.45 641.9 972.65 641.9 1054.4 642.2 1110.25 641.7 1168.15 636.4 1197.85 633.55 1223.45 633.95 1239 634.2 1263.9 636.4 1288.9 638.45 1302.35 638.65 1325.65 639.15 1353.3 645.65 Z"/>

<path id="Layer6_0_1_STROKES" stroke="#FFFFFF" stroke-width="6" stroke-linejoin="round" stroke-linecap="round" fill="none" d="
M 1329.95 656.95
Q 1442.75 680.6 1483.2 680.2 1523.7 679.75 1567.5 690.05 1611.2 700.25 1639.35 697.85 1667.35 695.45 1693.45 702.5 1719.5 709.45 1756.75 715.75 1793.95 722 1814.75 726.6 1835.45 731.25 1850.85 733.6 1866.15 735.8 1901.05 761.25 1936 786.55 1943.7 788.8 1951.4 790.95 1957.9 798.55 1964.4 806.15 1978.55 813.8 1992.8 821.4 2018.85 836.5 2044.85 851.65 2042.15 881.45 2039.35 911.25 2010.15 927.1 1980.9 942.95 1953.6 954.1 1940.25 959.6 1924.65 964.8 1885.65 977.8 1845 985.6 1808 992.55 1797.95 990.6 1782.75 987.55 1735.3 979
L 1694.65 979
Q 1665.4 982.7 1631.15 992.35 1562.4 1011.85 1518.4 1002.75 1474.85 993.75 1405.35 1002.1 1385.95 1004.45 1359.65 1008.85 1338.5 1012.5 1336 1012.5 1284.4 1009.45 1232.4 1008.25 1129.85 1005.85 1090.5 1014.9 1048.55 1024.55 1003.25 1026.15 974.95 1027.05 932.55 1024.55 920.45 1023.9 898.2 1026.6 864.05 1030.7 856.5 1031.25 799.05 1035.9 747.75 1019.75 691.3 1002 646.55 993.95 614.65 988.2 594.55 988.2 587.35 988.2 537.1 980.3 481.25 971.5 441.45 968.7 386.65 965 342.6 955.35 339.9 954.75 337.2 954.1 293.4 944.1 256.65 927.4 214.05 908 194.35 890 172.25 869.85 174 847.2 176.25 818.15 182.3 798.55 190.15 773.05 203.75 766.9 247.65 746.95 257.9 743.8 275.65 738.35 333.2 729.25 344.35 727.45 375.9 723.75 403.45 720.5 418.5 717.65 450.35 711.5 483.6 702.75 500.25 698.4 510.5 695.25
L 577.15 682.05 744.8 661.45
Q 757.55 659.35 775.2 658.1 810.45 655.6 835 659.75 859.1 663.9 946 661.45 968.75 660.8 1007.8 659.3 1039 658.1 1044.55 658.1 1052 658.1 1082.9 655.35 1099.25 653.9 1146.7 649.45 1236.15 640.95 1245.75 641.4 1264.1 642.2 1277.35 642.65 1299.35 643.3 1329.95 656.95 Z"/>

<path id="Layer5_0_1_STROKES" stroke="#FFFFFF" stroke-width="4" stroke-linejoin="round" stroke-linecap="round" fill="none" d="
M 1016.5039184570313 608.951559448242
L 1265.794610595703 648.9027587890625 1427.635900878906 569.838916015625 1196.913232421875 529.1090576171875 1016.5039184570313 608.951559448242 Z
M 1016.5039184570313 608.951559448242
L 1016.5039184570313 840.033609008789 1265.794610595703 888.4901611328125 1265.794610595703 648.9027587890625
M 1427.635900878906 569.838916015625
L 1427.635900878906 789.2410797119142 1265.794610595703 888.4901611328125"/>

<path id="money_up_0_Layer0_0_MEMBER_0_1_STROKES" stroke="#00FF6B" stroke-width="8" stroke-linejoin="miter" stroke-linecap="round" stroke-miterlimit="3" fill="none" d="
M 43.99564208984384 16.35302734375
L -0.19735107421865905 66.14794921875 24.70010986328134 66.14794921875 24.70010986328134 128.3916015625 62.04630126953134 128.3916015625 62.04630126953134 66.14794921875 86.94376220703134 66.14794921875 43.99564208984384 16.35302734375 Z"/>

<path id="Layer1_0_1_STROKES" stroke="#646F74" stroke-width="8" stroke-linejoin="round" stroke-linecap="round" fill="none" d="
M 36.15 36.45
L 132.25 104.2"/>
</defs>

<g transform="matrix( 1, 0, 0, 1, 0,0) ">
<use xlink:href="#Layer12_0_FILL"/>
</g>

<g transform="matrix( 1, 0, 0, 1, 0,0) ">
<use xlink:href="#Layer11_0_FILL"/>
</g>

<g transform="matrix( 1, 0, 0, 1, 0,0) ">
<use xlink:href="#Layer7_0_1_STROKES"/>
</g>

<g transform="matrix( 1, 0, 0, 1, 0,0) ">
<use xlink:href="#Layer6_0_FILL"/>

<use xlink:href="#Layer6_0_1_STROKES"/>
</g>

<g transform="matrix( 1.19793701171875, 0, 0, 1.19793701171875, -72.9,-249.55) ">
<use xlink:href="#Layer5_0_FILL"/>

<use xlink:href="#Layer5_0_1_STROKES" transform="matrix( 0.8347625732421875, 0, 0, 0.8347625732421875, 60.85,208.3) "/>
</g>

<g transform="matrix( 1, 0, 0, 1, 0,0) ">
<use xlink:href="#Layer4_0_STROKES_1_FILL"/>
</g>

<g transform="matrix( 1, 0, 0, 1, 0,0) ">
<use xlink:href="#Layer3_0_FILL"/>
</g>

<g transform="matrix( 0.85858154296875, 0, 0, 0.85858154296875, 1489.25,744.4) ">
<g transform="matrix( 1.244873046875, 0, 0, 1.244873046875, -2315.35,-444.25) ">
<use xlink:href="#money_up_0_Layer0_0_MEMBER_0_1_STROKES" transform="matrix( 0.80328369140625, 0, 0, 0.80328369140625, 1859.9,356.85) "/>
</g>

<g transform="matrix( 1, 0, 0, 1, -1831.3,-328.65) ">
<use xlink:href="#money_up_0_Layer0_0_MEMBER_1_FILL"/>
</g>
</g>

<g transform="matrix( 1, 0, 0, 1, 0,0) ">
<use xlink:href="#Layer1_0_1_STROKES"/>
</g>

<g transform="matrix( 1, 0, 0, 1, 0,0) ">
<use xlink:href="#Layer0_0_FILL"/>
</g>
</svg>
