
<svg xmlns="http://www.w3.org/2000/svg" version="1.1" xmlns:xlink="http://www.w3.org/1999/xlink" preserveAspectRatio="none" x="0px" y="0px" width="2196px" height="1100px" viewBox="0 0 2196 1100">
<defs>
<radialGradient id="Gradient_1" gradientUnits="userSpaceOnUse" cx="0" cy="0" r="1086.6999999999998" fx="0" fy="0" gradientTransform="matrix( 0, 1.0000000000000002, -12.357964479617191, 0, 1182.1,985.15) " spreadMethod="pad">
<stop  offset="0%" stop-color="#000000"/>

<stop  offset="100%" stop-color="#001D2D"/>
</radialGradient>

<g id="Layer11_0_FILL">
<path fill="url(#Gradient_1)" stroke="none" d="
M 2311.45 1139.6
L 2311.45 -85.7 -126.25 -85.7 -126.25 1139.6 2311.45 1139.6 Z"/>
</g>

<g id="Layer9_0_FILL">
<path fill="#222222" stroke="none" d="
M -24.65 -112.55
Q -45.05 -109.1 -66.25 -105.75
L -66.25 1187.25 2328.6 1187.25 2328.6 70.7
Q 2279.85 -78.7 2167.95 -79.95 2121.85 -85.4 2071.35 -78.9 2020.8 -72.4 1934.85 -76.35 1848.85 -80.3 1758.8 -75.8 1672.992578125 -62.985546875 1650.9 -62.45 1628.85546875 -61.9109375 1526 -85.9 1423.198046875 -109.846484375 1283.1 -103.65 1142.95 -97.55 880 -123.5 852.2 -126.3 796.65 -121.65 713.7 -113.3 564 -125.65 414.25 -138 180 -131.4 67.1 -128.25 -24.65 -112.55 Z"/>
</g>

<g id="Layer7_0_FILL">
<path fill="#000000" stroke="none" d="
M 1964.3 222.75
Q 1964.3 202.75 1944.3 202.75
L 1708.2 202.75
Q 1688.2 202.75 1688.2 222.75
L 1688.2 391.55
Q 1688.2 411.55 1708.2 411.55
L 1944.3 411.55
Q 1964.3 411.55 1964.3 391.55
L 1964.3 222.75 Z"/>
</g>

<g id="Layer5_0_STROKES_1_FILL">
<path fill="#999999" stroke="none" d="
M 877.7 761
Q 878.6251953125 762.3865234375 880.25 762.7 890.1423828125 764.7779296875 900.65 765.6 902.2951171875 765.715234375 903.55 764.6 904.8037109375 763.5451171875 904.9 761.9 905.05390625 760.25703125 903.95 759 902.8927734375 757.7349609375 901.25 757.6 891.2576171875 756.8220703125 881.85 754.85 880.2326171875 754.5388671875 878.85 755.45 877.4626953125 756.3734375 877.1 758 876.7880859375 759.6154296875 877.7 761
M 845.2 741.95
Q 843.7203125 741.19140625 842.15 741.7 840.5708984375 742.2029296875 839.8 743.65 839.041015625 745.137109375 839.55 746.7 840.0453125 748.2787109375 841.5 749.05 850.603515625 753.780078125 860.35 757.2 861.9314453125 757.7720703125 863.4 757.05 864.921484375 756.331640625 865.45 754.75 866.0228515625 753.2193359375 865.3 751.7 864.580859375 750.2291015625 863 749.65 853.7966796875 746.419921875 845.2 741.95
M 806.85 722.95
Q 806.9595703125 724.599609375 808.2 725.7 816.1626953125 732.7404296875 824.05 738.35 825.440234375 739.3177734375 827.05 739.05 828.6953125 738.7623046875 829.65 737.4 830.619921875 736.0498046875 830.35 734.4 830.072265625 732.8068359375 828.7 731.85 821.137109375 726.459375 813.5 719.7 812.2462890625 718.5990234375 810.6 718.7 808.950390625 718.8048828125 807.85 720.05 806.7490234375 721.298828125 806.85 722.95
M 675.55 609
Q 674.6857421875 607.6201171875 673.05 607.25 663.20703125 605.0435546875 652.8 604.2 651.18671875 604.084375 649.9 605.15 648.6599609375 606.2279296875 648.5 607.85 648.3828125 609.5283203125 649.45 610.8 650.5251953125 612.0634765625 652.15 612.2 661.99296875 612.96875 671.3 615.05 672.9294921875 615.4126953125 674.3 614.5 675.7310546875 613.635546875 676.1 612 676.4640625 610.4201171875 675.55 609
M 692.7 613.15
Q 691.185546875 612.57734375 689.65 613.25 688.16484375 613.93125 687.55 615.45 686.9763671875 617.0142578125 687.65 618.5 688.33125 620.0341796875 689.85 620.6 698.9048828125 624.070703125 707.45 628.85 708.89296875 629.6921875 710.45 629.25 712.0623046875 628.7986328125 712.85 627.35 713.694140625 625.9095703125 713.25 624.3 712.79609375 622.7396484375 711.35 621.9 702.294921875 616.8291015625 692.7 613.15
M 783.25 690.45
Q 781.60390625 690.3640625 780.35 691.45 779.1390625 692.594921875 779.05 694.25 778.9671875 695.894921875 780.05 697.1 787.542578125 705.3953125 793.7 711.7 794.85859375 712.8830078125 796.5 712.9 798.1568359375 712.914453125 799.35 711.75 800.533984375 710.594921875 800.55 708.95 800.5734375 707.294140625 799.4 706.1 793.3701171875 699.9046875 786 691.75 784.9017578125 690.540234375 783.25 690.45
M 745.5 649.4
Q 745.4384765625 647.7697265625 744.2 646.6 736.1703125 639.0818359375 728.6 633.3 728.5265625 633.253125 728.4 633.15 728.275 633.075 728.1 632.95 726.726953125 632.051953125 725.1 632.35 723.4884765625 632.7109375 722.55 634.1 721.651171875 635.4814453125 721.95 637.1 722.3025390625 638.7107421875 723.65 639.6 723.825 639.725 723.95 639.8 731.135546875 645.317578125 738.75 652.45 739.983203125 653.6048828125 741.6 653.55 743.282421875 653.4908203125 744.4 652.25 745.55703125 651.069140625 745.5 649.4
M 751.85 663.8
Q 751.780078125 665.4734375 752.9 666.7 757.5828125 671.784375 766.65 682 767.767578125 683.2443359375 769.4 683.35 771.066015625 683.4376953125 772.3 682.3 773.5462890625 681.2224609375 773.65 679.55 773.74765625 677.9359375 772.65 676.7 763.5169921875 666.415625 758.8 661.3 757.6734375 660.076953125 756 660 754.3734375 659.928515625 753.15 661.05 751.9240234375 662.175 751.85 663.8
M 672.55 455.1
Q 671.1677734375 454.20234375 669.55 454.5 660.277734375 456.3912109375 650.55 456.2 648.923046875 456.172265625 647.7 457.3 646.5306640625 458.4751953125 646.5 460.1 646.47109375 461.7767578125 647.6 462.95 648.7751953125 464.16796875 650.4 464.2 661.022265625 464.4087890625 671.15 462.35 672.762109375 462.0376953125 673.65 460.65 674.5990234375 459.268359375 674.25 457.65 673.9390625 456.0384765625 672.55 455.1
M 707.55 438.85
Q 705.9248046875 438.5681640625 704.55 439.5 696.3671875 445.0759765625 687.8 448.8 686.2849609375 449.503125 685.65 451.05 685.076171875 452.583984375 685.75 454.1 686.41484375 455.6189453125 687.95 456.2 689.480078125 456.835546875 691 456.15 700.2330078125 452.1236328125 709.05 446.1 710.4173828125 445.164453125 710.7 443.55 711.034765625 441.9236328125 710.1 440.55 709.1673828125 439.1814453125 707.55 438.85
M 736.7 411.6
Q 735.0560546875 411.6609375 733.9 412.85 726.5802734375 420.8103515625 719.95 426.9 718.7609375 428.05625 718.7 429.7 718.641796875 431.3537109375 719.75 432.55 720.90234375 433.7896484375 722.55 433.85 724.203125 433.904296875 725.4 432.75 732.21953125 426.4896484375 739.75 418.3 740.9041015625 417.103125 740.85 415.45 740.7896484375 413.80234375 739.55 412.65 738.35390625 411.5419921875 736.7 411.6
M 874.8 312.45
Q 876.163671875 313.3828125 877.75 313.05 887.2556640625 311.3248046875 897.2 310.65 898.8638671875 310.5298828125 899.95 309.25 901.0521484375 308.0232421875 900.95 306.35 900.83125 304.7349609375 899.55 303.65 898.3244140625 302.5490234375 896.65 302.65 886.244140625 303.3751953125 876.3 305.2 874.6923828125 305.5330078125 873.75 306.9 872.8154296875 308.260546875 873.1 309.85 873.43125 311.5044921875 874.8 312.45
M 859.4 310.45
Q 857.9623046875 309.6921875 856.4 310.2 846.5427734375 313.3216796875 837.25 317.65 835.7607421875 318.3904296875 835.2 319.95 834.6267578125 321.500390625 835.3 323 836.039453125 324.49296875 837.6 325.05 839.1466796875 325.622265625 840.65 324.9 849.4572265625 320.778125 858.8 317.8 860.3796875 317.295703125 861.15 315.8 861.908984375 314.3626953125 861.4 312.8 860.896875 311.220703125 859.4 310.45
M 793.25 358.5
Q 794.4689453125 357.3568359375 794.5 355.7 794.528125 354.058203125 793.35 352.85 792.2099609375 351.6796875 790.55 351.65 788.909765625 351.625 787.7 352.75 781.3056640625 358.9892578125 773.75 367.1 772.645703125 368.3466796875 772.7 370 772.7603515625 371.64765625 773.95 372.75 775.19609375 373.9080078125 776.85 373.85 778.49375 373.7888671875 779.6 372.55 786.994140625 364.6107421875 793.25 358.5
M 763.35 380.6
Q 761.71484375 380.763671875 760.65 382 753.1646484375 390.8970703125 747.4 397.5 746.349609375 398.79375 746.45 400.45 746.5951171875 402.0923828125 747.85 403.15 749.1044921875 404.253125 750.75 404.1 752.38984375 404.015625 753.45 402.75 759.23515625 396.1029296875 766.75 387.15 767.816015625 385.8978515625 767.65 384.25 767.538671875 382.6126953125 766.25 381.55 765.0001953125 380.4818359375 763.35 380.6
M 802.25 345
Q 803.3109375 346.293359375 804.95 346.45 806.5921875 346.6603515625 807.9 345.6 815.82578125 339.264453125 823.8 334.15 825.194140625 333.26796875 825.55 331.65 825.913671875 330.0427734375 825 328.65 824.1208984375 327.2548828125 822.5 326.9 820.8935546875 326.5392578125 819.5 327.4 811.17421875 332.735546875 802.9 339.35 801.6115234375 340.4109375 801.4 342.05 801.2396484375 343.697265625 802.25 345
M 1818.3 547
Q 1817.1517578125 548.194921875 1817.15 549.85
L 1817.15 569.85
Q 1817.1517578125 571.505078125 1818.3 572.65 1819.494921875 573.8482421875 1821.15 573.85 1822.805078125 573.8482421875 1823.95 572.65 1825.1482421875 571.505078125 1825.15 569.85
L 1825.15 549.85
Q 1825.1482421875 548.194921875 1823.95 547 1822.805078125 545.8517578125 1821.15 545.85 1819.494921875 545.8517578125 1818.3 547
M 1818.3 587
Q 1817.1517578125 588.194921875 1817.15 589.85
L 1817.15 609.85
Q 1817.1517578125 611.505078125 1818.3 612.65 1819.494921875 613.8482421875 1821.15 613.85 1822.805078125 613.8482421875 1823.95 612.65 1825.1482421875 611.505078125 1825.15 609.85
L 1825.15 589.85
Q 1825.1482421875 588.194921875 1823.95 587 1822.805078125 585.8517578125 1821.15 585.85 1819.494921875 585.8517578125 1818.3 587
M 1825.15 509.85
Q 1825.1482421875 508.194921875 1823.95 507 1822.805078125 505.8517578125 1821.15 505.85 1819.494921875 505.8517578125 1818.3 507 1817.1517578125 508.194921875 1817.15 509.85
L 1817.15 529.85
Q 1817.1517578125 531.505078125 1818.3 532.65 1819.494921875 533.8482421875 1821.15 533.85 1822.805078125 533.8482421875 1823.95 532.65 1825.1482421875 531.505078125 1825.15 529.85
L 1825.15 509.85
M 1537 762
Q 1537.0017578125 763.655078125 1538.15 764.8 1539.344921875 765.9982421875 1541 766
L 1561 766
Q 1562.655078125 765.9982421875 1563.8 764.8 1564.9982421875 763.655078125 1565 762 1564.9982421875 760.344921875 1563.8 759.15 1562.655078125 758.0017578125 1561 758
L 1541 758
Q 1539.344921875 758.0017578125 1538.15 759.15 1537.0017578125 760.344921875 1537 762
M 1483.8 759.15
Q 1482.655078125 758.0017578125 1481 758
L 1461 758
Q 1459.344921875 758.0017578125 1458.15 759.15 1457.0017578125 760.344921875 1457 762 1457.0017578125 763.655078125 1458.15 764.8 1459.344921875 765.9982421875 1461 766
L 1481 766
Q 1482.655078125 765.9982421875 1483.8 764.8 1484.9982421875 763.655078125 1485 762 1484.9982421875 760.344921875 1483.8 759.15
M 1498.15 759.15
Q 1497.0017578125 760.344921875 1497 762 1497.0017578125 763.655078125 1498.15 764.8 1499.344921875 765.9982421875 1501 766
L 1521 766
Q 1522.655078125 765.9982421875 1523.8 764.8 1524.9982421875 763.655078125 1525 762 1524.9982421875 760.344921875 1523.8 759.15 1522.655078125 758.0017578125 1521 758
L 1501 758
Q 1499.344921875 758.0017578125 1498.15 759.15
M 1443.8 759.15
Q 1442.655078125 758.0017578125 1441 758
L 1421 758
Q 1419.344921875 758.0017578125 1418.15 759.15 1417.0017578125 760.344921875 1417 762 1417.0017578125 763.655078125 1418.15 764.8 1419.344921875 765.9982421875 1421 766
L 1441 766
Q 1442.655078125 765.9982421875 1443.8 764.8 1444.9982421875 763.655078125 1445 762 1444.9982421875 760.344921875 1443.8 759.15
M 1403.8 759.15
Q 1402.655078125 758.0017578125 1401 758
L 1381 758
Q 1379.344921875 758.0017578125 1378.15 759.15 1377.0017578125 760.344921875 1377 762 1377.0017578125 763.655078125 1378.15 764.8 1379.344921875 765.9982421875 1381 766
L 1401 766
Q 1402.655078125 765.9982421875 1403.8 764.8 1404.9982421875 763.655078125 1405 762 1404.9982421875 760.344921875 1403.8 759.15
M 1363.8 759.15
Q 1362.655078125 758.0017578125 1361 758
L 1341 758
Q 1339.344921875 758.0017578125 1338.15 759.15 1337.0017578125 760.344921875 1337 762 1337.0017578125 763.655078125 1338.15 764.8 1339.344921875 765.9982421875 1341 766
L 1361 766
Q 1362.655078125 765.9982421875 1363.8 764.8 1364.9982421875 763.655078125 1365 762 1364.9982421875 760.344921875 1363.8 759.15
M 1483.8 303.15
Q 1482.655078125 302.0017578125 1481 302
L 1461 302
Q 1459.344921875 302.0017578125 1458.15 303.15 1457.0017578125 304.344921875 1457 306 1457.0017578125 307.655078125 1458.15 308.8 1459.344921875 309.9982421875 1461 310
L 1481 310
Q 1482.655078125 309.9982421875 1483.8 308.8 1484.9982421875 307.655078125 1485 306 1484.9982421875 304.344921875 1483.8 303.15
M 1537 306
Q 1537.0017578125 307.655078125 1538.15 308.8 1539.344921875 309.9982421875 1541 310
L 1561 310
Q 1562.655078125 309.9982421875 1563.8 308.8 1564.9982421875 307.655078125 1565 306 1564.9982421875 304.344921875 1563.8 303.15 1562.655078125 302.0017578125 1561 302
L 1541 302
Q 1539.344921875 302.0017578125 1538.15 303.15 1537.0017578125 304.344921875 1537 306
M 1523.8 303.15
Q 1522.655078125 302.0017578125 1521 302
L 1501 302
Q 1499.344921875 302.0017578125 1498.15 303.15 1497.0017578125 304.344921875 1497 306 1497.0017578125 307.655078125 1498.15 308.8 1499.344921875 309.9982421875 1501 310
L 1521 310
Q 1522.655078125 309.9982421875 1523.8 308.8 1524.9982421875 307.655078125 1525 306 1524.9982421875 304.344921875 1523.8 303.15
M 1403.8 303.15
Q 1402.655078125 302.0017578125 1401 302
L 1381 302
Q 1379.344921875 302.0017578125 1378.15 303.15 1377.0017578125 304.344921875 1377 306 1377.0017578125 307.655078125 1378.15 308.8 1379.344921875 309.9982421875 1381 310
L 1401 310
Q 1402.655078125 309.9982421875 1403.8 308.8 1404.9982421875 307.655078125 1405 306 1404.9982421875 304.344921875 1403.8 303.15
M 1443.8 303.15
Q 1442.655078125 302.0017578125 1441 302
L 1421 302
Q 1419.344921875 302.0017578125 1418.15 303.15 1417.0017578125 304.344921875 1417 306 1417.0017578125 307.655078125 1418.15 308.8 1419.344921875 309.9982421875 1421 310
L 1441 310
Q 1442.655078125 309.9982421875 1443.8 308.8 1444.9982421875 307.655078125 1445 306 1444.9982421875 304.344921875 1443.8 303.15
M 1363.8 303.15
Q 1362.655078125 302.0017578125 1361 302
L 1341 302
Q 1339.344921875 302.0017578125 1338.15 303.15 1337.0017578125 304.344921875 1337 306 1337.0017578125 307.655078125 1338.15 308.8 1339.344921875 309.9982421875 1341 310
L 1361 310
Q 1362.655078125 309.9982421875 1363.8 308.8 1364.9982421875 307.655078125 1365 306 1364.9982421875 304.344921875 1363.8 303.15 Z"/>
</g>

<g id="Layer5_1_FILL">
<path fill="#000000" stroke="none" d="
M 193.1 331.8
L 553.3 389.5 787.1 275.3 453.75 216.45 193.1 331.8
M 553.3 735.7
L 553.3 389.5 193.1 331.8 193.1 665.7 553.3 735.7
M 787.1 592.3
L 787.1 275.3 553.3 389.5 553.3 735.7 787.1 592.3 Z"/>
</g>

<g id="blue_button_0_Layer1_0_FILL">
<path fill="#000000" stroke="none" d="
M -0.6 95.3
L -0.6 169.65
Q -0.6 187.85 40.15 200.75 81 213.6 138.65 213.6 196.35 213.6 237.15 200.75 277.9 187.85 277.9 169.65
L 277.9 95.3
Q 277.55 113.35 237.15 126.15 196.35 139 138.65 139 81 139 40.15 126.15 -0.25 113.35 -0.6 95.3 Z"/>

<path fill="#171717" stroke="none" d="
M -0.6 95
L -0.6 95.3
Q -0.25 113.35 40.15 126.15 81 139 138.65 139 196.35 139 237.15 126.15 277.55 113.35 277.9 95.3
L 277.9 95
Q 277.9 76.8 237.15 63.85 196.35 50.95 138.65 50.95 81 50.95 40.15 63.85 -0.6 76.8 -0.6 95 Z"/>
</g>

<g id="blue_button_0_Layer0_0_FILL">
<path fill="#0033CC" stroke="none" d="
M 243.2 88.05
L 243.2 32.2
Q 242.95 45.75 212.55 55.4 181.95 65.05 138.6 65.05 95.3 65.05 64.65 55.4 34.3 45.75 34.05 32.2
L 34.05 88.05
Q 34.05 101.75 64.65 111.45 95.3 121.1 138.6 121.1 181.95 121.1 212.55 111.45 243.2 101.75 243.2 88.05
M 243.2 32.2
L 243.2 32
Q 243.2 18.3 212.55 8.6 181.95 -1.05 138.6 -1.05 95.3 -1.05 64.65 8.6 34.05 18.3 34.05 32
L 34.05 32.2
Q 34.3 45.75 64.65 55.4 95.3 65.05 138.6 65.05 181.95 65.05 212.55 55.4 242.95 45.75 243.2 32.2 Z"/>
</g>

<g id="Layer1_0_MEMBER_1_FILL">
<path fill="#00FF6B" stroke="none" d="
M 1992.1 331.9
Q 1992.1 328.65 1988.75 328.65 1983.9 328.65 1983.9 331.9
L 1983.9 343 1978.6 343.3 1978.6 331.9
Q 1978.6 328.65 1975.25 328.65 1970.4 328.65 1970.4 331.9
L 1970.4 344.5
Q 1961.75 346.95 1955.2 354.15 1946.4 363.5 1946.4 377.15 1946.4 390.6 1955.2 400.3 1961.35 407.2 1970.4 409.95
L 1970.4 458.45 1969.25 458.15
Q 1960.75 456.85 1957.5 451.55
L 1954.9 445.25 1954.6 434.55
Q 1954.9 433.7 1954.6 433.25 1954.6 428.55 1949.3 428.55 1946.1 428.55 1946.1 433.25
L 1946.1 458.45 1953 463
Q 1961.2 466.5 1970.4 467.55
L 1970.4 477.05
Q 1970.4 481.75 1974.35 481.75 1978.6 481.75 1978.6 477.05
L 1978.6 468.1 1983.9 467.8 1983.9 477.05
Q 1983.9 481.75 1988 481.75 1992.1 481.75 1992.1 477.05
L 1992.1 466.35
Q 2001.6 463.45 2009.1 457 2023 445.25 2023 430.05 2023 414.05 2011.85 403.95 2003.8 396.5 1992.1 393.7
L 1992.1 350.5 1992.4 350.8 1999.85 354.15
Q 2007.35 359.7 2007.35 368.5
L 2006.75 370.1
Q 2006.45 370.85 2007.05 371.15 2006.75 374.2 2010.55 374.2 2014.5 374.2 2014.5 371.15
L 2014.5 348.75
Q 2006.45 344.9 2001.3 344.2
L 1992.4 343 1992.1 343 1992.1 331.9
M 1978.6 349.6
L 1983.9 349.6 1983.9 392.55
Q 1982.45 392.4 1981.25 392.25 1980.1 392.1 1978.6 391.95
L 1978.6 349.6
M 1958.1 370.85
Q 1958.1 362.5 1963.55 356.2 1966.15 353.1 1970.4 351.65
L 1970.4 389.75 1963.8 385.35
Q 1958.1 379.35 1958.1 370.85
M 2001.9 418.9
Q 2008.8 425.2 2008.8 434.55 2008.8 443.5 2001.9 450.95 1998.85 454.35 1992.1 457
L 1992.1 413.75
Q 1998.1 415.25 2001.9 418.9
M 1978.6 411.4
L 1983.9 412.3 1983.9 458.45 1978.6 458.75 1978.6 411.4 Z"/>
</g>

<g id="Layer1_1_FILL">
<path fill="#000000" stroke="none" d="
M 1074.3 740.2
L 1090.3 740.2 1090.3 804.2 1074.3 932.25 1119.3 932.25 1133.3 844.2 1147.3 932.25 1192.3 932.25 1176.3 804.2 1176.3 740.2 1192.3 740.2 1200.3 802.2 1224.35 802.2 1208.35 690.15 1054.25 690.15 1042.25 802.2 1066.3 802.2 1074.3 740.2
M 1130.5 610.1
Q 1116.5 610.1 1106.6 619.95 1096.75 629.85 1096.75 643.85 1096.75 657.85 1106.6 667.7 1116.5 677.6 1130.5 677.6 1144.5 677.6 1154.35 667.7 1164.25 657.85 1164.25 643.85 1164.25 629.85 1154.35 619.95 1144.5 610.1 1130.5 610.1 Z"/>
</g>

<path id="Layer10_0_1_STROKES" stroke="#FFFFFF" stroke-opacity="0.3764705882352941" stroke-width="3" stroke-linejoin="round" stroke-linecap="round" fill="none" d="
M -66.25 -156.75
Q -2.1 -160.85 81.1 -160.65 145.8 -160.45 246.9 -157.6 304.2 -156 422 -152.5 557.4 -149 713.25 -157.95 753.3 -160.2 825 -164.55 884.15 -167.7 950 -161.75
L 1172 -141.7
Q 1273.25 -125.9 1319 -127.95 1359.6 -129.75 1385.15 -129.2 1434.4 -128.2 1472 -120.05 1519.7 -136.7 1567.4 -120.05 1596.2 -115.35 1619.45 -106.5 1642.65 -97.65 1660.3 -92.25 1677.9 -86.9 1717.55 -100.35 1757.2 -113.9 1802.7 -107.15 2133.15 -112.7 2210.95 -120.4 2278.25 -127.05 2328.6 -114.25"/>

<path id="Layer9_0_1_STROKES" stroke="#FFFFFF" stroke-width="6" stroke-linejoin="round" stroke-linecap="round" fill="none" d="
M -66.25 -105.75
Q -45.05 -109.1 -24.65 -112.55 67.1 -128.25 180 -131.4 414.25 -138 564 -125.65 713.7 -113.3 796.65 -121.65 852.2 -126.3 880 -123.5 1142.95 -97.55 1283.1 -103.65 1423.198046875 -109.846484375 1526.025 -85.875 1628.85546875 -61.9109375 1650.925 -62.45 1672.992578125 -62.985546875 1758.8 -75.8 1848.85 -80.3 1934.85 -76.35 2020.8 -72.4 2071.35 -78.9 2121.85 -85.4 2167.95 -79.95 2279.85 -78.7 2328.6 70.7"/>

<path id="Layer7_0_1_STROKES" stroke="#999999" stroke-width="8" stroke-linejoin="round" stroke-linecap="round" fill="none" d="
M 1708.2 202.75
L 1944.3 202.75
Q 1964.3 202.75 1964.3 222.75
L 1964.3 391.55
Q 1964.3 411.55 1944.3 411.55
L 1708.2 411.55
Q 1688.2 411.55 1688.2 391.55
L 1688.2 222.75
Q 1688.2 202.75 1708.2 202.75 Z"/>

<path id="Layer5_0_1_STROKES" stroke="#999999" stroke-width="8" stroke-linejoin="round" stroke-linecap="round" fill="none" d="
M 1571.4 330.9
L 1615.2 304.55 1569.7 283.4
M 1571.4 786.9
L 1615.2 760.55 1569.7 739.4
M 1846 512.5
L 1819.7 468.7 1798.55 514.25
M 912.9 330.1
L 956.7 303.75 911.2 282.6
M 914.9 787.1
L 958.7 760.75 913.2 739.6"/>

<path id="Layer5_1_1_STROKES" stroke="#FFFFFF" stroke-width="4" stroke-linejoin="round" stroke-linecap="round" fill="none" d="
M 594.7778366088868 395.2485305786133
L 594.7778366088868 628.6500350952149 422.63502349853513 734.2329238891602 157.42612152099608 682.6931594848634 157.42612152099608 436.84848327636723 349.3381156921387 351.91831436157224 594.7778366088868 395.2485305786133 Z
M 594.7778366088868 395.2485305786133
L 422.63502349853513 479.3319747924805 422.63502349853513 734.2329238891602
M 157.42612152099608 436.84848327636723
L 422.63502349853513 479.3319747924805"/>

<path id="blue_button_0_Layer1_0_1_STROKES" stroke="#999999" stroke-width="6" stroke-linejoin="round" stroke-linecap="round" fill="none" d="
M -0.6 95.3
L -0.6 95
Q -0.6 76.8 40.15 63.85 81 50.95 138.65 50.95 196.35 50.95 237.15 63.85 277.9 76.8 277.9 95
L 277.9 95.3 277.9 169.65
Q 277.9 187.85 237.15 200.75 196.35 213.6 138.65 213.6 81 213.6 40.15 200.75 -0.6 187.85 -0.6 169.65
L -0.6 95.3
Q -0.25 113.35 40.15 126.15 81 139 138.65 139 196.35 139 237.15 126.15 277.55 113.35 277.9 95.3"/>

<path id="blue_button_0_Layer0_0_1_STROKES" stroke="#999999" stroke-width="6" stroke-linejoin="round" stroke-linecap="round" fill="none" d="
M 34.05 32.2
L 34.05 32
Q 34.05 18.3 64.65 8.6 95.3 -1.05 138.6 -1.05 181.95 -1.05 212.55 8.6 243.2 18.3 243.2 32
L 243.2 32.2 243.2 88.05
Q 243.2 101.75 212.55 111.45 181.95 121.1 138.6 121.1 95.3 121.1 64.65 111.45 34.05 101.75 34.05 88.05
L 34.05 32.2
Q 34.3 45.75 64.65 55.4 95.3 65.05 138.6 65.05 181.95 65.05 212.55 55.4 242.95 45.75 243.2 32.2"/>

<path id="Layer1_0_MEMBER_0_1_STROKES" stroke="#00FF6B" stroke-width="8" stroke-linejoin="miter" stroke-linecap="round" stroke-miterlimit="3" fill="none" d="
M 1875.65 345
L 1831.45 394.8 1856.35 394.8 1856.35 457.05 1893.7 457.05 1893.7 394.8 1918.6 394.8 1875.65 345 Z"/>

<path id="Layer1_1_1_STROKES" stroke="#999999" stroke-width="8" stroke-linejoin="round" stroke-linecap="round" fill="none" d="
M 1164.25 643.85
Q 1164.25 657.85 1154.35 667.7 1144.5 677.6 1130.5 677.6 1116.5 677.6 1106.6 667.7 1096.75 657.85 1096.75 643.85 1096.75 629.85 1106.6 619.95 1116.5 610.1 1130.5 610.1 1144.5 610.1 1154.35 619.95 1164.25 629.85 1164.25 643.85 Z
M 1208.35 690.15
L 1054.25 690.15 1042.25 802.2 1066.3 802.2 1074.3 740.2 1090.3 740.2 1090.3 804.2 1074.3 932.25 1119.3 932.25 1133.3 844.2 1147.3 932.25 1192.3 932.25 1176.3 804.2 1176.3 740.2 1192.3 740.2 1200.3 802.2 1224.35 802.2 1208.35 690.15 Z"/>
</defs>

<g transform="matrix( 1, 0, 0, 1, 0,0) ">
<use xlink:href="#Layer11_0_FILL"/>
</g>

<g transform="matrix( 1, 0, 0, 1, 0,0) ">
<use xlink:href="#Layer10_0_1_STROKES"/>
</g>

<g transform="matrix( 1, 0, 0, 1, 0,0) ">
<use xlink:href="#Layer9_0_FILL"/>

<use xlink:href="#Layer9_0_1_STROKES"/>
</g>

<g transform="matrix( 1, 0, 0, 1, 0,0) ">
<use xlink:href="#Layer7_0_FILL"/>

<use xlink:href="#Layer7_0_1_STROKES"/>
</g>

<g transform="matrix( 1, 0, 0, 1, 0,0) ">
<use xlink:href="#Layer5_0_1_STROKES"/>

<use xlink:href="#Layer5_0_STROKES_1_FILL"/>
</g>

<g transform="matrix( 0.7362823486328125, 0, 0, 0.7362823486328125, 15.25,192.55) ">
<use xlink:href="#Layer5_1_FILL"/>

<use xlink:href="#Layer5_1_1_STROKES" transform="matrix( 1.3581695556640625, 0, 0, 1.3581695556640625, -20.7,-261.5) "/>
</g>

<g transform="matrix( 1, 0, 0, 1, 1007.4,188.95) ">
<g transform="matrix( 1, 0, 0, 1, 0,0) ">
<use xlink:href="#blue_button_0_Layer1_0_FILL"/>

<use xlink:href="#blue_button_0_Layer1_0_1_STROKES"/>
</g>

<g transform="matrix( 1, 0, 0, 1, 0,0) ">
<use xlink:href="#blue_button_0_Layer0_0_FILL"/>

<use xlink:href="#blue_button_0_Layer0_0_1_STROKES"/>
</g>
</g>

<g transform="matrix( 1, 0, 0, 1, 1685.8,654.8) ">
<g transform="matrix( 1, 0, 0, 1, 0,0) ">
<use xlink:href="#blue_button_0_Layer1_0_FILL"/>

<use xlink:href="#blue_button_0_Layer1_0_1_STROKES"/>
</g>

<g transform="matrix( 1, 0, 0, 1, 0,0) ">
<use xlink:href="#blue_button_0_Layer0_0_FILL"/>

<use xlink:href="#blue_button_0_Layer0_0_1_STROKES"/>
</g>
</g>

<g transform="matrix( 1, 0, 0, 1, -104.75,-96.15) ">
<use xlink:href="#Layer1_0_MEMBER_0_1_STROKES"/>
</g>

<g transform="matrix( 1, 0, 0, 1, -104.75,-96.15) ">
<use xlink:href="#Layer1_0_MEMBER_1_FILL"/>
</g>

<g transform="matrix( 1, 0, 0, 1, 12.75,-40) ">
<use xlink:href="#Layer1_1_FILL"/>

<use xlink:href="#Layer1_1_1_STROKES"/>
</g>
</svg>
