
<svg xmlns="http://www.w3.org/2000/svg" version="1.1" xmlns:xlink="http://www.w3.org/1999/xlink" preserveAspectRatio="none" x="0px" y="0px" width="2196px" height="1100px" viewBox="0 0 2196 1100">
<defs>
<linearGradient id="Gradient_1" gradientUnits="userSpaceOnUse" x1="1090.55" y1="320.2375" x2="1090.55" y2="11.762499999999989" spreadMethod="pad">
<stop  offset="0%" stop-color="#000000" stop-opacity="0"/>

<stop  offset="100%" stop-color="#000000"/>
</linearGradient>

<radialGradient id="Gradient_2" gradientUnits="userSpaceOnUse" cx="0" cy="0" r="608.8" fx="0" fy="0" gradientTransform="matrix( 0, 1.0000000000000002, -14.879332293035482, 0, 1167.2,982.95) " spreadMethod="pad">
<stop  offset="0%" stop-color="#000000"/>

<stop  offset="100%" stop-color="#001D2D"/>
</radialGradient>

<g id="Layer12_0_FILL">
<path fill="url(#Gradient_1)" stroke="none" d="
M 2251.25 674.65
L 2251.25 -13.85 -70.15 -13.85 -70.15 674.65 2251.25 674.65 Z"/>
</g>

<g id="Layer11_0_FILL">
<path fill="url(#Gradient_2)" stroke="none" d="
M 2216 471.45
Q 2215 471.3 2214 471.1 2213.7 471.05 2213.4 471 2211.7 470.7 2210 470.4 2019.8 436.55 1810.55 415.35 1458.7 379.7 1053.35 379.7 648.1 379.7 296.45 415.35 135.6 431.6 -14 455.4 -16 455.7 -18 456.05 -19 456.2 -20 456.4 -55.85 462.05 -91.05 468.25 -295.3 504 -477.8 554.2 -618 592.8 -740.5 671.25 -847.45 739.85 -933.4 833.75 -1008.2 915.5 -1056.55 1004.1 -1099.95 1083.7 -1109.95 1144.9
L 3216.65 1144.9
Q 3201.95 1114.8 3173.65 1067.95 3117.1 974.25 3049.3 890.5 2954.4 773.2 2850.6 692.55 2720.85 591.7 2584.55 554.2 2561.15 547.75 2537.4 541.6 2475.25 525.35 2410.6 510.75 2315.95 489.3 2216 471.45 Z"/>
</g>

<g id="Layer9_0_FILL">
<path fill="#333333" stroke="none" d="
M 716.3 790.8
Q 737.5 785.9 792.75 787.2 820.75 787.85 848.55 789.5 849.9 789.5 861.3 787.55 875.45 785.15 885.9 783.9 923.35 779.4 946.8 784.25 970.5 789.15 1007.55 778.65 1026 773.45 1041.75 771.45
L 1063.65 771.45
Q 1089.2 776.05 1097.4 777.7 1102.8 778.75 1122.75 775 1144.65 770.8 1165.65 763.8 1174.05 761 1181.25 758.05 1195.95 752.05 1211.7 743.5 1227.45 734.95 1228.95 718.9 1230.4 702.85 1216.4 694.7 1202.344921875 686.5560546875 1194.7 682.45 1187.0615234375 678.328125 1183.55 674.2 1180.048046875 670.1310546875 1175.9 668.95 1171.7455078125 667.8078125 1152.95 654.1 1134.15234375 640.4484375 1125.9 639.25 1117.6 638 1106.45 635.5 1095.25 633 1075.2 629.65 1055.15 626.25 1041.1 622.5 1027.05 618.7 1011.95 620 996.8 621.3 973.25 615.8 949.65 610.25 927.85 610.5 906.05 610.7 845.3 597.95 828.8 590.6 816.95 590.25 823.1 597.6 831.15 603.5 848.3 615.95 856.1 625.35 859.75 629.75 862.8 635.1 865.1 639.15 868.5 646.35 873.75 657.5 882.5 662.65 887.6 665.6 898.95 668.35 910.35 671.1 916.95 676.15 923.45 681.15 922.65 686.4 921.85 692.05 912.65 696.05 902.3 700.5 883.3 701.9 871.8 702.7 818.5 712.65 765.2 722.6 729.6 726.85 693.95 731 623.6 725.2 560.5 720 516.35 713.95 442.5 703.8 431.2 692.7 426.15 687.8 410.65 681.35 406.5 679.65 398 676.2 390.85 673.2 386.65 670.9 375.3 664.75 376.2 658.4 377.3 650.6 396.45 640.8 421.45 623.9 439.75 611.5
L 403.85 618.6
Q 398.35 620.3 389.35 622.65 371.45 627.35 354.3 630.65 346.2 632.2 331.35 633.95 314.35 635.95 308.35 636.9 277.35 641.8 267.8 644.75 262.25 646.45 238.6 657.2 231.3 660.5 227.05 674.25 223.8 684.8 222.6 700.45 221.65 712.65 233.55 723.5 244.15 733.2 267.1 743.65 286.9 752.65 310.5 758.05 311.95 758.4 313.4 758.7 337.15 763.9 366.65 765.9 388.1 767.4 418.2 772.15 445.25 776.4 449.15 776.4 459.95 776.4 477.15 779.5 501.25 783.85 531.65 793.4 559.3 802.1 590.25 799.6 594.3 799.3 612.7 797.1 624.7 795.65 631.2 796 654.05 797.35 669.3 796.85 693.7 796 716.3 790.8
M 668.05 489.8
Q 656.4 485.85 651.55 484.65 643.8 482.75 641.5 484.15 640.55 484.75 609.95 506 582.3 525.2 577.65 527.05 573.55 528.7 562.55 542.2 556.7 549.4 554.55 551.8 550.45 556.35 548.15 557.4 544.7 559 519.75 565.95 494.05 573.9 483.3 581.5 472 589.5 439.75 611.5 421.45 623.9 396.45 640.8 377.3 650.6 376.2 658.4 375.3 664.75 386.65 670.9 390.85 673.2 398 676.2 406.5 679.65 410.65 681.35 426.15 687.8 431.2 692.7 442.5 703.8 516.35 713.95 560.5 720 623.6 725.2 693.95 731 729.6 726.85 765.2 722.6 818.5 712.65 871.8 702.7 883.3 701.9 902.3 700.5 912.65 696.05 921.85 692.05 922.65 686.4 923.45 681.15 916.95 676.15 910.35 671.1 898.95 668.35 887.6 665.6 882.5 662.65 873.75 657.5 868.5 646.35 865.1 639.15 862.8 635.1 859.75 629.75 856.1 625.35 848.3 615.95 831.15 603.5 823.1 597.6 816.95 590.25 813.8 586.5 807.85 577.7 802.8 570.25 799.1 566.55 793.6 560.95 785.95 557.4 770.5 550.2 760.8 544.2 754.6 540.35 740.75 530.2 735.85 526.6 729.9 520.15 723.4 512.65 720.25 509.25 714.85 503.35 710.75 500.8 705.55 497.4 700.5 497.75 695.55 498.1 686 495.5 680.55 494 668.05 489.8 Z"/>
</g>

<g id="Layer6_0_FILL">
<path fill="#000000" stroke="none" d="
M 1748.2 443.6
L 1872.8 396.8 1708.95 371.65 1551.75 412.85 1748.2 443.6
M 1871.35 569.05
L 1872.8 396.8 1748.2 443.6 1748.2 638.7 1871.35 569.05
M 1551.75 412.85
L 1551.75 580.55 1748.2 638.7 1748.2 443.6 1551.75 412.85 Z"/>
</g>

<g id="Layer3_0_STROKES_1_FILL">
<path fill="#FFFFFF" fill-opacity="0.3764705882352941" stroke="none" d="
M 1185.25 684.8
Q 1183.6640625 685.2623046875 1182.8 686.7 1182.0068359375 688.1470703125 1182.45 689.75 1182.87265625 691.344921875 1184.3 692.15 1185.7380859375 693.0037109375 1187.3 692.55
L 1197 689.95
Q 1198.6359375 689.5376953125 1199.45 688.1 1200.293359375 686.652734375 1199.85 685.05 1199.42734375 683.455078125 1198 682.6 1196.5619140625 681.7962890625 1194.95 682.2
L 1185.25 684.8
M 1168.95 690.4
Q 1167.5404296875 689.6078125 1165.95 690.05
L 1156.35 692.65
Q 1154.755078125 693.0865234375 1153.9 694.5 1153.106640625 695.9599609375 1153.55 697.55 1153.985546875 699.1453125 1155.4 699.95 1156.8595703125 700.7921875 1158.45 700.35
L 1168.05 697.75
Q 1169.644921875 697.3134765625 1170.45 695.85 1171.293359375 694.4400390625 1170.85 692.85 1170.414453125 691.2546875 1168.95 690.4
M 1284.75 658.9
Q 1283.3404296875 658.1078125 1281.75 658.55
L 1272.15 661.15
Q 1270.555078125 661.5865234375 1269.7 663 1268.906640625 664.4599609375 1269.35 666.05 1269.785546875 667.6453125 1271.2 668.45 1272.6595703125 669.2921875 1274.25 668.85
L 1283.85 666.25
Q 1285.444921875 665.8134765625 1286.25 664.35 1287.093359375 662.9400390625 1286.65 661.35 1286.214453125 659.7546875 1284.75 658.9
M 1243.15 669
Q 1241.5640625 669.4623046875 1240.7 670.9 1239.9068359375 672.3470703125 1240.35 673.95 1240.77265625 675.544921875 1242.2 676.35 1243.6380859375 677.2037109375 1245.2 676.75
L 1254.9 674.15
Q 1256.5359375 673.7376953125 1257.35 672.3 1258.193359375 670.852734375 1257.75 669.25 1257.32734375 667.655078125 1255.9 666.8 1254.4619140625 665.9962890625 1252.85 666.4
L 1243.15 669
M 1226.85 674.7
Q 1225.4404296875 673.9078125 1223.85 674.35
L 1214.25 676.95
Q 1212.655078125 677.3865234375 1211.8 678.8 1211.006640625 680.2599609375 1211.45 681.85 1211.885546875 683.4453125 1213.3 684.25 1214.7595703125 685.0921875 1216.35 684.65
L 1225.95 682.05
Q 1227.544921875 681.6134765625 1228.35 680.15 1229.193359375 678.7400390625 1228.75 677.15 1228.314453125 675.5546875 1226.85 674.7
M 1313.65 651.1
Q 1312.2404296875 650.3078125 1310.65 650.75
L 1301.05 653.35
Q 1299.455078125 653.7865234375 1298.6 655.2 1297.806640625 656.6599609375 1298.25 658.25 1298.685546875 659.8453125 1300.1 660.65 1301.5595703125 661.4921875 1303.15 661.05
L 1312.75 658.45
Q 1314.344921875 658.0134765625 1315.15 656.55 1315.993359375 655.1400390625 1315.55 653.55 1315.114453125 651.9546875 1313.65 651.1
M 1371.45 635.4
Q 1370.0404296875 634.6078125 1368.45 635.05
L 1358.85 637.65
Q 1357.255078125 638.0865234375 1356.4 639.5 1355.606640625 640.9599609375 1356.05 642.55 1356.485546875 644.1453125 1357.9 644.95 1359.3595703125 645.7921875 1360.95 645.35
L 1370.55 642.75
Q 1372.144921875 642.3134765625 1372.95 640.85 1373.793359375 639.4400390625 1373.35 637.85 1372.914453125 636.2546875 1371.45 635.4
M 1342.55 643.2
Q 1341.1404296875 642.4078125 1339.55 642.85
L 1329.95 645.45
Q 1328.355078125 645.8865234375 1327.5 647.3 1326.706640625 648.7599609375 1327.15 650.35 1327.585546875 651.9453125 1329 652.75 1330.4595703125 653.5921875 1332.05 653.15
L 1341.65 650.55
Q 1343.244921875 650.1134765625 1344.05 648.65 1344.893359375 647.2400390625 1344.45 645.65 1344.014453125 644.0546875 1342.55 643.2
M 1387.75 629.75
Q 1386.155078125 630.1865234375 1385.3 631.6 1384.506640625 633.0599609375 1384.95 634.65 1385.385546875 636.2453125 1386.8 637.05 1388.2595703125 637.8921875 1389.85 637.45
L 1399.45 634.85
Q 1401.044921875 634.4134765625 1401.85 632.95 1402.693359375 631.5400390625 1402.25 629.95 1401.814453125 628.3546875 1400.35 627.5 1398.9404296875 626.7078125 1397.35 627.15
L 1387.75 629.75
M 1429.25 619.6
Q 1427.8404296875 618.8078125 1426.25 619.25
L 1416.65 621.85
Q 1415.055078125 622.2865234375 1414.2 623.7 1413.406640625 625.1599609375 1413.85 626.75 1414.285546875 628.3453125 1415.7 629.15 1417.1595703125 629.9921875 1418.75 629.55
L 1428.35 626.95
Q 1429.944921875 626.5134765625 1430.75 625.05 1431.593359375 623.6400390625 1431.15 622.05 1430.714453125 620.4546875 1429.25 619.6 Z"/>
</g>

<g id="Layer1_0_FILL">
<path fill="#000000" stroke="none" d="
M 1108.25 697
L 1109.15 741.55 1139.75 717.95 1139.75 676.45 1108.25 697
M 1109.15 741.55
L 1108.25 697 1062 683.85 1062 727.55 1109.15 741.55
M 1097.8 665.6
L 1062 683.85 1108.25 697 1139.75 676.45 1097.8 665.6 Z"/>
</g>

<g id="Layer0_0_FILL">
<path fill="#000000" stroke="none" d="
M 1002.85 715.4
L 1025 700.95 995.5 693.3 970.35 706.15 1002.85 715.4
M 1025 730.1
L 1025 700.95 1002.85 715.4 1003.5 746.7 1025 730.1
M 970.35 706.15
L 970.35 736.85 1003.5 746.7 1002.85 715.4 970.35 706.15 Z"/>
</g>

<path id="Layer11_0_1_STROKES" stroke="#FFFFFF" stroke-width="1" stroke-linejoin="round" stroke-linecap="round" fill="none" d="
M -1109.95 1144.9
Q -1099.95 1083.7 -1056.55 1004.1 -1008.2 915.5 -933.4 833.75 -847.45 739.85 -740.5 671.25 -618 592.8 -477.8 554.2 -295.3 504 -91.05 468.25 -55.85 462.05 -20 456.4 -19 456.2 -18 456.05 -16 455.7 -14 455.4 135.6 431.6 296.45 415.35 648.1 379.7 1053.35 379.7 1458.7 379.7 1810.55 415.35 2019.8 436.55 2210 470.4 2211.7 470.7 2213.4 471 2213.7 471.05 2214 471.1 2215 471.3 2216 471.45 2315.95 489.3 2410.6 510.75 2475.25 525.35 2537.4 541.6 2561.15 547.75 2584.55 554.2 2720.85 591.7 2850.6 692.55 2954.4 773.2 3049.3 890.5 3117.1 974.25 3173.65 1067.95 3201.95 1114.8 3216.65 1144.9"/>

<path id="Layer10_0_1_STROKES" stroke="#FFFFFF" stroke-opacity="0.3764705882352941" stroke-width="3" stroke-linejoin="round" stroke-linecap="round" fill="none" d="
M 854.95 601.9
Q 911.6 613.05 935.95 613.7 960.25 614.35 994.35 615 1028.45 615.65 1044.6 618.3 1063.6 621.5 1089.85 624.55 1104.55 626.2 1116 628.8 1127.4 631.4 1148.75 639.55 1170.05 647.65 1177.1 651.45 1184.1 655.2 1209.85 668.55 1235.6 681.85 1238 683.5 1246.85 689.3 1246.85 691.6 1246.85 693.65 1252.95 696.75 1263.45 702.05 1266.4 704 1286.1 716.7 1287 739.55 1287.5 752.75 1267.4 765.5 1256.15 772.6 1239.5 779.05 1231.3 782.2 1221.75 785.2 1197.9 792.75 1173.05 797.25 1150.4 801.3 1122.9 798.3 1095.4 795.3 1076.25 795.95 1057.1 796.6 1028.6 804.55 1000.1 812.5 973.2 807.25 946.55 802 904.05 806.85 892.15 808.2 876.1 810.8 863.15 812.9 861.6 812.9 830.05 811.1 798.25 810.4 735.5 809.05 711.4 814.3 685.75 819.9 658.05 820.8 640.7 821.35 614.75 819.9 607.4 819.55 593.75 821.1 572.85 823.45 568.25 823.8 533.1 826.5 501.7 817.1 467.2 806.8 439.8 802.15 420.3 798.8 408 798.8 403.6 798.8 372.85 794.2 338.7 789.1 314.3 787.45 280.8 785.35 253.85 779.75 252.2 779.4 250.55 779.05 223.75 773.25 201.25 763.5 175.2 752.25 163.15 741.8 149.65 730.15 150.7 717.05 151.85 702.65 161.55 683.15 171.6 662.95 180.45 659.2 190.4 654.9 195.75 651.05 199.6 647.75 201.25 646.85 203.65 645.55 210.1 645.3 215.1 645.1 231.8 640.7 248.5 636.35 268 635.4 287.5 634.5 300.65 631.75 313.8 628.95 321 627.3 335.2 623.95 348.5 623.95 361.85 623.95 379 620.2 388.75 618 410.8 616 432.85 613.9 448.5 611.9 464.15 609.9 484 603.9 503.85 597.9 523.7 598.75 551.45 600 592.45 600 633.35 600 680.95 600.15 713.45 599.9 747.15 597.2 764.45 595.75 779.35 595.95 788.4 596.1 802.9 597.2 817.45 598.25 825.3 598.35 838.85 598.6 854.95 601.9 Z"/>

<path id="Layer9_0_1_STROKES" stroke="#FFFFFF" stroke-width="6" stroke-linejoin="round" stroke-linecap="round" fill="none" d="
M 845.3 597.95
Q 906.05 610.7 927.85 610.5 949.65 610.25 973.25 615.8 996.8 621.3 1011.95 620 1027.05 618.7 1041.1 622.5 1055.15 626.25 1075.2 629.65 1095.25 633 1106.45 635.5 1117.6 638 1125.9 639.25 1134.15234375 640.4484375 1152.95 654.125 1171.7455078125 667.8078125 1175.9 668.975 1180.048046875 670.1310546875 1183.55 674.225 1187.0615234375 678.328125 1194.7 682.45 1202.344921875 686.5560546875 1216.4 694.7 1230.4 702.85 1228.95 718.9 1227.45 734.95 1211.7 743.5 1195.95 752.05 1181.25 758.05 1174.05 761 1165.65 763.8 1144.65 770.8 1122.75 775 1102.8 778.75 1097.4 777.7 1089.2 776.05 1063.65 771.45
L 1041.75 771.45
Q 1026 773.45 1007.55 778.65 970.5 789.15 946.8 784.25 923.35 779.4 885.9 783.9 875.45 785.15 861.3 787.55 849.9 789.5 848.55 789.5 820.75 787.85 792.75 787.2 737.5 785.9 716.3 790.8 693.7 796 669.3 796.85 654.05 797.35 631.2 796 624.7 795.65 612.7 797.1 594.3 799.3 590.25 799.6 559.3 802.1 531.65 793.4 501.25 783.85 477.15 779.5 459.95 776.4 449.15 776.4 445.25 776.4 418.2 772.15 388.1 767.4 366.65 765.9 337.15 763.9 313.4 758.7 311.95 758.4 310.5 758.05 286.9 752.65 267.1 743.65 244.15 733.2 233.55 723.5 221.65 712.65 222.6 700.45 223.8 684.8 227.05 674.25 231.3 660.5 238.6 657.2 262.25 646.45 267.8 644.75 277.35 641.8 308.35 636.9 314.35 635.95 331.35 633.95 346.2 632.2 354.3 630.65 371.45 627.35 389.35 622.65 398.35 620.3 403.85 618.6
L 439.75 611.5
Q 472 589.5 483.3 581.5 494.05 573.9 519.75 565.95 544.7 559 548.15 557.4 550.45 556.35 554.55 551.8 556.7 549.4 562.55 542.2 573.55 528.7 577.65 527.05 582.3 525.2 609.95 506 640.55 484.75 641.5 484.15 643.8 482.75 651.55 484.65 656.4 485.85 668.05 489.8 680.55 494 686 495.5 695.55 498.1 700.5 497.75 705.55 497.4 710.75 500.8 714.85 503.35 720.25 509.25 723.4 512.65 729.9 520.15 735.85 526.6 740.75 530.2 754.6 540.35 760.8 544.2 770.5 550.2 785.95 557.4 793.6 560.95 799.1 566.55 802.8 570.25 807.85 577.7 813.8 586.5 816.95 590.25 828.8 590.6 845.3 597.95 Z"/>

<path id="Layer9_0_2_STROKES" stroke="#FFFFFF" stroke-width="3" stroke-linejoin="round" stroke-linecap="round" fill="none" d="
M 816.95 590.25
Q 823.1 597.6 831.15 603.5 848.3 615.95 856.1 625.35 859.75 629.75 862.8 635.1 865.1 639.15 868.5 646.35 873.75 657.5 882.5 662.65 887.6 665.6 898.95 668.35 910.35 671.1 916.95 676.15 923.45 681.15 922.65 686.4 921.85 692.05 912.65 696.05 902.3 700.5 883.3 701.9 871.8 702.7 818.5 712.65 765.2 722.6 729.6 726.85 693.95 731 623.6 725.2 560.5 720 516.35 713.95 442.5 703.8 431.2 692.7 426.15 687.8 410.65 681.35 406.5 679.65 398 676.2 390.85 673.2 386.65 670.9 375.3 664.75 376.2 658.4 377.3 650.6 396.45 640.8 421.45 623.9 439.75 611.5"/>

<path id="Layer7_0_1_STROKES" stroke="#FFFFFF" stroke-opacity="0.4196078431372549" stroke-width="3" stroke-linejoin="round" stroke-linecap="round" fill="none" d="
M 1596.3 546.5
Q 1575.85 549.15 1555.45 554.5 1514.55 565.2 1514.6 578.8 1514.65 592.5 1617.4 628.65 1650.75 640.4 1688.55 652.25 1720.35 662.2 1721.85 662.2 1722.65 662.2 1728.75 663.5 1735.45 664.9 1741.15 665.35 1760.4 666.5 1779.7 657.15 1812.4 641.45 1856.15 614.45 1909.25 581.65 1909.25 572.05 1909.25 561.65 1887.4 553.5 1866.85 545.85 1843.15 545.5"/>

<path id="Layer7_0_2_STROKES" stroke="#FFFFFF" stroke-opacity="0.24705882352941178" stroke-width="3" stroke-linejoin="round" stroke-linecap="round" fill="none" d="
M 1570.7 539.2
Q 1545.75 542.65 1520.8 549.6 1470.85 563.55 1470.9 581.25 1471 599.1 1596.5 646.15 1637.25 661.45 1683.4 676.85 1722.25 689.8 1724.1 689.8 1725.05 689.8 1732.5 691.5 1740.7 693.3 1747.65 693.9 1771.2 695.4 1794.75 683.25 1834.7 662.8 1888.15 627.65 1953 584.95 1953 572.45 1953 558.95 1926.3 548.3 1901.2 538.35 1872.25 537.9"/>

<path id="Layer6_0_1_STROKES" stroke="#FFFFFF" stroke-width="6" stroke-linejoin="round" stroke-linecap="butt" fill="none" d="
M 1551.75 580.55
L 1551.75 412.85 1708.95 371.65 1872.8 396.8 1871.35 569.05"/>

<path id="Layer6_0_2_STROKES" stroke="#FFFFFF" stroke-width="4" stroke-linejoin="round" stroke-linecap="round" fill="none" d="
M 1748.2 638.7
L 1748.2 443.6 1551.75 412.85
M 1872.8 396.8
L 1748.2 443.6"/>

<path id="Layer3_0_1_STROKES" stroke="#FFFFFF" stroke-opacity="0.38823529411764707" stroke-width="8" stroke-linejoin="round" stroke-linecap="round" fill="none" d="
M 1436.8 635.65
L 1456.5 612.9 1423.5 607.3"/>

<path id="Layer1_0_1_STROKES" stroke="#FFFFFF" stroke-width="4" stroke-linejoin="round" stroke-linecap="round" fill="none" d="
M 1139.75 676.45
L 1097.8 665.6 1062 683.85 1108.25 697 1139.75 676.45 1139.75 717.95 1109.15 741.55 1062 727.55 1062 683.85
M 1109.15 741.55
L 1108.25 697"/>

<path id="Layer0_0_1_STROKES" stroke="#FFFFFF" stroke-width="3" stroke-linejoin="round" stroke-linecap="round" fill="none" d="
M 970.35 706.15
L 970.35 736.85 1003.5 746.7 1002.85 715.4 970.35 706.15 995.5 693.3 1025 700.95 1025 730.1 1003.5 746.7
M 1002.85 715.4
L 1025 700.95"/>
</defs>

<g transform="matrix( 1, 0, 0, 1, 0,0) ">
<use xlink:href="#Layer12_0_FILL"/>
</g>

<g transform="matrix( 1, 0, 0, 1, 0,0) ">
<use xlink:href="#Layer11_0_FILL"/>

<use xlink:href="#Layer11_0_1_STROKES"/>
</g>

<g transform="matrix( 1, 0, 0, 1, 0,0) ">
<use xlink:href="#Layer10_0_1_STROKES"/>
</g>

<g transform="matrix( 1, 0, 0, 1, 0,0) ">
<use xlink:href="#Layer9_0_FILL"/>

<use xlink:href="#Layer9_0_1_STROKES"/>

<use xlink:href="#Layer9_0_2_STROKES"/>
</g>

<g transform="matrix( 1, 0, 0, 1, 0,0) ">
<use xlink:href="#Layer7_0_1_STROKES"/>

<use xlink:href="#Layer7_0_2_STROKES"/>
</g>

<g transform="matrix( 1, 0, 0, 1, 0,0) ">
<use xlink:href="#Layer6_0_FILL"/>

<use xlink:href="#Layer6_0_1_STROKES"/>

<use xlink:href="#Layer6_0_2_STROKES"/>
</g>

<g transform="matrix( 1, 0, 0, 1, 0,0) ">
<use xlink:href="#Layer3_0_1_STROKES"/>

<use xlink:href="#Layer3_0_STROKES_1_FILL"/>
</g>

<g transform="matrix( 1, 0, 0, 1, 0,0) ">
<use xlink:href="#Layer1_0_FILL"/>

<use xlink:href="#Layer1_0_1_STROKES"/>
</g>

<g transform="matrix( 1, 0, 0, 1, 0,0) ">
<use xlink:href="#Layer0_0_FILL"/>

<use xlink:href="#Layer0_0_1_STROKES"/>
</g>
</svg>
