
<svg xmlns="http://www.w3.org/2000/svg" version="1.1" xmlns:xlink="http://www.w3.org/1999/xlink" preserveAspectRatio="none" x="0px" y="0px" width="2196px" height="1200px" viewBox="0 0 2196 1200">
<defs>
<linearGradient id="Gradient_1" gradientUnits="userSpaceOnUse" x1="970.55" y1="374.2375" x2="970.55" y2="65.76249999999999" spreadMethod="pad">
<stop  offset="0%" stop-color="#000000" stop-opacity="0"/>

<stop  offset="100%" stop-color="#000000"/>
</linearGradient>

<radialGradient id="Gradient_2" gradientUnits="userSpaceOnUse" cx="0" cy="0" r="998.0125" fx="0" fy="0" gradientTransform="matrix( 0, 1, -13.456144086371664, 0, 1202.1,973.75) " spreadMethod="pad">
<stop  offset="0%" stop-color="#000000"/>

<stop  offset="100%" stop-color="#001D2D"/>
</radialGradient>

<g id="Layer12_0_FILL">
<path fill="url(#Gradient_1)" stroke="none" d="
M 2131.25 728.65
L 2131.25 40.15 -190.15 40.15 -190.15 728.65 -21.95 728.65 2131.25 728.65 Z"/>
</g>

<g id="Layer11_0_FILL">
<path fill="url(#Gradient_2)" stroke="none" d="
M -554.95 110.05
Q -556.4 110.25 -557.9 110.6 -611.05 119.9 -663.25 130.05 -966.05 188.65 -1236.6 270.95 -1444.45 334.25 -1626.05 462.85 -1784.6 575.3 -1912.05 729.25 -2022.9 863.25 -2094.6 1008.5 -2158.95 1139 -2173.75 1239.35
L 2491.75 1203.3 2539.15 -9.7 -150 -9.7
Q -314.95 2.4 -467.05 18 -771.15 49.2 -706.7 66.95 -551.95 109.5 -554.95 110.05 Z"/>
</g>

<g id="Layer9_0_FILL">
<path fill="#222222" stroke="none" d="
M 1677.95 1081.25
Q 1643.95 1063 1628.4 1044.75 1612.8 1026.55 1594.35 1021.4 1575.9 1016.05 1492.25 955.35 1408.65 894.4 1371.95 889.1 1335.05 883.5 1285.45 872.4 1235.6 861.3 1146.45 846.4 1057.25 831.25 994.75 814.6 932.25 797.7 865.1 803.45 797.7 809.25 692.95 784.8 588 760.1 491 761.2 394.05 762.1 123.85 705.4 76.55 684.3 -22 679.5 -76.35 676.85 -146.3 679.15 -245.7 652.1 -236.75 616.3 -234.4 606.85 -240.75 580.25 -247.5 551.85 -260.55 520.4 -275.65 484 -294.55 455.45 -316.75 421.95 -341.2 404.05 -363 388 -389.45 359.35 -418.35 325.95 -432.4 310.85 -456.4 284.6 -474.65 273.25 -497.75 258.15 -520.25 259.7 -542.25 261.25 -584.7 249.7 -608.95 243 -664.55 224.35 -716.4 206.75 -737.95 201.4 -772.45 192.95 -782.65 199.2 -786.9 201.85 -923 296.4 -1046 381.8 -1066.65 390 -1084.9 397.35 -1133.85 457.4 -1159.85 489.45 -1169.4 500.1 -1187.65 520.35 -1197.9 525 -1213.25 532.15 -1324.2 563.05 -1438.5 598.4 -1486.35 632.2 -1536.6 667.8 -1680.05 765.65
L -1839.75 797.25
Q -1864.2 804.8 -1904.2 815.25 -1983.85 836.15 -2060.1 850.85 -2096.15 857.7 -2162.2 865.5 -2237.8 874.4 -2264.5 878.65 -2402.4 900.45 -2444.9 913.55 -2469.55 921.1 -2574.75 968.9 -2607.25 983.6 -2626.15 1044.75 -2640.6 1091.7 -2645.95 1161.3 -2650.15 1215.55 -2597.2 1263.85 -2550.05 1306.95 -2448 1353.45 -2359.9 1393.5 -2254.95 1417.5 -2248.5 1419.05 -2242.05 1420.4 -2136.4 1443.55 -2005.2 1452.4 -1909.8 1459.1 -1775.9 1480.2 -1655.6 1499.15 -1638.25 1499.15 -1590.2 1499.15 -1513.7 1512.9 -1406.5 1532.25 -1271.25 1574.75 -1148.3 1613.45 -1010.6 1602.3 -992.6 1601 -910.75 1591.2 -857.4 1584.75 -828.45 1586.3 -726.85 1592.3 -659 1590.1 -550.45 1586.3 -449.95 1563.2 -355.65 1541.4 -109.9 1547.15 14.65 1550.05 138.3 1557.4 144.3 1557.4 195 1548.7 257.95 1538.05 304.45 1532.5 471 1512.45 575.3 1534.05 680.75 1555.85 845.55 1509.15 927.6 1486 997.65 1477.1
L 1095.05 1477.1
Q 1208.7 1497.55 1245.2 1504.9 1269.2 1509.6 1357.95 1492.9 1455.35 1474.2 1548.75 1443.1 1586.1 1430.65 1618.15 1417.5 1683.55 1390.8 1753.6 1352.8 1823.65 1314.75 1830.3 1243.35 1834.05 1201.7 1814.45 1172 1800.4 1150.8 1774.5 1135.7 1712 1099.45 1677.95 1081.25 Z"/>
</g>

<g id="Layer6_0_FILL">
<path fill="#000000" stroke="none" d="
M 1752.8 546.8
L 1628.2 593.6 1628.2 788.7 1751.35 719.05 1752.8 546.8
M 1588.95 521.65
L 1431.75 562.85 1628.2 593.6 1752.8 546.8 1588.95 521.65
M 1431.75 562.85
L 1431.75 730.55 1628.2 788.7 1628.2 593.6 1431.75 562.85 Z"/>
</g>

<g id="Layer5_0_FILL">
<path fill="#000000" stroke="none" d="
M 1117.5 750
L 909.4 716.65 909.4 909.55 1117.5 950 1117.5 750
M 1252.6 684
L 1117.5 750 1117.5 950 1252.6 867.15 1252.6 684
M 1117.5 750
L 1252.6 684 1060 650 909.4 716.65 1117.5 750 Z"/>
</g>

<g id="Layer4_0_STROKES_1_FILL">
<path fill="#FFFFFF" fill-opacity="0.3764705882352941" stroke="none" d="
M 1281.25 455.05
Q 1279.7826171875 453.605859375 1277.7 453.6 1275.65390625 453.5908203125 1274.15 455.05 1272.7048828125 456.5126953125 1272.7 458.55 1272.6955078125 460.644921875 1274.15 462.1
L 1288.25 476.3
Q 1289.7173828125 477.794140625 1291.75 477.8 1293.84609375 477.8091796875 1295.3 476.35 1296.7953125 474.8873046875 1296.8 472.8 1296.8044921875 470.755078125 1295.35 469.25
L 1281.25 455.05
M 1239.2 419.45
Q 1240.6953125 417.9873046875 1240.7 415.9 1240.7044921875 413.855078125 1239.25 412.35
L 1225.15 398.15
Q 1223.6826171875 396.705859375 1221.6 396.7 1219.55390625 396.6908203125 1218.05 398.15 1216.6048828125 399.6126953125 1216.6 401.65 1216.5955078125 403.744921875 1218.05 405.2
L 1232.15 419.4
Q 1233.6173828125 420.894140625 1235.65 420.9 1237.74609375 420.9091796875 1239.2 419.45
M 1268.7 444.4
Q 1268.7068359375 442.3716796875 1267.25 440.9
L 1253.25 426.7
Q 1251.78671875 425.220703125 1249.7 425.2 1247.66953125 425.189453125 1246.2 426.65 1244.7185546875 428.1095703125 1244.7 430.15 1244.6931640625 432.2283203125 1246.15 433.7
L 1260.15 447.9
Q 1261.61328125 449.3791015625 1263.65 449.4 1265.7306640625 449.4103515625 1267.2 447.95 1268.6814453125 446.4904296875 1268.7 444.4
M 1352.9 529.6
Q 1352.9044921875 527.555078125 1351.45 526.05
L 1337.35 511.85
Q 1335.8826171875 510.405859375 1333.8 510.4 1331.75390625 510.3908203125 1330.25 511.85 1328.8048828125 513.3126953125 1328.8 515.35 1328.7955078125 517.444921875 1330.25 518.9
L 1344.35 533.1
Q 1345.8173828125 534.594140625 1347.85 534.6 1349.94609375 534.6091796875 1351.4 533.15 1352.8953125 531.6873046875 1352.9 529.6
M 1358.35 540.25
Q 1356.9048828125 541.7126953125 1356.9 543.75 1356.8955078125 545.844921875 1358.35 547.3
L 1372.45 561.5
Q 1373.9173828125 562.994140625 1375.95 563 1378.04609375 563.0091796875 1379.5 561.55 1380.9953125 560.0873046875 1381 558 1381.0044921875 555.955078125 1379.55 554.45
L 1365.45 540.25
Q 1363.9826171875 538.805859375 1361.9 538.8 1359.85390625 538.7908203125 1358.35 540.25
M 1300.8 486.95
Q 1300.7931640625 489.0283203125 1302.25 490.5
L 1316.25 504.7
Q 1317.71328125 506.1791015625 1319.75 506.2 1321.8306640625 506.2103515625 1323.3 504.75 1324.7814453125 503.2904296875 1324.8 501.2 1324.8068359375 499.1716796875 1323.35 497.7
L 1309.35 483.5
Q 1307.88671875 482.020703125 1305.8 482 1303.76953125 481.989453125 1302.3 483.45 1300.8185546875 484.9095703125 1300.8 486.95 Z"/>
</g>

<g id="Layer3_0_FILL">
<path fill="#FFFFFF" stroke="none" d="
M 598.65 142.05
Q 593.95 142.05 590.15 144.45 586.3 146.95 584.2 151.35 582.05 155.75 582.05 160.55 582.05 165.45 584.3 169.85 586.55 174.2 590.25 176.55 593.95 178.85 598.7 178.85 604.9 178.85 611.9 175.6
L 611.9 170.3
Q 605.05 174.05 599.45 174.05 596.3 174.05 593.8 172.55 591.35 171.05 589.85 168.05 588.3 165 588.3 161.35
L 612.4 161.35 612.4 160.1
Q 612.4 150.9 608.65 146.45 604.85 142.05 598.65 142.05
M 588.65 157.05
Q 589.7 152.05 592.3 149.45 594.85 146.85 598.4 146.85 601.9 146.85 603.95 149.4 606.05 151.95 606.05 156.2
L 606.05 157.05 588.65 157.05
M 495.8 134.25
L 495.8 129.4 468.2 129.4 468.2 134.25 478.85 134.25 478.85 173.05 468.2 173.05 468.2 177.9 495.8 177.9 495.8 173.05 485.15 173.05 485.15 134.25 495.8 134.25
M 554 148.2
Q 556.05 146.85 559.75 146.85 564.8 146.85 570.55 148.95
L 570.55 143.65
Q 565.55 142.05 560 142.05 552.5 142.05 549.15 144.8 545.8 147.6 545.8 151.9 545.8 154.95 547.55 157.1 549.25 159.25 555.75 161.8
L 561.75 164.2
Q 565.35 165.65 566.25 166.65 567.15 167.65 567.15 169.05 567.15 171.2 565.25 172.6 563.3 174.05 558.9 174.05 556.15 174.05 552.25 173.1 548.35 172.2 544.85 169.9
L 544.85 176.05
Q 551.9 178.85 558.6 178.85 566.25 178.85 569.75 175.95 573.25 173.05 573.25 168.5 573.25 165.05 571.05 162.7 568.9 160.4 563.45 158.45
L 559.5 157
Q 555.5 155.55 553.7 154.4 551.9 153.3 551.9 151.4 551.9 149.45 554 148.2
M 849.15 260.75
Q 843.4 260.75 839.55 263.55 835.65 266.3 833.35 271.05 831.05 275.8 831.05 281.85 831.05 289.55 834.55 293.35 838 297.1 842.4 297.1 845.5 297.1 849.25 294.9 853 292.7 855.65 288.35 856.05 293.3 856.75 296.15
L 862.8 296.15
Q 861.5 292.2 861.5 285.9
L 861.5 261.25 849.15 260.75
M 840.95 269.75
Q 844.5 265.6 849.9 265.6 852.55 265.6 855.65 266.4
L 855.65 281.4
Q 853.05 286.05 849.8 288.8 846.5 291.55 843.75 291.55 841.25 291.55 839.3 288.9 837.35 286.3 837.35 281.1 837.35 273.9 840.95 269.75
M 900.25 261.25
Q 897.1 260.3 893.95 260.3 889.65 260.3 886.15 262.45 882.6 264.55 879.9 268.85
L 879.9 261.25 874.05 261.25 874.05 296.15 879.9 296.15 879.9 275.85
Q 882.85 270.75 885.95 268.2 889.1 265.6 892.35 265.6
L 894.65 265.85 894.65 273.85 900.25 273.85 900.25 261.25
M 925.3 260.3
Q 920.6 260.3 916.8 262.7 912.95 265.2 910.85 269.6 908.7 274 908.7 278.8 908.7 283.7 910.95 288.1 913.2 292.45 916.9 294.8 920.6 297.1 925.35 297.1 931.55 297.1 938.55 293.85
L 938.55 288.55
Q 931.7 292.3 926.1 292.3 922.95 292.3 920.45 290.8 918 289.3 916.5 286.3 914.95 283.25 914.95 279.6
L 939.05 279.6 939.05 278.35
Q 939.05 269.15 935.3 264.7 931.5 260.3 925.3 260.3
M 918.95 267.7
Q 921.5 265.1 925.05 265.1 928.55 265.1 930.6 267.65 932.7 270.2 932.7 274.45
L 932.7 275.3 915.3 275.3
Q 916.35 270.3 918.95 267.7
M 685.95 263.55
Q 682.05 266.3 679.75 271.05 677.45 275.8 677.45 281.85 677.45 289.55 680.95 293.35 684.4 297.1 688.8 297.1 691.9 297.1 695.65 294.9 699.4 292.7 702.05 288.35 702.45 293.3 703.15 296.15
L 709.2 296.15
Q 707.9 292.2 707.9 285.9
L 707.9 261.25 695.55 260.75
Q 689.8 260.75 685.95 263.55
M 685.7 288.9
Q 683.75 286.3 683.75 281.1 683.75 273.9 687.35 269.75 690.9 265.6 696.3 265.6 698.95 265.6 702.05 266.4
L 702.05 281.4
Q 699.45 286.05 696.2 288.8 692.9 291.55 690.15 291.55 687.65 291.55 685.7 288.9
M 649 290.8
L 649 247.65 642.7 247.65 642.7 296.15 668.85 296.15 668.85 290.8 649 290.8
M 734.5 261.25
L 729.3 261.25 723.7 282.5 722.9 287.45 718.7 261.25 713.3 261.25 718.95 296.15 724.6 296.15 730.45 273.65 731.4 268.75 731.55 268.75 732.6 273.7 739.3 296.15 744.75 296.15 750.4 261.25 745.95 261.25 741.9 287.45 740.8 282.5 734.5 261.25
M 763.35 269.65
Q 763.35 267.7 765.45 266.45 767.5 265.1 771.2 265.1 776.25 265.1 782 267.2
L 782 261.9
Q 777 260.3 771.45 260.3 763.95 260.3 760.6 263.05 757.25 265.85 757.25 270.15 757.25 273.2 759 275.35 760.7 277.5 767.2 280.05
L 773.2 282.45
Q 776.8 283.9 777.7 284.9 778.6 285.9 778.6 287.3 778.6 289.45 776.7 290.85 774.75 292.3 770.35 292.3 767.6 292.3 763.7 291.35 759.8 290.45 756.3 288.15
L 756.3 294.3
Q 763.35 297.1 770.05 297.1 777.7 297.1 781.2 294.2 784.7 291.3 784.7 286.75 784.7 283.3 782.5 280.95 780.35 278.65 774.9 276.7
L 770.95 275.25
Q 766.95 273.8 765.15 272.65 763.35 271.55 763.35 269.65
M 769.05 143
L 763.2 143 751 170.65 739.05 143 732.65 143 747.8 177.9 753.75 177.9 769.05 143
M 800.65 146.45
Q 796.85 142.05 790.65 142.05 785.95 142.05 782.15 144.45 778.3 146.95 776.2 151.35 774.05 155.75 774.05 160.55 774.05 165.45 776.3 169.85 778.55 174.2 782.25 176.55 785.95 178.85 790.7 178.85 796.9 178.85 803.9 175.6
L 803.9 170.3
Q 797.05 174.05 791.45 174.05 788.3 174.05 785.8 172.55 783.35 171.05 781.85 168.05 780.3 165 780.3 161.35
L 804.4 161.35 804.4 160.1
Q 804.4 150.9 800.65 146.45
M 798.05 156.2
L 798.05 157.05 780.65 157.05
Q 781.7 152.05 784.3 149.45 786.85 146.85 790.4 146.85 793.9 146.85 795.95 149.4 798.05 151.95 798.05 156.2
M 650.8 161.35
L 650.8 160.1
Q 650.8 150.9 647.05 146.45 643.25 142.05 637.05 142.05 632.35 142.05 628.55 144.45 624.7 146.95 622.6 151.35 620.45 155.75 620.45 160.55 620.45 165.45 622.7 169.85 624.95 174.2 628.65 176.55 632.35 178.85 637.1 178.85 643.3 178.85 650.3 175.6
L 650.3 170.3
Q 643.45 174.05 637.85 174.05 634.7 174.05 632.2 172.55 629.75 171.05 628.25 168.05 626.7 165 626.7 161.35
L 650.8 161.35
M 644.45 156.2
L 644.45 157.05 627.05 157.05
Q 628.1 152.05 630.7 149.45 633.25 146.85 636.8 146.85 640.3 146.85 642.35 149.4 644.45 151.95 644.45 156.2
M 723.85 146.45
Q 720.05 142.05 713.85 142.05 709.15 142.05 705.35 144.45 701.5 146.95 699.4 151.35 697.25 155.75 697.25 160.55 697.25 165.45 699.5 169.85 701.75 174.2 705.45 176.55 709.15 178.85 713.9 178.85 720.1 178.85 727.1 175.6
L 727.1 170.3
Q 720.25 174.05 714.65 174.05 711.5 174.05 709 172.55 706.55 171.05 705.05 168.05 703.5 165 703.5 161.35
L 727.6 161.35 727.6 160.1
Q 727.6 150.9 723.85 146.45
M 721.25 156.2
L 721.25 157.05 703.85 157.05
Q 704.9 152.05 707.5 149.45 710.05 146.85 713.6 146.85 717.1 146.85 719.15 149.4 721.25 151.95 721.25 156.2
M 946.65 147.35
Q 948.15 147.35 949.5 148.4 950.75 149.45 951.25 151.05 951.75 152.65 951.75 157.7
L 951.75 177.9 957.55 177.9 957.55 158.4
Q 957.55 152.6 957.25 150.75 957 148.85 956.2 147.2 955.25 145.05 952.8 143.55 950.3 142.05 947.35 142.05 943.8 142.05 940.3 144.3 936.75 146.6 934.25 150.6
L 934.25 127.45 928.45 127.45 928.45 177.9 934.25 177.9 934.25 157.55
Q 936.55 153.2 940.05 150.3 943.55 147.35 946.65 147.35
M 888.2 145.9
L 888.2 150.75 896.9 150.75 896.9 164.8
Q 896.9 170.55 898.5 173.3 900 176.05 903.05 177.45 906.1 178.85 909.75 178.85
L 913.3 178.55
Q 915.15 178.2 919.25 176.5
L 919.25 171.35
Q 914.6 174.05 910.35 174.05 908.1 174.05 906.4 173.2 904.75 172.4 903.75 170.7 902.75 168.95 902.75 164.7
L 902.75 150.75 918.25 150.75 918.25 145.9 902.75 145.9 902.75 131.85 896.9 131.85 896.9 145.9 888.2 145.9
M 834.5 147.35
L 836.8 147.6 836.8 155.6 842.4 155.6 842.4 143
Q 839.25 142.05 836.1 142.05 831.8 142.05 828.3 144.2 824.75 146.3 822.05 150.6
L 822.05 143 816.2 143 816.2 177.9 822.05 177.9 822.05 157.6
Q 825 152.5 828.1 149.95 831.25 147.35 834.5 147.35
M 884.2 143
L 878.35 143 867.6 169.2 854.75 143 848.4 143 864.5 176.55 863.95 177.85
Q 863.2 179.85 861.4 182.65 859.6 185.4 857.4 186.5 855.2 187.6 852.4 187.6 850.2 187.6 847.8 186.85
L 847.8 191.95
Q 849.9 192.45 852.55 192.45 858.7 192.45 862.55 189.05 866.4 185.7 870.7 175.45
L 884.2 143
M 1150.1 247.65
L 1151.55 282.35 1156.45 282.35 1157.9 247.65 1150.1 247.65
M 1151.1 289.95
Q 1149.75 291.3 1149.75 293.1 1149.75 294.95 1151.1 296.3 1152.45 297.6 1154.25 297.6 1156.05 297.6 1157.4 296.3 1158.75 295 1158.75 293.1 1158.75 291.25 1157.45 289.95 1156.1 288.65 1154.25 288.65 1152.45 288.65 1151.1 289.95
M 1269.45 260.3
Q 1261.95 260.3 1257.45 265.5 1252.95 270.7 1252.95 278.7 1252.95 286.65 1257.45 291.9 1261.95 297.1 1269.45 297.1 1276.9 297.1 1281.4 291.9 1285.9 286.65 1285.9 278.7 1285.9 270.7 1281.4 265.5 1276.9 260.3 1269.45 260.3
M 1262.05 268.75
Q 1264.8 265.1 1269.45 265.1 1274.1 265.1 1276.85 268.75 1279.6 272.35 1279.6 278.7 1279.6 285.05 1276.85 288.65 1274.1 292.3 1269.45 292.3 1264.8 292.3 1262.05 288.65 1259.3 285.05 1259.3 278.7 1259.3 272.35 1262.05 268.75
M 1248.55 247.65
L 1242.35 247.65 1231.15 279.6 1219.95 247.65 1213.6 247.65 1213.6 296.15 1218.7 296.15 1218.55 261 1218.7 261 1219.9 265.25 1227.55 286.45 1233.8 286.45 1242.75 261 1242.9 261 1242.75 296.15 1248.55 296.15 1248.55 247.65
M 1003.15 260.75
Q 997.4 260.75 993.5 263.55 989.65 266.3 987.35 271.05 985 275.8 985 281.85 985 289.55 988.5 293.35 992 297.1 996.35 297.1 999.5 297.1 1003.25 294.9 1007 292.7 1009.65 288.3
L 1009.65 296.15 1015.45 296.15 1015.45 245.7 1009.65 245.7 1009.65 261.25 1003.15 260.75
M 994.9 269.75
Q 998.5 265.6 1003.9 265.6 1006.55 265.6 1009.65 266.4
L 1009.65 281.4
Q 1007.05 286.05 1003.75 288.8 1000.45 291.55 997.75 291.55 995.25 291.55 993.3 288.9 991.35 286.3 991.35 281.1 991.35 273.9 994.9 269.75
M 1053.4 296.15
L 1053.4 261.25 1047.6 261.25 1047.6 281.6
Q 1045.3 286 1041.8 288.9 1038.25 291.8 1035.2 291.8 1033.7 291.8 1032.4 290.75 1031.1 289.7 1030.65 288.1 1030.15 286.5 1030.15 281.45
L 1030.15 261.25 1024.3 261.25 1024.3 280.75
Q 1024.3 288.5 1025.3 291.2 1026.3 293.85 1028.9 295.5 1031.4 297.1 1034.5 297.1 1037.9 297.1 1041.35 294.95 1044.8 292.8 1047.6 288.5
L 1047.6 296.15 1053.4 296.15
M 1079.9 267.9
Q 1079.9 264.25 1078.35 262.3 1076.8 260.3 1074.25 260.3 1072.15 260.3 1070.05 262.2 1067.95 264.15 1065.55 269.25
L 1065.55 261.25 1060.45 261.25 1060.45 296.15 1065.55 296.15 1065.55 276
Q 1067.2 271.65 1069.05 268.85 1070.9 266.1 1072.5 266.1 1073.2 266.1 1074.15 266.9 1075.05 267.7 1075.05 272.35
L 1075.05 296.15 1079.9 296.15 1079.9 276.8
Q 1081.8 271.05 1083.7 268.6 1085.55 266.1 1087.15 266.1 1087.8 266.1 1088.4 266.65 1088.95 267.2 1089.15 268.3
L 1089.3 296.15 1094.4 296.15 1094.4 269.8
Q 1094.4 264.1 1092.8 262.2 1091.2 260.3 1088.95 260.3 1086.95 260.3 1085.4 261.45 1083.8 262.6 1082.4 264.6 1080.9 266.6 1079.9 269.8
L 1079.9 267.9
M 1106.85 245.7
L 1101.05 245.7 1101.05 296.15 1113.35 296.65
Q 1119.1 296.65 1122.95 293.9 1126.85 291.1 1129.2 286.35 1131.5 281.6 1131.5 275.55 1131.5 267.85 1128 264.05 1124.5 260.3 1120.1 260.3 1117 260.3 1113.3 262.5 1109.55 264.7 1106.85 269.1
L 1106.85 245.7
M 1118.75 265.85
Q 1121.25 265.85 1123.2 268.45 1125.2 271.1 1125.2 276.3 1125.2 283.55 1121.6 287.65 1117.95 291.8 1112.7 291.8 1110.05 291.8 1106.85 291
L 1106.85 276
Q 1109.5 271.35 1112.8 268.6 1116.05 265.85 1118.75 265.85
M 1044.7 152.8
Q 1042.35 157.55 1042.35 163.6 1042.35 171.3 1045.85 175.1 1049.35 178.85 1053.7 178.85 1056.85 178.85 1060.6 176.65 1064.35 174.45 1067 170.05
L 1067 175
Q 1067 178.5 1066.45 180.6 1065.95 182.7 1064.45 184.3 1063 185.9 1060.6 186.75 1058.25 187.6 1055.6 187.6 1052.2 187.6 1048.6 186.3 1044.95 185 1042.5 183.3
L 1042.5 189.2
Q 1049 192.45 1055.35 192.45 1061.7 192.45 1066.1 189.75 1070.6 187.05 1071.85 182.4
L 1072.6 178.45 1072.8 143 1060.5 142.5
Q 1054.75 142.5 1050.85 145.3 1047 148.05 1044.7 152.8
M 1050.65 170.65
Q 1048.7 168.05 1048.7 162.85 1048.7 155.65 1052.25 151.5 1055.85 147.35 1061.25 147.35 1063.9 147.35 1067 148.15
L 1067 163.15
Q 1064.4 167.8 1061.1 170.55 1057.8 173.3 1055.1 173.3 1052.6 173.3 1050.65 170.65
M 992.15 177.9
L 992.15 173.05 982.45 173.05 982.45 143 966.95 143 966.95 147.85 976.65 147.85 976.65 177.9 992.15 177.9
M 977.05 133.3
Q 978.4 134.25 979.55 134.25 980.75 134.25 982.1 133.3 983.45 132.3 983.45 130.4 983.45 128.45 982.1 127.45 980.75 126.5 979.55 126.5 978.4 126.5 977.05 127.45 975.7 128.45 975.7 130.4 975.7 132.3 977.05 133.3
M 1023.45 147.35
Q 1024.95 147.35 1026.3 148.4 1027.55 149.45 1028.05 151.05 1028.55 152.65 1028.55 157.7
L 1028.55 177.9 1034.35 177.9 1034.35 158.4
Q 1034.35 150.6 1033.35 147.95 1032.3 145.3 1029.8 143.7 1027.25 142.05 1024.15 142.05 1020.6 142.05 1017.1 144.3 1013.55 146.6 1011.05 150.6
L 1011.05 143 1005.25 143 1005.25 177.9 1011.05 177.9 1011.05 157.55
Q 1013.35 153.2 1016.85 150.3 1020.35 147.35 1023.45 147.35
M 1248.1 148.45
Q 1250.95 146.85 1254.1 146.85 1258.95 146.85 1265 149.65
L 1265 144.05
Q 1259 142.05 1253.6 142.05 1246.25 142.05 1241.1 147.3 1235.95 152.55 1235.95 160.45 1235.95 165.75 1238.2 169.9 1240.5 174.05 1244.6 176.45 1248.65 178.85 1253.9 178.85 1259.2 178.85 1265 176.9
L 1265 171.3
Q 1260.05 173 1258.2 173.3
L 1254.45 173.55
Q 1248.15 173.55 1245.2 169.25 1242.25 164.95 1242.25 160.25 1242.25 156.7 1243.75 153.35 1245.3 150.05 1248.1 148.45
M 1173.2 142.05
Q 1165.7 142.05 1161.2 147.25 1156.7 152.45 1156.7 160.45 1156.7 168.4 1161.2 173.65 1165.7 178.85 1173.2 178.85 1180.65 178.85 1185.15 173.65 1189.65 168.4 1189.65 160.45 1189.65 152.45 1185.15 147.25 1180.65 142.05 1173.2 142.05
M 1163.05 160.45
Q 1163.05 154.1 1165.8 150.5 1168.55 146.85 1173.2 146.85 1177.85 146.85 1180.6 150.5 1183.35 154.1 1183.35 160.45 1183.35 166.8 1180.6 170.4 1177.85 174.05 1173.2 174.05 1168.55 174.05 1165.8 170.4 1163.05 166.8 1163.05 160.45
M 1146.55 143.65
Q 1141.55 142.05 1136 142.05 1128.5 142.05 1125.15 144.8 1121.8 147.6 1121.8 151.9 1121.8 154.95 1123.55 157.1 1125.25 159.25 1131.75 161.8
L 1137.75 164.2
Q 1141.35 165.65 1142.25 166.65 1143.15 167.65 1143.15 169.05 1143.15 171.2 1141.25 172.6 1139.3 174.05 1134.9 174.05 1132.15 174.05 1128.25 173.1 1124.35 172.2 1120.85 169.9
L 1120.85 176.05
Q 1127.9 178.85 1134.6 178.85 1142.25 178.85 1145.75 175.95 1149.25 173.05 1149.25 168.5 1149.25 165.05 1147.05 162.7 1144.9 160.4 1139.45 158.45
L 1135.5 157
Q 1131.5 155.55 1129.7 154.4 1127.9 153.3 1127.9 151.4 1127.9 149.45 1130 148.2 1132.05 146.85 1135.75 146.85 1140.8 146.85 1146.55 148.95
L 1146.55 143.65
M 1492.95 269.65
Q 1492.95 267.7 1495.05 266.45 1497.1 265.1 1500.8 265.1 1505.85 265.1 1511.6 267.2
L 1511.6 261.9
Q 1506.6 260.3 1501.05 260.3 1493.55 260.3 1490.2 263.05 1486.85 265.85 1486.85 270.15 1486.85 273.2 1488.6 275.35 1490.3 277.5 1496.8 280.05
L 1502.8 282.45
Q 1506.4 283.9 1507.3 284.9 1508.2 285.9 1508.2 287.3 1508.2 289.45 1506.3 290.85 1504.35 292.3 1499.95 292.3 1497.2 292.3 1493.3 291.35 1489.4 290.45 1485.9 288.15
L 1485.9 294.3
Q 1492.95 297.1 1499.65 297.1 1507.3 297.1 1510.8 294.2 1514.3 291.3 1514.3 286.75 1514.3 283.3 1512.1 280.95 1509.95 278.65 1504.5 276.7
L 1500.55 275.25
Q 1496.55 273.8 1494.75 272.65 1492.95 271.55 1492.95 269.65
M 1578.1 260.3
Q 1573.4 260.3 1569.6 262.7 1565.75 265.2 1563.65 269.6 1561.5 274 1561.5 278.8 1561.5 283.7 1563.75 288.1 1566 292.45 1569.7 294.8 1573.4 297.1 1578.15 297.1 1584.35 297.1 1591.35 293.85
L 1591.35 288.55
Q 1584.5 292.3 1578.9 292.3 1575.75 292.3 1573.25 290.8 1570.8 289.3 1569.3 286.3 1567.75 283.25 1567.75 279.6
L 1591.85 279.6 1591.85 278.35
Q 1591.85 269.15 1588.1 264.7 1584.3 260.3 1578.1 260.3
M 1571.75 267.7
Q 1574.3 265.1 1577.85 265.1 1581.35 265.1 1583.4 267.65 1585.5 270.2 1585.5 274.45
L 1585.5 275.3 1568.1 275.3
Q 1569.15 270.3 1571.75 267.7
M 1331.1 278.8
Q 1331.1 283.7 1333.35 288.1 1335.6 292.45 1339.3 294.8 1343 297.1 1347.75 297.1 1353.95 297.1 1360.95 293.85
L 1360.95 288.55
Q 1354.1 292.3 1348.5 292.3 1345.35 292.3 1342.85 290.8 1340.4 289.3 1338.9 286.3 1337.35 283.25 1337.35 279.6
L 1361.45 279.6 1361.45 278.35
Q 1361.45 269.15 1357.7 264.7 1353.9 260.3 1347.7 260.3 1343 260.3 1339.2 262.7 1335.35 265.2 1333.25 269.6 1331.1 274 1331.1 278.8
M 1347.45 265.1
Q 1350.95 265.1 1353 267.65 1355.1 270.2 1355.1 274.45
L 1355.1 275.3 1337.7 275.3
Q 1338.75 270.3 1341.35 267.7 1343.9 265.1 1347.45 265.1
M 1321.6 266.2
Q 1320.55 263.55 1318.05 261.95 1315.5 260.3 1312.4 260.3 1308.85 260.3 1305.35 262.55 1301.8 264.85 1299.3 268.85
L 1299.3 261.25 1293.5 261.25 1293.5 296.15 1299.3 296.15 1299.3 275.8
Q 1301.6 271.45 1305.1 268.55 1308.6 265.6 1311.7 265.6 1313.2 265.6 1314.55 266.65 1315.8 267.7 1316.3 269.3 1316.8 270.9 1316.8 275.95
L 1316.8 296.15 1322.6 296.15 1322.6 276.65
Q 1322.6 268.85 1321.6 266.2
M 1455.95 248.65
Q 1455.95 250.55 1457.3 251.55 1458.65 252.5 1459.8 252.5 1461 252.5 1462.35 251.55 1463.7 250.55 1463.7 248.65 1463.7 246.7 1462.35 245.7 1461 244.75 1459.8 244.75 1458.65 244.75 1457.3 245.7 1455.95 246.7 1455.95 248.65
M 1447.2 261.25
L 1447.2 266.1 1456.9 266.1 1456.9 296.15 1472.4 296.15 1472.4 291.3 1462.7 291.3 1462.7 261.25 1447.2 261.25
M 1389.35 293.7
L 1402.85 261.25 1397 261.25 1386.25 287.45 1373.4 261.25 1367.05 261.25 1383.15 294.8 1382.6 296.1
Q 1381.85 298.1 1380.05 300.9 1378.25 303.65 1376.05 304.75 1373.85 305.85 1371.05 305.85 1368.85 305.85 1366.45 305.1
L 1366.45 310.2
Q 1368.55 310.7 1371.2 310.7 1377.35 310.7 1381.2 307.3 1385.05 303.95 1389.35 293.7
M 1410.5 147.35
L 1412.8 147.6 1412.8 155.6 1418.4 155.6 1418.4 143
Q 1415.25 142.05 1412.1 142.05 1407.8 142.05 1404.3 144.2 1400.75 146.3 1398.05 150.6
L 1398.05 143 1392.2 143 1392.2 177.9 1398.05 177.9 1398.05 157.6
Q 1401 152.5 1404.1 149.95 1407.25 147.35 1410.5 147.35
M 1442.85 127.45
L 1426.6 127.45 1426.6 132.3 1437 132.3 1437 177.9 1453.75 177.9 1453.75 173.05 1442.85 173.05 1442.85 127.45
M 1300.15 177.9
L 1300.15 173.05 1289.25 173.05 1289.25 127.45 1273 127.45 1273 132.3 1283.4 132.3 1283.4 177.9 1300.15 177.9
M 1328.25 142.05
Q 1323.55 142.05 1319.75 144.45 1315.9 146.95 1313.8 151.35 1311.65 155.75 1311.65 160.55 1311.65 165.45 1313.9 169.85 1316.15 174.2 1319.85 176.55 1323.55 178.85 1328.3 178.85 1334.5 178.85 1341.5 175.6
L 1341.5 170.3
Q 1334.65 174.05 1329.05 174.05 1325.9 174.05 1323.4 172.55 1320.95 171.05 1319.45 168.05 1317.9 165 1317.9 161.35
L 1342 161.35 1342 160.1
Q 1342 150.9 1338.25 146.45 1334.45 142.05 1328.25 142.05
M 1318.25 157.05
Q 1319.3 152.05 1321.9 149.45 1324.45 146.85 1328 146.85 1331.5 146.85 1333.55 149.4 1335.65 151.95 1335.65 156.2
L 1335.65 157.05 1318.25 157.05
M 1367.3 142.5
Q 1361.55 142.5 1357.7 145.3 1353.8 148.05 1351.5 152.8 1349.2 157.55 1349.2 163.6 1349.2 171.3 1352.7 175.1 1356.15 178.85 1360.55 178.85 1363.65 178.85 1367.4 176.65 1371.15 174.45 1373.8 170.1 1374.2 175.05 1374.9 177.9
L 1380.95 177.9
Q 1379.65 173.95 1379.65 167.65
L 1379.65 143 1367.3 142.5
M 1368.05 147.35
Q 1370.7 147.35 1373.8 148.15
L 1373.8 163.15
Q 1371.2 167.8 1367.95 170.55 1364.65 173.3 1361.9 173.3 1359.4 173.3 1357.45 170.65 1355.5 168.05 1355.5 162.85 1355.5 155.65 1359.1 151.5 1362.65 147.35 1368.05 147.35
M 1550.95 145.85
L 1543.2 145.85 1543.2 150.7 1550.95 150.7 1550.95 177.9 1556.8 177.9 1556.8 150.7 1570.65 150.7 1570.65 145.85 1556.8 145.85 1556.8 143.6
Q 1556.8 138.05 1558 135.75 1559.2 133.4 1561.3 132.35 1563.45 131.35 1566.2 131.35 1569.7 131.35 1574.25 132.85
L 1574.25 127.35
Q 1570.05 126.5 1566 126.5 1560.65 126.5 1557.4 128.6 1554.1 130.75 1552.55 134.05 1550.95 137.35 1550.95 144.25
L 1550.95 145.85
M 1602.5 147.35
L 1604.8 147.6 1604.8 155.6 1610.4 155.6 1610.4 143
Q 1607.25 142.05 1604.1 142.05 1599.8 142.05 1596.3 144.2 1592.75 146.3 1590.05 150.6
L 1590.05 143 1584.2 143 1584.2 177.9 1590.05 177.9 1590.05 157.6
Q 1593 152.5 1596.1 149.95 1599.25 147.35 1602.5 147.35
M 1469.15 143
L 1462.8 143 1478.9 176.55 1478.35 177.85
Q 1477.6 179.85 1475.8 182.65 1474 185.4 1471.8 186.5 1469.6 187.6 1466.8 187.6 1464.6 187.6 1462.2 186.85
L 1462.2 191.95
Q 1464.3 192.45 1466.95 192.45 1473.1 192.45 1476.95 189.05 1480.8 185.7 1485.1 175.45
L 1498.6 143 1492.75 143 1482 169.2 1469.15 143
M 1623.65 288.35
Q 1624.05 293.3 1624.75 296.15
L 1630.8 296.15
Q 1629.5 292.2 1629.5 285.9
L 1629.5 261.25 1617.15 260.75
Q 1611.4 260.75 1607.55 263.55 1603.65 266.3 1601.35 271.05 1599.05 275.8 1599.05 281.85 1599.05 289.55 1602.55 293.35 1606 297.1 1610.4 297.1 1613.5 297.1 1617.25 294.9 1621 292.7 1623.65 288.35
M 1623.65 266.4
L 1623.65 281.4
Q 1621.05 286.05 1617.8 288.8 1614.5 291.55 1611.75 291.55 1609.25 291.55 1607.3 288.9 1605.35 286.3 1605.35 281.1 1605.35 273.9 1608.95 269.75 1612.5 265.6 1617.9 265.6 1620.55 265.6 1623.65 266.4
M 1646.55 269.65
Q 1646.55 267.7 1648.65 266.45 1650.7 265.1 1654.4 265.1 1659.45 265.1 1665.2 267.2
L 1665.2 261.9
Q 1660.2 260.3 1654.65 260.3 1647.15 260.3 1643.8 263.05 1640.45 265.85 1640.45 270.15 1640.45 273.2 1642.2 275.35 1643.9 277.5 1650.4 280.05
L 1656.4 282.45
Q 1660 283.9 1660.9 284.9 1661.8 285.9 1661.8 287.3 1661.8 289.45 1659.9 290.85 1657.95 292.3 1653.55 292.3 1650.8 292.3 1646.9 291.35 1643 290.45 1639.5 288.15
L 1639.5 294.3
Q 1646.55 297.1 1653.25 297.1 1660.9 297.1 1664.4 294.2 1667.9 291.3 1667.9 286.75 1667.9 283.3 1665.7 280.95 1663.55 278.65 1658.1 276.7
L 1654.15 275.25
Q 1650.15 273.8 1648.35 272.65 1646.55 271.55 1646.55 269.65
M 1725.75 293.1
Q 1725.75 294.95 1727.1 296.3 1728.45 297.6 1730.25 297.6 1732.05 297.6 1733.4 296.3 1734.75 295 1734.75 293.1 1734.75 291.25 1733.45 289.95 1732.1 288.65 1730.25 288.65 1728.45 288.65 1727.1 289.95 1725.75 291.3 1725.75 293.1
M 1710.05 261.25
L 1704.2 261.25 1693.45 287.45 1680.6 261.25 1674.25 261.25 1690.35 294.8 1689.8 296.1
Q 1689.05 298.1 1687.25 300.9 1685.45 303.65 1683.25 304.75 1681.05 305.85 1678.25 305.85 1676.05 305.85 1673.65 305.1
L 1673.65 310.2
Q 1675.75 310.7 1678.4 310.7 1684.55 310.7 1688.4 307.3 1692.25 303.95 1696.55 293.7
L 1710.05 261.25
M 1733.9 247.65
L 1726.1 247.65 1727.55 282.35 1732.45 282.35 1733.9 247.65
M 1753.05 147.35
Q 1754.55 147.35 1755.9 148.4 1757.15 149.45 1757.65 151.05 1758.15 152.65 1758.15 157.7
L 1758.15 177.9 1763.95 177.9 1763.95 158.4
Q 1763.95 152.6 1763.65 150.75 1763.4 148.85 1762.6 147.2 1761.65 145.05 1759.2 143.55 1756.7 142.05 1753.75 142.05 1750.2 142.05 1746.7 144.3 1743.15 146.6 1740.65 150.6
L 1740.65 127.45 1734.85 127.45 1734.85 177.9 1740.65 177.9 1740.65 157.55
Q 1742.95 153.2 1746.45 150.3 1749.95 147.35 1753.05 147.35
M 1645.95 147.25
Q 1641.45 142.05 1634 142.05 1626.5 142.05 1622 147.25 1617.5 152.45 1617.5 160.45 1617.5 168.4 1622 173.65 1626.5 178.85 1634 178.85 1641.45 178.85 1645.95 173.65 1650.45 168.4 1650.45 160.45 1650.45 152.45 1645.95 147.25
M 1641.4 150.5
Q 1644.15 154.1 1644.15 160.45 1644.15 166.8 1641.4 170.4 1638.65 174.05 1634 174.05 1629.35 174.05 1626.6 170.4 1623.85 166.8 1623.85 160.45 1623.85 154.1 1626.6 150.5 1629.35 146.85 1634 146.85 1638.65 146.85 1641.4 150.5
M 1682.1 147.85
Q 1682.75 147.85 1683.35 148.4 1683.9 148.95 1684.1 150.05
L 1684.25 177.9 1689.35 177.9 1689.35 151.55
Q 1689.35 145.85 1687.75 143.95 1686.15 142.05 1683.9 142.05 1681.9 142.05 1680.35 143.2 1678.75 144.35 1677.35 146.35 1675.85 148.35 1674.85 151.55
L 1674.85 149.65
Q 1674.85 146 1673.3 144.05 1671.75 142.05 1669.2 142.05 1667.1 142.05 1665 143.95 1662.9 145.9 1660.5 151
L 1660.5 143 1655.4 143 1655.4 177.9 1660.5 177.9 1660.5 157.75
Q 1662.15 153.4 1664 150.6 1665.85 147.85 1667.45 147.85 1668.15 147.85 1669.1 148.65 1670 149.45 1670 154.1
L 1670 177.9 1674.85 177.9 1674.85 158.55
Q 1676.75 152.8 1678.65 150.35 1680.5 147.85 1682.1 147.85
M 1905 164.1
L 1906.45 129.4 1898.65 129.4 1900.1 164.1 1905 164.1
M 1902.8 170.4
Q 1901 170.4 1899.65 171.7 1898.3 173.05 1898.3 174.85 1898.3 176.7 1899.65 178.05 1901 179.35 1902.8 179.35 1904.6 179.35 1905.95 178.05 1907.3 176.75 1907.3 174.85 1907.3 173 1906 171.7 1904.65 170.4 1902.8 170.4
M 1861 172.55
Q 1858.55 171.05 1857.05 168.05 1855.5 165 1855.5 161.35
L 1879.6 161.35 1879.6 160.1
Q 1879.6 150.9 1875.85 146.45 1872.05 142.05 1865.85 142.05 1861.15 142.05 1857.35 144.45 1853.5 146.95 1851.4 151.35 1849.25 155.75 1849.25 160.55 1849.25 165.45 1851.5 169.85 1853.75 174.2 1857.45 176.55 1861.15 178.85 1865.9 178.85 1872.1 178.85 1879.1 175.6
L 1879.1 170.3
Q 1872.25 174.05 1866.65 174.05 1863.5 174.05 1861 172.55
M 1855.85 157.05
Q 1856.9 152.05 1859.5 149.45 1862.05 146.85 1865.6 146.85 1869.1 146.85 1871.15 149.4 1873.25 151.95 1873.25 156.2
L 1873.25 157.05 1855.85 157.05
M 1799.05 146.45
Q 1795.25 142.05 1789.05 142.05 1784.35 142.05 1780.55 144.45 1776.7 146.95 1774.6 151.35 1772.45 155.75 1772.45 160.55 1772.45 165.45 1774.7 169.85 1776.95 174.2 1780.65 176.55 1784.35 178.85 1789.1 178.85 1795.3 178.85 1802.3 175.6
L 1802.3 170.3
Q 1795.45 174.05 1789.85 174.05 1786.7 174.05 1784.2 172.55 1781.75 171.05 1780.25 168.05 1778.7 165 1778.7 161.35
L 1802.8 161.35 1802.8 160.1
Q 1802.8 150.9 1799.05 146.45
M 1794.35 149.4
Q 1796.45 151.95 1796.45 156.2
L 1796.45 157.05 1779.05 157.05
Q 1780.1 152.05 1782.7 149.45 1785.25 146.85 1788.8 146.85 1792.3 146.85 1794.35 149.4
M 1832.9 147.35
L 1835.2 147.6 1835.2 155.6 1840.8 155.6 1840.8 143
Q 1837.65 142.05 1834.5 142.05 1830.2 142.05 1826.7 144.2 1823.15 146.3 1820.45 150.6
L 1820.45 143 1814.6 143 1814.6 177.9 1820.45 177.9 1820.45 157.6
Q 1823.4 152.5 1826.5 149.95 1829.65 147.35 1832.9 147.35 Z"/>
</g>

<g id="Layer2_2_FILL">
<path fill="#FF6600" stroke="none" d="
M 925.2 487.2
Q 925.2 484.5 922.4 484.5 918.35 484.5 918.35 487.2
L 918.35 496.45 913.95 496.7 913.95 487.2
Q 913.95 484.5 911.15 484.5 907.1 484.5 907.1 487.2
L 907.1 497.7
Q 899.9 499.75 894.45 505.75 887.1 513.55 887.1 524.9 887.1 536.15 894.45 544.2 899.55 549.95 907.1 552.25
L 907.1 592.65 906.15 592.4
Q 899.05 591.3 896.4 586.9
L 894.2 581.65 893.95 572.75
Q 894.2 572 893.95 571.65 893.95 567.75 889.55 567.75 886.85 567.75 886.85 571.65
L 886.85 592.65 892.6 596.45
Q 899.45 599.35 907.1 600.2
L 907.1 608.15
Q 907.1 612.05 910.4 612.05 913.95 612.05 913.95 608.15
L 913.95 600.7 918.35 600.45 918.35 608.15
Q 918.35 612.05 921.75 612.05 925.2 612.05 925.2 608.15
L 925.2 599.25
Q 933.1 596.8 939.35 591.45 950.95 581.65 950.95 568.95 950.95 555.65 941.65 547.25 934.95 541 925.2 538.7
L 925.2 502.7 925.45 502.95 931.65 505.75
Q 937.9 510.4 937.9 517.7
L 937.4 519.05
Q 937.15 519.65 937.65 519.9 937.4 522.45 940.55 522.45 943.85 522.45 943.85 519.9
L 943.85 501.2
Q 937.15 498.05 932.9 497.45
L 925.45 496.45 925.2 496.45 925.2 487.2
M 913.95 501.95
L 918.35 501.95 918.35 537.7
Q 917.15 537.6 916.15 537.5 915.2 537.35 913.95 537.25
L 913.95 501.95
M 901.4 507.45
Q 903.6 504.9 907.1 503.65
L 907.1 535.4 901.65 531.75
Q 896.85 526.75 896.85 519.65 896.85 512.7 901.4 507.45
M 913.95 553.45
L 918.35 554.2 918.35 592.65 913.95 592.9 913.95 553.45
M 925.2 591.45
L 925.2 555.4
Q 930.2 556.65 933.35 559.7 939.1 564.95 939.1 572.75 939.1 580.2 933.35 586.45 930.8 589.25 925.2 591.45 Z"/>
</g>

<g id="Layer2_3_FILL">
<path fill="#00FF6B" stroke="none" d="
M 2001.3 344.2
L 1992.4 343 1992.1 343 1992.1 331.9
Q 1992.1 328.65 1988.75 328.65 1983.9 328.65 1983.9 331.9
L 1983.9 343 1978.6 343.3 1978.6 331.9
Q 1978.6 328.65 1975.25 328.65 1970.4 328.65 1970.4 331.9
L 1970.4 344.5
Q 1961.75 346.95 1955.2 354.15 1946.4 363.5 1946.4 377.15 1946.4 390.6 1955.2 400.3 1961.35 407.2 1970.4 409.95
L 1970.4 458.45 1969.25 458.15
Q 1960.75 456.85 1957.5 451.55
L 1954.9 445.25 1954.6 434.55
Q 1954.9 433.7 1954.6 433.25 1954.6 428.55 1949.3 428.55 1946.1 428.55 1946.1 433.25
L 1946.1 458.45 1953 463
Q 1961.2 466.5 1970.4 467.55
L 1970.4 477.05
Q 1970.4 481.75 1974.35 481.75 1978.6 481.75 1978.6 477.05
L 1978.6 468.1 1983.9 467.8 1983.9 477.05
Q 1983.9 481.75 1988 481.75 1992.1 481.75 1992.1 477.05
L 1992.1 466.35
Q 2001.6 463.45 2009.1 457 2023 445.25 2023 430.05 2023 414.05 2011.85 403.95 2003.8 396.5 1992.1 393.7
L 1992.1 350.5 1992.4 350.8 1999.85 354.15
Q 2007.35 359.7 2007.35 368.5
L 2006.75 370.1
Q 2006.45 370.85 2007.05 371.15 2006.75 374.2 2010.55 374.2 2014.5 374.2 2014.5 371.15
L 2014.5 348.75
Q 2006.45 344.9 2001.3 344.2
M 1978.6 349.6
L 1983.9 349.6 1983.9 392.55
Q 1982.45 392.4 1981.25 392.25 1980.1 392.1 1978.6 391.95
L 1978.6 349.6
M 1958.1 370.85
Q 1958.1 362.5 1963.55 356.2 1966.15 353.1 1970.4 351.65
L 1970.4 389.75 1963.8 385.35
Q 1958.1 379.35 1958.1 370.85
M 1992.1 413.75
Q 1998.1 415.25 2001.9 418.9 2008.8 425.2 2008.8 434.55 2008.8 443.5 2001.9 450.95 1998.85 454.35 1992.1 457
L 1992.1 413.75
M 1978.6 411.4
L 1983.9 412.3 1983.9 458.45 1978.6 458.75 1978.6 411.4 Z"/>
</g>

<path id="Layer10_0_1_STROKES" stroke="#FFFFFF" stroke-opacity="0.3764705882352941" stroke-width="3" stroke-linejoin="round" stroke-linecap="round" fill="none" d="
M 179.75 678.35
Q 412.9 730.9 513.1 733.95 613.15 737.05 753.45 740.1 893.8 743.15 960.3 755.65 1038.5 770.75 1146.5 785.1 1207 792.9 1254.15 805.15 1301.05 817.4 1388.95 855.8 1476.6 893.95 1505.6 911.9 1534.4 929.55 1640.4 992.45 1746.4 1055.15 1756.25 1062.95 1792.7 1090.25 1792.7 1101.1 1792.7 1110.75 1817.8 1125.4 1861 1150.35 1873.15 1159.55 1881.25 1165.55 1888.6 1172 1954.6 1230.15 1957.95 1327.1 1960 1389.3 1877.25 1449.4 1830.95 1482.85 1762.45 1513.25 1728.7 1528.1 1689.4 1542.25 1591.2 1577.8 1488.95 1599.05 1395.7 1618.1 1282.55 1603.95 1169.35 1589.85 1090.55 1592.9 1011.75 1595.95 894.45 1633.45 777.15 1670.9 666.45 1646.15 556.75 1621.4 381.85 1644.25 332.85 1650.65 266.8 1662.9 213.5 1672.8 207.1 1672.8 77.25 1664.3 -53.6 1661 -311.85 1654.65 -411.05 1679.4 -516.6 1705.75 -630.65 1710 -702.05 1712.6 -808.85 1705.75 -839.1 1704.1 -895.25 1711.45 -981.3 1722.5 -1000.2 1724.15 -1144.9 1736.9 -1274.1 1692.6 -1416.1 1644.05 -1528.9 1622.1 -1609.15 1606.35 -1659.75 1606.35 -1677.85 1606.35 -1804.4 1584.65 -1944.95 1560.6 -2045.4 1552.85 -2183.25 1542.95 -2294.2 1516.55 -2301 1514.9 -2307.75 1513.25 -2418.05 1485.9 -2510.65 1439.95 -2617.9 1386.95 -2667.5 1337.7 -2723.05 1282.8 -2718.7 1221.05 -2714 1153.2 -2674.05 1061.3 -2632.7 966.1 -2596.3 948.4 -2555.35 928.15 -2533.3 910 -2517.45 894.45 -2510.65 890.2 -2500.8 884.1 -2474.25 882.9 -2453.65 881.95 -2384.95 861.2 -2316.2 840.7 -2235.95 836.25 -2155.7 832 -2101.55 819.05 -2047.45 805.85 -2017.8 798.05 -1959.4 782.3 -1904.65 782.3 -1849.7 782.3 -1779.1 764.6 -1739 754.25 -1648.25 744.8 -1557.5 734.9 -1493.05 725.5 -1428.65 716.05 -1346.95 687.8 -1265.25 659.5 -1183.55 663.5 -1069.35 669.4 -900.6 669.4 -732.3 669.4 -536.4 670.1 -402.6 668.95 -263.9 656.2 -192.7 649.35 -131.4 650.3 -94.15 651 -34.45 656.2 -28.05 656.75 -22 657.2 28.85 661.2 57.7 661.65 113.5 662.8 179.75 678.35 Z"/>

<path id="Layer9_0_1_STROKES" stroke="#FFFFFF" stroke-width="6" stroke-linejoin="round" stroke-linecap="round" fill="none" d="
M 123.85 705.4
Q 394.05 762.1 491 761.2 588 760.1 692.95 784.8 797.7 809.25 865.1 803.45 932.25 797.7 994.75 814.6 1057.25 831.25 1146.45 846.4 1235.6 861.3 1285.45 872.4 1335.05 883.5 1371.95 889.1 1408.65 894.4 1492.25 955.35 1575.9 1016.05 1594.35 1021.4 1612.8 1026.55 1628.4 1044.75 1643.95 1063 1677.95 1081.25 1712 1099.45 1774.5 1135.7 1800.4 1150.8 1814.45 1172 1834.05 1201.7 1830.3 1243.35 1823.65 1314.75 1753.6 1352.8 1683.55 1390.8 1618.15 1417.5 1586.1 1430.65 1548.75 1443.1 1455.35 1474.2 1357.95 1492.9 1269.2 1509.6 1245.2 1504.9 1208.7 1497.55 1095.05 1477.1
L 997.65 1477.1
Q 927.6 1486 845.55 1509.15 680.75 1555.85 575.3 1534.05 471 1512.45 304.45 1532.5 257.95 1538.05 195 1548.7 144.3 1557.4 138.3 1557.4 14.65 1550.05 -109.9 1547.15 -355.65 1541.4 -449.95 1563.2 -550.45 1586.3 -659 1590.1 -726.85 1592.3 -828.45 1586.3 -857.4 1584.75 -910.75 1591.2 -992.6 1601 -1010.6 1602.3 -1148.3 1613.45 -1271.25 1574.75 -1406.5 1532.25 -1513.7 1512.9 -1590.2 1499.15 -1638.25 1499.15 -1655.6 1499.15 -1775.9 1480.2 -1909.8 1459.1 -2005.2 1452.4 -2136.4 1443.55 -2242.05 1420.4 -2248.5 1419.05 -2254.95 1417.5 -2359.9 1393.5 -2448 1353.45 -2550.05 1306.95 -2597.2 1263.85 -2650.15 1215.55 -2645.95 1161.3 -2640.6 1091.7 -2626.15 1044.75 -2607.25 983.6 -2574.75 968.9 -2469.55 921.1 -2444.9 913.55 -2402.4 900.45 -2264.5 878.65 -2237.8 874.4 -2162.2 865.5 -2096.15 857.7 -2060.1 850.85 -1983.85 836.15 -1904.2 815.25 -1864.2 804.8 -1839.75 797.25
L -1680.05 765.65
Q -1536.6 667.8 -1486.35 632.2 -1438.5 598.4 -1324.2 563.05 -1213.25 532.15 -1197.9 525 -1187.65 520.35 -1169.4 500.1 -1159.85 489.45 -1133.85 457.4 -1084.9 397.35 -1066.65 390 -1046 381.8 -923 296.4 -786.9 201.85 -782.65 199.2 -772.45 192.95 -737.95 201.4 -716.4 206.75 -664.55 224.35 -608.95 243 -584.7 249.7 -542.25 261.25 -520.25 259.7 -497.75 258.15 -474.65 273.25 -456.4 284.6 -432.4 310.85 -418.35 325.95 -389.45 359.35 -363 388 -341.2 404.05 -316.75 421.95 -294.55 455.45 -275.65 484 -260.55 520.4 -247.5 551.85 -240.75 580.25 -234.4 606.85 -236.75 616.3 -245.7 652.1 -146.3 679.15 -76.35 676.85 -22 679.5 76.55 684.3 123.85 705.4 Z"/>

<path id="Layer7_0_1_STROKES" stroke="#FFFFFF" stroke-opacity="0.4196078431372549" stroke-width="3" stroke-linejoin="round" stroke-linecap="round" fill="none" d="
M 1476.3 696.5
Q 1455.85 699.15 1435.45 704.5 1394.55 715.2 1394.6 728.8 1394.65 742.5 1497.4 778.65 1530.75 790.4 1568.55 802.25 1600.35 812.2 1601.85 812.2 1602.65 812.2 1608.75 813.5 1615.45 814.9 1621.15 815.35 1640.4 816.5 1659.7 807.15 1692.4 791.45 1736.15 764.45 1789.25 731.65 1789.25 722.05 1789.25 711.65 1767.4 703.5 1746.85 695.85 1723.15 695.5"/>

<path id="Layer7_0_2_STROKES" stroke="#FFFFFF" stroke-opacity="0.24705882352941178" stroke-width="3" stroke-linejoin="round" stroke-linecap="round" fill="none" d="
M 1450.7 689.2
Q 1425.75 692.65 1400.8 699.6 1350.85 713.55 1350.9 731.25 1351 749.1 1476.5 796.15 1517.25 811.45 1563.4 826.85 1602.25 839.8 1604.1 839.8 1605.05 839.8 1612.5 841.5 1620.7 843.3 1627.65 843.9 1651.2 845.4 1674.75 833.25 1714.7 812.8 1768.15 777.65 1833 734.95 1833 722.45 1833 708.95 1806.3 698.3 1781.2 688.35 1752.25 687.9"/>

<path id="Layer6_0_1_STROKES" stroke="#FFFFFF" stroke-width="6" stroke-linejoin="round" stroke-linecap="butt" fill="none" d="
M 1431.75 730.55
L 1431.75 562.85 1588.95 521.65 1752.8 546.8 1751.35 719.05"/>

<path id="Layer6_0_2_STROKES" stroke="#FFFFFF" stroke-width="4" stroke-linejoin="round" stroke-linecap="round" fill="none" d="
M 1628.2 788.7
L 1628.2 593.6 1431.75 562.85
M 1752.8 546.8
L 1628.2 593.6"/>

<path id="Layer5_0_1_STROKES" stroke="#FFFFFF" stroke-width="4" stroke-linejoin="round" stroke-linecap="round" fill="none" d="
M 740.3956298828125 762.2546081542969
L 959.4442504882812 797.359228515625 1101.6521728515625 727.88681640625 898.91904296875 692.097998046875 740.3956298828125 762.2546081542969 Z
M 740.3956298828125 762.2546081542969
L 740.3956298828125 965.3035217285155 959.4442504882812 1007.881689453125 959.4442504882812 797.359228515625
M 1101.6521728515625 727.88681640625
L 1101.6521728515625 920.6727600097656 959.4442504882812 1007.881689453125"/>

<path id="Layer2_0_1_STROKES" stroke="#FF6600" stroke-width="9" stroke-linejoin="miter" stroke-linecap="round" stroke-miterlimit="3" fill="none" d="
M 657.6969177246093 656.6927459716796
L 701.516146850586 607.3189666748046 676.8292572021485 607.3189666748046 676.8292572021485 545.6017425537109 639.7989227294921 545.6017425537109 639.7989227294921 607.3189666748046 615.1120330810546 607.3189666748046 657.6969177246093 656.6927459716796 Z"/>

<path id="Layer2_1_1_STROKES" stroke="#00FF6B" stroke-width="8" stroke-linejoin="miter" stroke-linecap="round" stroke-miterlimit="3" fill="none" d="
M 1774.7021171569825 395.0086730957031
L 1730.5085823059082 444.8042053222656 1755.4063484191895 444.8042053222656 1755.4063484191895 507.0486206054687 1792.7529975891114 507.0486206054687 1792.7529975891114 444.8042053222656 1817.6507637023926 444.8042053222656 1774.7021171569825 395.0086730957031 Z"/>
</defs>

<g transform="matrix( 1, 0, 0, 1, 0,0) ">
<use xlink:href="#Layer12_0_FILL"/>
</g>

<g transform="matrix( 1, 0, 0, 1, 0,0) ">
<use xlink:href="#Layer11_0_FILL"/>
</g>

<g transform="matrix( 1, 0, 0, 1, 0,0) ">
<use xlink:href="#Layer10_0_1_STROKES"/>
</g>

<g transform="matrix( 1, 0, 0, 1, 0,0) ">
<use xlink:href="#Layer9_0_FILL"/>

<use xlink:href="#Layer9_0_1_STROKES"/>
</g>

<g transform="matrix( 1, 0, 0, 1, 0,0) ">
<use xlink:href="#Layer7_0_1_STROKES"/>

<use xlink:href="#Layer7_0_2_STROKES"/>
</g>

<g transform="matrix( 1, 0, 0, 1, 0,0) ">
<use xlink:href="#Layer6_0_FILL"/>

<use xlink:href="#Layer6_0_1_STROKES"/>

<use xlink:href="#Layer6_0_2_STROKES"/>
</g>

<g transform="matrix( 1.0526123046875, 0, 0, 1.0526123046875, -216.85,7.9) ">
<use xlink:href="#Layer5_0_FILL"/>

<use xlink:href="#Layer5_0_1_STROKES" transform="matrix( 0.95001220703125, 0, 0, 0.95001220703125, 206,-7.5) "/>
</g>

<g transform="matrix( 1, 0, 0, 1, 0,0) ">
<use xlink:href="#Layer4_0_STROKES_1_FILL"/>
</g>

<g transform="matrix( 1, 0, 0, 1, -100,26) ">
<use xlink:href="#Layer3_0_FILL"/>
</g>

<g transform="matrix( 1.234344482421875, 0, 0, 1.234344482421875, -351.75,-79.1) ">
<use xlink:href="#Layer2_0_1_STROKES" transform="matrix( 0.8101348876953125, 0, 0, 0.8101348876953125, 284.95,64.05) "/>
</g>

<g transform="matrix( 1.2448883056640625, 0, 0, 1.2448883056640625, -584.05,-65.6) ">
<use xlink:href="#Layer2_1_1_STROKES" transform="matrix( 0.80328369140625, 0, 0, 0.80328369140625, 469.15,52.65) "/>
</g>

<g transform="matrix( 1, 0, 0, 1, -160,50) ">
<use xlink:href="#Layer2_2_FILL"/>
</g>

<g transform="matrix( 1, 0, 0, 1, -100,50) ">
<use xlink:href="#Layer2_3_FILL"/>
</g>
</svg>
