
<svg xmlns="http://www.w3.org/2000/svg" version="1.1" xmlns:xlink="http://www.w3.org/1999/xlink" preserveAspectRatio="none" x="0px" y="0px" width="2196px" height="1100px" viewBox="0 0 2196 1100">
<defs>
<radialGradient id="Gradient_1" gradientUnits="userSpaceOnUse" cx="0" cy="0" r="608.8" fx="0" fy="0" gradientTransform="matrix( 0, 1.0000000000000002, -14.879332293035482, 0, 1167.2,982.95) " spreadMethod="pad">
<stop  offset="0%" stop-color="#000000"/>

<stop  offset="100%" stop-color="#001D2D"/>
</radialGradient>

<linearGradient id="Gradient_2" gradientUnits="userSpaceOnUse" x1="1033.55" y1="1065.625" x2="1033.55" y2="889.375" spreadMethod="pad">
<stop  offset="0%" stop-color="#000000"/>

<stop  offset="100%" stop-color="#000000" stop-opacity="0"/>
</linearGradient>

<g id="Layer11_0_FILL">
<path fill="url(#Gradient_1)" stroke="none" d="
M 2216 471.45
Q 2215 471.3 2214 471.1 2213.7 471.05 2213.4 471 2211.7 470.7 2210 470.4 2019.8 436.55 1810.55 415.35 1458.7 379.7 1053.35 379.7 648.1 379.7 296.45 415.35 135.6 431.6 -14 455.4 -16 455.7 -18 456.05 -19 456.2 -20 456.4 -55.85 462.05 -91.05 468.25 -295.3 504 -477.8 554.2 -618 592.8 -740.5 671.25 -847.45 739.85 -933.4 833.75 -1008.2 915.5 -1056.55 1004.1 -1099.95 1083.7 -1109.95 1144.9
L 3216.65 1144.9
Q 3201.95 1114.8 3173.65 1067.95 3117.1 974.25 3049.3 890.5 2954.4 773.2 2850.6 692.55 2720.85 591.7 2584.55 554.2 2561.15 547.75 2537.4 541.6 2475.25 525.35 2410.6 510.75 2315.95 489.3 2216 471.45
M 1464.15 703.05
L 1400.05 741.1 1464.15 703.05 1385 735.05 1464.15 703.05 Z"/>
</g>

<g id="Layer7_0_FILL">
<path fill="#333333" stroke="none" d="
M 1364 593.45
Q 1348.5 589.2 1331.9 590.6 1315.15 592.1 1289.2 586 1263.2 579.9 1239.15 580.15 1215.15 580.4 1148.2 566.35 1130 558.2 1116.9 557.85 1123.7 565.95 1132.6 572.45 1147.8 583.45 1152 587.7 1157.65 593.45 1164.3 598.65 1167.85 601.45 1176.35 609.15 1184.2 615.7 1189.4 616.95 1203.1 620.3 1218 627.15 1239.2 636.8 1232.45 642.85 1214.2 659.25 1197.45 667.8 1177.95 677.7 1150.1 682.95 1135.35 684.75 1120.45 687.3 1091.7 692.25 1063.75 701 1048.65 705.7 1008.5 708.6 965.7 711.7 962.95 712.3 953.4 714.4 924.85 713.75 896.4 713.05 860.4 709.9 833.7 707.55 817.2 702.15 805.35 698.25 804.2 697.95 796.05 695.65 785.55 694.2 704.15 683 691.7 670.8 686.15 665.4 669 658.3 664.45 656.4 655.1 652.6 647.2 649.25 642.55 646.75 630.05 639.95 631.05 632.95 632.3 624.35 653.35 613.55 680.95 594.95 701.1 581.25
L 661.5 589.1
Q 655.5 591 645.55 593.55 625.85 598.75 606.9 602.4 598 604.05 581.6 606 562.85 608.25 556.25 609.25 522.1 614.65 511.55 617.9 505.4 619.8 479.35 631.65 471.3 635.3 466.6 650.45 463.05 662.05 461.7 679.3 460.65 692.8 473.8 704.75 485.45 715.4 510.8 726.95 532.6 736.9 558.65 742.8 560.2 743.2 561.8 743.55 588 749.3 620.5 751.45 644.15 753.15 677.35 758.35 707.2 763.05 711.45 763.05 723.4 763.05 742.35 766.45 768.9 771.25 802.4 781.8 832.9 791.4 867 788.65 871.5 788.3 891.8 785.85 905 784.25 912.15 784.7 937.35 786.15 954.15 785.6 981.05 784.7 1005.95 778.95 1029.35 773.5 1090.25 774.95 1121.15 775.65 1151.75 777.5 1153.25 777.5 1165.8 775.35 1181.45 772.7 1192.95 771.35 1234.25 766.35 1260.1 771.7 1286.15 777.1 1327.05 765.55 1334.6 763.4 1346.6 764.7 1360.35 766.15 1364.75 765.6
L 1388.9 765.6
Q 1401.35 767.8 1419.05 768.35 1433.2 768.75 1440.1 768.1 1443.75 767.75 1462.9 761.75 1481.95 755.75 1486.25 755.4 1489.1 755.15 1504.25 748.85 1520.5 742.1 1521.65 741.8 1522.3 741.45 1523.75 740.8 1534.75 736.2 1552.05 726.8 1569.45 717.35 1571.1 699.65 1572.7 681.95 1557.25 672.95 1541.75 664 1533.35 659.5 1524.95 654.95 1521.05 650.45 1517.2 645.95 1512.65 644.65 1508 643.3 1487.3 628.25 1466.6 613.15 1457.5 611.85 1448.35 610.5 1436.05 607.75 1423.75 604.95 1401.65 601.25 1379.5 597.5 1364 593.45
M 952.8 447.1
Q 939.9 442.75 934.6 441.4 926.05 439.35 923.5 440.9 922.45 441.5 888.75 464.95 858.25 486.15 853.1 488.2 848.6 490 836.45 504.9 830 512.8 827.65 515.45 823.1 520.45 820.6 521.65 816.8 523.4 789.3 531.05 760.95 539.85 749.15 548.2 736.7 557.05 701.1 581.25 680.95 594.95 653.35 613.55 632.3 624.35 631.05 632.95 630.05 639.95 642.55 646.75 647.2 649.25 655.1 652.6 664.45 656.4 669 658.3 686.15 665.4 691.7 670.8 704.15 683 785.55 694.2 796.05 695.65 804.2 697.95 805.35 698.25 817.2 702.15 833.7 707.55 860.4 709.9 896.4 713.05 924.85 713.75 953.4 714.4 962.95 712.3 965.7 711.7 1008.5 708.6 1048.65 705.7 1063.75 701 1091.7 692.25 1120.45 687.3 1135.35 684.75 1150.1 682.95 1177.95 677.7 1197.45 667.8 1214.2 659.25 1232.45 642.85 1239.2 636.8 1218 627.15 1203.1 620.3 1189.4 616.95 1184.2 615.7 1176.35 609.15 1167.85 601.45 1164.3 598.65 1157.65 593.45 1152 587.7 1147.8 583.45 1132.6 572.45 1123.7 565.95 1116.9 557.85 1113.45 553.7 1106.9 544 1101.35 535.8 1097.25 531.7 1091.15 525.55 1082.75 521.65 1065.7 513.7 1055.05 507.1 1048.15 502.85 1032.9 491.65 1027.55 487.65 1021 480.6 1013.8 472.3 1010.35 468.55 1004.35 462.05 999.85 459.25 994.15 455.5 988.55 455.85 983.05 456.25 972.55 453.4 966.55 451.75 952.8 447.1 Z"/>
</g>

<g id="Layer6_0_FILL">
<path fill="#000000" stroke="none" d="
M 1942 572.35
L 1925.25 622.1 2058.85 708.4 1942 572.35
M 1925.25 622.1
L 1939.25 738.7 2058.85 708.4 1925.25 622.1
M 1939.25 738.7
L 1924 732.3 1882.6 714.7 1775.5 670.65 1869.95 764.75 1939.25 738.7
M 1924 732.3
L 1939.25 738.7 1865.5 641.45 1775.5 670.65 1882.6 714.7 1925.25 731.7 1882.6 714.7 1924 732.3
M 1865.5 641.45
L 1925.25 622.1 1796.7 467.4 1865.5 641.45
M 1925.25 622.1
L 1865.5 641.45 1939.25 738.7 1925.25 622.1
M 1942 572.35
L 1875.1 476.4 1925.25 622.1 1942 572.35
M 1875.1 476.4
L 1796.7 467.4 1925.25 622.1 1875.1 476.4
M 1796.7 467.4
L 1775.5 670.65 1865.5 641.45 1796.7 467.4
M 1775.5 670.65
L 1796.7 467.4 1712.1 500.6 1775.5 670.65
M 1796.7 467.4
L 1875.1 476.4 1778.2 392.85 1796.7 467.4
M 1562.45 500.6
L 1602.55 662.75 1712.1 500.6 1562.45 500.6
M 1399.45 566.95
L 1495.35 607.5 1562.45 500.6 1399.45 566.95
M 1495.35 607.5
L 1399.45 566.95 1407.45 674.75 1495.35 607.5
M 1548.95 635.15
L 1602.55 662.75 1562.45 500.6 1495.35 607.5 1548.95 635.15
M 1345 669.75
L 1407.45 674.75 1399.45 566.95 1345 669.75
M 1326.2 614.65
L 1327.05 635.5 1399.45 566.95 1326.2 614.65
M 1327.05 635.5
L 1327.05 635.55 1345 669.75 1399.45 566.95 1327.05 635.5
M 1562.45 500.6
L 1535.7 433.15 1399.45 566.95 1562.45 500.6
M 1535.7 433.15
L 1562.45 500.6 1712.1 500.6 1796.7 467.4 1535.7 433.15
M 1778.2 392.85
L 1639.4 380.55 1535.7 433.15 1796.7 467.4 1778.2 392.85
M 1691.85 678.2
L 1712.1 500.6 1602.55 662.75 1691.85 678.2
M 1833.95 773.9
L 1869.95 764.75 1775.5 670.65 1833.95 773.9
M 1691.85 678.2
L 1775.5 670.65 1712.1 500.6 1691.85 678.2
M 1765.55 789.85
L 1775.5 670.65 1691.85 678.2 1738.3 796.35 1765.55 789.85
M 1775.5 670.65
L 1765.55 789.85 1833.95 773.9 1775.5 670.65
M 1501.15 760.4
L 1495.35 607.5 1407.45 747.55 1501.15 760.4
M 1542.4 759.55
L 1542.75 752.55 1543.45 736.05 1542.4 752.55 1543.45 736.05 1548.95 635.15 1495.35 607.5 1501.15 760.4 1542.4 759.55
M 1407.45 674.75
L 1407.45 747.55 1495.35 607.5 1407.45 674.75
M 1298.05 712.45
L 1407.45 747.55 1407.45 674.75 1298.05 712.45
M 1407.45 674.75
L 1345 669.75 1270.95 669.75 1298.05 712.45 1407.45 674.75
M 1345 669.75
L 1327.05 635.55 1270.95 669.75 1345 669.75
M 1327.05 635.55
L 1327.05 635.5 1326.2 614.65 1270.95 669.75 1327.05 635.55
M 1691.85 678.2
L 1662.05 788.9 1738.3 796.35 1691.85 678.2
M 1638.05 781.4
L 1662.05 788.9 1691.85 678.2 1638.05 781.4
M 1602.55 662.75
L 1614.05 773.95 1638.05 781.4 1691.85 678.2 1602.55 662.75
M 1602.55 662.75
L 1548.95 635.15 1543.45 736.05 1542.75 752.55 1542.4 759.55 1614.05 773.95 1602.55 662.75 Z"/>
</g>

<g id="Layer5_0_FILL">
<path fill="#000000" stroke="none" d="
M 1117.15 749.65
L 909.05 716.3 909.05 909.2 1117.15 949.65 1117.15 749.65
M 1252.25 683.65
L 1117.15 749.65 1117.15 949.65 1252.25 866.8 1252.25 683.65
M 1117.15 749.65
L 1252.25 683.65 1059.65 649.65 909.05 716.3 1117.15 749.65 Z"/>
</g>

<g id="Layer4_0_FILL">
<path fill="url(#Gradient_2)" stroke="none" d="
M 3348.95 1105.75
L 3348.95 877.45 -1281.85 877.45 -1281.85 1105.75 3348.95 1105.75 Z"/>
</g>

<g id="Layer2_0_FILL">
<path fill="#000000" stroke="none" d="
M 312 428.75
L 370 422.75 370 380.2 312 428.75
M 422.25 465.8
L 426.95 442.6 370 380.2 370 422.75 422.25 465.8
M 212.2 476.25
L 261.45 414.45 241.65 380.2 146.6 476.25 212.2 476.25
M 310.75 362.2
L 241.65 380.2 261.45 414.45 312 428.75 370 380.2 310.75 362.2
M 422.25 519.95
L 422.25 465.8 355.75 478.15 394.7 522.8 422.25 519.95
M 422.25 519.95
L 458.4 506.65 422.25 465.8 422.25 519.95
M 339.6 547.55
L 394.7 522.8 355.75 478.15 339.6 547.55
M 370 422.75
L 355.75 478.15 422.25 465.8 370 422.75
M 426.95 442.6
L 422.25 465.8 458.4 506.65 470.75 490.5 426.95 442.6
M 146.6 476.25
L 111.4 519 197.95 558.95 146.6 476.25
M 247.35 558.95
L 212.2 476.25 146.6 476.25 197.95 558.95 247.35 558.95
M 312 499.05
L 261.45 414.45 212.2 476.25 312 499.05
M 312 428.75
L 312 499.05 355.75 478.15 370 422.75 312 428.75
M 292.95 561.8
L 312 499.05 212.2 476.25 247.35 558.95 292.95 561.8
M 312 499.05
L 292.95 561.8 339.6 547.55 355.75 478.15 312 499.05
M 312 428.75
L 261.45 414.45 312 499.05 312 428.75 Z"/>
</g>

<g id="Layer2_1_FILL">
<path fill="#000000" stroke="none" d="
M 1117.15 749.65
L 909.05 716.3 909.05 909.2 1117.15 949.65 1117.15 749.65
M 1252.25 683.65
L 1117.15 749.65 1117.15 949.65 1252.25 866.8 1252.25 683.65
M 1117.15 749.65
L 1252.25 683.65 1059.65 649.65 909.05 716.3 1117.15 749.65 Z"/>
</g>

<path id="Layer12_0_1_STROKES" stroke="#FFFFFF" stroke-opacity="0.1568627450980392" stroke-width="3" stroke-linejoin="round" stroke-linecap="round" fill="none" d="
M 1775.5 670.65
L 1892.4 564.55"/>

<path id="Layer11_0_1_STROKES" stroke="#FFFFFF" stroke-width="1" stroke-linejoin="round" stroke-linecap="round" fill="none" d="
M -1109.95 1144.9
Q -1099.95 1083.7 -1056.55 1004.1 -1008.2 915.5 -933.4 833.75 -847.45 739.85 -740.5 671.25 -618 592.8 -477.8 554.2 -295.3 504 -91.05 468.25 -55.85 462.05 -20 456.4 -19 456.2 -18 456.05 -16 455.7 -14 455.4 135.6 431.6 296.45 415.35 648.1 379.7 1053.35 379.7 1458.7 379.7 1810.55 415.35 2019.8 436.55 2210 470.4 2211.7 470.7 2213.4 471 2213.7 471.05 2214 471.1 2215 471.3 2216 471.45 2315.95 489.3 2410.6 510.75 2475.25 525.35 2537.4 541.6 2561.15 547.75 2584.55 554.2 2720.85 591.7 2850.6 692.55 2954.4 773.2 3049.3 890.5 3117.1 974.25 3173.65 1067.95 3201.95 1114.8 3216.65 1144.9
M 1385 735.05
L 1464.15 703.05 1400.05 741.1"/>

<path id="Layer10_0_1_STROKES" stroke="#FFFFFF" stroke-opacity="0.1568627450980392" stroke-width="3" stroke-linejoin="round" stroke-linecap="round" fill="none" d="
M 255.05 416.3
Q 253.85 415.8 255.8 415.3 255.5 415.75 255.05 416.3 Z
M 255.8 415.3
Q 257.15 415.05 258.4 414.85 260.2 414.7 261.45 414.45
M 255.05 416.3
Q 257.5 417.35 274.15 418.1 277.15 418.25 361.25 431.6 445.3 444.9 467.4 453.55 489.45 462.2 504.05 470.7 518.6 479.2 520.85 497 523.1 514.8 521.15 524.65 519.15 534.7 513 538.5 508.95 541 495.4 543.8 478.2 547.4 465.7 551.9 448.35 558.1 420.95 568.65 397.05 577.9 388.25 580.9 361.4 590.05 314.4 596.65 267.4 603.25 225.75 596.4 184.1 589.55 144.75 586.8 105.4 584 80.2 555.3 54.95 526.6 62.6 509.95 70.3 493.2 83.45 486 96.5 478.75 117.45 471.95 138.4 465.2 161.95 462.5 185.55 459.85 218.1 441.35 248.5 423.95 255.05 416.3 Z"/>

<path id="Layer9_0_1_STROKES" stroke="#FFFFFF" stroke-opacity="0.1568627450980392" stroke-width="3" stroke-linejoin="round" stroke-linecap="round" fill="none" d="
M 1142 525.65
Q 1204.45 541.95 1231.2 542.9 1258 543.85 1295.55 544.8 1333.05 545.75 1350.9 549.65 1371.75 554.3 1400.7 558.8 1416.9 561.15 1429.5 564.95 1442 568.75 1465.55 580.6 1488.95 592.45 1496.75 598 1504.45 603.45 1532.85 622.95 1561.2 642.3 1563.8 644.75 1573.65 653.2 1573.65 656.6 1573.65 659.5 1580.3 664.05 1591.85 671.8 1595.1 674.7 1599.25 678.25 1670.95 675.45 1794.45 670.65 1844.05 658.3 1893.65 645.9 1994.35 663.7 2095.0462890625 681.5052734375 2131.2 695.775 2167.3611328125 710.03359375 2155.975 724.275 2144.58515625 738.5216796875 2084.75 751.65 2021.2171875 769.5267578125 2001.95 777.625 1982.68828125 785.7251953125 1957.875 789.45 1933.0548828125 793.1791015625 1901.675 805.075 1870.2962890625 816.9763671875 1833.075 827.575 1795.8466796875 838.1763671875 1736.675 843.675 1677.5103515625 849.162109375 1651.875 838.425 1626.2322265625 827.6865234375 1611.825 822.3 1597.4244140625 816.919140625 1587.45 813.525 1577.4705078125 810.1287109375 1561.95 806.25 1546.419140625 802.3810546875 1520.225 806.35 1494.0451171875 810.3033203125 1492.3 810.65 1467.4 816.55 1437.15 812.25 1406.8 807.8 1385.7 808.75 1364.6 809.7 1333.25 821.35 1301.9 832.85 1272.25 825.25 1242.95 817.6 1196.1 824.65 1183 826.65 1165.3 830.45 1151.05 833.55 1149.3 833.55 1114.65 830.85 1079.55 829.85 1010.5 827.85 983.95 835.55 955.75 843.7 925.2 845.05 906.1 845.85 877.5 843.7 869.4 843.2 854.4 845.45 831.4 848.9 826.3 849.45 787.6 853.35 753.05 839.65 715.05 824.65 684.85 817.8 663.4 812.95 649.85 812.95 645.05 812.95 611.2 806.25 573.55 798.75 546.7 796.35 509.8 793.3 480.1 785.1 478.35 784.65 476.5 784.1 447 775.65 422.15 761.45 393.5 745 380.2 729.8 365.35 712.8 366.55 693.7 367.75 672.65 378.5 644.2 389.6 614.8 399.25 609.3 410.25 603.05 416.15 597.4 420.35 592.6 422.15 591.25 424.85 589.4 431.95 589 437.4 588.75 455.85 582.35 474.2 576 495.7 574.55 517.15 573.3 531.65 569.3 546.15 565.2 554.05 562.8 569.65 557.9 584.3 557.9 599.05 557.9 617.95 552.4 628.7 549.25 652.9 546.25 677.2 543.25 694.5 540.25 711.7 537.35 733.55 528.65 755.4 519.85 777.25 521.1 807.85 522.95 852.95 522.95 898.05 522.95 950.4 523.2 986.2 522.8 1023.3 518.85 1042.4 516.8 1058.75 517 1068.75 517.25 1084.7 518.85 1100.7 520.4 1109.35 520.6 1124.35 520.9 1142 525.65 Z"/>

<path id="Layer8_0_1_STROKES" stroke="#FFFFFF" stroke-opacity="0.3764705882352941" stroke-width="3" stroke-linejoin="round" stroke-linecap="round" fill="none" d="
M 1162 559.6
Q 1219.85 572.65 1244.65 573.4 1269.45 574.2 1304.2 574.95 1339 575.7 1355.5 578.8 1374.85 582.55 1401.65 586.1 1416.65 588 1428.3 591.05 1439.95 594.1 1461.7 603.6 1483.4 613.05 1490.65 617.5 1497.75 621.9 1524.05 637.5 1550.3 653 1552.75 654.95 1561.8 661.7 1561.8 664.4 1561.8 666.8 1568 670.4 1578.7 676.6 1581.7 678.9 1585.55 681.75 1651.95 679.55 1766.35 675.7 1797.1 675.15 1892.15 673.7 1949.05 678.75 2022.7025390625 685.3548828125 2068.825 697.4 2114.9416015625 709.4333984375 2093.6 722.75 2072.259375 736.0697265625 2023 738.9 1978.858203125 750.0939453125 1956.875 759 1934.8916015625 767.8994140625 1906.525 779.5 1878.1541015625 791.1109375 1858.55 792.575 1838.9365234375 794.0302734375 1784.225 808.95 1729.5203125 823.88046875 1695.275 819.975 1661.028125 816.062109375 1632.375 805.675 1603.714453125 795.2935546875 1597.125 791.875 1590.5474609375 788.4689453125 1582.15 785.55 1573.7513671875 782.6263671875 1558.775 781.05 1543.798828125 779.466796875 1515.95 783.475 1488.100390625 787.4953125 1486.5 787.8 1463.4 792.5 1435.35 789.05 1407.3 785.55 1387.75 786.3 1368.25 787.05 1339.15 796.35 1310.1 805.6 1282.65 799.5 1255.45 793.4 1212.1 799 1199.95 800.6 1183.6 803.65 1170.35 806.1 1168.8 806.1 1136.65 803.95 1104.2 803.15 1040.15 801.6 1015.6 807.75 989.45 814.25 961.15 815.35 943.5 815.95 917 814.25 909.5 813.85 895.6 815.65 874.3 818.4 869.6 818.85 833.75 822 801.7 811 766.55 799 738.55 793.5 718.7 789.6 706.15 789.6 701.65 789.6 670.3 784.25 635.45 778.25 610.6 776.35 576.4 773.9 548.9 767.35 547.25 766.95 545.55 766.55 518.2 759.8 495.25 748.4 468.7 735.2 456.4 723.05 442.6 709.4 443.7 694.1 444.85 677.3 454.75 654.55 465.05 630.95 474 626.55 484.2 621.55 489.65 617.05 493.55 613.2 495.25 612.1 497.7 610.65 504.3 610.3 509.35 610.1 526.4 604.95 543.45 599.9 563.35 598.75 583.2 597.7 596.65 594.5 610.05 591.25 617.35 589.3 631.85 585.4 645.4 585.4 659.05 585.4 676.6 581.05 686.5 578.45 709 576.1 731.45 573.65 747.45 571.3 763.4 568.95 783.7 561.95 803.9 554.95 824.15 555.95 852.5 557.4 894.25 557.4 936 557.4 984.55 557.6 1017.7 557.3 1052.05 554.15 1069.75 552.45 1084.9 552.65 1094.15 552.85 1108.95 554.15 1123.75 555.35 1131.8 555.5 1145.6 555.8 1162 559.6 Z
M 493.05 478.85
Q 498.05 490.55 496.85 497.1 495.65 503.6 481.85 518.1 468.05 532.6 448.4 539.6 430.45 545.95 400.05 553.3 283.5 581.4 253.9 579.9 224.25 578.35 182.6 568.9 140.9 559.4 119.9 550.45 98.9 541.5 89.05 527.7 79.1 513.95 89.35 500.95 98.6 489.25 118.15 483.9 137.85 478.55 147.15 474.55 158.5 469.65 165.9 462.45 170.05 458.5 219.8 455.2 271.75 451.8 328.85 452.35 396.15 453 437.9 459.45 488.1 467.15 493.05 478.85 Z"/>

<path id="Layer7_0_1_STROKES" stroke="#FFFFFF" stroke-width="6" stroke-linejoin="round" stroke-linecap="round" fill="none" d="
M 1521.65 741.8
Q 1520.5 742.1 1504.25 748.85 1489.1 755.15 1486.25 755.4 1481.95 755.75 1462.9 761.75 1443.75 767.75 1440.1 768.1 1433.2 768.75 1419.05 768.35 1401.35 767.8 1388.9 765.6
L 1364.75 765.6
Q 1360.35 766.15 1346.6 764.7 1334.6 763.4 1327.05 765.55 1286.15 777.1 1260.1 771.7 1234.25 766.35 1192.95 771.35 1181.45 772.7 1165.8 775.35 1153.25 777.5 1151.75 777.5 1121.15 775.65 1090.25 774.95 1029.35 773.5 1005.95 778.95 981.05 784.7 954.15 785.6 937.35 786.15 912.15 784.7 905 784.25 891.8 785.85 871.5 788.3 867 788.65 832.9 791.4 802.4 781.8 768.9 771.25 742.35 766.45 723.4 763.05 711.45 763.05 707.2 763.05 677.35 758.35 644.15 753.15 620.5 751.45 588 749.3 561.8 743.55 560.2 743.2 558.65 742.8 532.6 736.9 510.8 726.95 485.45 715.4 473.8 704.75 460.65 692.8 461.7 679.3 463.05 662.05 466.6 650.45 471.3 635.3 479.35 631.65 505.4 619.8 511.55 617.9 522.1 614.65 556.25 609.25 562.85 608.25 581.6 606 598 604.05 606.9 602.4 625.85 598.75 645.55 593.55 655.5 591 661.5 589.1
L 701.1 581.25
Q 736.7 557.05 749.15 548.2 760.95 539.85 789.3 531.05 816.8 523.4 820.6 521.65 823.1 520.45 827.65 515.45 830 512.8 836.45 504.9 848.6 490 853.1 488.2 858.25 486.15 888.75 464.95 922.45 441.5 923.5 440.9 926.05 439.35 934.6 441.4 939.9 442.75 952.8 447.1 966.55 451.75 972.55 453.4 983.05 456.25 988.55 455.85 994.15 455.5 999.85 459.25 1004.35 462.05 1010.35 468.55 1013.8 472.3 1021 480.6 1027.55 487.65 1032.9 491.65 1048.15 502.85 1055.05 507.1 1065.7 513.7 1082.75 521.65 1091.15 525.55 1097.25 531.7 1101.35 535.8 1106.9 544 1113.45 553.7 1116.9 557.85 1130 558.2 1148.2 566.35 1215.15 580.4 1239.15 580.15 1263.2 579.9 1289.2 586 1315.15 592.1 1331.9 590.6 1348.5 589.2 1364 593.45 1379.5 597.5 1401.65 601.25 1423.75 604.95 1436.05 607.75 1448.35 610.5 1457.5 611.85 1466.6 613.15 1487.3 628.25 1508 643.3 1512.65 644.65 1517.2 645.95 1521.05 650.45 1524.95 654.95 1533.35 659.5 1541.75 664 1557.25 672.95 1572.7 681.95 1571.1 699.65 1569.45 717.35 1552.05 726.8 1534.75 736.2 1523.75 740.8 1522.3 741.45 1521.65 741.8 Z"/>

<path id="Layer7_0_2_STROKES" stroke="#FFFFFF" stroke-width="3" stroke-linejoin="round" stroke-linecap="round" fill="none" d="
M 1116.9 557.85
Q 1123.7 565.95 1132.6 572.45 1147.8 583.45 1152 587.7 1157.65 593.45 1164.3 598.65 1167.85 601.45 1176.35 609.15 1184.2 615.7 1189.4 616.95 1203.1 620.3 1218 627.15 1239.2 636.8 1232.45 642.85 1214.2 659.25 1197.45 667.8 1177.95 677.7 1150.1 682.95 1135.35 684.75 1120.45 687.3 1091.7 692.25 1063.75 701 1048.65 705.7 1008.5 708.6 965.7 711.7 962.95 712.3 953.4 714.4 924.85 713.75 896.4 713.05 860.4 709.9 833.7 707.55 817.2 702.15 805.35 698.25 804.2 697.95 796.05 695.65 785.55 694.2 704.15 683 691.7 670.8 686.15 665.4 669 658.3 664.45 656.4 655.1 652.6 647.2 649.25 642.55 646.75 630.05 639.95 631.05 632.95 632.3 624.35 653.35 613.55 680.95 594.95 701.1 581.25"/>

<path id="Layer6_0_1_STROKES" stroke="#FFFFFF" stroke-width="4" stroke-linejoin="round" stroke-linecap="round" fill="none" d="
M 1778.2 392.85
L 1639.4 380.55 1535.7 433.15 1796.7 467.4 1778.2 392.85 1875.1 476.4 1942 572.35 2058.85 708.4
M 1501.15 760.4
L 1407.45 747.55 1298.05 712.45 1270.95 669.75 1326.2 614.65 1399.45 566.95 1535.7 433.15 1562.45 500.6 1712.1 500.6 1796.7 467.4 1875.1 476.4 1925.25 622.1 1942 572.35
M 1345 669.75
L 1399.45 566.95 1327.05 635.525 1327.05 635.55 1345 669.75 1407.45 674.75 1399.45 566.95 1562.45 500.6 1602.55 662.75 1712.1 500.6 1775.5 670.65 1796.7 467.4 1925.25 622.1 2058.85 708.4
M 1326.2 614.65
L 1327.05 635.525
M 1407.45 747.55
L 1407.45 674.75 1298.05 712.45
M 1614.05 773.95
L 1602.55 662.75 1548.95 635.15 1543.475 736.05 1542.75 752.575 1542.4 759.55
M 1543.475 736.05
L 1542.4 752.55
M 1501.15 760.4
L 1495.35 607.5 1407.45 747.55
M 1548.95 635.15
L 1495.35 607.5 1399.45 566.95
M 1562.45 500.6
L 1495.35 607.5 1407.45 674.75
M 1662.05 788.9
L 1691.85 678.2 1638.05 781.425
M 1833.95 773.9
L 1775.5 670.65 1765.55 789.85
M 1775.5 670.65
L 1691.85 678.2 1738.3 796.35
M 1925.25 622.1
L 1865.5 641.45 1939.25 738.7 1925.25 622.1 Z
M 1925.25 731.7
L 1882.625 714.725 1924.025 732.325 1939.25 738.7
M 1775.5 670.65
L 1865.5 641.45 1796.7 467.4
M 1882.625 714.725
L 1775.5 670.65 1869.95 764.75
M 1712.1 500.6
L 1691.85 678.2 1602.55 662.75
M 1327.05 635.55
L 1270.95 669.75 1345 669.75"/>

<path id="Layer5_0_1_STROKES" stroke="#FFFFFF" stroke-width="4" stroke-linejoin="round" stroke-linecap="round" fill="none" d="
M 1753.8083953857422 365.62772827148433
L 1695.115151977539 375.03387756347655 1657.0110809326172 356.41900939941405 1711.3326507568358 346.82953186035155 1753.8083953857422 365.62772827148433 Z
M 1753.8083953857422 365.62772827148433
L 1753.8083953857422 420.0339111328125 1695.115151977539 431.4425689697265 1695.115151977539 375.03387756347655
M 1657.0110809326172 356.41900939941405
L 1657.0110809326172 408.07526855468745 1695.115151977539 431.4425689697265"/>

<path id="Layer4_0_1_STROKES" stroke="#FFFFFF" stroke-width="4" stroke-linejoin="round" stroke-linecap="round" fill="none" d="
M 3348.95 1113.75
L 3348.95 1197.75 -1281.85 1197.75 -1281.85 1113.75"/>

<path id="Layer2_0_1_STROKES" stroke="#FFFFFF" stroke-width="4" stroke-linejoin="round" stroke-linecap="round" fill="none" d="
M 111.4 519
L 146.6 476.25 241.65 380.2 310.75 362.2 370 380.2 426.95 442.6 470.75 490.5
M 312 428.75
L 261.45 414.45 312 499.05 312 428.75 370 380.2 370 422.75 422.25 465.8 426.95 442.6
M 339.6 547.55
L 355.75 478.15 312 499.05 292.95 561.8
M 247.35 558.95
L 212.2 476.25 146.6 476.25 197.95 558.95
M 212.2 476.25
L 261.45 414.45 241.65 380.2
M 212.2 476.25
L 312 499.05
M 355.75 478.15
L 370 422.75 312 428.75
M 458.4 506.65
L 422.25 465.8 422.25 519.95
M 422.25 465.8
L 355.75 478.15 394.7 522.8"/>

<path id="Layer2_1_1_STROKES" stroke="#FFFFFF" stroke-width="4" stroke-linejoin="round" stroke-linecap="round" fill="none" d="
M 265.69081115722656 351.88556518554685
L 310.7173309326172 359.1014923095703 339.94886779785156 344.8210968017578 298.2760772705078 337.4645294189453 265.69081115722656 351.88556518554685 Z
M 265.69081115722656 351.88556518554685
L 265.69081115722656 393.6232666015625 310.7173309326172 402.3754180908203 310.7173309326172 359.1014923095703
M 339.94886779785156 344.8210968017578
L 339.94886779785156 384.4491943359375 310.7173309326172 402.3754180908203"/>
</defs>

<g transform="matrix( 1, 0, 0, 1, 0,0) ">
<use xlink:href="#Layer12_0_1_STROKES"/>
</g>

<g transform="matrix( 1, 0, 0, 1, 0,0) ">
<use xlink:href="#Layer11_0_FILL"/>

<use xlink:href="#Layer11_0_1_STROKES"/>
</g>

<g transform="matrix( 1, 0, 0, 1, 0,0) ">
<use xlink:href="#Layer10_0_1_STROKES"/>
</g>

<g transform="matrix( 1, 0, 0, 1, 0,0) ">
<use xlink:href="#Layer9_0_1_STROKES"/>
</g>

<g transform="matrix( 1, 0, 0, 1, 0,0) ">
<use xlink:href="#Layer8_0_1_STROKES"/>
</g>

<g transform="matrix( 1, 0, 0, 1, 0,0) ">
<use xlink:href="#Layer7_0_FILL"/>

<use xlink:href="#Layer7_0_1_STROKES"/>

<use xlink:href="#Layer7_0_2_STROKES"/>
</g>

<g transform="matrix( 1, 0, 0, 1, 0,0) ">
<use xlink:href="#Layer6_0_FILL"/>

<use xlink:href="#Layer6_0_1_STROKES"/>
</g>

<g transform="matrix( -0.28204345703125, 0, 0, 0.28204345703125, 2010.2,163.6) ">
<use xlink:href="#Layer5_0_FILL"/>

<use xlink:href="#Layer5_0_1_STROKES" transform="matrix( -3.5455474853515625, 0, 0, 3.5455474853515625, 7127.25,-580.05) "/>
</g>

<g transform="matrix( 1, 0, 0, 1, 0,0) ">
<use xlink:href="#Layer4_0_FILL"/>

<use xlink:href="#Layer4_0_1_STROKES"/>
</g>

<g transform="matrix( 1, 0, 0, 1, 0,0) ">
<use xlink:href="#Layer2_0_FILL"/>

<use xlink:href="#Layer2_0_1_STROKES"/>
</g>

<g transform="matrix( 0.21636962890625, 0, 0, 0.21636962890625, 69,196.9) ">
<use xlink:href="#Layer2_1_FILL"/>

<use xlink:href="#Layer2_1_1_STROKES" transform="matrix( 4.6217193603515625, 0, 0, 4.6217193603515625, -318.85,-910) "/>
</g>
</svg>
