
<svg xmlns="http://www.w3.org/2000/svg" version="1.1" xmlns:xlink="http://www.w3.org/1999/xlink" preserveAspectRatio="none" x="0px" y="0px" width="2196px" height="1100px" viewBox="0 0 2196 1100">
<defs>
<radialGradient id="Gradient_1" gradientUnits="userSpaceOnUse" cx="0" cy="0" r="608.8" fx="0" fy="0" gradientTransform="matrix( 0, 1.0000000000000002, -14.879332293035482, 0, 1167.2,982.95) " spreadMethod="pad">
<stop  offset="0%" stop-color="#000000"/>

<stop  offset="100%" stop-color="#001D2D"/>
</radialGradient>

<g id="Layer11_0_FILL">
<path fill="url(#Gradient_1)" stroke="none" d="
M 2216 471.45
Q 2215 471.3 2214 471.1 2213.7 471.05 2213.4 471 2211.7 470.7 2210 470.4 2019.8 436.55 1810.55 415.35 1458.7 379.7 1053.35 379.7 648.1 379.7 296.45 415.35 135.6 431.6 -14 455.4 -16 455.7 -18 456.05 -19 456.2 -20 456.4 -55.85 462.05 -91.05 468.25 -295.3 504 -477.8 554.2 -618 592.8 -740.5 671.25 -847.45 739.85 -933.4 833.75 -1008.2 915.5 -1056.55 1004.1 -1099.95 1083.7 -1109.95 1144.9
L 3216.65 1144.9
Q 3201.95 1114.8 3173.65 1067.95 3117.1 974.25 3049.3 890.5 2954.4 773.2 2850.6 692.55 2720.85 591.7 2584.55 554.2 2561.15 547.75 2537.4 541.6 2475.25 525.35 2410.6 510.75 2315.95 489.3 2216 471.45
M 1464.15 703.05
L 1400.05 741.1 1464.15 703.05 1385 735.05 1464.15 703.05 Z"/>
</g>

<g id="Layer7_0_FILL">
<path fill="#333333" stroke="none" d="
M 952.8 447.1
Q 939.9 442.75 934.6 441.4 926.05 439.35 923.5 440.9 922.45 441.5 888.75 464.95 858.25 486.15 853.1 488.2 848.6 490 836.45 504.9 830 512.8 827.65 515.45 823.1 520.45 820.6 521.65 816.8 523.4 789.3 531.05 760.95 539.85 749.15 548.2 736.7 557.05 701.1 581.25 680.95 594.95 653.35 613.55 632.3 624.35 631.05 632.95 630.05 639.95 642.55 646.75 647.2 649.25 655.1 652.6 664.45 656.4 669 658.3 686.15 665.4 691.7 670.8 704.15 683 785.55 694.2 834.25 700.85 903.8 706.6 981.35 713.05 1020.65 708.45 1029.25 707.4 1035.85 702.4 1038.45 700.45 1041.5 697.3 1041.6 697.2 1046.85 691.55 1053.95 683.95 1060.25 680 1069.7 674 1082.8 671.6 1092.55 669.75 1117.3 666.3 1143.65 662.65 1156.8 660.35 1178.9 656.5 1193.2 651.95 1210.55 646.4 1218.45 639.35 1222.1 636.05 1219.55 632.15 1217.35 628.85 1211 625.4 1205.9 622.55 1198.95 620 1193.3 617.9 1189.4 616.95 1183.8 615.6 1176.35 610.9 1171.4 607.8 1164.3 602.15 1158.6 597.7 1155.75 594.45 1155 593.55 1152.05 589.45 1149.85 586.45 1146.45 583.4 1141.75 579.1 1132.6 572.45 1123.7 565.95 1116.9 557.85 1113.45 553.7 1106.9 544 1101.35 535.8 1097.25 531.7 1091.15 525.55 1082.75 521.65 1065.7 513.7 1055.05 507.1 1048.15 502.85 1032.9 491.65 1027.55 487.65 1021 480.6 1013.8 472.3 1010.35 468.55 1004.35 462.05 999.85 459.25 994.15 455.5 988.55 455.85 983.05 456.25 972.55 453.4 966.55 451.75 952.8 447.1
M 1364 593.45
Q 1348.5 589.2 1331.9 590.6 1315.15 592.1 1289.2 586 1263.2 579.9 1239.15 580.15 1215.15 580.4 1148.2 566.35 1130 558.2 1116.9 557.85 1123.7 565.95 1132.6 572.45 1141.75 579.1 1146.45 583.4 1149.85 586.45 1152.05 589.45 1155 593.55 1155.75 594.45 1158.6 597.7 1164.3 602.15 1171.4 607.8 1176.35 610.9 1183.8 615.6 1189.4 616.95 1193.3 617.9 1198.95 620 1205.9 622.55 1211 625.4 1217.35 628.85 1219.55 632.15 1222.1 636.05 1218.45 639.35 1210.55 646.4 1193.2 651.95 1178.9 656.5 1156.8 660.35 1143.65 662.65 1117.3 666.3 1092.55 669.75 1082.8 671.6 1069.7 674 1060.25 680 1053.95 683.95 1046.85 691.55 1041.6 697.2 1041.5 697.3 1038.45 700.45 1035.85 702.4 1029.25 707.4 1020.65 708.45 981.35 713.05 903.8 706.6 834.25 700.85 785.55 694.2 704.15 683 691.7 670.8 686.15 665.4 669 658.3 664.45 656.4 655.1 652.6 647.2 649.25 642.55 646.75 630.05 639.95 631.05 632.95 632.3 624.35 653.35 613.55 680.95 594.95 701.1 581.25
L 661.5 589.1
Q 655.5 591 645.55 593.55 625.85 598.75 606.9 602.4 598 604.05 581.6 606 562.85 608.25 556.25 609.25 522.1 614.65 511.55 617.9 505.4 619.8 479.35 631.65 471.3 635.3 466.6 650.45 463.05 662.05 461.7 679.3 460.65 692.8 473.8 704.75 485.45 715.4 510.8 726.95 532.6 736.9 558.65 742.8 560.2 743.2 561.8 743.55 588 749.3 620.5 751.45 644.15 753.15 677.35 758.35 707.2 763.05 711.45 763.05 723.4 763.05 742.35 766.45 768.9 771.25 802.4 781.8 832.9 791.4 867 788.65 871.5 788.3 891.8 785.85 905 784.25 912.15 784.7 937.35 786.15 954.15 785.6 981.05 784.7 1005.95 778.95 1029.35 773.5 1090.25 774.95 1121.15 775.65 1151.75 777.5 1153.25 777.5 1165.8 775.35 1181.45 772.7 1192.95 771.35 1234.25 766.35 1260.1 771.7 1286.15 777.1 1327.05 765.55 1347.35 759.8 1364.75 757.6
L 1388.9 757.6
Q 1417.05 762.65 1426.1 764.5 1432.05 765.65 1508.25 745.4 1515.45 743.45 1521.65 741.8 1522.3 741.45 1523.75 740.8 1534.75 736.2 1552.05 726.8 1569.45 717.35 1571.1 699.65 1572.7 681.95 1557.25 672.95 1541.75 664 1533.35 659.5 1524.95 654.95 1521.05 650.45 1517.2 645.95 1512.65 644.65 1508 643.3 1487.3 628.25 1466.6 613.15 1457.5 611.85 1448.35 610.5 1436.05 607.75 1423.75 604.95 1401.65 601.25 1379.5 597.5 1364 593.45 Z"/>
</g>

<g id="Layer6_0_FILL">
<path fill="#000000" stroke="none" d="
M 1942 572.35
L 1925.25 622.1 2048.85 708.4 1942 572.35
M 1809.7 500.6
L 1775.5 670.65 1865.5 641.45 1809.7 500.6
M 1691.85 678.2
L 1712.1 500.6 1602.55 662.75 1691.85 678.2
M 1712.1 500.6
L 1775.5 670.65 1809.7 500.6 1712.1 500.6
M 1809.7 500.6
L 1778.2 401.85 1599.3 441.9 1809.7 500.6
M 1925.25 622.1
L 1925.25 731.7 2048.85 708.4 1925.25 622.1
M 1850 769.6
L 1925.25 731.7 1775.5 670.65 1850 769.6
M 1925.25 731.7
L 1865.5 641.45 1775.5 670.65 1925.25 731.7
M 1865.5 641.45
L 1925.25 622.1 1809.7 500.6 1865.5 641.45
M 1925.25 622.1
L 1865.5 641.45 1925.25 731.7 1925.25 622.1
M 1691.85 678.2
L 1641.05 767.9 1738.3 796.35 1691.85 678.2
M 1691.85 678.2
L 1775.5 670.65 1712.1 500.6 1691.85 678.2
M 1765.55 789.85
L 1775.5 670.65 1691.85 678.2 1738.3 796.35 1765.55 789.85
M 1775.5 670.65
L 1765.55 789.85 1850 769.6 1775.5 670.65
M 1809.7 500.6
L 1875.1 476.4 1778.2 401.85 1809.7 500.6
M 1875.1 476.4
L 1809.7 500.6 1925.25 622.1 1875.1 476.4
M 1942 572.35
L 1875.1 476.4 1925.25 622.1 1942 572.35
M 1495.35 607.5
L 1614.5 500.6 1393.3 607.5 1495.35 607.5
M 1614.5 500.6
L 1602.55 662.75 1712.1 500.6 1614.5 500.6
M 1495.35 607.5
L 1503.3 748.5 1542.4 752.55 1548.95 635.15 1495.35 607.5
M 1503.3 748.5
L 1495.35 607.5 1421.5 741.95 1503.3 748.5
M 1602.55 662.75
L 1614.05 759.95 1641.05 767.9 1691.85 678.2 1602.55 662.75
M 1548.95 635.15
L 1602.55 662.75 1614.5 500.6 1495.35 607.5 1548.95 635.15
M 1602.55 662.75
L 1548.95 635.15 1542.4 752.55 1614.05 759.95 1602.55 662.75
M 1407.45 674.75
L 1421.5 741.95 1495.35 607.5 1407.45 674.75
M 1421.5 741.95
L 1407.45 674.75 1345 669.75 1271.95 694.9 1421.5 741.95
M 1345 669.75
L 1296.65 631.25 1271.95 694.9 1345 669.75
M 1296.65 631.25
L 1345 669.75 1393.3 607.5 1296.65 631.25
M 1393.3 607.5
L 1407.45 674.75 1495.35 607.5 1393.3 607.5
M 1407.45 674.75
L 1393.3 607.5 1345 669.75 1407.45 674.75
M 1614.5 500.6
L 1599.3 441.9 1393.3 607.5 1614.5 500.6
M 1599.3 441.9
L 1614.5 500.6 1712.1 500.6 1809.7 500.6 1599.3 441.9 Z"/>
</g>

<g id="Layer5_0_FILL">
<path fill="#000000" stroke="none" d="
M 1117.15 749.65
L 909.05 716.3 909.05 909.2 1117.15 949.65 1117.15 749.65
M 1252.25 683.65
L 1117.15 749.65 1117.15 949.65 1252.25 866.8 1252.25 683.65
M 1117.15 749.65
L 1252.25 683.65 1059.65 649.65 909.05 716.3 1117.15 749.65 Z"/>
</g>

<g id="Layer2_0_FILL">
<path fill="#000000" stroke="none" d="
M 370 380.2
L 312 428.75 370 422.75 370 380.2
M 355.75 478.15
L 394.7 522.8 422.25 519.95 422.25 465.8 355.75 478.15
M 422.25 519.95
L 458.4 506.65 422.25 465.8 422.25 519.95
M 339.6 547.55
L 394.7 522.8 355.75 478.15 339.6 547.55
M 370 422.75
L 355.75 478.15 422.25 465.8 370 422.75
M 422.25 465.8
L 426.95 442.6 370 380.2 370 422.75 422.25 465.8
M 470.75 490.5
L 426.95 442.6 422.25 465.8 458.4 506.65 470.75 490.5
M 146.6 476.25
L 111.4 519 197.95 558.95 146.6 476.25
M 312 428.75
L 312 499.05 355.75 478.15 370 422.75 312 428.75
M 247.35 558.95
L 212.2 476.25 146.6 476.25 197.95 558.95 247.35 558.95
M 212.2 476.25
L 261.45 414.45 241.65 380.2 146.6 476.25 212.2 476.25
M 212.2 476.25
L 312 499.05 261.45 414.45 212.2 476.25
M 292.95 561.8
L 312 499.05 212.2 476.25 247.35 558.95 292.95 561.8
M 312 499.05
L 292.95 561.8 339.6 547.55 355.75 478.15 312 499.05
M 261.45 414.45
L 312 428.75 370 380.2 241.65 380.2 261.45 414.45
M 312 428.75
L 261.45 414.45 312 499.05 312 428.75 Z"/>
</g>

<g id="Layer2_1_FILL">
<path fill="#000000" stroke="none" d="
M 1117.15 749.65
L 909.05 716.3 909.05 909.2 1117.15 949.65 1117.15 749.65
M 1252.25 683.65
L 1117.15 749.65 1117.15 949.65 1252.25 866.8 1252.25 683.65
M 1117.15 749.65
L 1252.25 683.65 1059.65 649.65 909.05 716.3 1117.15 749.65 Z"/>
</g>

<path id="Layer12_0_1_STROKES" stroke="#FFFFFF" stroke-opacity="0.1568627450980392" stroke-width="3" stroke-linejoin="round" stroke-linecap="round" fill="none" d="
M 1775.5 670.65
L 1892.4 564.55"/>

<path id="Layer11_0_1_STROKES" stroke="#FFFFFF" stroke-width="1" stroke-linejoin="round" stroke-linecap="round" fill="none" d="
M -1109.95 1144.9
Q -1099.95 1083.7 -1056.55 1004.1 -1008.2 915.5 -933.4 833.75 -847.45 739.85 -740.5 671.25 -618 592.8 -477.8 554.2 -295.3 504 -91.05 468.25 -55.85 462.05 -20 456.4 -19 456.2 -18 456.05 -16 455.7 -14 455.4 135.6 431.6 296.45 415.35 648.1 379.7 1053.35 379.7 1458.7 379.7 1810.55 415.35 2019.8 436.55 2210 470.4 2211.7 470.7 2213.4 471 2213.7 471.05 2214 471.1 2215 471.3 2216 471.45 2315.95 489.3 2410.6 510.75 2475.25 525.35 2537.4 541.6 2561.15 547.75 2584.55 554.2 2720.85 591.7 2850.6 692.55 2954.4 773.2 3049.3 890.5 3117.1 974.25 3173.65 1067.95 3201.95 1114.8 3216.65 1144.9
M 1385 735.05
L 1464.15 703.05 1400.05 741.1"/>

<path id="Layer10_0_1_STROKES" stroke="#FFFFFF" stroke-opacity="0.1568627450980392" stroke-width="3" stroke-linejoin="round" stroke-linecap="round" fill="none" d="
M 261.45 414.45
Q 260.2 414.7 258.4 414.85 257.15 415.05 255.8 415.3 255.5 415.75 255.05 416.3 257.5 417.35 274.15 418.1 277.15 418.25 361.25 431.6 445.3 444.9 467.4 453.55 489.45 462.2 504.05 470.7 518.6 479.2 520.85 497 523.1 514.8 521.15 524.65 519.15 534.7 513 538.5 508.95 541 495.4 543.8 478.2 547.4 465.7 551.9 448.35 558.1 420.95 568.65 397.05 577.9 388.25 580.9 361.4 590.05 314.4 596.65 267.4 603.25 225.75 596.4 184.1 589.55 144.75 586.8 105.4 584 80.2 555.3 54.95 526.6 62.6 509.95 70.3 493.2 83.45 486 96.5 478.75 117.45 471.95 138.4 465.2 161.95 462.5 185.55 459.85 218.1 441.35 248.5 423.95 255.05 416.3 253.85 415.8 255.8 415.3"/>

<path id="Layer9_0_1_STROKES" stroke="#FFFFFF" stroke-opacity="0.1568627450980392" stroke-width="3" stroke-linejoin="round" stroke-linecap="round" fill="none" d="
M 1142 525.65
Q 1204.45 541.95 1231.2 542.9 1258 543.85 1295.55 544.8 1333.05 545.75 1350.9 549.65 1371.75 554.3 1400.7 558.8 1416.9 561.15 1429.5 564.95 1442 568.75 1465.55 580.6 1488.95 592.45 1496.75 598 1504.45 603.45 1532.85 622.95 1561.2 642.3 1563.8 644.75 1573.65 653.2 1573.65 656.6 1573.65 659.5 1580.3 664.05 1591.85 671.8 1595.1 674.7 1599.25 678.25 1670.95 675.45 1794.45 670.65 1844.05 658.3 1893.65 645.9 1994.35 663.7 2095.05 681.5 2108.05 699.75 2121.05 718 2126.95 729.3 2132.8 740.55 2084.75 751.65 2015 752.35 1997.15 758.6 1965.75 769.45 1948.7 781.2 1932.2 792.55 1904.45 804.6 1873.05 818.2 1839.4 826.9 1752.7 849.5 1692.35 830.8 1664.25 822.1 1640.1 813.05 1617.85 804.4 1609.85 801.5 1597.15 796.85 1587.35 795.3 1576 793.4 1558.3 793.65 1547.2 793.75 1525.15 800.6 1494.05 810.3 1492.3 810.65 1467.4 816.55 1437.15 812.25 1406.8 807.8 1385.7 808.75 1364.6 809.7 1333.25 821.35 1301.9 832.85 1272.25 825.25 1242.95 817.6 1196.1 824.65 1183 826.65 1165.3 830.45 1151.05 833.55 1149.3 833.55 1114.65 830.85 1079.55 829.85 1010.5 827.85 983.95 835.55 955.75 843.7 925.2 845.05 906.1 845.85 877.5 843.7 869.4 843.2 854.4 845.45 831.4 848.9 826.3 849.45 787.6 853.35 753.05 839.65 715.05 824.65 684.85 817.8 663.4 812.95 649.85 812.95 645.05 812.95 611.2 806.25 573.55 798.75 546.7 796.35 509.8 793.3 480.1 785.1 478.35 784.65 476.5 784.1 447 775.65 422.15 761.45 393.5 745 380.2 729.8 365.35 712.8 366.55 693.7 367.75 672.65 378.5 644.2 389.6 614.8 399.25 609.3 410.25 603.05 416.15 597.4 420.35 592.6 422.15 591.25 424.85 589.4 431.95 589 437.4 588.75 455.85 582.35 474.2 576 495.7 574.55 517.15 573.3 531.65 569.3 546.15 565.2 554.05 562.8 569.65 557.9 584.3 557.9 599.05 557.9 617.95 552.4 628.7 549.25 652.9 546.25 677.2 543.25 694.5 540.25 711.7 537.35 733.55 528.65 755.4 519.85 777.25 521.1 807.85 522.95 852.95 522.95 898.05 522.95 950.4 523.2 986.2 522.8 1023.3 518.85 1042.4 516.8 1058.75 517 1068.75 517.25 1084.7 518.85 1100.7 520.4 1109.35 520.6 1124.35 520.9 1142 525.65 Z"/>

<path id="Layer8_0_1_STROKES" stroke="#FFFFFF" stroke-opacity="0.3764705882352941" stroke-width="3" stroke-linejoin="round" stroke-linecap="round" fill="none" d="
M 1162 559.6
Q 1219.85 572.65 1244.65 573.4 1269.45 574.2 1304.2 574.95 1339 575.7 1355.5 578.8 1374.85 582.55 1401.65 586.1 1416.65 588 1428.3 591.05 1439.95 594.1 1461.7 603.6 1483.4 613.05 1490.65 617.5 1497.75 621.9 1524.05 637.5 1550.3 653 1552.75 654.95 1561.8 661.7 1561.8 664.4 1561.8 666.8 1568 670.4 1578.7 676.6 1581.7 678.9 1585.55 681.75 1651.95 679.55 1766.35 675.7 1797.1 675.15 1892.15 673.7 1949.05 678.75 2022.7 685.35 2059.25 698.45 2095.75 711.45 2074.6 718.35 2053.45 725.25 2023.6 730.85 1970.7 741.1 1954.1 746.1 1925.05 754.8 1909.25 764.2 1893.95 773.35 1868.25 782.9 1839.15 793.8 1808 800.85 1727.7 818.9 1671.75 803.95 1645.75 796.95 1623.4 789.7 1602.75 782.8 1595.35 780.45 1583.6 776.75 1574.5 775.45 1564.05 774 1547.6 774.2 1537.3 774.3 1516.9 779.75 1488.1 787.5 1486.5 787.8 1463.4 792.5 1435.35 789.05 1407.3 785.55 1387.75 786.3 1368.25 787.05 1339.15 796.35 1310.1 805.6 1282.65 799.5 1255.45 793.4 1212.1 799 1199.95 800.6 1183.6 803.65 1170.35 806.1 1168.8 806.1 1136.65 803.95 1104.2 803.15 1040.15 801.6 1015.6 807.75 989.45 814.25 961.15 815.35 943.5 815.95 917 814.25 909.5 813.85 895.6 815.65 874.3 818.4 869.6 818.85 833.75 822 801.7 811 766.55 799 738.55 793.5 718.7 789.6 706.15 789.6 701.65 789.6 670.3 784.25 635.45 778.25 610.6 776.35 576.4 773.9 548.9 767.35 547.25 766.95 545.55 766.55 518.2 759.8 495.25 748.4 468.7 735.2 456.4 723.05 442.6 709.4 443.7 694.1 444.85 677.3 454.75 654.55 465.05 630.95 474 626.55 484.2 621.55 489.65 617.05 493.55 613.2 495.25 612.1 497.7 610.65 504.3 610.3 509.35 610.1 526.4 604.95 543.45 599.9 563.35 598.75 583.2 597.7 596.65 594.5 610.05 591.25 617.35 589.3 631.85 585.4 645.4 585.4 659.05 585.4 676.6 581.05 686.5 578.45 709 576.1 731.45 573.65 747.45 571.3 763.4 568.95 783.7 561.95 803.9 554.95 824.15 555.95 852.5 557.4 894.25 557.4 936 557.4 984.55 557.6 1017.7 557.3 1052.05 554.15 1069.75 552.45 1084.9 552.65 1094.15 552.85 1108.95 554.15 1123.75 555.35 1131.8 555.5 1145.6 555.8 1162 559.6 Z
M 493.05 478.85
Q 498.05 490.55 496.85 497.1 495.65 503.6 481.85 518.1 468.05 532.6 448.4 539.6 430.45 545.95 400.05 553.3 283.5 581.4 253.9 579.9 224.25 578.35 182.6 568.9 140.9 559.4 119.9 550.45 98.9 541.5 89.05 527.7 79.1 513.95 89.35 500.95 98.6 489.25 118.15 483.9 137.85 478.55 147.15 474.55 158.5 469.65 165.9 462.45 170.05 458.5 219.8 455.2 271.75 451.8 328.85 452.35 396.15 453 437.9 459.45 488.1 467.15 493.05 478.85 Z"/>

<path id="Layer7_0_1_STROKES" stroke="#FFFFFF" stroke-width="6" stroke-linejoin="round" stroke-linecap="round" fill="none" d="
M 1521.65 741.8
Q 1515.45 743.45 1508.25 745.4 1432.05 765.65 1426.1 764.5 1417.05 762.65 1388.9 757.6
L 1364.75 757.6
Q 1347.35 759.8 1327.05 765.55 1286.15 777.1 1260.1 771.7 1234.25 766.35 1192.95 771.35 1181.45 772.7 1165.8 775.35 1153.25 777.5 1151.75 777.5 1121.15 775.65 1090.25 774.95 1029.35 773.5 1005.95 778.95 981.05 784.7 954.15 785.6 937.35 786.15 912.15 784.7 905 784.25 891.8 785.85 871.5 788.3 867 788.65 832.9 791.4 802.4 781.8 768.9 771.25 742.35 766.45 723.4 763.05 711.45 763.05 707.2 763.05 677.35 758.35 644.15 753.15 620.5 751.45 588 749.3 561.8 743.55 560.2 743.2 558.65 742.8 532.6 736.9 510.8 726.95 485.45 715.4 473.8 704.75 460.65 692.8 461.7 679.3 463.05 662.05 466.6 650.45 471.3 635.3 479.35 631.65 505.4 619.8 511.55 617.9 522.1 614.65 556.25 609.25 562.85 608.25 581.6 606 598 604.05 606.9 602.4 625.85 598.75 645.55 593.55 655.5 591 661.5 589.1
L 701.1 581.25
Q 736.7 557.05 749.15 548.2 760.95 539.85 789.3 531.05 816.8 523.4 820.6 521.65 823.1 520.45 827.65 515.45 830 512.8 836.45 504.9 848.6 490 853.1 488.2 858.25 486.15 888.75 464.95 922.45 441.5 923.5 440.9 926.05 439.35 934.6 441.4 939.9 442.75 952.8 447.1 966.55 451.75 972.55 453.4 983.05 456.25 988.55 455.85 994.15 455.5 999.85 459.25 1004.35 462.05 1010.35 468.55 1013.8 472.3 1021 480.6 1027.55 487.65 1032.9 491.65 1048.15 502.85 1055.05 507.1 1065.7 513.7 1082.75 521.65 1091.15 525.55 1097.25 531.7 1101.35 535.8 1106.9 544 1113.45 553.7 1116.9 557.85 1130 558.2 1148.2 566.35 1215.15 580.4 1239.15 580.15 1263.2 579.9 1289.2 586 1315.15 592.1 1331.9 590.6 1348.5 589.2 1364 593.45 1379.5 597.5 1401.65 601.25 1423.75 604.95 1436.05 607.75 1448.35 610.5 1457.5 611.85 1466.6 613.15 1487.3 628.25 1508 643.3 1512.65 644.65 1517.2 645.95 1521.05 650.45 1524.95 654.95 1533.35 659.5 1541.75 664 1557.25 672.95 1572.7 681.95 1571.1 699.65 1569.45 717.35 1552.05 726.8 1534.75 736.2 1523.75 740.8 1522.3 741.45 1521.65 741.8 1581.05 726.05 1548.6 735.25 1517.6 744.05 1521.65 741.8 Z"/>

<path id="Layer7_0_2_STROKES" stroke="#FFFFFF" stroke-width="3" stroke-linejoin="round" stroke-linecap="round" fill="none" d="
M 1116.9 557.85
Q 1123.7 565.95 1132.6 572.45 1141.75 579.1 1146.45 583.4 1149.85 586.45 1152.05 589.45 1155 593.55 1155.75 594.45 1158.6 597.7 1164.3 602.15 1171.4 607.8 1176.35 610.9 1183.8 615.6 1189.4 616.95 1193.3 617.9 1198.95 620 1205.9 622.55 1211 625.4 1217.35 628.85 1219.55 632.15 1222.1 636.05 1218.45 639.35 1210.55 646.4 1193.2 651.95 1178.9 656.5 1156.8 660.35 1143.65 662.65 1117.3 666.3 1092.55 669.75 1082.8 671.6 1069.7 674 1060.25 680 1053.95 683.95 1046.85 691.55 1041.6 697.2 1041.5 697.3 1038.45 700.45 1035.85 702.4 1029.25 707.4 1020.65 708.45 981.35 713.05 903.8 706.6 834.25 700.85 785.55 694.2 704.15 683 691.7 670.8 686.15 665.4 669 658.3 664.45 656.4 655.1 652.6 647.2 649.25 642.55 646.75 630.05 639.95 631.05 632.95 632.3 624.35 653.35 613.55 680.95 594.95 701.1 581.25"/>

<path id="Layer6_0_1_STROKES" stroke="#FFFFFF" stroke-width="4" stroke-linejoin="round" stroke-linecap="round" fill="none" d="
M 1614.5 500.6
L 1712.1 500.6 1809.7 500.6 1599.3 441.9 1614.5 500.6 1602.55 662.75 1712.1 500.6 1775.5 670.65 1809.7 500.6 1778.2 401.85 1599.3 441.9 1393.3 607.5 1614.5 500.6 1495.35 607.5 1548.95 635.15 1602.55 662.75 1691.85 678.2 1712.1 500.6
M 1407.45 674.75
L 1393.3 607.5 1345 669.75 1407.45 674.75 1495.35 607.5 1393.3 607.5 1296.65 631.25 1345 669.75 1271.95 694.9 1421.5 741.95 1407.45 674.75 Z
M 1602.55 662.75
L 1614.05 759.95
M 1503.3 748.5
L 1495.35 607.5 1421.5 741.95 1503.3 748.5 Z
M 1548.95 635.15
L 1542.4 752.55
M 1778.2 401.85
L 1875.1 476.4 1942 572.35 2048.85 708.4
M 1875.1 476.4
L 1809.7 500.6 1925.25 622.1 1875.1 476.4 Z
M 1850 769.6
L 1775.5 670.65 1765.55 789.85
M 1775.5 670.65
L 1691.85 678.2 1738.3 796.35
M 1691.85 678.2
L 1641.05 767.9
M 1925.25 731.7
L 1925.25 622.1 1865.5 641.45 1925.25 731.7 1775.5 670.65 1865.5 641.45 1809.7 500.6
M 1942 572.35
L 1925.25 622.1 2048.85 708.4
M 1271.95 694.9
L 1296.65 631.25"/>

<path id="Layer5_0_1_STROKES" stroke="#FFFFFF" stroke-width="4" stroke-linejoin="round" stroke-linecap="round" fill="none" d="
M 1664.005475616455 387.63865814208987
L 1722.701894378662 397.0453163146973 1760.8080268859862 378.42944107055666 1706.483518218994 368.83944473266604 1664.005475616455 387.63865814208987 Z
M 1664.005475616455 387.63865814208987
L 1664.005475616455 442.04778442382815 1722.701894378662 453.4570594787598 1722.701894378662 397.0453163146973
M 1760.8080268859862 378.42944107055666
L 1760.8080268859862 430.0884948730469 1722.701894378662 453.4570594787598"/>

<path id="Layer2_0_1_STROKES" stroke="#FFFFFF" stroke-width="4" stroke-linejoin="round" stroke-linecap="round" fill="none" d="
M 312 499.05
L 312 428.75 261.45 414.45 312 499.05 212.2 476.25 247.35 558.95
M 292.95 561.8
L 312 499.05 355.75 478.15 370 422.75 312 428.75 370 380.2 241.65 380.2 261.45 414.45 212.2 476.25 146.6 476.25 197.95 558.95
M 146.6 476.25
L 111.4 519
M 370 380.2
L 426.95 442.6 470.75 490.5
M 426.95 442.6
L 422.25 465.8 458.4 506.65
M 422.25 519.95
L 422.25 465.8 355.75 478.15 394.7 522.8
M 370 380.2
L 370 422.75 422.25 465.8
M 355.75 478.15
L 339.6 547.55
M 241.65 380.2
L 146.6 476.25"/>

<path id="Layer2_1_1_STROKES" stroke="#FFFFFF" stroke-width="4" stroke-linejoin="round" stroke-linecap="round" fill="none" d="
M 265.69081115722656 351.88556518554685
L 310.7173309326172 359.1014923095703 339.94886779785156 344.8210968017578 298.2760772705078 337.4645294189453 265.69081115722656 351.88556518554685 Z
M 265.69081115722656 351.88556518554685
L 265.69081115722656 393.6232666015625 310.7173309326172 402.3754180908203 310.7173309326172 359.1014923095703
M 339.94886779785156 344.8210968017578
L 339.94886779785156 384.4491943359375 310.7173309326172 402.3754180908203"/>
</defs>

<g transform="matrix( 1, 0, 0, 1, 0,0) ">
<use xlink:href="#Layer12_0_1_STROKES"/>
</g>

<g transform="matrix( 1, 0, 0, 1, 0,0) ">
<use xlink:href="#Layer11_0_FILL"/>

<use xlink:href="#Layer11_0_1_STROKES"/>
</g>

<g transform="matrix( 1, 0, 0, 1, 0,0) ">
<use xlink:href="#Layer10_0_1_STROKES"/>
</g>

<g transform="matrix( 1, 0, 0, 1, 0,0) ">
<use xlink:href="#Layer9_0_1_STROKES"/>
</g>

<g transform="matrix( 1, 0, 0, 1, 0,0) ">
<use xlink:href="#Layer8_0_1_STROKES"/>
</g>

<g transform="matrix( 1, 0, 0, 1, 0,0) ">
<use xlink:href="#Layer7_0_FILL"/>

<use xlink:href="#Layer7_0_1_STROKES"/>

<use xlink:href="#Layer7_0_2_STROKES"/>
</g>

<g transform="matrix( 1, 0, 0, 1, 0,0) ">
<use xlink:href="#Layer6_0_FILL"/>

<use xlink:href="#Layer6_0_1_STROKES"/>
</g>

<g transform="matrix( 0.2820587158203125, 0, 0, 0.2820587158203125, 1407.6,185.6) ">
<use xlink:href="#Layer5_0_FILL"/>

<use xlink:href="#Layer5_0_1_STROKES" transform="matrix( 3.54534912109375, 0, 0, 3.54534912109375, -4990.45,-658) "/>
</g>

<g transform="matrix( 1, 0, 0, 1, 0,0) ">
<use xlink:href="#Layer2_0_FILL"/>

<use xlink:href="#Layer2_0_1_STROKES"/>
</g>

<g transform="matrix( 0.21636962890625, 0, 0, 0.21636962890625, 69,196.9) ">
<use xlink:href="#Layer2_1_FILL"/>

<use xlink:href="#Layer2_1_1_STROKES" transform="matrix( 4.6217193603515625, 0, 0, 4.6217193603515625, -318.85,-910) "/>
</g>
</svg>
