
<svg xmlns="http://www.w3.org/2000/svg" version="1.1" xmlns:xlink="http://www.w3.org/1999/xlink" preserveAspectRatio="none" x="0px" y="0px" width="2196px" height="1100px" viewBox="0 0 2196 1100">
<defs>
<radialGradient id="Gradient_1" gradientUnits="userSpaceOnUse" cx="0" cy="0" r="2034.3500000000004" fx="0" fy="0" gradientTransform="matrix( 0.9999999999999999, 0, 0, 0.9999999999999999, 376.1,747.15) " spreadMethod="pad">
<stop  offset="0%" stop-color="#00324D"/>

<stop  offset="18.03921568627451%" stop-color="#000509"/>
</radialGradient>

<g id="Layer11_0_FILL">
<path fill="url(#Gradient_1)" stroke="none" d="
M 2200.5 1335.05
L 2200.5 -79.55
Q 2194 -81.65 1053.75 -94.05 484.2 -100.25 225.75 -99.95 -31.7 -99.6 -35.9 -92.75
L -35.9 1297.05 2200.5 1335.05 Z"/>
</g>

<g id="Layer9_0_FILL">
<path fill="#FFFFFF" stroke="none" d="
M 537.2 617
Q 534.45 615.3 530.4 615.3 523.1 615.3 519.1 621 515.2 626.65 515.2 634.35 515.2 642.65 519.55 647.7 523.85 652.65 529.7 652.65 533.4 652.65 536.25 651.2 539.05 649.75 541.15 646.45
L 541.15 651.35 546.5 651.35 546.5 602.6 540.8 602.6 540.8 620.5
Q 538.75 618 537.2 617
M 538.3 623.75
Q 541.05 626.95 541.05 633.65 541.05 640.3 538.35 643.9 535.7 647.45 531.55 647.45 526.25 647.45 523.9 643.6 521.45 639.75 521.45 634.05 521.45 627.35 524.25 623.9 527 620.5 531.5 620.5 535.55 620.5 538.3 623.75
M 350.7 615.3
L 349.3 615.15
Q 349.05 615.15 348.75 615.15 345.2 615.15 342.5 617.7 339.8 620.3 339.05 622.05
L 339.05 615.9 333.45 615.9 333.45 651.35 339.45 651.35 339.45 630.95
Q 339.45 627.25 341.8 624.3 344.2 621.4 348.7 621.4
L 350.7 621.55 350.7 615.3
M 383.6 602.75
L 376.95 602.75 376.95 651.35 383.6 651.35 383.6 602.75
M 412.9 638.35
Q 414.95 639.5 414.95 641.8 414.95 644.8 412.4 646.3 409.9 647.7 406.5 647.7 400.8 647.7 398.5 644.8 397.25 643.25 396.95 640.25
L 391.25 640.25
Q 391.5 645.5 394.85 649.15 398.2 652.7 406.2 652.7 413.6 652.7 417.25 649.25 420.85 645.8 420.85 641.1 420.85 636.25 417.4 633.95 415.2 632.5 408.65 630.9
L 404.6 630
Q 402 629.35 400.65 628.5 398.3 627.1 398.3 624.8 398.3 622.7 400.1 621.4 401.9 620.1 405.3 620.1 410.5 620.1 412.65 622.5 413.9 624.1 414.1 626.1
L 419.7 626.1
Q 419.75 622.7 417.55 619.7 413.9 615 405.8 615 399.6 615 395.9 618.1 392.25 621.2 392.25 626.25 392.25 630.5 396.15 632.95 398.35 634.3 402.95 635.45
L 407.8 636.65
Q 411.65 637.55 412.9 638.35
M 433.5 602.75
L 427.5 602.75 427.5 651.35 433.5 651.35 433.5 602.75
M 456.25 615.1
Q 450.9 615.1 446.8 617.65 442.7 620.15 442.55 626.75
L 448.1 626.75
Q 448.45 624 449.55 622.6 451.45 620.1 456.15 620.1 460.1 620.1 462.35 621.5 464.5 622.85 464.5 625.9 464.5 627.4 464.1 628.25 463.4 629.65 461.35 629.9
L 451.85 631.1
Q 446.85 631.75 443.75 634.5 440.65 637.15 440.65 642.05 440.65 646.55 443.8 649.55 446.9 652.55 451.9 652.55 455.95 652.55 459.35 650.8 462.8 649 464.6 646.7 464.9 648.8 465.65 649.95 467 652.1 470.1 652.1
L 472.1 652 474.2 651.55 474.2 647.15 472.25 647.35
Q 471.05 647.35 470.7 646.75 470.3 646.2 470.3 645.3
L 470.3 624.85
Q 470.3 619.8 466.45 617.4 462.5 615.1 456.25 615.1
M 446.9 641.95
Q 446.9 638.55 449.7 637 451.3 636.05 454.55 635.65
L 461.5 634.55
Q 463.2 634.05 464.35 633.35
L 464.35 638.1
Q 464.35 643.6 459.35 646.05 456.4 647.5 453.3 647.5 450.7 647.5 448.8 646 446.9 644.55 446.9 641.95
M 485.7 615.9
L 480.05 615.9 480.05 651.35 486 651.35 486 632.8
Q 486 629.35 486.45 627.45 486.9 625.6 488.4 623.85 490.2 621.65 492.65 620.9 494 620.5 496.15 620.5 500.3 620.5 501.9 623.8 502.9 625.75 502.9 629.05
L 502.9 651.35 508.9 651.35 508.9 628.65
Q 508.9 623.25 507.45 620.4 504.8 615.15 497.3 615.15 493.85 615.15 491 616.5 488.2 617.85 485.7 620.9
L 485.7 615.9
M 301.55 615.9
L 295.5 615.9 295.5 640.05
Q 295.5 644.55 296.9 647.25 299.65 652.3 307.05 652.3 311.85 652.3 315.2 649.55 316.9 648.15 318 646.15
L 317.95 651.35 323.55 651.35 323.55 615.9 317.6 615.9 317.6 633.3
Q 317.6 638.5 316.4 641.5 314.25 647.05 308.15 647.05 303.95 647.05 302.4 643.9 301.55 642.2 301.55 639.45
L 301.55 615.9
M 288.55 626.25
Q 288.55 616.15 283.75 609.7 277.55 601.4 264.65 601.4 252.4 601.4 246.05 610.4 241.15 617.4 241.15 627.3 241.15 638.2 246.9 645.35 253.3 652.75 264.55 652.75 276.55 652.75 283.05 644.3 288.55 637.1 288.55 626.25
M 281.8 626.3
Q 281.8 634.5 277.95 640.65 274.05 646.9 265.35 646.9 256.2 646.9 252.1 641.35 248 635.8 248 627.75 248 617.65 252.8 612.45 257.5 607.3 265.05 607.3 272.85 607.3 277.35 612.5 281.8 617.75 281.8 626.3 Z"/>
</g>

<g id="Layer8_0_FILL">
<path fill="#FFFFFF" stroke="none" d="
M 802.3 188.5
Q 789.1 188.5 780.95 197.9 772.8 207.35 772.8 222.45 772.8 237.85 780.9 246.4 789 254.9 800.65 254.9 805.4 254.9 809.2 253.95 816.25 252.3 820.95 247.6 823.85 244.9 826.2 240.7 828.45 236.4 828.9 232.95
L 818.5 232.95
Q 817.4 237.1 814.65 240.35 809.8 245.8 801.6 245.8 792.8 245.8 788.55 240 784.4 234.2 784.1 224.65
L 829.75 224.65
Q 829.75 215.15 828.85 210.8 827.75 204.5 824.65 199.75 821.4 194.75 815.15 191.65 808.9 188.5 802.3 188.5
M 784.35 216.25
Q 784.65 208.2 789.5 202.95 794.45 197.7 801.65 197.7 811.65 197.7 815.95 205.3 818.3 209.4 818.9 216.25
L 784.35 216.25
M 757.85 193.25
Q 751.2 188.1 740.6 188.1 728.15 188.1 720.15 197.3 712.1 206.5 712.1 223 712.1 236.5 719.45 245.5 726.75 254.45 739.05 254.45 750 254.45 757.05 248.7 764.1 242.9 765.85 230.45
L 755.6 230.45
Q 754.1 237.4 750.3 241.4 746.45 245.4 739.9 245.4 731.35 245.4 727.35 238.95 723.35 232.5 723.35 223.05 723.35 213.75 726.15 207.35 730.5 197.5 740.6 197.5 747.95 197.5 751.3 201.4 754.65 205.2 755.6 211
L 765.85 211
Q 764.5 198.4 757.85 193.25
M 695.4 178.9
Q 684.45 164.25 661.65 164.25 639.85 164.25 628.7 180.15 620.05 192.6 620.05 210.05 620.05 229.4 630.15 242.05 641.55 255.15 661.4 255.15 682.65 255.15 694.15 240.15 703.95 227.4 703.95 208.1 703.95 190.3 695.4 178.9
M 662.35 174.6
Q 676.1 174.6 684.1 183.85 692 193.1 692 208.3 692 222.7 685.15 233.7 678.2 244.8 662.8 244.8 646.6 244.8 639.35 234.95 632.1 225.15 632.1 210.85 632.1 192.95 640.55 183.8 649 174.6 662.35 174.6
M 919.8 189.9
L 909.8 189.9 909.8 252.65 920.35 252.65 920.35 219.8
Q 920.35 213.65 921.15 210.35 921.9 207 924.55 203.9 927.85 200.05 932.15 198.75 934.55 198 938.3 198 945.7 198 948.5 203.85 950.2 207.35 950.2 213.1
L 950.2 252.65 960.95 252.65 960.95 212.4
Q 960.95 202.9 958.35 197.8 953.65 188.5 940.3 188.5 934.2 188.5 929.25 190.9 924.25 193.3 919.8 198.8
L 919.8 189.9
M 885.7 192.6
Q 878.75 188.35 867.75 188.35 858.2 188.35 850.95 192.95 843.75 197.45 843.45 209.1
L 853.3 209.1
Q 853.85 204.25 855.8 201.75 859.25 197.3 867.5 197.3 874.6 197.3 878.5 199.75 882.3 202.15 882.3 207.6 882.3 210.25 881.6 211.65 880.35 214.2 876.7 214.7
L 859.9 216.8
Q 851.05 217.9 845.6 222.7 840.15 227.5 840.15 236.2 840.15 244.15 845.7 249.5 851.25 254.75 859.95 254.75 867.25 254.75 873.25 251.65 879.3 248.55 882.5 244.35 883.05 248.1 884.35 250.15 886.8 254 892.25 254
L 895.75 253.8 899.5 252.95 899.5 245.15 897.65 245.45 896.05 245.5
Q 893.9 245.5 893.25 244.5 892.55 243.5 892.55 241.85
L 892.55 205.7
Q 892.55 196.8 885.7 192.6
M 854.5 243.15
Q 851.15 240.5 851.15 235.95 851.15 229.95 856.1 227.2 858.95 225.6 864.7 224.8
L 877 222.85
Q 880.05 222 882 220.8
L 882 229.2
Q 882 238.95 873.2 243.2 868 245.8 862.4 245.8 857.85 245.8 854.5 243.15
M 1079.1 190.2
L 1070.4 190.2 1070.4 198.5 1079.1 198.5 1079.1 252.65 1089.55 252.65 1089.55 198.5 1100.1 198.5 1100.1 190.2 1089.55 190.2
Q 1089.55 180 1090.5 177.55 1091.45 175 1096.3 175
L 1100.1 175.2 1100.1 165.6 1095.65 165.35
Q 1085.1 165.35 1081.4 170.75 1079.35 173.8 1079.1 180.35
L 1079.1 190.2
M 1034.85 188.1
Q 1021.45 188.1 1013.5 197.45 1005.5 206.85 1005.5 222.6 1005.5 237.35 1013.05 246.15 1020.6 254.9 1033.5 254.9 1048.95 254.9 1056.25 244.95 1063.55 235.05 1063.55 219.95 1063.55 204.25 1055.25 196.15 1046.95 188.1 1034.85 188.1
M 1048.7 237.9
Q 1044.8 245.8 1034.5 245.8 1025 245.8 1020.7 239.1 1016.35 232.45 1016.35 222.4 1016.35 212.05 1020.7 204.65 1025 197.3 1034.55 197.3 1045.35 197.3 1049.8 205.95 1052.55 211.45 1052.55 220.25 1052.55 229.9 1048.7 237.9
M 1253.1 188.35
Q 1245.45 188.35 1240.35 191.7 1237.4 193.65 1233.65 198.4
L 1233.65 166.3 1223.1 166.3 1223.1 252.65 1233.65 252.65 1233.65 219.35
Q 1233.65 206.85 1238.95 202.3 1244.3 197.8 1250.85 197.8 1258.75 197.8 1261.65 202.95 1263.4 206.2 1263.4 213.1
L 1263.4 252.65 1274.25 252.65 1274.25 212.4
Q 1274.25 203.15 1271.6 197.9 1266.75 188.35 1253.1 188.35
M 1202.55 173.1
Q 1195.55 166.6 1184.1 166.6
L 1145.6 166.6 1145.6 252.65 1157.25 252.65 1157.25 216.25 1184.15 216.25
Q 1197.05 216.25 1203.3 208.8 1209.6 201.3 1209.6 191.25 1209.6 179.55 1202.55 173.1
M 1190.85 178.4
Q 1197.8 181.8 1197.8 191.3 1197.8 199.75 1192.95 203.1 1188.1 206.4 1180.3 206.4
L 1157.25 206.4 1157.25 176.6 1180.3 176.6
Q 1186.95 176.6 1190.85 178.4
M 1420.5 190.2
L 1409.8 190.2 1409.8 252.65 1420.5 252.65 1420.5 190.2
M 1409.8 166.6
L 1409.8 178.55 1420.5 178.55 1420.5 166.6 1409.8 166.6
M 1340.7 189.9
L 1329.05 189.9 1312.1 241 1295.3 189.9 1283.35 189.9 1306.55 254.55 1301.8 265.7 1299.45 268.1
Q 1298.1 269.05 1295.2 269.05
L 1293 268.9 1289 267.95 1289 277.55 1291.95 278.2 1295.4 278.35
Q 1304.55 278.35 1308.3 273.1 1312.05 267.85 1321.2 243.8
L 1340.7 189.9
M 1371.65 188.25
Q 1360.7 188.25 1354.2 193.75 1347.7 199.25 1347.7 208.2 1347.7 215.75 1354.6 220 1358.45 222.45 1366.6 224.45
L 1375.15 226.6
Q 1381.95 228.3 1384.3 229.55 1387.95 231.65 1387.95 235.7 1387.95 241.05 1383.35 243.65 1378.85 246.15 1372.85 246.15 1362.8 246.15 1358.75 241.05 1356.5 238.25 1356.05 232.95
L 1345.9 232.95
Q 1346.35 242.35 1352.25 248.7 1358.15 255.05 1372.35 255.05 1385.45 255.05 1391.9 248.95 1398.35 242.85 1398.35 234.5 1398.35 225.8 1392.2 221.75 1388.3 219.2 1376.7 216.45
L 1369.6 214.75
Q 1364.9 213.65 1362.55 212.15 1358.4 209.7 1358.4 205.6 1358.4 201.9 1361.55 199.6 1364.65 197.35 1370.8 197.35 1380 197.35 1383.7 201.5 1386 204.35 1386.3 207.95
L 1396.25 207.95
Q 1396.35 201.85 1392.4 196.6 1386.05 188.25 1371.65 188.25
M 1518.3 188.25
Q 1507.35 188.25 1500.85 193.75 1494.35 199.25 1494.35 208.2 1494.35 215.75 1501.25 220 1505.1 222.45 1513.25 224.45
L 1521.8 226.6
Q 1528.6 228.3 1530.95 229.55 1534.6 231.65 1534.6 235.7 1534.6 241.05 1530 243.65 1525.5 246.15 1519.5 246.15 1509.45 246.15 1505.4 241.05 1503.15 238.25 1502.7 232.95
L 1492.55 232.95
Q 1493 242.35 1498.9 248.7 1504.8 255.05 1519 255.05 1532.1 255.05 1538.55 248.95 1545 242.85 1545 234.5 1545 225.8 1538.85 221.75 1534.95 219.2 1523.35 216.45
L 1516.25 214.75
Q 1511.55 213.65 1509.2 212.15 1505.05 209.7 1505.05 205.6 1505.05 201.9 1508.2 199.6 1511.3 197.35 1517.45 197.35 1526.65 197.35 1530.35 201.5 1532.65 204.35 1532.95 207.95
L 1542.9 207.95
Q 1543 201.85 1539.05 196.6 1532.7 188.25 1518.3 188.25
M 1477.9 193.25
Q 1471.25 188.1 1460.65 188.1 1448.2 188.1 1440.2 197.3 1432.15 206.5 1432.15 223 1432.15 236.5 1439.5 245.5 1446.8 254.45 1459.1 254.45 1470.05 254.45 1477.1 248.7 1484.15 242.9 1485.9 230.45
L 1475.65 230.45
Q 1474.15 237.4 1470.35 241.4 1466.5 245.4 1459.95 245.4 1451.4 245.4 1447.4 238.95 1443.4 232.5 1443.4 223.05 1443.4 213.75 1446.2 207.35 1450.55 197.5 1460.65 197.5 1468 197.5 1471.35 201.4 1474.7 205.2 1475.65 211
L 1485.9 211
Q 1484.55 198.4 1477.9 193.25 Z"/>
</g>

<g id="Layer7_0_STROKES_1_FILL">
<path fill="#FFFFFF" stroke="none" d="
M 351.1 853.6
Q 351.956640625 855.7017578125 354.05 856.6 368.076953125 862.5939453125 375.6 862.45 379.2607421875 862.4642578125 383.85 861.45 386.0767578125 860.990625 387.3 859.05 388.56015625 857.1640625 388.05 854.95 387.5923828125 852.723046875 385.65 851.45 383.7642578125 850.2416015625 381.55 850.7 378.2392578125 851.4357421875 375.6 851.45 369.6240234375 851.30625 358.35 846.5 356.2505859375 845.6017578125 354.15 846.45 352.0462890625 847.302734375 351.15 849.4 350.2498046875 851.4955078125 351.1 853.6
M 343.55 841.3
Q 342.9248046875 839.1236328125 340.9 838 338.2775390625 836.57421875 335.75 835.05
L 335.7 835.05
Q 330.216796875 831.8314453125 328.2 830.1
L 328.2 830.05
Q 326.9013671875 828.5453125 324.5 823 324.5140625 822.999609375 324.5 822.95 324.2890625 822.46953125 324.05 821.9 323.2525390625 819.8009765625 321.15 818.85 319.0912109375 817.9501953125 316.95 818.75 314.8546875 819.59453125 313.9 821.65 313.0029296875 823.7623046875 313.8 825.85 314.0998046875 826.6029296875 314.35 827.25
L 314.4 827.3
Q 318.1857421875 836.1177734375 320.75 838.2
L 320.8 838.2
Q 323.2115234375 840.482421875 330.1 844.5 330.15078125 844.5359375 330.15 844.55 332.8478515625 846.1396484375 335.65 847.65 337.6783203125 848.7671875 339.85 848.1 342.0287109375 847.4783203125 343.1 845.45 344.2197265625 843.4751953125 343.55 841.3
M 432.05 840.4
Q 430.0501953125 839.3310546875 427.85 840 427.225 840.2 426.55 840.4 421.5845703125 841.71328125 418.3 841.6
L 418.4 841.6
Q 414.0791015625 841.2525390625 407.25 843
L 407.2 843
Q 404.87109375 843.6548828125 400.4 845.1 398.278515625 845.8396484375 397.25 847.85 396.215234375 849.9140625 396.9 852.05 397.6390625 854.224609375 399.65 855.25 401.7109375 856.2841796875 403.85 855.55 407.9068359375 854.2521484375 410.05 853.65 414.7212890625 852.4474609375 417.65 852.55 417.7349609375 852.5875 417.75 852.6 422.45 852.884375 429.6 850.95 429.721484375 850.923046875 429.8 850.9 430.475 850.7 431.1 850.5 433.2888671875 849.8314453125 434.35 847.8 435.4208984375 845.8015625 434.75 843.6 434.08359375 841.4625 432.05 840.4
M 457.6 808.9
Q 455.735546875 810.1787109375 455.3 812.4 453.09375 823.791015625 451.35 827.2
L 451.35 827.2
Q 450.2958984375 828.7896484375 447.15 830.95 446.01796875 831.7248046875 444.75 832.5 442.7966796875 833.69609375 442.25 835.9 441.7109375 838.1037109375 442.9 840.05 444.091796875 842.00390625 446.3 842.55 448.5033203125 843.084765625 450.45 841.9 451.981640625 840.975 453.35 840.05 459.40703125 835.908203125 461.05 832.45
L 461 832.5
Q 463.4060546875 828.4091796875 466.1 814.5 466.530078125 812.26484375 465.25 810.35 463.973828125 808.484375 461.75 808.05 459.517578125 807.6185546875 457.6 808.9
M 468.7 765.25
Q 468.6626953125 765.066015625 468.6 764.85 467.9693359375 762.66640625 465.95 761.55 463.9826171875 760.4435546875 461.8 761.05 459.614453125 761.6919921875 458.5 763.65 457.3822265625 765.6654296875 458 767.85 458.1373046875 768.3337890625 458.25 768.75 459.8818359375 774.5744140625 459.95 777.55 459.934375 782.986328125 458.55 793.15 458.2443359375 795.3978515625 459.6 797.2 461.003125 799.0404296875 463.25 799.35 465.50234375 799.658203125 467.3 798.25 469.137890625 796.9015625 469.45 794.65 470.9654296875 783.5134765625 470.95 777.55 471.01953125 773.4955078125 468.8 765.5 468.760546875 765.3865234375 468.7 765.25
M 452.3 715.25
Q 450.216015625 714.4 448.1 715.3 446.0373046875 716.21171875 445.2 718.3 444.35 720.4380859375 445.25 722.55 445.378515625 722.83359375 445.4 723.1 446.0494140625 730.279296875 448.7 739.2
L 448.75 739.25
Q 449.70859375 742.3509765625 451.75 748.7 452.4916015625 750.8654296875 454.5 751.9 456.55078125 752.934765625 458.7 752.2 460.861328125 751.511328125 461.9 749.45 462.9318359375 747.4453125 462.2 745.3 460.19140625 739.048828125 459.25 736
L 459.25 736.05
Q 456.950390625 728.3203125 456.35 722.1 456.2212890625 720.16640625 455.35 718.15 454.43828125 716.0830078125 452.3 715.25
M 358.5 696.25
Q 357.7005859375 694.150390625 355.6 693.2 353.5625 692.2529296875 351.45 693.05 350.04921875 693.56015625 348.65 694.1 348.61171875 694.1353515625 348.55 694.15 331.332421875 700.90625 329.75 704.35
L 329.75 704.35
Q 328.4921875 706.274609375 326.4 710.25 325.3658203125 712.3009765625 326.05 714.45 326.74609375 716.63046875 328.75 717.65 330.8056640625 718.7341796875 332.95 718.05 335.13046875 717.35859375 336.15 715.35 337.9076171875 712.025 338.95 710.4 340.6353515625 709.073046875 352.65 704.35
L 352.7 704.35
Q 353.9875 703.8265625 355.25 703.35 357.389453125 702.5482421875 358.35 700.45 359.2994140625 698.4025390625 358.5 696.25
M 367.25 688.7
Q 366.037890625 690.6599609375 366.55 692.85 367.0517578125 695.0865234375 368.95 696.3 370.9076171875 697.5109375 373.1 697 377.7671875 695.994921875 388.8 696 396.3412109375 696.001953125 400.5 695.15 402.73828125 694.699609375 404 692.8 405.2822265625 690.9037109375 404.85 688.65 404.401171875 686.460546875 402.5 685.2 400.6048828125 683.9193359375 398.35 684.35 394.95859375 684.9978515625 388.8 685 376.0330078125 685.0048828125 370.65 686.3 368.4658203125 686.8029296875 367.25 688.7
M 419.85 692.55
Q 418.046875 691.193359375 415.8 691.5 413.5529296875 691.809765625 412.15 693.6 410.791796875 695.4478515625 411.1 697.7 411.4150390625 699.945703125 413.2 701.3 414.701953125 702.50390625 431.4 711.75 431.44921875 711.7888671875 431.45 711.8 431.79921875 711.9888671875 432.1 712.15 434.116796875 713.305078125 436.3 712.7 438.49140625 712.10078125 439.6 710.1 440.7552734375 708.1408203125 440.15 705.95 439.5431640625 703.75859375 437.55 702.6 437.225 702.425 436.85 702.2
L 436.8 702.2
Q 421.2958984375 693.5943359375 419.85 692.55
M 310.3 773
Q 308.3470703125 774.1947265625 307.8 776.4 307.05078125 779.4837890625 306.4 780.75 303.6837890625 784.0244140625 305.05 794.45
L 305.05 794.45
Q 305.733984375 799.8146484375 307.45 806.5 308.0572265625 808.73515625 310 809.9 311.998046875 811.0537109375 314.2 810.45 316.3951171875 809.894921875 317.55 807.9 318.7013671875 805.9619140625 318.1 803.75 316.569921875 797.80078125 315.95 793.05
L 315.95 793
Q 315.322265625 788.1931640625 315.65 786.65 315.6919921875 786.6361328125 315.7 786.6 317.1607421875 784.4681640625 318.5 779 319.0380859375 776.793359375 317.85 774.85 316.658203125 772.89609375 314.45 772.35 312.2462890625 771.8109375 310.3 773
M 320.65 725.85
Q 318.56953125 726.711328125 317.65 728.8 315.330859375 734.35234375 314.35 737.85 314.3603515625 737.887109375 314.35 737.9 313.46953125 740.8486328125 312.4 748.2 311.9509765625 751.328125 311.1 757.65 310.7943359375 759.919921875 312.15 761.7 313.5681640625 763.5419921875 315.8 763.85 318.06796875 764.1572265625 319.85 762.75 321.6904296875 761.3798828125 322 759.1 322.848828125 752.8716796875 323.3 749.8 324.2162109375 743.459765625 324.9 740.95 324.9376953125 740.9083984375 324.95 740.85 325.79453125 737.8869140625 327.8 733.1 328.71171875 730.982421875 327.85 728.85 326.98203125 726.76875 324.85 725.85 322.7759765625 724.9873046875 320.65 725.85 Z"/>
</g>

<g id="Layer5_0_FILL">
<path fill="#FFFFFF" stroke="none" d="
M 1186.25 679.1
Q 1181.75 684.25 1181.75 692.5 1181.75 700.9 1186.15 705.55 1190.65 710.2 1196.95 710.2 1199.55 710.2 1201.65 709.65 1205.5 708.8 1208.1 706.2 1209.65 704.75 1210.9 702.4 1212.15 700.1 1212.4 698.25
L 1206.75 698.25
Q 1206.1 700.5 1204.65 702.25 1202 705.25 1197.45 705.25 1192.65 705.25 1190.4 702.1 1188.1 698.9 1188 693.65
L 1212.9 693.65
Q 1212.9 688.5 1212.4 686.15 1211.8 682.65 1210.05 680.1 1208.3 677.35 1204.95 675.65 1201.5 673.95 1197.85 673.95 1190.7 673.95 1186.25 679.1
M 1188.1 689.1
Q 1188.25 684.7 1190.9 681.85 1193.55 678.95 1197.55 678.95 1203 678.95 1205.3 683.1 1206.6 685.35 1206.95 689.1
L 1188.1 689.1
M 1143.55 688.3
Q 1141.05 687.65 1139.75 686.9 1137.45 685.55 1137.45 683.25 1137.45 681.25 1139.2 680 1140.9 678.75 1144.25 678.75 1149.3 678.75 1151.3 681.05 1152.55 682.6 1152.7 684.55
L 1158.15 684.55
Q 1158.2 681.25 1156.05 678.35 1152.55 673.85 1144.7 673.85 1138.7 673.85 1135.15 676.85 1131.6 679.8 1131.6 684.7 1131.6 688.8 1135.4 691.2 1137.5 692.5 1141.95 693.6
L 1146.6 694.75
Q 1150.35 695.65 1151.6 696.35 1153.55 697.5 1153.55 699.7 1153.55 702.65 1151.1 704.05 1148.65 705.4 1145.4 705.4 1139.9 705.4 1137.65 702.65 1136.45 701.1 1136.15 698.25
L 1130.65 698.25
Q 1130.85 703.3 1134.15 706.85 1137.35 710.25 1145.1 710.25 1152.25 710.25 1155.75 706.95 1159.3 703.6 1159.3 699.05 1159.3 694.35 1155.95 692.15 1153.8 690.7 1147.45 689.2
L 1143.55 688.3
M 1172.5 665.15
L 1166.7 665.15 1166.7 674.7 1162.05 674.7 1162.05 679.4 1166.7 679.4 1166.7 702.1
Q 1166.7 705.4 1168.15 707.45 1169.55 709.55 1173.65 709.55
L 1178 708.95 1178 704.4 1175.95 704.5
Q 1174.4 704.5 1173.75 704.15 1172.5 703.55 1172.5 701.8
L 1172.5 679.4 1178 679.4 1178 674.7 1172.5 674.7 1172.5 665.15
M 1180.5 597.95
L 1174.7 597.95 1174.7 632.1 1180.5 632.1 1180.5 597.95
M 1225.9 679.55
L 1225.9 674.7 1220.2 674.7 1220.2 708.95 1225.95 708.95 1225.95 690.8
Q 1225.95 684.15 1228.6 681.65 1231.25 679.15 1234.55 679.15 1238.15 679.15 1239.45 681.5 1240.25 683.1 1240.25 686.6
L 1240.25 708.95 1246.1 708.95 1246.1 689.05
Q 1246.1 683.7 1248.6 681.45 1251.05 679.2 1254.4 679.2 1256.85 679.2 1258.6 680.45 1260.3 681.75 1260.3 685.2
L 1260.3 708.95 1266.3 708.95 1266.3 686.15
Q 1266.3 681.65 1264.95 678.9 1262.45 673.95 1255.55 673.95 1252.25 673.95 1249.75 675.3 1247.15 676.6 1245.2 679.35 1244.05 677.1 1242.6 675.9 1240.15 673.95 1236.05 673.95 1232.45 673.95 1229.55 675.85 1227.9 677.05 1225.9 679.55
M 1224.6 597.05
Q 1221.3 597.05 1218.75 598.4 1216.15 599.7 1214.25 602.45 1213.05 600.2 1211.65 599.05 1209.15 597.05 1205.1 597.05 1201.5 597.05 1198.6 598.95 1196.95 600.15 1194.95 602.65
L 1194.95 597.8 1189.2 597.8 1189.2 632.1 1195 632.1 1195 613.9
Q 1195 607.3 1197.65 604.75 1200.3 602.25 1203.55 602.25 1207.2 602.25 1208.5 604.6 1209.3 606.2 1209.3 609.7
L 1209.3 632.1 1215.15 632.1 1215.15 612.15
Q 1215.15 606.8 1217.65 604.55 1220.05 602.3 1223.45 602.3 1225.9 602.3 1227.65 603.55 1229.35 604.85 1229.35 608.3
L 1229.35 632.1 1235.3 632.1 1235.3 609.25
Q 1235.3 604.75 1233.95 602 1231.5 597.05 1224.6 597.05
M 1265.2 607.45
Q 1265.2 608.9 1264.8 609.7 1264.15 611.05 1262.15 611.35
L 1252.95 612.45
Q 1248.15 613.1 1245.15 615.75 1242.15 618.35 1242.15 623.1 1242.15 627.45 1245.2 630.35 1248.2 633.2 1253 633.2 1256.95 633.2 1260.25 631.5 1263.55 629.8 1265.35 627.55 1265.6 629.6 1266.35 630.7 1267.65 632.8 1270.65 632.8
L 1272.55 632.7 1274.6 632.25 1274.6 628 1272.75 628.2
Q 1271.55 628.2 1271.2 627.6 1270.8 627.1 1270.8 626.2
L 1270.8 606.45
Q 1270.8 601.55 1267.1 599.25 1263.3 597 1257.25 597 1252.05 597 1248.1 599.5 1244.15 601.9 1243.95 608.3
L 1249.35 608.3
Q 1249.7 605.65 1250.75 604.3 1252.6 601.85 1257.15 601.85 1261 601.85 1263.1 603.2 1265.2 604.5 1265.2 607.45
M 1262.35 615.8
Q 1263.95 615.35 1265.05 614.7
L 1265.05 619.25
Q 1265.05 624.55 1260.25 626.95 1257.35 628.35 1254.35 628.35 1251.9 628.35 1250 626.9 1248.2 625.45 1248.2 623 1248.2 619.7 1250.9 618.2 1252.45 617.3 1255.6 616.9
L 1262.35 615.8
M 1103 674.7
L 1096.45 674.7 1109.15 710 1106.55 716.1 1105.25 717.45
Q 1104.55 717.95 1102.95 717.95
L 1101.75 717.85 1099.55 717.35 1099.55 722.6 1101.2 722.95 1103.05 723.05
Q 1108.1 723.05 1110.1 720.15 1110.4 719.75 1110.75 719.15 1112.85 715.45 1117.15 704.1
L 1127.8 674.7 1121.4 674.7 1112.2 702.6 1103 674.7
M 1073.15 660.8
Q 1065.35 660.8 1061.1 664.85 1056.85 668.9 1056.85 675.25 1056.85 681.1 1061.2 684.05 1063.7 685.75 1069.7 687.15
L 1075.9 688.6
Q 1080.9 689.75 1083.3 691.35 1085.6 693 1085.6 696.85 1085.6 701.95 1080.1 703.95 1077.3 704.95 1073.85 704.95 1066.1 704.95 1063.05 700.35 1061.5 697.8 1061.25 693.85
L 1055.25 693.85
Q 1055.15 701.4 1060 705.85 1064.8 710.35 1073.4 710.35 1080.75 710.35 1086.3 707 1091.8 703.6 1091.8 695.8 1091.8 689.55 1087.45 686.25 1085 684.35 1080.35 683.25
L 1073.95 681.8
Q 1067.45 680.2 1065.65 679.2 1062.9 677.6 1062.9 674.15 1062.9 671 1065.25 668.65 1067.65 666.25 1073 666.25 1079.65 666.25 1082.5 670 1084 671.95 1084.45 675.75
L 1090.45 675.75
Q 1090.45 667.9 1085.45 664.35 1080.4 660.8 1073.15 660.8
M 1125.2 602.55
L 1125.2 597.95 1119.55 597.95 1119.55 645.75 1125.3 645.75 1125.3 628.25
Q 1127.25 630.55 1128.75 631.5 1131.4 633.2 1135.25 633.2 1140.25 633.2 1143.95 630.2 1149.85 625.4 1149.85 614.15 1149.85 605.9 1145.75 601.45 1141.7 597 1135.9 597 1131.95 597 1129 598.9 1126.95 600.15 1125.2 602.55
M 1125.1 616.15
Q 1125.1 611.25 1126.3 608 1128.5 602 1134.55 602 1140.5 602 1142.7 607.65 1143.9 610.65 1143.9 614.75 1143.9 621.45 1141.25 624.85 1138.55 628.2 1134.55 628.2 1128.55 628.2 1126.3 622.85 1125.1 620.1 1125.1 616.15
M 1090.1 583.75
Q 1078.25 583.75 1072.15 592.45 1067.4 599.25 1067.4 608.8 1067.4 619.35 1072.95 626.25 1079.15 633.45 1090 633.45 1101.65 633.45 1107.9 625.25 1113.25 618.3 1113.25 607.8 1113.25 598 1108.6 591.8 1102.6 583.75 1090.1 583.75
M 1102.4 594.5
Q 1106.75 599.6 1106.75 607.85 1106.75 615.75 1103 621.75 1099.2 627.8 1090.8 627.8 1081.95 627.8 1077.95 622.4 1074 617.05 1074 609.25 1074 599.5 1078.65 594.45 1083.25 589.5 1090.5 589.5 1098.05 589.5 1102.4 594.5
M 1286.15 585.05
L 1280.4 585.05 1280.4 632.1 1286.15 632.1 1286.15 585.05
M 1180.5 585.05
L 1174.7 585.05 1174.7 591.55 1180.5 591.55 1180.5 585.05
M 1163.45 588.25
L 1157.65 588.25 1157.65 597.8 1153 597.8 1153 602.55 1157.65 602.55 1157.65 625.2
Q 1157.65 628.5 1159.1 630.55 1159.55 631.2 1160.25 631.7 1161.8 632.65 1164.6 632.65
L 1168.95 632.1 1168.95 627.5 1166.9 627.6
Q 1165.4 627.6 1164.7 627.3 1163.45 626.65 1163.45 624.9
L 1163.45 602.55 1168.95 602.55 1168.95 597.8 1163.45 597.8 1163.45 588.25
M 1300.15 684.55
Q 1300.2 681.25 1298.05 678.35 1294.55 673.85 1286.7 673.85 1280.7 673.85 1277.15 676.85 1273.6 679.8 1273.6 684.7 1273.6 688.8 1277.35 691.2 1279.5 692.5 1283.9 693.6
L 1288.6 694.75
Q 1292.35 695.65 1293.6 696.35 1295.55 697.5 1295.55 699.7 1295.55 702.65 1293.05 704.05 1290.65 705.4 1287.35 705.4 1281.9 705.4 1279.6 702.65 1278.45 701.1 1278.15 698.25
L 1272.6 698.25
Q 1272.85 703.3 1276.1 706.85 1279.35 710.25 1287.1 710.25 1294.25 710.25 1297.75 706.95 1301.25 703.6 1301.25 699.05 1301.25 694.35 1297.95 692.15 1295.8 690.7 1289.45 689.2
L 1285.55 688.3
Q 1283 687.65 1281.7 686.9 1279.45 685.55 1279.45 683.25 1279.45 681.25 1281.2 680 1282.9 678.75 1286.25 678.75 1291.25 678.75 1293.3 681.05 1294.55 682.6 1294.7 684.55
L 1300.15 684.55 Z"/>
</g>

<g id="Layer4_0_STROKES_1_FILL">
<path fill="#FFFFFF" stroke="none" d="
M 1266.95 828.8
Q 1266.523046875 830.840625 1267.65 832.55
L 1275.25 844.25
Q 1276.3994140625 846.0162109375 1278.4 846.45 1280.4408203125 846.86875 1282.15 845.7 1283.91640625 844.5923828125 1284.35 842.55 1284.776953125 840.559375 1283.65 838.8
L 1276.05 827.1
Q 1274.9005859375 825.38359375 1272.85 824.95 1270.8591796875 824.53125 1269.1 825.65 1267.3833984375 826.8076171875 1266.95 828.8
M 1265.85 814.05
Q 1266.276953125 812.059375 1265.15 810.3
L 1257.55 798.6
Q 1256.4005859375 796.88359375 1254.35 796.45 1252.3591796875 796.03125 1250.6 797.15 1248.8833984375 798.3076171875 1248.45 800.3 1248.023046875 802.340625 1249.15 804.05
L 1256.75 815.75
Q 1257.8994140625 817.5162109375 1259.9 817.95 1261.9408203125 818.36875 1263.65 817.2 1265.41640625 816.0923828125 1265.85 814.05
M 1232.15 768.55
Q 1230.410546875 769.6798828125 1229.95 771.7 1229.534375 773.7115234375 1230.65 775.45
L 1238.25 787.25
Q 1239.38359375 788.9884765625 1241.4 789.4 1243.4125 789.86953125 1245.15 788.75 1246.889453125 787.6201171875 1247.3 785.6 1247.765625 783.5884765625 1246.65 781.85
L 1239.05 770.05
Q 1237.91640625 768.3115234375 1235.9 767.85 1233.8875 767.43046875 1232.15 768.55
M 1211.45 743.15
Q 1211.023046875 745.190625 1212.15 746.9
L 1219.75 758.65
Q 1220.8994140625 760.4162109375 1222.9 760.85 1224.9408203125 761.26875 1226.65 760.1 1228.41640625 758.9923828125 1228.85 756.95 1229.276953125 754.959375 1228.15 753.2
L 1220.55 741.45
Q 1219.4005859375 739.73359375 1217.35 739.3 1215.3591796875 738.88125 1213.6 740 1211.8833984375 741.1576171875 1211.45 743.15
M 1027.65 593.05
Q 1025.7482421875 592.2818359375 1023.85 593.1 1021.9466796875 593.913671875 1021.15 595.8 1020.3919921875 597.7419921875 1021.2 599.65 1022.0234375 601.56328125 1023.95 602.35
L 1036.95 607.55
Q 1038.8515625 608.3181640625 1040.75 607.5 1042.6533203125 606.686328125 1043.4 604.75 1044.208203125 602.8580078125 1043.4 600.95 1042.5765625 599.03671875 1040.65 598.25
L 1027.65 593.05
M 989.6 587.05
Q 990.4234375 588.96328125 992.35 589.75
L 1005.35 594.95
Q 1007.2515625 595.7181640625 1009.15 594.9 1011.0533203125 594.086328125 1011.8 592.15 1012.608203125 590.2580078125 1011.8 588.35 1010.9765625 586.43671875 1009.05 585.65
L 996.05 580.45
Q 994.1482421875 579.6818359375 992.25 580.5 990.3466796875 581.313671875 989.55 583.2 988.7919921875 585.1419921875 989.6 587.05
M 1419.2 529.65
Q 1419.590234375 527.6421875 1418.4 525.9 1417.253125 524.223828125 1415.2 523.85 1413.1923828125 523.4642578125 1411.45 524.6
L 1399.85 532.5
Q 1398.173828125 533.7013671875 1397.8 535.7 1397.409765625 537.7578125 1398.55 539.45 1399.746875 541.176171875 1401.75 541.55 1403.8076171875 541.9357421875 1405.5 540.75
L 1417.1 532.85
Q 1418.8259765625 531.6984375 1419.2 529.65
M 1362.95 567.95
Q 1363.340234375 565.9421875 1362.15 564.2 1361.003125 562.523828125 1358.95 562.15 1356.9423828125 561.7642578125 1355.2 562.9
L 1343.6 570.8
Q 1341.923828125 572.0013671875 1341.55 574 1341.159765625 576.0578125 1342.3 577.75 1343.496875 579.476171875 1345.5 579.85 1347.5576171875 580.2357421875 1349.25 579.05
L 1360.85 571.15
Q 1362.5759765625 569.9984375 1362.95 567.95
M 1371.7 551.6
Q 1370.023828125 552.8013671875 1369.65 554.8 1369.259765625 556.8578125 1370.4 558.55 1371.596875 560.276171875 1373.6 560.65 1375.6576171875 561.0357421875 1377.35 559.85
L 1388.95 551.95
Q 1390.6759765625 550.7984375 1391.05 548.75 1391.440234375 546.7421875 1390.25 545 1389.103125 543.323828125 1387.05 542.95 1385.0423828125 542.5642578125 1383.3 543.7
L 1371.7 551.6
M 1330.85 581.35
Q 1328.8423828125 580.9642578125 1327.1 582.1
L 1315.5 590
Q 1313.823828125 591.2013671875 1313.45 593.2 1313.059765625 595.2578125 1314.2 596.95 1315.396875 598.676171875 1317.4 599.05 1319.4576171875 599.4357421875 1321.15 598.25
L 1332.75 590.35
Q 1334.4759765625 589.1984375 1334.85 587.15 1335.240234375 585.1421875 1334.05 583.4 1332.903125 581.723828125 1330.85 581.35 Z"/>
</g>

<path id="Layer10_0_1_STROKES" stroke="#FFFFFF" stroke-opacity="0.06666666666666667" stroke-width="6" stroke-linejoin="round" stroke-linecap="round" fill="none" d="
M 2000.5 -162
Q 1985.85 -160.75 1963.7 -157 1919.4 -149.5 1881.75 -137 1829 -119.5 1797.1 -94.5 1757.25 -63.25 1752.45 -22 1748.95 8 1742.75 52.25 1738.55 85.15 1739.45 100.8 1740.55 120.2 1749.6 132.45 1758.75 144.85 1780.45 156.05 1808.85 170.75 1819.25 175.3 1837.95 183.55 1852 185.55 1868.15 187.85 1884 183.05 1900.7 178 1952.35 140.5 2004 103 2042.45 5.15 2080.9 -92.75 2058.55 -130 2062.3 -140 2031.8 -152 2022.25 -155.75 2010.4 -159.25
L 2000.5 -162 Z
M 2312.6 -140
Q 2291.4 -118.8 2267.2 -86.15 2239 -48.05 2219.35 -10.7 2195.95 33.8 2189.1 69.55 2181.15 111.4 2196.55 138.05 2207.55 157.05 2228.55 194.65 2247.3 227.1 2263.55 248.85 2284.6 277 2309.05 298.1 2337.1 322.35 2372.6 340.1
M 1982.5 -246.05
Q 1969.6 -232.45 1943.5 -223.8 1924.4 -217.45 1892.25 -212.25 1856.95 -207.15 1841.7 -204.25 1815.85 -199.4 1804.95 -192.6 1753.95 -160.95 1693.65 -57 1633.35 46.9 1702.95 181.5 1772.55 316.1 1770.05 343.1 1767.55 370.1 1787 431.85 1806.4 493.55 1792.8 539.2 1779.15 584.85 1728.75 638 1678.35 691.15 1722.3 768.4 1766.2 845.6 1889.55 915 2012.85 984.4 2109.4 861.35 2205.95 738.3 2235.1 728.4 2267.15 717.45 2286.85 705.35 2306.95 693.05 2318.7 676.7 2330 661.05 2336.1 638.1 2338.7 628.3 2344.25 618.4 2346.65 614.05 2354.4 602.35 2360.55 593 2363.15 587.05 2366.95 578.4 2367.1 569.6 2367.5 548.55 2346.75 516.55 2322.85 479.7 2266.05 420.05 2224.4 376.35 2159.6 315.95 2128.85 287.3 2117.55 276.35 2096.85 256.35 2079.65 235.7 2062.45 215 2052.65 123.75 2042.85 32.45 2204 -172.1
M 1666.45 -180
Q 1664.45 -167.85 1658.75 -149.45 1647.4 -112.55 1628.95 -80.95 1603.1 -36.75 1566.85 -9.5 1521.55 24.55 1462.4 30.05 1401.6 35.7 1337.4 12.9 1281.05 -7.05 1230.6 -45.45 1184.75 -80.35 1157.15 -119.6 1130.05 -158.2 1132.3 -184
M 998.3 -145.5
Q 997.65 -139.15 998.9 -127.75 1001.4 -104.9 1010.9 -79.35 1041.25 2.35 1130.3 80.05 1153.6 100.45 1180.9 110.6 1206.3 120.05 1239.1 122 1267.35 123.65 1308.85 120 1332.4 117.9 1394 110.3 1451.75 103 1492.05 106.35 1528.7 109.4 1554.4 121.65 1576.15 132 1594.1 151.25 1604.75 162.65 1624.45 190.35 1642.05 215.2 1651.7 231.2 1669.25 260.3 1680.85 290.05 1712.85 372.3 1702.45 466.1 1699.7 490.9 1691.2 520.5 1684.65 543.2 1672.8 574.8 1658.95 610.65 1652.35 628.3 1640.85 658.95 1634.95 680.15 1618.9 737.45 1629.3 776.35 1642.15 824.2 1696.45 857.5 1712.4 867.3 1751.8 892 1784.3 912.4 1802.25 923.1 1856.55 955.5 1896 970.35 1944.8 988.75 1993.5 990.05 2047.05 991.55 2110.55 973.1 2171.55 955.4 2232.65 909.45 2283.05 871.6 2329.6 817.7 2366.7 774.8 2393.6 731.4 2404.4 713.95 2410.7 700.75 2416.65 688.35 2416.65 684.05
M 1976.5 302.1
Q 1969.5 305.5 1959.55 312.5 1939.6 326.5 1924.75 344.65 1903.95 370 1896.35 400 1886.8 437.55 1898.5 480.15 1911.15 526.2 1914.5 550.95 1917.8 575.1 1914 592.2 1911.25 604.55 1900.75 625.9 1885.6 656.65 1878.5 674.2 1865.9 705.3 1864.7 734.7 1863.55 763.35 1873.25 787.75 1882.9 812.05 1902.4 829.5 1922.3 847.35 1950.5 856.25 1976.25 864.35 2014.5 832.2 2041.5 809.55 2085.8 755.5 2097.75 740.95 2121.1 712.1 2141.15 687.6 2154.5 673.15 2190.4 634.15 2210.6 632.2 2233.2 630 2247.15 609.6 2260.45 590.2 2261.6 561.2 2262.8 531.25 2250.55 502.25 2237.1 470.35 2210.6 448.15 2190.15 431.05 2158.55 392.4 2137.3 366.45 2133.5 362 2119.2 345.15 2107.8 333.85 2078.15 304.65 2049.9 295.95 2015.55 285.35 1976.5 302.1 Z
M 724.6 -131.35
Q 757.5 -119.05 783.8 -105.15 871.7 -58.7 910.45 14.65 931.05 53.6 942.8 101.35 948.85 125.9 959.05 187.85 968.345703125 244.395703125 982.175 287.225 996.012890625 330.0625 1026.9 375.75 1034.0474609375 386.321875 1040.375 397.475 1041.3876953125 399.25859375 1042.375 401.05 1061.9751953125 436.6353515625 1073.4 478.1 1082.558203125 511.3494140625 1078.775 529 1076.1107421875 541.4177734375 1067.025 546.1 1045.042578125 557.426953125 1029.725 571.075 1014.40703125 584.7197265625 1010.5 646.575 1007.8462890625 688.5587890625 1027.325 719.15 1036.5330078125 733.6255859375 1050.7 745.55 1094.809765625 782.690625 1061.625 840.675 1028.44609375 898.6509765625 950.6 929.6 885.05 955.65 793.65 958.4 715.95 960.7 644.8 946.5 584.7 934.5 532.7 940.2 485.2 945.45 449.05 964.85 415.3 982.85 396.45 1010.25 378.15 1036.8 370.5 1126.55
M 878.25 -132.15
Q 903.75 -92.15 931.8 -37.9 987.8 70.55 1000.3 141.45 1005.2 169.1 1010.1 204.9 1013.5 229.45 1015.8 237.3 1018.9 247.8 1026.75 256.75 1031.45 262.15 1052.3 281.5 1062.35 290.8 1095.7 314.8 1127.3 337.5 1144.35 354.3 1170.4 380.05 1183.95 409.75 1200.35 445.6 1200.35 490.55 1200.35 526.1 1202.3 569.3 1204.2 610.5 1204.1 623.65 1203.85 648.85 1199.45 670.95 1194.55 695.6 1182.3 728.5 1169.45 763 1141.8 809.9 1113.75 857.55 1080.3 901.15 1044 948.45 1011.25 977.8 974.55 1010.7 948.25 1015.4 936.2 1017.6 917.3 1017.85 911.45 1017.95 881.6 1017.65 832.7 1017.1 805.25 1023.2 763.1 1032.55 737.85 1060.45 707.25 1094.15 698.2 1157.7
M 176.1 1175.3
Q 199.2904296875 1040.6982421875 234.925 1028.225 270.5525390625 1015.74140625 328.4 973.075 386.2501953125 930.404296875 419.4 911.05 460.8 886.8 504.15 890.25 623.1 899.7 680.7 900.25 765.25 901.1 788.2 886.25 795.15 881.75 804.05 871.85 814.1 860.75 822.8 846.8 845.15 811.25 849 774.75 852.1029296875 745.3359375 842.35 719.15 836.7076171875 703.98359375 826.75 689.9 823.9732421875 685.967578125 820.875 682.15 820.0484375 681.13359375 819.2 680.125 814.5447265625 674.5771484375 809.2 669.25 775.99296875 636.2326171875 716.2 612.2 646.35 584.15 555.35 574.65 529.55 571.95 482.1 569.05 435.95 566.2 415.15 563.95 380.35 560.1 355.7 553.1 326.55 544.8 304.95 530.35 256.35 497.8 234.1 424.15 222.05 384.3 192.8 296.75 173.95 240.4 169.35 215.1 163.15 181.3 170.25 152.95 177.35 124.55 202.1 84.05 233.05 33.45 248.25 3.05 270.5 -41.45 278.6 -77.75 288.2 -120.6 279.75 -158.2 270.35 -200.1 238.1 -238.05
M 344.1 -210
Q 344.6 -197.6 344.1 -177.75 343.1 -138 338.1 -100.5 322.1 19.5 272.1 72.05 258.7 86.15 249.65 110.35 240.15 135.85 237.1 168.5 230.1 243.9 258.2 332.35 265.3 354.9 295.7 380.45 326.65 406.5 374.95 470.35 423.25 534.15 512.65 532.35 602.05 530.5 644.2 520.15 692.1 508.35 721.25 498.45 753.3 487.5 773 475.4 793.1 463.1 804.85 446.75 807.1310546875 443.5908203125 809.2 440.125 815.045703125 430.3677734375 819.2 418.225 820.8599609375 413.379296875 822.25 408.15 823.1900390625 404.606640625 824.525 401.05 825.2591796875 399.0521484375 826.125 397.05 827.983984375 392.7595703125 830.4 388.45 832.8 384.1 840.55 372.4 846.7 363.05 849.3 357.1 853.1 348.45 853.25 339.65 853.65 318.6 832.9 286.6 809 249.75 752.2 190.1 710.55 146.4 645.75 86 615 57.35 603.7 46.4 583 26.4 569.9 11.55 539 -23.5 529.7 -54.65 519.35 -89.25 530.15 -134
M 761.55 328.25
Q 770 307.85 723.85 244.6 681.3 186.3 614.75 120.75 546.25 53.35 493.55 19.3 465.35 1.1 446.85 -3.55 426.8 -8.55 419.35 2.65 400.3 31.35 385.85 49.15 373.35 63.4 369.95 67.45 365 73.35 362.25 81.35 360 87.95 353.5 114.3 351.15 123.8 343.2 134.85 338.4 141.5 327.15 154 316.05 166.35 311.8 172.3 304.75 182.25 303.8 190.3 299.2 227.4 312.65 270.5 324.45 308.45 348.7 346.8 370.5 381.15 397.25 408.3 422.7 434.15 443.45 444.3 447.8 446.45 461.25 453.2 474.7 459.6 485.9 463.6 518.7 475.15 538.8 467.85 567.8 457.4 595.15 451.5 611.95 447.85 636.15 444.6 658.3 441.65 666.6 439.55 680.9 436 691.6 428.65 715.2 412.45 729.6 391.6 743.7 371.25 761.55 328.25 Z
M -62.25 -194
Q -87.1 -125 -39.85 -22.25 -24.85 10.3 0.45 52.2 7 63.05 18.5 81.65 27.65 96.6 31.55 104 31.95 104.75 35.25 110 38.35 115 40.45 119.1 47.2 132.55 48.05 146.05 48.5462890625 160.9501953125 44.775 170.65 41.010546875 180.3494140625 35.55 194.875 30.0892578125 209.4005859375 28.05 233.675 26.003515625 257.9498046875 31 272 35.5 284.6 36.05 288.1 37.1 294.45 43.4 307.2 47 314.45 58.7 335.75 85.55 384.8 100.05 419.15 155.05 549.35 135.25 674.25 130.1 706.8 135.3 729.4 139.15 746.05 149.75 760.05 152.05 763.05 156.55 773.7 162.05 786.8 161.9 793.35 161.3 817.35 156.5 830.25 153.05 839.45 143.85 848.05 140 851.7 124.6 863.45 111.15 873.75 103.2 882.25 91.45 894.8 84.05 910.25 76.7 925.6 51.1 937.3 24.85 949.35 -6.4 950.8 -41.45 952.45 -69.7 939.5 -102.4 924.55 -120 892.25 -128.75 876.2 -175.2 847.5 -216.4 822.05 -274.25 794.35 -329.9 767.7 -373.25 752.1 -419.35 735.5 -428.05 740.2
M -176.05 68.05
Q -174.8 73.15 -167.8 82.6 -158.35 94.55 -153.05 101.7 -131.9 130.05 -127.95 154.1 -126.9 160.5 -119.55 173 -114.9 180.9 -101.55 201.15 -68.9 250.55 -51.95 283.15 15 411.75 60.9 494.9 71.15 513.5 71.85 552.15 72.35 577.3 68.05 627.4 63.4546875 681.6015625 61.65 709.725 59.8359375 737.8453125 61.875 755.625 63.9140625 773.4046875 56.3 789.25 48.6953125 805.0984375 36.2 815.65 22.25 827.5 21.55 828.15 -3.15 852.55 -31.35 851.25 -53.75 850.25 -87.875 831.225 -148.30390625 797.5330078125 -156.45 788.7 -164.5962890625 779.8669921875 -195.25 758.975 -228.45 736.1 -252.7 719.55 -298.7 688.15 -318.05 676.2 -327.3 670.5 -350.8 662.6 -366.3 657.35 -398.9 647.75 -435.75 636.95 -449.15 632.65 -475.4 624.3 -488.1 618.2
M 1820.3 1053.8
Q 1806.6 1027.15 1780.95 1008.25 1761 993.6 1730.25 981.4 1719.9 977.3 1704.2 971.9 1683 964.55 1679.65 963.35 1652.5 953.45 1640.55 944.15 1581.45 898.1 1502.25 966.4 1423.05 1034.7 1355 1072.4 1286.9 1110.1 1272.35 1166.3 1245.95 1268.2 1456.9 1247.55 1523.7 1241.05 1620.05 1221.15 1639.9 1217.05 1685.85 1207 1718.15 1199.95 1728.45 1198.3 1733.5 1197.5 1768.6 1199.65 1830.3 1203.45 1840.75 1204 1941.4 1209.05 1946.5 1198.3 1948.95 1193.15 1932.5 1174.5 1921.7 1162.2 1893.25 1134.25 1860.75 1102.3 1849.05 1089.9 1826.55 1066.05 1820.3 1053.8 Z"/>

<path id="Layer6_0_1_STROKES" stroke="#FFFFFF" stroke-opacity="0.2" stroke-width="6" stroke-linejoin="round" stroke-linecap="round" fill="none" d="
M -250 912.25
Q -112.45 1007.1 -8.95 1014.55 31.8 1017.45 65.05 1006.5 92.2 997.55 112.05 980.25 126.45 967.7 137.3 947.5 140.9 940.7 145.5 930.4 151.7 916.65 152.75 914.45 161.1 897.05 169.9 890.3 181.45 881.5 200.1 884.25 212.65 886.1 228.15 881 243.3 876.05 256.8 865.95 270.9 855.45 279.1 842.3 288.1 827.9 288.1 813.2 288.1 788.25 308.15 768.35 327.4 749.15 356.85 742.55 307.2 743.4 271.15 739.45 241.7 736.2 217.95 729.25 177.3 717.3 182.65 654.6 184.3 635.1 190.85 608.65 197.85 580.15 197.875 579.875 201.85 550.9 191.45 518.1 188.05 507.35 182.55 494.7 177 482.5 175.35 478.45 175.33125 478.440234375 175.325 478.425 164.7283203125 452.7076171875 147.6 430.7 111.1 384 96.6 336.1 83.5 293 87.7 247.15 91.35 207.75 108.3 162.9 120.95 129.35 145.5 82.35 173.7 30.15 186.65 4.55 208.9 -39.45 218.95 -71.45 231.65 -112.05 229.7 -146.7 227.45 -186.15 206.1 -222.05
M 1492.05 737.4
L 1492.025 737.4 1581.95 828.6 1768.4 281.65 1647.7 420.5 1647.7 482.35 1543.35 549.1 1474.3 549.1 1492.05 737.4 1378.25 473.1
M 1768.4 281.65
L 1230.3 471.9 1334.7 577.8 1492.025 737.4 1417 874.25
M 1334.7 577.8
L 1334.7 770.2 1334.7 822.2
M 1347.8 999
L 1196.35 1132.3 2040.55 1132.3 1581.95 828.6 1417 914.25
M 1334.7 770.2
L 909.5 770.7 755.85 706.2
Q 741.3 702.65 734.05 701.15 721.45 698.55 712.4 699.35 687.95 701.5 668.85 730.2 641.3 771.7 596.6 762 578.2 758 558.8 745.5 541.45 734.3 526.15 718.2 513.95 705.4 499 702.75 485.15 700.3 470.2 706.75 456 712.9 442.65 726.1 429.6 739.05 419.45 756.65 435.15 777 419.45 799.2 415.9 813.2 395.1 815.7
L 369.15 810.2
Q 377.75 818.95 383.85 837.2 385.35 841.65 392.65 869.4 397.45 887.65 402.25 894.45 408.8 903.8 419.3 900 468.25 882.4 471.55 953.95 473.6 999.45 449.1 1131.25
M 909.5 770.7
L 908.475 730.35 908.175 719.15 907.9 708.2
M 818.65 608.65
L 755.85 706.2
M 1122.25 510.1
L 1230.3 471.9
M 369.15 810.2
Q 344.55 806.05 349.1 788.2
L 349.1 769.2
Q 372.3 761.65 368.15 743.15 364.45 743.05 360.9 742.85 358.85 742.7 356.85 742.55
M 368.15 743.15
Q 366.35 742.7 362.7 742.8 361.75 742.8 360.9 742.85
M 368.15 743.15
Q 404.95 752.6 390.15 772.2 405.75 783.25 419.45 756.65
L 400.15 732.15
Q 390.2 725.5 368.15 743.15 Z
M 349.1 769.2
Q 369.65 793.15 390.15 772.2
L 390.15 792.2
Q 411.6 780.55 419.45 799.2
M 837.2 486.1
L 512.15 312.1
Q 198.741015625 266.454296875 175.325 478.425
M 390.15 792.2
Q 385.05 812.2 369.15 810.2
M 1196.35 1132.3
L 1207.2 914.25
M 2140.05 -328.4
L 1768.4 281.65 2599.55 175
M 512.15 312.1
L 368.1 -236.05"/>

<path id="Layer6_1_1_STROKES" stroke="#999999" stroke-width="6" stroke-linejoin="round" stroke-linecap="round" fill="none" d="
M 826.2 523.15
L 837.2 486.1 864.2 484.1 924.2 438.1 973.2 434.1 965.2 534.15 985.3 534.15
Q 985.5 532.7 988.85 523.2 993.35 510.25 998.7 498.6
L 1024.25 534.15 1020.25 432.1 1098.25 429.1 1096.25 462.1 1122.25 510.1 1041.25 512.1 1024.25 534.15 985.3 534.15 942.7 619.1
Q 942.5 622.9 942 627.2 940.25 642.2 936.25 656.2
L 936.25 676.65 907.9 708.2 886.7 700.15 869.7 693.65 868.25 638.2 818.65 608.65 823.2 589.15 826.2 523.15 894.2 522.15 916.7 527.15 922.2 501.1 865.2 505.1 864.2 484.1
M 823.2 589.15
L 862.7 586.15 902.2 583.15 894.2 522.15 823.2 589.15 868.25 638.2 862.7 586.15 875.2 597.625 902.2 622.4 902.2 583.15 916.7 527.15 965.2 534.15 924.2 438.1 922.2 501.1
M 902.2 583.15
L 934.25 592.2
Q 943.9 596.5 942.7 619.1
M 934.25 592.2
L 902.2 622.4 912.7 662.15 936.25 656.2
M 869.7 693.65
L 874.95 682.15 875.2 681.6 902.2 622.4 875.2 634.975 868.25 638.2
M 912.7 662.15
L 886.7 700.15 936.25 676.65
M 1041.25 512.1
L 1040.25 462.1 1020.25 432.1
M 1096.25 462.1
L 1040.25 462.1"/>

<path id="Layer6_2_1_STROKES" stroke="#999999" stroke-width="6" stroke-linejoin="round" stroke-linecap="round" fill="none" d="
M 1474.3 549.1
L 1543.35 549.1 1472.65 482.35 1474.3 549.1 1416.8 502.2 1378.25 473.1 1378.25 420.5 1647.7 420.5 1647.7 482.35 1472.65 482.35 1378.25 420.5"/>

<path id="Layer6_3_1_STROKES" stroke="#999999" stroke-width="6" stroke-linejoin="round" stroke-linecap="round" fill="none" d="
M 1334.7 876.25
L 1334.7 822.2 1417 874.25 1417 914.25 1347.8 999 1207.2 914.25 1334.7 876.25 1417 914.25 1334.7 822.2
M 1347.8 944.25
L 1417 914.25 1207.2 914.25 1347.8 944.25 1347.8 999"/>
</defs>

<g transform="matrix( 1, 0, 0, 1, 0,0) ">
<use xlink:href="#Layer11_0_FILL"/>
</g>

<g transform="matrix( 1, 0, 0, 1, 0,0) ">
<use xlink:href="#Layer10_0_1_STROKES"/>
</g>

<g transform="matrix( 1, 0, 0, 1, 0,0) ">
<use xlink:href="#Layer9_0_FILL"/>
</g>

<g transform="matrix( 1, 0, 0, 1, 0,0) ">
<use xlink:href="#Layer8_0_FILL"/>
</g>

<g transform="matrix( 1, 0, 0, 1, 0,0) ">
<use xlink:href="#Layer7_0_STROKES_1_FILL"/>
</g>

<g transform="matrix( 1, 0, 0, 1, 0,0) ">
<use xlink:href="#Layer6_0_1_STROKES"/>
</g>

<g transform="matrix( 1, 0, 0, 1, 0,0) ">
<use xlink:href="#Layer6_1_1_STROKES"/>
</g>

<g transform="matrix( 1, 0, 0, 1, 0,0) ">
<use xlink:href="#Layer6_2_1_STROKES"/>
</g>

<g transform="matrix( 1, 0, 0, 1, 0,0) ">
<use xlink:href="#Layer6_3_1_STROKES"/>
</g>

<g transform="matrix( 1, 0, 0, 1, 0,0) ">
<use xlink:href="#Layer5_0_FILL"/>
</g>

<g transform="matrix( 1, 0, 0, 1, 0,0) ">
<use xlink:href="#Layer4_0_STROKES_1_FILL"/>
</g>
</svg>
