
<svg xmlns="http://www.w3.org/2000/svg" version="1.1" xmlns:xlink="http://www.w3.org/1999/xlink" preserveAspectRatio="none" x="0px" y="0px" width="2196px" height="1200px" viewBox="0 0 2196 1200">
<defs>
<radialGradient id="Gradient_1" gradientUnits="userSpaceOnUse" cx="0" cy="0" r="2034.3500000000004" fx="0" fy="0" gradientTransform="matrix( 0.9999999999999999, 0, 0, 0.9999999999999999, 376.1,797.15) " spreadMethod="pad">
<stop  offset="0%" stop-color="#00324D"/>

<stop  offset="18.03921568627451%" stop-color="#000509"/>
</radialGradient>

<g id="Layer12_0_FILL">
<path fill="url(#Gradient_1)" stroke="none" d="
M 2200.5 1385.05
L 2200.5 -29.55
Q 2194 -31.65 1053.75 -44.05 484.2 -50.25 225.75 -49.95 -31.7 -49.6 -35.9 -42.75
L -35.9 1347.05 2200.5 1385.05 Z"/>
</g>

<g id="Layer10_0_FILL">
<path fill="#FFFFFF" stroke="none" d="
M 582.55 647.4
Q 584.85 647.4 586.5 648.05 588.15 648.7 588.15 651.15
L 586 663.1
Q 584.45 662.2 582.45 661.7 580.4 661.15 578.05 661.15 573.55 661.15 569.75 663 566 664.9 563.1 668.05 560.25 671.2 558.2 675.05 556.25 679 555.25 683.1 554.25 687.2 554.25 690.95 554.25 695.1 555.35 698.45 556.4 701.75 558.75 703.65 561.05 705.6 564.55 705.6 569.3 705.6 573.05 702.2 576.8 698.85 579.5 692.75
L 580 692.75 579.2 698.95
Q 579.2 702.05 580.9 703.8 582.55 705.6 585.45 705.6 587.45 705.6 589.6 704.85
L 593.7 702.95 596.75 700.8 595.3 698.45 592.3 699.95
Q 590.9 700.55 589.5 700.55 588.2 700.55 587.55 699.55 586.9 698.45 586.9 696.5
L 587.1 693.6 597.35 644 582.65 644 581.95 647.4 582.55 647.4
M 582 665.45
Q 583.7 666.15 584.55 667.6
L 581.6 681.75
Q 580.9 685.2 579.35 688.55 577.85 691.9 575.9 694.65 573.95 697.4 571.75 698.95 569.5 700.55 567.45 700.55 565.3 700.55 563.85 698.4 562.4 696.25 562.4 691.3 562.4 688.4 563.05 684.85 563.7 681.3 565 677.75 566.3 674.25 568.2 671.3 570.2 668.3 572.7 666.5 575.3 664.7 578.5 664.7 580.35 664.7 582 665.45
M 508 665.25
Q 510.3 665.25 511.95 665.95 513.6 666.65 513.6 669.05
L 513.5 670.45 506.4 704.8 513.9 704.8 518.15 684.35
Q 518.65 681.9 520.15 678.8 521.6 675.8 523.75 672.9 525.85 670 528.35 668.15 530.85 666.3 533.3 666.3 535.65 666.3 536.3 667.9 536.95 669.45 536.95 671.05
L 532.8 693.1 532.45 697.6
Q 532.45 701.05 534.3 703.3 536.2 705.6 539.7 705.6 542.8 705.6 545.15 704.15
L 549.45 701.05 548 698.7 545.45 700.05
Q 544.2 700.55 542.9 700.55 541.6 700.55 540.85 699.55 540.1 698.55 540.1 696.7
L 541.15 688.3 544.15 674.45
Q 544.65 672.05 544.65 670.05 544.65 667.7 543.85 665.7 543 663.65 541.15 662.45 539.3 661.2 536.1 661.2 531.6 661.2 528.2 663.95 524.8 666.7 521.55 672
L 520.75 672 522.9 661.9 508.1 661.9 507.4 665.25 508 665.25
M 483.85 661.15
Q 479.35 661.15 475.55 663 471.8 664.9 468.9 668.05 466.05 671.2 464 675.05 462.05 679 461.05 683.1 460.05 687.2 460.05 690.95 460.05 695.1 461.15 698.45 462.2 701.75 464.55 703.65 466.85 705.6 470.35 705.6 473.55 705.6 476.25 704.1 478.9 702.55 481.2 699.7 483.5 696.8 485.3 692.75
L 485.8 692.75 485 698.95
Q 485 702.05 486.7 703.8 488.35 705.6 491.25 705.6 493.25 705.6 495.4 704.85
L 499.5 702.95 502.55 700.8 501.1 698.45 498.1 699.95
Q 496.7 700.55 495.3 700.55 494 700.55 493.35 699.55 492.7 698.45 492.7 696.5
L 492.9 693.6 499.35 662 496.75 662 493.25 664 490.7 662.5 487.55 661.5 483.85 661.15
M 478.5 666.5
Q 481.1 664.7 484.3 664.7 486.15 664.7 487.8 665.45 489.5 666.15 490.35 667.6
L 487.4 681.75
Q 486.7 685.2 485.15 688.55 483.65 691.9 481.7 694.65 479.75 697.4 477.55 698.95 475.3 700.55 473.25 700.55 471.1 700.55 469.65 698.4 468.2 696.25 468.2 691.3 468.2 688.4 468.85 684.85 469.5 681.3 470.8 677.75 472.1 674.25 474 671.3 476 668.3 478.5 666.5
M 441.3 647.4
Q 443.65 647.4 445.3 648.05 446.95 648.7 446.95 651.15
L 446.85 652.55 439.9 685.45 438.45 694 438.15 698
Q 438.15 701.15 439.9 703.35 441.6 705.6 444.75 705.6 447.8 705.6 450.8 703.95 453.75 702.35 455.5 700.8
L 454.05 698.45 451.1 699.95
Q 449.65 700.55 448.3 700.55 447.05 700.55 446.3 699.55 445.65 698.45 445.65 696.5
L 445.9 693.6 456.2 644 441.1 644 440.4 647.4 441.3 647.4
M 417.65 661.2
Q 412.95 661.2 409.5 662.75 406 664.35 404.1 667 402.25 669.7 402.25 673.1 402.25 677.95 404.9 680.7 407.5 683.45 411.9 685.5 416.35 687.55 418.15 689.55 420 691.5 420 694.35 420 696.8 418.95 698.45 417.95 700.05 415.95 700.95 414 701.75 411.35 701.75 408.1 701.75 406.05 700.3 404 698.85 403.15 696.5 402.25 694.1 402.25 691.3
L 400.1 691.7
Q 398.95 692.05 398.1 693.25 397.2 694.4 397.2 696.55 397.2 699.35 398.85 701.4 400.45 703.45 403.45 704.55 406.4 705.6 410.4 705.6 415.5 705.6 419.2 703.9 422.95 702.2 424.95 699.25 426.95 696.25 426.95 692.4 426.95 687.75 424.35 684.9 421.75 682 417.35 680 413.2 678.1 411.2 676.3 409.2 674.5 409.2 671.75 409.2 668.7 411.3 666.8 413.35 664.9 416.95 664.9 419.7 664.9 421.25 666.2 422.8 667.55 423.5 669.55 424.15 671.6 424.15 673.75 426.95 673.75 428.55 672.55 430.15 671.3 430.15 668.8 430.15 666.95 428.85 665.2 427.5 663.45 424.8 662.35 422.1 661.2 417.65 661.2
M 390 656.8
Q 390.6 654.25 391.7 653.05 392.8 651.85 394.4 651.45
L 397.75 651.05 398.8 651.05 399.5 647.7 376.25 647.7 375.55 651.05 376.55 651.05
Q 379.15 651.05 380.75 651.6 382.35 652.15 382.35 654.25
L 373.7 695.7
Q 373.2 698.15 372 699.4 370.8 700.65 369.25 701.05
L 365.85 701.45 364.8 701.45 364.15 704.8 387.45 704.8 388.15 701.45 387.15 701.45
Q 384.65 701.45 383 700.85 381.35 700.25 381.35 698.25
L 390 656.8
M 312.05 661.9
L 311.3 665.25 312 665.25
Q 314.3 665.25 316.3 665.95 318.35 666.65 318.35 669.05
L 318.25 670.45 311.15 704.8 318.65 704.8 321.65 690.25
Q 322.55 686.25 324.05 682.05 325.6 677.85 327.45 674.3 329.35 670.75 331.45 668.55 333.6 666.4 335.65 666.4 337.55 666.4 338.2 668.1 338.85 669.85 338.85 672.75 342.4 672.75 343.95 671.1 345.5 669.45 345.5 666.65 345.5 664.25 343.9 662.7 342.3 661.15 338.95 661.15 335.35 661.15 332.85 662.85 330.4 664.55 328.65 667.4
L 325.35 673.45 324.55 673.45 326.2 661.9 312.05 661.9
M 264.95 665.25
Q 267.25 665.25 268.9 665.95 270.55 666.65 270.55 669.05
L 269.85 673.8 266.7 687.85 265.25 696.65
Q 265.25 698.95 266.1 701 266.95 703.05 268.8 704.3 270.75 705.5 273.8 705.5 277.45 705.5 280.05 703.95 282.7 702.4 284.85 699.65
L 289.3 693.3 289.9 693.3 289.5 698
Q 289.5 700.05 290.3 701.8 291.1 703.5 292.65 704.55 294.15 705.6 296.25 705.6 299.3 705.6 301.95 704.15 304.65 702.65 306.4 701.15
L 304.95 698.8 302.35 700.1
Q 301.2 700.55 299.85 700.55 298.55 700.55 297.9 699.55 297.15 698.45 297.15 696.5
L 297.4 693.6 303.9 661.9 296.15 661.9 292 681.85
Q 291.25 685.1 289.65 688.4 288.05 691.7 285.9 694.4 283.75 697.1 281.45 698.75 279.15 700.4 276.95 700.4 274.65 700.4 273.8 698.95 273.05 697.55 273.05 695.5
L 273.6 690.9 279.9 661.9 265 661.9 264.3 665.25 264.95 665.25
M 254.4 656.3
Q 251.55 651.45 246.8 649.15 242.1 646.8 236.55 646.8 230.25 646.8 225.15 649.15 220 651.45 216.15 655.3 212.3 659.2 209.75 664 207.1 668.8 205.85 673.8 204.55 678.85 204.55 683.5 204.55 690.75 207.3 695.7 210.1 700.6 214.85 703.15 219.6 705.7 225.5 705.7 231.9 705.7 237.05 703.3 242.15 700.95 245.95 696.95 249.8 692.95 252.3 688.1 254.8 683.3 256.05 678.25 257.3 673.2 257.3 668.8 257.3 661.15 254.4 656.3
M 247.65 675.2
Q 246.8 679.85 245.05 684.45 243.3 689.05 240.6 692.85 237.9 696.65 234.25 698.95 230.65 701.3 226 701.3 222.45 701.3 219.55 699.7 216.65 698.1 214.95 694.65 213.3 691.2 213.3 685.8 213.3 681.85 214.15 677.2 215.05 672.55 216.8 667.95 218.55 663.35 221.25 659.55 223.9 655.8 227.6 653.45 231.25 651.15 235.9 651.15 239.6 651.15 242.4 652.75 245.2 654.4 246.85 657.8 248.5 661.2 248.5 666.65 248.5 670.55 247.65 675.2 Z"/>
</g>

<g id="Layer9_0_FILL">
<path fill="#FFFFFF" stroke="none" d="
M 802.3 188.5
Q 789.1 188.5 780.95 197.9 772.8 207.35 772.8 222.45 772.8 237.85 780.9 246.4 789 254.9 800.65 254.9 805.4 254.9 809.2 253.95 816.25 252.3 820.95 247.6 823.85 244.9 826.2 240.7 828.45 236.4 828.9 232.95
L 818.5 232.95
Q 817.4 237.1 814.65 240.35 809.8 245.8 801.6 245.8 792.8 245.8 788.55 240 784.4 234.2 784.1 224.65
L 829.75 224.65
Q 829.75 215.15 828.85 210.8 827.75 204.5 824.65 199.75 821.4 194.75 815.15 191.65 808.9 188.5 802.3 188.5
M 784.35 216.25
Q 784.65 208.2 789.5 202.95 794.45 197.7 801.65 197.7 811.65 197.7 815.95 205.3 818.3 209.4 818.9 216.25
L 784.35 216.25
M 757.85 193.25
Q 751.2 188.1 740.6 188.1 728.15 188.1 720.15 197.3 712.1 206.5 712.1 223 712.1 236.5 719.45 245.5 726.75 254.45 739.05 254.45 750 254.45 757.05 248.7 764.1 242.9 765.85 230.45
L 755.6 230.45
Q 754.1 237.4 750.3 241.4 746.45 245.4 739.9 245.4 731.35 245.4 727.35 238.95 723.35 232.5 723.35 223.05 723.35 213.75 726.15 207.35 730.5 197.5 740.6 197.5 747.95 197.5 751.3 201.4 754.65 205.2 755.6 211
L 765.85 211
Q 764.5 198.4 757.85 193.25
M 695.4 178.9
Q 684.45 164.25 661.65 164.25 639.85 164.25 628.7 180.15 620.05 192.6 620.05 210.05 620.05 229.4 630.15 242.05 641.55 255.15 661.4 255.15 682.65 255.15 694.15 240.15 703.95 227.4 703.95 208.1 703.95 190.3 695.4 178.9
M 662.35 174.6
Q 676.1 174.6 684.1 183.85 692 193.1 692 208.3 692 222.7 685.15 233.7 678.2 244.8 662.8 244.8 646.6 244.8 639.35 234.95 632.1 225.15 632.1 210.85 632.1 192.95 640.55 183.8 649 174.6 662.35 174.6
M 919.8 189.9
L 909.8 189.9 909.8 252.65 920.35 252.65 920.35 219.8
Q 920.35 213.65 921.15 210.35 921.9 207 924.55 203.9 927.85 200.05 932.15 198.75 934.55 198 938.3 198 945.7 198 948.5 203.85 950.2 207.35 950.2 213.1
L 950.2 252.65 960.95 252.65 960.95 212.4
Q 960.95 202.9 958.35 197.8 953.65 188.5 940.3 188.5 934.2 188.5 929.25 190.9 924.25 193.3 919.8 198.8
L 919.8 189.9
M 885.7 192.6
Q 878.75 188.35 867.75 188.35 858.2 188.35 850.95 192.95 843.75 197.45 843.45 209.1
L 853.3 209.1
Q 853.85 204.25 855.8 201.75 859.25 197.3 867.5 197.3 874.6 197.3 878.5 199.75 882.3 202.15 882.3 207.6 882.3 210.25 881.6 211.65 880.35 214.2 876.7 214.7
L 859.9 216.8
Q 851.05 217.9 845.6 222.7 840.15 227.5 840.15 236.2 840.15 244.15 845.7 249.5 851.25 254.75 859.95 254.75 867.25 254.75 873.25 251.65 879.3 248.55 882.5 244.35 883.05 248.1 884.35 250.15 886.8 254 892.25 254
L 895.75 253.8 899.5 252.95 899.5 245.15 897.65 245.45 896.05 245.5
Q 893.9 245.5 893.25 244.5 892.55 243.5 892.55 241.85
L 892.55 205.7
Q 892.55 196.8 885.7 192.6
M 854.5 243.15
Q 851.15 240.5 851.15 235.95 851.15 229.95 856.1 227.2 858.95 225.6 864.7 224.8
L 877 222.85
Q 880.05 222 882 220.8
L 882 229.2
Q 882 238.95 873.2 243.2 868 245.8 862.4 245.8 857.85 245.8 854.5 243.15
M 1079.1 180.35
L 1079.1 190.2 1070.4 190.2 1070.4 198.5 1079.1 198.5 1079.1 252.65 1089.55 252.65 1089.55 198.5 1100.1 198.5 1100.1 190.2 1089.55 190.2
Q 1089.55 180 1090.5 177.55 1091.45 175 1096.3 175
L 1100.1 175.2 1100.1 165.6 1095.65 165.35
Q 1085.1 165.35 1081.4 170.75 1079.35 173.8 1079.1 180.35
M 1034.85 188.1
Q 1021.45 188.1 1013.5 197.45 1005.5 206.85 1005.5 222.6 1005.5 237.35 1013.05 246.15 1020.6 254.9 1033.5 254.9 1048.95 254.9 1056.25 244.95 1063.55 235.05 1063.55 219.95 1063.55 204.25 1055.25 196.15 1046.95 188.1 1034.85 188.1
M 1034.5 245.8
Q 1025 245.8 1020.7 239.1 1016.35 232.45 1016.35 222.4 1016.35 212.05 1020.7 204.65 1025 197.3 1034.55 197.3 1045.35 197.3 1049.8 205.95 1052.55 211.45 1052.55 220.25 1052.55 229.9 1048.7 237.9 1044.8 245.8 1034.5 245.8
M 1253.1 188.35
Q 1245.45 188.35 1240.35 191.7 1237.4 193.65 1233.65 198.4
L 1233.65 166.3 1223.1 166.3 1223.1 252.65 1233.65 252.65 1233.65 219.35
Q 1233.65 206.85 1238.95 202.3 1244.3 197.8 1250.85 197.8 1258.75 197.8 1261.65 202.95 1263.4 206.2 1263.4 213.1
L 1263.4 252.65 1274.25 252.65 1274.25 212.4
Q 1274.25 203.15 1271.6 197.9 1266.75 188.35 1253.1 188.35
M 1209.6 191.25
Q 1209.6 179.55 1202.55 173.1 1195.55 166.6 1184.1 166.6
L 1145.6 166.6 1145.6 252.65 1157.25 252.65 1157.25 216.25 1184.15 216.25
Q 1197.05 216.25 1203.3 208.8 1209.6 201.3 1209.6 191.25
M 1180.3 176.6
Q 1186.95 176.6 1190.85 178.4 1197.8 181.8 1197.8 191.3 1197.8 199.75 1192.95 203.1 1188.1 206.4 1180.3 206.4
L 1157.25 206.4 1157.25 176.6 1180.3 176.6
M 1420.5 190.2
L 1409.8 190.2 1409.8 252.65 1420.5 252.65 1420.5 190.2
M 1409.8 166.6
L 1409.8 178.55 1420.5 178.55 1420.5 166.6 1409.8 166.6
M 1340.7 189.9
L 1329.05 189.9 1312.1 241 1295.3 189.9 1283.35 189.9 1306.55 254.55 1301.8 265.7 1299.45 268.1
Q 1298.1 269.05 1295.2 269.05
L 1293 268.9 1289 267.95 1289 277.55 1291.95 278.2 1295.4 278.35
Q 1304.55 278.35 1308.3 273.1 1312.05 267.85 1321.2 243.8
L 1340.7 189.9
M 1371.65 188.25
Q 1360.7 188.25 1354.2 193.75 1347.7 199.25 1347.7 208.2 1347.7 215.75 1354.6 220 1358.45 222.45 1366.6 224.45
L 1375.15 226.6
Q 1381.95 228.3 1384.3 229.55 1387.95 231.65 1387.95 235.7 1387.95 241.05 1383.35 243.65 1378.85 246.15 1372.85 246.15 1362.8 246.15 1358.75 241.05 1356.5 238.25 1356.05 232.95
L 1345.9 232.95
Q 1346.35 242.35 1352.25 248.7 1358.15 255.05 1372.35 255.05 1385.45 255.05 1391.9 248.95 1398.35 242.85 1398.35 234.5 1398.35 225.8 1392.2 221.75 1388.3 219.2 1376.7 216.45
L 1369.6 214.75
Q 1364.9 213.65 1362.55 212.15 1358.4 209.7 1358.4 205.6 1358.4 201.9 1361.55 199.6 1364.65 197.35 1370.8 197.35 1380 197.35 1383.7 201.5 1386 204.35 1386.3 207.95
L 1396.25 207.95
Q 1396.35 201.85 1392.4 196.6 1386.05 188.25 1371.65 188.25
M 1518.3 188.25
Q 1507.35 188.25 1500.85 193.75 1494.35 199.25 1494.35 208.2 1494.35 215.75 1501.25 220 1505.1 222.45 1513.25 224.45
L 1521.8 226.6
Q 1528.6 228.3 1530.95 229.55 1534.6 231.65 1534.6 235.7 1534.6 241.05 1530 243.65 1525.5 246.15 1519.5 246.15 1509.45 246.15 1505.4 241.05 1503.15 238.25 1502.7 232.95
L 1492.55 232.95
Q 1493 242.35 1498.9 248.7 1504.8 255.05 1519 255.05 1532.1 255.05 1538.55 248.95 1545 242.85 1545 234.5 1545 225.8 1538.85 221.75 1534.95 219.2 1523.35 216.45
L 1516.25 214.75
Q 1511.55 213.65 1509.2 212.15 1505.05 209.7 1505.05 205.6 1505.05 201.9 1508.2 199.6 1511.3 197.35 1517.45 197.35 1526.65 197.35 1530.35 201.5 1532.65 204.35 1532.95 207.95
L 1542.9 207.95
Q 1543 201.85 1539.05 196.6 1532.7 188.25 1518.3 188.25
M 1477.9 193.25
Q 1471.25 188.1 1460.65 188.1 1448.2 188.1 1440.2 197.3 1432.15 206.5 1432.15 223 1432.15 236.5 1439.5 245.5 1446.8 254.45 1459.1 254.45 1470.05 254.45 1477.1 248.7 1484.15 242.9 1485.9 230.45
L 1475.65 230.45
Q 1474.15 237.4 1470.35 241.4 1466.5 245.4 1459.95 245.4 1451.4 245.4 1447.4 238.95 1443.4 232.5 1443.4 223.05 1443.4 213.75 1446.2 207.35 1450.55 197.5 1460.65 197.5 1468 197.5 1471.35 201.4 1474.7 205.2 1475.65 211
L 1485.9 211
Q 1484.55 198.4 1477.9 193.25 Z"/>
</g>

<g id="Layer8_0_STROKES_1_FILL">
<path fill="#FFFFFF" stroke="none" d="
M 310.3 823
Q 308.3470703125 824.1947265625 307.8 826.4 307.05078125 829.4837890625 306.4 830.75 303.6837890625 834.0244140625 305.05 844.45
L 305.05 844.45
Q 305.733984375 849.8146484375 307.45 856.5 308.0572265625 858.73515625 310 859.9 311.998046875 861.0537109375 314.2 860.45 316.3951171875 859.894921875 317.55 857.9 318.7013671875 855.9619140625 318.1 853.75 316.569921875 847.80078125 315.95 843.05
L 315.95 843
Q 315.322265625 838.1931640625 315.65 836.65 315.6919921875 836.6361328125 315.7 836.6 317.1607421875 834.4681640625 318.5 829 319.0380859375 826.793359375 317.85 824.85 316.658203125 822.89609375 314.45 822.35 312.2462890625 821.8109375 310.3 823
M 388.05 904.95
Q 387.5923828125 902.723046875 385.65 901.45 383.7642578125 900.2416015625 381.55 900.7 378.2392578125 901.4357421875 375.6 901.45 369.6240234375 901.30625 358.35 896.5 356.2505859375 895.6017578125 354.15 896.45 352.0462890625 897.302734375 351.15 899.4 350.2498046875 901.4955078125 351.1 903.6 351.956640625 905.7017578125 354.05 906.6 368.076953125 912.5939453125 375.6 912.45 379.2607421875 912.4642578125 383.85 911.45 386.0767578125 910.990625 387.3 909.05 388.56015625 907.1640625 388.05 904.95
M 335.75 885.05
L 335.7 885.05
Q 330.216796875 881.8314453125 328.2 880.1
L 328.2 880.05
Q 326.9013671875 878.5453125 324.5 873 324.5140625 872.999609375 324.5 872.95 324.2890625 872.46953125 324.05 871.9 323.2525390625 869.8009765625 321.15 868.85 319.0912109375 867.9501953125 316.95 868.75 314.8546875 869.59453125 313.9 871.65 313.0029296875 873.7623046875 313.8 875.85 314.0998046875 876.6029296875 314.35 877.25
L 314.4 877.3
Q 318.1857421875 886.1177734375 320.75 888.2
L 320.8 888.2
Q 323.2115234375 890.482421875 330.1 894.5 330.15078125 894.5359375 330.15 894.55 332.8478515625 896.1396484375 335.65 897.65 337.6783203125 898.7671875 339.85 898.1 342.0287109375 897.4783203125 343.1 895.45 344.2197265625 893.4751953125 343.55 891.3 342.9248046875 889.1236328125 340.9 888 338.2775390625 886.57421875 335.75 885.05
M 442.25 885.9
Q 441.7109375 888.1037109375 442.9 890.05 444.091796875 892.00390625 446.3 892.55 448.5033203125 893.084765625 450.45 891.9 451.981640625 890.975 453.35 890.05 459.40703125 885.908203125 461.05 882.45
L 461 882.5
Q 463.4060546875 878.4091796875 466.1 864.5 466.530078125 862.26484375 465.25 860.35 463.973828125 858.484375 461.75 858.05 459.517578125 857.6185546875 457.6 858.9 455.735546875 860.1787109375 455.3 862.4 453.09375 873.791015625 451.35 877.2
L 451.35 877.2
Q 450.2958984375 878.7896484375 447.15 880.95 446.01796875 881.7248046875 444.75 882.5 442.7966796875 883.69609375 442.25 885.9
M 432.05 890.4
Q 430.0501953125 889.3310546875 427.85 890 427.225 890.2 426.55 890.4 421.5845703125 891.71328125 418.3 891.6
L 418.4 891.6
Q 414.0791015625 891.2525390625 407.25 893
L 407.2 893
Q 404.87109375 893.6548828125 400.4 895.1 398.278515625 895.8396484375 397.25 897.85 396.215234375 899.9140625 396.9 902.05 397.6390625 904.224609375 399.65 905.25 401.7109375 906.2841796875 403.85 905.55 407.9068359375 904.2521484375 410.05 903.65 414.7212890625 902.4474609375 417.65 902.55 417.7349609375 902.5875 417.75 902.6 422.45 902.884375 429.6 900.95 429.721484375 900.923046875 429.8 900.9 430.475 900.7 431.1 900.5 433.2888671875 899.8314453125 434.35 897.8 435.4208984375 895.8015625 434.75 893.6 434.08359375 891.4625 432.05 890.4
M 468.7 815.25
Q 468.6626953125 815.066015625 468.6 814.85 467.9693359375 812.66640625 465.95 811.55 463.9826171875 810.4435546875 461.8 811.05 459.614453125 811.6919921875 458.5 813.65 457.3822265625 815.6654296875 458 817.85 458.1373046875 818.3337890625 458.25 818.75 459.8818359375 824.5744140625 459.95 827.55 459.934375 832.986328125 458.55 843.15 458.2443359375 845.3978515625 459.6 847.2 461.003125 849.0404296875 463.25 849.35 465.50234375 849.658203125 467.3 848.25 469.137890625 846.9015625 469.45 844.65 470.9654296875 833.5134765625 470.95 827.55 471.01953125 823.4955078125 468.8 815.5 468.760546875 815.3865234375 468.7 815.25
M 445.25 772.55
Q 445.378515625 772.83359375 445.4 773.1 446.0494140625 780.279296875 448.7 789.2
L 448.75 789.25
Q 449.70859375 792.3509765625 451.75 798.7 452.4916015625 800.8654296875 454.5 801.9 456.55078125 802.934765625 458.7 802.2 460.861328125 801.511328125 461.9 799.45 462.9318359375 797.4453125 462.2 795.3 460.19140625 789.048828125 459.25 786
L 459.25 786.05
Q 456.950390625 778.3203125 456.35 772.1 456.2212890625 770.16640625 455.35 768.15 454.43828125 766.0830078125 452.3 765.25 450.216015625 764.4 448.1 765.3 446.0373046875 766.21171875 445.2 768.3 444.35 770.4380859375 445.25 772.55
M 439.6 760.1
Q 440.7552734375 758.1408203125 440.15 755.95 439.5431640625 753.75859375 437.55 752.6 437.225 752.425 436.85 752.2
L 436.8 752.2
Q 421.2958984375 743.5943359375 419.85 742.55 418.046875 741.193359375 415.8 741.5 413.5529296875 741.809765625 412.15 743.6 410.791796875 745.4478515625 411.1 747.7 411.4150390625 749.945703125 413.2 751.3 414.701953125 752.50390625 431.4 761.75 431.44921875 761.7888671875 431.45 761.8 431.79921875 761.9888671875 432.1 762.15 434.116796875 763.305078125 436.3 762.7 438.49140625 762.10078125 439.6 760.1
M 355.6 743.2
Q 353.5625 742.2529296875 351.45 743.05 350.04921875 743.56015625 348.65 744.1 348.61171875 744.1353515625 348.55 744.15 331.332421875 750.90625 329.75 754.35
L 329.75 754.35
Q 328.4921875 756.274609375 326.4 760.25 325.3658203125 762.3009765625 326.05 764.45 326.74609375 766.63046875 328.75 767.65 330.8056640625 768.7341796875 332.95 768.05 335.13046875 767.35859375 336.15 765.35 337.9076171875 762.025 338.95 760.4 340.6353515625 759.073046875 352.65 754.35
L 352.7 754.35
Q 353.9875 753.8265625 355.25 753.35 357.389453125 752.5482421875 358.35 750.45 359.2994140625 748.4025390625 358.5 746.25 357.7005859375 744.150390625 355.6 743.2
M 370.65 736.3
Q 368.4658203125 736.8029296875 367.25 738.7 366.037890625 740.6599609375 366.55 742.85 367.0517578125 745.0865234375 368.95 746.3 370.9076171875 747.5109375 373.1 747 377.7671875 745.994921875 388.8 746 396.3412109375 746.001953125 400.5 745.15 402.73828125 744.699609375 404 742.8 405.2822265625 740.9037109375 404.85 738.65 404.401171875 736.460546875 402.5 735.2 400.6048828125 733.9193359375 398.35 734.35 394.95859375 734.9978515625 388.8 735 376.0330078125 735.0048828125 370.65 736.3
M 320.65 775.85
Q 318.56953125 776.711328125 317.65 778.8 315.330859375 784.35234375 314.35 787.85 314.3603515625 787.887109375 314.35 787.9 313.46953125 790.8486328125 312.4 798.2 311.9509765625 801.328125 311.1 807.65 310.7943359375 809.919921875 312.15 811.7 313.5681640625 813.5419921875 315.8 813.85 318.06796875 814.1572265625 319.85 812.75 321.6904296875 811.3798828125 322 809.1 322.848828125 802.8716796875 323.3 799.8 324.2162109375 793.459765625 324.9 790.95 324.9376953125 790.9083984375 324.95 790.85 325.79453125 787.8869140625 327.8 783.1 328.71171875 780.982421875 327.85 778.85 326.98203125 776.76875 324.85 775.85 322.7759765625 774.9873046875 320.65 775.85 Z"/>
</g>

<g id="Layer6_0_FILL">
<path fill="#FFFFFF" stroke="none" d="
M 1239.4 730.2
Q 1235.25 728.15 1230.85 728.15 1222.25 728.15 1216.9 734.35 1211.45 740.55 1211.45 750.5 1211.45 760.65 1216.75 766.25 1222.2 771.85 1229.8 771.85 1232.9 771.85 1235.45 771.15 1240.1 770.15 1243.2 767 1245.1 765.25 1246.6 762.45 1248.1 759.65 1248.4 757.45
L 1241.6 757.45
Q 1240.8 760.15 1239.05 762.25 1235.85 765.85 1230.4 765.85 1224.6 765.85 1221.9 762.05 1219.1 758.2 1219 751.9
L 1249 751.9
Q 1249 745.7 1248.4 742.85 1247.65 738.65 1245.55 735.55 1243.45 732.25 1239.4 730.2
M 1230.5 734.2
Q 1237.05 734.2 1239.85 739.2 1241.4 741.9 1241.85 746.4
L 1219.1 746.4
Q 1219.3 741.1 1222.5 737.7 1225.7 734.2 1230.5 734.2
M 1193.35 729.05
L 1187.75 729.05 1187.75 734.75 1193.35 734.75 1193.35 762.05
Q 1193.35 766.05 1195.1 768.5 1196.8 771.05 1201.7 771.05
L 1206.95 770.3 1206.95 764.85 1204.5 764.95
Q 1202.6 764.95 1201.85 764.55 1200.35 763.8 1200.35 761.7
L 1200.35 734.75 1206.95 734.75 1206.95 729.05 1200.35 729.05 1200.35 717.55 1193.35 717.55 1193.35 729.05
M 1174.8 736.7
Q 1176.3 738.6 1176.5 740.95
L 1183.05 740.95
Q 1183.1 736.95 1180.5 733.45 1176.3 728.05 1166.85 728.05 1159.6 728.05 1155.35 731.65 1151.05 735.2 1151.05 741.1 1151.05 746.05 1155.65 748.95 1158.15 750.5 1163.55 751.85
L 1169.15 753.2
Q 1173.65 754.3 1175.15 755.15 1177.5 756.55 1177.5 759.2 1177.5 762.75 1174.55 764.4 1171.6 766.05 1167.7 766.05 1161.05 766.05 1158.35 762.75 1156.9 760.85 1156.55 757.45
L 1149.9 757.45
Q 1150.15 763.5 1154.15 767.8 1158 771.9 1167.35 771.9 1175.95 771.9 1180.15 767.9 1184.45 763.9 1184.45 758.4 1184.45 752.75 1180.4 750.1 1177.8 748.35 1170.15 746.55
L 1165.45 745.45
Q 1162.45 744.65 1160.9 743.75 1158.1 742.15 1158.1 739.35 1158.1 736.95 1160.2 735.45 1162.25 733.95 1166.3 733.95 1172.4 733.95 1174.8 736.7
M 1156.25 635.45
Q 1151.5 635.45 1147.95 637.75 1145.45 639.25 1143.35 642.15
L 1143.35 636.6 1136.55 636.6 1136.55 694.2 1143.45 694.2 1143.45 673.1
Q 1145.8 675.9 1147.65 677.05 1150.8 679.1 1155.45 679.1 1161.5 679.1 1165.95 675.45 1173.05 669.7 1173.05 656.15 1173.05 646.2 1168.1 640.85 1163.25 635.45 1156.25 635.45
M 1164.45 648.3
Q 1165.9 651.9 1165.9 656.85 1165.9 664.9 1162.7 669 1159.45 673.05 1154.6 673.05 1147.4 673.05 1144.7 666.6 1143.25 663.3 1143.25 658.55 1143.25 652.65 1144.7 648.7 1147.35 641.5 1154.6 641.5 1161.8 641.5 1164.45 648.3
M 1209.95 636.6
L 1203 636.6 1203 677.75 1209.95 677.75 1209.95 636.6
M 1209.95 621.05
L 1203 621.05 1203 628.9 1209.95 628.9 1209.95 621.05
M 1189.45 624.95
L 1182.45 624.95 1182.45 636.45 1176.85 636.45 1176.85 642.15 1182.45 642.15 1182.45 669.45
Q 1182.45 673.4 1184.2 675.9 1184.75 676.65 1185.6 677.25 1187.45 678.4 1190.8 678.4
L 1196.05 677.75 1196.05 672.2 1193.6 672.35
Q 1191.8 672.35 1190.95 671.95 1189.45 671.2 1189.45 669.1
L 1189.45 642.15 1196.05 642.15 1196.05 636.45 1189.45 636.45 1189.45 624.95
M 1261.7 641.85
Q 1264.65 641.85 1266.75 643.35 1268.8 644.95 1268.8 649.1
L 1268.8 677.75 1276 677.75 1276 650.25
Q 1276 644.8 1274.35 641.5 1271.4 635.55 1263.1 635.55 1259.1 635.55 1256.05 637.15 1252.9 638.7 1250.6 642.05 1249.2 639.3 1247.5 637.95 1244.5 635.55 1239.6 635.55 1235.25 635.55 1231.75 637.8 1229.8 639.25 1227.35 642.3
L 1227.35 636.45 1220.45 636.45 1220.45 677.75 1227.45 677.75 1227.45 655.85
Q 1227.45 647.9 1230.65 644.8 1233.8 641.8 1237.75 641.8 1242.15 641.8 1243.7 644.6 1244.65 646.55 1244.65 650.75
L 1244.65 677.75 1251.7 677.75 1251.7 653.7
Q 1251.7 647.25 1254.7 644.55 1257.6 641.85 1261.7 641.85
M 1116.6 729.05
L 1108.7 729.05 1124 771.6 1120.9 778.95 1119.3 780.55
Q 1118.5 781.15 1116.55 781.15
L 1115.1 781.05 1112.45 780.45 1112.45 786.75 1114.45 787.2 1116.65 787.3
Q 1122.75 787.3 1125.15 783.8 1125.55 783.35 1125.95 782.6 1126.901171875 780.9400390625 1128.2 778 1130.42109375 773.0583984375 1133.65 764.5
L 1146.5 729.05 1138.8 729.05 1127.7 762.65 1116.6 729.05
M 1101.5 730.35
Q 1101.5 720.9 1095.45 716.6 1089.4 712.3 1080.65 712.3 1071.25 712.3 1066.15 717.2 1061 722.1 1061 729.75 1061 736.8 1066.25 740.35 1069.25 742.4 1076.5 744.05
L 1083.95 745.8
Q 1090 747.2 1092.9 749.1 1095.65 751.1 1095.65 755.75 1095.65 758.816015625 1094 760.95 1092.3595703125 763.096484375 1089.05 764.3 1085.65 765.5 1081.5 765.5 1076.5517578125 765.5 1073.2 763.95 1070.218359375 762.562890625 1068.5 759.95 1066.6 756.9 1066.3 752.15
L 1059.1 752.15
Q 1058.95 761.25 1064.8 766.6 1068.2125 769.7771484375 1073.2 771.05 1076.689453125 772 1080.95 772 1089.8 772 1096.5 767.95 1100.556640625 765.4607421875 1102.1 760.95 1103.1 758.1224609375 1103.1 754.5 1103.1 746.95 1097.9 743 1094.95 740.7 1089.35 739.35
L 1081.6 737.6
Q 1073.8 735.7 1071.6 734.5 1068.3 732.55 1068.3 728.4 1068.3 724.6 1071.15 721.8 1074.05 718.9 1080.45 718.9 1088.5 718.9 1091.9 723.4 1093.75 725.75 1094.25 730.35
L 1101.5 730.35
M 1123.35 629.2
Q 1116.15 619.5 1101.05 619.5 1086.8 619.5 1079.45 630 1073.75 638.2 1073.75 649.7 1073.75 662.4 1080.4 670.7 1087.9 679.4 1100.95 679.4 1115 679.4 1122.5 669.5 1128.95 661.15 1128.95 648.5 1128.95 636.65 1123.35 629.2
M 1101.55 626.45
Q 1110.65 626.45 1115.9 632.45 1121.15 638.6 1121.15 648.55 1121.15 658.05 1116.6 665.3 1112.05 672.55 1101.9 672.55 1091.25 672.55 1086.45 666.05 1081.7 659.6 1081.7 650.25 1081.7 638.5 1087.3 632.4 1092.8 626.45 1101.55 626.45
M 1299 734.5
Q 1301.95 734.5 1304.05 736 1306.1 737.55 1306.1 741.7
L 1306.1 770.3 1313.3 770.3 1313.3 742.85
Q 1313.3 737.45 1311.7 734.15 1308.7 728.15 1300.35 728.15 1296.4 728.15 1293.4 729.8 1290.25 731.35 1287.9 734.65 1286.5 731.95 1284.75 730.5 1281.8 728.15 1276.9 728.15 1272.55 728.15 1269.05 730.45 1267.05 731.9 1264.65 734.9
L 1264.65 729.05 1257.8 729.05 1257.8 770.3 1264.7 770.3 1264.7 748.45
Q 1264.7 740.45 1267.9 737.45 1271.1 734.45 1275.1 734.45 1279.4 734.45 1281 737.25 1281.95 739.2 1281.95 743.4
L 1281.95 770.3 1289 770.3 1289 746.35
Q 1289 739.9 1292 737.2 1294.95 734.5 1299 734.5
M 1347.55 740.95
L 1354.1 740.95
Q 1354.15 736.95 1351.55 733.45 1347.35 728.05 1337.9 728.05 1330.65 728.05 1326.4 731.65 1322.1 735.2 1322.1 741.1 1322.1 746.05 1326.65 748.95 1329.2 750.5 1334.5 751.85
L 1340.2 753.2
Q 1344.7 754.3 1346.2 755.15 1348.55 756.55 1348.55 759.2 1348.55 762.75 1345.55 764.4 1342.65 766.05 1338.7 766.05 1332.1 766.05 1329.35 762.75 1327.95 760.85 1327.6 757.45
L 1320.9 757.45
Q 1321.2 763.5 1325.15 767.8 1329.05 771.9 1338.4 771.9 1347 771.9 1351.2 767.9 1355.4 763.9 1355.4 758.4 1355.4 752.75 1351.45 750.1 1348.85 748.35 1341.2 746.55
L 1336.5 745.45
Q 1333.45 744.65 1331.85 743.75 1329.15 742.15 1329.15 739.35 1329.15 736.95 1331.25 735.45 1333.3 733.95 1337.35 733.95 1343.4 733.95 1345.85 736.7 1347.35 738.6 1347.55 740.95
M 1337.25 677.75
L 1337.25 621.05 1330.3 621.05 1330.3 677.75 1337.25 677.75
M 1314.3 638.2
Q 1309.7 635.45 1302.4 635.45 1296.15 635.45 1291.4 638.5 1286.65 641.35 1286.4 649.1
L 1292.9 649.1
Q 1293.35 645.9 1294.6 644.25 1296.8 641.3 1302.3 641.3 1306.95 641.3 1309.45 642.95 1312 644.5 1312 648.05 1312 649.8 1311.5 650.75 1310.75 652.4 1308.3 652.75
L 1297.25 654.1
Q 1291.45 654.85 1287.85 658.05 1284.25 661.2 1284.25 666.9 1284.25 672.15 1287.9 675.65 1291.5 679.1 1297.3 679.1 1302.05 679.1 1306.05 677.05 1310 675 1312.2 672.25 1312.5 674.75 1313.4 676.05 1314.95 678.6 1318.55 678.6
L 1320.85 678.45 1323.3 677.95 1323.3 672.8 1321.1 673.05
Q 1319.65 673.05 1319.2 672.35 1318.75 671.75 1318.75 670.65
L 1318.75 646.85
Q 1318.75 640.95 1314.3 638.2
M 1300.45 659.45
L 1308.55 658.1
Q 1310.5 657.55 1311.8 656.8
L 1311.8 662.25
Q 1311.8 668.65 1306.05 671.55 1302.55 673.25 1298.95 673.25 1296 673.25 1293.7 671.5 1291.5 669.75 1291.5 666.8 1291.5 662.8 1294.75 661 1296.65 659.9 1300.45 659.45 Z"/>
</g>

<g id="Layer5_0_STROKES_1_FILL">
<path fill="#FFFFFF" stroke="none" d="
M 1285.4 888.95
Q 1283.5384765625 888.043359375 1281.6 888.7 1279.651171875 889.423046875 1278.75 891.3 1277.84453125 893.1609375 1278.5 895.1
L 1281.6 903.9
Q 1282.32421875 905.8482421875 1284.2 906.75 1286.0615234375 907.656640625 1288 906.95 1289.948828125 906.276953125 1290.85 904.4 1291.7552734375 902.5388671875 1291.05 900.6
L 1287.95 891.8
Q 1287.2755859375 889.8515625 1285.4 888.95
M 1274.05 856.8
Q 1272.2103515625 855.94296875 1270.25 856.65 1268.323828125 857.350390625 1267.4 859.2 1266.544921875 861.091015625 1267.25 863
L 1271.95 876.2
Q 1272.6521484375 878.1775390625 1274.5 879.05 1276.3896484375 879.95703125 1278.3 879.25 1280.276171875 878.5498046875 1281.15 876.65 1282.055078125 874.808984375 1281.35 872.85
L 1276.65 859.65
Q 1275.9478515625 857.7224609375 1274.05 856.8
M 1256.1 827.15
Q 1255.244921875 829.041015625 1255.95 830.95
L 1260.65 844.15
Q 1261.3521484375 846.1275390625 1263.2 847 1265.0896484375 847.90703125 1267 847.2 1268.976171875 846.4998046875 1269.85 844.6 1270.755078125 842.758984375 1270.05 840.8
L 1265.35 827.6
Q 1264.6478515625 825.6724609375 1262.75 824.75 1260.9103515625 823.89296875 1258.95 824.6 1257.023828125 825.300390625 1256.1 827.15
M 1258.55 812.55
Q 1259.455859375 810.70625 1258.75 808.75
L 1254.15 795.55
Q 1253.491015625 793.605859375 1251.6 792.7 1249.754296875 791.7935546875 1247.8 792.45 1245.8537109375 793.1583984375 1244.95 795 1244.044140625 796.89375 1244.7 798.85
L 1249.3 812.05
Q 1250.008984375 813.994140625 1251.85 814.9 1253.7458984375 815.806640625 1255.7 815.1 1257.6462890625 814.441796875 1258.55 812.55
M 1038.95 662.05
Q 1040.8412109375 662.95390625 1042.75 662.25 1044.7263671875 661.5494140625 1045.6 659.65 1046.5068359375 657.809765625 1045.8 655.85 1045.0982421875 653.9265625 1043.2 653
L 1030.5 647
Q 1028.65859375 646.14609375 1026.7 646.85 1024.7734375 647.550390625 1023.85 649.4 1022.99296875 651.2900390625 1023.7 653.2 1024.4015625 655.1734375 1026.25 656.05
L 1038.95 662.05
M 992.95 638.85
Q 993.6724609375 640.805078125 995.55 641.65
L 1008.2 647.55
Q 1010.0890625 648.4560546875 1012 647.75 1013.95625 647.0326171875 1014.8 645.15 1015.7072265625 643.266015625 1015 641.3 1014.2775390625 639.394921875 1012.4 638.5
L 999.75 632.6
Q 997.8609375 631.74375 995.9 632.45 993.99375 633.1673828125 993.1 635.05 992.242578125 636.9341796875 992.95 638.85
M 1061.3 661.5
Q 1059.4109375 660.64375 1057.45 661.35 1055.54375 662.0673828125 1054.65 663.95 1053.792578125 665.8341796875 1054.5 667.75 1055.2224609375 669.705078125 1057.1 670.55
L 1069.8 676.45
Q 1071.6890625 677.3560546875 1073.6 676.65 1075.55625 675.9326171875 1076.4 674.05 1077.3072265625 672.166015625 1076.6 670.2 1075.8775390625 668.294921875 1074 667.4
L 1061.3 661.5
M 1402.45 596.1
Q 1400.390234375 595.9591796875 1398.8 597.3
L 1388.1 606.4
Q 1386.5345703125 607.7466796875 1386.35 609.8 1386.206640625 611.8505859375 1387.55 613.4 1388.894140625 615.00625 1390.95 615.15 1393.009765625 615.3408203125 1394.6 614
L 1405.3 604.9
Q 1406.8654296875 603.5533203125 1407 601.5 1407.193359375 599.4494140625 1405.85 597.85 1404.505859375 596.29375 1402.45 596.1
M 1450.65 553.15
L 1439.95 562.25
Q 1438.3845703125 563.5966796875 1438.2 565.65 1438.056640625 567.7005859375 1439.4 569.25 1440.744140625 570.85625 1442.8 571 1444.859765625 571.1908203125 1446.45 569.85
L 1457.15 560.75
Q 1458.7154296875 559.4033203125 1458.85 557.35 1459.043359375 555.2994140625 1457.7 553.7 1456.355859375 552.14375 1454.3 551.95 1452.240234375 551.8091796875 1450.65 553.15
M 1413.45 591.35
Q 1414.794140625 592.95625 1416.85 593.1 1418.909765625 593.2908203125 1420.5 591.95
L 1431.2 582.85
Q 1432.7654296875 581.5033203125 1432.9 579.45 1433.093359375 577.3994140625 1431.75 575.8 1430.405859375 574.24375 1428.35 574.05 1426.290234375 573.9091796875 1424.7 575.25
L 1414 584.35
Q 1412.4345703125 585.6966796875 1412.25 587.75 1412.106640625 589.8005859375 1413.45 591.35
M 1480.15 529.95
Q 1478.124609375 529.8099609375 1476.55 531.15
L 1465.95 540.25
Q 1464.383203125 541.6119140625 1464.2 543.65 1464.0576171875 545.72890625 1465.4 547.3 1466.7595703125 548.8703125 1468.8 549 1470.8751953125 549.1900390625 1472.45 547.85
L 1483.05 538.75
Q 1484.6166015625 537.3880859375 1484.75 535.3 1484.9421875 533.27109375 1483.6 531.7 1482.240234375 530.1296875 1480.15 529.95 Z"/>
</g>

<path id="Layer11_0_1_STROKES" stroke="#FFFFFF" stroke-opacity="0.06666666666666667" stroke-width="6" stroke-linejoin="round" stroke-linecap="round" fill="none" d="
M 2000.5 -112
Q 1985.85 -110.75 1963.7 -107 1919.4 -99.5 1881.75 -87 1829 -69.5 1797.1 -44.5 1757.25 -13.25 1752.45 28 1748.95 58 1742.75 102.25 1738.55 135.15 1739.45 150.8 1740.55 170.2 1749.6 182.45 1758.75 194.85 1780.45 206.05 1808.85 220.75 1819.25 225.3 1837.95 233.55 1852 235.55 1868.15 237.85 1884 233.05 1900.7 228 1952.35 190.5 2004 153 2042.45 55.15 2048.05 40.95 2052.35 28 2077.65 -48.15 2058.55 -80 2062.3 -90 2031.8 -102 2022.25 -105.75 2010.4 -109.25
L 2000.5 -112 Z
M 2312.6 -90
Q 2291.4 -68.8 2267.2 -36.15 2239 1.95 2219.35 39.3 2218.65 40.6 2218 41.9 2195.75 84.85 2189.1 119.55 2181.15 161.4 2196.55 188.05 2204.6 201.95 2218 225.8 2222.9 234.55 2228.55 244.65 2247.3 277.1 2263.55 298.85 2284.6 327 2309.05 348.1 2337.1 372.35 2372.6 390.1
M 1666.45 -130
Q 1664.45 -117.85 1658.75 -99.45 1647.4 -62.55 1628.95 -30.95 1608.65 3.75 1581.95 28 1574.65 34.65 1566.85 40.5 1521.55 74.55 1462.4 80.05 1401.6 85.7 1337.4 62.9 1299.75 49.55 1264.75 28 1247.35 17.3 1230.6 4.55 1184.75 -30.35 1157.15 -69.6 1130.05 -108.2 1132.3 -134
M 1982.5 -196.05
Q 1969.6 -182.45 1943.5 -173.8 1924.4 -167.45 1892.25 -162.25 1856.95 -157.15 1841.7 -154.25 1815.85 -149.4 1804.95 -142.6 1753.95 -110.95 1693.65 -7 1683.75 10.1 1677.35 28 1644.8 119.05 1702.95 231.5 1772.55 366.1 1770.05 393.1 1767.55 420.1 1787 481.85 1806.4 543.55 1792.8 589.2 1779.15 634.85 1728.75 688 1678.35 741.15 1722.3 818.4 1766.2 895.6 1889.55 965 2012.85 1034.4 2109.4 911.35 2183.6 816.75 2218 789.05 2228.35 780.7 2235.1 778.4 2267.15 767.45 2286.85 755.35 2306.95 743.05 2318.7 726.7 2330 711.05 2336.1 688.1 2338.7 678.3 2344.25 668.4 2346.65 664.05 2354.4 652.35 2360.55 643 2363.15 637.05 2366.95 628.4 2367.1 619.6 2367.5 598.55 2346.75 566.55 2322.85 529.7 2266.05 470.05 2245 447.95 2218 421.6 2191.65 395.8 2159.6 365.95 2128.85 337.3 2117.55 326.35 2096.85 306.35 2079.65 285.7 2062.45 265 2052.65 173.75 2046.9 120.3 2099.8 28 2137.2 -37.3 2204 -122.1
M 998.3 -95.5
Q 997.65 -89.15 998.9 -77.75 1001.4 -54.9 1010.9 -29.35 1021.65 -0.4 1039.75 28 1072.8 79.85 1130.3 130.05 1153.6 150.45 1180.9 160.6 1206.3 170.05 1239.1 172 1267.35 173.65 1308.85 170 1332.4 167.9 1394 160.3 1451.75 153 1492.05 156.35 1528.7 159.4 1554.4 171.65 1576.15 182 1594.1 201.25 1604.75 212.65 1624.45 240.35 1642.05 265.2 1651.7 281.2 1669.25 310.3 1680.85 340.05 1712.85 422.3 1702.45 516.1 1699.7 540.9 1691.2 570.5 1684.65 593.2 1672.8 624.8 1658.95 660.65 1652.35 678.3 1640.85 708.95 1634.95 730.15 1618.9 787.45 1629.3 826.35 1642.15 874.2 1696.45 907.5 1712.4 917.3 1751.8 942 1784.3 962.4 1802.25 973.1 1856.55 1005.5 1896 1020.35 1944.8 1038.75 1993.5 1040.05 2047.05 1041.55 2110.55 1023.1 2164.25 1007.5 2218 970.05 2225.3 964.95 2232.65 959.45 2283.05 921.6 2329.6 867.7 2366.7 824.8 2393.6 781.4 2404.4 763.95 2410.7 750.75 2416.65 738.35 2416.65 734.05
M 1976.5 352.1
Q 1969.5 355.5 1959.55 362.5 1939.6 376.5 1924.75 394.65 1903.95 420 1896.35 450 1886.8 487.55 1898.5 530.15 1911.15 576.2 1914.5 600.95 1917.8 625.1 1914 642.2 1911.25 654.55 1900.75 675.9 1885.6 706.65 1878.5 724.2 1865.9 755.3 1864.7 784.7 1863.55 813.35 1873.25 837.75 1882.9 862.05 1902.4 879.5 1922.3 897.35 1950.5 906.25 1976.25 914.35 2014.5 882.2 2041.5 859.55 2085.8 805.5 2097.75 790.95 2121.1 762.1 2141.15 737.6 2154.5 723.15 2190.4 684.15 2210.6 682.2 2214.4 681.85 2218 680.95 2235.55 676.55 2247.15 659.6 2260.45 640.2 2261.6 611.2 2262.8 581.25 2250.55 552.25 2239.05 524.95 2218 504.8 2214.45 501.35 2210.6 498.15 2190.15 481.05 2158.55 442.4 2137.3 416.45 2133.5 412 2119.2 395.15 2107.8 383.85 2078.15 354.65 2049.9 345.95 2015.55 335.35 1976.5 352.1 Z
M 724.6 -81.35
Q 757.5 -69.05 783.8 -55.15 848.65 -20.9 886.75 28 900.3 45.4 910.45 64.65 931.05 103.6 942.8 151.35 948.85 175.9 959.05 237.85 968.35 294.4 982.2 337.25 996 380.05 1026.9 425.75 1034.05 436.3 1040.4 447.5 1041.4 449.25 1042.4 451.05 1062 486.65 1073.4 528.1 1082.55 561.35 1078.8 579 1076.1 591.4 1067.05 596.1 1045.05 607.45 1029.75 621.1 1014.4 634.7 1010.5 696.6 1007.85 738.55 1027.35 769.15 1036.55 783.65 1050.7 795.55 1094.8 832.7 1061.65 890.7 1028.45 948.65 950.6 979.6 885.05 1005.65 793.65 1008.4 715.95 1010.7 644.8 996.5 584.7 984.5 532.7 990.2 485.2 995.45 449.05 1014.85 415.3 1032.85 396.45 1060.25 378.6 1086.1 370.9 1172 370.7 1174.25 370.5 1220.65
M 176.1 1225.3
Q 181.2 1195.7 186.9 1172 207.15 1087.95 234.95 1078.25 270.55 1065.75 328.4 1023.1 386.25 980.4 419.4 961.05 460.8 936.8 504.15 940.25 623.1 949.7 680.7 950.25 765.25 951.1 788.2 936.25 795.15 931.75 804.05 921.85 814.1 910.75 822.8 896.8 845.15 861.25 849 824.75 852.1 795.35 842.35 769.15 836.7 754 826.75 739.9 823.95 735.95 820.9 732.15 820.05 731.15 819.2 730.15 814.55 724.6 809.2 719.25 776 686.25 716.2 662.2 646.35 634.15 555.35 624.65 529.55 621.95 482.1 619.05 435.95 616.2 415.15 613.95 380.35 610.1 355.7 603.1 326.55 594.8 304.95 580.35 256.35 547.8 234.1 474.15 222.05 434.3 192.8 346.75 173.95 290.4 169.35 265.1 163.15 231.3 170.25 202.95 177.35 174.55 202.1 134.05 233.05 83.45 248.25 53.05 254.7 40.2 259.95 28 272.85 -1.95 278.6 -27.75 288.2 -70.6 279.75 -108.2 270.35 -150.1 238.1 -188.05
M 344.1 -160
Q 344.6 -147.6 344.1 -127.75 343.1 -88 338.1 -50.5 332.25 -6.75 321.95 28 303.9 88.65 272.1 122.05 258.7 136.15 249.65 160.35 240.15 185.85 237.1 218.5 230.1 293.9 258.2 382.35 265.3 404.9 295.7 430.45 326.65 456.5 374.95 520.35 423.25 584.15 512.65 582.35 602.05 580.5 644.2 570.15 692.1 558.35 721.25 548.45 753.3 537.5 773 525.4 793.1 513.1 804.85 496.75 807.15 493.6 809.2 490.15 815.05 480.35 819.2 468.25 820.85 463.4 822.25 458.15 823.2 454.6 824.55 451.05 825.25 449.05 826.15 447.05 828 442.75 830.4 438.45 832.8 434.1 840.55 422.4 846.7 413.05 849.3 407.1 853.1 398.45 853.25 389.65 853.65 368.6 832.9 336.6 809 299.75 752.2 240.1 710.55 196.4 645.75 136 615 107.35 603.7 96.4 583 76.4 569.9 61.55 554.7 44.3 544.75 28 534.4 11.15 529.7 -4.65 519.35 -39.25 530.15 -84
M 761.55 378.25
Q 770 357.85 723.85 294.6 681.3 236.3 614.75 170.75 546.25 103.35 493.55 69.3 465.35 51.1 446.85 46.45 426.8 41.45 419.35 52.65 400.3 81.35 385.85 99.15 373.35 113.4 369.95 117.45 365 123.35 362.25 131.35 360 137.95 353.5 164.3 351.15 173.8 343.2 184.85 338.4 191.5 327.15 204 316.05 216.35 311.8 222.3 304.75 232.25 303.8 240.3 299.2 277.4 312.65 320.5 324.45 358.45 348.7 396.8 370.5 431.15 397.25 458.3 422.7 484.15 443.45 494.3 447.8 496.45 461.25 503.2 474.7 509.6 485.9 513.6 518.7 525.15 538.8 517.85 567.8 507.4 595.15 501.5 611.95 497.85 636.15 494.6 658.3 491.65 666.6 489.55 680.9 486 691.6 478.65 715.2 462.45 729.6 441.6 743.7 421.25 761.55 378.25 Z
M -62.25 -144
Q -87.1 -75 -39.85 27.75 -32.25 44.25 -22 63.15 -12.05 81.55 0.45 102.2 7 113.05 18.5 131.65 27.65 146.6 31.55 154 31.95 154.75 35.25 160 38.35 165 40.45 169.1 47.2 182.55 48.05 196.05 48.55 210.95 44.8 220.65 41 230.35 35.55 244.9 30.1 259.4 28.05 283.7 26 307.95 31 322 35.5 334.6 36.05 338.1 37.1 344.45 43.4 357.2 47 364.45 58.7 385.75 85.548828125 434.7951171875 108.425 518.25 131.303125 601.7138671875 122.525 680.075 113.746875 758.4359375 126.45 777.25 139.15078125 796.0544921875 149.75 810.05 152.05 813.05 156.55 823.7 162.05 836.8 161.9 843.35 161.3 867.35 156.5 880.25 153.05 889.45 143.85 898.05 140 901.7 124.6 913.45 111.15 923.75 103.2 932.25 91.45 944.8 84.05 960.25 76.7 975.6 51.1 987.3 24.85 999.35 -6.4 1000.8 -14.4 1001.2 -22 1000.8 -47.9 999.5 -69.7 989.5 -102.4 974.55 -120 942.25 -128.75 926.2 -175.2 897.5 -216.4 872.05 -274.25 844.35 -329.9 817.7 -373.25 802.1 -419.35 785.5 -428.05 790.2
M -176.05 118.05
Q -174.8 123.15 -167.8 132.6 -158.35 144.55 -153.05 151.7 -131.9 180.05 -127.95 204.1 -126.9 210.5 -119.55 223 -114.9 230.9 -101.55 251.15 -68.9 300.55 -51.95 333.15 -36.4 363 -22 390.4 25.65 481.05 60.9 544.9 71.15 563.5 71.85 602.15 72.35 627.3 68.05 677.4 63.45 731.6 61.65 759.75 59.85 787.85 61.9 805.65 63.9 823.4 56.3 839.25 48.7 855.1 36.2 865.65 22.25 877.5 21.55 878.15 1 898.45 -22 901 -26.65 901.45 -31.35 901.25 -53.75 900.25 -87.85 881.25 -148.3 847.55 -156.45 838.7 -164.6 829.85 -195.25 809 -228.45 786.1 -252.7 769.55 -298.7 738.15 -318.05 726.2 -327.3 720.5 -350.8 712.6 -366.3 707.35 -398.9 697.75 -435.75 686.95 -449.15 682.65 -475.4 674.3 -488.1 668.2
M 878.25 -82.15
Q 903.75 -42.15 931.8 12.1 935.95 20.15 939.9 28 988.75 125.8 1000.3 191.45 1005.2 219.1 1010.1 254.9 1013.5 279.45 1015.8 287.3 1018.9 297.8 1026.75 306.75 1031.45 312.15 1052.3 331.5 1062.35 340.8 1095.7 364.8 1127.3 387.5 1144.35 404.3 1170.4 430.05 1183.95 459.75 1200.35 495.6 1200.35 540.55 1200.35 576.1 1202.3 619.3 1204.2 660.5 1204.1 673.65 1203.85 698.85 1199.45 720.95 1194.55 745.6 1182.3 778.5 1169.45 813 1141.8 859.9 1113.75 907.55 1080.3 951.15 1044 998.45 1011.25 1027.8 974.55 1060.7 948.25 1065.4 936.2 1067.6 917.3 1067.85 911.45 1067.95 881.6 1067.65 832.7 1067.1 805.25 1073.2 763.1 1082.55 737.85 1110.45 716.5 1133.95 705.65 1172 700.95 1188.5 698.2 1207.7
M 1820.3 1103.8
Q 1806.6 1077.15 1780.95 1058.25 1761 1043.6 1730.25 1031.4 1719.9 1027.3 1704.2 1021.9 1683 1014.55 1679.65 1013.35 1652.5 1003.45 1640.55 994.15 1581.45 948.1 1502.25 1016.4 1423.05 1084.7 1355 1122.4 1315.75 1144.15 1294.3 1172 1278.5 1192.5 1272.35 1216.3 1245.95 1318.2 1456.9 1297.55 1523.7 1291.05 1620.05 1271.15 1639.9 1267.05 1685.85 1257 1718.15 1249.95 1728.45 1248.3 1733.5 1247.5 1768.6 1249.65 1830.3 1253.45 1840.75 1254 1941.4 1259.05 1946.5 1248.3 1948.95 1243.15 1932.5 1224.5 1921.7 1212.2 1893.25 1184.25 1886.6 1177.7 1880.85 1172 1858.35 1149.75 1849.05 1139.9 1826.55 1116.05 1820.3 1103.8 Z"/>

<path id="Layer7_0_1_STROKES" stroke="#FFFFFF" stroke-opacity="0.2" stroke-width="6" stroke-linejoin="round" stroke-linecap="round" fill="none" d="
M 1790.1 253.9
L 1634.65 476.35 1631.35 543.1 1543.35 599.1 1474.3 599.1 1492.05 787.4 1581.95 878.6 1790.1 253.9 2140.05 -278.4
M 1492.05 787.4
L 1401.55 439.925 1230.3 521.9 1334.7 627.8 1492.05 787.4 1417 924.25
M 1401.55 439.925
L 1790.1 253.9 2599.55 225
M -250 962.25
Q -121.05 1051.2 -22 1063.3 -15.4 1064.1 -8.95 1064.55 31.8 1067.45 65.05 1056.5 92.2 1047.55 112.05 1030.25 126.45 1017.7 137.3 997.5 140.9 990.7 145.5 980.4 151.7 966.65 152.75 964.45 161.1 947.05 169.9 940.3 181.45 931.5 200.1 934.25 212.65 936.1 228.15 931 243.3 926.05 256.8 915.95 270.9 905.45 279.1 892.3 288.1 877.9 288.1 863.2 288.1 838.25 308.15 818.35 327.4 799.15 356.85 792.55 307.2 793.4 271.15 789.45 241.6943359375 786.1958984375 199.775 770.275 157.8666015625 754.362109375 162.7 714.15 167.5310546875 673.933203125 181.05 646.275 194.5712890625 618.624609375 195.85 601.475 197.133984375 584.316796875 192.6 570.825 188.0546875 557.3439453125 182.55 544.7 177 532.5 175.35 528.45 164.75 502.7 147.6 480.7 111.1 434 96.6 386.1 83.5 343 87.7 297.15 91.35 257.75 108.3 212.9 120.95 179.35 145.5 132.35 173.7 80.15 186.65 54.55 193.65 40.7 199.5 28 212.05 0.45 218.95 -21.45 231.65 -62.05 229.7 -96.7 227.45 -136.15 206.1 -172.05
M 1334.7 872.2
L 1334.7 820.2 909.5 820.7 755.85 756.2
Q 741.3 752.65 734.05 751.15 721.45 748.55 712.4 749.35 687.95 751.5 668.85 780.2 641.3 821.7 596.6 812 578.2 808 558.8 795.5 541.45 784.3 526.15 768.2 513.95 755.4 499 752.75 485.15 750.3 470.2 756.75 456 762.9 442.65 776.1 429.6 789.05 419.45 806.65 435.15 827 419.45 849.2 415.9 863.2 395.1 865.7
L 369.15 860.2
Q 377.75 868.95 383.85 887.2 385.35 891.65 392.65 919.4 397.45 937.65 402.25 944.45 408.8 953.8 419.3 950 468.25 932.4 471.55 1003.95 473.55 1047.85 450.8 1172 449.95 1176.55 443.1 1223.35
M 837.2 536.1
L 512.15 362.1
Q 198.75 316.45 175.35 528.45
M 909.5 820.7
L 908.5 780.35 908.2 769.15 907.9 758.2
M 818.65 658.65
L 755.85 756.2
M 1122.25 560.1
L 1230.3 521.9
M 512.15 362.1
L 368.1 -186.05
M 1581.95 878.6
L 2114.65 1246.4 1207.2 1246.4 1207.2 964.25
M 368.15 793.15
Q 404.95 802.6 390.15 822.2 405.75 833.25 419.45 806.65
L 400.15 782.15
Q 390.2 775.5 368.15 793.15 364.45 793.05 360.9 792.85 358.85 792.7 356.85 792.55
M 369.15 860.2
Q 344.55 856.05 349.1 838.2
L 349.1 819.2
Q 372.3 811.65 368.15 793.15 366.35 792.7 362.7 792.8 361.75 792.8 360.9 792.85
M 419.45 849.2
Q 411.6 830.55 390.15 842.2 385.05 862.2 369.15 860.2
M 349.1 819.2
Q 369.65 843.15 390.15 822.2
L 390.15 842.2
M 1581.95 878.6
L 1417 964.25
M 1207.2 1246.4
L 1347.8 1049
M 1334.7 627.8
L 1334.7 820.2"/>

<path id="Layer7_1_1_STROKES" stroke="#999999" stroke-width="6" stroke-linejoin="round" stroke-linecap="round" fill="none" d="
M 826.2 573.15
L 837.2 536.1 864.2 534.1 924.2 488.1 973.2 484.1 965.2 584.15 985.3 584.15
Q 985.5 582.7 988.85 573.2 993.35 560.25 998.7 548.6
L 1024.25 584.15 1020.25 482.1 1098.25 479.1 1096.25 512.1 1122.25 560.1 1041.25 562.1 1024.25 584.15 985.3 584.15 942.7 669.1
Q 942.5 672.9 942 677.2 940.25 692.2 936.25 706.2
L 936.25 726.65 907.9 758.2 886.7 750.15 869.7 743.65 868.25 688.2 818.65 658.65 823.2 639.15 826.2 573.15 894.2 572.15 916.7 577.15 922.2 551.1 865.2 555.1 864.2 534.1
M 916.7 577.15
L 965.2 584.15 924.2 488.1 922.2 551.1
M 916.7 577.15
L 902.2 633.15 934.25 642.2
Q 943.9 646.5 942.7 669.1
M 902.2 633.15
L 862.7 636.15 875.2 647.65 902.2 672.4 902.2 633.15 894.2 572.15 823.2 639.15 862.7 636.15 868.25 688.2 875.2 685 902.2 672.4 934.25 642.2
M 823.2 639.15
L 868.25 688.2
M 869.7 743.65
L 874.95 732.15 875.2 731.6 902.2 672.4 912.7 712.15 936.25 706.2
M 912.7 712.15
L 886.7 750.15 936.25 726.65
M 1096.25 512.1
L 1040.25 512.1 1041.25 562.1
M 1040.25 512.1
L 1020.25 482.1"/>

<path id="Layer7_2_1_STROKES" stroke="#999999" stroke-width="6" stroke-linejoin="round" stroke-linecap="round" fill="none" d="
M 1474.3 549.1
L 1543.35 549.1 1472.65 482.35 1474.3 549.1 1416.8 502.2 1378.25 473.1 1378.25 420.5 1647.7 420.5 1647.7 482.35 1472.65 482.35 1378.25 420.5"/>

<path id="Layer7_3_1_STROKES" stroke="#999999" stroke-width="6" stroke-linejoin="round" stroke-linecap="round" fill="none" d="
M 1334.7 876.25
L 1334.7 822.2 1417 874.25 1417 914.25 1347.8 999 1207.2 914.25 1334.7 876.25 1417 914.25 1334.7 822.2
M 1347.8 944.25
L 1417 914.25 1207.2 914.25 1347.8 944.25 1347.8 999"/>
</defs>

<g transform="matrix( 1, 0, 0, 1, 0,0) ">
<use xlink:href="#Layer12_0_FILL"/>
</g>

<g transform="matrix( 1, 0, 0, 1, 0,0) ">
<use xlink:href="#Layer11_0_1_STROKES"/>
</g>

<g transform="matrix( 1, 0, 0, 1, 0,0) ">
<use xlink:href="#Layer10_0_FILL"/>
</g>

<g transform="matrix( 1.0767669677734375, 0, 0, 1.0767669677734375, -83.1,9.05) ">
<use xlink:href="#Layer9_0_FILL"/>
</g>

<g transform="matrix( 1, 0, 0, 1, 0,0) ">
<use xlink:href="#Layer8_0_STROKES_1_FILL"/>
</g>

<g transform="matrix( 1, 0, 0, 1, 0,0) ">
<use xlink:href="#Layer7_0_1_STROKES"/>
</g>

<g transform="matrix( 1, 0, 0, 1, 0,0) ">
<use xlink:href="#Layer7_1_1_STROKES"/>
</g>

<g transform="matrix( 1, 0, 0, 1, 88,-6) ">
<use xlink:href="#Layer7_2_1_STROKES"/>
</g>

<g transform="matrix( 1, 0, 0, 1, 0,50) ">
<use xlink:href="#Layer7_3_1_STROKES"/>
</g>

<g transform="matrix( 1, 0, 0, 1, 26,-4) ">
<use xlink:href="#Layer6_0_FILL"/>
</g>

<g transform="matrix( 1, 0, 0, 1, 0,0) ">
<use xlink:href="#Layer5_0_STROKES_1_FILL"/>
</g>
</svg>
