
<svg xmlns="http://www.w3.org/2000/svg" version="1.1" xmlns:xlink="http://www.w3.org/1999/xlink" preserveAspectRatio="none" x="0px" y="0px" width="2196px" height="1200px" viewBox="0 0 2196 1200">
<defs>
<radialGradient id="Gradient_1" gradientUnits="userSpaceOnUse" cx="0" cy="0" r="2034.3500000000004" fx="0" fy="0" gradientTransform="matrix( 0.9999999999999999, 0, 0, 0.9999999999999999, 376.1,797.15) " spreadMethod="pad">
<stop  offset="0%" stop-color="#00324D"/>

<stop  offset="18.03921568627451%" stop-color="#000509"/>
</radialGradient>

<g id="Layer11_0_FILL">
<path fill="url(#Gradient_1)" stroke="none" d="
M 2200.5 1385.05
L 2200.5 -29.55
Q 2194 -31.65 1053.75 -44.05 484.2 -50.25 225.75 -49.95 -31.7 -49.6 -35.9 -42.75
L -35.9 1347.05 2200.5 1385.05 Z"/>
</g>

<g id="Layer9_0_FILL">
<path fill="#FFFFFF" stroke="none" d="
M 519.1 671
Q 515.2 676.65 515.2 684.35 515.2 692.65 519.55 697.7 523.85 702.65 529.7 702.65 533.4 702.65 536.25 701.2 539.05 699.75 541.15 696.45
L 541.15 701.35 546.5 701.35 546.5 652.6 540.8 652.6 540.8 670.5
Q 538.75 668 537.2 667 534.45 665.3 530.4 665.3 523.1 665.3 519.1 671
M 521.45 684.05
Q 521.45 677.35 524.25 673.9 527 670.5 531.5 670.5 535.55 670.5 538.3 673.75 541.05 676.95 541.05 683.65 541.05 690.3 538.35 693.9 535.7 697.45 531.55 697.45 526.25 697.45 523.9 693.6 521.45 689.75 521.45 684.05
M 383.6 652.75
L 376.95 652.75 376.95 701.35 383.6 701.35 383.6 652.75
M 350.7 665.3
L 349.3 665.15
Q 349.05 665.15 348.75 665.15 345.2 665.15 342.5 667.7 339.8 670.3 339.05 672.05
L 339.05 665.9 333.45 665.9 333.45 701.35 339.45 701.35 339.45 680.95
Q 339.45 677.25 341.8 674.3 344.2 671.4 348.7 671.4
L 350.7 671.55 350.7 665.3
M 485.7 665.9
L 480.05 665.9 480.05 701.35 486 701.35 486 682.8
Q 486 679.35 486.45 677.45 486.9 675.6 488.4 673.85 490.2 671.65 492.65 670.9 494 670.5 496.15 670.5 500.3 670.5 501.9 673.8 502.9 675.75 502.9 679.05
L 502.9 701.35 508.9 701.35 508.9 678.65
Q 508.9 673.25 507.45 670.4 504.8 665.15 497.3 665.15 493.85 665.15 491 666.5 488.2 667.85 485.7 670.9
L 485.7 665.9
M 443.75 684.5
Q 440.65 687.15 440.65 692.05 440.65 696.55 443.8 699.55 446.9 702.55 451.9 702.55 455.95 702.55 459.35 700.8 462.8 699 464.6 696.7 464.9 698.8 465.65 699.95 467 702.1 470.1 702.1
L 472.1 702 474.2 701.55 474.2 697.15 472.25 697.35
Q 471.05 697.35 470.7 696.75 470.3 696.2 470.3 695.3
L 470.3 674.85
Q 470.3 669.8 466.45 667.4 462.5 665.1 456.25 665.1 450.9 665.1 446.8 667.65 442.7 670.15 442.55 676.75
L 448.1 676.75
Q 448.45 674 449.55 672.6 451.45 670.1 456.15 670.1 460.1 670.1 462.35 671.5 464.5 672.85 464.5 675.9 464.5 677.4 464.1 678.25 463.4 679.65 461.35 679.9
L 451.85 681.1
Q 446.85 681.75 443.75 684.5
M 446.9 691.95
Q 446.9 688.55 449.7 687 451.3 686.05 454.55 685.65
L 461.5 684.55
Q 463.2 684.05 464.35 683.35
L 464.35 688.1
Q 464.35 693.6 459.35 696.05 456.4 697.5 453.3 697.5 450.7 697.5 448.8 696 446.9 694.55 446.9 691.95
M 412.9 688.35
Q 414.95 689.5 414.95 691.8 414.95 694.8 412.4 696.3 409.9 697.7 406.5 697.7 400.8 697.7 398.5 694.8 397.25 693.25 396.95 690.25
L 391.25 690.25
Q 391.5 695.5 394.85 699.15 398.2 702.7 406.2 702.7 413.6 702.7 417.25 699.25 420.85 695.8 420.85 691.1 420.85 686.25 417.4 683.95 415.2 682.5 408.65 680.9
L 404.6 680
Q 402 679.35 400.65 678.5 398.3 677.1 398.3 674.8 398.3 672.7 400.1 671.4 401.9 670.1 405.3 670.1 410.5 670.1 412.65 672.5 413.9 674.1 414.1 676.1
L 419.7 676.1
Q 419.75 672.7 417.55 669.7 413.9 665 405.8 665 399.6 665 395.9 668.1 392.25 671.2 392.25 676.25 392.25 680.5 396.15 682.95 398.35 684.3 402.95 685.45
L 407.8 686.65
Q 411.65 687.55 412.9 688.35
M 433.5 652.75
L 427.5 652.75 427.5 701.35 433.5 701.35 433.5 652.75
M 301.55 665.9
L 295.5 665.9 295.5 690.05
Q 295.5 694.55 296.9 697.25 299.65 702.3 307.05 702.3 311.85 702.3 315.2 699.55 316.9 698.15 318 696.15
L 317.95 701.35 323.55 701.35 323.55 665.9 317.6 665.9 317.6 683.3
Q 317.6 688.5 316.4 691.5 314.25 697.05 308.15 697.05 303.95 697.05 302.4 693.9 301.55 692.2 301.55 689.45
L 301.55 665.9
M 264.65 651.4
Q 252.4 651.4 246.05 660.4 241.15 667.4 241.15 677.3 241.15 688.2 246.9 695.35 253.3 702.75 264.55 702.75 276.55 702.75 283.05 694.3 288.55 687.1 288.55 676.25 288.55 666.15 283.75 659.7 277.55 651.4 264.65 651.4
M 281.8 676.3
Q 281.8 684.5 277.95 690.65 274.05 696.9 265.35 696.9 256.2 696.9 252.1 691.35 248 685.8 248 677.75 248 667.65 252.8 662.45 257.5 657.3 265.05 657.3 272.85 657.3 277.35 662.5 281.8 667.75 281.8 676.3 Z"/>
</g>

<g id="Layer8_0_FILL">
<path fill="#FFFFFF" stroke="none" d="
M 802.3 188.5
Q 789.1 188.5 780.95 197.9 772.8 207.35 772.8 222.45 772.8 237.85 780.9 246.4 789 254.9 800.65 254.9 805.4 254.9 809.2 253.95 816.25 252.3 820.95 247.6 823.85 244.9 826.2 240.7 828.45 236.4 828.9 232.95
L 818.5 232.95
Q 817.4 237.1 814.65 240.35 809.8 245.8 801.6 245.8 792.8 245.8 788.55 240 784.4 234.2 784.1 224.65
L 829.75 224.65
Q 829.75 215.15 828.85 210.8 827.75 204.5 824.65 199.75 821.4 194.75 815.15 191.65 808.9 188.5 802.3 188.5
M 784.35 216.25
Q 784.65 208.2 789.5 202.95 794.45 197.7 801.65 197.7 811.65 197.7 815.95 205.3 818.3 209.4 818.9 216.25
L 784.35 216.25
M 757.85 193.25
Q 751.2 188.1 740.6 188.1 728.15 188.1 720.15 197.3 712.1 206.5 712.1 223 712.1 236.5 719.45 245.5 726.75 254.45 739.05 254.45 750 254.45 757.05 248.7 764.1 242.9 765.85 230.45
L 755.6 230.45
Q 754.1 237.4 750.3 241.4 746.45 245.4 739.9 245.4 731.35 245.4 727.35 238.95 723.35 232.5 723.35 223.05 723.35 213.75 726.15 207.35 730.5 197.5 740.6 197.5 747.95 197.5 751.3 201.4 754.65 205.2 755.6 211
L 765.85 211
Q 764.5 198.4 757.85 193.25
M 695.4 178.9
Q 684.45 164.25 661.65 164.25 639.85 164.25 628.7 180.15 620.05 192.6 620.05 210.05 620.05 229.4 630.15 242.05 641.55 255.15 661.4 255.15 682.65 255.15 694.15 240.15 703.95 227.4 703.95 208.1 703.95 190.3 695.4 178.9
M 662.35 174.6
Q 676.1 174.6 684.1 183.85 692 193.1 692 208.3 692 222.7 685.15 233.7 678.2 244.8 662.8 244.8 646.6 244.8 639.35 234.95 632.1 225.15 632.1 210.85 632.1 192.95 640.55 183.8 649 174.6 662.35 174.6
M 919.8 189.9
L 909.8 189.9 909.8 252.65 920.35 252.65 920.35 219.8
Q 920.35 213.65 921.15 210.35 921.9 207 924.55 203.9 927.85 200.05 932.15 198.75 934.55 198 938.3 198 945.7 198 948.5 203.85 950.2 207.35 950.2 213.1
L 950.2 252.65 960.95 252.65 960.95 212.4
Q 960.95 202.9 958.35 197.8 953.65 188.5 940.3 188.5 934.2 188.5 929.25 190.9 924.25 193.3 919.8 198.8
L 919.8 189.9
M 885.7 192.6
Q 878.75 188.35 867.75 188.35 858.2 188.35 850.95 192.95 843.75 197.45 843.45 209.1
L 853.3 209.1
Q 853.85 204.25 855.8 201.75 859.25 197.3 867.5 197.3 874.6 197.3 878.5 199.75 882.3 202.15 882.3 207.6 882.3 210.25 881.6 211.65 880.35 214.2 876.7 214.7
L 859.9 216.8
Q 851.05 217.9 845.6 222.7 840.15 227.5 840.15 236.2 840.15 244.15 845.7 249.5 851.25 254.75 859.95 254.75 867.25 254.75 873.25 251.65 879.3 248.55 882.5 244.35 883.05 248.1 884.35 250.15 886.8 254 892.25 254
L 895.75 253.8 899.5 252.95 899.5 245.15 897.65 245.45 896.05 245.5
Q 893.9 245.5 893.25 244.5 892.55 243.5 892.55 241.85
L 892.55 205.7
Q 892.55 196.8 885.7 192.6
M 854.5 243.15
Q 851.15 240.5 851.15 235.95 851.15 229.95 856.1 227.2 858.95 225.6 864.7 224.8
L 877 222.85
Q 880.05 222 882 220.8
L 882 229.2
Q 882 238.95 873.2 243.2 868 245.8 862.4 245.8 857.85 245.8 854.5 243.15
M 1079.1 180.35
L 1079.1 190.2 1070.4 190.2 1070.4 198.5 1079.1 198.5 1079.1 252.65 1089.55 252.65 1089.55 198.5 1100.1 198.5 1100.1 190.2 1089.55 190.2
Q 1089.55 180 1090.5 177.55 1091.45 175 1096.3 175
L 1100.1 175.2 1100.1 165.6 1095.65 165.35
Q 1085.1 165.35 1081.4 170.75 1079.35 173.8 1079.1 180.35
M 1034.85 188.1
Q 1021.45 188.1 1013.5 197.45 1005.5 206.85 1005.5 222.6 1005.5 237.35 1013.05 246.15 1020.6 254.9 1033.5 254.9 1048.95 254.9 1056.25 244.95 1063.55 235.05 1063.55 219.95 1063.55 204.25 1055.25 196.15 1046.95 188.1 1034.85 188.1
M 1034.5 245.8
Q 1025 245.8 1020.7 239.1 1016.35 232.45 1016.35 222.4 1016.35 212.05 1020.7 204.65 1025 197.3 1034.55 197.3 1045.35 197.3 1049.8 205.95 1052.55 211.45 1052.55 220.25 1052.55 229.9 1048.7 237.9 1044.8 245.8 1034.5 245.8
M 1253.1 188.35
Q 1245.45 188.35 1240.35 191.7 1237.4 193.65 1233.65 198.4
L 1233.65 166.3 1223.1 166.3 1223.1 252.65 1233.65 252.65 1233.65 219.35
Q 1233.65 206.85 1238.95 202.3 1244.3 197.8 1250.85 197.8 1258.75 197.8 1261.65 202.95 1263.4 206.2 1263.4 213.1
L 1263.4 252.65 1274.25 252.65 1274.25 212.4
Q 1274.25 203.15 1271.6 197.9 1266.75 188.35 1253.1 188.35
M 1209.6 191.25
Q 1209.6 179.55 1202.55 173.1 1195.55 166.6 1184.1 166.6
L 1145.6 166.6 1145.6 252.65 1157.25 252.65 1157.25 216.25 1184.15 216.25
Q 1197.05 216.25 1203.3 208.8 1209.6 201.3 1209.6 191.25
M 1180.3 176.6
Q 1186.95 176.6 1190.85 178.4 1197.8 181.8 1197.8 191.3 1197.8 199.75 1192.95 203.1 1188.1 206.4 1180.3 206.4
L 1157.25 206.4 1157.25 176.6 1180.3 176.6
M 1420.5 190.2
L 1409.8 190.2 1409.8 252.65 1420.5 252.65 1420.5 190.2
M 1409.8 166.6
L 1409.8 178.55 1420.5 178.55 1420.5 166.6 1409.8 166.6
M 1340.7 189.9
L 1329.05 189.9 1312.1 241 1295.3 189.9 1283.35 189.9 1306.55 254.55 1301.8 265.7 1299.45 268.1
Q 1298.1 269.05 1295.2 269.05
L 1293 268.9 1289 267.95 1289 277.55 1291.95 278.2 1295.4 278.35
Q 1304.55 278.35 1308.3 273.1 1312.05 267.85 1321.2 243.8
L 1340.7 189.9
M 1371.65 188.25
Q 1360.7 188.25 1354.2 193.75 1347.7 199.25 1347.7 208.2 1347.7 215.75 1354.6 220 1358.45 222.45 1366.6 224.45
L 1375.15 226.6
Q 1381.95 228.3 1384.3 229.55 1387.95 231.65 1387.95 235.7 1387.95 241.05 1383.35 243.65 1378.85 246.15 1372.85 246.15 1362.8 246.15 1358.75 241.05 1356.5 238.25 1356.05 232.95
L 1345.9 232.95
Q 1346.35 242.35 1352.25 248.7 1358.15 255.05 1372.35 255.05 1385.45 255.05 1391.9 248.95 1398.35 242.85 1398.35 234.5 1398.35 225.8 1392.2 221.75 1388.3 219.2 1376.7 216.45
L 1369.6 214.75
Q 1364.9 213.65 1362.55 212.15 1358.4 209.7 1358.4 205.6 1358.4 201.9 1361.55 199.6 1364.65 197.35 1370.8 197.35 1380 197.35 1383.7 201.5 1386 204.35 1386.3 207.95
L 1396.25 207.95
Q 1396.35 201.85 1392.4 196.6 1386.05 188.25 1371.65 188.25
M 1518.3 188.25
Q 1507.35 188.25 1500.85 193.75 1494.35 199.25 1494.35 208.2 1494.35 215.75 1501.25 220 1505.1 222.45 1513.25 224.45
L 1521.8 226.6
Q 1528.6 228.3 1530.95 229.55 1534.6 231.65 1534.6 235.7 1534.6 241.05 1530 243.65 1525.5 246.15 1519.5 246.15 1509.45 246.15 1505.4 241.05 1503.15 238.25 1502.7 232.95
L 1492.55 232.95
Q 1493 242.35 1498.9 248.7 1504.8 255.05 1519 255.05 1532.1 255.05 1538.55 248.95 1545 242.85 1545 234.5 1545 225.8 1538.85 221.75 1534.95 219.2 1523.35 216.45
L 1516.25 214.75
Q 1511.55 213.65 1509.2 212.15 1505.05 209.7 1505.05 205.6 1505.05 201.9 1508.2 199.6 1511.3 197.35 1517.45 197.35 1526.65 197.35 1530.35 201.5 1532.65 204.35 1532.95 207.95
L 1542.9 207.95
Q 1543 201.85 1539.05 196.6 1532.7 188.25 1518.3 188.25
M 1477.9 193.25
Q 1471.25 188.1 1460.65 188.1 1448.2 188.1 1440.2 197.3 1432.15 206.5 1432.15 223 1432.15 236.5 1439.5 245.5 1446.8 254.45 1459.1 254.45 1470.05 254.45 1477.1 248.7 1484.15 242.9 1485.9 230.45
L 1475.65 230.45
Q 1474.15 237.4 1470.35 241.4 1466.5 245.4 1459.95 245.4 1451.4 245.4 1447.4 238.95 1443.4 232.5 1443.4 223.05 1443.4 213.75 1446.2 207.35 1450.55 197.5 1460.65 197.5 1468 197.5 1471.35 201.4 1474.7 205.2 1475.65 211
L 1485.9 211
Q 1484.55 198.4 1477.9 193.25 Z"/>
</g>

<g id="Layer7_0_STROKES_1_FILL">
<path fill="#FFFFFF" stroke="none" d="
M 310.3 823
Q 308.3470703125 824.1947265625 307.8 826.4 307.05078125 829.4837890625 306.4 830.75 303.6837890625 834.0244140625 305.05 844.45
L 305.05 844.45
Q 305.733984375 849.8146484375 307.45 856.5 308.0572265625 858.73515625 310 859.9 311.998046875 861.0537109375 314.2 860.45 316.3951171875 859.894921875 317.55 857.9 318.7013671875 855.9619140625 318.1 853.75 316.569921875 847.80078125 315.95 843.05
L 315.95 843
Q 315.322265625 838.1931640625 315.65 836.65 315.6919921875 836.6361328125 315.7 836.6 317.1607421875 834.4681640625 318.5 829 319.0380859375 826.793359375 317.85 824.85 316.658203125 822.89609375 314.45 822.35 312.2462890625 821.8109375 310.3 823
M 388.05 904.95
Q 387.5923828125 902.723046875 385.65 901.45 383.7642578125 900.2416015625 381.55 900.7 378.2392578125 901.4357421875 375.6 901.45 369.6240234375 901.30625 358.35 896.5 356.2505859375 895.6017578125 354.15 896.45 352.0462890625 897.302734375 351.15 899.4 350.2498046875 901.4955078125 351.1 903.6 351.956640625 905.7017578125 354.05 906.6 368.076953125 912.5939453125 375.6 912.45 379.2607421875 912.4642578125 383.85 911.45 386.0767578125 910.990625 387.3 909.05 388.56015625 907.1640625 388.05 904.95
M 335.75 885.05
L 335.7 885.05
Q 330.216796875 881.8314453125 328.2 880.1
L 328.2 880.05
Q 326.9013671875 878.5453125 324.5 873 324.5140625 872.999609375 324.5 872.95 324.2890625 872.46953125 324.05 871.9 323.2525390625 869.8009765625 321.15 868.85 319.0912109375 867.9501953125 316.95 868.75 314.8546875 869.59453125 313.9 871.65 313.0029296875 873.7623046875 313.8 875.85 314.0998046875 876.6029296875 314.35 877.25
L 314.4 877.3
Q 318.1857421875 886.1177734375 320.75 888.2
L 320.8 888.2
Q 323.2115234375 890.482421875 330.1 894.5 330.15078125 894.5359375 330.15 894.55 332.8478515625 896.1396484375 335.65 897.65 337.6783203125 898.7671875 339.85 898.1 342.0287109375 897.4783203125 343.1 895.45 344.2197265625 893.4751953125 343.55 891.3 342.9248046875 889.1236328125 340.9 888 338.2775390625 886.57421875 335.75 885.05
M 442.25 885.9
Q 441.7109375 888.1037109375 442.9 890.05 444.091796875 892.00390625 446.3 892.55 448.5033203125 893.084765625 450.45 891.9 451.981640625 890.975 453.35 890.05 459.40703125 885.908203125 461.05 882.45
L 461 882.5
Q 463.4060546875 878.4091796875 466.1 864.5 466.530078125 862.26484375 465.25 860.35 463.973828125 858.484375 461.75 858.05 459.517578125 857.6185546875 457.6 858.9 455.735546875 860.1787109375 455.3 862.4 453.09375 873.791015625 451.35 877.2
L 451.35 877.2
Q 450.2958984375 878.7896484375 447.15 880.95 446.01796875 881.7248046875 444.75 882.5 442.7966796875 883.69609375 442.25 885.9
M 432.05 890.4
Q 430.0501953125 889.3310546875 427.85 890 427.225 890.2 426.55 890.4 421.5845703125 891.71328125 418.3 891.6
L 418.4 891.6
Q 414.0791015625 891.2525390625 407.25 893
L 407.2 893
Q 404.87109375 893.6548828125 400.4 895.1 398.278515625 895.8396484375 397.25 897.85 396.215234375 899.9140625 396.9 902.05 397.6390625 904.224609375 399.65 905.25 401.7109375 906.2841796875 403.85 905.55 407.9068359375 904.2521484375 410.05 903.65 414.7212890625 902.4474609375 417.65 902.55 417.7349609375 902.5875 417.75 902.6 422.45 902.884375 429.6 900.95 429.721484375 900.923046875 429.8 900.9 430.475 900.7 431.1 900.5 433.2888671875 899.8314453125 434.35 897.8 435.4208984375 895.8015625 434.75 893.6 434.08359375 891.4625 432.05 890.4
M 468.7 815.25
Q 468.6626953125 815.066015625 468.6 814.85 467.9693359375 812.66640625 465.95 811.55 463.9826171875 810.4435546875 461.8 811.05 459.614453125 811.6919921875 458.5 813.65 457.3822265625 815.6654296875 458 817.85 458.1373046875 818.3337890625 458.25 818.75 459.8818359375 824.5744140625 459.95 827.55 459.934375 832.986328125 458.55 843.15 458.2443359375 845.3978515625 459.6 847.2 461.003125 849.0404296875 463.25 849.35 465.50234375 849.658203125 467.3 848.25 469.137890625 846.9015625 469.45 844.65 470.9654296875 833.5134765625 470.95 827.55 471.01953125 823.4955078125 468.8 815.5 468.760546875 815.3865234375 468.7 815.25
M 445.25 772.55
Q 445.378515625 772.83359375 445.4 773.1 446.0494140625 780.279296875 448.7 789.2
L 448.75 789.25
Q 449.70859375 792.3509765625 451.75 798.7 452.4916015625 800.8654296875 454.5 801.9 456.55078125 802.934765625 458.7 802.2 460.861328125 801.511328125 461.9 799.45 462.9318359375 797.4453125 462.2 795.3 460.19140625 789.048828125 459.25 786
L 459.25 786.05
Q 456.950390625 778.3203125 456.35 772.1 456.2212890625 770.16640625 455.35 768.15 454.43828125 766.0830078125 452.3 765.25 450.216015625 764.4 448.1 765.3 446.0373046875 766.21171875 445.2 768.3 444.35 770.4380859375 445.25 772.55
M 439.6 760.1
Q 440.7552734375 758.1408203125 440.15 755.95 439.5431640625 753.75859375 437.55 752.6 437.225 752.425 436.85 752.2
L 436.8 752.2
Q 421.2958984375 743.5943359375 419.85 742.55 418.046875 741.193359375 415.8 741.5 413.5529296875 741.809765625 412.15 743.6 410.791796875 745.4478515625 411.1 747.7 411.4150390625 749.945703125 413.2 751.3 414.701953125 752.50390625 431.4 761.75 431.44921875 761.7888671875 431.45 761.8 431.79921875 761.9888671875 432.1 762.15 434.116796875 763.305078125 436.3 762.7 438.49140625 762.10078125 439.6 760.1
M 355.6 743.2
Q 353.5625 742.2529296875 351.45 743.05 350.04921875 743.56015625 348.65 744.1 348.61171875 744.1353515625 348.55 744.15 331.332421875 750.90625 329.75 754.35
L 329.75 754.35
Q 328.4921875 756.274609375 326.4 760.25 325.3658203125 762.3009765625 326.05 764.45 326.74609375 766.63046875 328.75 767.65 330.8056640625 768.7341796875 332.95 768.05 335.13046875 767.35859375 336.15 765.35 337.9076171875 762.025 338.95 760.4 340.6353515625 759.073046875 352.65 754.35
L 352.7 754.35
Q 353.9875 753.8265625 355.25 753.35 357.389453125 752.5482421875 358.35 750.45 359.2994140625 748.4025390625 358.5 746.25 357.7005859375 744.150390625 355.6 743.2
M 370.65 736.3
Q 368.4658203125 736.8029296875 367.25 738.7 366.037890625 740.6599609375 366.55 742.85 367.0517578125 745.0865234375 368.95 746.3 370.9076171875 747.5109375 373.1 747 377.7671875 745.994921875 388.8 746 396.3412109375 746.001953125 400.5 745.15 402.73828125 744.699609375 404 742.8 405.2822265625 740.9037109375 404.85 738.65 404.401171875 736.460546875 402.5 735.2 400.6048828125 733.9193359375 398.35 734.35 394.95859375 734.9978515625 388.8 735 376.0330078125 735.0048828125 370.65 736.3
M 320.65 775.85
Q 318.56953125 776.711328125 317.65 778.8 315.330859375 784.35234375 314.35 787.85 314.3603515625 787.887109375 314.35 787.9 313.46953125 790.8486328125 312.4 798.2 311.9509765625 801.328125 311.1 807.65 310.7943359375 809.919921875 312.15 811.7 313.5681640625 813.5419921875 315.8 813.85 318.06796875 814.1572265625 319.85 812.75 321.6904296875 811.3798828125 322 809.1 322.848828125 802.8716796875 323.3 799.8 324.2162109375 793.459765625 324.9 790.95 324.9376953125 790.9083984375 324.95 790.85 325.79453125 787.8869140625 327.8 783.1 328.71171875 780.982421875 327.85 778.85 326.98203125 776.76875 324.85 775.85 322.7759765625 774.9873046875 320.65 775.85 Z"/>
</g>

<g id="Layer5_0_FILL">
<path fill="#FFFFFF" stroke="none" d="
M 1264.95 728.9
Q 1262.45 723.95 1255.55 723.95 1252.25 723.95 1249.75 725.3 1247.15 726.6 1245.2 729.35 1244.05 727.1 1242.6 725.9 1240.15 723.95 1236.05 723.95 1232.45 723.95 1229.55 725.85 1227.9 727.05 1225.9 729.55
L 1225.9 724.7 1220.2 724.7 1220.2 758.95 1225.95 758.95 1225.95 740.8
Q 1225.95 734.15 1228.6 731.65 1231.25 729.15 1234.55 729.15 1238.15 729.15 1239.45 731.5 1240.25 733.1 1240.25 736.6
L 1240.25 758.95 1246.1 758.95 1246.1 739.05
Q 1246.1 733.7 1248.6 731.45 1251.05 729.2 1254.4 729.2 1256.85 729.2 1258.6 730.45 1260.3 731.75 1260.3 735.2
L 1260.3 758.95 1266.3 758.95 1266.3 736.15
Q 1266.3 731.65 1264.95 728.9
M 1144.7 723.85
Q 1138.7 723.85 1135.15 726.85 1131.6 729.8 1131.6 734.7 1131.6 738.8 1135.4 741.2 1137.5 742.5 1141.95 743.6
L 1146.6 744.75
Q 1150.35 745.65 1151.6 746.35 1153.55 747.5 1153.55 749.7 1153.55 752.65 1151.1 754.05 1148.65 755.4 1145.4 755.4 1139.9 755.4 1137.65 752.65 1136.45 751.1 1136.15 748.25
L 1130.65 748.25
Q 1130.85 753.3 1134.15 756.85 1137.35 760.25 1145.1 760.25 1152.25 760.25 1155.75 756.95 1159.3 753.6 1159.3 749.05 1159.3 744.35 1155.95 742.15 1153.8 740.7 1147.45 739.2
L 1143.55 738.3
Q 1141.05 737.65 1139.75 736.9 1137.45 735.55 1137.45 733.25 1137.45 731.25 1139.2 730 1140.9 728.75 1144.25 728.75 1149.3 728.75 1151.3 731.05 1152.55 732.6 1152.7 734.55
L 1158.15 734.55
Q 1158.2 731.25 1156.05 728.35 1152.55 723.85 1144.7 723.85
M 1204.95 725.65
Q 1201.5 723.95 1197.85 723.95 1190.7 723.95 1186.25 729.1 1181.75 734.25 1181.75 742.5 1181.75 750.9 1186.15 755.55 1190.65 760.2 1196.95 760.2 1199.55 760.2 1201.65 759.65 1205.5 758.8 1208.1 756.2 1209.65 754.75 1210.9 752.4 1212.15 750.1 1212.4 748.25
L 1206.75 748.25
Q 1206.1 750.5 1204.65 752.25 1202 755.25 1197.45 755.25 1192.65 755.25 1190.4 752.1 1188.1 748.9 1188 743.65
L 1212.9 743.65
Q 1212.9 738.5 1212.4 736.15 1211.8 732.65 1210.05 730.1 1208.3 727.35 1204.95 725.65
M 1188.1 739.1
Q 1188.25 734.7 1190.9 731.85 1193.55 728.95 1197.55 728.95 1203 728.95 1205.3 733.1 1206.6 735.35 1206.95 739.1
L 1188.1 739.1
M 1178 729.4
L 1178 724.7 1172.5 724.7 1172.5 715.15 1166.7 715.15 1166.7 724.7 1162.05 724.7 1162.05 729.4 1166.7 729.4 1166.7 752.1
Q 1166.7 755.4 1168.15 757.45 1169.55 759.55 1173.65 759.55
L 1178 758.95 1178 754.4 1175.95 754.5
Q 1174.4 754.5 1173.75 754.15 1172.5 753.55 1172.5 751.8
L 1172.5 729.4 1178 729.4
M 1180.5 647.95
L 1174.7 647.95 1174.7 682.1 1180.5 682.1 1180.5 647.95
M 1163.45 638.25
L 1157.65 638.25 1157.65 647.8 1153 647.8 1153 652.55 1157.65 652.55 1157.65 675.2
Q 1157.65 678.5 1159.1 680.55 1159.55 681.2 1160.25 681.7 1161.8 682.65 1164.6 682.65
L 1168.95 682.1 1168.95 677.5 1166.9 677.6
Q 1165.4 677.6 1164.7 677.3 1163.45 676.65 1163.45 674.9
L 1163.45 652.55 1168.95 652.55 1168.95 647.8 1163.45 647.8 1163.45 638.25
M 1174.7 635.05
L 1174.7 641.55 1180.5 641.55 1180.5 635.05 1174.7 635.05
M 1224.6 647.05
Q 1221.3 647.05 1218.75 648.4 1216.15 649.7 1214.25 652.45 1213.05 650.2 1211.65 649.05 1209.15 647.05 1205.1 647.05 1201.5 647.05 1198.6 648.95 1196.95 650.15 1194.95 652.65
L 1194.95 647.8 1189.2 647.8 1189.2 682.1 1195 682.1 1195 663.9
Q 1195 657.3 1197.65 654.75 1200.3 652.25 1203.55 652.25 1207.2 652.25 1208.5 654.6 1209.3 656.2 1209.3 659.7
L 1209.3 682.1 1215.15 682.1 1215.15 662.15
Q 1215.15 656.8 1217.65 654.55 1220.05 652.3 1223.45 652.3 1225.9 652.3 1227.65 653.55 1229.35 654.85 1229.35 658.3
L 1229.35 682.1 1235.3 682.1 1235.3 659.25
Q 1235.3 654.75 1233.95 652 1231.5 647.05 1224.6 647.05
M 1252.95 662.45
Q 1248.15 663.1 1245.15 665.75 1242.15 668.35 1242.15 673.1 1242.15 677.45 1245.2 680.35 1248.2 683.2 1253 683.2 1256.95 683.2 1260.25 681.5 1263.55 679.8 1265.35 677.55 1265.6 679.6 1266.35 680.7 1267.65 682.8 1270.65 682.8
L 1272.55 682.7 1274.6 682.25 1274.6 678 1272.75 678.2
Q 1271.55 678.2 1271.2 677.6 1270.8 677.1 1270.8 676.2
L 1270.8 656.45
Q 1270.8 651.55 1267.1 649.25 1263.3 647 1257.25 647 1252.05 647 1248.1 649.5 1244.15 651.9 1243.95 658.3
L 1249.35 658.3
Q 1249.7 655.65 1250.75 654.3 1252.6 651.85 1257.15 651.85 1261 651.85 1263.1 653.2 1265.2 654.5 1265.2 657.45 1265.2 658.9 1264.8 659.7 1264.15 661.05 1262.15 661.35
L 1252.95 662.45
M 1250 676.9
Q 1248.2 675.45 1248.2 673 1248.2 669.7 1250.9 668.2 1252.45 667.3 1255.6 666.9
L 1262.35 665.8
Q 1263.95 665.35 1265.05 664.7
L 1265.05 669.25
Q 1265.05 674.55 1260.25 676.95 1257.35 678.35 1254.35 678.35 1251.9 678.35 1250 676.9
M 1286.15 635.05
L 1280.4 635.05 1280.4 682.1 1286.15 682.1 1286.15 635.05
M 1073.15 710.8
Q 1065.35 710.8 1061.1 714.85 1056.85 718.9 1056.85 725.25 1056.85 731.1 1061.2 734.05 1063.7 735.75 1069.7 737.15
L 1075.9 738.6
Q 1080.9 739.75 1083.3 741.35 1085.6 743 1085.6 746.85 1085.6 751.95 1080.1 753.95 1077.3 754.95 1073.85 754.95 1066.1 754.95 1063.05 750.35 1061.5 747.8 1061.25 743.85
L 1055.25 743.85
Q 1055.15 751.4 1060 755.85 1064.8 760.35 1073.4 760.35 1080.75 760.35 1086.3 757 1091.8 753.6 1091.8 745.8 1091.8 739.55 1087.45 736.25 1085 734.35 1080.35 733.25
L 1073.95 731.8
Q 1067.45 730.2 1065.65 729.2 1062.9 727.6 1062.9 724.15 1062.9 721 1065.25 718.65 1067.65 716.25 1073 716.25 1079.65 716.25 1082.5 720 1084 721.95 1084.45 725.75
L 1090.45 725.75
Q 1090.45 717.9 1085.45 714.35 1080.4 710.8 1073.15 710.8
M 1127.8 724.7
L 1121.4 724.7 1112.2 752.6 1103 724.7 1096.45 724.7 1109.15 760 1106.55 766.1 1105.25 767.45
Q 1104.55 767.95 1102.95 767.95
L 1101.75 767.85 1099.55 767.35 1099.55 772.6 1101.2 772.95 1103.05 773.05
Q 1108.1 773.05 1110.1 770.15 1110.4 769.75 1110.75 769.15 1112.85 765.45 1117.15 754.1
L 1127.8 724.7
M 1129 648.9
Q 1126.95 650.15 1125.2 652.55
L 1125.2 647.95 1119.55 647.95 1119.55 695.75 1125.3 695.75 1125.3 678.25
Q 1127.25 680.55 1128.75 681.5 1131.4 683.2 1135.25 683.2 1140.25 683.2 1143.95 680.2 1149.85 675.4 1149.85 664.15 1149.85 655.9 1145.75 651.45 1141.7 647 1135.9 647 1131.95 647 1129 648.9
M 1125.1 666.15
Q 1125.1 661.25 1126.3 658 1128.5 652 1134.55 652 1140.5 652 1142.7 657.65 1143.9 660.65 1143.9 664.75 1143.9 671.45 1141.25 674.85 1138.55 678.2 1134.55 678.2 1128.55 678.2 1126.3 672.85 1125.1 670.1 1125.1 666.15
M 1090.1 633.75
Q 1078.25 633.75 1072.15 642.45 1067.4 649.25 1067.4 658.8 1067.4 669.35 1072.95 676.25 1079.15 683.45 1090 683.45 1101.65 683.45 1107.9 675.25 1113.25 668.3 1113.25 657.8 1113.25 648 1108.6 641.8 1102.6 633.75 1090.1 633.75
M 1074 659.25
Q 1074 649.5 1078.65 644.45 1083.25 639.5 1090.5 639.5 1098.05 639.5 1102.4 644.5 1106.75 649.6 1106.75 657.85 1106.75 665.75 1103 671.75 1099.2 677.8 1090.8 677.8 1081.95 677.8 1077.95 672.4 1074 667.05 1074 659.25
M 1300.15 734.55
Q 1300.2 731.25 1298.05 728.35 1294.55 723.85 1286.7 723.85 1280.7 723.85 1277.15 726.85 1273.6 729.8 1273.6 734.7 1273.6 738.8 1277.35 741.2 1279.5 742.5 1283.9 743.6
L 1288.6 744.75
Q 1292.35 745.65 1293.6 746.35 1295.55 747.5 1295.55 749.7 1295.55 752.65 1293.05 754.05 1290.65 755.4 1287.35 755.4 1281.9 755.4 1279.6 752.65 1278.45 751.1 1278.15 748.25
L 1272.6 748.25
Q 1272.85 753.3 1276.1 756.85 1279.35 760.25 1287.1 760.25 1294.25 760.25 1297.75 756.95 1301.25 753.6 1301.25 749.05 1301.25 744.35 1297.95 742.15 1295.8 740.7 1289.45 739.2
L 1285.55 738.3
Q 1283 737.65 1281.7 736.9 1279.45 735.55 1279.45 733.25 1279.45 731.25 1281.2 730 1282.9 728.75 1286.25 728.75 1291.25 728.75 1293.3 731.05 1294.55 732.6 1294.7 734.55
L 1300.15 734.55 Z"/>
</g>

<g id="Layer4_0_STROKES_1_FILL">
<path fill="#FFFFFF" stroke="none" d="
M 1266.95 878.8
Q 1266.523046875 880.840625 1267.65 882.55
L 1275.25 894.25
Q 1276.3994140625 896.0162109375 1278.4 896.45 1280.4408203125 896.86875 1282.15 895.7 1283.91640625 894.5923828125 1284.35 892.55 1284.776953125 890.559375 1283.65 888.8
L 1276.05 877.1
Q 1274.9005859375 875.38359375 1272.85 874.95 1270.8591796875 874.53125 1269.1 875.65 1267.3833984375 876.8076171875 1266.95 878.8
M 1248.45 850.3
Q 1248.023046875 852.340625 1249.15 854.05
L 1256.75 865.75
Q 1257.8994140625 867.5162109375 1259.9 867.95 1261.9408203125 868.36875 1263.65 867.2 1265.41640625 866.0923828125 1265.85 864.05 1266.276953125 862.059375 1265.15 860.3
L 1257.55 848.6
Q 1256.4005859375 846.88359375 1254.35 846.45 1252.3591796875 846.03125 1250.6 847.15 1248.8833984375 848.3076171875 1248.45 850.3
M 1232.15 818.55
Q 1230.410546875 819.6798828125 1229.95 821.7 1229.534375 823.7115234375 1230.65 825.45
L 1238.25 837.25
Q 1239.38359375 838.9884765625 1241.4 839.4 1243.4125 839.86953125 1245.15 838.75 1246.889453125 837.6201171875 1247.3 835.6 1247.765625 833.5884765625 1246.65 831.85
L 1239.05 820.05
Q 1237.91640625 818.3115234375 1235.9 817.85 1233.8875 817.43046875 1232.15 818.55
M 1220.55 791.45
Q 1219.4005859375 789.73359375 1217.35 789.3 1215.3591796875 788.88125 1213.6 790 1211.8833984375 791.1576171875 1211.45 793.15 1211.023046875 795.190625 1212.15 796.9
L 1219.75 808.65
Q 1220.8994140625 810.4162109375 1222.9 810.85 1224.9408203125 811.26875 1226.65 810.1 1228.41640625 808.9923828125 1228.85 806.95 1229.276953125 804.959375 1228.15 803.2
L 1220.55 791.45
M 989.6 637.05
Q 990.4234375 638.96328125 992.35 639.75
L 1005.35 644.95
Q 1007.2515625 645.7181640625 1009.15 644.9 1011.0533203125 644.086328125 1011.8 642.15 1012.608203125 640.2580078125 1011.8 638.35 1010.9765625 636.43671875 1009.05 635.65
L 996.05 630.45
Q 994.1482421875 629.6818359375 992.25 630.5 990.3466796875 631.313671875 989.55 633.2 988.7919921875 635.1419921875 989.6 637.05
M 1027.65 643.05
Q 1025.7482421875 642.2818359375 1023.85 643.1 1021.9466796875 643.913671875 1021.15 645.8 1020.3919921875 647.7419921875 1021.2 649.65 1022.0234375 651.56328125 1023.95 652.35
L 1036.95 657.55
Q 1038.8515625 658.3181640625 1040.75 657.5 1042.6533203125 656.686328125 1043.4 654.75 1044.208203125 652.8580078125 1043.4 650.95 1042.5765625 649.03671875 1040.65 648.25
L 1027.65 643.05
M 1330.85 631.35
Q 1328.8423828125 630.9642578125 1327.1 632.1
L 1315.5 640
Q 1313.823828125 641.2013671875 1313.45 643.2 1313.059765625 645.2578125 1314.2 646.95 1315.396875 648.676171875 1317.4 649.05 1319.4576171875 649.4357421875 1321.15 648.25
L 1332.75 640.35
Q 1334.4759765625 639.1984375 1334.85 637.15 1335.240234375 635.1421875 1334.05 633.4 1332.903125 631.723828125 1330.85 631.35
M 1362.95 617.95
Q 1363.340234375 615.9421875 1362.15 614.2 1361.003125 612.523828125 1358.95 612.15 1356.9423828125 611.7642578125 1355.2 612.9
L 1343.6 620.8
Q 1341.923828125 622.0013671875 1341.55 624 1341.159765625 626.0578125 1342.3 627.75 1343.496875 629.476171875 1345.5 629.85 1347.5576171875 630.2357421875 1349.25 629.05
L 1360.85 621.15
Q 1362.5759765625 619.9984375 1362.95 617.95
M 1415.2 573.85
Q 1413.1923828125 573.4642578125 1411.45 574.6
L 1399.85 582.5
Q 1398.173828125 583.7013671875 1397.8 585.7 1397.409765625 587.7578125 1398.55 589.45 1399.746875 591.176171875 1401.75 591.55 1403.8076171875 591.9357421875 1405.5 590.75
L 1417.1 582.85
Q 1418.8259765625 581.6984375 1419.2 579.65 1419.590234375 577.6421875 1418.4 575.9 1417.253125 574.223828125 1415.2 573.85
M 1387.05 592.95
Q 1385.0423828125 592.5642578125 1383.3 593.7
L 1371.7 601.6
Q 1370.023828125 602.8013671875 1369.65 604.8 1369.259765625 606.8578125 1370.4 608.55 1371.596875 610.276171875 1373.6 610.65 1375.6576171875 611.0357421875 1377.35 609.85
L 1388.95 601.95
Q 1390.6759765625 600.7984375 1391.05 598.75 1391.440234375 596.7421875 1390.25 595 1389.103125 593.323828125 1387.05 592.95 Z"/>
</g>

<path id="Layer10_0_1_STROKES" stroke="#FFFFFF" stroke-opacity="0.06666666666666667" stroke-width="6" stroke-linejoin="round" stroke-linecap="round" fill="none" d="
M 2000.5 -112
Q 1985.85 -110.75 1963.7 -107 1919.4 -99.5 1881.75 -87 1829 -69.5 1797.1 -44.5 1757.25 -13.25 1752.45 28 1748.95 58 1742.75 102.25 1738.55 135.15 1739.45 150.8 1740.55 170.2 1749.6 182.45 1758.75 194.85 1780.45 206.05 1808.85 220.75 1819.25 225.3 1837.95 233.55 1852 235.55 1868.15 237.85 1884 233.05 1900.7 228 1952.35 190.5 2004 153 2042.45 55.15 2048.05 40.95 2052.35 28 2077.65 -48.15 2058.55 -80 2062.3 -90 2031.8 -102 2022.25 -105.75 2010.4 -109.25
L 2000.5 -112 Z
M 2312.6 -90
Q 2291.4 -68.8 2267.2 -36.15 2239 1.95 2219.35 39.3 2218.65 40.6 2218 41.9 2195.75 84.85 2189.1 119.55 2181.15 161.4 2196.55 188.05 2204.6 201.95 2218 225.8 2222.9 234.55 2228.55 244.65 2247.3 277.1 2263.55 298.85 2284.6 327 2309.05 348.1 2337.1 372.35 2372.6 390.1
M 1666.45 -130
Q 1664.45 -117.85 1658.75 -99.45 1647.4 -62.55 1628.95 -30.95 1608.65 3.75 1581.95 28 1574.65 34.65 1566.85 40.5 1521.55 74.55 1462.4 80.05 1401.6 85.7 1337.4 62.9 1299.75 49.55 1264.75 28 1247.35 17.3 1230.6 4.55 1184.75 -30.35 1157.15 -69.6 1130.05 -108.2 1132.3 -134
M 1982.5 -196.05
Q 1969.6 -182.45 1943.5 -173.8 1924.4 -167.45 1892.25 -162.25 1856.95 -157.15 1841.7 -154.25 1815.85 -149.4 1804.95 -142.6 1753.95 -110.95 1693.65 -7 1683.75 10.1 1677.35 28 1644.8 119.05 1702.95 231.5 1772.55 366.1 1770.05 393.1 1767.55 420.1 1787 481.85 1806.4 543.55 1792.8 589.2 1779.15 634.85 1728.75 688 1678.35 741.15 1722.3 818.4 1766.2 895.6 1889.55 965 2012.85 1034.4 2109.4 911.35 2183.6 816.75 2218 789.05 2228.35 780.7 2235.1 778.4 2267.15 767.45 2286.85 755.35 2306.95 743.05 2318.7 726.7 2330 711.05 2336.1 688.1 2338.7 678.3 2344.25 668.4 2346.65 664.05 2354.4 652.35 2360.55 643 2363.15 637.05 2366.95 628.4 2367.1 619.6 2367.5 598.55 2346.75 566.55 2322.85 529.7 2266.05 470.05 2245 447.95 2218 421.6 2191.65 395.8 2159.6 365.95 2128.85 337.3 2117.55 326.35 2096.85 306.35 2079.65 285.7 2062.45 265 2052.65 173.75 2046.9 120.3 2099.8 28 2137.2 -37.3 2204 -122.1
M 998.3 -95.5
Q 997.65 -89.15 998.9 -77.75 1001.4 -54.9 1010.9 -29.35 1021.65 -0.4 1039.75 28 1072.8 79.85 1130.3 130.05 1153.6 150.45 1180.9 160.6 1206.3 170.05 1239.1 172 1267.35 173.65 1308.85 170 1332.4 167.9 1394 160.3 1451.75 153 1492.05 156.35 1528.7 159.4 1554.4 171.65 1576.15 182 1594.1 201.25 1604.75 212.65 1624.45 240.35 1642.05 265.2 1651.7 281.2 1669.25 310.3 1680.85 340.05 1712.85 422.3 1702.45 516.1 1699.7 540.9 1691.2 570.5 1684.65 593.2 1672.8 624.8 1658.95 660.65 1652.35 678.3 1640.85 708.95 1634.95 730.15 1618.9 787.45 1629.3 826.35 1642.15 874.2 1696.45 907.5 1712.4 917.3 1751.8 942 1784.3 962.4 1802.25 973.1 1856.55 1005.5 1896 1020.35 1944.8 1038.75 1993.5 1040.05 2047.05 1041.55 2110.55 1023.1 2164.25 1007.5 2218 970.05 2225.3 964.95 2232.65 959.45 2283.05 921.6 2329.6 867.7 2366.7 824.8 2393.6 781.4 2404.4 763.95 2410.7 750.75 2416.65 738.35 2416.65 734.05
M 1976.5 352.1
Q 1969.5 355.5 1959.55 362.5 1939.6 376.5 1924.75 394.65 1903.95 420 1896.35 450 1886.8 487.55 1898.5 530.15 1911.15 576.2 1914.5 600.95 1917.8 625.1 1914 642.2 1911.25 654.55 1900.75 675.9 1885.6 706.65 1878.5 724.2 1865.9 755.3 1864.7 784.7 1863.55 813.35 1873.25 837.75 1882.9 862.05 1902.4 879.5 1922.3 897.35 1950.5 906.25 1976.25 914.35 2014.5 882.2 2041.5 859.55 2085.8 805.5 2097.75 790.95 2121.1 762.1 2141.15 737.6 2154.5 723.15 2190.4 684.15 2210.6 682.2 2214.4 681.85 2218 680.95 2235.55 676.55 2247.15 659.6 2260.45 640.2 2261.6 611.2 2262.8 581.25 2250.55 552.25 2239.05 524.95 2218 504.8 2214.45 501.35 2210.6 498.15 2190.15 481.05 2158.55 442.4 2137.3 416.45 2133.5 412 2119.2 395.15 2107.8 383.85 2078.15 354.65 2049.9 345.95 2015.55 335.35 1976.5 352.1 Z
M 724.6 -81.35
Q 757.5 -69.05 783.8 -55.15 848.65 -20.9 886.75 28 900.3 45.4 910.45 64.65 931.05 103.6 942.8 151.35 948.85 175.9 959.05 237.85 968.35 294.4 982.2 337.25 996 380.05 1026.9 425.75 1034.05 436.3 1040.4 447.5 1041.4 449.25 1042.4 451.05 1062 486.65 1073.4 528.1 1082.55 561.35 1078.8 579 1076.1 591.4 1067.05 596.1 1045.05 607.45 1029.75 621.1 1014.4 634.7 1010.5 696.6 1007.85 738.55 1027.35 769.15 1036.55 783.65 1050.7 795.55 1094.8 832.7 1061.65 890.7 1028.45 948.65 950.6 979.6 885.05 1005.65 793.65 1008.4 715.95 1010.7 644.8 996.5 584.7 984.5 532.7 990.2 485.2 995.45 449.05 1014.85 415.3 1032.85 396.45 1060.25 378.6 1086.1 370.9 1172 370.7 1174.25 370.5 1220.65
M 176.1 1225.3
Q 181.2 1195.7 186.9 1172 207.15 1087.95 234.95 1078.25 270.55 1065.75 328.4 1023.1 386.25 980.4 419.4 961.05 460.8 936.8 504.15 940.25 623.1 949.7 680.7 950.25 765.25 951.1 788.2 936.25 795.15 931.75 804.05 921.85 814.1 910.75 822.8 896.8 845.15 861.25 849 824.75 852.1 795.35 842.35 769.15 836.7 754 826.75 739.9 823.95 735.95 820.9 732.15 820.05 731.15 819.2 730.15 814.55 724.6 809.2 719.25 776 686.25 716.2 662.2 646.35 634.15 555.35 624.65 529.55 621.95 482.1 619.05 435.95 616.2 415.15 613.95 380.35 610.1 355.7 603.1 326.55 594.8 304.95 580.35 256.35 547.8 234.1 474.15 222.05 434.3 192.8 346.75 173.95 290.4 169.35 265.1 163.15 231.3 170.25 202.95 177.35 174.55 202.1 134.05 233.05 83.45 248.25 53.05 254.7 40.2 259.95 28 272.85 -1.95 278.6 -27.75 288.2 -70.6 279.75 -108.2 270.35 -150.1 238.1 -188.05
M 344.1 -160
Q 344.6 -147.6 344.1 -127.75 343.1 -88 338.1 -50.5 332.25 -6.75 321.95 28 303.9 88.65 272.1 122.05 258.7 136.15 249.65 160.35 240.15 185.85 237.1 218.5 230.1 293.9 258.2 382.35 265.3 404.9 295.7 430.45 326.65 456.5 374.95 520.35 423.25 584.15 512.65 582.35 602.05 580.5 644.2 570.15 692.1 558.35 721.25 548.45 753.3 537.5 773 525.4 793.1 513.1 804.85 496.75 807.15 493.6 809.2 490.15 815.05 480.35 819.2 468.25 820.85 463.4 822.25 458.15 823.2 454.6 824.55 451.05 825.25 449.05 826.15 447.05 828 442.75 830.4 438.45 832.8 434.1 840.55 422.4 846.7 413.05 849.3 407.1 853.1 398.45 853.25 389.65 853.65 368.6 832.9 336.6 809 299.75 752.2 240.1 710.55 196.4 645.75 136 615 107.35 603.7 96.4 583 76.4 569.9 61.55 554.7 44.3 544.75 28 534.4 11.15 529.7 -4.65 519.35 -39.25 530.15 -84
M 761.55 378.25
Q 770 357.85 723.85 294.6 681.3 236.3 614.75 170.75 546.25 103.35 493.55 69.3 465.35 51.1 446.85 46.45 426.8 41.45 419.35 52.65 400.3 81.35 385.85 99.15 373.35 113.4 369.95 117.45 365 123.35 362.25 131.35 360 137.95 353.5 164.3 351.15 173.8 343.2 184.85 338.4 191.5 327.15 204 316.05 216.35 311.8 222.3 304.75 232.25 303.8 240.3 299.2 277.4 312.65 320.5 324.45 358.45 348.7 396.8 370.5 431.15 397.25 458.3 422.7 484.15 443.45 494.3 447.8 496.45 461.25 503.2 474.7 509.6 485.9 513.6 518.7 525.15 538.8 517.85 567.8 507.4 595.15 501.5 611.95 497.85 636.15 494.6 658.3 491.65 666.6 489.55 680.9 486 691.6 478.65 715.2 462.45 729.6 441.6 743.7 421.25 761.55 378.25 Z
M -62.25 -144
Q -87.1 -75 -39.85 27.75 -32.25 44.25 -22 63.15 -12.05 81.55 0.45 102.2 7 113.05 18.5 131.65 27.65 146.6 31.55 154 31.95 154.75 35.25 160 38.35 165 40.45 169.1 47.2 182.55 48.05 196.05 48.55 210.95 44.8 220.65 41 230.35 35.55 244.9 30.1 259.4 28.05 283.7 26 307.95 31 322 35.5 334.6 36.05 338.1 37.1 344.45 43.4 357.2 47 364.45 58.7 385.75 85.55 434.8 100.05 469.15 155.05 599.35 135.25 724.25 130.1 756.8 135.3 779.4 139.15 796.05 149.75 810.05 152.05 813.05 156.55 823.7 162.05 836.8 161.9 843.35 161.3 867.35 156.5 880.25 153.05 889.45 143.85 898.05 140 901.7 124.6 913.45 111.15 923.75 103.2 932.25 91.45 944.8 84.05 960.25 76.7 975.6 51.1 987.3 24.85 999.35 -6.4 1000.8 -14.4 1001.2 -22 1000.8 -47.9 999.5 -69.7 989.5 -102.4 974.55 -120 942.25 -128.75 926.2 -175.2 897.5 -216.4 872.05 -274.25 844.35 -329.9 817.7 -373.25 802.1 -419.35 785.5 -428.05 790.2
M -176.05 118.05
Q -174.8 123.15 -167.8 132.6 -158.35 144.55 -153.05 151.7 -131.9 180.05 -127.95 204.1 -126.9 210.5 -119.55 223 -114.9 230.9 -101.55 251.15 -68.9 300.55 -51.95 333.15 -36.4 363 -22 390.4 25.65 481.05 60.9 544.9 71.15 563.5 71.85 602.15 72.35 627.3 68.05 677.4 63.45 731.6 61.65 759.75 59.85 787.85 61.9 805.65 63.9 823.4 56.3 839.25 48.7 855.1 36.2 865.65 22.25 877.5 21.55 878.15 1 898.45 -22 901 -26.65 901.45 -31.35 901.25 -53.75 900.25 -87.85 881.25 -148.3 847.55 -156.45 838.7 -164.6 829.85 -195.25 809 -228.45 786.1 -252.7 769.55 -298.7 738.15 -318.05 726.2 -327.3 720.5 -350.8 712.6 -366.3 707.35 -398.9 697.75 -435.75 686.95 -449.15 682.65 -475.4 674.3 -488.1 668.2
M 878.25 -82.15
Q 903.75 -42.15 931.8 12.1 935.95 20.15 939.9 28 988.75 125.8 1000.3 191.45 1005.2 219.1 1010.1 254.9 1013.5 279.45 1015.8 287.3 1018.9 297.8 1026.75 306.75 1031.45 312.15 1052.3 331.5 1062.35 340.8 1095.7 364.8 1127.3 387.5 1144.35 404.3 1170.4 430.05 1183.95 459.75 1200.35 495.6 1200.35 540.55 1200.35 576.1 1202.3 619.3 1204.2 660.5 1204.1 673.65 1203.85 698.85 1199.45 720.95 1194.55 745.6 1182.3 778.5 1169.45 813 1141.8 859.9 1113.75 907.55 1080.3 951.15 1044 998.45 1011.25 1027.8 974.55 1060.7 948.25 1065.4 936.2 1067.6 917.3 1067.85 911.45 1067.95 881.6 1067.65 832.7 1067.1 805.25 1073.2 763.1 1082.55 737.85 1110.45 716.5 1133.95 705.65 1172 700.95 1188.5 698.2 1207.7
M 1820.3 1103.8
Q 1806.6 1077.15 1780.95 1058.25 1761 1043.6 1730.25 1031.4 1719.9 1027.3 1704.2 1021.9 1683 1014.55 1679.65 1013.35 1652.5 1003.45 1640.55 994.15 1581.45 948.1 1502.25 1016.4 1423.05 1084.7 1355 1122.4 1315.75 1144.15 1294.3 1172 1278.5 1192.5 1272.35 1216.3 1245.95 1318.2 1456.9 1297.55 1523.7 1291.05 1620.05 1271.15 1639.9 1267.05 1685.85 1257 1718.15 1249.95 1728.45 1248.3 1733.5 1247.5 1768.6 1249.65 1830.3 1253.45 1840.75 1254 1941.4 1259.05 1946.5 1248.3 1948.95 1243.15 1932.5 1224.5 1921.7 1212.2 1893.25 1184.25 1886.6 1177.7 1880.85 1172 1858.35 1149.75 1849.05 1139.9 1826.55 1116.05 1820.3 1103.8 Z"/>

<path id="Layer6_0_1_STROKES" stroke="#FFFFFF" stroke-opacity="0.2" stroke-width="6" stroke-linejoin="round" stroke-linecap="round" fill="none" d="
M 1768.4 331.65
L 1647.7 470.5 1647.7 532.35 1543.35 599.1 1474.3 599.1 1492.05 787.4 1581.95 878.6 1768.4 331.65 2140.05 -278.4
M 1768.4 331.65
L 1230.3 521.9 1334.7 627.8 1492.05 787.4 1378.25 523.1
M -250 962.25
Q -121.05 1051.2 -22 1063.3 -15.4 1064.1 -8.95 1064.55 31.8 1067.45 65.05 1056.5 92.2 1047.55 112.05 1030.25 126.45 1017.7 137.3 997.5 140.9 990.7 145.5 980.4 151.7 966.65 152.75 964.45 161.1 947.05 169.9 940.3 181.45 931.5 200.1 934.25 212.65 936.1 228.15 931 243.3 926.05 256.8 915.95 270.9 905.45 279.1 892.3 288.1 877.9 288.1 863.2 288.1 838.25 308.15 818.35 327.4 799.15 356.85 792.55 307.2 793.4 271.15 789.45 241.7 786.2 217.95 779.25 177.3 767.3 182.65 704.6 184.3 685.1 190.85 658.65 197.85 630.15 197.9 629.9 201.85 600.9 191.45 568.1 188.05 557.35 182.55 544.7 177 532.5 175.35 528.45 164.75 502.7 147.6 480.7 111.1 434 96.6 386.1 83.5 343 87.7 297.15 91.35 257.75 108.3 212.9 120.95 179.35 145.5 132.35 173.7 80.15 186.65 54.55 193.65 40.7 199.5 28 212.05 0.45 218.95 -21.45 231.65 -62.05 229.7 -96.7 227.45 -136.15 206.1 -172.05
M 1334.7 872.2
L 1334.7 820.2 909.5 820.7 755.85 756.2
Q 741.3 752.65 734.05 751.15 721.45 748.55 712.4 749.35 687.95 751.5 668.85 780.2 641.3 821.7 596.6 812 578.2 808 558.8 795.5 541.45 784.3 526.15 768.2 513.95 755.4 499 752.75 485.15 750.3 470.2 756.75 456 762.9 442.65 776.1 429.6 789.05 419.45 806.65 435.15 827 419.45 849.2 415.9 863.2 395.1 865.7
L 369.15 860.2
Q 377.75 868.95 383.85 887.2 385.35 891.65 392.65 919.4 397.45 937.65 402.25 944.45 408.8 953.8 419.3 950 468.25 932.4 471.55 1003.95 473.55 1047.85 450.8 1172 449.95 1176.55 443.1 1223.35
M 837.2 536.1
L 512.15 362.1
Q 198.75 316.45 175.35 528.45
M 909.5 820.7
L 908.5 780.35 908.2 769.15 907.9 758.2
M 818.65 658.65
L 755.85 756.2
M 1122.25 560.1
L 1230.3 521.9
M 512.15 362.1
L 368.1 -186.05
M 1581.95 878.6
L 2114.65 1246.4 1207.2 1246.4 1207.2 964.25
M 368.15 793.15
Q 404.95 802.6 390.15 822.2 405.75 833.25 419.45 806.65
L 400.15 782.15
Q 390.2 775.5 368.15 793.15 364.45 793.05 360.9 792.85 358.85 792.7 356.85 792.55
M 369.15 860.2
Q 344.55 856.05 349.1 838.2
L 349.1 819.2
Q 372.3 811.65 368.15 793.15 366.35 792.7 362.7 792.8 361.75 792.8 360.9 792.85
M 419.45 849.2
Q 411.6 830.55 390.15 842.2 385.05 862.2 369.15 860.2
M 349.1 819.2
Q 369.65 843.15 390.15 822.2
L 390.15 842.2
M 1581.95 878.6
L 1417 964.25
M 1207.2 1246.4
L 1347.8 1049
M 1334.7 627.8
L 1334.7 820.2
M 1417 924.25
L 1492.05 787.4
M 1768.4 331.65
L 2599.55 225"/>

<path id="Layer6_1_1_STROKES" stroke="#999999" stroke-width="6" stroke-linejoin="round" stroke-linecap="round" fill="none" d="
M 826.2 523.15
L 837.2 486.1 864.2 484.1 924.2 438.1 973.2 434.1 965.2 534.15 985.3 534.15
Q 985.5 532.7 988.85 523.2 993.35 510.25 998.7 498.6
L 1024.25 534.15 1020.25 432.1 1098.25 429.1 1096.25 462.1 1122.25 510.1 1041.25 512.1 1024.25 534.15 985.3 534.15 942.7 619.1
Q 942.5 622.9 942 627.2 940.25 642.2 936.25 656.2
L 936.25 676.65 907.9 708.2 886.7 700.15 869.7 693.65 868.25 638.2 818.65 608.65 823.2 589.15 826.2 523.15 894.2 522.15 916.7 527.15 922.2 501.1 865.2 505.1 864.2 484.1
M 823.2 589.15
L 862.7 586.15 902.2 583.15 894.2 522.15 823.2 589.15 868.25 638.2 862.7 586.15 875.2 597.625 902.2 622.4 902.2 583.15 916.7 527.15 965.2 534.15 924.2 438.1 922.2 501.1
M 902.2 583.15
L 934.25 592.2
Q 943.9 596.5 942.7 619.1
M 934.25 592.2
L 902.2 622.4 912.7 662.15 936.25 656.2
M 869.7 693.65
L 874.95 682.15 875.2 681.6 902.2 622.4 875.2 634.975 868.25 638.2
M 912.7 662.15
L 886.7 700.15 936.25 676.65
M 1041.25 512.1
L 1040.25 462.1 1020.25 432.1
M 1096.25 462.1
L 1040.25 462.1"/>

<path id="Layer6_2_1_STROKES" stroke="#999999" stroke-width="6" stroke-linejoin="round" stroke-linecap="round" fill="none" d="
M 1474.3 549.1
L 1543.35 549.1 1472.65 482.35 1474.3 549.1 1416.8 502.2 1378.25 473.1 1378.25 420.5 1647.7 420.5 1647.7 482.35 1472.65 482.35 1378.25 420.5"/>

<path id="Layer6_3_1_STROKES" stroke="#999999" stroke-width="6" stroke-linejoin="round" stroke-linecap="round" fill="none" d="
M 1334.7 876.25
L 1334.7 822.2 1417 874.25 1417 914.25 1347.8 999 1207.2 914.25 1334.7 876.25 1417 914.25 1334.7 822.2
M 1347.8 944.25
L 1417 914.25 1207.2 914.25 1347.8 944.25 1347.8 999"/>
</defs>

<g transform="matrix( 1, 0, 0, 1, 0,0) ">
<use xlink:href="#Layer11_0_FILL"/>
</g>

<g transform="matrix( 1, 0, 0, 1, 0,0) ">
<use xlink:href="#Layer10_0_1_STROKES"/>
</g>

<g transform="matrix( 1, 0, 0, 1, 0,0) ">
<use xlink:href="#Layer9_0_FILL"/>
</g>

<g transform="matrix( 1, 0, 0, 1, 0,50) ">
<use xlink:href="#Layer8_0_FILL"/>
</g>

<g transform="matrix( 1, 0, 0, 1, 0,0) ">
<use xlink:href="#Layer7_0_STROKES_1_FILL"/>
</g>

<g transform="matrix( 1, 0, 0, 1, 0,0) ">
<use xlink:href="#Layer6_0_1_STROKES"/>
</g>

<g transform="matrix( 1, 0, 0, 1, 0,50) ">
<use xlink:href="#Layer6_1_1_STROKES"/>
</g>

<g transform="matrix( 1, 0, 0, 1, 0,50) ">
<use xlink:href="#Layer6_2_1_STROKES"/>
</g>

<g transform="matrix( 1, 0, 0, 1, 0,50) ">
<use xlink:href="#Layer6_3_1_STROKES"/>
</g>

<g transform="matrix( 1, 0, 0, 1, 0,0) ">
<use xlink:href="#Layer5_0_FILL"/>
</g>

<g transform="matrix( 1, 0, 0, 1, 0,0) ">
<use xlink:href="#Layer4_0_STROKES_1_FILL"/>
</g>
</svg>
