
<svg xmlns="http://www.w3.org/2000/svg" version="1.1" xmlns:xlink="http://www.w3.org/1999/xlink" preserveAspectRatio="none" x="0px" y="0px" width="2196px" height="1100px" viewBox="0 0 2196 1100">
<defs>
<linearGradient id="Gradient_1" gradientUnits="userSpaceOnUse" x1="1070.55" y1="324.2375" x2="1070.55" y2="15.762499999999989" spreadMethod="pad">
<stop  offset="0%" stop-color="#000000" stop-opacity="0"/>

<stop  offset="100%" stop-color="#000000"/>
</linearGradient>

<radialGradient id="Gradient_2" gradientUnits="userSpaceOnUse" cx="0" cy="0" r="998.0125" fx="0" fy="0" gradientTransform="matrix( 0, 1, -13.456144086371664, 0, 1202.1,923.75) " spreadMethod="pad">
<stop  offset="0%" stop-color="#000000"/>

<stop  offset="100%" stop-color="#001D2D"/>
</radialGradient>

<g id="Layer12_0_FILL">
<path fill="url(#Gradient_1)" stroke="none" d="
M 2231.25 678.65
L 2231.25 -9.85 -90.15 -9.85 -90.15 678.65 2231.25 678.65 Z"/>
</g>

<g id="Layer11_0_FILL">
<path fill="url(#Gradient_2)" stroke="none" d="
M -150 -59.7
Q -314.95 -47.6 -467.05 -32 -771.15 -0.8 -706.7 16.95 -551.95 59.5 -554.95 60.05 -556.4 60.25 -557.9 60.6 -611.05 69.9 -663.25 80.05 -966.05 138.65 -1236.6 220.95 -1444.45 284.25 -1626.05 412.85 -1784.6 525.3 -1912.05 679.25 -2022.9 813.25 -2094.6 958.5 -2158.95 1089 -2173.75 1189.35
L 2491.75 1153.3 2539.15 -59.7 -150 -59.7 Z"/>
</g>

<g id="Layer9_0_FILL">
<path fill="#222222" stroke="none" d="
M 2640.5 1095.65
Q 2690.4 1068.55 2695.15 1017.65 2699.8 966.8 2655.4 940.9 2610.9 915.1 2586.55 902.15 2562.4 889.1 2551.3 876.1 2540.2 863.1 2527.05 859.45 2513.9 855.6 2454.2 812.4 2394.6 768.95 2368.5 765.2 2342.2 761.15 2306.85 753.25 2271.3 745.35 2207.8 734.7 2144.15 723.95 2099.7 712.05 2055.1 700.05 2007.3 704.15 1959.25 708.25 1884.6 690.8 1809.8 673.2 1740.65 674 1671.55 674.65 1478.95 634.3 1426.65 610.95 1389.1 609.85 1366.5 609.1 1335.15 607.75 1318.75 606.95 1166 621.5 1084.95 629.1 1057.05 631.55 1004.25 636.25 991.55 636.25 982.05 636.25 928.8 638.3 862.1 640.85 823.25 641.95 674.85 646.15 633.7 639.05 591.75 632 531.55 636.25 501.45 638.4 479.65 641.95
L 193.35 677.15 79.55 699.7
Q 62.05 705.05 33.6 712.5 -23.2 727.45 -77.55 737.95 -103.25 742.8 -150.3 748.35 -204.2 754.7 -223.25 757.75 -321.5 773.3 -351.85 782.6 -369.35 788 -444.3 822.05 -467.55 832.55 -480.95 876.1 -491.25 909.55 -495.1 959.2 -498.1 997.85 -460.35 1032.25 -426.7 1063 -353.95 1096.15 -291.2 1124.65 -216.4 1141.75 -211.8 1142.85 -207.2 1143.85 -131.95 1160.35 -38.4 1166.65 29.6 1171.45 124.95 1186.5 210.8 1199.95 223.05 1199.95 257.4 1199.95 311.9 1209.8 388.3 1223.55 484.7 1253.85 572.3 1281.4 670.4 1273.5 683.3 1272.55 741.6 1265.55 779.6 1260.95 800.3 1262.05 872.7 1266.3 921 1264.75 998.4 1262.05 1070 1245.55 1137.2 1230.1 1312.35 1234.2 1401.15 1236.25 1489.25 1241.45 1493.55 1241.45 1529.65 1235.25 1574.55 1227.7 1607.7 1223.7 1726.4 1209.45 1800.75 1224.8 1875.9 1240.35 1993.3 1207.05 2051.8 1190.55 2101.75 1184.25
L 2171.15 1184.25
Q 2252.2 1198.85 2278.15 1204.05 2295.3 1207.4 2358.5 1195.55 2427.9 1182.2 2494.5 1160 2521.15 1151.15 2543.95 1141.75 2590.55 1122.7 2640.5 1095.65 Z"/>
</g>

<g id="Layer8_0_STROKES_1_FILL">
<path fill="#FFFFFF" fill-opacity="0.5176470588235295" stroke="none" d="
M 490.75 417.05
Q 489.5947265625 415.866015625 487.95 415.85 486.2962890625 415.8365234375 485.1 417 479.8501953125 422.14765625 474.55 427.75 473.4080078125 428.96875 473.45 430.6 473.4955078125 432.2673828125 474.7 433.4 475.915625 434.5435546875 477.55 434.5 479.2158203125 434.4515625 480.35 433.25 485.5498046875 427.7521484375 490.7 422.7 491.88046875 421.54375 491.9 419.9 491.914453125 418.2427734375 490.75 417.05
M 598.95 359.35
Q 600.235546875 360.3962890625 601.85 360.2 615.7421875 358.720703125 631 359.8 632.6681640625 359.9138671875 633.9 358.8 635.1677734375 357.7294921875 635.25 356.05 635.4029296875 354.4291015625 634.3 353.15 633.232421875 351.9212890625 631.55 351.8 615.5576171875 350.6791015625 601 352.25 599.390234375 352.456640625 598.35 353.75 597.302734375 355.0380859375 597.45 356.65 597.6556640625 358.312109375 598.95 359.35
M 530.25 380.85
Q 528.6466796875 380.5689453125 527.25 381.5 515.4029296875 389.66875 503 400.35 501.7845703125 401.4599609375 501.65 403.1 501.5470703125 404.758203125 502.6 406 503.7076171875 407.2673828125 505.35 407.35 507.00625 407.5005859375 508.25 406.4 520.2966796875 396.03125 531.8 388.1 533.1818359375 387.14921875 533.45 385.5 533.7841796875 383.89609375 532.85 382.5 531.9025390625 381.167578125 530.25 380.85
M 549.05 376.05
Q 550.6267578125 376.56875 552.1 375.8 565.637890625 368.7294921875 579.15 364.7 580.7552734375 364.255078125 581.55 362.8 582.344921875 361.351171875 581.85 359.75 581.405859375 358.19375 579.95 357.4 578.5021484375 356.6056640625 576.9 357.05 562.66171875 361.2705078125 548.4 368.7 546.92734375 369.475 546.4 371.05 545.9287109375 372.627734375 546.7 374.1 547.47265625 375.5736328125 549.05 376.05
M 942.1 311.55
Q 940.509765625 311.1740234375 939.1 312 926.1384765625 319.8080078125 913.4 326.5 911.96328125 327.2896484375 911.45 328.85 910.9916015625 330.45546875 911.75 331.9 912.5498046875 333.387890625 914.1 333.85 915.704296875 334.36875 917.15 333.6 930.06171875 326.7916015625 943.2 318.85 944.6220703125 318.00625 945 316.4 945.42890625 314.808984375 944.55 313.4 943.709375 311.9771484375 942.1 311.55
M 865 356.05
Q 866.552734375 356.7220703125 868.1 356.1 881.7236328125 350.88125 895.7 344.3 897.189453125 343.609375 897.75 342.05 898.3232421875 340.4994140625 897.6 339 896.910546875 337.50703125 895.35 336.95 893.802734375 336.3779296875 892.3 337.05 878.5765625 343.5185546875 865.2 348.65 863.6650390625 349.2681640625 863 350.75 862.326171875 352.30078125 862.9 353.85 863.5166015625 355.3830078125 865 356.05
M 845.25 364
Q 846.8677734375 363.521875 847.65 362.05 848.42109375 360.5783203125 847.9 359 847.4240234375 357.423046875 845.95 356.65 844.4873046875 355.880859375 842.9 356.35 828.4650390625 360.863671875 814.4 363.7 812.7830078125 364.0642578125 811.85 365.45 810.9505859375 366.833984375 811.25 368.45 811.6123046875 370.063671875 813 370.95 814.3873046875 371.8974609375 816 371.55 830.4349609375 368.6361328125 845.25 364
M 762.3 369.15
Q 760.644921875 369.1517578125 759.45 370.3 758.3017578125 371.494921875 758.3 373.15 758.3017578125 374.805078125 759.45 375.95 760.644921875 377.1482421875 762.3 377.15 774.841015625 377.1462890625 786.9 375.95
L 786.95 375.95
Q 789.437109375 375.725390625 791.95 375.4 793.6201171875 375.2267578125 794.65 373.9 795.674609375 372.616796875 795.45 370.95 795.278125 369.330859375 793.95 368.3 792.6658203125 367.2767578125 791 367.45 788.5626953125 367.774609375 786.15 368 774.44609375 369.153515625 762.3 369.15
M 704.75 370.6
Q 705.7205078125 371.975 707.35 372.25 719.816015625 374.3162109375 728.15 375.2 733.1126953125 375.77578125 738 376.15 739.6673828125 376.3162109375 740.9 375.25 742.18984375 374.1724609375 742.3 372.5 742.4673828125 370.884765625 741.4 369.6 740.3203125 368.361328125 738.65 368.2 733.887109375 367.8240234375 729.05 367.25
L 729 367.25
Q 720.865625 366.38046875 708.65 364.35 707.021484375 364.0818359375 705.65 365.05 704.3240234375 366.01953125 704.05 367.65 703.780859375 369.27734375 704.75 370.6
M 687.65 361.85
Q 686.71484375 360.48203125 685.1 360.15 682.212109375 359.6248046875 679.15 359
L 679.15 359
Q 665.8294921875 356.459765625 655.25 354.8 653.641015625 354.545703125 652.3 355.5 650.9583984375 356.4990234375 650.7 358.1 650.44453125 359.7578125 651.4 361.1 652.4001953125 362.4404296875 654 362.7 664.4607421875 364.3384765625 677.6 366.85 680.687890625 367.4751953125 683.6 368 685.2287109375 368.333984375 686.6 367.4 687.9685546875 366.4673828125 688.25 364.85 688.584765625 363.223828125 687.65 361.85 Z"/>
</g>

<g id="Layer7_0_FILL">
<path fill="#000000" stroke="none" d="
M 1117.1 749.6
L 909 716.25 909 909.15 1117.1 949.6 1117.1 749.6
M 1252.2 683.6
L 1117.1 749.6 1117.1 949.6 1252.2 866.75 1252.2 683.6
M 1252.2 683.6
L 1059.6 649.6 909 716.25 1117.1 749.6 1252.2 683.6 Z"/>
</g>

<g id="Layer7_1_FILL">
<path fill="#000000" stroke="none" d="
M 1117.5 750
L 909.4 716.65 909.4 909.55 1117.5 950 1117.5 750
M 1252.6 684
L 1117.5 750 1117.5 950 1252.6 867.15 1252.6 684
M 1117.5 750
L 1252.6 684 1060 650 909.4 716.65 1117.5 750 Z"/>
</g>

<g id="Layer6_0_FILL">
<path fill="#FFFFFF" stroke="none" d="
M 274.1 176.95
L 268.1 176.95 268.1 228.95 274.1 228.95 274.1 207.95
Q 276.45 203.45 280.1 200.45 283.7 197.45 286.85 197.45 288.45 197.45 289.8 198.55 291.1 199.6 291.6 201.25 292.1 202.9 292.1 208.1
L 292.1 228.95 298.1 228.95 298.1 208.85
Q 298.1 202.85 297.8 200.95 297.5 199 296.7 197.3 295.7 195.1 293.2 193.55 290.65 191.95 287.6 191.95 283.95 191.95 280.3 194.3 276.65 196.65 274.1 200.8
L 274.1 176.95
M 235.6 195.95
L 226.6 195.95 226.6 200.95 235.6 200.95 235.6 215.45
Q 235.6 221.4 237.2 224.2 238.8 227.05 241.9 228.5 245.05 229.95 248.8 229.95
L 252.45 229.65
Q 254.35 229.25 258.6 227.5
L 258.6 222.2
Q 253.8 224.95 249.45 224.95 247.1 224.95 245.4 224.1 243.65 223.3 242.6 221.5 241.6 219.7 241.6 215.35
L 241.6 200.95 257.6 200.95 257.6 195.95 241.6 195.95 241.6 181.45 235.6 181.45 235.6 195.95
M 190.55 78.35
Q 186.2 85.75 186.2 96.65 186.2 104.1 188.2 110.6 190.2 117.05 193.65 120.15 197.05 123.25 202.95 123.9 205 128.5 207.5 131.2 210.05 133.85 212.85 135.15 215.7 136.45 221.95 136.45
L 223.45 136.45 223.45 131.45 222.85 131.45
Q 219.4 131.45 216.6 130.75 213.75 130 211.95 128.55 210.2 127.1 207.95 123.4 213.05 121.9 215.95 117.85 218.85 113.9 220.05 108.55 221.2 103.3 221.2 97.45 221.2 85.25 216.7 78.05 212.2 70.9 203.7 70.9 194.9 70.9 190.55 78.35
M 192.7 97.45
Q 192.7 86.6 195.85 81.25 199 75.9 203.7 75.9 208.4 75.9 211.55 81.25 214.7 86.6 214.7 97.45 214.7 108.25 211.55 113.6 208.4 118.95 203.7 118.95 199 118.95 195.85 113.6 192.7 108.25 192.7 97.45
M 277.2 73.45
Q 277.2 75.45 278.6 76.45 280 77.45 281.2 77.45 282.45 77.45 283.8 76.45 285.2 75.45 285.2 73.45 285.2 71.45 283.8 70.45 282.45 69.45 281.2 69.45 280 69.45 278.6 70.45 277.2 71.45 277.2 73.45
M 268.2 91.45
L 278.2 91.45 278.2 122.45 294.2 122.45 294.2 117.45 284.2 117.45 284.2 86.45 268.2 86.45 268.2 91.45
M 258.1 86.45
L 252.1 86.45 252.1 107.45
Q 249.75 112 246.1 114.95 242.5 117.95 239.3 117.95 237.8 117.95 236.45 116.85 235.1 115.8 234.6 114.15 234.1 112.5 234.1 107.3
L 234.1 86.45 228.1 86.45 228.1 106.55
Q 228.1 114.55 229.15 117.35 230.15 120.05 232.8 121.75 235.4 123.45 238.6 123.45 242.15 123.45 245.65 121.25 249.2 119 252.1 114.55
L 252.1 122.45 258.1 122.45 258.1 86.45
M 337.65 226.55
L 337.65 221.1
Q 330.6 224.95 324.8 224.95 321.55 224.95 319 223.4 316.45 221.85 314.9 218.75 313.35 215.65 313.35 211.9
L 338.15 211.9 338.15 210.6
Q 338.15 201.1 334.3 196.55 330.4 191.95 323.95 191.95 319.15 191.95 315.2 194.45 311.25 197 309.1 201.55 306.9 206.1 306.9 211.05 306.9 216.1 309.2 220.65 311.5 225.1 315.35 227.55 319.15 229.95 324.05 229.95 330.45 229.95 337.65 226.55
M 331.65 206.55
L 331.65 207.4 313.7 207.4
Q 314.75 202.25 317.45 199.6 320.05 196.95 323.7 196.95 327.3 196.95 329.5 199.55 331.65 202.15 331.65 206.55
M 433.6 195.95
L 424.6 195.95 424.6 200.95 433.6 200.95 433.6 215.45
Q 433.6 221.4 435.2 224.2 436.8 227.05 439.9 228.5 443.05 229.95 446.8 229.95
L 450.45 229.65
Q 452.35 229.25 456.6 227.5
L 456.6 222.2
Q 451.8 224.95 447.45 224.95 445.1 224.95 443.4 224.1 441.65 223.3 440.6 221.5 439.6 219.7 439.6 215.35
L 439.6 200.95 455.6 200.95 455.6 195.95 439.6 195.95 439.6 181.45 433.6 181.45 433.6 195.95
M 401.7 191.95
Q 394 191.95 389.35 197.35 384.7 202.7 384.7 210.95 384.7 219.15 389.35 224.55 394 229.95 401.7 229.95 409.4 229.95 414.05 224.55 418.65 219.15 418.65 210.95 418.65 202.7 414.05 197.35 409.4 191.95 401.7 191.95
M 412.15 210.95
Q 412.15 217.5 409.3 221.2 406.5 224.95 401.7 224.95 396.9 224.95 394.05 221.2 391.2 217.5 391.2 210.95 391.2 204.45 394.05 200.7 396.9 196.95 401.7 196.95 406.5 196.95 409.3 200.7 412.15 204.45 412.15 210.95
M 398 122.4
Q 399.55 123.95 401.7 123.95 403.85 123.95 405.4 122.4 406.95 120.85 406.95 118.7 406.95 116.5 405.4 115 403.8 113.45 401.7 113.45 399.55 113.45 398 115 396.45 116.5 396.45 118.7 396.45 120.85 398 122.4
M 380.15 86.45
L 372.2 86.45 354.9 103.1 372.4 122.45 380.65 122.45 363 102.95 380.15 86.45
M 354.9 70.45
L 348.9 70.45 348.9 122.45 354.9 122.45 354.9 103.1 354.9 70.45
M 338 87.55
Q 331.75 85.45 326.2 85.45 318.65 85.45 313.35 90.85 308 96.3 308 104.45 308 109.9 310.35 114.2 312.7 118.45 316.9 120.95 321.1 123.45 326.5 123.45 331.95 123.45 338 121.4
L 338 115.65
Q 332.85 117.4 330.95 117.7
L 327.1 117.95
Q 320.6 117.95 317.55 113.5 314.5 109.1 314.5 104.25 314.5 100.6 316.05 97.15 317.65 93.7 320.55 92.1 323.45 90.45 326.75 90.45 331.7 90.45 338 93.3
L 338 87.55
M 554.35 192.95
L 548.35 192.95 548.35 228.95 554.35 228.95 554.35 208.05
Q 557.4 202.75 560.65 200.1 563.85 197.45 567.2 197.45
L 569.6 197.7 569.6 205.95 575.35 205.95 575.35 192.95
Q 572.1 191.95 568.85 191.95 564.4 191.95 560.8 194.2 557.15 196.35 554.35 200.8
L 554.35 192.95
M 494.7 197.3
Q 493.7 195.1 491.2 193.55 488.65 191.95 485.6 191.95 481.95 191.95 478.3 194.3 474.65 196.65 472.1 200.8
L 472.1 176.95 466.1 176.95 466.1 228.95 472.1 228.95 472.1 207.95
Q 474.45 203.45 478.1 200.45 481.7 197.45 484.85 197.45 486.45 197.45 487.8 198.55 489.1 199.6 489.6 201.25 490.1 202.9 490.1 208.1
L 490.1 228.95 496.1 228.95 496.1 208.85
Q 496.1 202.85 495.8 200.95 495.5 199 494.7 197.3
M 521.95 191.95
Q 517.15 191.95 513.2 194.45 509.25 197 507.1 201.55 504.9 206.1 504.9 211.05 504.9 216.1 507.2 220.65 509.5 225.1 513.35 227.55 517.15 229.95 522.05 229.95 528.45 229.95 535.65 226.55
L 535.65 221.1
Q 528.6 224.95 522.8 224.95 519.55 224.95 517 223.4 514.45 221.85 512.9 218.75 511.35 215.65 511.35 211.9
L 536.15 211.9 536.15 210.6
Q 536.15 201.1 532.3 196.55 528.4 191.95 521.95 191.95
M 529.65 206.55
L 529.65 207.4 511.7 207.4
Q 512.75 202.25 515.45 199.6 518.05 196.95 521.7 196.95 525.3 196.95 527.5 199.55 529.65 202.15 529.65 206.55
M 492.8 122.45
L 499.7 122.45 484.15 72.45 477.55 72.45 462.15 122.45 468.4 122.45 471.8 111.45 489.4 111.45 492.8 122.45
M 479.25 87.5
L 480.5 82.4 487.95 106.45 473.35 106.45 479.25 87.5
M 550.85 94.55
L 550.85 86.45 544.85 86.45 544.85 136.45 550.85 136.45 550.85 122.45 557.55 122.95
Q 563.45 122.95 567.45 120.15 571.45 117.25 573.85 112.35 576.25 107.45 576.25 101.2 576.25 93.25 572.6 89.35 569 85.45 564.5 85.45 561.3 85.45 557.45 87.75 553.6 90.05 550.85 94.55
M 556.95 94.05
Q 560.3 91.2 563.1 91.2 565.65 91.2 567.7 93.9 569.7 96.6 569.7 102 569.7 109.45 566 113.7 562.3 117.95 556.85 117.95 554.1 117.95 550.85 117.15
L 550.85 101.65
Q 553.55 96.85 556.95 94.05
M 511.25 94.55
L 511.25 86.45 505.25 86.45 505.25 136.45 511.25 136.45 511.25 122.45 517.95 122.95
Q 523.85 122.95 527.85 120.15 531.85 117.25 534.25 112.35 536.65 107.45 536.65 101.2 536.65 93.25 533 89.35 529.4 85.45 524.9 85.45 521.7 85.45 517.85 87.75 514 90.05 511.25 94.55
M 517.35 94.05
Q 520.7 91.2 523.5 91.2 526.05 91.2 528.1 93.9 530.1 96.6 530.1 102 530.1 109.45 526.4 113.7 522.7 117.95 517.25 117.95 514.5 117.95 511.25 117.15
L 511.25 101.65
Q 513.95 96.85 517.35 94.05
M 593.95 86.45
L 587.95 86.45 587.95 122.45 593.95 122.45 593.95 101.55
Q 597 96.25 600.25 93.6 603.45 90.95 606.8 90.95
L 609.2 91.2 609.2 99.45 614.95 99.45 614.95 86.45
Q 611.7 85.45 608.45 85.45 604 85.45 600.4 87.7 596.75 89.85 593.95 94.3
L 593.95 86.45
M 651.2 228.95
L 658.1 228.95 642.55 178.95 635.95 178.95 620.55 228.95 626.8 228.95 630.2 217.95 647.8 217.95 651.2 228.95
M 637.65 194
L 638.9 188.9 646.35 212.95 631.75 212.95 637.65 194
M 802.1 191.95
Q 798.9 191.95 795.05 194.25 791.2 196.55 788.45 201.05
L 788.45 176.95 782.45 176.95 782.45 228.95 795.15 229.45
Q 801.05 229.45 805.05 226.65 809.05 223.75 811.45 218.85 813.85 213.95 813.85 207.7 813.85 199.75 810.2 195.85 806.6 191.95 802.1 191.95
M 788.45 208.15
Q 791.15 203.35 794.55 200.55 797.9 197.7 800.7 197.7 803.25 197.7 805.3 200.4 807.3 203.1 807.3 208.5 807.3 215.95 803.6 220.2 799.9 224.45 794.45 224.45 791.7 224.45 788.45 223.65
L 788.45 208.15
M 704.25 183.95
L 715.25 183.95 715.25 223.95 704.25 223.95 704.25 228.95 732.75 228.95 732.75 223.95 721.75 223.95 721.75 183.95 732.75 183.95 732.75 178.95 704.25 178.95 704.25 183.95
M 673.25 180.6
Q 668.3 183.8 665.6 190 662.9 196.2 662.9 203.95 662.9 211.8 665.65 218.05 668.45 224.3 673.35 227.35 678.2 230.45 684.45 230.45 688.9 230.45 694.15 228.9
L 694.15 204.2 682.65 204.2 682.65 209.2 687.65 209.2 687.65 225.3 685.05 225.45
Q 677.05 225.45 673.35 218.8 669.65 212.15 669.65 204 669.65 197.9 671.6 192.8 673.55 187.7 676.75 185.05 679.95 182.4 683.8 182.4 688.95 182.4 694.15 185.45
L 694.15 179.5
Q 688.5 177.4 684.1 177.4 678.2 177.4 673.25 180.6
M 651.65 118.05
Q 656.25 112.65 656.25 104.45 656.25 96.2 651.65 90.85 647 85.45 639.3 85.45 631.6 85.45 626.95 90.85 622.3 96.2 622.3 104.45 622.3 112.65 626.95 118.05 631.6 123.45 639.3 123.45 647 123.45 651.65 118.05
M 639.3 90.45
Q 644.1 90.45 646.9 94.2 649.75 97.95 649.75 104.45 649.75 111 646.9 114.7 644.1 118.45 639.3 118.45 634.5 118.45 631.65 114.7 628.8 111 628.8 104.45 628.8 97.95 631.65 94.2 634.5 90.45 639.3 90.45
M 711.2 87.95
Q 707.25 90.5 705.1 95.05 702.9 99.6 702.9 104.55 702.9 109.6 705.2 114.15 707.5 118.6 711.35 121.05 715.15 123.45 720.05 123.45 726.45 123.45 733.65 120.05
L 733.65 114.6
Q 726.6 118.45 720.8 118.45 717.55 118.45 715 116.9 712.45 115.35 710.9 112.25 709.35 109.15 709.35 105.4
L 734.15 105.4 734.15 104.1
Q 734.15 94.6 730.3 90.05 726.4 85.45 719.95 85.45 715.15 85.45 711.2 87.95
M 719.7 90.45
Q 723.3 90.45 725.5 93.05 727.65 95.65 727.65 100.05
L 727.65 100.9 709.7 100.9
Q 710.75 95.75 713.45 93.1 716.05 90.45 719.7 90.45
M 666.75 86.45
L 660.2 86.45 675.85 122.45 681.95 122.45 697.7 86.45 691.7 86.45 679.1 114.95 666.75 86.45
M 958.65 192.45
Q 952.75 192.45 948.75 195.3 944.75 198.15 942.35 203.05 939.95 207.95 939.95 214.2 939.95 222.15 943.6 226.05 947.15 229.95 951.65 229.95 954.95 229.95 958.75 227.65 962.65 225.35 965.35 220.85
L 965.35 228.95 971.35 228.95 971.35 176.95 965.35 176.95 965.35 192.95 958.65 192.45
M 965.35 213.75
Q 962.7 218.55 959.3 221.4 955.9 224.2 953.1 224.2 950.5 224.2 948.5 221.45 946.5 218.75 946.5 213.4 946.5 206 950.2 201.7 953.85 197.45 959.45 197.45 962.2 197.45 965.35 198.25
L 965.35 213.75
M 900.6 181.95
L 911.35 181.95 911.35 228.95 928.6 228.95 928.6 223.95 917.35 223.95 917.35 176.95 900.6 176.95 900.6 181.95
M 871.2 179.95
Q 871.2 181.95 872.6 182.95 874 183.95 875.2 183.95 876.45 183.95 877.8 182.95 879.2 181.95 879.2 179.95 879.2 177.95 877.8 176.95 876.45 175.95 875.2 175.95 874 175.95 872.6 176.95 871.2 177.95 871.2 179.95
M 862.2 192.95
L 862.2 197.95 872.2 197.95 872.2 228.95 888.2 228.95 888.2 223.95 878.2 223.95 878.2 192.95 862.2 192.95
M 828.1 192.95
L 822.1 192.95 822.1 213.05
Q 822.1 221.05 823.15 223.85 824.15 226.55 826.8 228.25 829.4 229.95 832.6 229.95 836.15 229.95 839.65 227.75 843.2 225.5 846.1 221.05
L 846.1 228.95 852.1 228.95 852.1 192.95 846.1 192.95 846.1 213.95
Q 843.75 218.5 840.1 221.45 836.5 224.45 833.3 224.45 831.8 224.45 830.45 223.35 829.1 222.3 828.6 220.65 828.1 219 828.1 213.8
L 828.1 192.95
M 862.2 86.45
L 862.2 91.45 872.2 91.45 872.2 122.45 888.2 122.45 888.2 117.45 878.2 117.45 878.2 86.45 862.2 86.45
M 879.2 73.45
Q 879.2 71.45 877.8 70.45 876.45 69.45 875.2 69.45 874 69.45 872.6 70.45 871.2 71.45 871.2 73.45 871.2 75.45 872.6 76.45 874 77.45 875.2 77.45 876.45 77.45 877.8 76.45 879.2 75.45 879.2 73.45
M 812 94.45
L 812 89.45 796 89.45 796 74.95 790 74.95 790 89.45 781 89.45 781 94.45 790 94.45 790 108.95
Q 790 114.9 791.6 117.7 793.2 120.55 796.3 122 799.45 123.45 803.2 123.45
L 806.85 123.15
Q 808.75 122.75 813 121
L 813 115.7
Q 808.2 118.45 803.85 118.45 801.5 118.45 799.8 117.6 798.05 116.8 797 115 796 113.2 796 108.85
L 796 94.45 812 94.45
M 828.5 70.45
L 822.5 70.45 822.5 122.45 828.5 122.45 828.5 101.45
Q 830.85 96.95 834.5 93.95 838.1 90.95 841.25 90.95 842.85 90.95 844.2 92.05 845.5 93.1 846 94.75 846.5 96.4 846.5 101.6
L 846.5 122.45 852.5 122.45 852.5 102.35
Q 852.5 96.35 852.2 94.45 851.9 92.5 851.1 90.8 850.1 88.6 847.6 87.05 845.05 85.45 842 85.45 838.35 85.45 834.7 87.8 831.05 90.15 828.5 94.3
L 828.5 70.45
M 906.55 88.3
Q 903.1 91.2 903.1 95.65 903.1 98.8 904.9 101 906.65 103.2 913.35 105.8
L 919.55 108.3
Q 923.25 109.8 924.2 110.85 925.1 111.9 925.1 113.35 925.1 115.5 923.15 117 921.15 118.45 916.6 118.45 913.8 118.45 909.75 117.5 905.7 116.55 902.1 114.2
L 902.1 120.55
Q 909.4 123.45 916.3 123.45 924.2 123.45 927.8 120.45 931.4 117.4 931.4 112.75 931.4 109.15 929.1 106.8 926.9 104.4 921.3 102.35
L 917.25 100.9
Q 913.05 99.4 911.25 98.2 909.35 97.05 909.35 95.1 909.35 93.1 911.5 91.8 913.65 90.45 917.45 90.45 922.7 90.45 928.65 92.6
L 928.65 87.15
Q 923.5 85.45 917.7 85.45 910 85.45 906.55 88.3
M 1154.1 230.45
Q 1156.25 230.45 1157.8 228.9 1159.35 227.35 1159.35 225.2 1159.35 223 1157.8 221.5 1156.2 219.95 1154.1 219.95 1151.95 219.95 1150.4 221.5 1148.85 223 1148.85 225.2 1148.85 227.35 1150.4 228.9 1151.95 230.45 1154.1 230.45
M 1106.8 195.95
L 1097.8 195.95 1097.8 200.95 1106.8 200.95 1106.8 215.45
Q 1106.8 221.4 1108.4 224.2 1110 227.05 1113.1 228.5 1116.25 229.95 1120 229.95
L 1123.65 229.65
Q 1125.55 229.25 1129.8 227.5
L 1129.8 222.2
Q 1125 224.95 1120.65 224.95 1118.3 224.95 1116.6 224.1 1114.85 223.3 1113.8 221.5 1112.8 219.7 1112.8 215.35
L 1112.8 200.95 1128.8 200.95 1128.8 195.95 1112.8 195.95 1112.8 181.45 1106.8 181.45 1106.8 195.95
M 1070.6 182.95
Q 1072 183.95 1073.2 183.95 1074.45 183.95 1075.8 182.95 1077.2 181.95 1077.2 179.95 1077.2 177.95 1075.8 176.95 1074.45 175.95 1073.2 175.95 1072 175.95 1070.6 176.95 1069.2 177.95 1069.2 179.95 1069.2 181.95 1070.6 182.95
M 1060.2 197.95
L 1070.2 197.95 1070.2 228.95 1086.2 228.95 1086.2 223.95 1076.2 223.95 1076.2 192.95 1060.2 192.95 1060.2 197.95
M 996.9 191.95
Q 989.2 191.95 985.75 194.8 982.3 197.7 982.3 202.15 982.3 205.3 984.1 207.5 985.85 209.7 992.55 212.3
L 998.75 214.8
Q 1002.45 216.3 1003.4 217.35 1004.3 218.4 1004.3 219.85 1004.3 222 1002.35 223.5 1000.35 224.95 995.8 224.95 993 224.95 988.95 224 984.9 223.05 981.3 220.7
L 981.3 227.05
Q 988.6 229.95 995.5 229.95 1003.4 229.95 1007 226.95 1010.6 223.9 1010.6 219.25 1010.6 215.65 1008.3 213.3 1006.1 210.9 1000.5 208.85
L 996.45 207.4
Q 992.25 205.9 990.45 204.7 988.55 203.55 988.55 201.6 988.55 199.6 990.7 198.3 992.85 196.95 996.65 196.95 1001.9 196.95 1007.85 199.1
L 1007.85 193.65
Q 1002.7 191.95 996.9 191.95
M 1028 87.95
Q 1024.05 90.5 1021.9 95.05 1019.7 99.6 1019.7 104.55 1019.7 109.6 1022 114.15 1024.3 118.6 1028.15 121.05 1031.95 123.45 1036.85 123.45 1043.25 123.45 1050.45 120.05
L 1050.45 114.6
Q 1043.4 118.45 1037.6 118.45 1034.35 118.45 1031.8 116.9 1029.25 115.35 1027.7 112.25 1026.15 109.15 1026.15 105.4
L 1050.95 105.4 1050.95 104.1
Q 1050.95 94.6 1047.1 90.05 1043.2 85.45 1036.75 85.45 1031.95 85.45 1028 87.95
M 1036.5 90.45
Q 1040.1 90.45 1042.3 93.05 1044.45 95.65 1044.45 100.05
L 1044.45 100.9 1026.5 100.9
Q 1027.55 95.75 1030.25 93.1 1032.85 90.45 1036.5 90.45
M 986.45 94.55
L 986.45 70.45 980.45 70.45 980.45 122.45 993.15 122.95
Q 999.05 122.95 1003.05 120.15 1007.05 117.25 1009.45 112.35 1011.85 107.45 1011.85 101.2 1011.85 93.25 1008.2 89.35 1004.6 85.45 1000.1 85.45 996.9 85.45 993.05 87.75 989.2 90.05 986.45 94.55
M 998.7 91.2
Q 1001.25 91.2 1003.3 93.9 1005.3 96.6 1005.3 102 1005.3 109.45 1001.6 113.7 997.9 117.95 992.45 117.95 989.7 117.95 986.45 117.15
L 986.45 101.65
Q 989.15 96.85 992.55 94.05 995.9 91.2 998.7 91.2
M 1114.5 85.45
Q 1106.8 85.45 1102.15 90.85 1097.5 96.2 1097.5 104.45 1097.5 112.65 1102.15 118.05 1106.8 123.45 1114.5 123.45 1122.2 123.45 1126.85 118.05 1131.45 112.65 1131.45 104.45 1131.45 96.2 1126.85 90.85 1122.2 85.45 1114.5 85.45
M 1114.5 90.45
Q 1119.3 90.45 1122.1 94.2 1124.95 97.95 1124.95 104.45 1124.95 111 1122.1 114.7 1119.3 118.45 1114.5 118.45 1109.7 118.45 1106.85 114.7 1104 111 1104 104.45 1104 97.95 1106.85 94.2 1109.7 90.45 1114.5 90.45
M 1084 69.45
Q 1078.45 69.45 1075.1 71.65 1071.7 73.8 1070.1 77.25 1068.45 80.6 1068.45 87.75
L 1068.45 89.4 1060.5 89.4 1060.5 94.4 1068.45 94.4 1068.45 122.45 1074.45 122.45 1074.45 94.4 1088.75 94.4 1088.75 89.4 1074.45 89.4 1074.45 87.1
Q 1074.45 81.35 1075.75 79 1076.95 76.55 1079.15 75.5 1081.35 74.45 1084.2 74.45 1087.8 74.45 1092.5 76
L 1092.5 70.3
Q 1088.15 69.45 1084 69.45
M 1186.4 87.95
Q 1182.45 90.5 1180.3 95.05 1178.1 99.6 1178.1 104.55 1178.1 109.6 1180.4 114.15 1182.7 118.6 1186.55 121.05 1190.35 123.45 1195.25 123.45 1201.65 123.45 1208.85 120.05
L 1208.85 114.6
Q 1201.8 118.45 1196 118.45 1192.75 118.45 1190.2 116.9 1187.65 115.35 1186.1 112.25 1184.55 109.15 1184.55 105.4
L 1209.35 105.4 1209.35 104.1
Q 1209.35 94.6 1205.5 90.05 1201.6 85.45 1195.15 85.45 1190.35 85.45 1186.4 87.95
M 1194.9 90.45
Q 1198.5 90.45 1200.7 93.05 1202.85 95.65 1202.85 100.05
L 1202.85 100.9 1184.9 100.9
Q 1185.95 95.75 1188.65 93.1 1191.25 90.45 1194.9 90.45
M 1148.35 86.45
L 1142.35 86.45 1142.35 122.45 1148.35 122.45 1148.35 101.55
Q 1151.4 96.25 1154.65 93.6 1157.85 90.95 1161.2 90.95
L 1163.6 91.2 1163.6 99.45 1169.35 99.45 1169.35 86.45
Q 1166.1 85.45 1162.85 85.45 1158.4 85.45 1154.8 87.7 1151.15 89.85 1148.35 94.3
L 1148.35 86.45 Z"/>
</g>

<g id="review_box_0_Layer3_0_FILL">
<path fill="#000000" stroke="none" d="
M 782.5 64.95
Q 782.5 38.05 763.45 19 744.4 0 717.55 0
L 64.95 0
Q 38.05 0 19.05 19 0 38.05 0 64.95
L 0 534.95
Q 0 561.8 19.05 580.85 38.05 599.9 64.95 599.9
L 717.55 599.9
Q 744.4 599.9 763.45 580.85 782.5 561.8 782.5 534.95
L 782.5 64.95
M 676.85 446.8
Q 697.55 446.8 712.2 461.45 726.85 476.1 726.85 496.8
L 726.85 501.2
Q 726.85 521.9 712.2 536.55 697.55 551.2 676.85 551.2
L 479.7 551.2
Q 459 551.2 444.35 536.55 429.7 521.9 429.7 501.2
L 429.7 496.8
Q 429.7 476.1 444.35 461.45 459 446.8 479.7 446.8
L 676.85 446.8
M 84.35 461.45
Q 99 446.8 119.7 446.8
L 316.85 446.8
Q 337.55 446.8 352.2 461.45 366.85 476.1 366.85 496.8
L 366.85 501.2
Q 366.85 521.9 352.2 536.55 337.55 551.2 316.85 551.2
L 119.7 551.2
Q 99 551.2 84.35 536.55 69.7 521.9 69.7 501.2
L 69.7 496.8
Q 69.7 476.1 84.35 461.45
M 119.7 446.8
Q 99 446.8 84.35 461.45 69.7 476.1 69.7 496.8
L 69.7 501.2
Q 69.7 521.9 84.35 536.55 99 551.2 119.7 551.2
L 316.85 551.2
Q 337.55 551.2 352.2 536.55 366.85 521.9 366.85 501.2
L 366.85 496.8
Q 366.85 476.1 352.2 461.45 337.55 446.8 316.85 446.8
L 119.7 446.8
M 712.2 461.45
Q 697.55 446.8 676.85 446.8
L 479.7 446.8
Q 459 446.8 444.35 461.45 429.7 476.1 429.7 496.8
L 429.7 501.2
Q 429.7 521.9 444.35 536.55 459 551.2 479.7 551.2
L 676.85 551.2
Q 697.55 551.2 712.2 536.55 726.85 521.9 726.85 501.2
L 726.85 496.8
Q 726.85 476.1 712.2 461.45 Z"/>
</g>

<g id="review_box_0_Layer2_0_FILL">
<path fill="#00A099" stroke="none" d="
M 686.05 92.3
Q 677.6 91 669.5 92.3 664 93.2 661.85 95.75 660.4 97.45 660.6 99.8 660.8 102.25 662.65 103.15 673.7 100.05 685 102.9 688.15 103.7 689.5 105.05 690.9 106.45 691.35 108.95 691.65 110.6 691.55 113.5
L 689.6 163.1
Q 689.25 171.85 688.45 176.5 687.2 183.8 684.1 188.8 684.5 182.8 681.45 172.8 678 161.3 677.6 156.75 677.55 156.3 677.55 146.55 677.55 140.4 676.1 136.65 674.2 131.7 668.85 129.7 663.3 127.6 660.2 131.35 658.9 132.9 658.45 135.45 658.15 137.05 658.1 140.15
L 657.75 183.65
Q 657.7 187.8 656.2 190.8 654.35 194.4 651.2 193.9
L 651.3 99.15
Q 651.3 94.1 651 91.6 650.55 87.4 649 84.4 647.25 80.85 643.8 78.95 640.15 76.85 636.7 77.95 633.4 79 631.1 82.75 629.5 85.3 628 90.05 623.7 103.7 622.7 111.65 621.1 123.85 624.9 132.9 625.4 134.05 627.6 138.45 629.3 141.8 629.95 144.05 631.6 149.5 630.15 155.15 627.9 163.9 618.95 168.4 610 172.9 601.6 169.5 609.25 159.3 614.9 147.85 617.1 143.35 617.8 140.2 618.8 135.8 617.6 132.35 616.4 128.85 612.95 126.4 609.8 124.15 605.75 123.45 602.35 122.85 598.05 123.25 595.55 123.5 590.35 124.4 590.35 121.25 592.85 117.75 594.3 115.75 597.65 111.95 600.3 108.75 601.05 105.2 601.85 101.05 599.3 98.75 597.85 97.45 595.5 97.05 594 96.8 591.1 96.85
L 558.45 97.85
Q 561.25 90.8 557.1 83.1 553.2 75.8 545.7 72.55 533.8 67.4 514.95 72.55 509.25 74.1 505.65 76.1 500.85 78.75 498.75 82.7 496.4 87.2 498.75 92.3 501.15 97.5 505.95 97.1 499.3 101.4 496.05 104.25 490.95 108.75 488.7 113.65 486.05 119.35 487.9 125.6 489.8 132.2 495.4 133.95 502.1 136.1 510.6 129.9 512.85 128.3 517.1 124.85 520.95 121.95 524.1 120.75 528.15 119.2 532.3 120.1 536.7 121.1 538.55 124.55 526.3 131.8 512.15 133.45 508.25 133.9 506.35 134.6 503.25 135.65 502.1 137.95 500.7 140.75 502.7 144.1 504.4 146.95 507.7 148.9 517.3 154.55 535.75 153.8 540.7 153.6 550.7 153.15 559.35 153 565.45 154.25
L 549.2 171.4
Q 547.85 168.1 544.35 166.15 541.15 164.25 537.25 164.15 531.6 164 523.1 167.9 517.95 170.35 514.85 172.9 510.8 176.3 509.6 180.45 508.95 182.75 508.95 188 508.95 192.95 508.05 195.4 507.35 197.35 505.4 200 502.7 203.6 502.25 204.35 500.65 206.9 500.4 209.5 500.1 212.45 501.75 214.3 503.3 216.05 506.2 216.4 508.2 216.65 511.45 216.2
L 543.15 212.1
Q 547 211.6 549.05 211.15 552.25 210.45 554.65 209.25 556.25 208.45 558.8 206.6 561.6 204.6 562.9 203.9 571.1 199.35 580.7 203.65 590.3 207.95 592.35 217.05 592.95 219.55 593.6 224.75 594.45 229.2 596.85 231.25 599.75 233.8 604.3 233.15 607.1 232.7 612.9 230.35 618.9 227.95 621.65 227.45 626.35 226.65 629.45 228.9 627.85 234.3 627.3 237.3 626.5 242 627.2 245.75 628.05 250.2 631.25 253.35 634.65 256.65 638.75 256.4 640.3 251.8 644.55 248.4 648.5 245.3 653.65 243.9 658 242.75 663.65 242.65 667.05 242.6 673.8 243.05 673.05 245.75 668.4 251.05 664.3 255.75 664.2 259.2 664.15 261.6 665.6 264.45 666.5 266.1 668.5 269.3 675 280.35 672.25 296.25 670.4 307.15 663 324 657.05 325.25 651.3 322.9
L 651.2 288.35
Q 651.15 285.3 650.9 283.8 650.55 281.35 649.4 279.7 647.75 277.3 644.6 276.5 641.6 275.7 638.65 276.65 633.8 278.2 629.45 284 626.2 288.85 624.6 291.3 621.65 295.65 618.95 297.85 615.35 300.8 610.8 301 605.9 301.25 603.35 297.95 601.7 294.2 600.8 288.3 599.9 281.6 599.25 278.3 598.15 272.7 595.85 268.7 593.05 263.9 588.85 261.95 582.6 259.05 575.7 262.9 569 266.65 566.75 273.6 563.05 274.05 560.1 270.55 557.55 267.5 556.75 263.05 556.1 257.65 555.6 255 554.75 250.35 552.6 247.75 550 244.6 545.05 243.45 541.6 242.65 535.8 242.65 530.1 242.6 526.75 243.2 521.85 244.1 518.75 246.65 514.75 249.95 513.2 256.35 512.2 260.65 512.15 268.15 512.05 281.35 518.5 284.1 521.5 285.4 528.2 283.95 534.9 282.55 537.9 283.95 541.1 285.4 542.55 289.4 543.75 292.75 543.6 297.1 543.5 299.65 543.1 304.8 543 309.2 544.25 312.15 545.85 315.8 549.65 318.15 553.2 320.35 557.5 320.6 564.7 321 573.2 316.2 575.3 315 579.45 312.4 583.1 310.25 585.95 309.3 589.7 308.15 593.25 308.7 597.2 309.35 599.45 312 601.2 314.1 601.9 317.6 602.1 318.65 602.7 323.95 603.5 331.95 606.95 341.45 609 347.2 614 358.15 614.4958984375 359.265625 614.95 360.15 616.35 359.95 619.6 360.6 623.388671875 361.3634765625 627.15 361.9 628.2869140625 361.8603515625 629.35 361.85 629.478515625 362.0498046875 629.6 362.2 633.9056640625 362.7328125 638.2 362.95 643.06953125 361.8068359375 645.55 360.95 650.15 359.35 653.2 357 656 354.85 656.75 354.45 658.9 353.25 660.65 353.85 662.5 354.5 663.6 357.25 664.2 358.8 665.3 362 666.75 364.95 670.35 366.45 673.45 367.75 677.35 367.7 681.2 367.6 683.5 366.25 687.5 363.85 688.65 356.6 689.15 352.8 689.5 350.95 690.1 347.75 691.25 345.65 691.8 344.6 692.6 344 693.55 343.3 694.45 343.55 695.7 349.55 695.15 358.7 694.85 363.75 694.2 373.95 694.15 378.35 694.45 387.15 694.45 394.85 692.85 400.05 692.45 401.4 691.8 401.9 690.5 402.95 688.7 401.8 687.3 400.95 686.6 399.05 686.1 397.75 685.75 395.45
L 684.15 385.3
Q 683.85 383.35 683.6 382.45 683.15 380.9 682.35 379.9 680.85 378 678.1 377.5 675.65 377.1 673 377.95 668.75 379.4 665.9 383.15 663.05 386.9 662.8 391.35
L 662.8 393.75
Q 662.8 395.15 662.65 396.1 662.1 399 659.95 399.8 659.3 397.65 659.55 394.55 660 390.95 660.15 389.15 660.75 382.05 656.95 379.35 654.5 377.7 650.7 378.15 645.3 378.75 641.05 382.65 636.85 386.6 635.9 391.9 635.75 392.6 635.45 394.05 635.15 395.25 634.55 395.95 633.2 397.4 629.55 397.4
L 626.65 397.4
Q 624.2423828125 398.6126953125 620.35 398.85 616.605859375 399.0013671875 615 397.55 614.5306640625 397.693359375 614.05 397.8 612.1 393.8 607 392.1 603.85 391.1 596.65 390.5 589.25 389.85 586.15 388.95 580.85 387.35 578.6 383.5 576.6 380.05 577.3 371.2 577.95 362.7 575.35 359.25 573.35 356.6 569.75 355.65 566.35 354.75 562.8 355.6 559.8 356.3 556.45 358.25 554.35 359.45 550.65 362.1
L 532.65 374.95
Q 527 378.95 523.8 380.6 518.65 383.25 514.05 383.45 508.6 383.7 504.25 380.15 499.7 376.4 500.3 371.4 500.75 367.25 505 363.7 506.9 362.1 513.25 358.25 521.45 353.25 527.6 346.3 532.95 340.3 533.25 335.15 533.45 331.85 531.4 329.05 529.3 326.15 526.2 326.1 523.7 326.05 520.85 328.05 517.7 330.6 516.1 331.75 511.1 335.4 504.7 334.65 498 333.85 495.45 328.7 494.3 326.3 494.15 322.9 494.1 321.5 494.35 316.8 495.1 300.05 487.5 290.55 483.05 284.95 476 283.05 468.65 281 462.85 284.4 457.75 287.35 455.85 293 455.15 295.2 455.35 297.35 454.65 297.3 453.85 297.3
L 441.7 297.25
Q 436.85 297.25 435.65 299.55 435 300.8 435.5 302.8 435.75 303.95 436.45 306.2 437.1 309.6 434.8 313.55 433.55 315.65 429.55 320.3 425.95 324.5 424.85 326.85 423.15 330.5 424.75 333.65 426.15 336.45 429.55 337.5 431.85 338.2 436.55 338.35 442.1 338.5 444 338.85 448.05 339.5 450.25 341.6 452.5 343.8 453.15 347.7 453.6 350.4 453.3 354.85 452.65 366.85 449.3 374.6 444.9 384.85 436.25 386.25 440.2 376.15 435.95 365.2 431.75 354.25 422.05 349.4 416.5 346.65 408.8 345.8 403.95 345.25 394.8 345.35
L 370.55 345.6
Q 362.95 345.7 362 349.7 361.15 353.25 366.6 356.95 372.75 361.05 374.9 362.9 379.3 366.55 381.25 370.55 383.55 375.3 381.9 380.55 380.2 386.05 375.45 387.1 366.5 377.15 350.6 375.85 336.9 374.75 321.85 380.05 318.6 381.25 316.75 382.25 314.1 383.7 312.55 385.6 310.7 387.85 310.5 390.7 310.3 393.75 312.15 395.65 312.8 396.35 314.3 397.55 315.5 398.7 315.5 399.85 315.55 401.95 312.8 402.3 310.5 402.55 307.85 401.6 301.3 399.25 292.2 399.25 288.2 399.25 275.9 400.3 265.7 401.15 259.9 400.6 251.4 399.85 245.2 396.2 240.2 392.7 237.7 391.05 233.2 388.1 229.55 387.8 226.65 387.6 223 388.8 218.75 390.45 216.65 391.25 204.25 395.85 190.6 393 177 390.15 167.45 380.9 173.5 376.05 183 373.95 188.5 372.75 200.75 371.75 212.65 370.75 218.4 369.35 227.7 367.1 233.6 362 240.15 373.35 254.4 379.7 266.15 384.95 282.2 386.5 285.15 386.8 286.95 386.6 289.55 386.3 291.2 385 294.35 382.5 293.9 375.6 293.35 367.15 294.45 364.55 313.5 356.7 330.25 345.1 336.65 340.65 335.25 336.55 334.15 333.35 327.75 333.1 320.4 332.75 318.4 330.8
L 327.3 309.65
Q 328.25 313.85 332.2 316.75 335.9 319.45 340.6 319.9 344.55 320.3 349.4 319.25 352.4 318.6 358.05 316.75
L 382.55 308.7
Q 388.7 306.65 392.2 303.85 396.9 300.1 396.45 295.45 396.05 290.95 391.15 288.4 386.8 286.15 381.45 286.45 374.95 287.25 371.7 287.5 365.95 287.95 362.25 286.45 361.6 283.45 362.1 280.35 362.55 277.25 364.05 274.6 367.1 278.2 371.95 279.45 376.5 280.65 381.4 279.55 392.45 277.1 394.95 267.7 399.45 266.7 403.15 261.75 404.4 260 408.7 252.25 411.65 246.95 416.1 244.1 421.25 240.85 425.6 243.15 422 248.8 423.45 256.2 424.85 263.25 430.05 268.05 434.9 272.5 442 274.35 448.5 276 455.75 275.3 466.05 274.3 474.45 268.75 483.4 262.9 486.8 253.95 490.4 244.45 486 234.55 481.5 224.4 472.05 222.1 478.05 209.85 480.35 196.15 482.6 182.5 480.95 168.9 479.8 160.05 475.25 157.8 471.35 155.9 464.6 159.3 456.45 163.4 453.35 163.45 457.05 158.85 457.3 152.6 457.55 146.3 454.3 141.4 451.05 136.45 445.15 134.25 439.3 132.05 433.6 133.6 434.85 128.2 439.65 122.15 442.4 118.7 448.35 112 453.1 106.25 454.7 100.15 456.6 92.95 453.2 87.9 449.25 81.85 438.35 80.4 426.15 78.75 414 82.6 401.9 86.45 392.85 94.85 386.6 100.65 384.6 108.3 382.35 116.8 387.55 121.8 391 125.05 401.75 126.7 411.85 128.2 415.05 132.4 414.6 135.75 412 139.4 410.9 140.95 406.8 145.6 400.05 153.3 401.1 158.7 402.1 163.7 409.25 167.65 411.2 168.75 415.3 170.85 418.85 172.85 420.8 174.7 424.2 177.95 425.2 182.8 426.25 187.65 424.45 191.95 422.65 196.3 418.5 199 414.4 201.7 409.7 201.6 411.85 197.5 407.95 193.55 404.15 189.7 399.15 189.95 395.35 190.15 390.05 192.55 382.25 196 381.2 196.35 387.8 191.9 391.35 188.15 396.25 182.9 397.15 177.2 398.1 170.95 394.4 164.15 391.6 158.95 385.8 153 380.55 147.7 376.2 145.05 370.35 141.45 364.75 141.55 358.4 141.65 354.25 147.4 352.05 150.4 351.85 153.25 349.6 142.6 353.1 128.8 354.6 122.95 357.8 113.85 362.3 101.3 363 99.1 365.55 91.2 365.1 84.8 364.55 76.85 359.3 73.2 357.05 71.55 353.6 70.8 351.6 70.35 347.3 69.95
L 311.7 66.85
Q 306.55 66.35 303.65 66.5 299.2 66.65 295.9 68.05 281.6 74.25 283.9 103.25 284.25 108 285 110.65 286.15 114.65 288.65 116.8 292.25 119.9 301.95 119.6 311.9 119.3 315.55 122.05 303.5 123.8 294.75 133.45 286.05 143.1 285.5 155.25 285.3 161.55 288.35 163.95 290.3 165.5 294.4 165.6 299.85 165.7 301.05 166 306.25 167.3 307.65 173.4 309.1 179.5 304.95 182.9 296.65 179.35 287.8 184.35 278.95 189.35 277.7 198.3 276.5 207.25 283.7 214.4 290.95 221.55 299.9 220.3 297.5 226.65 298.2 233.7 298.9 240.65 302.5 246.45 303.05 247.3 306.4 252 308.8 255.3 309.75 257.75 311.05 261.1 310.45 264.45 309.75 268.15 307 269.75 304.7 271.05 300.15 270.6 294.65 270.05 292.85 270.4 286.7 271.65 283.35 281.55 282.45 284.25 280.65 289.9 278.9 294.65 276.7 297.35 275.5 298.8 271.65 301.95 268.3 304.7 267 306.8 264.6 310.65 265.1 316.75 265.1 317.2 266.8 327.45 267.75 333.35 266.05 338.25 264.05 343.95 259.3 345 249.05 348.95 237.8 346.45 226.55 343.9 218.95 336 215.8 332.35 214.1 330.6 211.2 327.55 208.5 326.25 204.15 324.25 197.65 325.05 194.85 325.35 192.9 326.35 190.5 327.6 189.9 329.75 189 333.1 194.8 339.4 197.45 342.25 198.15 343.75 199.25 346.1 197.75 348
L 169.5 337.5
Q 168.9 325 177.5 314.55 186.05 304.1 198.45 302.2 210.7 320.4 225.75 323.85 234.75 325.9 243.3 321.7 252.2 317.3 254.25 308.9 255.35 304.5 254 293.65 252.75 283.85 254.9 278.85 256.4 275.35 260.1 271.85 261.4 270.55 267.05 266 275.95 258.75 276.5 252.45 277.1 245.6 270.45 240 265.3 235.6 256.6 232.6 246.3 229 239.05 228.3 229.2 227.3 222.1 231.05 213.15 235.8 208.6 247.75 205.5 256.05 203.9 270.4 200.15 261.7 192.55 256 184.6 250.1 175.6 249.85 166.25 249.55 158.5 255.85 150.65 262.25 149.9 271.3 135.9 259.6 116.1 260.55 96.35 261.55 83.5 274.55 82.6 249.95 83.2 225.25 88.1 228.75 94.25 229.9 100.4 231.05 106.25 229.55
L 120.75 199.5
Q 121.8 209.8 124.2 217.2 127.25 226.5 132.8 232.65 139.05 239.6 148.3 241.5 158 243.55 165.05 238.45 169.05 235.6 172.3 230 173.8 227.5 177.45 219.5 180.5 212.9 182.9 209.6 186.45 204.8 191.15 202.9 189.4 208.55 189.65 214.5 189.9 220.5 192.05 225.9
L 211.15 214.2
Q 215.4 211.55 217.4 209.95 220.6 207.3 222.15 204.35 224.65 199.5 223.6 189.45 222.5 178.5 224 174.05 227.25 183.45 236.05 189.35 244.85 195.3 254.8 194.75 255.95 192.15 254.4 189.4 252.8 186.6 250 186.3 256.7 162.7 271.7 142.9 274 139.95 274.8 137.85 276.05 134.8 274.9 132.5 273.5 129.75 270.1 129.75 267.9 129.7 263.1 131.2 257.8 132.8 255.6 133 251.6 133.4 249.35 131.3 258.15 126.6 262.15 116.35 266.05 106.4 263.7 96.25 261.5 86.65 254.45 78.5 247.85 70.9 238.4 65.95 227.8 60.4 219.5 62 210.45 63.75 206.25 73.35 202.05 82.9 206.9 90.75 203.55 91.9 191.95 92.05 182.6 92.15 178.45 95.85 176.25 97.8 174.75 101.2 173.8 103.35 172.6 107.5
L 167.65 124.95
Q 166.9 127.55 166.7 129.1 166.5 131.45 167.25 133.15 168.55 136.05 172.15 137 174.4 137.55 179.55 137.65 184.85 137.7 187.05 138.2 190.85 139.1 192.35 141.85 195.1 146.75 189.05 154.4 174.4 173.15 153.55 184.8 152.25 180.55 151 170.8 149.8 161.6 148.1 156.9 145.55 149.65 139.45 145.4 132.9 140.75 126.55 143.15 119.4 145.9 115.5 157.95 112.9 165.8 112.35 167.1 110.25 172.15 107.25 174.95 103.55 178.3 98.3 178.05 92.75 177.8 90.95 173.55 89.75 170.7 90.95 167.35 92.05 164.3 94.65 161.9 96.55 160.2 99.95 158.2 104.8 155.4 105.55 154.9 111.15 151.25 115 145.55 118.85 139.9 120.2 133.3 123 129.8 128.9 126.1 137.65 120.7 138.6 119.95 143.6 116.2 145.8 110.85 148.25 104.9 145.4 100.35 141.9 94.75 130.7 94.9 124.45 95.15 121.35 95.05 116 94.9 112.55 93.45 117.45 92.05 119.05 86.4 120.65 80.85 117.8 76.4 115.1 72.2 109.85 70.25 105 68.45 99.55 69.1 92.2 69.9 88.95 74.3 87.1 76.8 87.3 80.1 87.55 83.45 89.95 85.15 94.1 82.1 99.3 80.95 104.5 79.8 109.6 80.75 105.85 82.55 103.8 86.45 101.7 90.3 102.3 94.4 102.9 98.55 106 101.7 109.05 104.85 113.15 105.5 115.85 105.9 119.85 105.3 122.05 104.9 126.55 104.15 130.25 103.75 133.35 104.85 136.9 106.1 138.2 109
L 98.4 132.65
Q 96.6 133.75 95.75 134.55 94.45 135.8 94.25 137.2 93.85 140.35 97.7 141.55 101.05 142.6 104.95 141.75 102.9 145.15 98.8 148.35 97.05 149.7 91.05 153.65 81.05 160.2 79.15 166.4 77.15 172.9 81.55 179.3 85.85 185.5 92.8 186.9 99.3 188.25 106.2 185.35 112.6 182.7 117.4 177.2 121.55 172.4 124.6 165.5 126.95 160.15 129.05 152.35 135.9 154.75 139.65 162.7 142.8 169.4 143.1 178.3 143.2 180.95 143.25 186.2 143.5 190.75 144.4 193.95 145.6 198 148.25 200.85 151.2 204 154.9 204.55 156.6 195.1 167.7 186.8 170.45 184.75 177.65 180.05 184.2 175.8 187.45 173.15 194.3 167.65 198.1 160.5 202.25 152.65 201.5 144.85 200.75 136.45 193.9 130.6 186.85 124.55 179 126.4 182.35 115.8 183.6 104.15 194.7 100.85 206.5 102 205.55 107.3 209.3 112 213.1 116.65 218.5 116.85 223.9 117 227.95 112.6 232.05 108.15 231.4 102.75 230.8 97.4 225.85 94.05 220.85 90.65 215.6 92.05 214.15 82.05 217.45 72.45 226.8 69 236.85 76.1 245.3 82.1 251.4 93 258.1 105.2 254.2 112.2 252.65 115 246.95 119.1 241.5 123 240.05 126.15 238.45 129.7 239.8 133.85 241.1 137.85 244.45 140.2 247.6 142.4 251.85 142.8 255.8 143.15 259.75 141.85
L 240.15 180 225 160.75
Q 221.55 156.25 218.45 156.7 216.1 157.05 214.95 159.95 214.1 162.1 214.05 165.4
L 213.7 199.6
Q 205.75 202.95 199.65 208.85 199 205.9 200.7 202.25 201.1 201.4 204.3 196.05 206.3 192.6 206.5 189.2 206.7 185.2 204.05 183.35 201.45 181.5 197.7 183 194.7 184.2 191.65 187.1 178.2 199.9 168.7 215.85 164.1 223.65 160.95 227 155.75 232.45 149.95 232.35 145.15 232.3 141.05 228.4 137.45 224.95 135.6 219.75 134.35 216.15 133.45 209.85 132.35 202.3 131.75 199.8 130 192.6 125.9 190.35 121.35 187.8 116 191.2 111.2 194.25 108.75 199.8 107.25 203.2 104.95 210.35 102.65 216.55 99.45 219.65
L 89.95 219.45
Q 91.7 215.5 86.9 213.05 82.1 210.6 78.6 213.4 75.5 215.85 74.3 220.7 73.5 224 73.45 229.6
L 72.85 266.25
Q 72.75 270.95 73.05 273.5 73.55 277.5 75.15 280.3 77.05 283.6 80.6 285 84.35 286.45 87.3 284.65 85.75 288.05 88.3 291.65 90.8 295.1 94.75 295.8 98.15 296.35 102.35 295.15 105.05 294.4 109.6 292.25 115.15 289.65 118.2 286.5 122.2 282.4 121.1 278.05 120.4 275.05 117.35 273.15 114.5 271.4 111.05 271.45 109.85 271.45 108.55 271.75 109.05 271.55 109.5 271.4 115.55 269.5 120.6 269.35 126.6 269.25 131.75 271.7 137.3 274.4 139.75 279.25 140.65 281 142.1 284.75 143.6 287.85 145.8 288.9 148.65 290.25 151.9 288.3 154.9 286.45 156.3 283.15 157.2 281.05 158.05 276.7 158.9 272.25 159.75 270.25 163.05 262.25 172.8 260.55 182.55 258.9 188.35 265.35 190.1 267.3 192.3 271.4 194.75 275.95 196 277.6 198.4 280.75 201.75 282.15 205.5 283.7 208.5 282 217.55 264.35 219.9 244.75 230.5 237.45 244.35 238.95 258.15 240.5 266.95 249.9
L 251.7 267.65
Q 247 264.4 240.85 265.1 234.7 265.8 230.85 270.05 227 274.3 226.9 280.5 226.85 286.7 230.55 291.05
L 243.25 292.05
Q 247.45 298.3 243.85 306.15 240.2 314 232.7 314.85 226.6 315.5 220.45 311.25 215.45 307.8 211 301.5 207.95 297.2 206.8 295.9 204.15 292.95 201.25 292.05 198.3 291.1 194.6 292 191.9 292.65 188.1 294.5 175.85 300.5 168.65 309.05 160.05 319.25 162 330 157.8 329.55 153.75 323.55 148.8 316.25 146.4 314.7 141.5 311.55 134.6 314.05 129.25 316 123.3 321.05 113.5 329.45 115.45 336.35 116.95 341.6 124.65 344.55 133.3 347.85 153.55 348.05 172.85 348.15 182 352.4 185.3 353.95 192.1 357.2 198 359.35 202.1 357.3 206.75 354.95 207.7 348.35 208.45 343.35 207 336.3 209.5 343.25 215 348.55 220.55 353.85 227.6 356
L 165.1 368.75
Q 159.7 369.85 156.8 370.05 152.15 370.35 148.7 369.1 146.4 368.3 142.7 365.8 138.7 363.2 136.75 362.35 133.35 360.95 129.85 361.7 126.05 362.5 124.9 365.5 120.05 362.2 115.65 355.2 111 346.9 108.5 342.9 104.25 336.2 98.45 332.6 91.75 328.4 85.5 330.35 81.1 331.75 77.5 336.3 75.1 339.35 72.1 345.3 56.8 375.4 69 388.8 71.15 391.15 74.75 393.45 76.9 394.8 81.25 397.2 84.2 398.9 90.1 402.45 95.3 405.3 99.5 406.35 108.7 408.6 118.9 404.4 127.9 400.75 135.65 393 140.2 388.45 141.65 387.3 145.25 384.4 148.75 383.9 154.25 383.05 160.65 387.8 164.3 390.5 171.4 396.5 176.9 400.3 185.1 402.1 190.3 403.25 200.15 404.1 207 404.7 210.75 404.45 216.6 404.15 220.75 401.95 222.15 401.25 224.85 399.6 227.3 398.4 229.25 398.55 230.95 398.7 232.8 399.9 233.2 400.15 236 402.3 245.85 409.8 264 410.4 267.4 410.55 279.6 410.4 289.3 410.3 295.05 410.85 299 411.25 306.95 412.1 313.75 412.4 318.35 410.35 323.95 407.9 325.65 401.4 327.4 394.65 322.55 391.65 330.15 386.2 339.9 385.4 349.6 384.55 358 388.6 360.65 389.9 365.8 392.95 370.4 395.45 374 395.9 381 396.75 386.8 391.35 392.5 386.05 393 378.8 393.45 371.85 389.45 365.3 385.6 359.1 379.15 355.45 388.6 354 393.3 353.7 401.2 353.2 407.35 354.55 414.7 356.2 420.15 360.75 426.05 365.7 427.5 372.35 428.45 376.6 428.7 386 429.55 393.85 434.25 396.25 438.85 398.6 444.4 395.15 448.9 392.35 452.6 386.75 466.6 365.7 463.35 348.85 461.35 338.55 452.5 332.1 443.3 325.35 434 328.5
L 456.35 307.1 462.85 307.7
Q 465.1 306.9 465.2 304 465.2 303 465 302.15 465.55 301.6 466.05 300.9 468.7 297.3 468.3 292.95 471.95 291.15 476.2 293.2 480.2 295.2 482.15 299.15 483.8 302.5 484.15 307.25 484.35 310.05 484.05 315.75 483.7 322.25 484.2 326.05 484.85 331.7 487.45 335.45 491.4 341.2 499.95 343.35 505.85 344.8 515.85 344.75 513.25 347.1 505.85 350.15 498.95 352.95 496.3 355.95 493.1 359.55 492.45 365.5 492 369.5 492.7 376.4 493.15 380.6 493.7 382.65 494.55 386.05 496.35 388.15 498.95 391.15 503.75 392.25 507 393 512.65 393.05 517.35 393.05 519.45 392.9 523.25 392.6 526.05 391.55 529.75 390.25 533.85 387 534.3 386.6 540.7 380.9 552.4 370.55 566.8 364.6 568.15 368 567.35 376.3 566.55 384.1 568.6 387.65 570.05 390.2 573.2 392.1 575.15 393.3 579.15 394.95
L 603.15 404.65
Q 606.35 405.95 608.1 406.5 610.9 407.35 613.25 407.4 616.25 407.45 619.9 406.2 620.26171875 406.0759765625 620.75 405.9 621.7708984375 406 623.15 406
L 629.15 406
Q 633.55 405.95 635.95 405.4 639.65 404.55 641.55 402.25 642.8 400.75 643.6 398.05 644.4 394.9 644.85 393.4 645.65 390.8 647.2 389.15 649.05 387.2 651.25 387.3 651.75 389.3 651.55 392.15 651.45 393.8 651.1 397.1 650.5 403.4 653.4 406.35 655.75 408.7 660.4 408.9 664.3 409 666.6 407.2 668.6 405.65 669.95 401.6 671.35 397.2 671.8 392.95 672 390.35 672.5 389.2 673.55 387 675.4 386.95
L 677.15 397.3
Q 677.7 400.4 678.15 401.8 678.85 404.3 680.1 405.9 681.7 408 684.6 409.45 686.75 410.55 690.15 411.5 692.1 412.1 693.3 412.2 695.1 412.35 696.4 411.75 698.45 410.8 700 407.35 702.4 401.85 702.8 393.85 702.85 384.4 702.85 379.7 702.85 375.15 703.5 362.95 704.1 352.4 703.85 346.2 703.65 341.6 702.35 339.5 700.9 337.15 697.8 335.7 694.25 333.9 691.05 334.45 686.65 335.3 683.5 340.85 681.05 345.15 680.5 350.3 680.35 351.7 680.1 354.55 679.7 356.95 678.6 358.35 677.45 359.25 675.85 358.75 674.3 358.3 673.35 357 672.7 356.05 672.05 354.3 671.2 352.1 670.9 351.5 669.8 349.15 667.65 347.45 665.6 345.8 663 345.1 657.8 343.7 652.8 346.45 651.55 347.15 649.15 348.9 646.85 350.65 645.5 351.35 643.45 352.45 640 353.25 639.846484375 353.285546875 639.7 353.3 636.969921875 352.4458984375 633.85 351.9 629.35 351.1 622.7 350.85 613.8 337.85 611.25 322.05 625.85 305.1 640.3 286.35 642.45 291.1 642.25 298.1 642.15 302.2 641.2 310.4 639.8 326.75 648.1 332.6 653 336.1 659.8 334.7 666.2 333.4 670.7 328.65 674.6 324.5 677.1 318.1 678.95 313.3 680.45 306 686.95 274.35 674.05 259 677.2 256.05 678.75 254.25 681.2 251.4 682.4 248.7 683.85 245.5 683.6 242.15 683.35 238.5 681.2 236.15 678 232.7 670.1 232.3 660.6 231.8 652.75 233.75 643.7 236 637.6 241.4 635.35 238.45 639.6 231.35 641.8 227.8 642.35 226.05 643.3 223.2 641.9 221.15 640.15 218.55 634.35 218.45 618.25 218.05 602.7 220.9 603.25 211.05 596.6 202.7 589.9 194.4 580.2 192.8 573.45 191.7 564.55 193.9 554.3 197.15 549.2 198.7 532.5 203.9 514.9 204.35 515.7 202.05 517.65 193.5 519.2 186.75 521.2 183 523.95 177.75 529.25 175.2 534.95 172.5 539.55 175.2 538.5 179.65 539.35 183.3 540.4 187.7 543.9 187.95 545.65 188.05 547.5 186.8 548.8 185.9 550.5 184.05
L 575.35 157.1
Q 580.8 151.1 578.5 147.4 577.5 145.8 575.25 145.2 573.65 144.75 571 144.7
L 517.85 143.65
Q 521.2 141.75 527.1 140.25 535.05 138.15 536.75 137.55 541.95 135.7 545.35 132.25 549.25 128.3 549.3 123.65 549.3 119.6 546.3 116.15 543.5 112.9 539.3 111.55 532.75 109.45 522.75 112.15 508.4 116.15 496.85 125.2 497.4 118.8 501.35 113.35 505.3 107.95 511.25 105.5 512.7 104.9 515.6 103.75 518 102.6 519.1 100.95 520.4 98.95 519.9 96.2 519.4 93.65 517.65 91.7 516.15 90.05 513.7 88.7 512.1 87.8 509.1 86.55 510.75 86.1 520.5 82.45 527.35 79.85 532.05 79.55 538.4 79.15 543.6 83 549.1 87.05 548.4 92.8 548.2 94.4 547.25 97.55 546.55 100.4 547.3 102.15 548.2 104.15 550.65 105.2 552.45 105.9 555.45 106.3 571.25 108.15 587.5 107.85 587.55 111.25 582.8 117.05 578.15 122.65 578.5 126.2 578.9 130.05 583.05 132.25 586.75 134.2 591.35 134 594.15 133.9 599.75 133.2 604.6 132.85 607.8 134.15 607.35 140.35 605.05 146.25 602.7 152.1 598.8 156.95 596.35 159.8 595.15 161.25 593.1 163.8 592.05 165.9 590.75 168.6 590.85 171.4 590.95 174.45 592.8 176.4 594.35 178.05 597.15 178.65 598.95 179.05 602.3 179.15
L 616.95 179.5
Q 619.95 179.6 621.6 179.45 624.2 179.2 626.05 178.3 628.75 177.05 630.95 173.95 632.4 172 634.3 168.05 638.7 158.95 640.05 153.2 642.1 144.6 639.3 138.15 638.5 136.3 636.3 132.9 634.05 129.5 633.25 127.6 629.8 119.75 633.65 107.7 639.15 94 640.7 87.15 642.4 138.35 641.6 186.65 641.5 193.9 643.35 198.8 645.7 205.15 651 206 655 206.65 658.8 203.45 662.1 200.7 664.05 196.25 668.4 186.4 667.6 168.75 667 159.15 666.85 154.4 666.8 151.45 666.85 148.85 666.95 154.85 668.5 162.4 669.25 166.1 670.95 173.6 672.35 180.2 672.8 184.8 673.2 189.2 673.65 191 674.5 194.35 676.65 196.05 678.95 197.9 683.35 197.75 685.85 197.7 690.85 197.4 696.05 190.25 697.95 180.3 699.35 172.8 699.25 161.2 698.85 147.9 698.9 141.3 698.95 129.8 700.9 121.85 702.7 115.55 703.25 112.4 704.2 106.9 702.7 103.1 701 98.55 696.05 95.7 691.85 93.25 686.05 92.3
M 406.1 96.75
Q 411.55 92.95 416.9 93.55 418.85 93.75 418.95 93.75 420.1 93.8 420.85 93.35 421.4 93.05 422.1 92.15 422.85 91.15 423.25 90.85 424.25 90 426.45 89.8 432.05 89.2 437.15 90.3 442.7 91.5 446.85 94.5 436.9 113 424.45 129.6 423.85 126 419 122.7 413.6 119.05 407.25 117.15 400.9 115.3 394.35 115.5 392.15 111.5 397.4 105.2 401.95 99.6 406.1 96.75
M 327.85 81.95
Q 331.8 82.55 341.15 80.45 349.7 78.55 354.2 80 356.9 87.25 354.55 96.65 352.9 103.2 347.95 112.95 342.65 123.45 340.9 129.05 338 138.35 339.85 145.75
L 341.45 150.8
Q 342.35 153.85 342.4 155.95 342.55 162.3 335.75 168.45 327.1 175.1 323.45 178.7 321.6 180.5 320.8 182.3 319.8 184.55 320.55 186.45 321.55 189.05 326.4 190.5 337.95 193.9 349.9 193.9 358.6 172.65 364.6 150.3 368.55 151 372.55 154.05 375.15 156.05 379.15 160.25 390.4 172.05 386.5 179.8 384.8 183.2 380.15 185.45 374.4 187.65 371.65 188.8 367.1 190.7 364.55 194.6 361.7 198.9 364 202.35 366.25 205.8 373.1 206 387.15 206.6 400.05 200.7 399.5 204.45 402.1 207.8 404.65 211 408.5 212 412.05 212.9 416.05 211.85 419.7 210.9 423.05 208.55 430 203.7 433.15 195.25 436.25 186.8 434.1 178.6 431.95 170.4 425.15 164.55 418.3 158.7 409.85 157.85
L 421.65 142.4 440.25 144.2
Q 443.85 144.5 445.35 145.75 447.3 147.45 447.1 150.75 447 152.7 445.8 156.65 444.3 161.4 444.95 165.6 445.65 170.5 449.15 172.6 453 174.9 459.5 172.6 461.35 171.95 465.05 170.4 468.35 169.15 470.6 168.75 472.3 185.5 471 195.45 469.05 210.15 460.6 218.25 458.7 220.1 458.1 220.95 456.9 222.6 457.1 224.1 457.35 226.15 459.8 227.4 460.95 228.05 464.4 229 469.05 230.3 472.75 233.65 476.45 236.95 478.25 241.4 479.55 244.65 479.5 247.85 479.45 251.35 477.75 253.95 475.55 257.25 469.8 259.6 458.35 264.4 446.1 264.55 440.3 264.65 437.5 262.55 433.7 259.7 433.95 253.25 434.05 251.4 435.9 241.85 436.7 237.35 435.1 235.1 433.3 232.5 428.1 232.2 418.45 231.75 409.7 237.05 400.95 242.3 396.8 251.1 396.8 244.4 394.2 238.7 391.35 232.55 386.15 229.4 380.6 226.05 373.9 227.65 367 229.25 364.5 234.95 362.85 238.75 363.95 243.1 365.05 247.45 368.3 250.15 371.55 252.85 375.95 253.3 380.35 253.75 384.15 251.9 386.9 259.8 384.3 265.3 382.8 268.5 379.5 270.1 376.05 271.75 373 270.45 371.05 269.6 366.3 264.45 362.55 260.35 359.35 260.95 354.55 261.9 353.65 270.95
L 352.3 285.7
Q 352.05 288.85 352.35 290.65 352.8 293.3 354.5 294.65 355.55 295.5 357.25 295.8 358.35 296 360.35 296.05
L 386.2 296.6 348.3 309.25
Q 345.6 310.2 343.8 310.4 341.2 310.65 339.5 309.55 337.6 308.35 336.1 304.5 334.5 300.25 333.15 298.95 331 296.85 327.5 297.2 324.25 297.55 321.8 299.75 319.75 301.6 318.2 304.75 317.25 306.7 315.9 310.65
L 309.9 328.05
Q 309.05 330.6 308.75 331.85 308.25 334.05 308.5 335.8 308.8 337.85 310.1 339.4 311.5 341.1 313.4 341.2 311.55 346.05 306.95 349.1 302.4 352.15 297.2 352.05 293.8 351.75 292.1 351.7 289.1 351.65 287.3 352.65 284.8 354.15 283.95 357.6 283.3 360.5 283.9 364.05 284.95 370.35 284.95 370.4 285.3 374.05 284.25 376.55 272.35 377.1 261.2 371.95 250 366.8 242.7 357.4 252.55 360.4 262.75 354 272.25 348.1 277 337.7 280.6 329.85 278.65 324.5 278.5 324.1 276.2 319.75 274.7 316.9 274.9 314.8 275.25 310.7 283.2 306.95 287.25 305.05 288.85 303.9 291.55 301.9 292.05 299.25 292.45 297.15 291.05 293 289.6 288.8 290.1 286.7 290.65 284.2 293.2 282.55 295.45 281.05 298.4 280.65 299.55 280.5 303.9 280.25 307.3 280.05 309.3 279.45 313.7 278.05 316.7 273.9 319.55 269.9 320 265 320.8 256.6 314.95 246.95 311.7 242.1 310.35 239.6 308 235.25 308.05 231.6 308.05 229.85 309.7 223.3 310.95 218.25 309.7 215.3 307.25 209.7 296.85 209.05 294.6 208.95 293.55 208.75 291.75 208.45 290.5 207.6 287.5 205.5 287.9 200.85 288.25 197.2 290.5 192.75 302.55 192.3 313.8 196.15 315.5 187.1 317.5 174.4 318.05 170.95 318.05 169 318.05 166 317.1 163.8 313.4 155.2 296.1 156.4 294.95 151.2 297.1 145.95 299.25 140.7 303.8 137.85 306.15 136.35 310.3 135 316.45 133 317.05 132.75 320.75 131.25 323.15 128.95 326 126.2 326.4 122.95 326.95 118.3 322.8 114.6 318.95 111.15 313.65 110.4 310.8 110 303.75 110.1 297.4 110.2 293.9 109.4 294.3 105.95 293.9 99.7 293.4 92.9 293.6 90 293.95 84.7 296.3 80.6 299 75.95 303.4 74.7 308.15 73.35 315.55 76.95 324.95 81.5 327.85 81.95
M 348.5 168.55
Q 348.65 170.1 347.95 172.2 347.55 173.4 346.6 175.75 346.5 176.1 345.5 179.8 344.85 182.3 344 183.7 339.3 184 334.95 182.05
L 345.8 171
Q 347.55 169.25 348.5 168.55
M 381.25 238.5
Q 382.25 239 383.35 240 383.8 240.45 385.2 241.95
L 374.15 242.45
Q 373.95 241.3 375 239.45 376.15 237.45 376.15 236.45 376.8 236.1 377.6 236.55 378 236.75 378.8 237.35 379.55 237.85 381.25 238.5
M 580.1 271.75
Q 581.75 270.55 583.45 270.75 587.15 271.2 588.8 278.05
L 593.6 298.15
Q 589.05 297.4 583.7 299.55 580.6 300.8 574.2 304.6 568.05 308.3 564.8 309.5 559.5 311.5 554.95 310.5 553.25 307.15 552.8 303.3 552.4 299.5 553.35 295.85 554.15 293.35 554.4 292.05 554.95 289.85 554.55 288.25 554.2 286.85 553.15 285.45 552.45 284.55 550.95 283.1 543.85 276.3 538.35 274 534.55 272.45 530.7 272.45 526.55 272.5 523.35 274.35 522 264.75 523.2 255.05 525 254.8 529.75 253.6 533.8 252.55 536.25 252.45 539.85 252.3 542.85 253.8 546.2 255.45 547.1 258.45 547.65 260.25 547.3 263.55 546.95 267.25 547.2 268.8 547.85 272.3 552.15 276.5 557.65 282 562.45 283.45 565.6 284.45 568.7 283.85 572 283.2 574 280.9 575 279.8 575.95 277.8 577.5 274.65 577.6 274.5 578.65 272.75 580.1 271.75
M 215.55 104.8
L 215.55 102.4 220.35 103.7
Q 221.35 103.9 221.55 104.4 220.6 105.15 220 105.35
L 216.65 105.85
Q 216 105.85 215.8 105.7 215.55 105.5 215.55 104.8
M 80.15 381.65
Q 77.15 382.15 75.7 381.45 72.45 379.85 73.1 373.5 74.85 357.7 83.4 344.2 86.35 339.6 89.4 339.15 93.6 338.6 98.1 345.2
L 112.45 366.2
Q 114.7 369.45 115.9 370.95 117.95 373.55 119.95 375.2 125.3 379.55 130.8 378.65 133.25 375.6 133.25 371.45
L 138.75 377
Q 133 383.2 126.65 388.45 122.45 391.95 119.1 393.9 114.7 396.45 110.5 397.15 104.4 398.15 98.55 395.4 92.6 392.6 89.55 387.3 87.6 384 87.55 383.95 86.3 382.15 84.75 381.6 83.4 381.15 80.15 381.65
M 132.9 325.95
Q 135.5 323.05 137.65 322.7 140.45 322.3 143.05 324.95 143.9 325.85 144.9 327.35 145.45 328.2 146.55 329.9 148.7 333.05 154.3 338.25 140.7 339.3 127.6 334.45 126.2 333.9 126.1 333.15 126 332.4 127.25 331.4 128.6 330.4 130.2 328.8 130.35 328.65 132.9 325.95
M 243.65 274.6
Q 244.55 275.7 243.95 277.75 243.75 278.35 243.6 278.5 243.4 278.8 242.95 279.05 241.25 280.1 239.6 280.75 238.4 281.2 237.6 281.1
L 237.6 277.05 240.05 276.25
Q 240.45 276.15 240.65 275.95 240.85 275.75 241.05 275.2 241.45 274.6 242.25 274.5 242.85 274.45 243.65 274.6 Z"/>
</g>

<g id="review_box_0_Layer1_0_FILL">
<path fill="#00A099" stroke="none" d="
M 197.45 471.5
Q 188.95 471.5 184.45 478.7 179.95 485.85 179.95 498.05 179.95 510.2 184.45 517.4 188.95 524.55 197.45 524.55 206 524.55 210.45 517.4 214.95 510.2 214.95 498.05 214.95 485.85 210.45 478.7 206 471.5 197.45 471.5
M 189.6 481.85
Q 192.75 476.5 197.45 476.5 202.15 476.5 205.3 481.85 208.45 487.2 208.45 498.05 208.45 508.9 205.3 514.2 202.15 519.55 197.45 519.55 192.75 519.55 189.6 514.2 186.45 508.9 186.45 498.05 186.45 487.2 189.6 481.85
M 228.8 473.05
L 222.3 473.05 222.3 523.05 228.8 523.05 228.8 497.55 228.8 473.05
M 254.3 473.05
L 247.4 473.05 228.8 497.55 248.65 523.05 256.8 523.05 236.35 496.8 254.3 473.05 Z"/>
</g>

<g id="review_box_0_Layer0_0_FILL">
<path fill="#00A099" stroke="none" d="
M 509.3 473.25
L 503.35 473.25 509.15 523.25 515.25 523.25 521.65 484.25 521.8 484.25 528.95 523.25 535.1 523.25 541.15 473.25 536.05 473.25 531.9 509.75 531.75 509.75 531.15 504.9 525.15 473.25 519.25 473.25 513.3 508.75 513.15 508.75 509.3 473.25
M 604.7 473.25
L 598.1 473.25 582.7 523.25 588.95 523.25 592.35 512.25 609.95 512.25 613.35 523.25 620.25 523.25 604.7 473.25
M 599.8 488.3
L 601.05 483.2 608.5 507.25 593.9 507.25 599.8 488.3
M 571.05 473.25
L 571.05 494.75 552.6 494.75 552.6 473.25 546.1 473.25 546.1 523.25 552.6 523.25 552.6 499.75 571.05 499.75 571.05 523.25 577.55 523.25 577.55 473.25 571.05 473.25
M 659.3 478.75
L 659.3 473.25 622.8 473.25 622.8 478.75 637.8 478.75 637.8 523.25 644.3 523.25 644.3 478.75 659.3 478.75 Z"/>
</g>

<path id="Layer10_0_1_STROKES" stroke="#FFFFFF" stroke-opacity="0.3764705882352941" stroke-width="3" stroke-linejoin="round" stroke-linecap="round" fill="none" d="
M 1518.8 683
Q 1684.95 720.4 1756.35 722.6 1827.75 724.85 1927.7 726.95 2027.7 729.2 2075.1 738.05 2130.85 748.8 2207.8 759.05 2250.9 764.6 2284.55 773.35 2317.95 782.05 2380.6 809.45 2443.1 836.6 2463.75 849.4 2484.25 861.95 2559.85 906.85 2635.4 951.55 2642.4 957.1 2668.35 976.55 2668.35 984.25 2668.35 991.15 2686.3 1001.55 2717 1019.3 2725.75 1025.9 2783.45 1068.6 2786.1 1145.35 2787.65 1189.65 2728.65 1232.55 2695.6 1256.35 2646.85 1278.05 2622.75 1288.55 2594.75 1298.7 2524.75 1324 2451.9 1339.2 2385.4 1352.75 2304.8 1342.7 2224.1 1332.6 2167.9 1334.75 2111.8 1336.95 2028.2 1363.7 1944.55 1390.3 1865.65 1372.75 1787.5 1355.05 1662.85 1371.35 1627.95 1375.9 1580.9 1384.7 1542.9 1391.7 1538.25 1391.7 1445.7 1385.65 1352.45 1383.3 1168.45 1378.8 1097.75 1396.4 1022.55 1415.15 941.25 1418.25 890.35 1420.05 814.2 1415.15 792.7 1414.05 752.65 1419.25 691.35 1427.15 677.85 1428.3 574.7 1437.35 482.65 1405.85 381.45 1371.2 301.05 1355.55 243.8 1344.4 207.8 1344.4 194.9 1344.4 104.75 1328.95 4.5 1311.75 -67.05 1306.2 -165.35 1299.15 -244.4 1280.35 -249.2 1279.15 -254.05 1278.05 -332.6 1258.5 -398.6 1225.8 -475.15 1187.95 -510.5 1152.85 -550 1113.75 -546.95 1069.8 -543.6 1021.35 -515.1 955.9 -485.65 888.1 -459.65 875.45 -430.45 861 -414.75 848.05 -403.5 837 -398.6 833.95 -391.6 829.6 -372.75 828.75 -358.05 828.05 -309.05 813.3 -260.05 798.7 -202.85 795.55 -145.7 792.45 -107.1 783.25 -68.5 773.85 -47.45 768.3 -5.75 757 33.25 757 72.35 757 122.75 744.45 151.25 737.05 216 730.3 280.6 723.3 326.55 716.55 372.5 709.8 430.75 689.75 488.95 669.5 547.2 672.4 628.55 676.6 748.9 676.6 868.75 676.6 1008.35 677.1 1103.75 676.25 1202.6 667.2 1253.35 662.3 1297.05 663 1323.6 663.45 1366.15 667.2 1408.85 670.7 1431.8 671.05 1471.6 671.9 1518.8 683 Z"/>

<path id="Layer9_0_1_STROKES" stroke="#FFFFFF" stroke-width="6" stroke-linejoin="round" stroke-linecap="round" fill="none" d="
M 1478.95 634.3
Q 1671.55 674.65 1740.65 674 1809.8 673.2 1884.6 690.8 1959.25 708.25 2007.3 704.15 2055.1 700.05 2099.7 712.05 2144.15 723.95 2207.8 734.7 2271.3 745.35 2306.85 753.25 2342.2 761.15 2368.5 765.2 2394.6 768.95 2454.2 812.4 2513.9 855.6 2527.05 859.45 2540.2 863.1 2551.3 876.1 2562.4 889.1 2586.55 902.15 2610.9 915.1 2655.4 940.9 2699.8 966.8 2695.15 1017.65 2690.4 1068.55 2640.5 1095.65 2590.55 1122.7 2543.95 1141.75 2521.15 1151.15 2494.5 1160 2427.9 1182.2 2358.5 1195.55 2295.3 1207.4 2278.15 1204.05 2252.2 1198.85 2171.15 1184.25
L 2101.75 1184.25
Q 2051.8 1190.55 1993.3 1207.05 1875.9 1240.35 1800.75 1224.8 1726.4 1209.45 1607.7 1223.7 1574.55 1227.7 1529.65 1235.25 1493.55 1241.45 1489.25 1241.45 1401.15 1236.25 1312.35 1234.2 1137.2 1230.1 1070 1245.55 998.4 1262.05 921 1264.75 872.7 1266.3 800.3 1262.05 779.6 1260.95 741.6 1265.55 683.3 1272.55 670.4 1273.5 572.3 1281.4 484.7 1253.85 388.3 1223.55 311.9 1209.8 257.4 1199.95 223.05 1199.95 210.8 1199.95 124.95 1186.5 29.6 1171.45 -38.4 1166.65 -131.95 1160.35 -207.2 1143.85 -211.8 1142.85 -216.4 1141.75 -291.2 1124.65 -353.95 1096.15 -426.7 1063 -460.35 1032.25 -498.1 997.85 -495.1 959.2 -491.25 909.55 -480.95 876.1 -467.55 832.55 -444.3 822.05 -369.35 788 -351.85 782.6 -321.5 773.3 -223.25 757.75 -204.2 754.7 -150.3 748.35 -103.25 742.8 -77.55 737.95 -23.2 727.45 33.6 712.5 62.05 705.05 79.55 699.7
L 193.35 677.15 479.65 641.95
Q 501.45 638.4 531.55 636.25 591.75 632 633.7 639.05 674.85 646.15 823.25 641.95 862.1 640.85 928.8 638.3 982.05 636.25 991.55 636.25 1004.25 636.25 1057.05 631.55 1084.95 629.1 1166 621.5 1318.75 606.95 1335.15 607.75 1366.5 609.1 1389.1 609.85 1426.65 610.95 1478.95 634.3 Z"/>

<path id="Layer7_0_1_STROKES" stroke="#FFFFFF" stroke-width="4" stroke-linejoin="round" stroke-linecap="round" fill="none" d="
M 666.9633972167969 470.7159545898437
L 336.07908935546857 412.30439453124995 77.35023803710942 526.8082321166992 434.8633453369139 584.1031005859375 666.9633972167969 470.7159545898437 Z
M 666.9633972167969 470.7159545898437
L 666.9633972167969 785.3652847290039 434.8633453369139 927.7005126953125 77.35023803710942 858.2079360961914 77.35023803710942 526.8082321166992
M 434.8633453369139 927.7005126953125
L 434.8633453369139 584.1031005859375"/>

<path id="Layer7_1_1_STROKES" stroke="#FFFFFF" stroke-width="4" stroke-linejoin="round" stroke-linecap="round" fill="none" d="
M 1788.3675323486327 619.4142204284668
L 1970.2359329223632 648.5603576660156 2088.3061920166015 590.8798461914063 1919.9839721679687 561.1656433105469 1788.3675323486327 619.4142204284668 Z
M 1788.3675323486327 619.4142204284668
L 1788.3675323486327 787.998624420166 1970.2359329223632 823.3497863769531 1970.2359329223632 648.5603576660156
M 2088.3061920166015 590.8798461914063
L 2088.3061920166015 750.9432655334473 1970.2359329223632 823.3497863769531"/>

<path id="review_box_0_Layer3_0_1_STROKES" stroke="#00A099" stroke-width="8" stroke-linejoin="round" stroke-linecap="round" fill="none" d="
M 64.95 0
L 717.55 0
Q 744.4 0 763.45 19 782.5 38.05 782.5 64.95
L 782.5 534.95
Q 782.5 561.8 763.45 580.85 744.4 599.9 717.55 599.9
L 64.95 599.9
Q 38.05 599.9 19.05 580.85 0 561.8 0 534.95
L 0 64.95
Q 0 38.05 19.05 19 38.05 0 64.95 0 Z
M 479.7 446.8
L 676.85 446.8
Q 697.55 446.8 712.2 461.45 726.85 476.1 726.85 496.8
L 726.85 501.2
Q 726.85 521.9 712.2 536.55 697.55 551.2 676.85 551.2
L 479.7 551.2
Q 459 551.2 444.35 536.55 429.7 521.9 429.7 501.2
L 429.7 496.8
Q 429.7 476.1 444.35 461.45 459 446.8 479.7 446.8 Z
M 119.7 446.8
L 316.85 446.8
Q 337.55 446.8 352.2 461.45 366.85 476.1 366.85 496.8
L 366.85 501.2
Q 366.85 521.9 352.2 536.55 337.55 551.2 316.85 551.2
L 119.7 551.2
Q 99 551.2 84.35 536.55 69.7 521.9 69.7 501.2
L 69.7 496.8
Q 69.7 476.1 84.35 461.45 99 446.8 119.7 446.8 Z"/>
</defs>

<g transform="matrix( 1, 0, 0, 1, 0,0) ">
<use xlink:href="#Layer12_0_FILL"/>
</g>

<g transform="matrix( 1, 0, 0, 1, 0,0) ">
<use xlink:href="#Layer11_0_FILL"/>
</g>

<g transform="matrix( 1, 0, 0, 1, 0,0) ">
<use xlink:href="#Layer10_0_1_STROKES"/>
</g>

<g transform="matrix( 1, 0, 0, 1, 0,0) ">
<use xlink:href="#Layer9_0_FILL"/>

<use xlink:href="#Layer9_0_1_STROKES"/>
</g>

<g transform="matrix( 1, 0, 0, 1, 0,0) ">
<use xlink:href="#Layer8_0_STROKES_1_FILL"/>
</g>

<g transform="matrix( 1.717987060546875, 0, 0, 1.717987060546875, -1484.3,-703.7) ">
<use xlink:href="#Layer7_0_FILL"/>

<use xlink:href="#Layer7_0_1_STROKES" transform="matrix( 0.582061767578125, 0, 0, 0.582061767578125, 863.95,409.6) "/>
</g>

<g transform="matrix( 0.8739471435546875, 0, 0, 0.8739471435546875, 993.6,-6.9) ">
<use xlink:href="#Layer7_1_FILL"/>

<use xlink:href="#Layer7_1_1_STROKES" transform="matrix( 1.14422607421875, 0, 0, 1.14422607421875, -1136.9,7.85) "/>
</g>

<g transform="matrix( 1, 0, 0, 1, 0,0) ">
<use xlink:href="#Layer6_0_FILL"/>
</g>

<g transform="matrix( 1.143768310546875, 0, 0, 1.143768310546875, 756.2,309.2) ">
<g transform="matrix( 1, 0, 0, 1, 0,0) ">
<use xlink:href="#review_box_0_Layer3_0_FILL"/>

<use xlink:href="#review_box_0_Layer3_0_1_STROKES"/>
</g>

<g transform="matrix( 1, 0, 0, 1, 0,0) ">
<use xlink:href="#review_box_0_Layer2_0_FILL"/>
</g>

<g transform="matrix( 1, 0, 0, 1, 0,0) ">
<use xlink:href="#review_box_0_Layer1_0_FILL"/>
</g>

<g transform="matrix( 1, 0, 0, 1, 0,0) ">
<use xlink:href="#review_box_0_Layer0_0_FILL"/>
</g>
</g>
</svg>
