
<svg xmlns="http://www.w3.org/2000/svg" version="1.1" xmlns:xlink="http://www.w3.org/1999/xlink" preserveAspectRatio="none" x="0px" y="0px" width="69px" height="57px" viewBox="0 0 69 57">
<defs>
<g id="Layer1_0_FILL">
<path fill="#171717" stroke="none" d="
M 66.85 27.5
L 66.85 27.45
Q 66.85 23.05 57.05 19.95 47.2 16.85 33.4 16.85 19.55 16.85 9.8 19.95 0 23.05 0 27.45
L 0 27.55
Q 0.1 31.8 9.8 34.95 19.55 38 33.4 38 47.2 38 57.05 34.95 66.7 31.8 66.85 27.5 Z"/>

<path fill="#000000" stroke="none" d="
M 66.85 45.35
L 66.85 27.5
Q 66.7 31.8 57.05 34.95 47.2 38 33.4 38 19.55 38 9.8 34.95 0.1 31.8 0 27.55
L 0 45.35
Q 0 49.7 9.8 52.8 19.55 55.85 33.4 55.85 47.2 55.85 57.05 52.8 66.85 49.7 66.85 45.35 Z"/>
</g>

<g id="science_button_cap_4_0_Layer1_0_FILL">
<path fill="#93B7FF" stroke="none" d="
M 108.8 79.6
L 154.25 114.55 186.4 105.7 108.8 79.6
M 117.3 118.2
L 108.8 79.6 71.7 116.85 117.3 118.2
M 71.7 116.85
L 71.9 151 117.3 152.35 117.3 118.2 71.7 116.85
M 75.5 58.65
L 31.05 66.75 108.8 79.6 75.5 58.65
M 187.3 139.8
L 186.4 105.7 154.25 114.55 154.25 148.7 187.3 139.8 Z"/>

<path fill="#CDDCFF" stroke="none" d="
M 117.3 118.2
L 154.25 114.55 108.8 79.6 117.3 118.2
M 117.3 118.2
L 117.3 152.35 154.25 148.7 154.25 114.55 117.3 118.2 Z"/>

<path fill="#0055FF" stroke="none" d="
M 30 108.55
L 71.7 116.85 108.8 79.6 30 108.55
M 30 108.55
L 30 142.7 71.9 151 71.7 116.85 30 108.55
M 186.4 105.7
L 187.3 139.8 202.5 130.8 201.8 95.35 186.4 105.7
M 206.35 89.2
L 209.1 85.45 196.55 75.9 108.8 79.6 186.4 105.7 201.8 95.35 206.35 89.2 Z"/>

<path fill="#004CE4" stroke="none" d="
M 30 142.7
L 30 108.55 11.25 96.8 11.25 133.1 30 142.7
M 0 85.55
L 11.25 96.8 30 108.55 108.8 79.6 31.05 66.75 12.5 74.5 0 85.55
M 196.55 75.9
L 172.7 65.8 108.8 79.6 196.55 75.9 Z"/>

<path fill="#0042C7" stroke="none" d="
M 11.25 96.8
L 0 85.55 0 122.5 11.25 133.1 11.25 96.8
M 129.45 58.6
L 108.8 79.6 172.7 65.8 129.45 58.6
M 209.15 85.55
L 206.35 89.2 201.8 95.35 202.5 130.8 209.15 123.5 209.15 85.55 Z"/>

<path fill="#00339A" stroke="none" d="
M 108.8 79.6
L 129.45 58.6 75.5 58.65 108.8 79.6 Z"/>

<path fill="#00D43F" stroke="none" d="
M 209.1 85.45
L 209.15 85.55 209.1 85.45 209.1 85.45 Z"/>

<path fill="#00E946" stroke="none" d="
M 209.1 85.45
L 206.35 89.2 209.15 85.55 209.1 85.45 Z"/>
</g>

<path id="Layer1_0_1_STROKES" stroke="#999999" stroke-width="2" stroke-linejoin="round" stroke-linecap="round" fill="none" d="
M 66.85 27.5
L 66.85 45.35
Q 66.85 49.7 57.05 52.8 47.2 55.85 33.4 55.85 19.55 55.85 9.8 52.8 0 49.7 0 45.35
L 0 27.55 0 27.45
Q 0 23.05 9.8 19.95 19.55 16.85 33.4 16.85 47.2 16.85 57.05 19.95 66.85 23.05 66.85 27.45
L 66.85 27.5
Q 66.7 31.8 57.05 34.95 47.2 38 33.4 38 19.55 38 9.8 34.95 0.1 31.8 0 27.55"/>

<path id="science_button_cap_4_0_Layer1_0_1_STROKES" stroke="#FFFFFF" stroke-width="6" stroke-linejoin="round" stroke-linecap="round" fill="none" d="
M 172.7 65.8
L 196.55 75.9 209.1 85.475 209.1 85.45 209.15 85.55 209.15 123.5 202.5 130.8 187.3 139.8 154.25 148.7 117.3 152.35 71.9 151 30 142.7 11.25 133.1 0 122.5 0 85.55 12.5 74.5 31.05 66.75 75.5 58.65 129.45 58.6 172.7 65.8 Z
M 206.375 89.2
L 209.1 85.475 209.15 85.55 206.375 89.2 201.8 95.35
M 154.25 114.55
L 186.4 105.7 201.8 95.35
M 0 85.55
L 11.25 96.8 30 108.55 71.7 116.85 117.3 118.2 154.25 114.55"/>

<path id="science_button_cap_4_0_Layer0_0_1_STROKES" stroke="#FFFFFF" stroke-width="6" stroke-linejoin="round" stroke-linecap="round" fill="none" d="
M 177.25 43.9
L 191.25 23.6
M 224.8 79.45
L 247.65 64.25
M 103.65 36.3
L 103.65 17.25
M 33.6 45.5
L 20.9 23.9
M -14.35 76.25
L -33.4 58.45"/>
</defs>

<g transform="matrix( 1, 0, 0, 1, 1,0.5) ">
<g transform="matrix( 1, 0, 0, 1, 0,0) ">
<use xlink:href="#Layer1_0_FILL"/>

<use xlink:href="#Layer1_0_1_STROKES"/>
</g>

<g transform="matrix( 0.239990234375, 0, 0, 0.239990234375, 8.05,-3.9) ">
<g transform="matrix( 1, 0, 0, 1, 0,0) ">
<use xlink:href="#science_button_cap_4_0_Layer1_0_FILL"/>

<use xlink:href="#science_button_cap_4_0_Layer1_0_1_STROKES"/>
</g>

<g transform="matrix( 1, 0, 0, 1, 0,0) ">
<use xlink:href="#science_button_cap_4_0_Layer0_0_1_STROKES"/>
</g>
</g>
</g>
</svg>
