
<svg xmlns="http://www.w3.org/2000/svg" version="1.1" xmlns:xlink="http://www.w3.org/1999/xlink" preserveAspectRatio="none" x="0px" y="0px" width="2196px" height="1100px" viewBox="0 0 2196 1100">
<defs>
<radialGradient id="Gradient_1" gradientUnits="userSpaceOnUse" cx="0" cy="0" r="1086.6999999999998" fx="0" fy="0" gradientTransform="matrix( 0, 1.0000000000000002, -12.357964479617191, 0, 1182.1,1005.15) " spreadMethod="pad">
<stop  offset="0%" stop-color="#000000"/>

<stop  offset="100%" stop-color="#001D2D"/>
</radialGradient>

<g id="Layer11_0_FILL">
<path fill="url(#Gradient_1)" stroke="none" d="
M 2311.45 -65.7
Q 2311.078125 -51.541796875 1930.55 -43.2 1587.75 -35.7 1092.6 -35.7 597.45 -35.7 254.65 -43.2 -125.8779296875 -51.541796875 -126.25 -65.7
L -126.25 1147.65 2311.45 1147.65 2311.45 -65.7 Z"/>
</g>

<g id="Layer9_0_FILL">
<path fill="#222222" stroke="none" d="
M 1885.2 698.35
Q 1783.85 657.5 1754 645.85 1590.3 581.85 1548.05 581.5 1443.9455078125 580.7615234375 1295.05 540.3 1146.2068359375 499.8373046875 999.2 476.75 852.1974609375 453.70390625 796.65 458.35 713.7 466.7 564 454.35 414.25 442 180 448.6 67.1 451.75 -24.65 467.45 -45.05 470.9 -66.25 474.25
L -66.25 1147.65 2328.6 1147.65 2328.6 874.7
Q 2303.8 885.55 2259.75 872 2225.25 861.4 2171.05 832.75 2152.95 823.2 2123.8 806.9 2085.7 785.6 2077.1 780.85 2022.95 751.15 1992.5 740.2 1960.3 728.6 1885.2 698.35 Z"/>
</g>

<g id="Layer8_0_STROKES_1_FILL">
<path fill="#999999" stroke="none" d="
M 524.1 482.45
Q 525.6765625 481.96875 526.45 480.5
L 535.8 462.8
Q 536.570703125 461.323046875 536.05 459.75 535.573828125 458.173046875 534.1 457.4 532.628125 456.6287109375 531.05 457.1 529.4734375 457.6310546875 528.7 459.1
L 519.35 476.8
Q 518.5791015625 478.276953125 519.05 479.85 519.5759765625 481.426953125 521.05 482.2 522.521875 482.97109375 524.1 482.45
M 538.1 441.4
Q 537.3291015625 442.876953125 537.8 444.45 538.3259765625 446.026953125 539.8 446.8 541.271875 447.57109375 542.85 447.05 544.4265625 446.56875 545.2 445.1
L 554.5 427.4
Q 555.270703125 425.923046875 554.75 424.35 554.273828125 422.773046875 552.8 422 551.328125 421.2287109375 549.75 421.7 548.1734375 422.2310546875 547.4 423.7
L 538.1 441.4
M 571.5 386.6
Q 570.028125 385.8287109375 568.45 386.3 566.8734375 386.8310546875 566.1 388.3
L 556.8 406
Q 556.0291015625 407.476953125 556.5 409.05 557.0259765625 410.626953125 558.5 411.4 559.971875 412.17109375 561.55 411.65 563.1265625 411.16875 563.9 409.7
L 573.2 392
Q 573.970703125 390.523046875 573.45 388.95 572.973828125 387.373046875 571.5 386.6
M 591.95 356.6
Q 592.7580078125 355.15078125 592.25 353.55 591.78828125 352.0001953125 590.3 351.2 588.8560546875 350.4416015625 587.25 350.9 585.700390625 351.4169921875 584.9 352.85
L 575.5 370.55
Q 574.7419921875 372.04921875 575.2 373.6 575.7119140625 375.2 577.15 375.95 578.644140625 376.7583984375 580.2 376.25 581.799609375 375.7830078125 582.55 374.3
L 591.95 356.6
M 610.95 318.15
Q 610.48828125 316.6001953125 609 315.8 607.5560546875 315.0416015625 605.95 315.5 604.400390625 316.0169921875 603.6 317.45
L 594.2 335.15
Q 593.4419921875 336.64921875 593.9 338.2 594.4119140625 339.8 595.85 340.55 597.344140625 341.3583984375 598.9 340.85 600.499609375 340.3830078125 601.25 338.9
L 610.65 321.2
Q 611.4580078125 319.75078125 610.95 318.15 Z"/>
</g>

<g id="Layer5_0_STROKES_1_FILL">
<path fill="#999999" stroke="none" d="
M 885.35 855.6
Q 884.8197265625 854.0703125 883.3 853.35 875.2681640625 849.4908203125 867.7 844.85 867.0861328125 844.4611328125 866.4 844 865.015234375 843.1365234375 863.4 843.5 861.7794921875 843.8546875 860.85 845.25 859.9865234375 846.6421875 860.35 848.25 860.697265625 849.8703125 862.05 850.75 862.813671875 851.238671875 863.5 851.65 871.4318359375 856.508984375 879.85 860.55 881.3712890625 861.27109375 882.9 860.7 884.4814453125 860.1716796875 885.2 858.65 885.9228515625 857.1806640625 885.35 855.6
M 820.2 811.8
Q 819.9318359375 810.176953125 818.55 809.2 809.5359375 802.9205078125 802.25 798.65
L 802.3 798.65
Q 801.8 798.375 801.3 798.05 799.871484375 797.22109375 798.25 797.6 796.676171875 798.028515625 795.8 799.45 794.970703125 800.873828125 795.35 802.45 795.783203125 804.0734375 797.2 804.9 797.7 805.225 798.2 805.5
L 798.2 805.55
Q 805.2634765625 809.6791015625 814 815.75 815.3830078125 816.7189453125 817 816.4 818.625 816.1341796875 819.55 814.75 820.52109375 813.4193359375 820.2 811.8
M 852.15 835.65
Q 851.9046875 834.0171875 850.55 833 844.2087890625 828.346484375 836.4 822.3 836.3548828125 822.3013671875 836.3 822.25 835.626953125 821.7625 834.95 821.25 833.663671875 820.226953125 832 820.4 830.380859375 820.621875 829.35 821.9 828.325390625 823.233203125 828.5 824.85 828.725 826.5177734375 830 827.55 830.7392578125 828.1107421875 831.5 828.65 831.5384765625 828.6982421875 831.55 828.7 839.4203125 834.7748046875 845.8 839.45 847.165625 840.4513671875 848.8 840.2 850.4361328125 839.95546875 851.4 838.6 852.4046875 837.2853515625 852.15 835.65
M 940.1 870.25
Q 938.456640625 869.9826171875 937.1 870.95 935.759765625 871.9341796875 935.5 873.55 935.2314453125 875.205078125 936.2 876.55 937.18515625 877.8890625 938.8 878.15 948.5197265625 879.715234375 959.15 880.8 960.82890625 880.9953125 962.1 879.95 963.4083984375 878.897265625 963.55 877.25 963.746484375 875.6103515625 962.7 874.3 961.6578125 873.0427734375 960 872.85 949.5927734375 871.784765625 940.1 870.25
M 908.35 863.05
Q 904.7888671875 861.998046875 901.3 860.75 899.769140625 860.228125 898.25 860.95 896.7783203125 861.6685546875 896.2 863.2 895.6771484375 864.780859375 896.4 866.25 897.1185546875 867.770703125 898.65 868.3 902.3111328125 869.601953125 906.05 870.7
L 906 870.7
Q 911.9822265625 872.5650390625 918.5 874.15 920.105859375 874.526953125 921.5 873.65 922.937109375 872.7943359375 923.3 871.2 923.7158203125 869.5935546875 922.85 868.15 921.994921875 866.7517578125 920.4 866.35 914.11796875 864.834765625 908.35 863.05
L 908.35 863.05
M 1020.15 875.65
Q 1018.494921875 875.6517578125 1017.3 876.8 1016.1517578125 877.994921875 1016.15 879.65 1016.1517578125 881.305078125 1017.3 882.45 1018.494921875 883.6482421875 1020.15 883.65 1030.0107421875 883.65078125 1040.4 883.35 1042.0666015625 883.3033203125 1043.2 882.1 1044.3435546875 880.883984375 1044.3 879.2 1044.2544921875 877.5826171875 1043.05 876.45 1041.8349609375 875.3076171875 1040.15 875.35 1029.8890625 875.6490234375 1020.15 875.65
M 980.05 874.55
Q 978.4015625 874.450390625 977.15 875.55 975.9048828125 876.650390625 975.8 878.3 975.6990234375 879.9513671875 976.8 881.2 977.8974609375 882.44375 979.55 882.55 989.36015625 883.1509765625 999.85 883.45 1001.5345703125 883.4921875 1002.75 882.35 1003.9544921875 881.2173828125 1004 879.55 1004.0435546875 877.9158203125 1002.9 876.7 1001.766796875 875.496875 1000.1 875.45 989.73984375 875.148828125 980.05 874.55
M 1070.35 875.25
Q 1069.1314453125 874.164453125 1067.45 874.25 1063.8501953125 874.4498046875 1060.25 874.6 1058.6251953125 874.6751953125 1057.5 875.9 1056.378515625 877.1236328125 1056.45 878.75 1056.523828125 880.425 1057.75 881.55 1058.9732421875 882.6701171875 1060.6 882.6 1064.2498046875 882.45 1067.9 882.25 1069.5697265625 882.15859375 1070.65 880.9 1071.7869140625 879.68125 1071.7 878 1071.609765625 876.380078125 1070.35 875.25
M 603.75 762.35
Q 603.7076171875 763.99921875 604.85 765.2 605.9986328125 766.404296875 607.65 766.45 617.711328125 766.700390625 627.3 767.15 628.9748046875 767.2212890625 630.2 766.1 631.4248046875 764.9775390625 631.5 763.3 631.5724609375 761.676171875 630.45 760.45 629.3265625 759.2265625 627.65 759.15 617.9884765625 758.699609375 607.85 758.45 606.199609375 758.4087890625 605 759.55 603.7943359375 760.6974609375 603.75 762.35
M 564.15 762.25
Q 564.1658203125 763.8947265625 565.35 765.05 566.5443359375 766.212890625 568.2 766.2 578.26171875 766.1001953125 587.9 766.15 589.5701171875 766.1619140625 590.75 765 591.93515625 763.8294921875 591.95 762.15 591.96328125 760.527734375 590.8 759.35 589.631640625 758.1662109375 587.95 758.15 578.2380859375 758.099609375 568.1 758.2 566.4537109375 758.2171875 565.3 759.4 564.1357421875 760.5927734375 564.15 762.25
M 647.3 668.2
Q 646.21875 666.9912109375 644.55 666.9 634.737109375 666.3615234375 624.8 665.5 623.1501953125 665.383203125 621.85 666.45 620.611328125 667.5126953125 620.45 669.15 620.3318359375 670.800390625 621.4 672.05 622.462109375 673.3375 624.1 673.45 634.162890625 674.3384765625 644.1 674.9 645.782421875 674.9857421875 647 673.85 648.2599609375 672.7701171875 648.35 671.1 648.4369140625 669.4689453125 647.3 668.2
M 604.15 671.45
Q 605.819921875 671.66015625 607.1 670.6 608.429296875 669.5919921875 608.6 667.95 608.811328125 666.3181640625 607.75 665 606.7537109375 663.721875 605.1 663.5 595.3248046875 662.38671875 585.45 660.95 583.850390625 660.7099609375 582.5 661.7 581.19296875 662.6916015625 580.95 664.3 580.70859375 665.95078125 581.7 667.25 582.690234375 668.6056640625 584.3 668.85 594.275 670.3134765625 604.15 671.45
M 1086.45 507.95
Q 1084.8458984375 507.7234375 1083.5 508.7 1075.387890625 514.962109375 1067.5 520.85 1066.1791015625 521.847265625 1065.95 523.45 1065.7091796875 525.115625 1066.7 526.45 1067.6935546875 527.7708984375 1069.3 528 1070.9654296875 528.2369140625 1072.3 527.25 1080.212109375 521.337890625 1088.35 515.05 1089.681640625 514.0634765625 1089.9 512.4 1090.1267578125 510.791015625 1089.1 509.45 1088.113671875 508.1634765625 1086.45 507.95
M 1003.1 574.1
Q 1004.7201171875 574.448828125 1006.1 573.55 1014.3615234375 568.2263671875 1023 562.35 1024.3625 561.4189453125 1024.65 559.8 1024.98515625 558.1759765625 1024.05 556.8 1023.1193359375 555.4326171875 1021.5 555.1 1019.8806640625 554.8150390625 1018.5 555.75 1009.9384765625 561.5736328125 1001.75 566.85 1000.393359375 567.745703125 1000.05 569.35 999.6994140625 570.9728515625 1000.6 572.35 1001.494140625 573.7591796875 1003.1 574.1
M 1051.35 532.7
Q 1043.025390625 538.7369140625 1035.05 544.3 1033.708203125 545.275390625 1033.4 546.9 1033.12890625 548.5197265625 1034.05 549.85 1035.025390625 551.234375 1036.65 551.5 1038.276953125 551.8208984375 1039.65 550.85 1047.67421875 545.26328125 1056.05 539.2 1057.38671875 538.214453125 1057.65 536.55 1057.905859375 534.9447265625 1056.9 533.6 1055.953125 532.259765625 1054.3 532 1052.6982421875 531.7326171875 1051.35 532.7
M 1118.85 482.75
Q 1117.2337890625 482.5791015625 1115.9 483.6 1107.2248046875 490.4 1099.85 496.15 1098.5728515625 497.1837890625 1098.35 498.8 1098.175390625 500.46640625 1099.2 501.75 1100.23046875 503.0779296875 1101.85 503.25 1103.5158203125 503.4712890625 1104.8 502.45 1112.175 496.7 1120.85 489.9 1122.177734375 488.865625 1122.35 487.2 1122.574609375 485.58359375 1121.55 484.25 1120.51953125 482.9720703125 1118.85 482.75
M 1150.75 457.7
Q 1149.1322265625 457.52890625 1147.8 458.55 1139.4751953125 465.1498046875 1131.9 471.1 1130.6267578125 472.1310546875 1130.4 473.75 1130.2255859375 475.4169921875 1131.25 476.7 1132.2810546875 478.028125 1133.9 478.2 1135.562109375 478.4244140625 1136.85 477.4 1144.425 471.45 1152.75 464.85 1154.077734375 463.8140625 1154.25 462.15 1154.461328125 460.530859375 1153.4 459.2 1152.404296875 457.920703125 1150.75 457.7
M 1182.25 432.8
Q 1180.6203125 432.6408203125 1179.3 433.65 1171.1623046875 440.1251953125 1163.6 446.1 1162.3125 447.158984375 1162.1 448.8 1161.938671875 450.43203125 1162.95 451.7 1164.00859375 453.0294921875 1165.65 453.2 1167.2900390625 453.4107421875 1168.6 452.35 1176.1375 446.3748046875 1184.25 439.9 1185.5771484375 438.889453125 1185.75 437.25 1185.961328125 435.6181640625 1184.9 434.3 1183.891796875 433.0205078125 1182.25 432.8
M 1218.1 412.35
Q 1218.3408203125 410.7341796875 1217.35 409.4 1216.3564453125 408.0791015625 1214.7 407.85 1213.0853515625 407.612109375 1211.75 408.6 1203.9876953125 414.412109375 1195.9 420.55 1194.6162109375 421.587890625 1194.4 423.2 1194.173046875 424.85859375 1195.15 426.15 1196.1861328125 427.486328125 1197.8 427.7 1199.4560546875 427.925 1200.75 426.9 1208.812109375 420.7876953125 1216.55 415 1217.86953125 414.0033203125 1218.1 412.35
M 843.85 644.2
Q 842.4041015625 643.4431640625 840.8 643.9 831.2998046875 646.8482421875 821.7 649.35 820.1298828125 649.8103515625 819.3 651.25 818.45703125 652.68203125 818.85 654.25 819.30859375 655.8677734375 820.75 656.7 822.184375 657.5412109375 823.75 657.1 833.500390625 654.5515625 843.15 651.55 844.7513671875 651.0865234375 845.5 649.6 846.3083984375 648.1556640625 845.8 646.55 845.3380859375 645 843.85 644.2
M 859.8 637.7
Q 858.230078125 638.266015625 857.5 639.75 856.7771484375 641.241015625 857.3 642.8 857.8638671875 644.3666015625 859.35 645.1 860.8443359375 645.8205078125 862.4 645.25 871.475390625 642.151171875 880.45 638.65 881.22890625 638.3669921875 881.8 637.75 881.875 637.725 881.9 637.65 883.0982421875 636.505078125 883.1 634.85 883.0982421875 633.194921875 881.9 632 880.755078125 630.8517578125 879.1 630.85 877.9328125 630.851171875 877 631.4 868.4501953125 634.7431640625 859.8 637.7
M 917.4 615.3
Q 915.8509765625 614.72890625 914.35 615.4 905.2126953125 619.6986328125 896.15 623.55 894.664453125 624.2240234375 894.05 625.75 893.4259765625 627.291015625 894.05 628.8 894.7234375 630.340234375 896.25 630.95 897.7861328125 631.5734375 899.3 630.9 908.487109375 627.001171875 917.75 622.65 919.24140625 621.95859375 919.8 620.4 920.3732421875 618.8498046875 919.65 617.35 918.9607421875 615.8572265625 917.4 615.3
M 953 597.2
Q 951.416015625 596.744140625 949.95 597.5 941.1 602.298828125 932.3 606.7 930.8251953125 607.477734375 930.3 609.05 929.7779296875 610.6169921875 930.5 612.1 931.2771484375 613.5791015625 932.85 614.1 934.4125 614.621484375 935.9 613.85 944.7998046875 609.4009765625 953.75 604.55 955.201953125 603.78125 955.65 602.2 956.1578125 600.6140625 955.35 599.15 954.5833984375 597.6958984375 953 597.2
M 759.35 786.55
Q 760.0630859375 788.055078125 761.6 788.6 771.0435546875 791.956640625 779.75 795.95 781.2978515625 796.6734375 782.85 796.1 784.389453125 795.5267578125 785.05 794 785.7734375 792.5076171875 785.2 790.95 784.6212890625 789.4107421875 783.1 788.7 774.0564453125 784.543359375 764.25 781.05 762.7375 780.5291015625 761.25 781.25 759.742578125 781.954296875 759.15 783.5 758.626953125 785.053515625 759.35 786.55
M 722.7 776.7
Q 723.6091796875 778.122265625 725.2 778.45 735.2806640625 780.5908203125 744.35 783.15 745.941796875 783.605078125 747.4 782.8 748.8470703125 781.9890625 749.3 780.4 749.75703125 778.80546875 748.95 777.35 748.141796875 775.9048828125 746.55 775.45 737.2193359375 772.8091796875 726.85 770.6 725.26171875 770.2884765625 723.85 771.2 722.4890625 772.1087890625 722.15 773.7 721.8 775.337890625 722.7 776.7
M 683.65 770.45
Q 684.6982421875 771.761328125 686.35 771.95 696.472265625 773.2634765625 705.85 774.8 707.47578125 775.0673828125 708.8 774.1 710.1763671875 773.13046875 710.45 771.5 710.7189453125 769.8724609375 709.75 768.5 708.7822265625 767.1751953125 707.15 766.9 697.627734375 765.3365234375 687.35 764 685.7166015625 763.8130859375 684.4 764.8 683.087109375 765.8513671875 682.85 767.5 682.6615234375 769.1365234375 683.65 770.45
M 670.15 763.3
Q 669.1177734375 762.027734375 667.45 761.85 657.8265625 760.9619140625 647.55 760.25 645.9255859375 760.1490234375 644.65 761.25 643.4189453125 762.3349609375 643.3 763.95 643.1978515625 765.6232421875 644.3 766.85 645.3861328125 768.1298828125 647 768.25 657.1734375 768.937890625 666.7 769.8 668.36953125 769.980859375 669.65 768.9 670.9236328125 767.8671875 671.05 766.2 671.2322265625 764.5798828125 670.15 763.3
M 726.9 667
Q 725.6646484375 665.933984375 724 666.05 714.149609375 666.861328125 704.15 667.3 702.52109375 667.3763671875 701.4 668.6 700.277734375 669.8259765625 700.35 671.45 700.425 673.12734375 701.65 674.25 702.8775390625 675.3708984375 704.5 675.3 714.6501953125 674.838671875 724.65 674 726.323046875 673.888671875 727.4 672.6 728.4671875 671.365625 728.3 669.7 728.1900390625 668.077734375 726.9 667
M 661.6 668.8
Q 660.39453125 669.9474609375 660.35 671.6 660.307421875 673.24921875 661.45 674.45 662.5986328125 675.654296875 664.25 675.7 674.375390625 675.951171875 684.4 675.85 686.0458984375 675.8326171875 687.2 674.65 688.364453125 673.4572265625 688.35 671.8 688.333984375 670.1552734375 687.15 669 685.955859375 667.8369140625 684.3 667.85 674.4244140625 667.9486328125 664.45 667.7 662.799609375 667.6587890625 661.6 668.8
M 805.45 654.65
Q 804.0814453125 653.78671875 802.45 654.15 792.7873046875 656.3361328125 783 658.15 781.3828125 658.482421875 780.45 659.85 779.5154296875 661.2234375 779.8 662.85 780.13125 664.4671875 781.5 665.4 782.8734375 666.3333984375 784.5 666 794.412890625 664.1638671875 804.2 661.95 805.83359375 661.580078125 806.7 660.15 807.6140625 658.7794921875 807.25 657.15 806.880859375 655.564453125 805.45 654.65
M 766.4 662.2
Q 765.0861328125 661.246484375 763.45 661.5 753.674609375 662.986328125 743.8 664.1 742.1572265625 664.3220703125 741.1 665.6 740.088671875 666.9181640625 740.25 668.55 740.470703125 670.191796875 741.75 671.2 743.069140625 672.2599609375 744.7 672.05 754.7251953125 670.9138671875 764.65 669.4 766.2853515625 669.154296875 767.25 667.8 768.2546875 666.4853515625 768 664.85 767.75546875 663.2140625 766.4 662.2
M 965.5 590.25
Q 965.10703125 591.86796875 965.95 593.3 966.78203125 594.74140625 968.35 595.15 969.9638671875 595.5919921875 971.4 594.75 980.037109375 589.7380859375 988.75 584.4 990.184765625 583.555078125 990.55 581.95 990.9658203125 580.3435546875 990.1 578.9 989.24453125 577.512890625 987.65 577.1 986.045703125 576.7236328125 984.6 577.55 975.9625 582.86171875 967.4 587.85 965.9626953125 588.6830078125 965.5 590.25
M 1280.3 362.8
Q 1278.6876953125 362.425 1277.25 363.3 1269.188671875 368.3859375 1260.55 374.1 1259.16171875 375.0412109375 1258.8 376.65 1258.5009765625 378.2681640625 1259.4 379.65 1260.33828125 381.0388671875 1261.95 381.35 1263.5673828125 381.6958984375 1264.95 380.75 1273.5111328125 375.1140625 1281.5 370.1 1282.92734375 369.2107421875 1283.3 367.6 1283.664453125 365.985546875 1282.75 364.55 1281.9001953125 363.1705078125 1280.3 362.8
M 1247 384.65
Q 1245.3826171875 384.38125 1244 385.3 1236.08828125 390.8365234375 1227.75 396.85 1226.412109375 397.836328125 1226.15 399.45 1225.8939453125 401.105078125 1226.85 402.45 1227.846875 403.790234375 1229.45 404.05 1231.102734375 404.31640625 1232.45 403.35 1240.71171875 397.36328125 1248.55 391.85 1249.93203125 390.9228515625 1250.2 389.3 1250.52109375 387.6806640625 1249.55 386.3 1248.6251953125 384.9658203125 1247 384.65
M 1500.5 296.1
Q 1492.5 295.797265625 1484.5 295.9 1482.857421875 295.9171875 1481.7 297.1 1480.535546875 298.2931640625 1480.55 299.95 1480.566015625 301.5951171875 1481.75 302.75 1482.940625 303.91328125 1484.6 303.9 1492.4 303.8025390625 1500.2 304.1 1501.855078125 304.1568359375 1503.05 303 1504.2896484375 301.8974609375 1504.35 300.25 1504.4080078125 298.59609375 1503.25 297.35 1502.1462890625 296.1615234375 1500.5 296.1
M 1442.15 305.8
Q 1443.487109375 306.8375 1445.1 306.6 1454.9501953125 305.341015625 1464.8 304.65 1466.4828125 304.528515625 1467.55 303.25 1468.6529296875 302.02109375 1468.5 300.35 1468.417578125 298.7205078125 1467.15 297.6 1465.9177734375 296.5361328125 1464.25 296.65 1454.149609375 297.3587890625 1444.05 298.65 1442.43984375 298.90078125 1441.4 300.2 1440.411328125 301.5388671875 1440.6 303.15 1440.8498046875 304.81171875 1442.15 305.8
M 1427.05 302.5
Q 1425.6935546875 301.6033203125 1424.05 301.9 1414.2125 303.846484375 1404.35 306.35 1402.7486328125 306.794140625 1401.9 308.2 1401.0578125 309.6517578125 1401.45 311.25 1401.89296875 312.851171875 1403.3 313.7 1404.751953125 314.5408203125 1406.35 314.1 1415.9875 311.653515625 1425.6 309.75 1427.24921875 309.4513671875 1428.15 308.05 1429.0984375 306.6962890625 1428.75 305.05 1428.453125 303.453515625 1427.05 302.5
M 1314.45 343.15
Q 1312.8822265625 342.6931640625 1311.4 343.45 1302.762890625 348.1107421875 1294 353.2 1292.56171875 354.0333984375 1292.1 355.6 1291.70703125 357.2177734375 1292.55 358.65 1293.38203125 360.0912109375 1294.95 360.5 1296.56484375 360.94140625 1298 360.1 1306.637109375 355.0888671875 1315.15 350.5 1316.63671875 349.733984375 1317.1 348.15 1317.608203125 346.5791015625 1316.8 345.1 1316.0353515625 343.66015625 1314.45 343.15
M 1366 325.85
Q 1367.537890625 326.5341796875 1369.05 325.95 1378.312109375 322.4408203125 1387.5 319.5 1389.08046875 319.008203125 1389.85 317.5 1390.608984375 316.0626953125 1390.1 314.5 1389.5970703125 312.920703125 1388.1 312.15 1386.6615234375 311.380078125 1385.1 311.85 1375.6876953125 314.858984375 1366.2 318.45 1364.67890625 319.0541015625 1364 320.55 1363.326171875 322.0853515625 1363.9 323.6 1364.5146484375 325.1685546875 1366 325.85
M 1350.6 325.9
Q 1349.085546875 325.3142578125 1347.55 325.95 1338.475390625 329.9103515625 1329.3 334.35 1327.8154296875 335.07265625 1327.25 336.6 1326.7271484375 338.1958984375 1327.45 339.7 1328.1705078125 341.1857421875 1329.7 341.7 1331.2947265625 342.2705078125 1332.8 341.55 1341.824609375 337.1896484375 1350.75 333.3 1352.2626953125 332.661328125 1352.85 331.1 1353.4865234375 329.59375 1352.8 328.05 1352.162109375 326.5453125 1350.6 325.9 Z"/>
</g>

<g id="Layer5_1_FILL">
<path fill="#000000" stroke="none" d="
M 553.3 389.5
L 193.1 331.8 193.1 665.7 553.3 735.7 553.3 389.5
M 453.75 216.45
L 193.1 331.8 553.3 389.5 787.1 275.3 453.75 216.45
M 787.1 592.3
L 787.1 275.3 553.3 389.5 553.3 735.7 787.1 592.3 Z"/>
</g>

<g id="science_button_in_water_0_Layer2_0_FILL">
<path fill="#000000" stroke="none" d="
M 277.9 95.3
Q 277.55 113.35 237.15 126.15 196.35 139 138.65 139 81 139 40.15 126.15 -0.25 113.35 -0.6 95.3
L -0.6 169.65
Q -0.6 187.85 40.15 200.75 81 213.6 138.65 213.6 196.35 213.6 237.15 200.75 277.9 187.85 277.9 169.65
L 277.9 95.3 Z"/>

<path fill="#171717" stroke="none" d="
M 277.9 95.3
L 277.9 95
Q 277.9 76.8 237.15 63.85 196.35 50.95 138.65 50.95 81 50.95 40.15 63.85 -0.6 76.8 -0.6 95
L -0.6 95.3
Q -0.25 113.35 40.15 126.15 81 139 138.65 139 196.35 139 237.15 126.15 277.55 113.35 277.9 95.3 Z"/>
</g>

<g id="science_button_cap_1_0_Layer1_0_FILL">
<path fill="#76FF00" stroke="none" d="
M 108.8 79.6
L 154.25 114.55 186.4 105.7 108.8 79.6
M 30 108.55
L 71.7 116.85 108.8 79.6 30 108.55
M 30 108.55
L 30 142.7 71.9 151 71.7 116.85 30 108.55
M 187.3 139.8
L 186.4 105.7 154.25 114.55 154.25 148.7 187.3 139.8 Z"/>

<path fill="#CCFF00" stroke="none" d="
M 117.3 118.2
L 108.8 79.6 71.7 116.85 117.3 118.2
M 71.7 116.85
L 71.9 151 117.3 152.35 117.3 118.2 71.7 116.85
M 75.5 58.65
L 31.05 66.75 108.8 79.6 75.5 58.65 Z"/>

<path fill="#E4FFBA" stroke="none" d="
M 117.3 118.2
L 154.25 114.55 108.8 79.6 117.3 118.2
M 117.3 118.2
L 117.3 152.35 154.25 148.7 154.25 114.55 117.3 118.2 Z"/>

<path fill="#00E946" stroke="none" d="
M 30 142.7
L 30 108.55 11.25 96.8 11.25 133.1 30 142.7
M 0 85.55
L 11.25 96.8 30 108.55 108.8 79.6 31.05 66.75 12.5 74.5 0 85.55
M 186.4 105.7
L 187.3 139.8 202.5 130.8 201.8 95.35 186.4 105.7
M 209.15 85.55
L 209.1 85.45 206.35 89.2 209.15 85.55
M 196.55 75.9
L 172.7 65.8 108.8 79.6 186.4 105.7 201.8 95.35 206.35 89.2 209.1 85.45 196.55 75.9 Z"/>

<path fill="#00D43F" stroke="none" d="
M 11.25 96.8
L 0 85.55 0 122.5 11.25 133.1 11.25 96.8
M 209.15 85.55
L 206.35 89.2 201.8 95.35 202.5 130.8 209.15 123.5 209.15 85.55
M 209.1 85.45
L 209.1 85.45 209.15 85.55 209.1 85.45 Z"/>

<path fill="#6FFF49" stroke="none" d="
M 108.8 79.6
L 129.45 58.6 75.5 58.65 108.8 79.6 Z"/>

<path fill="#1AFF2B" stroke="none" d="
M 129.45 58.6
L 108.8 79.6 172.7 65.8 129.45 58.6 Z"/>
</g>

<g id="science_button_1_0_Layer2_0_FILL">
<path fill="#000000" stroke="none" d="
M 277.9 169.65
L 277.9 95.3
Q 277.55 113.35 237.15 126.15 196.35 139 138.65 139 81 139 40.15 126.15 -0.25 113.35 -0.6 95.3
L -0.6 169.65
Q -0.6 187.85 40.15 200.75 81 213.6 138.65 213.6 196.35 213.6 237.15 200.75 277.9 187.85 277.9 169.65 Z"/>

<path fill="#171717" stroke="none" d="
M 277.9 95.3
L 277.9 95
Q 277.9 76.8 237.15 63.85 196.35 50.95 138.65 50.95 81 50.95 40.15 63.85 -0.6 76.8 -0.6 95
L -0.6 95.3
Q -0.25 113.35 40.15 126.15 81 139 138.65 139 196.35 139 237.15 126.15 277.55 113.35 277.9 95.3 Z"/>
</g>

<g id="Layer1_0_FILL">
<path fill="#FFFFFF" stroke="none" d="
M 440.8 158.3
Q 442.3 156.8 442.3 154.75 442.3 152.6 440.8 151.15 439.25 149.65 437.2 149.65 435.15 149.65 433.65 151.15 432.1 152.6 432.1 154.75 432.1 156.8 433.6 158.3 435.1 159.8 437.2 159.8 439.3 159.8 440.8 158.3
M 330.95 109.85
L 330.95 130.75 313.05 130.75 313.05 109.85 306.75 109.85 306.75 158.35 313.05 158.35 313.05 135.55 330.95 135.55 330.95 158.35 337.25 158.35 337.25 109.85 330.95 109.85
M 368.95 123.45
L 368.95 143.8
Q 366.65 148.2 363.15 151.1 359.6 154 356.55 154 355.05 154 353.75 152.95 352.45 151.9 352 150.3 351.5 148.7 351.5 143.65
L 351.5 123.45 345.65 123.45 345.65 142.95
Q 345.65 150.7 346.65 153.4 347.65 156.05 350.25 157.7 352.75 159.3 355.85 159.3 359.25 159.3 362.7 157.15 366.15 155 368.95 150.7
L 368.95 158.35 374.75 158.35 374.75 123.45 368.95 123.45
M 390.25 107.9
L 384.45 107.9 384.45 158.35 390.25 158.35 390.25 138
Q 392.55 133.65 396.05 130.75 399.55 127.8 402.65 127.8 404.15 127.8 405.5 128.85 406.75 129.9 407.25 131.5 407.75 133.1 407.75 138.15
L 407.75 158.35 413.55 158.35 413.55 138.85
Q 413.55 133.05 413.25 131.2 413 129.3 412.2 127.65 411.25 125.5 408.8 124 406.3 122.5 403.35 122.5 399.8 122.5 396.3 124.75 392.75 127.05 390.25 131.05
L 390.25 107.9
M 602.3 122.5
Q 600.3 122.5 598.75 123.65 597.15 124.8 595.75 126.8 594.25 128.8 593.25 132
L 593.25 130.1
Q 593.25 126.45 591.7 124.5 590.15 122.5 587.6 122.5 585.5 122.5 583.4 124.4 581.3 126.35 578.9 131.45
L 578.9 123.45 573.8 123.45 573.8 158.35 578.9 158.35 578.9 138.2
Q 580.55 133.85 582.4 131.05 584.25 128.3 585.85 128.3 586.55 128.3 587.5 129.1 588.4 129.9 588.4 134.55
L 588.4 158.35 593.25 158.35 593.25 139
Q 595.15 133.25 597.05 130.8 598.9 128.3 600.5 128.3 601.15 128.3 601.75 128.85 602.3 129.4 602.5 130.5
L 602.65 158.35 607.75 158.35 607.75 132
Q 607.75 126.3 606.15 124.4 604.55 122.5 602.3 122.5
M 622.15 124.9
Q 618.3 127.4 616.2 131.8 614.05 136.2 614.05 141 614.05 145.9 616.3 150.3 618.55 154.65 622.25 157 625.95 159.3 630.7 159.3 636.9 159.3 643.9 156.05
L 643.9 150.75
Q 637.05 154.5 631.45 154.5 628.3 154.5 625.8 153 623.35 151.5 621.85 148.5 620.3 145.45 620.3 141.8
L 644.4 141.8 644.4 140.55
Q 644.4 131.35 640.65 126.9 636.85 122.5 630.65 122.5 625.95 122.5 622.15 124.9
M 620.65 137.5
Q 621.7 132.5 624.3 129.9 626.85 127.3 630.4 127.3 633.9 127.3 635.95 129.85 638.05 132.4 638.05 136.65
L 638.05 137.5 620.65 137.5
M 525.85 109.85
Q 521 108.4 515.85 108.4 507.75 108.4 504 112.15 500.2 115.85 500.2 121.35 500.2 128.8 508.7 133.85
L 515.1 137.55
Q 519.6 140.2 521.25 142.4 522.95 144.65 522.95 147.15 522.95 149.3 521.75 151.15 520.5 153 518.2 154 515.85 155 513.3 155 507.2 155 499.7 151.4
L 499.7 157.3
Q 503.95 158.85 506.55 159.35 509.2 159.8 512.05 159.8 521.05 159.8 525.15 155.8 529.25 151.75 529.25 146.15 529.25 138.75 521.25 133.9
L 513.25 129.05
Q 510.25 127.4 508.4 125.45 506.5 123.5 506.5 120.5 506.5 117.5 508.95 115.35 511.45 113.25 515.5 113.25 520.5 113.25 525.85 115.25
L 525.85 109.85
M 566.85 123.45
L 554.5 122.95
Q 548.75 122.95 544.9 125.75 541 128.5 538.7 133.25 536.4 138 536.4 144.05 536.4 151.75 539.9 155.55 543.35 159.3 547.75 159.3 550.85 159.3 554.6 157.1 558.35 154.9 561 150.55 561.4 155.5 562.1 158.35
L 568.15 158.35
Q 566.85 154.4 566.85 148.1
L 566.85 123.45
M 542.7 143.3
Q 542.7 136.1 546.3 131.95 549.85 127.8 555.25 127.8 557.9 127.8 561 128.6
L 561 143.6
Q 558.4 148.25 555.15 151 551.85 153.75 549.1 153.75 546.6 153.75 544.65 151.1 542.7 148.5 542.7 143.3
M 735.5 143.65
L 735.5 123.45 729.65 123.45 729.65 142.95
Q 729.65 150.7 730.65 153.4 731.65 156.05 734.25 157.7 736.75 159.3 739.85 159.3 743.25 159.3 746.7 157.15 750.15 155 752.95 150.7
L 752.95 158.35 758.75 158.35 758.75 123.45 752.95 123.45 752.95 143.8
Q 750.65 148.2 747.15 151.1 743.6 154 740.55 154 739.05 154 737.75 152.95 736.45 151.9 736 150.3 735.5 148.7 735.5 143.65
M 781.15 112.3
L 775.3 112.3 775.3 126.35 766.6 126.35 766.6 131.2 775.3 131.2 775.3 145.25
Q 775.3 151 776.9 153.75 778.4 156.5 781.45 157.9 784.5 159.3 788.15 159.3
L 791.7 159
Q 793.55 158.65 797.65 156.95
L 797.65 151.8
Q 793 154.5 788.75 154.5 786.5 154.5 784.8 153.65 783.15 152.85 782.15 151.15 781.15 149.4 781.15 145.15
L 781.15 131.2 796.65 131.2 796.65 126.35 781.15 126.35 781.15 112.3
M 697 107.9
L 691.2 107.9 691.2 158.35 703.5 158.85
Q 709.25 158.85 713.1 156.1 717 153.3 719.35 148.55 721.65 143.8 721.65 137.75 721.65 130.05 718.15 126.25 714.65 122.5 710.25 122.5 707.15 122.5 703.45 124.7 699.7 126.9 697 131.3
L 697 107.9
M 697 138.2
Q 699.65 133.55 702.95 130.8 706.2 128.05 708.9 128.05 711.4 128.05 713.35 130.65 715.35 133.3 715.35 138.5 715.35 145.75 711.75 149.85 708.1 154 702.85 154 700.2 154 697 153.2
L 697 138.2
M 940 158.3
Q 941.5 156.8 941.5 154.75 941.5 152.6 940 151.15 938.45 149.65 936.4 149.65 934.35 149.65 932.85 151.15 931.3 152.6 931.3 154.75 931.3 156.8 932.8 158.3 934.3 159.8 936.4 159.8 938.5 159.8 940 158.3
M 819.55 112.3
L 813.7 112.3 813.7 126.35 805 126.35 805 131.2 813.7 131.2 813.7 145.25
Q 813.7 151 815.3 153.75 816.8 156.5 819.85 157.9 822.9 159.3 826.55 159.3
L 830.1 159
Q 831.95 158.65 836.05 156.95
L 836.05 151.8
Q 831.4 154.5 827.15 154.5 824.9 154.5 823.2 153.65 821.55 152.85 820.55 151.15 819.55 149.4 819.55 145.15
L 819.55 131.2 835.05 131.2 835.05 126.35 819.55 126.35 819.55 112.3
M 889.45 131.05
L 889.45 123.45 883.65 123.45 883.65 158.35 889.45 158.35 889.45 138
Q 891.75 133.65 895.25 130.75 898.75 127.8 901.85 127.8 903.35 127.8 904.7 128.85 905.95 129.9 906.45 131.5 906.95 133.1 906.95 138.15
L 906.95 158.35 912.75 158.35 912.75 138.85
Q 912.75 131.05 911.75 128.4 910.7 125.75 908.2 124.15 905.65 122.5 902.55 122.5 899 122.5 895.5 124.75 891.95 127.05 889.45 131.05
M 871.55 127.7
Q 867.05 122.5 859.6 122.5 852.1 122.5 847.6 127.7 843.1 132.9 843.1 140.9 843.1 148.85 847.6 154.1 852.1 159.3 859.6 159.3 867.05 159.3 871.55 154.1 876.05 148.85 876.05 140.9 876.05 132.9 871.55 127.7
M 867 130.95
Q 869.75 134.55 869.75 140.9 869.75 147.25 867 150.85 864.25 154.5 859.6 154.5 854.95 154.5 852.2 150.85 849.45 147.25 849.45 140.9 849.45 134.55 852.2 130.95 854.95 127.3 859.6 127.3 864.25 127.3 867 130.95
M 875.7 216.85
Q 875.7 218.75 877.05 219.75 878.4 220.7 879.55 220.7 880.75 220.7 882.1 219.75 883.45 218.75 883.45 216.85 883.45 214.9 882.1 213.9 880.75 212.95 879.55 212.95 878.4 212.95 877.05 213.9 875.7 214.9 875.7 216.85
M 892.15 264.35
L 892.15 259.5 882.45 259.5 882.45 229.45 866.95 229.45 866.95 234.3 876.65 234.3 876.65 264.35 892.15 264.35
M 922.1 228.95
Q 916.35 228.95 912.45 231.75 908.6 234.5 906.3 239.25 903.95 244 903.95 250.05 903.95 257.75 907.45 261.55 910.95 265.3 915.3 265.3 918.45 265.3 922.2 263.1 925.95 260.9 928.6 256.5
L 928.6 261.45
Q 928.6 264.95 928.05 267.05 927.55 269.15 926.05 270.75 924.6 272.35 922.2 273.2 919.85 274.05 917.2 274.05 913.8 274.05 910.2 272.75 906.55 271.45 904.1 269.75
L 904.1 275.65
Q 910.6 278.9 916.95 278.9 923.3 278.9 927.7 276.2 932.2 273.5 933.45 268.85
L 934.2 264.9 934.4 229.45 922.1 228.95
M 913.85 237.95
Q 917.45 233.8 922.85 233.8 925.5 233.8 928.6 234.6
L 928.6 249.6
Q 926 254.25 922.7 257 919.4 259.75 916.7 259.75 914.2 259.75 912.25 257.1 910.3 254.5 910.3 249.3 910.3 242.1 913.85 237.95
M 1153.6 264.3
Q 1155.1 262.8 1155.1 260.75 1155.1 258.6 1153.6 257.15 1152.05 255.65 1150 255.65 1147.95 255.65 1146.45 257.15 1144.9 258.6 1144.9 260.75 1144.9 262.8 1146.4 264.3 1147.9 265.8 1150 265.8 1152.1 265.8 1153.6 264.3
M 972.6 264.9
L 972.8 229.45 960.5 228.95
Q 954.75 228.95 950.85 231.75 947 234.5 944.7 239.25 942.35 244 942.35 250.05 942.35 257.75 945.85 261.55 949.35 265.3 953.7 265.3 956.85 265.3 960.6 263.1 964.35 260.9 967 256.5
L 967 261.45
Q 967 264.95 966.45 267.05 965.95 269.15 964.45 270.75 963 272.35 960.6 273.2 958.25 274.05 955.6 274.05 952.2 274.05 948.6 272.75 944.95 271.45 942.5 269.75
L 942.5 275.65
Q 949 278.9 955.35 278.9 961.7 278.9 966.1 276.2 970.6 273.5 971.85 268.85
L 972.6 264.9
M 952.25 237.95
Q 955.85 233.8 961.25 233.8 963.9 233.8 967 234.6
L 967 249.6
Q 964.4 254.25 961.1 257 957.8 259.75 955.1 259.75 952.6 259.75 950.65 257.1 948.7 254.5 948.7 249.3 948.7 242.1 952.25 237.95
M 989.35 230.9
Q 985.5 233.4 983.4 237.8 981.25 242.2 981.25 247 981.25 251.9 983.5 256.3 985.75 260.65 989.45 263 993.15 265.3 997.9 265.3 1004.1 265.3 1011.1 262.05
L 1011.1 256.75
Q 1004.25 260.5 998.65 260.5 995.5 260.5 993 259 990.55 257.5 989.05 254.5 987.5 251.45 987.5 247.8
L 1011.6 247.8 1011.6 246.55
Q 1011.6 237.35 1007.85 232.9 1004.05 228.5 997.85 228.5 993.15 228.5 989.35 230.9
M 987.85 243.5
Q 988.9 238.5 991.5 235.9 994.05 233.3 997.6 233.3 1001.1 233.3 1003.15 235.85 1005.25 238.4 1005.25 242.65
L 1005.25 243.5 987.85 243.5
M 1029.25 229.45
L 1023.4 229.45 1023.4 264.35 1029.25 264.35 1029.25 244.05
Q 1032.2 238.95 1035.3 236.4 1038.45 233.8 1041.7 233.8
L 1044 234.05 1044 242.05 1049.6 242.05 1049.6 229.45
Q 1046.45 228.5 1043.3 228.5 1039 228.5 1035.5 230.65 1031.95 232.75 1029.25 237.05
L 1029.25 229.45
M 1115.2 264.3
Q 1116.7 262.8 1116.7 260.75 1116.7 258.6 1115.2 257.15 1113.65 255.65 1111.6 255.65 1109.55 255.65 1108.05 257.15 1106.5 258.6 1106.5 260.75 1106.5 262.8 1108 264.3 1109.5 265.8 1111.6 265.8 1113.7 265.8 1115.2 264.3
M 1076.8 264.3
Q 1078.3 262.8 1078.3 260.75 1078.3 258.6 1076.8 257.15 1075.25 255.65 1073.2 255.65 1071.15 255.65 1069.65 257.15 1068.1 258.6 1068.1 260.75 1068.1 262.8 1069.6 264.3 1071.1 265.8 1073.2 265.8 1075.3 265.8 1076.8 264.3
M 858.45 243.75
Q 858.45 236.05 854.95 232.25 851.45 228.5 847.05 228.5 843.95 228.5 840.25 230.7 836.5 232.9 833.8 237.3
L 833.8 213.9 828 213.9 828 264.35 840.3 264.85
Q 846.05 264.85 849.9 262.1 853.8 259.3 856.15 254.55 858.45 249.8 858.45 243.75
M 833.8 244.2
Q 836.45 239.55 839.75 236.8 843 234.05 845.7 234.05 848.2 234.05 850.15 236.65 852.15 239.3 852.15 244.5 852.15 251.75 848.55 255.85 844.9 260 839.65 260 837 260 833.8 259.2
L 833.8 244.2
M 590.45 246.9
Q 590.45 238.9 585.95 233.7 581.45 228.5 574 228.5 566.5 228.5 562 233.7 557.5 238.9 557.5 246.9 557.5 254.85 562 260.1 566.5 265.3 574 265.3 581.45 265.3 585.95 260.1 590.45 254.85 590.45 246.9
M 574 233.3
Q 578.65 233.3 581.4 236.95 584.15 240.55 584.15 246.9 584.15 253.25 581.4 256.85 578.65 260.5 574 260.5 569.35 260.5 566.6 256.85 563.85 253.25 563.85 246.9 563.85 240.55 566.6 236.95 569.35 233.3 574 233.3
M 609.65 236.75
Q 613.15 233.8 616.25 233.8 617.75 233.8 619.1 234.85 620.35 235.9 620.85 237.5 621.35 239.1 621.35 244.15
L 621.35 264.35 627.15 264.35 627.15 244.85
Q 627.15 237.05 626.15 234.4 625.1 231.75 622.6 230.15 620.05 228.5 616.95 228.5 613.4 228.5 609.9 230.75 606.35 233.05 603.85 237.05
L 603.85 229.45 598.05 229.45 598.05 264.35 603.85 264.35 603.85 244
Q 606.15 239.65 609.65 236.75
M 411.85 213.9
L 406.05 213.9 406.05 264.35 411.85 264.35 411.85 244
Q 414.15 239.65 417.65 236.75 421.15 233.8 424.25 233.8 425.75 233.8 427.1 234.85 428.35 235.9 428.85 237.5 429.35 239.1 429.35 244.15
L 429.35 264.35 435.15 264.35 435.15 244.85
Q 435.15 239.05 434.85 237.2 434.6 235.3 433.8 233.65 432.85 231.5 430.4 230 427.9 228.5 424.95 228.5 421.4 228.5 417.9 230.75 414.35 233.05 411.85 237.05
L 411.85 213.9
M 481 232.35
L 481 237.2 489.7 237.2 489.7 251.25
Q 489.7 257 491.3 259.75 492.8 262.5 495.85 263.9 498.9 265.3 502.55 265.3
L 506.1 265
Q 507.95 264.65 512.05 262.95
L 512.05 257.8
Q 507.4 260.5 503.15 260.5 500.9 260.5 499.2 259.65 497.55 258.85 496.55 257.15 495.55 255.4 495.55 251.15
L 495.55 237.2 511.05 237.2 511.05 232.35 495.55 232.35 495.55 218.3 489.7 218.3 489.7 232.35 481 232.35
M 460.9 228.95
Q 455.15 228.95 451.3 231.75 447.4 234.5 445.1 239.25 442.8 244 442.8 250.05 442.8 257.75 446.3 261.55 449.75 265.3 454.15 265.3 457.25 265.3 461 263.1 464.75 260.9 467.4 256.55 467.8 261.5 468.5 264.35
L 474.55 264.35
Q 473.25 260.4 473.25 254.1
L 473.25 229.45 460.9 228.95
M 452.7 237.95
Q 456.25 233.8 461.65 233.8 464.3 233.8 467.4 234.6
L 467.4 249.6
Q 464.8 254.25 461.55 257 458.25 259.75 455.5 259.75 453 259.75 451.05 257.1 449.1 254.5 449.1 249.3 449.1 242.1 452.7 237.95
M 666 246.55
Q 666 237.35 662.25 232.9 658.45 228.5 652.25 228.5 647.55 228.5 643.75 230.9 639.9 233.4 637.8 237.8 635.65 242.2 635.65 247 635.65 251.9 637.9 256.3 640.15 260.65 643.85 263 647.55 265.3 652.3 265.3 658.5 265.3 665.5 262.05
L 665.5 256.75
Q 658.65 260.5 653.05 260.5 649.9 260.5 647.4 259 644.95 257.5 643.45 254.5 641.9 251.45 641.9 247.8
L 666 247.8 666 246.55
M 652 233.3
Q 655.5 233.3 657.55 235.85 659.65 238.4 659.65 242.65
L 659.65 243.5 642.25 243.5
Q 643.3 238.5 645.9 235.9 648.45 233.3 652 233.3
M 723.45 219.75
Q 724.8 220.7 725.95 220.7 727.15 220.7 728.5 219.75 729.85 218.75 729.85 216.85 729.85 214.9 728.5 213.9 727.15 212.95 725.95 212.95 724.8 212.95 723.45 213.9 722.1 214.9 722.1 216.85 722.1 218.75 723.45 219.75
M 738.55 264.35
L 738.55 259.5 728.85 259.5 728.85 229.45 713.35 229.45 713.35 234.3 723.05 234.3 723.05 264.35 738.55 264.35
M 777.75 235.4
L 777.75 230.1
Q 772.75 228.5 767.2 228.5 759.7 228.5 756.35 231.25 753 234.05 753 238.35 753 241.4 754.75 243.55 756.45 245.7 762.95 248.25
L 768.95 250.65
Q 772.55 252.1 773.45 253.1 774.35 254.1 774.35 255.5 774.35 257.65 772.45 259.05 770.5 260.5 766.1 260.5 763.35 260.5 759.45 259.55 755.55 258.65 752.05 256.35
L 752.05 262.5
Q 759.1 265.3 765.8 265.3 773.45 265.3 776.95 262.4 780.45 259.5 780.45 254.95 780.45 251.5 778.25 249.15 776.1 246.85 770.65 244.9
L 766.7 243.45
Q 762.7 242 760.9 240.85 759.1 239.75 759.1 237.85 759.1 235.9 761.2 234.65 763.25 233.3 766.95 233.3 772 233.3 777.75 235.4
M 380.35 218.3
L 374.5 218.3 374.5 232.35 365.8 232.35 365.8 237.2 374.5 237.2 374.5 251.25
Q 374.5 257 376.1 259.75 377.6 262.5 380.65 263.9 383.7 265.3 387.35 265.3
L 390.9 265
Q 392.75 264.65 396.85 262.95
L 396.85 257.8
Q 392.2 260.5 387.95 260.5 385.7 260.5 384 259.65 382.35 258.85 381.35 257.15 380.35 255.4 380.35 251.15
L 380.35 237.2 395.85 237.2 395.85 232.35 380.35 232.35 380.35 218.3
M 239.8 221
Q 238.35 218.45 235.5 217.15 232.6 215.85 224.05 215.85
L 214.6 215.85 214.6 264.35 226.35 264.35
Q 233.25 264.35 236.35 262.75 239.5 261.1 241.25 258.05 242.95 255.05 242.95 251.8 242.95 248.45 240.9 245.05 238.85 241.7 233.1 239.4 236.25 237.7 237.9 235.8 239.55 233.9 240.4 231.65 241.25 229.3 241.25 226.75 241.25 223.5 239.8 221
M 225.3 220.7
Q 231.15 220.7 233.15 222.4 235.15 224.05 235.15 227.5 235.15 229.75 234.45 231.55 233.7 233.4 232.25 234.85 230.75 236.35 227.5 237.7
L 220.9 237.7 220.9 220.7 225.3 220.7
M 220.9 242.55
L 222.65 242.55
Q 228.5 242.55 231.25 243.75 234 244.95 235.35 247 236.65 249.05 236.65 251.5 236.65 254.8 234.25 257.15 231.85 259.5 226.85 259.5
L 220.9 259.5 220.9 242.55
M 257.9 229.45
L 252.05 229.45 252.05 248.95
Q 252.05 256.7 253.05 259.4 254.05 262.05 256.65 263.7 259.15 265.3 262.25 265.3 265.65 265.3 269.1 263.15 272.55 261 275.35 256.7
L 275.35 264.35 281.15 264.35 281.15 229.45 275.35 229.45 275.35 249.8
Q 273.05 254.2 269.55 257.1 266 260 262.95 260 261.45 260 260.15 258.95 258.85 257.9 258.4 256.3 257.9 254.7 257.9 249.65
L 257.9 229.45
M 303.55 218.3
L 297.7 218.3 297.7 232.35 289 232.35 289 237.2 297.7 237.2 297.7 251.25
Q 297.7 257 299.3 259.75 300.8 262.5 303.85 263.9 306.9 265.3 310.55 265.3
L 314.1 265
Q 315.95 264.65 320.05 262.95
L 320.05 257.8
Q 315.4 260.5 311.15 260.5 308.9 260.5 307.2 259.65 305.55 258.85 304.55 257.15 303.55 255.4 303.55 251.15
L 303.55 237.2 319.05 237.2 319.05 232.35 303.55 232.35 303.55 218.3 Z"/>
</g>

<path id="Layer10_0_1_STROKES" stroke="#FFFFFF" stroke-opacity="0.22745098039215686" stroke-width="6" stroke-linejoin="round" stroke-linecap="round" fill="none" d="
M 1480.4 340.1
Q 1409.2 363.35 1400.95 389.1 1393.8 411.45 1434.1 433.2 1469.5 452.35 1532.4 466.75 1591.2 480.25 1648.4 484.05 1721.7 489.15 1804.45 473.75 1842.1 466.75 1874.5 456.55 1906.95 446.3 1929.15 434.4 1952.1 422.05 1960.75 409.7 1969.9 396.6 1961.75 384.9 1943.15 358.25 1841.65 344.2
M -40 415.5
Q -18.8 412.15 1.6 408.7 93.35 393 206.25 389.85 440.5 383.25 590.25 395.6 739.95 407.95 822.9 399.6 878.45 394.95 1025.45 418.05 1172.45 441.1 1321.35 481.55 1470.2 522 1574.35 522.8 1616.55 523.1 1780.25 587.1 1810.1 598.75 1911.45 639.6 1986.55 669.85 2018.75 681.45 2049.2 692.4 2103.35 722.1 2111.95 726.85 2150.05 748.15 2179.2 764.45 2197.3 774 2251.5 802.65 2286 813.25 2330.05 826.8 2354.85 815.95"/>

<path id="Layer9_0_1_STROKES" stroke="#FFFFFF" stroke-width="6" stroke-linejoin="round" stroke-linecap="round" fill="none" d="
M -66.25 474.25
Q -45.05 470.9 -24.65 467.45 67.1 451.75 180 448.6 414.25 442 564 454.35 713.7 466.7 796.65 458.35 852.1974609375 453.70390625 999.2 476.775 1146.2068359375 499.8373046875 1295.075 540.3 1443.9455078125 580.7615234375 1548.075 581.525 1590.3 581.85 1754 645.85 1783.85 657.5 1885.2 698.35 1960.3 728.6 1992.5 740.2 2022.95 751.15 2077.1 780.85 2085.7 785.6 2123.8 806.9 2152.95 823.2 2171.05 832.75 2225.25 861.4 2259.75 872 2303.8 885.55 2328.6 874.7"/>

<path id="Layer5_1_1_STROKES" stroke="#FFFFFF" stroke-width="4" stroke-linejoin="round" stroke-linecap="round" fill="none" d="
M 659.4867919921875 553.3350830078125
L 659.4867919921875 828.0013427734375 456.9095947265625 952.2510009765626 144.8124755859375 891.5991455078126 144.8124755859375 602.289794921875 370.65399169921875 502.3442016601563 659.4867919921875 553.3350830078125 Z
M 659.4867919921875 553.3350830078125
L 456.9095947265625 652.2842529296875 456.9095947265625 952.2510009765626
M 144.8124755859375 602.289794921875
L 456.9095947265625 652.2842529296875"/>

<path id="science_button_in_water_0_Layer2_0_1_STROKES" stroke="#999999" stroke-width="6" stroke-linejoin="round" stroke-linecap="round" fill="none" d="
M -0.6 95.3
L -0.6 95
Q -0.6 76.8 40.15 63.85 81 50.95 138.65 50.95 196.35 50.95 237.15 63.85 277.9 76.8 277.9 95
L 277.9 95.3 277.9 169.65
M -0.6 169.65
L -0.6 95.3
Q -0.25 113.35 40.15 126.15 81 139 138.65 139 196.35 139 237.15 126.15 277.55 113.35 277.9 95.3"/>

<path id="science_button_cap_1_0_Layer1_0_1_STROKES" stroke="#FFFFFF" stroke-width="6" stroke-linejoin="round" stroke-linecap="round" fill="none" d="
M 209.1 85.475
L 196.55 75.9 172.7 65.8
M 186.4 105.7
L 201.8 95.35 206.375 89.2 209.1 85.475 209.1 85.45 209.15 85.55 209.15 123.5 202.5 130.8 187.3 139.8 154.25 148.7 117.3 152.35 71.9 151 30 142.7 11.25 133.1 0 122.5 0 85.55 12.5 74.5 31.05 66.75 75.5 58.65 129.45 58.6 172.7 65.8
M 206.375 89.2
L 209.15 85.55 209.1 85.475
M 154.25 114.55
L 186.4 105.7
M 0 85.55
L 11.25 96.8 30 108.55 71.7 116.85 117.3 118.2 154.25 114.55"/>

<path id="science_button_cap_1_0_Layer0_0_1_STROKES" stroke="#FFFFFF" stroke-width="6" stroke-linejoin="round" stroke-linecap="round" fill="none" d="
M 177.25 43.9
L 191.25 23.6
M 224.8 79.45
L 247.65 64.25
M 103.65 36.3
L 103.65 17.25
M 33.6 45.5
L 20.9 23.9
M -14.35 76.25
L -33.4 58.45"/>

<path id="science_button_1_0_Layer2_0_1_STROKES" stroke="#999999" stroke-width="6" stroke-linejoin="round" stroke-linecap="round" fill="none" d="
M -0.6 95.3
L -0.6 95
Q -0.6 76.8 40.15 63.85 81 50.95 138.65 50.95 196.35 50.95 237.15 63.85 277.9 76.8 277.9 95
L 277.9 95.3 277.9 169.65
Q 277.9 187.85 237.15 200.75 196.35 213.6 138.65 213.6 81 213.6 40.15 200.75 -0.6 187.85 -0.6 169.65
L -0.6 95.3
Q -0.25 113.35 40.15 126.15 81 139 138.65 139 196.35 139 237.15 126.15 277.55 113.35 277.9 95.3"/>
</defs>

<g transform="matrix( 1, 0, 0, 1, 0,0) ">
<use xlink:href="#Layer11_0_FILL"/>
</g>

<g transform="matrix( 1, 0, 0, 1, 0,0) ">
<use xlink:href="#Layer10_0_1_STROKES"/>
</g>

<g transform="matrix( 1, 0, 0, 1, 0,0) ">
<use xlink:href="#Layer9_0_FILL"/>

<use xlink:href="#Layer9_0_1_STROKES"/>
</g>

<g transform="matrix( 1, 0, 0, 1, 0,0) ">
<use xlink:href="#Layer8_0_STROKES_1_FILL"/>
</g>

<g transform="matrix( 1, 0, 0, 1, 0,0) ">
<use xlink:href="#Layer5_0_STROKES_1_FILL"/>
</g>

<g transform="matrix( 0.866455078125, 0, 0, 0.866455078125, -22.5,314.8) ">
<use xlink:href="#Layer5_1_FILL"/>

<use xlink:href="#Layer5_1_1_STROKES" transform="matrix( 1.15411376953125, 0, 0, 1.15411376953125, 25.95,-363.3) "/>
</g>

<g transform="matrix( 1.5786895751953125, 0, 0, 1.5786895751953125, 1463.6,124.4) ">
<g transform="matrix( 1, 0, 0, 1, 0,0) ">
<use xlink:href="#science_button_in_water_0_Layer2_0_FILL"/>

<use xlink:href="#science_button_in_water_0_Layer2_0_1_STROKES"/>
</g>

<g transform="matrix( 1, 0, 0, 1, 35,-37.05) ">
<g transform="matrix( 1, 0, 0, 1, 0,0) ">
<use xlink:href="#science_button_cap_1_0_Layer1_0_FILL"/>

<use xlink:href="#science_button_cap_1_0_Layer1_0_1_STROKES"/>
</g>

<g transform="matrix( 1, 0, 0, 1, 0,0) ">
<use xlink:href="#science_button_cap_1_0_Layer0_0_1_STROKES"/>
</g>
</g>
</g>

<g transform="matrix( 1, 0, 0, 1, 1043.8,746) ">
<g transform="matrix( 1, 0, 0, 1, 0,0) ">
<use xlink:href="#science_button_1_0_Layer2_0_FILL"/>

<use xlink:href="#science_button_1_0_Layer2_0_1_STROKES"/>
</g>

<g transform="matrix( 1, 0, 0, 1, 34.05,-31.45) ">
<g transform="matrix( 1, 0, 0, 1, 0,0) ">
<use xlink:href="#science_button_cap_1_0_Layer1_0_FILL"/>

<use xlink:href="#science_button_cap_1_0_Layer1_0_1_STROKES"/>
</g>

<g transform="matrix( 1, 0, 0, 1, 0,0) ">
<use xlink:href="#science_button_cap_1_0_Layer0_0_1_STROKES"/>
</g>
</g>
</g>

<g transform="matrix( 1, 0, 0, 1, 0,0) ">
<use xlink:href="#Layer1_0_FILL"/>
</g>
</svg>
