
<svg xmlns="http://www.w3.org/2000/svg" version="1.1" xmlns:xlink="http://www.w3.org/1999/xlink" preserveAspectRatio="none" x="0px" y="0px" width="2196px" height="1100px" viewBox="0 0 2196 1100">
<defs>
<radialGradient id="Gradient_1" gradientUnits="userSpaceOnUse" cx="0" cy="0" r="2034.3500000000004" fx="0" fy="0" gradientTransform="matrix( 0.9999999999999999, 0, 0, 0.9999999999999999, 976.1,555.15) " spreadMethod="pad">
<stop  offset="0%" stop-color="#00324D"/>

<stop  offset="14.509803921568627%" stop-color="#000509"/>

<stop  offset="100%" stop-color="#00131E"/>
</radialGradient>

<g id="Layer11_0_FILL">
<path fill="url(#Gradient_1)" stroke="none" d="
M 2416.45 -40.45
Q 2403.35 -271.75 2380 -272 1797.65 -278.35 846.8 -278.55 426 -278.65 166 -277.05 -118 -275.3 -120 -272
L -110 1168 2430 1208
Q 2431.1 1115.55 2431.75 976.85 2432.95 699.55 2430.45 468.3 2426.95 144.6 2416.45 -40.45 Z"/>
</g>

<g id="Layer6_0_STROKES_1_FILL">
<path fill="#FFFFFF" fill-opacity="0.3764705882352941" stroke="none" d="
M 1138.85 507.85
Q 1137.4068359375 507.0580078125 1135.8 507.5 1133.1744140625 508.237109375 1130.45 508.9 1128.8587890625 509.34453125 1128 510.75 1127.1578125 512.2015625 1127.55 513.8 1127.9927734375 515.4009765625 1129.4 516.25 1130.841796875 517.090234375 1132.4 516.65 1135.225390625 515.962890625 1137.95 515.2 1139.56484375 514.746875 1140.35 513.3 1141.1939453125 511.859765625 1140.75 510.25 1140.298828125 508.6880859375 1138.85 507.85
M 1154.5 509.45
Q 1155.946484375 510.2447265625 1157.5 509.75 1162.46328125 508.325 1167.15 506.85 1168.7287109375 506.372265625 1169.5 504.9 1170.2712890625 503.4279296875 1169.75 501.85 1169.273828125 500.273046875 1167.8 499.5 1166.326171875 498.7302734375 1164.75 499.2 1160.1369140625 500.6748046875 1155.25 502.1 1153.6958984375 502.5947265625 1152.9 504.05 1152.1048828125 505.498828125 1152.55 507.05 1153.0443359375 508.65625 1154.5 509.45
M 1183.7 492.85
Q 1182.1541015625 493.44375 1181.45 494.95 1180.726953125 496.446875 1181.25 498 1181.8427734375 499.54609375 1183.35 500.25 1184.8466796875 500.9720703125 1186.4 500.4 1191.3392578125 498.65 1195.9 496.85 1197.473046875 496.2814453125 1198.15 494.75 1198.823828125 493.24921875 1198.2 491.7 1197.63359375 490.1669921875 1196.1 489.5 1194.6091796875 488.828125 1193.05 489.4 1188.5607421875 491.15 1183.7 492.85
M 1223.55 476.7
Q 1221.9822265625 476.2431640625 1220.5 477 1216.308984375 479.273828125 1211.75 481.4 1210.24453125 482.143359375 1209.65 483.7 1209.126953125 485.2529296875 1209.85 486.75 1210.55390625 488.2572265625 1212.1 488.8 1213.651171875 489.38359375 1215.15 488.65 1219.891015625 486.4259765625 1224.25 484.05 1225.73671875 483.283984375 1226.2 481.7 1226.708203125 480.1291015625 1225.9 478.65 1225.1353515625 477.21015625 1223.55 476.7
M 1245.15 461.05
Q 1241.4197265625 464.0486328125 1237.25 466.9 1235.9162109375 467.878125 1235.6 469.5 1235.32890625 471.119140625 1236.25 472.45 1237.2248046875 473.833984375 1238.85 474.1 1240.46875 474.417578125 1241.8 473.45 1246.180078125 470.451171875 1250.1 467.3 1251.4265625 466.2900390625 1251.6 464.65 1251.811328125 463.0181640625 1250.75 461.7 1249.741796875 460.4205078125 1248.1 460.2 1246.4708984375 460.0404296875 1245.15 461.05
M 1267.9 438.75
Q 1266.2943359375 438.98359375 1265.3 440.3 1262.34609375 444.2205078125 1259.15 447.85 1258.0513671875 449.1009765625 1258.15 450.75 1258.255078125 452.4 1259.5 453.5 1260.7490234375 454.601171875 1262.4 454.5 1264.047265625 454.39296875 1265.15 453.15 1268.5537109375 449.2796875 1271.7 445.1 1272.6904296875 443.761328125 1272.45 442.1 1272.2212890625 440.494140625 1270.9 439.5 1269.5662109375 438.509375 1267.9 438.75
M 1287.05 418.45
Q 1287.7212890625 416.9634765625 1287.1 415.4 1286.53515625 413.88125 1285 413.2 1283.5140625 412.5263671875 1281.95 413.1 1280.43359375 413.7154296875 1279.75 415.2 1277.758984375 419.6966796875 1275.5 423.9 1274.7431640625 425.3970703125 1275.2 426.95 1275.7119140625 428.55 1277.15 429.3 1278.6443359375 430.1083984375 1280.2 429.6 1281.7984375 429.1353515625 1282.55 427.65 1284.9408203125 423.2033203125 1287.05 418.45
M 1296.9 389.95
Q 1297.3416015625 388.365625 1296.5 386.9 1295.697265625 385.4869140625 1294.1 385.05 1292.5123046875 384.60625 1291.05 385.4 1289.6390625 386.2494140625 1289.2 387.85 1287.873828125 392.7083984375 1286.45 397.1 1285.9419921875 398.6966796875 1286.7 400.15 1287.4560546875 401.6451171875 1289 402.15 1290.5974609375 402.6591796875 1292.05 401.9 1293.54375 401.14453125 1294.05 399.55 1295.5259765625 394.9916015625 1296.9 389.95
M 1300 373.05
Q 1301.4296875 372.1865234375 1301.8 370.55 1302.8625 365.85078125 1303.9 360.8 1304.2611328125 359.2126953125 1303.35 357.8 1302.441015625 356.4390625 1300.8 356.1 1299.2119140625 355.75 1297.8 356.65 1296.4279296875 357.558203125 1296.05 359.15 1295.0375 364.14921875 1294 368.8 1293.6373046875 370.4287109375 1294.5 371.8 1295.414453125 373.23125 1297 373.6 1298.6298828125 373.9640625 1300 373.05 Z"/>
</g>

<g id="Layer5_0_FILL">
<path fill="#FFFFFF" stroke="none" d="
M 1159.85 287.95
Q 1156.7 283.6 1156.5 276.45
L 1190.75 276.45
Q 1190.75 269.35 1190.05 266.05 1189.25 261.35 1186.9 257.75 1184.45 254.05 1179.8 251.7 1175.1 249.35 1170.1 249.35 1160.25 249.35 1154.15 256.4 1148 263.5 1148 274.8 1148 286.35 1154.1 292.75 1160.15 299.1 1168.9 299.1 1172.45 299.1 1175.3 298.4 1180.6 297.2 1184.15 293.65 1186.3 291.65 1188.05 288.5 1189.75 285.3 1190.1 282.7
L 1182.3 282.7
Q 1181.45 285.8 1179.4 288.2 1175.75 292.3 1169.6 292.3 1163 292.3 1159.85 287.95
M 1160.55 260.2
Q 1164.25 256.25 1169.65 256.25 1177.15 256.25 1180.35 261.95 1182.1 265 1182.6 270.15
L 1156.7 270.15
Q 1156.9 264.1 1160.55 260.2
M 1269.55 250.4
L 1260.4 250.4 1277.75 297.45 1286.15 297.45 1303.9 250.4 1295.25 250.4 1282.15 288.7 1269.55 250.4
M 1253.75 250.6
L 1245.7 250.6 1245.7 297.45 1253.75 297.45 1253.75 250.6
M 1233.9 232.9
L 1225.95 232.9 1225.95 297.45 1233.9 297.45 1233.9 232.9
M 1245.7 232.9
L 1245.7 241.85 1253.75 241.85 1253.75 232.9 1245.7 232.9
M 1107.35 232.9
L 1097.9 232.9 1083.3 285.3 1071.15 232.9 1061.65 232.9 1078.55 297.45 1087.75 297.45 1102.7 243.9 1117.6 297.45 1126.8 297.45 1143.75 232.9 1134.15 232.9 1121.95 285.45 1107.35 232.9
M 1493.55 250.4
L 1486 250.4 1486 297.45 1493.95 297.45 1493.95 270.4
Q 1493.95 265.35 1497.15 261.55 1500.35 257.7 1506.3 257.7
L 1507.65 257.7 1508.9 257.9 1508.9 249.55 1507.1 249.35
Q 1506.75 249.35 1506.35 249.35 1501.65 249.35 1498.05 252.75 1494.45 256.15 1493.55 258.5
L 1493.55 250.4
M 1551.95 257.75
Q 1549.5 254.05 1544.85 251.7 1540.15 249.35 1535.15 249.35 1525.3 249.35 1519.2 256.4 1513.05 263.5 1513.05 274.8 1513.05 286.35 1519.15 292.75 1525.2 299.1 1533.95 299.1 1537.5 299.1 1540.35 298.4 1545.65 297.2 1549.2 293.65 1551.35 291.65 1553.1 288.5 1554.8 285.3 1555.15 282.7
L 1547.35 282.7
Q 1546.5 285.8 1544.45 288.2 1540.8 292.3 1534.65 292.3 1528.05 292.3 1524.9 287.95 1521.75 283.6 1521.55 276.45
L 1555.8 276.45
Q 1555.8 269.35 1555.1 266.05 1554.3 261.35 1551.95 257.75
M 1545.4 261.95
Q 1547.15 265 1547.65 270.15
L 1521.75 270.15
Q 1521.95 264.1 1525.6 260.2 1529.3 256.25 1534.7 256.25 1542.2 256.25 1545.4 261.95
M 1319.8 287.95
Q 1316.65 283.6 1316.45 276.45
L 1350.7 276.45
Q 1350.7 269.35 1350 266.05 1349.2 261.35 1346.85 257.75 1344.4 254.05 1339.75 251.7 1335.05 249.35 1330.05 249.35 1320.2 249.35 1314.1 256.4 1307.95 263.5 1307.95 274.8 1307.95 286.35 1314.05 292.75 1320.1 299.1 1328.85 299.1 1332.4 299.1 1335.25 298.4 1340.55 297.2 1344.1 293.65 1346.25 291.65 1348 288.5 1349.7 285.3 1350.05 282.7
L 1342.25 282.7
Q 1341.4 285.8 1339.35 288.2 1335.7 292.3 1329.55 292.3 1322.95 292.3 1319.8 287.95
M 1320.5 260.2
Q 1324.2 256.25 1329.6 256.25 1337.1 256.25 1340.3 261.95 1342.05 265 1342.55 270.15
L 1316.65 270.15
Q 1316.85 264.1 1320.5 260.2
M 1444.9 287.95
Q 1441.75 283.6 1441.55 276.45
L 1475.8 276.45
Q 1475.8 269.35 1475.1 266.05 1474.3 261.35 1471.95 257.75 1469.5 254.05 1464.85 251.7 1460.15 249.35 1455.15 249.35 1445.3 249.35 1439.2 256.4 1433.05 263.5 1433.05 274.8 1433.05 286.35 1439.15 292.75 1445.2 299.1 1453.95 299.1 1457.5 299.1 1460.35 298.4 1465.65 297.2 1469.2 293.65 1471.35 291.65 1473.1 288.5 1474.8 285.3 1475.15 282.7
L 1467.35 282.7
Q 1466.5 285.8 1464.45 288.2 1460.8 292.3 1454.65 292.3 1448.05 292.3 1444.9 287.95
M 1445.6 260.2
Q 1449.3 256.25 1454.7 256.25 1462.2 256.25 1465.4 261.95 1467.15 265 1467.65 270.15
L 1441.75 270.15
Q 1441.95 264.1 1445.6 260.2
M 1393.6 232.65
L 1385.7 232.65 1385.7 297.45 1393.6 297.45 1393.6 272.5
Q 1393.6 263.1 1397.6 259.7 1401.6 256.3 1406.55 256.3 1412.45 256.3 1414.6 260.2 1415.95 262.6 1415.95 267.8
L 1415.95 297.45 1424.05 297.45 1424.05 267.25
Q 1424.05 260.3 1422.1 256.4 1418.45 249.25 1408.2 249.25 1402.5 249.25 1398.65 251.75 1396.4 253.2 1393.6 256.75
L 1393.6 232.65 Z"/>
</g>

<path id="Layer10_0_1_STROKES" stroke="#FFFFFF" stroke-opacity="0.06666666666666667" stroke-width="6" stroke-linejoin="round" stroke-linecap="round" fill="none" d="
M 1718 -310
Q 1721.15 -292.5 1728.15 -265.45 1742.2 -211.4 1761.75 -163.75 1789.1 -97.05 1823.45 -52.65 1866.45 2.8 1918 20 1969.9 37.3 2005.65 29.7 2034.2 23.6 2056.75 0 2064.95 -8.55 2074.75 -22 2080.3 -29.6 2090.95 -44.7 2110.45 -71.2 2128 -80 2166.1 -99.05 2231.75 -198.75 2253.7 -232.1 2275.65 -269.85 2291.85 -297.7 2298 -310
M 2428 -80
Q 2411.15 -78.75 2385.35 -74.7 2333.8 -66.55 2289.25 -52.5 2226.9 -32.8 2187.55 -4.05 2138.3 31.9 2128 80 2120.5 115 2108 172.35 2098.7 216.65 2095.5 241.25 2091.6 271.35 2094.25 289.55 2097.1 309.1 2108 320 2117.2 329.2 2122.05 351.9 2123.05 356.45 2125.95 372.75 2128.35 386.5 2130.5 395 2137.15 421.5 2150.2 438.15 2167.15 459.7 2198 470 2254.25 488.75 2371.75 516.25 2430.5 530 2478 540
M 1586.3 -345.5
Q 1594.35 -334.15 1607.3 -299 1633.3 -228.8 1658 -110 1660.15 -99.7 1668.25 -80.5 1677.3 -59.2 1688.9 -38.6 1719.7 15.85 1748 30 1803.55 57.8 1847.95 98.5 1886.1 133.45 1908 170 1924.65 197.8 1952.2 230.8 1970.7 252.9 1972.85 255.6 1984.05 269.5 1991.75 281.25 2011.35 311.2 2021.9 348.6 2034.5 393.25 2038 460 2044.55 584.7 1976.75 661.25 1951.15 690.15 1912.85 714.55 1890.5 728.75 1848 750 1798 775 1715.8 845.8 1633.6 916.6 1580 944.45 1526.4 972.3 1508 1130
M 1466.25 -332.15
L 1482.5 -305.35
Q 1502.25 -271.8 1519.8 -237.85 1575.8 -129.45 1588.3 -58.55 1593.2 -30.9 1598.1 4.9 1601.5 29.5 1603.8 37.3 1606.9 47.8 1614.75 56.8 1619.45 62.15 1640.3 81.5 1650.3 90.8 1683.7 114.8 1715.3 137.55 1732.35 154.35 1758.4 180.05 1771.95 209.7 1788.35 245.55 1788.35 290.55 1788.35 326.1 1790.3 369.35 1792.2 410.5 1792.1 423.7 1791.85 448.85 1787.45 471 1782.55 495.6 1770.3 528.5 1757.45 563.05 1729.8 609.95 1701.7 657.55 1668.3 701.15 1632 748.4 1599.25 777.75 1562.55 810.65 1536.25 815.4 1524.2 817.6 1505.3 817.85 1499.35 817.95 1469.6 817.6 1420.7 817.1 1393.25 823.2 1351.1 832.55 1237.45 899.1 1123.8 965.6 1128 1130
M 1312.6 -331.35
Q 1345.2 -319.15 1371.8 -305.15 1459.7 -258.65 1498.45 -185.35 1519 -146.6 1530.8 -98.65 1536.8 -74.45 1547.05 -12.15 1556.4 44.6 1570.2 87.25 1584 130.05 1614.9 175.75 1645.8 221.4 1661.4 278.1 1677 334.8 1655.05 346.1 1633.1 357.4 1617.75 371.1 1602.4 384.65 1598.5 446.6 1596.65 476.15 1599.95 504.6 1602.9 530.05 1610.7 559.55 1614.9 575.55 1605.35 598.95 1596.6 620.4 1578.2 643.75 1560.55 666.25 1539.15 684.05 1517.15 702.4 1498 710 1481.85 716.4 1444.8 724.35 1408.7 732.1 1366.8 738.3 1322.5 744.85 1288.1 747.2 1249.65 749.85 1232.8 746.5 1172.7 734.5 1120.7 740.2 1073.15 745.45 1037.05 764.85 1003.3 782.85 984.45 810.25 966.15 836.8 908 1130
M 828 -370
Q 810.5 -295 794.25 -212.5 761.75 -47.5 768 -10 781 68 798 127.5 825.6 224.05 858 250 874.95 263.55 884.25 279.85 890.9 291.45 895.5 308.75 901.9 332.75 903 335.8 908.25 350.25 918 360 926.95 368.95 965.15 382.75 976.45 386.85 1002.45 395.9 1027 404.55 1044.6 411.55 1096.25 432 1130.75 454.55 1175.55 483.8 1198 520 1230.15 571.8 1312.15 479.6 1338.1 450.45 1373.95 400.8 1383.2 387.95 1399.15 365.45 1411.95 347.55 1418 340 1449.6 300.55 1468 260 1488 216 1488 180 1488 162.2 1465.5 111.55 1445.15 65.75 1413 7.5 1381.5 -49.55 1353 -92.8 1322.45 -139.2 1308 -150 1291.3 -162.55 1270.8 -184.35 1247.25 -209.55 1228 -237.5 1178 -310.2 1178 -370
M 1238 -340
L 1256.9 -303.1
Q 1280.95 -258.1 1306.75 -217.5 1389.25 -87.5 1458 -50 1496.85 -28.8 1512.7 42.2 1526.65 104.7 1520.5 192.5 1514.8 273.95 1494.55 346.55 1474 420.3 1434.6 471.05 1427 480.85 1421.1 500.45 1419.45 506 1416.05 517.8 1412.85 528.45 1409.45 536.55 1400.2 558.95 1383.7 577.1 1362.95 600.1 1328 620 1293.55 639.6 1252.6 651.95 1222.4 661.1 1181.65 668 1138.4 674.55 1119.9 678 1088.7 683.8 1072 692 1057.4 699.15 1023.85 710.05 982.75 723.35 968.45 729 937.8 740.95 921.3 753.9 900.85 769.95 898 790 893.8 819.7 878.7 844.5 868.65 861.05 848.4 882.3 834.4 897 833.3 898.2 825.25 907 756 952.8 686.75 998.6 718 1130
M 953.9 -368.05
Q 954.35 -356.95 953.9 -339.3 953 -303.85 948.55 -270.45 934.3 -163.5 889.75 -116.65 877.8 -104.05 869.75 -82.5 861.25 -59.8 858.55 -30.7 852.3 36.55 877.35 115.35 883.65 135.45 910.75 158.25 938.2 181.3 981.4 238.35 1024.45 295.2 1104.15 293.6 1121.85 293.25 1145.2 298.15 1160.3 301.35 1185.75 308.75 1212 316.5 1221 318.5 1238 322.25 1246.35 320.2 1318.2 302.5 1348.65 261.6 1360.45 245.65 1368.45 223.2 1372.05 213.05 1380.05 182.9 1382.4 174.2 1387.35 165.35 1389.5 161.5 1396.4 151.05 1401.85 142.7 1404.2 137.4 1407.55 129.7 1407.7 121.85 1408.05 103.1 1389.55 74.6 1368.25 41.75 1317.65 -11.4 1280.5 -50.35 1222.75 -104.2 1195.35 -129.75 1185.3 -139.5 1166.85 -157.35 1155.15 -170.55 1127.6 -201.8 1119.35 -229.55 1110.1 -260.4 1119.75 -300.3
M 2380.1 1096.9
Q 2386.95 1086.4 2394.6 1070.1 2406.4 1044.85 2412.55 1019.9 2431 945.1 2394.05 895.4 2379.45 875.75 2368.8 869.05 2359.35 863.1 2344.95 863.1 2324.6 864.3 2309.35 864.7 2280.7 865.4 2253 789.5 2225.3 713.6 2132.6 763.3 2039.85 813 2020.15 822.25 2000.4 831.45 1983.6 839.35 1961.7 849.65 1960.55 851 1959.35 852.45 1951.95 864.25 1943.35 878.1 1935.3 891.95 1911.7 932.75 1910.25 944.35 1906.8 972.6 1916.95 1005.35 1926 1034.2 1944.4 1063.4 1960.95 1089.5 1981.3 1110.15 2000.7 1129.8 2016.45 1137.5 2023 1140.8 2031.25 1144.65 2045.05 1151.2 2048.7 1152.2 2142.85 1178.65 2230.7 1163.85 2258.4 1159.15 2287.5 1149.8 2292.6 1148.15 2306.75 1143.35 2316 1140.15 2319.65 1139.3 2358.35 1130.15 2380.1 1096.9 Z
M 2388 640
Q 2378.65 632.5 2362.85 623.3 2331.3 604.85 2299.25 596.25 2254.4 584.2 2215.05 593.6 2165.8 605.3 2128 650 2061.1 729.1 1944.25 786.25 1917.95 799.1 1867.85 820.15 1833.35 834.65 1828 840 1820.45 847.55 1805.65 883.9 1790.7 920.6 1776.75 966.25 1761.25 1016.95 1753.45 1057.95 1744.5 1105.45 1748 1130
M -22 940
Q 65.5 831.25 78.65 819.05 104.9 794.7 133 777.5 172.4 753.45 209.9 747.2 256.75 739.4 298 760 401.2 811.6 483 833.75 582.7 860.75 638 840 658 832.5 690.95 820.15 716.4 810.15 731.75 801.25 750.15 790.6 763.15 776.7 777.05 761.85 788 740 816 684 831.75 626.25 851.5 553.8 838 520 820.05 475.1 805.5 418.75 788 350.95 788 310 788 289.8 773.95 254.4 764.3 230.1 743 187.5 717.7 136.9 712.05 124.4 698 93.15 698 80 698 75 695.5 30 693 -15 693 -50 693 -165 718 -240 733.1 -285.3 739.1 -311.7 745.2 -338.55 744.25 -356.25 743.4 -372.15 736.3 -387.65 732.55 -395.7 718 -420
M 1294.75 105.35
Q 1301.2 89.85 1266.1 41.75 1233.75 -2.55 1183.15 -52.4 1131.05 -103.65 1090.95 -129.55 1045.6 -158.85 1034.55 -142.2 1020.05 -120.4 1009.1 -106.9 999.6 -96 997 -92.9 993.25 -88.45 991.15 -82.35 989.4 -77.35 984.5 -57.3 982.7 -50.05 976.65 -41.65 973 -36.65 964.45 -27.1 956 -17.75 952.8 -13.2 947.45 -5.6 946.7 0.45 943.25 28.7 953.4 61.45 962.45 90.3 980.85 119.5 997.4 145.6 1017.75 166.25 1037.15 185.9 1052.9 193.6 1056.2 195.25 1066.45 200.4 1076.65 205.3 1085.15 208.3 1110.15 217.1 1125.4 211.5 1147.45 203.6 1168.25 199.05 1181 196.3 1199.4 193.85 1216.25 191.6 1222.6 190 1233.45 187.3 1241.55 181.7 1259.5 169.35 1270.45 153.6 1281.2 138.1 1294.75 105.35 Z
M 262.8 -298.05
Q 271.25 -285.65 283.95 -264.45 309.3 -222 330.4 -177.75 398 -36.25 398 70 398 124.95 426.4 192.35 436.6 216.5 452.9 248.1 462.1 265.9 479.6 298.8 493.8 326.25 500.45 343.4 508.95 365.4 509.45 380.8 510.05 398.25 500.65 410.05 490.5 422.75 468 430 419.65 445.5 318.25 407.7 229.3 374.6 120.2 309.05 18.7 248 -57.7 185.2 -94.9 154.65 -117.8 129.9 -141.7 104.05 -147.2 87.55
M 207.1 281.7
Q 252.8 304.7 296.95 282.7 341.1 260.65 347.05 214.75 352.95 168.8 328.2 96.7 324.25 85.3 317.25 54.1 309.9 21.35 303.95 2.8 282.9 -62.65 238 -100 233.65 -103.65 209.5 -119.15 163.3 -148.8 160.3 -150.75 92.15 -195.15 86.5 -206.1 72.3 -233.6 48.8 -239.3 31.8 -243.55 13.7 -247.6 -9.95 -253 -11.7 -252.6 -13.5 -252.15 -26.65 -247.45 -41.9 -241.8 -56.75 -235.85 -100.45 -218.2 -108.75 -209.9 -128.85 -189.8 -140.95 -157.7 -151.6 -129.4 -155.05 -95.05 -158.05 -64.3 -154.7 -35.5 -151.5 -8.1 -143.8 7.7 -142.2 11 -137.3 21.4 -132.3 31.5 -127.45 39.15 -113.15 61.4 -97.65 66.4 -75.4 73.7 -56.2 82.95 -44.45 88.6 -28.45 98 -13.75 106.55 -7.75 109.2 2.45 113.75 12.3 114.3 16.3 114.6 34 130.95 60.7 155.7 111.05 207.2 161.35 258.7 207.1 281.7 Z
M 525.75 -394
Q 500.9 -325 548.15 -222.25 563.15 -189.7 588.45 -147.8 595 -136.95 606.5 -118.35 615.65 -103.4 619.55 -96 624.85 -87.95 628.45 -80.9 635.2 -67.45 636.05 -53.95 636.55 -39.1 632.8 -29.35 630.2 -22.8 623.55 -5.1 618.1 9.35 616.05 33.7 614 58.1 619 72 623.55 84.75 624.05 88.1 625.1 94.45 631.4 107.2 635 114.45 646.7 135.75 673.55 184.8 688.05 219.15 743.05 349.35 723.25 474.25 718.1 506.7 723.3 529.4 727.1 545.9 737.75 560.05 740.05 563.05 744.55 573.7 750.05 586.8 749.9 593.35 749.3 617.35 744.5 630.25 741.05 639.45 731.85 648.05 727.95 651.7 712.6 663.45 699.15 673.75 691.2 682.25 679.45 694.8 672.05 710.25 664.7 725.6 639.1 737.3 612.85 749.35 581.6 750.8 546.55 752.45 518.3 739.5 485.6 724.55 468 692.25 459.25 676.2 412.8 647.5 371.6 622.05 313.75 594.35 258.1 567.7 157.4 542.6 56.7 517.45 -62 640
M 411.95 -131.95
Q 413.2 -126.85 420.2 -117.4 424.4 -111.8 434.95 -98.3 456.1 -69.95 460.05 -45.9 461.1 -39.5 468.45 -27 473.25 -18.9 486.45 1.15 519.3 50.95 536.05 83.15 603 211.7 648.9 294.9 659.2 313.5 659.85 352.15 660.35 376.85 656.05 427.4 651.35 482.85 649.65 509.75 647.85 537.75 649.9 555.65 651.9 573.35 644.3 589.25 636.75 605.1 624.2 615.65 609.9 627.8 609.55 628.15 584.85 652.55 556.65 651.25 534.25 650.25 500.15 631.25 439.8 597.65 431.55 588.7 423.3 579.75 392.75 559 359.55 536.1 335.3 519.55 289.3 488.15 269.95 476.2 260.7 470.5 237.2 462.6 221.7 457.35 189.1 447.75 152.25 436.95 138.85 432.65 112.6 424.3 -82 350
M 608.05 1171.5
Q 614.9 1161 622.55 1144.7 634.35 1119.45 640.5 1094.5 658.95 1019.7 622 970 607.4 950.35 596.75 943.65 587.3 937.7 572.9 937.7 552.55 938.9 537.3 939.3 508.65 940 476.9 935.7 322.55 914.85 294.5 901.9 266.4 888.95 244.35 898.9 228.35 906.05 211.55 913.95 189.65 924.25 188.5 925.6 187.3 927.05 179.9 938.85 171.3 952.7 163.25 966.55 139.65 1007.35 138.2 1018.95 134.75 1047.2 144.9 1079.95 153.95 1108.8 172.35 1138 188.9 1164.1 209.25 1184.75 228.65 1204.4 244.4 1212.1 247.7 1213.75 257.95 1218.9 268.15 1223.8 276.65 1226.8 301.65 1235.6 316.9 1230 338.95 1222.1 359.75 1217.55 372.5 1214.8 390.9 1212.35 407.75 1210.1 414.1 1208.5 424.95 1205.8 433.05 1200.2 436.4 1197.9 460.4 1199.95 496.65 1203.05 511.55 1203.35 586.3 1204.75 608.05 1171.5 Z"/>

<path id="Layer7_0_1_STROKES" stroke="#FFFFFF" stroke-width="8" stroke-linejoin="round" stroke-linecap="round" fill="none" d="
M 1003.45 477.75
Q 999.65 478.5 992.8 478.5 979.35 478.5 974.7 480 963.55 483.75 954.7 487.25 939.95 493 938.35 495.4 936.15 498.7 931 509.55 925.3 521.55 923.65 527.4 922.9 529.95 920.05 550.25 917.55 567.8 915.05 571.7 911.95 576.45 918.05 597.6 924 618.15 928.5 622.15 934 627.05 951.05 635.4 970.6 644.95 979.6 644.95 986.45 644.95 1001.75 639.8 1016.6 634.8 1022.05 635.1 1030.25 635.55 1043.9 629.25 1057.4 623.05 1060.2 617.85 1062.85 613.05 1066.25 593.1 1069.45 574 1069.45 565.55 1069.45 562 1067.5 555 1066.45 551.25 1062.95 540.9
L 1058 525.65
Q 1055.5 517.25 1054.9 510.6 1054.3 503.95 1038.15 495 1021.85 486 1003.45 477.75 Z"/>

<path id="Layer6_0_1_STROKES" stroke="#FFFFFF" stroke-opacity="0.38823529411764707" stroke-width="8" stroke-linejoin="round" stroke-linecap="round" fill="none" d="
M 1126 492.6
L 1099.25 523.7 1139.95 530.65"/>
</defs>

<g transform="matrix( 1, 0, 0, 1, 0,0) ">
<use xlink:href="#Layer11_0_FILL"/>
</g>

<g transform="matrix( 1, 0, 0, 1, 0,0) ">
<use xlink:href="#Layer10_0_1_STROKES"/>
</g>

<g transform="matrix( 1, 0, 0, 1, 0,0) ">
<use xlink:href="#Layer7_0_1_STROKES"/>
</g>

<g transform="matrix( 1, 0, 0, 1, 28,0) ">
<use xlink:href="#Layer6_0_1_STROKES"/>

<use xlink:href="#Layer6_0_STROKES_1_FILL"/>
</g>

<g transform="matrix( 1, 0, 0, 1, 0,0) ">
<use xlink:href="#Layer5_0_FILL"/>
</g>
</svg>
