
<svg xmlns="http://www.w3.org/2000/svg" version="1.1" xmlns:xlink="http://www.w3.org/1999/xlink" preserveAspectRatio="none" x="0px" y="0px" width="2196px" height="1200px" viewBox="0 0 2196 1200">
<defs>
<radialGradient id="Gradient_1" gradientUnits="userSpaceOnUse" cx="0" cy="0" r="2034.3500000000004" fx="0" fy="0" gradientTransform="matrix( 0.9999999999999999, 0, 0, 0.9999999999999999, 884.1,677.15) " spreadMethod="pad">
<stop  offset="0%" stop-color="#00324D"/>

<stop  offset="14.509803921568627%" stop-color="#000509"/>

<stop  offset="100%" stop-color="#00131E"/>
</radialGradient>

<g id="Layer11_0_FILL">
<path fill="url(#Gradient_1)" stroke="none" d="
M 2338.45 590.3
Q 2334.95 266.6 2324.45 81.55 2311.35 -149.75 2288 -150 1705.65 -156.35 754.8 -156.55 334 -156.65 74 -155.05 -210 -153.3 -212 -150
L -202 1290 2338 1330
Q 2339.1 1237.55 2339.75 1098.85 2340.95 821.55 2338.45 590.3 Z"/>
</g>

<g id="Layer6_0_STROKES_1_FILL">
<path fill="#FFFFFF" fill-opacity="0.3764705882352941" stroke="none" d="
M 1138.85 507.85
Q 1137.4068359375 507.0580078125 1135.8 507.5 1133.1744140625 508.237109375 1130.45 508.9 1128.8587890625 509.34453125 1128 510.75 1127.1578125 512.2015625 1127.55 513.8 1127.9927734375 515.4009765625 1129.4 516.25 1130.841796875 517.090234375 1132.4 516.65 1135.225390625 515.962890625 1137.95 515.2 1139.56484375 514.746875 1140.35 513.3 1141.1939453125 511.859765625 1140.75 510.25 1140.298828125 508.6880859375 1138.85 507.85
M 1154.5 509.45
Q 1155.946484375 510.2447265625 1157.5 509.75 1162.46328125 508.325 1167.15 506.85 1168.7287109375 506.372265625 1169.5 504.9 1170.2712890625 503.4279296875 1169.75 501.85 1169.273828125 500.273046875 1167.8 499.5 1166.326171875 498.7302734375 1164.75 499.2 1160.1369140625 500.6748046875 1155.25 502.1 1153.6958984375 502.5947265625 1152.9 504.05 1152.1048828125 505.498828125 1152.55 507.05 1153.0443359375 508.65625 1154.5 509.45
M 1183.7 492.85
Q 1182.1541015625 493.44375 1181.45 494.95 1180.726953125 496.446875 1181.25 498 1181.8427734375 499.54609375 1183.35 500.25 1184.8466796875 500.9720703125 1186.4 500.4 1191.3392578125 498.65 1195.9 496.85 1197.473046875 496.2814453125 1198.15 494.75 1198.823828125 493.24921875 1198.2 491.7 1197.63359375 490.1669921875 1196.1 489.5 1194.6091796875 488.828125 1193.05 489.4 1188.5607421875 491.15 1183.7 492.85
M 1223.55 476.7
Q 1221.9822265625 476.2431640625 1220.5 477 1216.308984375 479.273828125 1211.75 481.4 1210.24453125 482.143359375 1209.65 483.7 1209.126953125 485.2529296875 1209.85 486.75 1210.55390625 488.2572265625 1212.1 488.8 1213.651171875 489.38359375 1215.15 488.65 1219.891015625 486.4259765625 1224.25 484.05 1225.73671875 483.283984375 1226.2 481.7 1226.708203125 480.1291015625 1225.9 478.65 1225.1353515625 477.21015625 1223.55 476.7
M 1245.15 461.05
Q 1241.4197265625 464.0486328125 1237.25 466.9 1235.9162109375 467.878125 1235.6 469.5 1235.32890625 471.119140625 1236.25 472.45 1237.2248046875 473.833984375 1238.85 474.1 1240.46875 474.417578125 1241.8 473.45 1246.180078125 470.451171875 1250.1 467.3 1251.4265625 466.2900390625 1251.6 464.65 1251.811328125 463.0181640625 1250.75 461.7 1249.741796875 460.4205078125 1248.1 460.2 1246.4708984375 460.0404296875 1245.15 461.05
M 1267.9 438.75
Q 1266.2943359375 438.98359375 1265.3 440.3 1262.34609375 444.2205078125 1259.15 447.85 1258.0513671875 449.1009765625 1258.15 450.75 1258.255078125 452.4 1259.5 453.5 1260.7490234375 454.601171875 1262.4 454.5 1264.047265625 454.39296875 1265.15 453.15 1268.5537109375 449.2796875 1271.7 445.1 1272.6904296875 443.761328125 1272.45 442.1 1272.2212890625 440.494140625 1270.9 439.5 1269.5662109375 438.509375 1267.9 438.75
M 1287.05 418.45
Q 1287.7212890625 416.9634765625 1287.1 415.4 1286.53515625 413.88125 1285 413.2 1283.5140625 412.5263671875 1281.95 413.1 1280.43359375 413.7154296875 1279.75 415.2 1277.758984375 419.6966796875 1275.5 423.9 1274.7431640625 425.3970703125 1275.2 426.95 1275.7119140625 428.55 1277.15 429.3 1278.6443359375 430.1083984375 1280.2 429.6 1281.7984375 429.1353515625 1282.55 427.65 1284.9408203125 423.2033203125 1287.05 418.45
M 1296.9 389.95
Q 1297.3416015625 388.365625 1296.5 386.9 1295.697265625 385.4869140625 1294.1 385.05 1292.5123046875 384.60625 1291.05 385.4 1289.6390625 386.2494140625 1289.2 387.85 1287.873828125 392.7083984375 1286.45 397.1 1285.9419921875 398.6966796875 1286.7 400.15 1287.4560546875 401.6451171875 1289 402.15 1290.5974609375 402.6591796875 1292.05 401.9 1293.54375 401.14453125 1294.05 399.55 1295.5259765625 394.9916015625 1296.9 389.95
M 1300 373.05
Q 1301.4296875 372.1865234375 1301.8 370.55 1302.8625 365.85078125 1303.9 360.8 1304.2611328125 359.2126953125 1303.35 357.8 1302.441015625 356.4390625 1300.8 356.1 1299.2119140625 355.75 1297.8 356.65 1296.4279296875 357.558203125 1296.05 359.15 1295.0375 364.14921875 1294 368.8 1293.6373046875 370.4287109375 1294.5 371.8 1295.414453125 373.23125 1297 373.6 1298.6298828125 373.9640625 1300 373.05 Z"/>
</g>

<g id="Layer5_0_FILL">
<path fill="#FFFFFF" stroke="none" d="
M 1170.1 249.35
Q 1160.25 249.35 1154.15 256.4 1148 263.5 1148 274.8 1148 286.35 1154.1 292.75 1160.15 299.1 1168.9 299.1 1172.45 299.1 1175.3 298.4 1180.6 297.2 1184.15 293.65 1186.3 291.65 1188.05 288.5 1189.75 285.3 1190.1 282.7
L 1182.3 282.7
Q 1181.45 285.8 1179.4 288.2 1175.75 292.3 1169.6 292.3 1163 292.3 1159.85 287.95 1156.7 283.6 1156.5 276.45
L 1190.75 276.45
Q 1190.75 269.35 1190.05 266.05 1189.25 261.35 1186.9 257.75 1184.45 254.05 1179.8 251.7 1175.1 249.35 1170.1 249.35
M 1156.7 270.15
Q 1156.9 264.1 1160.55 260.2 1164.25 256.25 1169.65 256.25 1177.15 256.25 1180.35 261.95 1182.1 265 1182.6 270.15
L 1156.7 270.15
M 1295.25 250.4
L 1282.15 288.7 1269.55 250.4 1260.4 250.4 1277.75 297.45 1286.15 297.45 1303.9 250.4 1295.25 250.4
M 1253.75 250.6
L 1245.7 250.6 1245.7 297.45 1253.75 297.45 1253.75 250.6
M 1233.9 232.9
L 1225.95 232.9 1225.95 297.45 1233.9 297.45 1233.9 232.9
M 1245.7 241.85
L 1253.75 241.85 1253.75 232.9 1245.7 232.9 1245.7 241.85
M 1107.35 232.9
L 1097.9 232.9 1083.3 285.3 1071.15 232.9 1061.65 232.9 1078.55 297.45 1087.75 297.45 1102.7 243.9 1117.6 297.45 1126.8 297.45 1143.75 232.9 1134.15 232.9 1121.95 285.45 1107.35 232.9
M 1493.55 250.4
L 1486 250.4 1486 297.45 1493.95 297.45 1493.95 270.4
Q 1493.95 265.35 1497.15 261.55 1500.35 257.7 1506.3 257.7
L 1507.65 257.7 1508.9 257.9 1508.9 249.55 1507.1 249.35
Q 1506.75 249.35 1506.35 249.35 1501.65 249.35 1498.05 252.75 1494.45 256.15 1493.55 258.5
L 1493.55 250.4
M 1549.2 293.65
Q 1551.35 291.65 1553.1 288.5 1554.8 285.3 1555.15 282.7
L 1547.35 282.7
Q 1546.5 285.8 1544.45 288.2 1540.8 292.3 1534.65 292.3 1528.05 292.3 1524.9 287.95 1521.75 283.6 1521.55 276.45
L 1555.8 276.45
Q 1555.8 269.35 1555.1 266.05 1554.3 261.35 1551.95 257.75 1549.5 254.05 1544.85 251.7 1540.15 249.35 1535.15 249.35 1525.3 249.35 1519.2 256.4 1513.05 263.5 1513.05 274.8 1513.05 286.35 1519.15 292.75 1525.2 299.1 1533.95 299.1 1537.5 299.1 1540.35 298.4 1545.65 297.2 1549.2 293.65
M 1545.4 261.95
Q 1547.15 265 1547.65 270.15
L 1521.75 270.15
Q 1521.95 264.1 1525.6 260.2 1529.3 256.25 1534.7 256.25 1542.2 256.25 1545.4 261.95
M 1330.05 249.35
Q 1320.2 249.35 1314.1 256.4 1307.95 263.5 1307.95 274.8 1307.95 286.35 1314.05 292.75 1320.1 299.1 1328.85 299.1 1332.4 299.1 1335.25 298.4 1340.55 297.2 1344.1 293.65 1346.25 291.65 1348 288.5 1349.7 285.3 1350.05 282.7
L 1342.25 282.7
Q 1341.4 285.8 1339.35 288.2 1335.7 292.3 1329.55 292.3 1322.95 292.3 1319.8 287.95 1316.65 283.6 1316.45 276.45
L 1350.7 276.45
Q 1350.7 269.35 1350 266.05 1349.2 261.35 1346.85 257.75 1344.4 254.05 1339.75 251.7 1335.05 249.35 1330.05 249.35
M 1316.65 270.15
Q 1316.85 264.1 1320.5 260.2 1324.2 256.25 1329.6 256.25 1337.1 256.25 1340.3 261.95 1342.05 265 1342.55 270.15
L 1316.65 270.15
M 1455.15 249.35
Q 1445.3 249.35 1439.2 256.4 1433.05 263.5 1433.05 274.8 1433.05 286.35 1439.15 292.75 1445.2 299.1 1453.95 299.1 1457.5 299.1 1460.35 298.4 1465.65 297.2 1469.2 293.65 1471.35 291.65 1473.1 288.5 1474.8 285.3 1475.15 282.7
L 1467.35 282.7
Q 1466.5 285.8 1464.45 288.2 1460.8 292.3 1454.65 292.3 1448.05 292.3 1444.9 287.95 1441.75 283.6 1441.55 276.45
L 1475.8 276.45
Q 1475.8 269.35 1475.1 266.05 1474.3 261.35 1471.95 257.75 1469.5 254.05 1464.85 251.7 1460.15 249.35 1455.15 249.35
M 1441.75 270.15
Q 1441.95 264.1 1445.6 260.2 1449.3 256.25 1454.7 256.25 1462.2 256.25 1465.4 261.95 1467.15 265 1467.65 270.15
L 1441.75 270.15
M 1393.6 232.65
L 1385.7 232.65 1385.7 297.45 1393.6 297.45 1393.6 272.5
Q 1393.6 263.1 1397.6 259.7 1401.6 256.3 1406.55 256.3 1412.45 256.3 1414.6 260.2 1415.95 262.6 1415.95 267.8
L 1415.95 297.45 1424.05 297.45 1424.05 267.25
Q 1424.05 260.3 1422.1 256.4 1418.45 249.25 1408.2 249.25 1402.5 249.25 1398.65 251.75 1396.4 253.2 1393.6 256.75
L 1393.6 232.65 Z"/>
</g>

<path id="Layer10_0_1_STROKES" stroke="#FFFFFF" stroke-opacity="0.06666666666666667" stroke-width="6" stroke-linejoin="round" stroke-linecap="round" fill="none" d="
M 1626 -188
Q 1629.15 -170.5 1636.15 -143.45 1650.2 -89.4 1669.75 -41.75 1697.1 24.95 1731.45 69.35 1744.75 86.5 1758.9 100 1790.4 130.1 1826 142 1877.9 159.3 1913.65 151.7 1942.2 145.6 1964.75 122 1972.95 113.45 1982.75 100 1988.3 92.4 1998.95 77.3 2018.45 50.8 2036 42 2074.1 22.95 2139.75 -76.75 2161.7 -110.1 2183.65 -147.85 2199.85 -175.7 2206 -188
M 1374.25 -210.15
L 1390.5 -183.35
Q 1410.25 -149.8 1427.8 -115.85 1483.8 -7.45 1496.3 63.45 1499.25 80.25 1502.25 100 1504.15 112.8 1506.1 126.9 1509.5 151.5 1511.8 159.3 1514.9 169.8 1522.75 178.8 1527.45 184.15 1548.3 203.5 1558.3 212.8 1591.7 236.8 1623.3 259.55 1640.35 276.35 1666.4 302.05 1679.95 331.7 1696.35 367.55 1696.35 412.55 1696.35 448.1 1698.3 491.35 1700.2 532.5 1700.1 545.7 1699.85 570.85 1695.45 593 1690.55 617.6 1678.3 650.5 1665.45 685.05 1637.8 731.95 1609.7 779.55 1576.3 823.15 1540 870.4 1507.25 899.75 1470.55 932.65 1444.25 937.4 1432.2 939.6 1413.3 939.85 1407.35 939.95 1377.6 939.6 1328.7 939.1 1301.25 945.2 1259.1 954.55 1145.45 1021.1 1034.6 1085.95 1035.9 1244 1035.9 1247.95 1036 1282.05
M 1494.3 -223.5
Q 1502.35 -212.15 1515.3 -177 1541.3 -106.8 1566 12 1568.15 22.3 1576.25 41.5 1585.3 62.8 1596.9 83.4 1601.9 92.25 1606.85 100 1632.3 140.15 1656 152 1711.55 179.8 1755.95 220.5 1794.1 255.45 1816 292 1832.65 319.8 1860.2 352.8 1878.7 374.9 1880.85 377.6 1892.05 391.5 1899.75 403.25 1919.35 433.2 1929.9 470.6 1942.5 515.25 1946 582 1952.55 706.7 1884.75 783.25 1859.15 812.15 1820.85 836.55 1798.5 850.75 1756 872 1706 897 1623.8 967.8 1541.6 1038.6 1488 1066.45 1435.75 1093.6 1417 1244 1416.45 1247.95 1414 1290.05
M 736 -248
Q 718.5 -173 702.25 -90.5 674 52.9 675.05 100 675.2 107.1 676 112 689 190 706 249.5 733.6 346.05 766 372 782.95 385.55 792.25 401.85 798.9 413.45 803.5 430.75 809.9 454.75 811 457.8 816.25 472.25 826 482 834.95 490.95 873.15 504.75 884.45 508.85 910.45 517.9 935 526.55 952.6 533.55 1004.25 554 1038.75 576.55 1083.55 605.8 1106 642 1138.15 693.8 1220.15 601.6 1246.1 572.45 1281.95 522.8 1291.2 509.95 1307.15 487.45 1319.95 469.55 1326 462 1357.6 422.55 1376 382 1396 338 1396 302 1396 284.2 1373.5 233.55 1353.15 187.75 1321 129.5 1312.6 114.25 1304.4 100 1281.9 60.9 1261 29.2 1230.45 -17.2 1216 -28 1199.3 -40.55 1178.8 -62.35 1155.25 -87.55 1136 -115.5 1086 -188.2 1086 -248
M 1220.6 -209.35
Q 1253.2 -197.15 1279.8 -183.15 1367.7 -136.65 1406.45 -63.35 1427 -24.6 1438.8 23.35 1444.3 45.6 1453.45 100 1454.2 104.8 1455.05 109.85 1464.4 166.6 1478.2 209.25 1492 252.05 1522.9 297.75 1553.8 343.4 1569.4 400.1 1585 456.8 1563.05 468.1 1541.1 479.4 1525.75 493.1 1510.4 506.65 1506.5 568.6 1504.65 598.15 1507.95 626.6 1510.9 652.05 1518.7 681.55 1522.9 697.55 1513.35 720.95 1504.6 742.4 1486.2 765.75 1468.55 788.25 1447.15 806.05 1425.15 824.4 1406 832 1389.85 838.4 1352.8 846.35 1316.7 854.1 1274.8 860.3 1230.5 866.85 1196.1 869.2 1157.65 871.85 1140.8 868.5 1080.7 856.5 1028.7 862.2 981.15 867.45 945.05 886.85 911.3 904.85 892.45 932.25 874.4 958.45 817.6 1244 816.8 1247.95 816 1286.05
M 1146 -218
L 1164.9 -181.1
Q 1188.95 -136.1 1214.75 -95.5 1297.25 34.5 1366 72 1382.95 81.25 1395.55 100 1411.75 124.2 1420.7 164.2 1434.65 226.7 1428.5 314.5 1422.8 395.95 1402.55 468.55 1382 542.3 1342.6 593.05 1335 602.85 1329.1 622.45 1327.45 628 1324.05 639.8 1320.85 650.45 1317.45 658.55 1308.2 680.95 1291.7 699.1 1270.95 722.1 1236 742 1201.55 761.6 1160.6 773.95 1130.4 783.1 1089.65 790 1046.4 796.55 1027.9 800 996.7 805.8 980 814 965.4 821.15 931.85 832.05 890.75 845.35 876.45 851 845.8 862.95 829.3 875.9 808.85 891.95 806 912 801.8 941.7 786.7 966.5 776.65 983.05 756.4 1004.3 742.4 1019 741.3 1020.2 733.25 1029 664 1074.8 596.9 1119.2 624.2 1244 625.05 1247.95 640 1303.25
M 861.9 -246.05
Q 862.35 -234.95 861.9 -217.3 861 -181.85 856.55 -148.45 842.3 -41.5 797.75 5.35 785.8 17.95 777.75 39.5 769.25 62.2 766.55 91.3 766.15 95.65 765.9 100 761.9 163.6 785.35 237.35 791.65 257.45 818.75 280.25 846.2 303.3 889.4 360.35 932.45 417.2 1012.15 415.6 1029.85 415.25 1053.2 420.15 1068.3 423.35 1093.75 430.75 1120 438.5 1129 440.5 1146 444.25 1154.35 442.2 1226.2 424.5 1256.65 383.6 1268.45 367.65 1276.45 345.2 1280.05 335.05 1288.05 304.9 1290.4 296.2 1295.35 287.35 1297.5 283.5 1304.4 273.05 1309.85 264.7 1312.2 259.4 1315.55 251.7 1315.7 243.85 1316.05 225.1 1297.55 196.6 1276.25 163.75 1225.65 110.6 1220.7 105.45 1215.45 100 1180.85 64.5 1130.75 17.8 1103.35 -7.75 1093.3 -17.5 1074.85 -35.35 1063.15 -48.55 1035.6 -79.8 1027.35 -107.55 1018.1 -138.4 1027.75 -178.3
M 2336 42
Q 2319.15 43.25 2293.35 47.3 2241.8 55.45 2197.25 69.5 2155.45 82.7 2123.95 100 2108.5 108.5 2095.55 117.95 2046.3 153.9 2036 202 2028.5 237 2016 294.35 2006.7 338.65 2003.5 363.25 1999.6 393.35 2002.25 411.55 2005.1 431.1 2016 442 2025.2 451.2 2030.05 473.9 2031.05 478.45 2033.95 494.75 2036.35 508.5 2038.5 517 2045.15 543.5 2058.2 560.15 2075.15 581.7 2106 592 2115.2 595.05 2126 598.35 2181.45 615.25 2279.75 638.25 2338.5 652 2386 662
M 2296 762
Q 2286.65 754.5 2270.85 745.3 2239.3 726.85 2207.25 718.25 2164.1 706.65 2126 714.95 2124.5 715.25 2123.05 715.6 2073.8 727.3 2036 772 1969.1 851.1 1852.25 908.25 1825.95 921.1 1775.85 942.15 1741.35 956.65 1736 962 1728.45 969.55 1713.65 1005.9 1698.7 1042.6 1684.75 1088.25 1669.25 1138.95 1661.45 1179.95 1653.85 1220.2 1655.25 1244 1655.45 1248.25 1662 1290.05
M 1202.75 227.35
Q 1209.2 211.85 1174.1 163.75 1151.8 133.2 1120.8 100 1106.85 85.05 1091.15 69.6 1039.05 18.35 998.95 -7.55 953.6 -36.85 942.55 -20.2 928.05 1.6 917.1 15.1 907.6 26 905 29.1 901.25 33.55 899.15 39.65 897.4 44.65 892.5 64.7 890.7 71.95 884.65 80.35 881 85.35 872.45 94.9 869.95 97.65 867.95 100 863.05 105.6 860.8 108.8 855.45 116.4 854.7 122.45 851.25 150.7 861.4 183.45 870.45 212.3 888.85 241.5 905.4 267.6 925.75 288.25 945.15 307.9 960.9 315.6 964.2 317.25 974.45 322.4 984.65 327.3 993.15 330.3 1018.15 339.1 1033.4 333.5 1055.45 325.6 1076.25 321.05 1089 318.3 1107.4 315.85 1124.25 313.6 1130.6 312 1141.45 309.3 1149.55 303.7 1167.5 291.35 1178.45 275.6 1189.2 260.1 1202.75 227.35 Z
M 170.8 -176.05
Q 179.25 -163.65 191.95 -142.45 217.3 -100 238.4 -55.75 278.6 28.35 294.9 100 306 148.9 306 192 306 246.95 334.4 314.35 344.6 338.5 360.9 370.1 370.1 387.9 387.6 420.8 401.8 448.25 408.45 465.4 416.95 487.4 417.45 502.8 418.05 520.25 408.65 532.05 398.5 544.75 376 552 327.65 567.5 226.25 529.7 137.3 496.6 28.2 431.05 -50.45 383.75 -114 335.4 -132.5 321.35 -149.7 307.2 -186.9 276.65 -209.8 251.9 -233.7 226.05 -239.2 209.55
M -238.05 1260.05
Q -193.65 1119.7 -90.35 1018.2 12.9 916.7 41 899.5 80.4 875.45 117.9 869.2 164.75 861.4 206 882 309.2 933.6 391 955.75 490.7 982.75 546 962 566 954.5 598.95 942.15 624.4 932.15 639.75 923.25 658.15 912.6 671.15 898.7 685.05 883.85 696 862 724 806 739.75 748.25 759.5 675.8 746 642 728.05 597.1 713.5 540.75 696 472.95 696 432 696 411.8 681.95 376.4 672.3 352.1 651 309.5 625.7 258.9 620.05 246.4 606 215.15 606 202 606 197 603.5 152 601.95 124.05 601.35 100 601 85.3 601 72 601 -43 626 -118 641.1 -163.3 647.1 -189.7 653.2 -216.55 652.25 -234.25 651.4 -250.15 644.3 -265.65 640.55 -273.7 626 -298
M 433.75 -272
Q 408.9 -203 456.15 -100.25 471.15 -67.7 496.45 -25.8 503 -14.95 514.5 3.65 523.65 18.6 527.55 26 532.85 34.05 536.45 41.1 543.2 54.55 544.05 68.05 544.55 82.9 540.8 92.65 539.7 95.35 537.95 100 535.45 106.55 531.55 116.9 526.1 131.35 524.05 155.7 522 180.1 527 194 531.55 206.75 532.05 210.1 533.1 216.45 539.4 229.2 543 236.45 554.7 257.75 581.55 306.8 596.05 341.15 651.05 471.35 631.25 596.25 626.1 628.7 631.3 651.4 635.1 667.9 645.75 682.05 648.05 685.05 652.55 695.7 658.05 708.8 657.9 715.35 657.3 739.35 652.5 752.25 649.05 761.45 639.85 770.05 635.95 773.7 620.6 785.45 607.15 795.75 599.2 804.25 587.45 816.8 580.05 832.25 572.7 847.6 547.1 859.3 520.85 871.35 489.6 872.8 454.55 874.45 426.3 861.5 393.6 846.55 376 814.25 367.25 798.2 320.8 769.5 279.6 744.05 221.75 716.35 166.1 689.7 65.4 664.6 -18.1 643.75 -114 724.5 -133.75 741.1 -236.05 878
M 319.95 -9.95
Q 321.2 -4.85 328.2 4.6 332.4 10.2 342.95 23.7 364.1 52.05 368.05 76.1 369.1 82.5 376.45 95 377.7 97.1 379.5 100 384.65 108.3 394.45 123.15 427.3 172.95 444.05 205.15 511 333.7 556.9 416.9 567.2 435.5 567.85 474.15 568.35 498.85 564.05 549.4 559.35 604.85 557.65 631.75 555.85 659.75 557.9 677.65 559.9 695.35 552.3 711.25 544.75 727.1 532.2 737.65 517.9 749.8 517.55 750.15 492.85 774.55 464.65 773.25 442.25 772.25 408.15 753.25 347.8 719.65 339.55 710.7 331.3 701.75 300.75 681 267.55 658.1 243.3 641.55 197.3 610.15 177.95 598.2 168.7 592.5 145.2 584.6 129.7 579.35 97.1 569.75 60.25 558.95 46.85 554.65 24.95 547.7 -114 494.85 -141.7 484.35 -238.05 434
M 115.1 403.7
Q 160.8 426.7 204.95 404.7 249.1 382.65 255.05 336.75 260.95 290.8 236.2 218.7 232.25 207.3 225.25 176.1 217.9 143.35 211.95 124.8 207.8 111.85 202.7 100 182 51.95 146 22 141.65 18.35 117.5 2.85 71.3 -26.8 68.3 -28.75 0.15 -73.15 -5.5 -84.1 -19.7 -111.6 -43.2 -117.3 -60.2 -121.55 -78.3 -125.6 -101.95 -131 -103.7 -130.6 -105.5 -130.15 -118.65 -125.45 -133.9 -119.8 -148.75 -113.85 -192.45 -96.2 -200.75 -87.9 -220.85 -67.8 -232.95 -35.7 -243.6 -7.4 -247.05 26.95 -250.05 57.7 -246.7 86.5 -243.5 113.9 -235.8 129.7 -234.2 133 -229.3 143.4 -224.3 153.5 -219.45 161.15 -205.15 183.4 -189.65 188.4 -167.4 195.7 -148.2 204.95 -136.45 210.6 -120.45 220 -117 222 -114 223.7 -104.35 229.2 -99.75 231.2 -89.55 235.75 -79.7 236.3 -75.7 236.6 -58 252.95 -31.3 277.7 19.05 329.2 69.35 380.7 115.1 403.7 Z
M 516.05 1293.5
Q 522.9 1283 530.55 1266.7 535.85 1255.3 540.05 1244 545.1 1230.2 548.5 1216.5 566.95 1141.7 530 1092 515.4 1072.35 504.75 1065.65 495.3 1059.7 480.9 1059.7 460.55 1060.9 445.3 1061.3 416.65 1062 384.9 1057.7 230.55 1036.85 202.5 1023.9 174.4 1010.95 152.35 1020.9 136.35 1028.05 119.55 1035.95 97.65 1046.25 96.5 1047.6 95.3 1049.05 87.9 1060.85 79.3 1074.7 71.25 1088.55 47.65 1129.35 46.2 1140.95 42.75 1169.2 52.9 1201.95 59.45 1222.9 70.95 1244 75.3 1252 80.35 1260 96.9 1286.1 117.25 1306.75 136.65 1326.4 152.4 1334.1 155.7 1335.75 165.95 1340.9 176.15 1345.8 184.65 1348.8 209.65 1357.6 224.9 1352 246.95 1344.1 267.75 1339.55 280.5 1336.8 298.9 1334.35 315.75 1332.1 322.1 1330.5 332.95 1327.8 341.05 1322.2 344.4 1319.9 368.4 1321.95 404.65 1325.05 419.55 1325.35 494.3 1326.75 516.05 1293.5 Z
M 2288.1 1218.9
Q 2294.95 1208.4 2302.6 1192.1 2314.4 1166.85 2320.55 1141.9 2339 1067.1 2302.05 1017.4 2287.45 997.75 2276.8 991.05 2267.35 985.1 2252.95 985.1 2232.6 986.3 2217.35 986.7 2188.7 987.4 2161 911.5 2149.3 879.45 2126 869.8 2094.15 856.6 2040.6 885.3 1947.85 935 1928.15 944.25 1908.4 953.45 1891.6 961.35 1869.7 971.65 1868.55 973 1867.35 974.45 1859.95 986.25 1851.35 1000.1 1843.3 1013.95 1819.7 1054.75 1818.25 1066.35 1814.8 1094.6 1824.95 1127.35 1834 1156.2 1852.4 1185.4 1868.95 1211.5 1889.3 1232.15 1895.8 1238.75 1901.95 1244 1914 1254.4 1924.45 1259.5 1931 1262.8 1939.25 1266.65 1953.05 1273.2 1956.7 1274.2 2050.85 1300.65 2138.7 1285.85 2166.4 1281.15 2195.5 1271.8 2200.6 1270.15 2214.75 1265.35 2224 1262.15 2227.65 1261.3 2266.35 1252.15 2288.1 1218.9 Z"/>

<path id="Layer7_0_1_STROKES" stroke="#FFFFFF" stroke-width="8" stroke-linejoin="round" stroke-linecap="round" fill="none" d="
M 911.45 599.75
Q 907.65 600.5 900.8 600.5 887.35 600.5 882.7 602 871.55 605.75 862.7 609.25 847.95 615 846.35 617.4 844.15 620.7 839 631.55 833.3 643.55 831.65 649.4 830.9 651.95 828.05 672.25 825.55 689.8 823.05 693.7 819.95 698.45 826.05 719.6 832 740.15 836.5 744.15 842 749.05 859.05 757.4 878.6 766.95 887.6 766.95 894.45 766.95 909.75 761.8 924.6 756.8 930.05 757.1 938.25 757.55 951.9 751.25 965.4 745.05 968.2 739.85 970.85 735.05 974.25 715.1 977.45 696 977.45 687.55 977.45 684 975.5 677 974.45 673.25 970.95 662.9
L 966 647.65
Q 963.5 639.25 962.9 632.6 962.3 625.95 946.15 617 929.85 608 911.45 599.75 Z"/>

<path id="Layer6_0_1_STROKES" stroke="#FFFFFF" stroke-opacity="0.38823529411764707" stroke-width="8" stroke-linejoin="round" stroke-linecap="round" fill="none" d="
M 1126 492.6
L 1099.25 523.7 1139.95 530.65"/>
</defs>

<g transform="matrix( 1, 0, 0, 1, 0,0) ">
<use xlink:href="#Layer11_0_FILL"/>
</g>

<g transform="matrix( 1, 0, 0, 1, 0,0) ">
<use xlink:href="#Layer10_0_1_STROKES"/>
</g>

<g transform="matrix( 1, 0, 0, 1, 0,0) ">
<use xlink:href="#Layer7_0_1_STROKES"/>
</g>

<g transform="matrix( 1, 0, 0, 1, -64,122) ">
<use xlink:href="#Layer6_0_1_STROKES"/>

<use xlink:href="#Layer6_0_STROKES_1_FILL"/>
</g>

<g transform="matrix( 1, 0, 0, 1, -92,122) ">
<use xlink:href="#Layer5_0_FILL"/>
</g>
</svg>
